<svg width="32" height="32" viewBox="0 0 32 32" fill="none" xmlns="http://www.w3.org/2000/svg">
  <circle cx="16" cy="16" r="11.25" stroke="#FF00FF" stroke-width="1.5"/>
  <path d="M15.0739 19.2955C15.0739 19.2955 15 19.9628 16 20C17 20.0372 16.7784 19.2955 16.7784 19.2955V19.2102C16.8068 17.4489 17.2614 16.6818 18.5114 15.9006C19.7614 15.1406 20.5 14.0469 20.5 12.4773C20.5 10.2614 18.8807 8.64205 16.3807 8.64205C14.0795 8.64205 12.2543 10.0625 12.1477 12.4773H13.9375C14.044 10.8011 15.2159 10.1193 16.3807 10.1193C17.7159 10.1193 18.7955 11 18.7955 12.392C18.7955 13.5213 18.1491 14.331 17.3182 14.8352C15.9261 15.6804 15.0952 16.5043 15.0739 19.2102V19.2955ZM15.983 23.5C16.6861 23.5 17.2614 22.9247 17.2614 22.2216C17.2614 21.5185 16.6861 20.9432 15.983 20.9432C15.2798 20.9432 14.7045 21.5185 14.7045 22.2216C14.7045 22.9247 15.2798 23.5 15.983 23.5Z" fill="#FF00FF"/>
</svg>
