<svg width="66" height="76" viewBox="0 0 66 76" fill="none" xmlns="http://www.w3.org/2000/svg">
<rect x="5" y="8" width="60" height="67" rx="3" stroke="#DEDEDE" stroke-width="2"/>
<path fill-rule="evenodd" clip-rule="evenodd" d="M16 24H24V32H16V24ZM16 39H24V47H16V39ZM30 39H46V41H30V39ZM55 45H30V47H55V45ZM24 54H16V62H24V54ZM46 54H30V56H46V54ZM30 60H55V62H30V60ZM30 24H46V26H30V24ZM55 30H30V32H55V30Z" fill="#E1E1E1"/>
<circle cx="13" cy="13" r="13" fill="#D4D4D4"/>
<path d="M19.0254 12.2129C19.0254 13.541 18.8105 14.6966 18.3809 15.6797C17.9512 16.6562 17.3555 17.4408 16.5938 18.0332L18.957 19.8887L17.0918 21.5391L14.0645 19.1074C13.7194 19.166 13.3613 19.1953 12.9902 19.1953C11.8118 19.1953 10.7604 18.9121 9.83594 18.3457C8.91146 17.7793 8.19531 16.972 7.6875 15.9238C7.17969 14.8691 6.92253 13.6582 6.91602 12.291V11.5879C6.91602 10.1882 7.16667 8.95768 7.66797 7.89648C8.17578 6.82878 8.88867 6.01172 9.80664 5.44531C10.7311 4.8724 11.7858 4.58594 12.9707 4.58594C14.1556 4.58594 15.207 4.8724 16.125 5.44531C17.0495 6.01172 17.7624 6.82878 18.2637 7.89648C18.7715 8.95768 19.0254 10.1849 19.0254 11.5781V12.2129ZM16.0566 11.5684C16.0566 10.0775 15.7897 8.94466 15.2559 8.16992C14.722 7.39518 13.9603 7.00781 12.9707 7.00781C11.9876 7.00781 11.2292 7.39193 10.6953 8.16016C10.1615 8.92188 9.89128 10.0417 9.88477 11.5195V12.2129C9.88477 13.6647 10.1517 14.791 10.6855 15.5918C11.2194 16.3926 11.9876 16.793 12.9902 16.793C13.9733 16.793 14.7285 16.4089 15.2559 15.6406C15.7832 14.8659 16.0501 13.7396 16.0566 12.2617V11.5684Z" fill="white"/>
</svg>
