<svg width="180" height="148" viewBox="0 0 180 148" fill="none" xmlns="http://www.w3.org/2000/svg">
<g clip-path="url(#clip0)">
<rect width="180" height="148" fill="transparent"/>
<rect x="32" y="9" width="128" height="128" rx="22" fill="#D5ECF8"/>
<mask id="mask0" mask-type="alpha" maskUnits="userSpaceOnUse" x="32" y="9" width="128" height="128">
<rect x="32" y="9" width="128" height="128" rx="22" fill="white"/>
</mask>
<g mask="url(#mask0)">
<rect x="50.4375" y="16.3125" width="18.5625" height="2.8125" fill="#FDFEFE"/>
<rect x="55" y="16.3125" width="69" height="2.8125" fill="white"/>
<path fill-rule="evenodd" clip-rule="evenodd" d="M105.528 24.1875H57.75V27.4368H105.528V24.1875ZM138.546 104.255H109.112V107.505H138.546V104.255ZM65.0874 118.813H112.865V122.062H65.0874V118.813ZM139.265 122.062H169.688V118.813H140.428L139.265 122.062Z" fill="#72CBFE"/>
<rect x="120.188" y="24.1875" width="54" height="2.8125" fill="#FDFEFE"/>
<rect x="58.3125" y="31.5" width="66.9375" height="2.8125" fill="#087BCF"/>
<path fill-rule="evenodd" clip-rule="evenodd" d="M180.723 31.5H132.938V34.7481H180.723V31.5ZM169.097 118.814H121.312V122.062H169.097V118.814Z" fill="#72CBFE"/>
<rect x="57.75" y="38.8125" width="47.8125" height="2.8125" fill="#FDFEFE"/>
<rect x="50.4375" y="45.5625" width="75" height="2.8125" fill="#72CBFE"/>
<rect x="50.4375" y="52.875" width="47.8125" height="2.8125" fill="#FDFEFE"/>
<rect x="72.9375" y="60.1875" width="71.4375" height="2.8125" fill="#087BCF"/>
<rect x="152.812" y="60.1875" width="25.875" height="2.8125" fill="#FDFEFE"/>
<rect x="72.9375" y="67.5" width="32.0625" height="2.8125" fill="#FDFEFE"/>
<rect x="72.375" y="75.375" width="43.3125" height="2.8125" fill="#087BCF"/>
<rect x="130.875" y="75.375" width="31" height="2.8125" fill="#FDFEFE"/>
<rect x="50.4375" y="82.6875" width="29.25" height="2.8125" fill="#FDFEFE"/>
<rect x="50.4375" y="89.4375" width="47.8125" height="2.8125" fill="#FDFEFE"/>
<rect x="72.375" y="96.75" width="86.625" height="2.8125" fill="#087BCF"/>
<rect x="71.8125" y="104.062" width="29.8125" height="2.8125" fill="#FDFEFE"/>
<rect x="145.5" y="104.062" width="25" height="2.8125" fill="#FDFEFE"/>
<rect x="50.4375" y="111.375" width="47.8125" height="2.8125" fill="#FDFEFE"/>
<rect x="120.75" y="133.312" width="26.4375" height="2.8125" fill="#FDFEFE"/>
<rect x="65.0625" y="126.562" width="70.3125" height="2.8125" fill="#FDFEFE"/>
<path fill-rule="evenodd" clip-rule="evenodd" d="M37.5 9H40.3125V12.2671H37.5V9ZM40.3125 16.3188H37.5V19.586H40.3125V16.3188ZM37.5 23.6377H40.3125V26.9048H37.5V23.6377ZM40.3125 30.9565H37.5V34.2237H40.3125V30.9565ZM37.5 38.2754H40.3125V41.5425H37.5V38.2754ZM40.3125 45.5942H37.5V48.8614H40.3125V45.5942ZM37.5 52.9131H40.3125V56.1802H37.5V52.9131ZM40.3125 60.2319H37.5V63.499H40.3125V60.2319ZM37.5 67.5508H40.3125V70.8179H37.5V67.5508ZM40.3125 74.8696H37.5V78.1367H40.3125V74.8696ZM37.5 82.1885H40.3125V85.4556H37.5V82.1885ZM40.3125 89.5073H37.5V92.7744H40.3125V89.5073ZM37.5 96.8261H40.3125V100.093H37.5V96.8261ZM40.3125 104.145H37.5V107.412H40.3125V104.145ZM37.5 111.464H40.3125V114.731H37.5V111.464ZM40.3125 118.783H37.5V122.05H40.3125V118.783ZM37.5 126.102H40.3125V129.369H37.5V126.102ZM40.3125 133.42H37.5V136.688H40.3125V133.42Z" fill="#62B0FF"/>
<rect x="65.0625" y="133.312" width="35.4375" height="2.8125" fill="#FDFEFE"/>
<path d="M132.553 27H120.188V24.1875H133.688L132.553 27Z" fill="#FDFEFE"/>
<path d="M104.438 70.3125H96L97.1546 67.5H104.438V70.3125Z" fill="#FDFEFE"/>
<path d="M97.6875 92.25H88.6875L89.7811 89.4375H97.6875V92.25Z" fill="#FDFEFE"/>
<path d="M101.625 106.875H83.0625L84.2325 104.062H101.625V106.875Z" fill="#FDFEFE"/>
<path d="M98.25 114.188H80.8125L81.9795 111.375H98.25V114.188Z" fill="#FDFEFE"/>
<path d="M95.9932 129.375H75.75L76.8825 126.562H97.125L95.9932 129.375Z" fill="#FDFEFE"/>
<rect x="50.4375" y="16.3125" width="18.5625" height="2.8125" fill="#087BCF"/>
<path d="M53.0553 85.5H50.4375V82.6875H54.375L53.0553 85.5Z" fill="#FDFEFE"/>
<path d="M50.4375 91.6875V89.4375H51L50.4375 91.6875Z" fill="#FDFEFE"/>
</g>
<circle cx="61.8663" cy="55.8662" r="45.8662" transform="rotate(-45 61.8663 55.8662)" fill="#ACE0FE"/>
<path fill-rule="evenodd" clip-rule="evenodd" d="M94.2986 88.2986C112.21 70.3867 112.21 41.3458 94.2986 23.4339C76.3867 5.52203 47.3458 5.52203 29.4339 23.4339C11.522 41.3458 11.522 70.3867 29.4339 88.2986C47.3458 106.21 76.3867 106.21 94.2986 88.2986Z" fill="#EEF9FF"/>
<mask id="mask1" mask-type="alpha" maskUnits="userSpaceOnUse" x="16" y="10" width="92" height="92">
<path fill-rule="evenodd" clip-rule="evenodd" d="M94.2986 88.2986C112.21 70.3867 112.21 41.3458 94.2986 23.4339C76.3867 5.52203 47.3458 5.52203 29.4339 23.4339C11.522 41.3458 11.522 70.3867 29.4339 88.2986C47.3458 106.21 76.3867 106.21 94.2986 88.2986Z" fill="white"/>
</mask>
<g mask="url(#mask1)">
<rect x="47.1103" y="22.6934" width="44.7188" height="4.21875" fill="#FDFEFE"/>
<rect x="47.1103" y="33.6622" width="27.8438" height="4.21875" fill="#FDFEFE"/>
<rect x="82.704" y="33.6622" width="34" height="4.21875" fill="#ACE0FE"/>
<rect x="58.079" y="45.4747" width="62" height="4.87395" fill="#ACE0FE"/>
<rect x="58.9228" y="56.4434" width="64" height="4.21875" fill="#087BCF"/>
<rect x="58.079" y="67.4122" width="71.7188" height="4.21875" fill="#ACE0FE"/>
<rect x="47.1103" y="77.5372" width="69" height="4.21875" fill="#ACE0FE"/>
<rect x="47.1103" y="88.5059" width="71.7188" height="4.21875" fill="#ACE0FE"/>
<rect x="31.704" y="22.6934" width="4.21875" height="4.9007" fill="#7194BF"/>
<rect x="31.704" y="33.6717" width="4.21875" height="4.9007" fill="#7194BF"/>
<rect x="31.704" y="44.65" width="4.21875" height="4.9007" fill="#7194BF"/>
<rect x="31.704" y="55.6282" width="4.21875" height="4.9007" fill="#7194BF"/>
<rect x="31.704" y="66.6065" width="4.21875" height="4.9007" fill="#7194BF"/>
<rect x="31.704" y="77.5847" width="4.21875" height="4.9007" fill="#7194BF"/>
<rect x="31.704" y="88.563" width="4.21875" height="4.9007" fill="#7194BF"/>
<rect x="31.704" y="99.5413" width="4.21875" height="4.9007" fill="#7194BF"/>
<path fill-rule="evenodd" clip-rule="evenodd" d="M31.704 22.6934H35.9228V27.5941H31.704V22.6934ZM31.704 33.6717H35.9228V38.5724H31.704V33.6717ZM35.9228 44.65H31.704V49.5507H35.9228V44.65ZM31.704 55.6282H35.9228V60.5289H31.704V55.6282ZM35.9228 66.6065H31.704V71.5072H35.9228V66.6065ZM31.704 77.5848H35.9228V82.4855H31.704V77.5848ZM35.9228 88.563H31.704V93.4637H35.9228V88.563Z" fill="#62B0FF"/>
<path d="M90.0678 26.9122H47.1103V22.6934H91.829L90.0678 26.9122Z" fill="#ACE0FE"/>
<rect x="47.1103" y="33.6622" width="27.8438" height="4.21875" fill="#087BCF"/>
</g>
<path opacity="0.3" fill-rule="evenodd" clip-rule="evenodd" d="M137.889 117.401C140.559 120.071 140.559 124.4 137.889 127.069C135.219 129.739 130.89 129.739 128.221 127.069L94.0618 92.9107C86.0713 98.9029 76.1945 102.505 65.4755 102.519C39.1161 102.552 17.7005 81.1362 17.7337 54.7767C17.7669 28.4173 39.2366 6.94762 65.596 6.91438C91.9555 6.88115 113.371 28.2968 113.338 54.6562C113.324 65.3752 109.722 75.252 103.73 83.2425L137.889 117.401ZM65.5903 11.467C41.7416 11.497 22.3163 30.9223 22.2863 54.771C22.2562 78.6197 41.6325 97.996 65.4812 97.966C89.3299 97.9359 108.755 78.5106 108.785 54.6619C108.815 30.8132 89.439 11.4369 65.5903 11.467Z" fill="#72CBFE"/>
<path fill-rule="evenodd" clip-rule="evenodd" d="M134.583 119.13C137.253 121.8 137.253 126.128 134.583 128.798C131.914 131.468 127.585 131.468 124.915 128.798L90.7565 94.6395C82.766 100.632 72.8892 104.234 62.1702 104.247C35.8108 104.281 14.3952 82.865 14.4284 56.5055C14.4616 30.1461 35.9313 8.67641 62.2907 8.64317C88.6502 8.60994 110.066 30.0255 110.033 56.385C110.019 67.104 106.417 76.9808 100.425 84.9713L134.583 119.13ZM62.285 13.1958C38.4363 13.2258 19.011 32.6511 18.981 56.4998C18.9509 80.3485 38.3273 99.7248 62.1759 99.6948C86.0246 99.6647 105.45 80.2394 105.48 56.3907C105.51 32.542 86.1337 13.1657 62.285 13.1958Z" fill="#72CBFE"/>
</g>
<defs>
<clipPath id="clip0">
<rect width="180" height="148" fill="white"/>
</clipPath>
</defs>
</svg>
