<svg width="66" height="76" viewBox="0 0 66 76" fill="none" xmlns="http://www.w3.org/2000/svg">
<rect x="5" y="8" width="60" height="67" rx="3" stroke="#DEDEDE" stroke-width="2"/>
<path fill-rule="evenodd" clip-rule="evenodd" d="M16 24H24V32H16V24ZM16 39H24V47H16V39ZM30 39H46V41H30V39ZM55 45H30V47H55V45ZM24 54H16V62H24V54ZM46 54H30V56H46V54ZM30 60H55V62H30V60ZM30 24H46V26H30V24ZM55 30H30V32H55V30Z" fill="#E1E1E1"/>
<circle cx="13" cy="13" r="13" fill="#D4D4D4"/>
<path d="M19.4775 15.79C19.3558 17.473 18.7327 18.7979 17.6084 19.7646C16.4912 20.7314 15.016 21.2148 13.1826 21.2148C11.1774 21.2148 9.59831 20.5417 8.44531 19.1953C7.29948 17.8418 6.72656 15.987 6.72656 13.6309V12.6748C6.72656 11.1709 6.99154 9.84603 7.52148 8.7002C8.05143 7.55436 8.80697 6.67708 9.78809 6.06836C10.7764 5.45247 11.9222 5.14453 13.2256 5.14453C15.0303 5.14453 16.484 5.62793 17.5869 6.59473C18.6898 7.56152 19.3271 8.91862 19.499 10.666H16.2764C16.1976 9.65625 15.9147 8.92578 15.4277 8.47461C14.9479 8.01628 14.2139 7.78711 13.2256 7.78711C12.1514 7.78711 11.3457 8.17383 10.8086 8.94727C10.2786 9.71354 10.0065 10.9059 9.99219 12.5244V13.7061C9.99219 15.3962 10.2464 16.6315 10.7549 17.4121C11.2705 18.1927 12.0798 18.583 13.1826 18.583C14.1781 18.583 14.9193 18.3574 15.4062 17.9062C15.9004 17.4479 16.1833 16.7425 16.2549 15.79H19.4775Z" fill="white"/>
</svg>
