<svg width="32" height="32" viewBox="0 0 32 32" fill="none" xmlns="http://www.w3.org/2000/svg">
<path d="M4.24785 25.4074L14.8994 5.62589C15.3714 4.7494 16.6286 4.74939 17.1006 5.6259L27.7522 25.4074C28.2006 26.2402 27.5974 27.25 26.6516 27.25H5.34843C4.40259 27.25 3.79942 26.2402 4.24785 25.4074Z" stroke="#FF00FF" stroke-width="1.5"/>
<path d="M16 19.5V12.5" stroke="#FF00FF" stroke-width="1.5" stroke-linecap="round"/>
<path d="M17.0001 23.5C17.0001 24.0523 16.5524 24.5 16.0001 24.5C15.4478 24.5 15.0001 24.0523 15.0001 23.5C15.0001 22.9477 15.4478 22.5 16.0001 22.5C16.5524 22.5 17.0001 22.9477 17.0001 23.5Z" fill="#FF00FF"/>
<path d="M17.0001 23.5C17.0001 24.0523 16.5524 24.5 16.0001 24.5C15.4478 24.5 15.0001 24.0523 15.0001 23.5C15.0001 22.9477 15.4478 22.5 16.0001 22.5C16.5524 22.5 17.0001 22.9477 17.0001 23.5Z" stroke="#FF00FF"/>
</svg>
