<svg xmlns="http://www.w3.org/2000/svg" width="32" height="32" viewBox="0 0 32 32">
  <g fill="none" fill-rule="evenodd">
    <rect width="32" height="32" fill="#00FFFF"/>
    <path fill="#00FF00" d="M9.850303,10.722225 C9.769503,10.808925 9.685303,10.892525 9.598003,10.972825 C9.192903,11.345125 8.720403,11.643425 8.209103,11.847225 C7.679603,12.058225 7.111103,12.166425 6.541103,12.166425 C5.971103,12.166425 5.402603,12.058225 4.873103,11.847225 C4.361803,11.643425 3.889403,11.345125 3.484203,10.972825 C3.134203,10.651225 2.834803,10.275025 2.599803,9.861925 C2.378603,9.473025 2.214803,9.051825 2.115303,8.615625 C1.885203,7.607925 2.001503,6.531725 2.446203,5.598425 C2.667003,5.135225 2.965903,4.709825 3.326703,4.345025 C3.686903,3.980825 4.108303,3.677625 4.568803,3.453325 C4.972503,3.256725 5.405403,3.121125 5.849203,3.052525 C6.039903,3.023125 6.231303,3.008525 6.424103,3.001125 C6.541103,2.999625 6.540603,2.999625 6.658103,3.001125 C6.850903,3.008525 7.042303,3.023125 7.233003,3.052525 C7.676803,3.121125 8.109703,3.256725 8.513403,3.453325 C8.973903,3.677725 9.395203,3.980825 9.755403,4.344925 C9.881803,4.472725 10.000603,4.607925 10.111203,4.749625 L21.387703,4.749625 C21.498203,4.607925 21.617003,4.472725 21.743403,4.344925 C22.103603,3.980825 22.524903,3.677725 22.985403,3.453325 C23.389103,3.256725 23.822103,3.121125 24.265803,3.052525 C24.456603,3.023125 24.648003,3.008525 24.840703,3.001125 C24.958203,2.999625 24.957803,2.999625 25.074803,3.001125 C25.267503,3.008525 25.458903,3.023125 25.649703,3.052525 C26.093503,3.121125 26.526403,3.256725 26.930103,3.453325 C27.390603,3.677725 27.811903,3.980825 28.172103,4.344925 C28.533003,4.709725 28.831903,5.135225 29.052603,5.598425 C29.497403,6.531825 29.613603,7.607925 29.383603,8.615625 C29.284003,9.051825 29.120203,9.473025 28.899103,9.861925 C28.664103,10.275025 28.364703,10.651225 28.014703,10.972825 C27.609403,11.345125 27.137003,11.643425 26.625803,11.847225 C26.096303,12.058225 25.527703,12.166425 24.957803,12.166425 C24.387803,12.166425 23.819303,12.058225 23.289703,11.847225 C22.778503,11.643425 22.306003,11.345125 21.900803,10.972825 C21.663803,10.754925 21.450003,10.512125 21.263603,10.249625 L10.2208252,10.2496252 C10.0228271,10.5209961 10.0384521,10.4327393 9.850303,10.722225 Z M24.879103,4.500725 C24.449203,4.517225 24.030103,4.613125 23.642403,4.801925 C23.333703,4.952325 23.051403,5.155825 22.809903,5.399925 C22.567003,5.645525 22.365703,5.931925 22.217103,6.243725 C21.795703,7.128225 21.820703,8.192125 22.284503,9.055225 C22.447703,9.358925 22.661903,9.634925 22.915803,9.868225 C23.187003,10.117425 23.503003,10.317325 23.845203,10.453725 C24.198403,10.594525 24.577603,10.666225 24.957803,10.666225 C25.338003,10.666225 25.717103,10.594525 26.070403,10.453725 C26.412603,10.317325 26.728503,10.117325 26.999703,9.868225 C27.253603,9.634925 27.467903,9.358925 27.631103,9.055225 C28.094803,8.192125 28.119903,7.128225 27.698403,6.243725 C27.549803,5.931925 27.348603,5.645525 27.105703,5.399925 C26.864203,5.155825 26.581903,4.952325 26.273103,4.801925 C25.885403,4.613125 25.466303,4.517225 25.036503,4.500725 C24.957803,4.499725 24.958403,4.499725 24.879103,4.500725 L24.879103,4.500725 L24.879103,4.500725 Z M9.214403,9.055225 C9.678103,8.192125 9.703203,7.128225 9.281803,6.243725 C9.133203,5.931925 8.931903,5.645525 8.689003,5.399925 C8.447503,5.155825 8.165203,4.952325 7.856503,4.801925 C7.468803,4.613125 7.049603,4.517225 6.619803,4.500725 C6.540503,4.499725 6.541103,4.499725 6.462403,4.500725 C6.333603,4.505625 6.205703,4.515425 6.078203,4.535125 C5.782703,4.580725 5.494503,4.671025 5.225703,4.802025 C4.917003,4.952325 4.634703,5.155725 4.393303,5.399825 C4.150303,5.645525 3.949003,5.931925 3.800403,6.243725 C3.379003,7.128025 3.404003,8.192125 3.867703,9.055125 C4.031003,9.358825 4.245203,9.634825 4.499103,9.868225 C4.770303,10.117325 5.086303,10.317325 5.428503,10.453725 C5.781703,10.594525 6.160903,10.666225 6.541103,10.666225 C6.921303,10.666225 7.300403,10.594525 7.653703,10.453725 C7.995803,10.317325 8.311903,10.117425 8.583003,9.868225 C8.778803,9.688325 8.951003,9.483125 9.094403,9.259325 L9.193103,9.094125 C9.193103,9.094125 9.207403,9.068225 9.214403,9.055225 Z M24.983603,5.997425 C25.859003,5.997425 26.569703,6.708125 26.569703,7.583525 C26.569703,8.458825 25.859003,9.169525 24.983603,9.169525 C24.108303,9.169525 23.397603,8.458825 23.397603,7.583525 C23.397603,6.708125 24.108303,5.997425 24.983603,5.997425 L24.983603,5.997425 L24.983603,5.997425 Z M20.612303,6.249625 L10.886703,6.249625 C11.115603,7.014025 11.145003,7.835325 10.966903,8.615625 C10.956703,8.660425 10.945803,8.705125 10.934203,8.749625 L20.564703,8.749625 C20.553103,8.705125 20.542203,8.660525 20.531903,8.615625 C20.353803,7.835325 20.383303,7.014025 20.612303,6.249625 L20.612303,6.249625 L20.612303,6.249625 Z"/>
    <path fill="#00FF00" fill-rule="nonzero" d="M11.1700001,23.585 C11.1700001,21.0527744 9.11722564,19 6.58500004,19 C4.05277444,19 2,21.0527744 2,23.585 C2,26.1172256 4.05277444,28.1700001 6.58500004,28.1700001 C9.11722564,28.1700001 11.1700001,26.1172256 11.1700001,23.585 Z M3.77713185,23.585 C3.77713185,22.0342573 5.03425726,20.7771319 6.58500004,20.7771319 C8.13574282,20.7771319 9.39286823,22.0342573 9.39286823,23.585 C9.39286823,25.1357428 8.13574282,26.3928682 6.58500004,26.3928682 C5.03425726,26.3928682 3.77713185,25.1357428 3.77713185,23.585 Z M5.80479732,19.5260661 L5.80000034,11.8004657 C5.79974314,11.3862522 6.13532102,11.0502573 6.5495345,11.0500001 C6.96374798,11.049743 7.29974285,11.3853208 7.30000005,11.7995343 L7.30479703,19.5251347 C7.30505422,19.9393482 6.96947635,20.2753431 6.55526286,20.2756003 C6.14104938,20.2758575 5.80505451,19.9402796 5.80479732,19.5260661 Z M13.9302848,19.5644508 C13.3793454,19.5259253 12.9639518,19.0480697 13.0024772,18.4971303 C13.0410027,17.9461908 13.5188583,17.5307972 14.0697977,17.5693227 C14.6207372,17.6078481 15.0361308,18.0857038 14.9976053,18.6366432 C14.9590799,19.1875826 14.4812242,19.6029762 13.9302848,19.5644508 Z M11.9302848,21.5644508 C11.3793454,21.5259253 10.9639518,21.0480697 11.0024772,20.4971303 C11.0410027,19.9461908 11.5188583,19.5307972 12.0697977,19.5693227 C12.6207372,19.6078481 13.0361308,20.0857038 12.9976053,20.6366432 C12.9590799,21.1875826 12.4812242,21.6029762 11.9302848,21.5644508 Z M16.0649258,17.7088356 C15.5139864,17.6703102 15.0985928,17.1924545 15.1371183,16.6415151 C15.1756437,16.0905757 15.6534994,15.6751821 16.2044388,15.7137075 C16.7553782,15.752233 17.1707718,16.2300886 17.1322464,16.781028 C17.0937209,17.3319675 16.6158653,17.7473611 16.0649258,17.7088356 Z M18.1995669,15.8532205 C17.6486275,15.814695 17.2332339,15.3368394 17.2717593,14.7858999 C17.3102847,14.2349605 17.7881404,13.8195669 18.3390798,13.8580924 C18.8900192,13.8966178 19.3054128,14.3744735 19.2668874,14.9254129 C19.228362,15.4763523 18.7505063,15.8917459 18.1995669,15.8532205 Z M20.3342079,13.9976053 C19.7832685,13.9590799 19.3678749,13.4812242 19.4064004,12.9302848 C19.4449258,12.3793454 19.9227815,11.9639518 20.4737209,12.0024772 C21.0246603,12.0410027 21.4400539,12.5188583 21.4015285,13.0697977 C21.363003,13.6207372 20.8851473,14.0361308 20.3342079,13.9976053 Z"/>
  </g>
</svg>
