<?xml version="1.0" encoding="UTF-8"?>
<svg width="210px" height="56px" viewBox="0 0 210 56" version="1.1" xmlns="http://www.w3.org/2000/svg" xmlns:xlink="http://www.w3.org/1999/xlink">
    <title>logo-plastic-positive</title>
    <defs>
        <path d="M25.5184474,13.4176167 L0.230960526,0.154445238 L25.5877895,13.4176167 L50.9623158,0.630090476 C51.0680263,1.02677143 51.1250789,1.44317381 51.1250789,1.87086429 L51.1250789,24.5601819 C51.1250789,26.5134676 49.9487895,28.2016769 48.2350263,29.0171121 L28.2806316,40.091996 C27.4800526,40.5746786 26.5348947,40.8552624 25.5184474,40.8571429 L25.5184474,13.4176167 Z" id="path-1"></path>
        <path d="M48.5101842,11.7565905 C49.7929737,12.3992262 50.7570263,13.5345833 51.1250789,14.8941048 L25.6017895,27.602981 L0.230960526,14.4256619 C0.673023684,13.2837833 1.54531053,12.3403762 2.66379211,11.7719905 L22.8448158,0.738833333 L22.8517105,0.747240476 C23.6524737,0.274607143 24.5982632,0 25.6136316,0 C26.5623947,0 27.4524474,0.242392857 28.2191579,0.660392857 L48.5101842,11.7565905 Z" id="path-3"></path>
        <path d="M0.215057895,24.5353926 L0.215057895,1.84475238 C0.215057895,1.2421881 0.328052632,0.6655 0.535294737,0.130611905 L25.7926316,13.2808762 L25.7812895,40.7219817 C24.6789474,40.7219817 23.6545789,40.3948495 22.8112895,39.8406957 C22.8112895,39.8406957 22.9278421,39.9496586 3.06069211,28.9667295 C1.37364211,28.1418448 0.215057895,26.4671681 0.215057895,24.5353926 Z" id="path-5"></path>
        <path d="M23.3768158,0.765469048 L39.9610263,9.84900714 C41.3148158,10.5280214 42.2365316,11.8762286 42.2365316,13.4285119 L42.2365316,14.1649881 L42.2365316,31.883259 C42.2365316,33.4719786 41.2709474,34.8458786 39.8674211,35.5094798 L23.5014474,44.5178276 C22.8447632,44.9096345 22.3366053,44.94369 21.5040526,44.9450912 L21.5040526,39.9529062 C22.1518684,39.9510388 22.4871053,39.9678871 22.9984474,39.6638733 L35.7243158,32.6575386 C36.8175,32.1419738 37.5677895,31.0734888 37.5677895,29.8382857 L37.5677895,16.0586381 L37.5677895,15.4861143 C37.5677895,14.2789167 36.851,13.2305119 35.7992105,12.7014119 L22.9009211,5.63904524 C22.4132105,5.37190238 21.8471579,5.21874048 21.2431842,5.21874048 C20.5988158,5.21874048 19.9977895,5.39293333 19.4849474,5.68854524 L6.65464211,12.7116786 C5.61320263,13.2431357 4.90478684,14.2859357 4.90478684,15.4861143 L4.90478684,28.7539214 L4.90478684,29.8382857 L4.90478684,36.77784 L2.56277632,35.4875321 C1.1824,34.816925 0.236531579,33.4556331 0.236531579,31.883259 L0.236531579,13.4285119 C0.236531579,11.8855786 1.14742368,10.5448357 2.48592632,9.86160476 C2.48592632,9.86160476 18.9854211,0.833171429 18.9883684,0.837859524 C19.6435789,0.450711905 20.4165263,0.22607619 21.2451579,0.22607619 C22.0220526,0.22607619 22.7491842,0.423630952 23.3768158,0.765469048 Z" id="path-7"></path>
        <path d="M18.4334474,9.83486429 L18.4334474,9.58945952 C18.4334474,9.0719881 18.1298421,8.62274286 17.6844211,8.3960381 L17.6848947,8.3960381 L12.2214474,5.36834048 L12.2214474,5.3688119 C12.0143158,5.25428095 11.7745526,5.18885714 11.5187105,5.18885714 C11.2458158,5.18885714 10.9909474,5.26318571 10.7755263,5.39264524 C10.7740789,5.39078571 10.7735789,5.38984286 10.7735789,5.38984286 L5.33937105,8.40072619 C4.89785,8.62837381 4.59814211,9.07523571 4.59814211,9.58945952 L4.59814211,15.7406595 C4.59814211,16.2651238 4.90954737,16.719031 5.36471316,16.9424881 L5.36471316,16.9429333 L10.7131579,19.920615 C10.9402632,20.0716031 11.2156053,20.1599514 11.5123684,20.1599514 C11.7882105,20.1599514 12.0450263,20.0837555 12.2623684,19.9524024 L12.2623684,19.9528686 L17.6532105,16.9499524 L17.6532105,16.949481 C18.1161842,16.728381 18.4334474,16.2707548 18.4334474,15.7406595 L18.4334474,9.83486429 Z M22.1168947,5.39235714 C22.8645789,5.76965714 23.3746053,6.51956905 23.3746053,7.38249286 L23.3746053,7.79153571 L23.3746053,17.6418 C23.3746053,18.5247857 22.8410526,19.2882643 22.0644737,19.6566779 C22.0644737,19.6571467 22.0649474,19.6576129 22.0649474,19.6576129 L13.0159211,24.6651612 L13.0154211,24.6651612 C12.6508947,24.8841607 12.2197368,25.0107026 11.7572105,25.0107026 C11.2589211,25.0107026 10.7968947,24.8631481 10.4157105,24.6123979 L4.82479474,21.519334 L4.82479474,31.3882774 L0.151084211,28.968555 L0.151084211,7.38249286 C0.151084211,6.52423095 0.654760526,5.77898095 1.39459737,5.39935 L10.5166316,0.378740476 C10.5166316,0.378740476 10.5181053,0.3806 10.5200789,0.383402381 C10.8816579,0.168142857 11.3093947,0.0425333333 11.768,0.0425333333 C12.1967105,0.0425333333 12.5989737,0.152742857 12.9458421,0.343252381 L12.9458421,0.342780952 L22.1168947,5.39188571 L22.1168947,5.39235714 Z" id="path-9"></path>
    </defs>
    <g id="logo-plastic-positive" stroke="none" stroke-width="1" fill="none" fill-rule="evenodd">
        <g>
            <path d="M64.9603947,19.649419 C65.6354737,19.649419 66.3115,19.7020095 66.9865526,19.8118524 C67.6513684,19.9170333 68.4484474,20.18415 69.3597368,20.6239405 C70.2671579,21.0637048 71.0520263,21.6296024 71.7007368,22.3314024 C72.3543158,23.028069 72.9146579,24.0547095 73.3925263,25.4061643 C73.8708684,26.7571476 74.1178684,28.3180214 74.1178684,30.0887857 C74.1178684,33.2989786 73.2997895,35.7664043 71.6621579,37.4841145 C70.0255263,39.1971707 67.6899211,40.0562602 64.6523947,40.0562602 C63.5370789,40.0562602 62.4607895,39.9306062 61.4108684,39.6844236 L61.4547895,44.8068381 C61.4547895,46.168536 60.3282368,47.2524 58.9053947,47.2524 C57.4825526,47.2524 56.3296316,46.1527117 56.3296316,44.7905502 L56.3296316,26.2647667 C56.3296316,24.4577286 57.0271316,22.9075405 58.4387632,21.6035429 C59.8562368,20.3042071 62.0200263,19.649419 64.9603947,19.649419 Z M113.904763,19.649419 C115.925421,19.649419 117.787026,20.1620714 119.48371,21.1765333 C119.48371,21.1765333 121.003737,22.2806714 120.872079,23.3899952 C120.706684,24.8490405 119.48371,24.9757762 119.48371,24.9757762 C118.079184,24.3673714 116.48771,24.0612833 114.71321,24.0612833 C112.483105,24.0612833 111.376132,24.600231 111.376132,25.6677548 C111.376132,26.2066762 111.690316,26.6183643 112.324053,26.9249238 C112.956842,27.2314833 113.727105,27.5014024 114.636868,27.7281595 C115.539789,27.9605214 116.498,28.2727119 117.484105,28.6637619 C118.470684,29.065131 119.308026,29.7200238 120.006868,30.6551548 C120.706684,31.5907571 121.059026,32.7794119 121.059026,34.2163786 C121.059026,35.9495805 120.35921,37.387029 118.955184,38.5273152 C117.556526,39.6685417 115.710579,40.234696 113.408053,40.234696 C111.045789,40.234696 108.87,39.6638483 106.881658,38.4963319 C106.881658,38.4963319 105.741395,38.1686576 105.741395,35.9650721 C105.741395,34.1741333 106.881658,34.1478381 106.881658,34.1478381 C108.705079,35.2674731 110.654289,35.822829 112.742,35.822829 C114.075079,35.822829 114.951053,35.6796483 115.357737,35.3735681 C115.755105,35.067019 115.964579,34.6074312 115.964579,33.9948071 C115.964579,33.43475 115.644026,32.9854786 115.010763,32.6367 C114.372132,32.3033738 113.601342,32.0029429 112.692079,31.7438143 C111.784263,31.489819 110.847605,31.1889167 109.856105,30.8401119 C108.87,30.4969381 108.026789,29.920931 107.327474,29.1181929 C106.627658,28.3093262 106.281658,27.3000238 106.281658,26.0742833 C106.281658,24.008719 107.008395,22.4233833 108.46821,21.3140857 C109.916289,20.2094762 111.728,19.649419 113.904763,19.649419 Z M142.568421,20.1172857 C144.07721,20.1172857 145.270789,21.2061286 145.270789,22.5624286 L145.270789,37.7904855 C145.270789,39.151429 144.07721,40.234696 142.568421,40.234696 C141.059632,40.234696 139.8355,39.1356152 139.8355,37.7751352 L139.8355,22.5777762 C139.8355,21.2219476 141.059632,20.1172857 142.568421,20.1172857 Z M80.8003421,13.5674143 C82.3070526,13.5674143 83.5061053,14.6614952 83.5061053,16.0358929 L83.5061053,37.767155 C83.5061053,39.141089 82.3070526,40.234696 80.8003421,40.234696 C79.2926053,40.234696 78.0707895,39.125126 78.0707895,37.7516607 L78.0707895,16.051869 C78.0707895,14.6774714 79.2926053,13.5674143 80.8003421,13.5674143 Z M157.765237,19.649419 C159.795816,19.649419 161.799895,20.1409357 163.769447,21.1183381 C163.769447,21.1183381 165.0355,21.6150143 165.0355,23.5064119 C165.0355,25.4034405 163.769447,25.0443167 163.769447,25.0443167 C162.126395,24.3889786 160.398342,24.0612833 158.603263,24.0612833 C156.683711,24.0612833 155.266158,24.4683095 154.343132,25.271519 C153.414079,26.0742833 152.953579,27.6384833 152.953579,29.9580167 C152.953579,32.240019 153.414079,33.7938738 154.343132,34.6074312 C155.266158,35.4209833 156.683711,35.822829 158.603263,35.822829 C160.319342,35.822829 162.041395,35.5054843 163.769447,34.8454398 C163.769447,34.8454398 165.0355,34.4332619 165.0355,36.3875743 C165.0355,38.3432931 163.769447,38.7657952 163.769447,38.7657952 C161.799895,39.7483493 159.795816,40.234696 157.765237,40.234696 C154.607632,40.234696 152.142553,39.3572993 150.386974,37.5766848 C148.625421,35.8120333 147.741395,33.2652714 147.741395,29.9580167 C147.741395,26.629181 148.625421,24.0772595 150.386974,22.3074381 C152.142553,20.5376167 154.607632,19.649419 157.765237,19.649419 Z M94.8235,19.649419 C97.7163421,19.649419 99.9212895,20.3789548 101.455895,21.8318976 C102.989053,23.29 103.764921,25.3879619 103.764921,28.13 L103.764921,33.5187952 C103.764921,35.3576076 103.061368,36.9372993 101.663553,38.2531586 C100.267684,39.5793474 98.1174737,40.234696 95.2197368,40.234696 C92.2120526,40.234696 90.0066316,39.5793474 88.5877895,38.2531586 C87.1748421,36.9269698 86.4707895,35.3101924 86.4707895,33.4136143 C86.4707895,33.0009833 86.5088947,32.5780071 86.5865789,32.1508143 C86.6691579,31.7226786 86.8724211,31.1781262 87.2134211,30.5176024 C87.5486053,29.8683667 88.0156842,29.2918881 88.6039211,28.8008429 C89.1931316,28.3093262 90.0613421,27.8811905 91.2055789,27.5328571 C92.3493421,27.1788929 93.7017105,27.0047262 95.2578421,27.0047262 C96.3087632,27.0047262 97.4305263,27.0944024 98.6343947,27.268569 C98.6343947,24.8062976 97.2761316,23.5697929 94.5601579,23.5697929 C93.5917895,23.5697929 92.5638158,23.7073452 91.6453158,23.8608476 C91.3873421,23.9819524 91.0956579,24.0509643 90.7873684,24.0509643 C89.7046842,24.0509643 88.7861579,23.1524476 88.7861579,22.1116905 C88.7861579,21.1925095 89.4843421,20.3310786 90.397,20.1357762 C90.4302105,20.10385 90.4907895,20.10385 90.5289211,20.0935309 C91.8651579,19.7973167 93.2957105,19.649419 94.8235,19.649419 Z M128.561474,13.5674143 C129.986684,13.5674143 131.146658,14.6151643 131.20321,15.9301095 L131.20321,19.8697595 L133.951526,19.8697595 C135.230105,19.8697595 136.2725,20.8388595 136.2725,22.0383571 C136.2725,23.2331929 135.230105,24.2018214 133.951526,24.2018214 L131.20321,24.2018214 L131.20321,33.4486833 C131.20321,34.2553238 131.372342,34.7952562 131.732658,35.0675507 C132.092447,35.3449655 132.672947,35.4813445 133.585711,35.4813445 C134.436447,35.4813445 135.190579,35.3556721 135.849632,35.0829114 C135.849632,35.0829114 137.364921,34.8157345 137.364921,36.5658712 C137.364921,38.8391836 135.849632,39.1426657 135.849632,39.1426657 C134.875316,39.5513419 133.816421,39.7668502 132.666947,39.7668502 L132.638921,39.7668502 C130.583184,39.7668502 128.966816,39.2059681 127.795816,38.073966 C126.613316,36.9480138 125.925737,35.4813445 125.925737,33.5008024 L125.925737,24.2018214 L124.866842,24.2018214 C123.582263,24.2018214 122.541395,23.2331929 122.541395,22.0383571 C122.541395,20.8388595 123.582263,19.8697595 124.866842,19.8697595 L125.925737,19.8697595 L125.925737,15.9301095 C125.976289,14.6151643 127.142263,13.5674143 128.561474,13.5674143 Z M64.9512105,23.8600619 C62.4950789,23.8600619 61.2707895,24.5418524 61.2707895,25.9059571 L61.2707895,35.8031731 C62.4044737,35.955565 63.4126316,36.024074 64.2902368,36.024074 C65.8738421,36.024074 67.0813947,35.598581 67.9240789,34.7336195 C68.7556053,33.8733095 69.1766842,32.3521667 69.1766842,30.1804524 C69.1766842,27.9518524 68.8633947,26.3412429 68.2368421,25.3499595 C67.6107895,24.3633643 66.5171053,23.8600619 64.9512105,23.8600619 Z M96.4423158,30.4099071 C93.4237632,30.4099071 91.9116842,31.1769214 91.9061053,32.7154548 C91.9061053,34.6125855 93.1606316,35.5562257 95.6809474,35.5562257 L95.7211316,35.5562257 C98.1208158,35.5562257 99.3178684,34.6677243 99.3178684,32.8723357 L99.3178684,30.6367429 C98.1951316,30.4955238 97.2332105,30.4247048 96.4423158,30.4099071 Z M204.864763,19.6497048 C206.493184,19.6497048 207.7535,20.0655571 208.65021,20.8819667 C209.542447,21.7094809 210.000211,22.8691952 210.000211,24.3560286 L210.000211,32.7494214 L207.797105,32.7494214 L207.797105,24.1532095 C207.797105,23.7840286 207.764421,23.4564381 207.702474,23.1598309 C207.635605,22.8742762 207.50779,22.5725619 207.306658,22.2445262 C207.111447,21.9169357 206.793395,21.6729714 206.358921,21.4909476 C205.923947,21.3088976 205.382474,21.2206357 204.741895,21.2206357 C203.677263,21.2206357 202.517,21.4438048 201.252211,21.8758167 C201.581158,22.5152833 201.742158,23.2744143 201.742158,24.1532095 L201.742158,32.7494214 L199.540053,32.7494214 L199.540053,24.1532095 C199.540053,23.7683143 199.495474,23.4305881 199.428579,23.1339548 C199.350816,22.8484 199.205658,22.5466857 198.987658,22.2292833 C198.776132,21.9169357 198.418921,21.6729714 197.939368,21.4909476 C197.448921,21.3088976 196.8465,21.2206357 196.133105,21.2206357 C195.034763,21.2206357 193.963684,21.3869714 192.932737,21.6937667 L192.932737,32.7494214 L190.729632,32.7494214 L190.729632,20.6948357 C192.536895,19.9985619 194.4155,19.6497048 196.366921,19.6497048 C197.855658,19.6497048 199.049105,19.951419 199.963632,20.5497667 C201.658947,19.951419 203.291816,19.6497048 204.864763,19.6497048 Z M184.131263,19.6497048 C185.526579,19.6497048 186.898342,19.8266738 188.259026,20.1695071 L188.259026,21.745519 C186.994158,21.4026857 185.689658,21.2206357 184.3455,21.2206357 C182.691789,21.2206357 181.488632,21.6207738 180.743553,22.4062262 C179.991947,23.1967857 179.619158,24.4655309 179.619158,26.1972714 C179.619158,27.9599429 179.991947,29.2286881 180.743553,30.0086143 C181.488632,30.7936214 182.691789,31.1784905 184.3455,31.1784905 C185.740816,31.1784905 187.050868,31.0070738 188.259026,30.6536333 L188.259026,32.2240929 C186.955526,32.5780048 185.577763,32.7494214 184.131263,32.7494214 C183.476,32.7494214 182.866395,32.7023048 182.301947,32.603881 C181.731474,32.5050119 181.148947,32.3072476 180.556895,32.0106405 C179.963842,31.7195595 179.432526,31.3346643 178.969921,30.8560071 C178.512342,30.3930381 178.1285,29.759569 177.829974,28.9685643 C177.535447,28.1733952 177.388447,27.2474833 177.388447,26.1972714 C177.388447,24.9123405 177.602684,23.8149857 178.037684,22.9052333 C178.478711,22.0056429 179.043658,21.3246119 179.738579,20.8773571 C180.438,20.4351833 181.132895,20.1126738 181.82679,19.9255429 C182.52721,19.7490452 183.295368,19.6497048 184.131263,19.6497048 Z M171.656421,19.6497048 C172.874368,19.6497048 174.103184,19.8839786 175.326553,20.3515571 L175.326553,22.1197809 C174.231132,21.5219048 173.079895,21.2206357 171.878263,21.2206357 C169.771947,21.2206357 168.714605,21.8910595 168.714605,23.2328238 C168.714605,23.6957929 168.965105,24.0598667 169.476,24.3403405 C169.993316,24.6212595 170.616842,24.8550357 171.356026,25.0370857 C172.095684,25.2140548 172.852132,25.4381405 173.618974,25.6977929 C174.391711,25.9629976 175.043421,26.3945643 175.588421,27.0086 C176.127474,27.6221905 176.400211,28.4122786 176.400211,29.3589857 C176.400211,30.4249119 175.927368,31.2515095 174.993526,31.8493857 C174.053263,32.4528143 172.757263,32.7494214 171.100079,32.7494214 C169.486868,32.7494214 168.019895,32.4731381 166.707105,31.9071357 L166.707105,30.0136952 C168.097474,30.7936214 169.537263,31.1784905 171.011132,31.1784905 C173.141184,31.1784905 174.202474,30.5704524 174.202474,29.3589857 C174.202474,28.7033595 173.947026,28.1992714 173.429737,27.8296452 C172.918842,27.4604643 172.301211,27.1800167 171.561553,26.9924405 C170.822395,26.8103905 170.071368,26.6080167 169.298605,26.3894833 C168.525368,26.1764762 167.863263,25.80685 167.325211,25.2814952 C166.785158,24.7566381 166.517868,24.0806619 166.517868,23.2328238 C166.517868,22.2496071 166.940316,21.4073214 167.780263,20.705469 C168.620211,19.9985619 169.915737,19.6497048 171.656421,19.6497048 Z M142.306105,13.5674143 C143.672842,13.5674143 144.776684,14.6153738 144.776684,15.9066429 C144.776684,17.1983833 143.672842,18.2458976 142.306105,18.2458976 C140.938842,18.2458976 139.8355,17.1983833 139.8355,15.9066429 C139.8355,14.6153738 140.938842,13.5674143 142.306105,13.5674143 Z" id="Combined-Shape" fill="#FF00FF"></path>
            <g id="Group" transform="translate(56.316000, 13.357000)"></g>
            <g id="Clipped" transform="translate(0.263000, 13.881000)">
                <mask id="mask-2" fill="white">
                    <use xlink:href="#path-1"></use>
                </mask>
                <g id="e"></g>
                <polygon id="Path" fill="#FF5B00" fill-rule="nonzero" mask="url(#mask-2)" points="-1.085 -1.155 52.441 -1.155 52.441 42.167 -1.085 42.167"></polygon>
            </g>
            <g id="Clipped" transform="translate(0.263000, 0.000000)">
                <mask id="mask-4" fill="white">
                    <use xlink:href="#path-3"></use>
                </mask>
                <g id="g"></g>
                <polygon id="Path" fill="#FF4300" fill-rule="nonzero" mask="url(#mask-4)" points="-1.085 -1.31 52.441 -1.31 52.441 28.913 -1.085 28.913"></polygon>
            </g>
            <g id="Clipped" transform="translate(0.000000, 14.143000)">
                <mask id="mask-6" fill="white">
                    <use xlink:href="#path-5"></use>
                </mask>
                <g id="i"></g>
                <polygon id="Path" fill="#DB2F00" fill-rule="nonzero" mask="url(#mask-6)" points="-1.101 -1.179 27.108 -1.179 27.108 42.032 -1.101 42.032"></polygon>
            </g>
            <g id="Clipped" transform="translate(4.210000, 4.452000)">
                <mask id="mask-8" fill="white">
                    <use xlink:href="#path-7"></use>
                </mask>
                <g id="k"></g>
                <polygon id="Path" fill="#FFFFFE" fill-rule="nonzero" mask="url(#mask-8)" points="-1.079 -1.083 43.552 -1.083 43.552 46.255 -1.079 46.255"></polygon>
            </g>
            <g id="Clipped" transform="translate(13.684000, 14.929000)">
                <mask id="mask-10" fill="white">
                    <use xlink:href="#path-9"></use>
                </mask>
                <g id="m"></g>
                <polygon id="Path" fill="#FFFFFE" fill-rule="nonzero" mask="url(#mask-10)" points="-1.165 -1.267 24.69 -1.267 24.69 32.698 -1.165 32.698"></polygon>
            </g>
        </g>
    </g>
</svg>