<svg xmlns="http://www.w3.org/2000/svg" width="32" height="32" viewBox="0 0 32 32">
  <g fill="none" fill-rule="evenodd">
    <rect width="32" height="32" fill="#00FFFF"/>
    <path fill="#A8D8E6" d="M12.757503,11.249625 C13.469903,11.665625 14.115403,12.192325 14.634103,12.837825 C14.801003,13.045525 14.954003,13.264325 15.091203,13.492825 C15.273203,13.795625 15.427303,14.115025 15.551503,14.445725 C15.757503,14.994125 15.880503,15.571325 15.930703,16.154525 C15.955103,16.438825 15.954003,16.722825 15.961403,17.007825 C15.965803,17.109525 15.971903,17.210725 15.979903,17.312225 C16.026503,17.796925 16.127903,18.272625 16.307003,18.726325 C16.397403,18.954925 16.505703,19.176425 16.630603,19.388225 C17.251603,20.441925 18.258903,21.211925 19.349503,21.733125 C19.557303,21.832425 19.769203,21.923125 19.984403,22.005425 C20.227903,22.098625 20.475303,22.178925 20.726203,22.249525 C20.767703,22.142025 20.813203,22.036025 20.862903,21.931725 C21.083603,21.468525 21.382503,21.043125 21.743403,20.678225 C22.103603,20.314125 22.524903,20.011025 22.985403,19.786725 C23.389103,19.590025 23.822103,19.454425 24.265803,19.385925 C24.456603,19.356425 24.648003,19.341825 24.840703,19.334425 C24.958203,19.332925 24.957803,19.332925 25.074803,19.334425 C25.267503,19.341825 25.458903,19.356425 25.649703,19.385925 C26.093503,19.454425 26.526403,19.590025 26.930103,19.786725 C27.390603,20.011025 27.811903,20.314125 28.172103,20.678225 C28.533003,21.043025 28.831903,21.468525 29.052603,21.931725 C29.497403,22.865125 29.613603,23.941225 29.383603,24.949025 C29.284003,25.385125 29.120203,25.806325 28.899103,26.195225 C28.664103,26.608325 28.364703,26.984525 28.014703,27.306125 C27.609503,27.678425 27.137103,27.976725 26.625803,28.180525 C26.096303,28.391625 25.527703,28.499725 24.957803,28.499725 C24.387803,28.499725 23.819203,28.391625 23.289703,28.180525 C22.778503,27.976725 22.305903,27.678425 21.900803,27.306125 C21.550803,26.984425 21.251403,26.608325 21.016503,26.195225 C20.795303,25.806325 20.631503,25.385125 20.531903,24.949025 C20.439903,24.545825 20.403303,24.131625 20.421003,23.720025 C19.966403,23.601525 19.521603,23.445825 19.089503,23.261325 C17.575403,22.614925 16.184203,21.585125 15.338303,20.149925 C15.154803,19.838725 14.998503,19.511525 14.871803,19.173225 C14.663903,18.617625 14.537103,18.033425 14.485503,17.442725 C14.470603,17.271925 14.461803,17.100625 14.458903,16.929125 C14.456303,16.780525 14.456103,16.632225 14.449903,16.483625 C14.443903,16.383925 14.436303,16.284625 14.426803,16.185125 C14.374103,15.716925 14.269603,15.257825 14.087303,14.822225 C13.997203,14.606825 13.889603,14.398725 13.765803,14.200725 C13.032903,13.028025 11.773803,12.282425 10.477303,11.884425 C10.270603,11.821025 10.061503,11.768025 9.850303,11.722225 C9.769503,11.808925 9.685303,11.892525 9.598003,11.972825 C9.192903,12.345125 8.720403,12.643425 8.209103,12.847225 C7.679603,13.058225 7.111103,13.166425 6.541103,13.166425 C5.971103,13.166425 5.402603,13.058225 4.873103,12.847225 C4.361803,12.643425 3.889403,12.345125 3.484203,11.972825 C3.134203,11.651225 2.834803,11.275025 2.599803,10.861925 C2.378603,10.473025 2.214803,10.051825 2.115303,9.615625 C1.885203,8.607925 2.001503,7.531725 2.446203,6.598425 C2.667003,6.135225 2.965903,5.709825 3.326703,5.345025 C3.686903,4.980825 4.108303,4.677625 4.568803,4.453325 C4.972503,4.256725 5.405403,4.121125 5.849203,4.052525 C6.039903,4.023125 6.231303,4.008525 6.424103,4.001125 C6.541103,3.999625 6.540603,3.999625 6.658103,4.001125 C6.850903,4.008525 7.042303,4.023125 7.233003,4.052525 C7.676803,4.121125 8.109703,4.256725 8.513403,4.453325 C8.973903,4.677725 9.395203,4.980825 9.755403,5.344925 C9.881803,5.472725 10.000603,5.607925 10.111203,5.749625 L21.387703,5.749625 C21.498203,5.607925 21.617003,5.472725 21.743403,5.344925 C22.103603,4.980825 22.524903,4.677725 22.985403,4.453325 C23.389103,4.256725 23.822103,4.121125 24.265803,4.052525 C24.456603,4.023125 24.648003,4.008525 24.840703,4.001125 C24.958203,3.999625 24.957803,3.999625 25.074803,4.001125 C25.267503,4.008525 25.458903,4.023125 25.649703,4.052525 C26.093503,4.121125 26.526403,4.256725 26.930103,4.453325 C27.390603,4.677725 27.811903,4.980825 28.172103,5.344925 C28.533003,5.709725 28.831903,6.135225 29.052603,6.598425 C29.497403,7.531825 29.613603,8.607925 29.383603,9.615625 C29.284003,10.051825 29.120203,10.473025 28.899103,10.861925 C28.664103,11.275025 28.364703,11.651225 28.014703,11.972825 C27.609403,12.345125 27.137003,12.643425 26.625803,12.847225 C26.096303,13.058225 25.527703,13.166425 24.957803,13.166425 C24.387803,13.166425 23.819303,13.058225 23.289703,12.847225 C22.778503,12.643425 22.306003,12.345125 21.900803,11.972825 C21.663803,11.754925 21.450003,11.512125 21.263603,11.249625 L12.757503,11.249625 L12.757503,11.249625 Z M24.879103,20.834025 C24.750303,20.839025 24.622303,20.848725 24.494803,20.868425 C24.199403,20.914025 23.911203,21.004425 23.642403,21.135325 C23.333703,21.285725 23.051403,21.489125 22.809903,21.733225 C22.549403,21.996525 22.337003,22.306825 22.185803,22.644925 C21.806903,23.492325 21.830403,24.494425 22.250003,25.322425 C22.406003,25.630325 22.613803,25.911625 22.862303,26.151125 C23.127303,26.406625 23.438303,26.614025 23.776803,26.758725 C24.124903,26.907625 24.500603,26.988925 24.879103,26.998625 C25.260703,27.008325 25.643103,26.946125 26.001203,26.813625 C26.346803,26.685725 26.667803,26.493425 26.944903,26.250625 C27.204103,26.023625 27.424803,25.753125 27.595103,25.453625 C28.079403,24.601925 28.129703,23.539225 27.729803,22.644925 C27.588603,22.329225 27.394003,22.037725 27.156803,21.786125 C26.921203,21.536425 26.643903,21.326325 26.339003,21.168425 C25.957403,20.970825 25.542403,20.864525 25.114503,20.837025 C25.035903,20.834025 24.957803,20.833025 24.879103,20.834025 L24.879103,20.834025 L24.879103,20.834025 Z M24.879103,5.500725 C24.449203,5.517225 24.030103,5.613125 23.642403,5.801925 C23.333703,5.952325 23.051403,6.155825 22.809903,6.399925 C22.567003,6.645525 22.365703,6.931925 22.217103,7.243725 C21.795703,8.128225 21.820703,9.192125 22.284503,10.055225 C22.447703,10.358925 22.661903,10.634925 22.915803,10.868225 C23.187003,11.117425 23.503003,11.317325 23.845203,11.453725 C24.198403,11.594525 24.577603,11.666225 24.957803,11.666225 C25.338003,11.666225 25.717103,11.594525 26.070403,11.453725 C26.412603,11.317325 26.728503,11.117325 26.999703,10.868225 C27.253603,10.634925 27.467903,10.358925 27.631103,10.055225 C28.094803,9.192125 28.119903,8.128225 27.698403,7.243725 C27.549803,6.931925 27.348603,6.645525 27.105703,6.399925 C26.864203,6.155825 26.581903,5.952325 26.273103,5.801925 C25.885403,5.613125 25.466303,5.517225 25.036503,5.500725 C24.957803,5.499725 24.958403,5.499725 24.879103,5.500725 L24.879103,5.500725 L24.879103,5.500725 Z M9.193103,10.094125 C9.200303,10.081225 9.207403,10.068225 9.214403,10.055225 C9.678103,9.192125 9.703203,8.128225 9.281803,7.243725 C9.133203,6.931925 8.931903,6.645525 8.689003,6.399925 C8.447503,6.155825 8.165203,5.952325 7.856503,5.801925 C7.468803,5.613125 7.049603,5.517225 6.619803,5.500725 C6.540503,5.499725 6.541103,5.499725 6.462403,5.500725 C6.333603,5.505625 6.205703,5.515425 6.078203,5.535125 C5.782703,5.580725 5.494503,5.671025 5.225703,5.802025 C4.917003,5.952325 4.634703,6.155725 4.393303,6.399825 C4.150303,6.645525 3.949003,6.931925 3.800403,7.243725 C3.379003,8.128025 3.404003,9.192125 3.867703,10.055125 C4.031003,10.358825 4.245203,10.634825 4.499103,10.868225 C4.770303,11.117325 5.086303,11.317325 5.428503,11.453725 C5.781703,11.594525 6.160903,11.666225 6.541103,11.666225 C6.921303,11.666225 7.300403,11.594525 7.653703,11.453725 C7.995803,11.317325 8.311903,11.117425 8.583003,10.868225 C8.778803,10.688325 8.951003,10.483125 9.094403,10.259325 L9.122303,10.082925 L9.193103,10.094125 L9.193103,10.094125 Z M24.983603,6.997425 C25.859003,6.997425 26.569703,7.708125 26.569703,8.583525 C26.569703,9.458825 25.859003,10.169525 24.983603,10.169525 C24.108303,10.169525 23.397603,9.458825 23.397603,8.583525 C23.397603,7.708125 24.108303,6.997425 24.983603,6.997425 L24.983603,6.997425 L24.983603,6.997425 Z M20.612303,7.249625 L10.886703,7.249625 C11.115603,8.014025 11.145003,8.835325 10.966903,9.615625 C10.956703,9.660425 10.945803,9.705125 10.934203,9.749625 L20.564703,9.749625 C20.553103,9.705125 20.542203,9.660525 20.531903,9.615625 C20.353803,8.835325 20.383303,8.014025 20.612303,7.249625 L20.612303,7.249625 L20.612303,7.249625 Z"/>
  </g>
</svg>
