<svg xmlns="http://www.w3.org/2000/svg" width="12" height="12" viewBox="0 0 12 12">
  <g fill="none">
    <rect width="12" height="12" fill="#00FFFF"/>
    <path fill="#FF00FF" d="M8.5,2 L10.5,2 C10.7761424,2 11,2.22385763 11,2.5 C11,2.77614237 10.7761424,3 10.5,3 L10,3 L10,10 C10,11.1045695 9.1045695,12 8,12 L3,12 C1.8954305,12 1,11.1045695 1,10 L1,3 L0.5,3 C0.223857625,3 0,2.77614237 0,2.5 C0,2.22385763 0.223857625,2 0.5,2 L2.5,2 L2.5,1 C2.5,0.44771525 2.94771525,1.01447442e-16 3.5,0 L7.5,0 C8.05228475,-1.01460995e-16 8.5,0.44771525 8.5,1 L8.5,2 Z M9,3 L2,3 L2,9.71123204 C2,10.4229989 2.44771525,11 3,11 L8,11 C8.55228475,11 9,10.4229989 9,9.71123204 L9,3 Z M7.5,2 L7.5,1 L3.5,1 L3.5,2 L7.5,2 Z M7.5,5 C7.77614237,5 8,5.22385763 8,5.5 L8,8.5 C8,8.77614237 7.77614237,9 7.5,9 C7.22385763,9 7,8.77614237 7,8.5 L7,5.5 C7,5.22385763 7.22385763,5 7.5,5 Z M5.5,5 C5.77614237,5 6,5.22385763 6,5.5 L6,8.5 C6,8.77614237 5.77614237,9 5.5,9 C5.22385763,9 5,8.77614237 5,8.5 L5,5.5 C5,5.22385763 5.22385763,5 5.5,5 Z M3.5,5 C3.77614237,5 4,5.22385763 4,5.5 L4,8.5 C4,8.77614237 3.77614237,9 3.5,9 C3.22385763,9 3,8.77614237 3,8.5 L3,5.5 C3,5.22385763 3.22385763,5 3.5,5 Z"/>
  </g>
</svg>
