<svg xmlns="http://www.w3.org/2000/svg" width="16" height="16" viewBox="0 0 16 16">
  <g fill="none" fill-rule="evenodd">
    <rect width="16" height="16" fill="#00FFFF"/>
    <path fill="#FF00FF" fill-rule="nonzero" d="M1.5,12.5 L1.5,10.6119841 C3.36868264,10.6119841 4.3020136,9.62988435 5.20476234,8.68010104 C5.42456833,8.44860655 5.64705855,8.21557624 5.88091909,7.999984 C5.64702839,7.78474373 5.42456833,7.55158543 5.20476234,7.31989896 C4.3020136,6.37024364 3.36868264,5.3880159 1.5,5.3880159 L1.5,3.5 C4.10166081,3.5 5.46362551,4.93309004 6.45772884,5.97959869 C7.04735659,6.6001383 7.42634699,6.97875256 7.83064162,7.05212048 C7.87886744,7.04940078 7.92612814,7.04597715 7.97577148,7.04597715 L10.5786588,7.06600695 L10.5786588,5.10289533 C10.5540482,5.03707858 10.5740142,4.96191886 10.6274878,4.91945954 C10.6806297,4.87690423 10.7540693,4.87709621 10.8068191,4.92029145 L14.4424246,7.88546862 C14.4787975,7.91525734 14.5,7.96142825 14.5,8.01019088 C14.5,8.0589535 14.4787975,8.10515641 14.4424246,8.13484914 L10.8068191,11.1001223 C10.7802481,11.1216879 10.748369,11.1326627 10.7166106,11.1326627 C10.6852442,11.1326627 10.6538778,11.1220719 10.6274878,11.1008902 C10.5740142,11.0585269 10.5544102,10.9832392 10.5786588,10.9174544 L10.5786588,8.95399085 L7.97052364,8.95399085 C7.92033742,8.95360689 7.87558,8.95056723 7.83067178,8.9481035 C7.42634699,9.02127943 7.04753755,9.3999257 6.457759,10.0206253 C5.46362551,11.066846 4.10166081,12.5 1.5,12.5 Z" transform="rotate(-90 8 8)"/>
  </g>
</svg>
