<svg xmlns="http://www.w3.org/2000/svg" width="16" height="16" viewBox="0 0 16 16">
  <g fill="none" fill-rule="evenodd">
    <rect width="16" height="16" fill="#00FFFF"/>
    <path fill="#FF00FF" d="M4.5941944,10.4768734 C2.9242661,8.13366904 3.1404149,4.85958515 5.2426407,2.75735931 C7.58578646,0.414213563 11.3847763,0.414213563 13.7279221,2.75735931 C16.0710678,5.10050506 16.0710678,8.89949494 13.7279221,11.2426407 C11.6256962,13.3448665 8.35161236,13.5610153 6.008408,11.891087 L2.4142136,15.4852814 L1,14.0710678 L4.5941944,10.4768734 Z M5.9497475,10.5355339 C7.90236895,12.4881554 11.0681938,12.4881554 13.0208153,10.5355339 C14.9734368,8.58291245 14.9734368,5.41708755 13.0208153,3.46446609 C11.0681938,1.51184464 7.90236895,1.51184464 5.9497475,3.46446609 C3.997126,5.41708755 3.997126,8.58291245 5.9497475,10.5355339 Z"/>
    <polygon fill="#FF00FF" points="11.012 7.473 8.536 9.95 9.243 10.657 12.899 7 9.243 3.343 8.536 4.05 10.958 6.473 6.399 6.473 6.399 7.473 11.012 7.473 11.012 7.473 11.012 7.473 11.012 7.473"/>
  </g>
</svg>
