<svg xmlns="http://www.w3.org/2000/svg" width="16" height="16" viewBox="0 0 16 16">
  <path fill="#FF00FF" fill-rule="evenodd" d="M8,16 C12.418278,16 16,12.418278 16,8 C16,3.581722 12.418278,0 8,0 C3.581722,0 0,3.581722 0,8 C0,12.418278 3.581722,16 8,16 L8,16 Z M8,15 C11.8659932,15 15,11.8659932 15,8 C15,4.13400675 11.8659932,1 8,1 C4.13400675,1 1,4.13400675 1,8 C1,11.8659932 4.13400675,15 8,15 L8,15 Z M6.29289322,4.05025253 L7,3.34314575 L11.6568542,8 L7,12.6568542 L6.29289322,11.9497475 L10.2426407,8 L6.29289322,4.05025253 L6.29289322,4.05025253 Z"/>
</svg>
