<svg xmlns="http://www.w3.org/2000/svg" width="32" height="32" viewBox="0 0 32 32">
  <g fill="none" fill-rule="evenodd">
    <rect width="32" height="32" fill="#00FFFF" fill-rule="nonzero"/>
    <path fill="#00FF00" d="M13.5,27.3535156 C6.04415588,27.3535156 0,21.3093597 0,13.8535156 C0,6.3976715 6.04415588,0.353515625 13.5,0.353515625 C20.9558441,0.353515625 27,6.3976715 27,13.8535156 C27,21.3093597 20.9558441,27.3535156 13.5,27.3535156 Z M13.5,25.8535156 C20.127417,25.8535156 25.5,20.4809326 25.5,13.8535156 C25.5,7.22609863 20.127417,1.85351562 13.5,1.85351562 C6.872583,1.85351562 1.5,7.22609863 1.5,13.8535156 C1.5,20.4809326 6.872583,25.8535156 13.5,25.8535156 Z M10.6192573,7.33480114 L11.8125,6.14155845 L19.6709415,14 L11.8125,21.8584415 L10.6192573,20.6651989 L17.2844562,14 L10.6192573,7.33480114 Z" transform="matrix(-1 0 0 1 29.5 2)"/>
  </g>
</svg>
