<svg xmlns="http://www.w3.org/2000/svg" width="32" height="32" viewBox="0 0 32 32">
  <g fill="#A8D8E6" transform="translate(1 2)">
    <path d="M8.03103448,15.3349515 C3.87175899,15.3349515 0.5,11.9021056 0.5,7.66747573 C0.5,3.43284581 3.87175899,0 8.03103448,0 C12.19031,0 15.562069,3.43284581 15.562069,7.66747573 C15.562069,11.9021056 12.19031,15.3349515 8.03103448,15.3349515 Z M8.06321839,13.7415049 C11.340343,13.7415049 13.9969774,11.0367397 13.9969774,7.70024272 C13.9969774,4.36374577 11.340343,1.65898058 8.06321839,1.65898058 C4.78609376,1.65898058 2.12945934,4.36374577 2.12945934,7.70024272 C2.12945934,11.0367397 4.78609376,13.7415049 8.06321839,13.7415049 Z M10.776878,5.73081303 L9.41142828,7.12100085 C9.68187293,7.65168136 9.59842962,8.32079723 9.16109834,8.76605173 C8.62064863,9.31629287 7.74440652,9.31629287 7.20395681,8.76605173 C6.78357196,8.33805068 6.69018039,7.70320123 6.92378209,7.18329441 L4.81442355,5.0357202 L5.49714734,4.34062737 L7.60650588,6.48820158 C7.95023973,6.32811006 8.34512673,6.31886172 8.69477071,6.46045658 L10.0941542,5.0357202 L10.776878,5.73081303 Z"/>
    <path d="M21.1255978,7.96773071 C21.128537,7.49814433 21.1315642,7.25031302 21.1354462,7.19421204 C21.1959183,6.32042893 21.5275886,5.4989215 22.0709167,4.83798137 L16.516597,4.83798137 L15.8570585,3.35436893 L25.1870391,3.35436893 C27.4285873,3.35429901 29.25,5.20898429 29.25,7.48700472 C29.25,7.89579797 28.9228837,8.22890932 28.5169482,8.22890932 L22.5902617,8.22890932 L22.5902617,22.1172986 C22.5902617,24.3953181 20.7689161,26.25 18.5273729,26.25 L4.81282433,26.25 C2.57131368,26.25 0.75,24.3952858 0.75,22.1172986 C0.75,21.7085054 1.07711634,21.375394 1.48305178,21.375394 L7.409673,21.375394 L7.40964671,16.1950208 L8.87564867,16.2165999 L8.87564867,21.3753284 L15.1974716,21.3753284 C15.603407,21.3753284 15.9305234,21.7084398 15.9305234,22.117233 C15.9305234,23.5786846 17.0966398,24.7661908 18.5273085,24.7661908 C19.9579731,24.7661908 21.1241581,23.578689 21.1241581,22.117233 L21.1241581,21.8672161 L21.1255978,7.96773071 Z M27.6825177,6.74510013 C27.0007068,4.23810991 23.3769225,4.20375555 22.6920488,6.74510013 L27.6825177,6.74510013 Z M4.81275993,24.7662564 L15.4113032,24.7662564 C14.9611534,24.2185296 14.6561267,23.5606511 14.5301771,22.8592032 L2.31950457,22.8592032 C2.63727624,23.970948 3.64600208,24.7662564 4.81275993,24.7662564 Z"/>
  </g>
</svg>
