<svg xmlns="http://www.w3.org/2000/svg" width="32" height="32" viewBox="0 0 32 32">
  <g fill="none" file-rule="evenodd">
    <rect width="32" height="32" fill="#00FFFF"/>
    <path fill="#00FF00" d="M9.03103448,17.3349515 C4.87175899,17.3349515 1.5,13.9021056 1.5,9.66747573 C1.5,5.43284581 4.87175899,2 9.03103448,2 C13.19031,2 16.562069,5.43284581 16.562069,9.66747573 C16.562069,13.9021056 13.19031,17.3349515 9.03103448,17.3349515 Z M9.06321839,15.7415049 C12.340343,15.7415049 14.9969774,13.0367397 14.9969774,9.70024272 C14.9969774,6.36374577 12.340343,3.65898058 9.06321839,3.65898058 C5.78609376,3.65898058 3.12945934,6.36374577 3.12945934,9.70024272 C3.12945934,13.0367397 5.78609376,15.7415049 9.06321839,15.7415049 Z M11.776878,7.73081303 L10.4114283,9.12100085 C10.6818729,9.65168136 10.5984296,10.3207972 10.1610983,10.7660517 C9.62064863,11.3162929 8.74440652,11.3162929 8.20395681,10.7660517 C7.78357196,10.3380507 7.69018039,9.70320123 7.92378209,9.18329441 L5.81442355,7.0357202 L6.49714734,6.34062737 L8.60650588,8.48820158 C8.95023973,8.32811006 9.34512673,8.31886172 9.69477071,8.46045658 L11.0941542,7.0357202 L11.776878,7.73081303 Z"/>
    <path fill="#00FF00" d="M22.1255978,9.96773071 C22.128537,9.49814433 22.1315642,9.25031302 22.1354462,9.19421204 C22.1959183,8.32042893 22.5275886,7.4989215 23.0709167,6.83798137 L17.516597,6.83798137 L16.8570585,5.35436893 L26.1870391,5.35436893 C28.4285873,5.35429901 30.25,7.20898429 30.25,9.48700472 C30.25,9.89579797 29.9228837,10.2289093 29.5169482,10.2289093 L23.5902617,10.2289093 L23.5902617,24.1172986 C23.5902617,26.3953181 21.7689161,28.25 19.5273729,28.25 L5.81282433,28.25 C3.57131368,28.25 1.75,26.3952858 1.75,24.1172986 C1.75,23.7085054 2.07711634,23.375394 2.48305178,23.375394 L8.409673,23.375394 L8.40964671,18.1950208 L9.87564867,18.2165999 L9.87564867,23.3753284 L16.1974716,23.3753284 C16.603407,23.3753284 16.9305234,23.7084398 16.9305234,24.117233 C16.9305234,25.5786846 18.0966398,26.7661908 19.5273085,26.7661908 C20.9579731,26.7661908 22.1241581,25.578689 22.1241581,24.117233 L22.1241581,23.8672161 L22.1255978,9.96773071 Z M28.6825177,8.74510013 C28.0007068,6.23810991 24.3769225,6.20375555 23.6920488,8.74510013 L28.6825177,8.74510013 Z M5.81275993,26.7662564 L16.4113032,26.7662564 C15.9611534,26.2185296 15.6561267,25.5606511 15.5301771,24.8592032 L3.31950457,24.8592032 C3.63727624,25.970948 4.64600208,26.7662564 5.81275993,26.7662564 Z"/>
  </g>
</svg>
