<svg xmlns="http://www.w3.org/2000/svg" width="268" height="146" viewBox="0 0 268 146" xmlns:xlink="http://www.w3.org/1999/xlink">
  <defs>
    <path id="a" d="M8.22140969,11.2705701 C8.47165647,11.2705701 8.68341223,11.2800902 9.02637472,11.3020624 C9.44721633,8.34918123 10.5202114,5.04199977 12.771621,3.019454 C15.2499057,0.776931104 20.2938388,0 23.7705425,0 C26.3116204,0 28.1961387,1.36291695 30.3113067,2.62507705 C32.2030123,3.74147573 32.945248,4.73952098 34.0548182,6.59866412 C34.4408249,6.47646175 34.8321439,6.37472497 35.2309312,6.2918849 C35.9426498,6.15862697 38.0871142,5.95327187 38.7737779,5.95327187 C41.5486562,5.95327187 42.6909646,7.15226951 44.6367402,9.00219933 C46.5846167,10.8907809 48,13.5564375 48,16.2464238 C48,17.4678351 47.3031124,18.3812895 46.9641181,19.6068622 C46.5581084,21.0747169 46.1113245,22.6864902 44.9068703,23.8853755 C42.6967674,26.0852597 39.9677617,25.5538934 37.3162038,26.0852597 C31.1339993,26.6950866 26.5161176,27 23.4625587,27 C20.0503998,27 14.9697049,26.6950866 8.22047396,26.0852597 C5.83297869,25.5013676 4.22863094,24.5311013 2.81036729,23.1693732 C1.37232141,21.7886515 0,20.3082814 0,18.3117456 C0,16.3155887 1.03962112,14.6330091 2.47803655,13.2519326 C3.25584855,12.5051261 4.12007139,12.0721042 5.11819745,11.8259348 C5.48859348,11.7345835 6.22936838,11.9025256 6.63048357,11.8259348 C7.11938867,11.732581 7.71314961,11.2705701 8.22140969,11.2705701 Z"/>
  </defs>
  <g fill="none" fill-rule="evenodd">
    <rect width="268" height="146"/>
    <path fill="#64819B" d="M9.124,4.68 L9.124,5.376 L5.148,5.376 L5.148,16 L4.332,16 L4.332,5.376 L0.332,5.376 L0.332,4.68 L9.124,4.68 Z M10.7,16 L10.7,4.36 L11.46,4.36 L11.46,9.4 C11.8280018,8.9466644 12.2479976,8.58533468 12.72,8.316 C13.1920024,8.04666532 13.7213304,7.912 14.308,7.912 C14.7453355,7.912 15.130665,7.98133264 15.464,8.12 C15.797335,8.25866736 16.0733322,8.45866536 16.292,8.72 C16.5106678,8.98133464 16.6759994,9.29599816 16.788,9.664 C16.9000006,10.0320018 16.956,10.4479977 16.956,10.912 L16.956,16 L16.196,16 L16.196,10.912 C16.196,10.1653296 16.025335,9.58000212 15.684,9.156 C15.342665,8.73199788 14.8200035,8.52 14.116,8.52 C13.5933307,8.52 13.1080022,8.65466532 12.66,8.924 C12.2119978,9.19333468 11.8120018,9.56266432 11.46,10.032 L11.46,16 L10.7,16 Z M22.356,7.912 C22.8040022,7.912 23.2186648,7.98933256 23.6,8.144 C23.9813352,8.29866744 24.3119986,8.52399852 24.592,8.82 C24.8720014,9.11600148 25.0906659,9.47999784 25.248,9.912 C25.4053341,10.3440022 25.484,10.8399972 25.484,11.4 C25.484,11.5173339 25.4666668,11.5973331 25.432,11.64 C25.3973332,11.6826669 25.342667,11.704 25.268,11.704 L19.516,11.704 L19.516,11.856 C19.516,12.4533363 19.5853326,12.9786644 19.724,13.432 C19.8626674,13.8853356 20.0599987,14.2653318 20.316,14.572 C20.5720013,14.8786682 20.8813315,15.1093326 21.244,15.264 C21.6066685,15.4186674 22.0119978,15.496 22.46,15.496 C22.860002,15.496 23.2066652,15.4520004 23.5,15.364 C23.7933348,15.2759996 24.039999,15.1773339 24.24,15.068 C24.440001,14.9586661 24.5986661,14.8600004 24.716,14.772 C24.8333339,14.6839996 24.9186664,14.64 24.972,14.64 C25.0413337,14.64 25.0946665,14.6666664 25.132,14.72 L25.34,14.976 C25.2119994,15.1360008 25.0426677,15.2853326 24.832,15.424 C24.6213323,15.5626674 24.386668,15.6813328 24.128,15.78 C23.869332,15.8786672 23.5920015,15.957333 23.296,16.016 C22.9999985,16.074667 22.7026682,16.104 22.404,16.104 C21.8599973,16.104 21.3640022,16.0093343 20.916,15.82 C20.4679978,15.6306657 20.0840016,15.3546685 19.764,14.992 C19.4439984,14.6293315 19.1973342,14.185336 19.024,13.66 C18.8506658,13.134664 18.764,12.5333367 18.764,11.856 C18.764,11.2853305 18.8453325,10.7586691 19.008,10.276 C19.1706675,9.79333092 19.4053318,9.37733508 19.712,9.028 C20.0186682,8.67866492 20.3946644,8.40533432 20.84,8.208 C21.2853356,8.01066568 21.7906638,7.912 22.356,7.912 Z M22.364,8.48 C21.9533313,8.48 21.585335,8.54399936 21.26,8.672 C20.934665,8.80000064 20.6533345,8.9839988 20.416,9.224 C20.1786655,9.4640012 19.9866674,9.75199832 19.84,10.088 C19.6933326,10.4240017 19.5960002,10.7999979 19.548,11.216 L24.796,11.216 C24.796,10.7893312 24.7373339,10.4066684 24.62,10.068 C24.5026661,9.72933164 24.3373344,9.44266784 24.124,9.208 C23.9106656,8.97333216 23.6546682,8.79333396 23.356,8.668 C23.0573318,8.54266604 22.7266685,8.48 22.364,8.48 Z M30.62,16 L30.62,8.04 L31.02,8.04 C31.1106671,8.04 31.1759998,8.05866648 31.216,8.096 C31.2560002,8.13333352 31.2786666,8.19733288 31.284,8.288 L31.348,9.968 C31.6040013,9.32266344 31.9453312,8.81733516 32.372,8.452 C32.7986688,8.08666484 33.3239969,7.904 33.948,7.904 C34.1880012,7.904 34.4093323,7.92933308 34.612,7.98 C34.8146677,8.03066692 35.0066658,8.10399952 35.188,8.2 L35.084,8.728 C35.0679999,8.81333376 35.0146671,8.856 34.924,8.856 C34.8919998,8.856 34.846667,8.84533344 34.788,8.824 C34.729333,8.80266656 34.6560004,8.7786668 34.568,8.752 C34.4799996,8.7253332 34.3720006,8.70133344 34.244,8.68 C34.1159994,8.65866656 33.9693342,8.648 33.804,8.648 C33.2013303,8.648 32.7066686,8.8346648 32.32,9.208 C31.9333314,9.5813352 31.6200012,10.1199965 31.38,10.824 L31.38,16 L30.62,16 Z M39.972,7.912 C40.4200022,7.912 40.8346648,7.98933256 41.216,8.144 C41.5973352,8.29866744 41.9279986,8.52399852 42.208,8.82 C42.4880014,9.11600148 42.7066659,9.47999784 42.864,9.912 C43.0213341,10.3440022 43.1,10.8399972 43.1,11.4 C43.1,11.5173339 43.0826668,11.5973331 43.048,11.64 C43.0133332,11.6826669 42.958667,11.704 42.884,11.704 L37.132,11.704 L37.132,11.856 C37.132,12.4533363 37.2013326,12.9786644 37.34,13.432 C37.4786674,13.8853356 37.6759987,14.2653318 37.932,14.572 C38.1880013,14.8786682 38.4973315,15.1093326 38.86,15.264 C39.2226685,15.4186674 39.6279978,15.496 40.076,15.496 C40.476002,15.496 40.8226652,15.4520004 41.116,15.364 C41.4093348,15.2759996 41.655999,15.1773339 41.856,15.068 C42.056001,14.9586661 42.2146661,14.8600004 42.332,14.772 C42.4493339,14.6839996 42.5346664,14.64 42.588,14.64 C42.6573337,14.64 42.7106665,14.6666664 42.748,14.72 L42.956,14.976 C42.8279994,15.1360008 42.6586677,15.2853326 42.448,15.424 C42.2373323,15.5626674 42.002668,15.6813328 41.744,15.78 C41.485332,15.8786672 41.2080015,15.957333 40.912,16.016 C40.6159985,16.074667 40.3186682,16.104 40.02,16.104 C39.4759973,16.104 38.9800022,16.0093343 38.532,15.82 C38.0839978,15.6306657 37.7000016,15.3546685 37.38,14.992 C37.0599984,14.6293315 36.8133342,14.185336 36.64,13.66 C36.4666658,13.134664 36.38,12.5333367 36.38,11.856 C36.38,11.2853305 36.4613325,10.7586691 36.624,10.276 C36.7866675,9.79333092 37.0213318,9.37733508 37.328,9.028 C37.6346682,8.67866492 38.0106644,8.40533432 38.456,8.208 C38.9013356,8.01066568 39.4066638,7.912 39.972,7.912 Z M39.98,8.48 C39.5693313,8.48 39.201335,8.54399936 38.876,8.672 C38.550665,8.80000064 38.2693345,8.9839988 38.032,9.224 C37.7946655,9.4640012 37.6026674,9.75199832 37.456,10.088 C37.3093326,10.4240017 37.2120002,10.7999979 37.164,11.216 L42.412,11.216 C42.412,10.7893312 42.3533339,10.4066684 42.236,10.068 C42.1186661,9.72933164 41.9533344,9.44266784 41.74,9.208 C41.5266656,8.97333216 41.2706682,8.79333396 40.972,8.668 C40.6733318,8.54266604 40.3426685,8.48 39.98,8.48 Z M45.148,16 L45.148,8.04 L45.564,8.04 C45.7026674,8.04 45.7826666,8.106666 45.804,8.24 L45.876,9.392 C46.0306674,9.17333224 46.1959991,8.97333424 46.372,8.792 C46.5480009,8.61066576 46.735999,8.45466732 46.936,8.324 C47.136001,8.19333268 47.3493322,8.09200036 47.576,8.02 C47.8026678,7.94799964 48.0413321,7.912 48.292,7.912 C48.8733362,7.912 49.3373316,8.08133164 49.684,8.42 C50.0306684,8.75866836 50.2653327,9.22933032 50.388,9.832 C50.4840005,9.50133168 50.6186658,9.2160012 50.792,8.976 C50.9653342,8.7359988 51.1639989,8.53733412 51.388,8.38 C51.6120011,8.22266588 51.8559987,8.10533372 52.12,8.028 C52.3840013,7.95066628 52.6546653,7.912 52.932,7.912 C53.3266686,7.912 53.6813318,7.97733268 53.996,8.108 C54.3106682,8.23866732 54.5786656,8.43199872 54.8,8.688 C55.0213344,8.94400128 55.1906661,9.2586648 55.308,9.632 C55.4253339,10.0053352 55.484,10.4319976 55.484,10.912 L55.484,16 L54.716,16 L54.716,10.912 C54.716,10.1333294 54.5480017,9.54000204 54.212,9.132 C53.8759983,8.72399796 53.3960031,8.52 52.772,8.52 C52.4946653,8.52 52.2293346,8.57066616 51.976,8.672 C51.7226654,8.77333384 51.4986676,8.923999 51.304,9.124 C51.1093324,9.324001 50.9546672,9.57333184 50.84,9.872 C50.7253328,10.1706682 50.668,10.5173314 50.668,10.912 L50.668,16 L49.908,16 L49.908,10.912 C49.908,10.1386628 49.7533349,9.54666872 49.444,9.136 C49.1346651,8.72533128 48.684003,8.52 48.092,8.52 C47.6599978,8.52 47.2600018,8.64933204 46.892,8.908 C46.5239982,9.16666796 46.1960014,9.52533104 45.908,9.984 L45.908,16 L45.148,16 Z M60.908,7.912 C61.4786695,7.912 61.9893311,8.00933236 62.44,8.204 C62.8906689,8.39866764 63.2706651,8.67466488 63.58,9.032 C63.8893349,9.38933512 64.1253325,9.81999748 64.288,10.324 C64.4506675,10.8280025 64.532,11.3919969 64.532,12.016 C64.532,12.6400031 64.4506675,13.2026642 64.288,13.704 C64.1253325,14.2053358 63.8893349,14.6346649 63.58,14.992 C63.2706651,15.3493351 62.8906689,15.623999 62.44,15.816 C61.9893311,16.008001 61.4786695,16.104 60.908,16.104 C60.3373305,16.104 59.8266689,16.008001 59.376,15.816 C58.9253311,15.623999 58.5440016,15.3493351 58.232,14.992 C57.9199984,14.6346649 57.6826675,14.2053358 57.52,13.704 C57.3573325,13.2026642 57.276,12.6400031 57.276,12.016 C57.276,11.3919969 57.3573325,10.8280025 57.52,10.324 C57.6826675,9.81999748 57.9199984,9.38933512 58.232,9.032 C58.5440016,8.67466488 58.9253311,8.39866764 59.376,8.204 C59.8266689,8.00933236 60.3373305,7.912 60.908,7.912 Z M60.908,15.504 C61.382669,15.504 61.7973316,15.4226675 62.152,15.26 C62.5066684,15.0973325 62.8026655,14.8640015 63.04,14.56 C63.2773345,14.2559985 63.4546661,13.8893355 63.572,13.46 C63.6893339,13.0306645 63.748,12.549336 63.748,12.016 C63.748,11.4879974 63.6893339,11.0080022 63.572,10.576 C63.4546661,10.1439978 63.2773345,9.7746682 63.04,9.468 C62.8026655,9.1613318 62.5066684,8.92533416 62.152,8.76 C61.7973316,8.59466584 61.382669,8.512 60.908,8.512 C60.433331,8.512 60.0186684,8.59466584 59.664,8.76 C59.3093316,8.92533416 59.0133345,9.1613318 58.776,9.468 C58.5386655,9.7746682 58.3600006,10.1439978 58.24,10.576 C58.1199994,11.0080022 58.06,11.4879974 58.06,12.016 C58.06,12.549336 58.1199994,13.0306645 58.24,13.46 C58.3600006,13.8893355 58.5386655,14.2559985 58.776,14.56 C59.0133345,14.8640015 59.3093316,15.0973325 59.664,15.26 C60.0186684,15.4226675 60.433331,15.504 60.908,15.504 Z M68.708,16.128 C68.1693306,16.128 67.7493348,15.9786682 67.448,15.68 C67.1466652,15.3813318 66.996,14.9200031 66.996,14.296 L66.996,8.856 L65.852,8.856 C65.793333,8.856 65.7453335,8.84000016 65.708,8.808 C65.6706665,8.77599984 65.652,8.73066696 65.652,8.672 L65.652,8.376 L67.012,8.28 L67.204,5.432 C67.2093334,5.38399976 67.2293332,5.34133352 67.264,5.304 C67.2986668,5.26666648 67.345333,5.248 67.404,5.248 L67.764,5.248 L67.764,8.288 L70.268,8.288 L70.268,8.856 L67.764,8.856 L67.764,14.256 C67.764,14.4746678 67.7919997,14.6626659 67.848,14.82 C67.9040003,14.9773341 67.9813328,15.1066662 68.08,15.208 C68.1786672,15.3093338 68.294666,15.3839998 68.428,15.432 C68.561334,15.4800002 68.7053326,15.504 68.86,15.504 C69.052001,15.504 69.2173326,15.4760003 69.356,15.42 C69.4946674,15.3639997 69.6146662,15.302667 69.716,15.236 C69.8173338,15.169333 69.8999997,15.1080003 69.964,15.052 C70.0280003,14.9959997 70.0786665,14.968 70.116,14.968 C70.1586669,14.968 70.2013331,14.9946664 70.244,15.048 L70.452,15.384 C70.2493323,15.6080011 69.9920016,15.7879993 69.68,15.924 C69.3679984,16.0600007 69.0440017,16.128 68.708,16.128 Z M75.236,7.912 C75.6840022,7.912 76.0986648,7.98933256 76.48,8.144 C76.8613352,8.29866744 77.1919986,8.52399852 77.472,8.82 C77.7520014,9.11600148 77.9706659,9.47999784 78.128,9.912 C78.2853341,10.3440022 78.364,10.8399972 78.364,11.4 C78.364,11.5173339 78.3466668,11.5973331 78.312,11.64 C78.2773332,11.6826669 78.222667,11.704 78.148,11.704 L72.396,11.704 L72.396,11.856 C72.396,12.4533363 72.4653326,12.9786644 72.604,13.432 C72.7426674,13.8853356 72.9399987,14.2653318 73.196,14.572 C73.4520013,14.8786682 73.7613315,15.1093326 74.124,15.264 C74.4866685,15.4186674 74.8919978,15.496 75.34,15.496 C75.740002,15.496 76.0866652,15.4520004 76.38,15.364 C76.6733348,15.2759996 76.919999,15.1773339 77.12,15.068 C77.320001,14.9586661 77.4786661,14.8600004 77.596,14.772 C77.7133339,14.6839996 77.7986664,14.64 77.852,14.64 C77.9213337,14.64 77.9746665,14.6666664 78.012,14.72 L78.22,14.976 C78.0919994,15.1360008 77.9226677,15.2853326 77.712,15.424 C77.5013323,15.5626674 77.266668,15.6813328 77.008,15.78 C76.749332,15.8786672 76.4720015,15.957333 76.176,16.016 C75.8799985,16.074667 75.5826682,16.104 75.284,16.104 C74.7399973,16.104 74.2440022,16.0093343 73.796,15.82 C73.3479978,15.6306657 72.9640016,15.3546685 72.644,14.992 C72.3239984,14.6293315 72.0773342,14.185336 71.904,13.66 C71.7306658,13.134664 71.644,12.5333367 71.644,11.856 C71.644,11.2853305 71.7253325,10.7586691 71.888,10.276 C72.0506675,9.79333092 72.2853318,9.37733508 72.592,9.028 C72.8986682,8.67866492 73.2746644,8.40533432 73.72,8.208 C74.1653356,8.01066568 74.6706638,7.912 75.236,7.912 Z M75.244,8.48 C74.8333313,8.48 74.465335,8.54399936 74.14,8.672 C73.814665,8.80000064 73.5333345,8.9839988 73.296,9.224 C73.0586655,9.4640012 72.8666674,9.75199832 72.72,10.088 C72.5733326,10.4240017 72.4760002,10.7999979 72.428,11.216 L77.676,11.216 C77.676,10.7893312 77.6173339,10.4066684 77.5,10.068 C77.3826661,9.72933164 77.2173344,9.44266784 77.004,9.208 C76.7906656,8.97333216 76.5346682,8.79333396 76.236,8.668 C75.9373318,8.54266604 75.6066685,8.48 75.244,8.48 Z M83.5,16 L83.5,8.04 L83.9,8.04 C83.9906671,8.04 84.0559998,8.05866648 84.096,8.096 C84.1360002,8.13333352 84.1586666,8.19733288 84.164,8.288 L84.228,9.968 C84.4840013,9.32266344 84.8253312,8.81733516 85.252,8.452 C85.6786688,8.08666484 86.2039969,7.904 86.828,7.904 C87.0680012,7.904 87.2893323,7.92933308 87.492,7.98 C87.6946677,8.03066692 87.8866658,8.10399952 88.068,8.2 L87.964,8.728 C87.9479999,8.81333376 87.8946671,8.856 87.804,8.856 C87.7719998,8.856 87.726667,8.84533344 87.668,8.824 C87.609333,8.80266656 87.5360004,8.7786668 87.448,8.752 C87.3599996,8.7253332 87.2520006,8.70133344 87.124,8.68 C86.9959994,8.65866656 86.8493342,8.648 86.684,8.648 C86.0813303,8.648 85.5866686,8.8346648 85.2,9.208 C84.8133314,9.5813352 84.5000012,10.1199965 84.26,10.824 L84.26,16 L83.5,16 Z M92.852,7.912 C93.3000022,7.912 93.7146648,7.98933256 94.096,8.144 C94.4773352,8.29866744 94.8079986,8.52399852 95.088,8.82 C95.3680014,9.11600148 95.5866659,9.47999784 95.744,9.912 C95.9013341,10.3440022 95.98,10.8399972 95.98,11.4 C95.98,11.5173339 95.9626668,11.5973331 95.928,11.64 C95.8933332,11.6826669 95.838667,11.704 95.764,11.704 L90.012,11.704 L90.012,11.856 C90.012,12.4533363 90.0813326,12.9786644 90.22,13.432 C90.3586674,13.8853356 90.5559987,14.2653318 90.812,14.572 C91.0680013,14.8786682 91.3773315,15.1093326 91.74,15.264 C92.1026685,15.4186674 92.5079978,15.496 92.956,15.496 C93.356002,15.496 93.7026652,15.4520004 93.996,15.364 C94.2893348,15.2759996 94.535999,15.1773339 94.736,15.068 C94.936001,14.9586661 95.0946661,14.8600004 95.212,14.772 C95.3293339,14.6839996 95.4146664,14.64 95.468,14.64 C95.5373337,14.64 95.5906665,14.6666664 95.628,14.72 L95.836,14.976 C95.7079994,15.1360008 95.5386677,15.2853326 95.328,15.424 C95.1173323,15.5626674 94.882668,15.6813328 94.624,15.78 C94.365332,15.8786672 94.0880015,15.957333 93.792,16.016 C93.4959985,16.074667 93.1986682,16.104 92.9,16.104 C92.3559973,16.104 91.8600022,16.0093343 91.412,15.82 C90.9639978,15.6306657 90.5800016,15.3546685 90.26,14.992 C89.9399984,14.6293315 89.6933342,14.185336 89.52,13.66 C89.3466658,13.134664 89.26,12.5333367 89.26,11.856 C89.26,11.2853305 89.3413325,10.7586691 89.504,10.276 C89.6666675,9.79333092 89.9013318,9.37733508 90.208,9.028 C90.5146682,8.67866492 90.8906644,8.40533432 91.336,8.208 C91.7813356,8.01066568 92.2866638,7.912 92.852,7.912 Z M92.86,8.48 C92.4493313,8.48 92.081335,8.54399936 91.756,8.672 C91.430665,8.80000064 91.1493345,8.9839988 90.912,9.224 C90.6746655,9.4640012 90.4826674,9.75199832 90.336,10.088 C90.1893326,10.4240017 90.0920002,10.7999979 90.044,11.216 L95.292,11.216 C95.292,10.7893312 95.2333339,10.4066684 95.116,10.068 C94.9986661,9.72933164 94.8333344,9.44266784 94.62,9.208 C94.4066656,8.97333216 94.1506682,8.79333396 93.852,8.668 C93.5533318,8.54266604 93.2226685,8.48 92.86,8.48 Z M98.028,18.816 L98.028,8.04 L98.444,8.04 C98.5133337,8.04 98.5693331,8.05466652 98.612,8.084 C98.6546669,8.11333348 98.6786666,8.16533296 98.684,8.24 L98.756,9.472 C99.1080018,8.9919976 99.5199976,8.61066808 99.992,8.328 C100.464002,8.04533192 100.99333,7.904 101.58,7.904 C102.561338,7.904 103.323997,8.24266328 103.868,8.92 C104.412003,9.59733672 104.684,10.6133266 104.684,11.968 C104.684,12.5493362 104.608001,13.0919975 104.456,13.596 C104.303999,14.1000025 104.081335,14.5373315 103.788,14.908 C103.494665,15.2786685 103.133335,15.5706656 102.704,15.784 C102.274665,15.9973344 101.780003,16.104 101.22,16.104 C100.675997,16.104 100.206669,16.0053343 99.812,15.808 C99.4173314,15.6106657 99.0760014,15.3173353 98.788,14.928 L98.788,18.816 L98.028,18.816 Z M101.364,8.52 C100.835997,8.52 100.357335,8.65733196 99.928,8.932 C99.4986645,9.20666804 99.1186683,9.58933088 98.788,10.08 L98.788,14.256 C99.0920015,14.714669 99.4293315,15.0373324 99.8,15.224 C100.170669,15.4106676 100.593331,15.504 101.068,15.504 C101.537336,15.504 101.947998,15.4186675 102.3,15.248 C102.652002,15.0773325 102.946665,14.8360016 103.184,14.524 C103.421335,14.2119984 103.599999,13.8386688 103.72,13.404 C103.840001,12.9693312 103.9,12.4906693 103.9,11.968 C103.9,10.7839941 103.682669,9.91333612 103.248,9.356 C102.813331,8.79866388 102.185337,8.52 101.364,8.52 Z M109.62,7.912 C110.19067,7.912 110.701331,8.00933236 111.152,8.204 C111.602669,8.39866764 111.982665,8.67466488 112.292,9.032 C112.601335,9.38933512 112.837333,9.81999748 113,10.324 C113.162667,10.8280025 113.244,11.3919969 113.244,12.016 C113.244,12.6400031 113.162667,13.2026642 113,13.704 C112.837333,14.2053358 112.601335,14.6346649 112.292,14.992 C111.982665,15.3493351 111.602669,15.623999 111.152,15.816 C110.701331,16.008001 110.19067,16.104 109.62,16.104 C109.04933,16.104 108.538669,16.008001 108.088,15.816 C107.637331,15.623999 107.256002,15.3493351 106.944,14.992 C106.631998,14.6346649 106.394667,14.2053358 106.232,13.704 C106.069333,13.2026642 105.988,12.6400031 105.988,12.016 C105.988,11.3919969 106.069333,10.8280025 106.232,10.324 C106.394667,9.81999748 106.631998,9.38933512 106.944,9.032 C107.256002,8.67466488 107.637331,8.39866764 108.088,8.204 C108.538669,8.00933236 109.04933,7.912 109.62,7.912 Z M109.62,15.504 C110.094669,15.504 110.509332,15.4226675 110.864,15.26 C111.218668,15.0973325 111.514665,14.8640015 111.752,14.56 C111.989335,14.2559985 112.166666,13.8893355 112.284,13.46 C112.401334,13.0306645 112.46,12.549336 112.46,12.016 C112.46,11.4879974 112.401334,11.0080022 112.284,10.576 C112.166666,10.1439978 111.989335,9.7746682 111.752,9.468 C111.514665,9.1613318 111.218668,8.92533416 110.864,8.76 C110.509332,8.59466584 110.094669,8.512 109.62,8.512 C109.145331,8.512 108.730668,8.59466584 108.376,8.76 C108.021332,8.92533416 107.725335,9.1613318 107.488,9.468 C107.250665,9.7746682 107.072001,10.1439978 106.952,10.576 C106.831999,11.0080022 106.772,11.4879974 106.772,12.016 C106.772,12.549336 106.831999,13.0306645 106.952,13.46 C107.072001,13.8893355 107.250665,14.2559985 107.488,14.56 C107.725335,14.8640015 108.021332,15.0973325 108.376,15.26 C108.730668,15.4226675 109.145331,15.504 109.62,15.504 Z M119.628,9.024 C119.590666,9.09866704 119.532,9.136 119.452,9.136 C119.393333,9.136 119.317334,9.102667 119.224,9.036 C119.130666,8.969333 119.008001,8.89466708 118.856,8.812 C118.703999,8.72933292 118.517334,8.654667 118.296,8.588 C118.074666,8.521333 117.804002,8.488 117.484,8.488 C117.195999,8.488 116.933335,8.52933292 116.696,8.612 C116.458665,8.69466708 116.256001,8.80533264 116.088,8.944 C115.919999,9.08266736 115.789334,9.24399908 115.696,9.428 C115.602666,9.61200092 115.556,9.80533232 115.556,10.008 C115.556,10.2586679 115.619999,10.4666658 115.748,10.632 C115.876001,10.7973342 116.043999,10.9386661 116.252,11.056 C116.460001,11.1733339 116.695999,11.2746662 116.96,11.36 C117.224001,11.4453338 117.494665,11.5306662 117.772,11.616 C118.049335,11.7013338 118.319999,11.7959995 118.584,11.9 C118.848001,12.0040005 119.083999,12.1333326 119.292,12.288 C119.500001,12.4426674 119.667999,12.6319989 119.796,12.856 C119.924001,13.0800011 119.988,13.3519984 119.988,13.672 C119.988,14.0186684 119.925334,14.3413318 119.8,14.64 C119.674666,14.9386682 119.493335,15.1973322 119.256,15.416 C119.018665,15.6346678 118.726668,15.8079994 118.38,15.936 C118.033332,16.0640006 117.638669,16.128 117.196,16.128 C116.635997,16.128 116.153335,16.0386676 115.748,15.86 C115.342665,15.6813324 114.980002,15.4480014 114.66,15.16 L114.844,14.888 C114.870667,14.8453331 114.9,14.8133334 114.932,14.792 C114.964,14.7706666 115.009333,14.76 115.068,14.76 C115.137334,14.76 115.222666,14.8026662 115.324,14.888 C115.425334,14.9733338 115.557333,15.0653328 115.72,15.164 C115.882667,15.2626672 116.085332,15.3546662 116.328,15.44 C116.570668,15.5253338 116.870665,15.568 117.228,15.568 C117.564002,15.568 117.859999,15.5213338 118.116,15.428 C118.372001,15.3346662 118.585332,15.2080008 118.756,15.048 C118.926668,14.8879992 119.056,14.7000011 119.144,14.484 C119.232,14.2679989 119.276,14.0400012 119.276,13.8 C119.276,13.533332 119.212001,13.3120009 119.084,13.136 C118.955999,12.9599991 118.788001,12.8106673 118.58,12.688 C118.371999,12.5653327 118.136001,12.4613338 117.872,12.376 C117.607999,12.2906662 117.336001,12.2053338 117.056,12.12 C116.775999,12.0346662 116.504001,11.9413338 116.24,11.84 C115.975999,11.7386662 115.740001,11.6106674 115.532,11.456 C115.323999,11.3013326 115.156001,11.1133344 115.028,10.892 C114.899999,10.6706656 114.836,10.3946683 114.836,10.064 C114.836,9.78133192 114.897333,9.50933464 115.02,9.248 C115.142667,8.98666536 115.317332,8.75733432 115.544,8.56 C115.770668,8.36266568 116.046665,8.20533392 116.372,8.088 C116.697335,7.97066608 117.062665,7.912 117.468,7.912 C117.953336,7.912 118.383998,7.98133264 118.76,8.12 C119.136002,8.25866736 119.481332,8.47199856 119.796,8.76 L119.628,9.024 Z M123.108,8.04 L123.108,16 L122.348,16 L122.348,8.04 L123.108,8.04 Z M123.444,5.296 C123.444,5.39200048 123.424,5.48133292 123.384,5.564 C123.344,5.64666708 123.292,5.71999968 123.228,5.784 C123.164,5.84800032 123.089334,5.89866648 123.004,5.936 C122.918666,5.97333352 122.828,5.992 122.732,5.992 C122.636,5.992 122.545334,5.97333352 122.46,5.936 C122.374666,5.89866648 122.3,5.84800032 122.236,5.784 C122.172,5.71999968 122.121334,5.64666708 122.084,5.564 C122.046666,5.48133292 122.028,5.39200048 122.028,5.296 C122.028,5.19999952 122.046666,5.10800044 122.084,5.02 C122.121334,4.93199956 122.172,4.85600032 122.236,4.792 C122.3,4.72799968 122.374666,4.67733352 122.46,4.64 C122.545334,4.60266648 122.636,4.584 122.732,4.584 C122.828,4.584 122.918666,4.60266648 123.004,4.64 C123.089334,4.67733352 123.164,4.72799968 123.228,4.792 C123.292,4.85600032 123.344,4.93199956 123.384,5.02 C123.424,5.10800044 123.444,5.19999952 123.444,5.296 Z M128.1,16.128 C127.561331,16.128 127.141335,15.9786682 126.84,15.68 C126.538665,15.3813318 126.388,14.9200031 126.388,14.296 L126.388,8.856 L125.244,8.856 C125.185333,8.856 125.137334,8.84000016 125.1,8.808 C125.062666,8.77599984 125.044,8.73066696 125.044,8.672 L125.044,8.376 L126.404,8.28 L126.596,5.432 C126.601333,5.38399976 126.621333,5.34133352 126.656,5.304 C126.690667,5.26666648 126.737333,5.248 126.796,5.248 L127.156,5.248 L127.156,8.288 L129.66,8.288 L129.66,8.856 L127.156,8.856 L127.156,14.256 C127.156,14.4746678 127.184,14.6626659 127.24,14.82 C127.296,14.9773341 127.373333,15.1066662 127.472,15.208 C127.570667,15.3093338 127.686666,15.3839998 127.82,15.432 C127.953334,15.4800002 128.097333,15.504 128.252,15.504 C128.444001,15.504 128.609333,15.4760003 128.748,15.42 C128.886667,15.3639997 129.006666,15.302667 129.108,15.236 C129.209334,15.169333 129.292,15.1080003 129.356,15.052 C129.42,14.9959997 129.470666,14.968 129.508,14.968 C129.550667,14.968 129.593333,14.9946664 129.636,15.048 L129.844,15.384 C129.641332,15.6080011 129.384002,15.7879993 129.072,15.924 C128.759998,16.0600007 128.436002,16.128 128.1,16.128 Z M134.66,7.912 C135.23067,7.912 135.741331,8.00933236 136.192,8.204 C136.642669,8.39866764 137.022665,8.67466488 137.332,9.032 C137.641335,9.38933512 137.877333,9.81999748 138.04,10.324 C138.202667,10.8280025 138.284,11.3919969 138.284,12.016 C138.284,12.6400031 138.202667,13.2026642 138.04,13.704 C137.877333,14.2053358 137.641335,14.6346649 137.332,14.992 C137.022665,15.3493351 136.642669,15.623999 136.192,15.816 C135.741331,16.008001 135.23067,16.104 134.66,16.104 C134.08933,16.104 133.578669,16.008001 133.128,15.816 C132.677331,15.623999 132.296002,15.3493351 131.984,14.992 C131.671998,14.6346649 131.434667,14.2053358 131.272,13.704 C131.109333,13.2026642 131.028,12.6400031 131.028,12.016 C131.028,11.3919969 131.109333,10.8280025 131.272,10.324 C131.434667,9.81999748 131.671998,9.38933512 131.984,9.032 C132.296002,8.67466488 132.677331,8.39866764 133.128,8.204 C133.578669,8.00933236 134.08933,7.912 134.66,7.912 Z M134.66,15.504 C135.134669,15.504 135.549332,15.4226675 135.904,15.26 C136.258668,15.0973325 136.554665,14.8640015 136.792,14.56 C137.029335,14.2559985 137.206666,13.8893355 137.324,13.46 C137.441334,13.0306645 137.5,12.549336 137.5,12.016 C137.5,11.4879974 137.441334,11.0080022 137.324,10.576 C137.206666,10.1439978 137.029335,9.7746682 136.792,9.468 C136.554665,9.1613318 136.258668,8.92533416 135.904,8.76 C135.549332,8.59466584 135.134669,8.512 134.66,8.512 C134.185331,8.512 133.770668,8.59466584 133.416,8.76 C133.061332,8.92533416 132.765335,9.1613318 132.528,9.468 C132.290665,9.7746682 132.112001,10.1439978 131.992,10.576 C131.871999,11.0080022 131.812,11.4879974 131.812,12.016 C131.812,12.549336 131.871999,13.0306645 131.992,13.46 C132.112001,13.8893355 132.290665,14.2559985 132.528,14.56 C132.765335,14.8640015 133.061332,15.0973325 133.416,15.26 C133.770668,15.4226675 134.185331,15.504 134.66,15.504 Z M140.284,16 L140.284,8.04 L140.684,8.04 C140.774667,8.04 140.84,8.05866648 140.88,8.096 C140.92,8.13333352 140.942667,8.19733288 140.948,8.288 L141.012,9.968 C141.268001,9.32266344 141.609331,8.81733516 142.036,8.452 C142.462669,8.08666484 142.987997,7.904 143.612,7.904 C143.852001,7.904 144.073332,7.92933308 144.276,7.98 C144.478668,8.03066692 144.670666,8.10399952 144.852,8.2 L144.748,8.728 C144.732,8.81333376 144.678667,8.856 144.588,8.856 C144.556,8.856 144.510667,8.84533344 144.452,8.824 C144.393333,8.80266656 144.32,8.7786668 144.232,8.752 C144.144,8.7253332 144.036001,8.70133344 143.908,8.68 C143.779999,8.65866656 143.633334,8.648 143.468,8.648 C142.86533,8.648 142.370669,8.8346648 141.984,9.208 C141.597331,9.5813352 141.284001,10.1199965 141.044,10.824 L141.044,16 L140.284,16 Z M148.372,18.56 C148.34,18.634667 148.298667,18.6959998 148.248,18.744 C148.197333,18.7920002 148.124,18.816 148.028,18.816 L147.484,18.816 L148.884,15.704 L145.516,8.04 L146.148,8.04 C146.228,8.04 146.290666,8.0599998 146.336,8.1 C146.381334,8.1400002 146.414667,8.18399976 146.436,8.232 L149.116,14.424 C149.148,14.5040004 149.176,14.5853329 149.2,14.668 C149.224,14.7506671 149.246667,14.8346662 149.268,14.92 C149.294667,14.8346662 149.322667,14.7506671 149.352,14.668 C149.381333,14.5853329 149.412,14.5040004 149.444,14.424 L152.092,8.232 C152.118667,8.17333304 152.156,8.12666684 152.204,8.092 C152.252,8.05733316 152.305333,8.04 152.364,8.04 L152.948,8.04 L148.372,18.56 Z M158.5,8.04 L158.5,16 L157.74,16 L157.74,8.04 L158.5,8.04 Z M158.836,5.296 C158.836,5.39200048 158.816,5.48133292 158.776,5.564 C158.736,5.64666708 158.684,5.71999968 158.62,5.784 C158.556,5.84800032 158.481334,5.89866648 158.396,5.936 C158.310666,5.97333352 158.22,5.992 158.124,5.992 C158.028,5.992 157.937334,5.97333352 157.852,5.936 C157.766666,5.89866648 157.692,5.84800032 157.628,5.784 C157.564,5.71999968 157.513334,5.64666708 157.476,5.564 C157.438666,5.48133292 157.42,5.39200048 157.42,5.296 C157.42,5.19999952 157.438666,5.10800044 157.476,5.02 C157.513334,4.93199956 157.564,4.85600032 157.628,4.792 C157.692,4.72799968 157.766666,4.67733352 157.852,4.64 C157.937334,4.60266648 158.028,4.584 158.124,4.584 C158.22,4.584 158.310666,4.60266648 158.396,4.64 C158.481334,4.67733352 158.556,4.72799968 158.62,4.792 C158.684,4.85600032 158.736,4.93199956 158.776,5.02 C158.816,5.10800044 158.836,5.19999952 158.836,5.296 Z M165.7,9.024 C165.662666,9.09866704 165.604,9.136 165.524,9.136 C165.465333,9.136 165.389334,9.102667 165.296,9.036 C165.202666,8.969333 165.080001,8.89466708 164.928,8.812 C164.775999,8.72933292 164.589334,8.654667 164.368,8.588 C164.146666,8.521333 163.876002,8.488 163.556,8.488 C163.267999,8.488 163.005335,8.52933292 162.768,8.612 C162.530665,8.69466708 162.328001,8.80533264 162.16,8.944 C161.991999,9.08266736 161.861334,9.24399908 161.768,9.428 C161.674666,9.61200092 161.628,9.80533232 161.628,10.008 C161.628,10.2586679 161.691999,10.4666658 161.82,10.632 C161.948001,10.7973342 162.115999,10.9386661 162.324,11.056 C162.532001,11.1733339 162.767999,11.2746662 163.032,11.36 C163.296001,11.4453338 163.566665,11.5306662 163.844,11.616 C164.121335,11.7013338 164.391999,11.7959995 164.656,11.9 C164.920001,12.0040005 165.155999,12.1333326 165.364,12.288 C165.572001,12.4426674 165.739999,12.6319989 165.868,12.856 C165.996001,13.0800011 166.06,13.3519984 166.06,13.672 C166.06,14.0186684 165.997334,14.3413318 165.872,14.64 C165.746666,14.9386682 165.565335,15.1973322 165.328,15.416 C165.090665,15.6346678 164.798668,15.8079994 164.452,15.936 C164.105332,16.0640006 163.710669,16.128 163.268,16.128 C162.707997,16.128 162.225335,16.0386676 161.82,15.86 C161.414665,15.6813324 161.052002,15.4480014 160.732,15.16 L160.916,14.888 C160.942667,14.8453331 160.972,14.8133334 161.004,14.792 C161.036,14.7706666 161.081333,14.76 161.14,14.76 C161.209334,14.76 161.294666,14.8026662 161.396,14.888 C161.497334,14.9733338 161.629333,15.0653328 161.792,15.164 C161.954667,15.2626672 162.157332,15.3546662 162.4,15.44 C162.642668,15.5253338 162.942665,15.568 163.3,15.568 C163.636002,15.568 163.931999,15.5213338 164.188,15.428 C164.444001,15.3346662 164.657332,15.2080008 164.828,15.048 C164.998668,14.8879992 165.128,14.7000011 165.216,14.484 C165.304,14.2679989 165.348,14.0400012 165.348,13.8 C165.348,13.533332 165.284001,13.3120009 165.156,13.136 C165.027999,12.9599991 164.860001,12.8106673 164.652,12.688 C164.443999,12.5653327 164.208001,12.4613338 163.944,12.376 C163.679999,12.2906662 163.408001,12.2053338 163.128,12.12 C162.847999,12.0346662 162.576001,11.9413338 162.312,11.84 C162.047999,11.7386662 161.812001,11.6106674 161.604,11.456 C161.395999,11.3013326 161.228001,11.1133344 161.1,10.892 C160.971999,10.6706656 160.908,10.3946683 160.908,10.064 C160.908,9.78133192 160.969333,9.50933464 161.092,9.248 C161.214667,8.98666536 161.389332,8.75733432 161.616,8.56 C161.842668,8.36266568 162.118665,8.20533392 162.444,8.088 C162.769335,7.97066608 163.134665,7.912 163.54,7.912 C164.025336,7.912 164.455998,7.98133264 164.832,8.12 C165.208002,8.25866736 165.553332,8.47199856 165.868,8.76 L165.7,9.024 Z M174.284,7.912 C174.732002,7.912 175.146665,7.98933256 175.528,8.144 C175.909335,8.29866744 176.239999,8.52399852 176.52,8.82 C176.800001,9.11600148 177.018666,9.47999784 177.176,9.912 C177.333334,10.3440022 177.412,10.8399972 177.412,11.4 C177.412,11.5173339 177.394667,11.5973331 177.36,11.64 C177.325333,11.6826669 177.270667,11.704 177.196,11.704 L171.444,11.704 L171.444,11.856 C171.444,12.4533363 171.513333,12.9786644 171.652,13.432 C171.790667,13.8853356 171.987999,14.2653318 172.244,14.572 C172.500001,14.8786682 172.809332,15.1093326 173.172,15.264 C173.534668,15.4186674 173.939998,15.496 174.388,15.496 C174.788002,15.496 175.134665,15.4520004 175.428,15.364 C175.721335,15.2759996 175.967999,15.1773339 176.168,15.068 C176.368001,14.9586661 176.526666,14.8600004 176.644,14.772 C176.761334,14.6839996 176.846666,14.64 176.9,14.64 C176.969334,14.64 177.022666,14.6666664 177.06,14.72 L177.268,14.976 C177.139999,15.1360008 176.970668,15.2853326 176.76,15.424 C176.549332,15.5626674 176.314668,15.6813328 176.056,15.78 C175.797332,15.8786672 175.520001,15.957333 175.224,16.016 C174.927999,16.074667 174.630668,16.104 174.332,16.104 C173.787997,16.104 173.292002,16.0093343 172.844,15.82 C172.395998,15.6306657 172.012002,15.3546685 171.692,14.992 C171.371998,14.6293315 171.125334,14.185336 170.952,13.66 C170.778666,13.134664 170.692,12.5333367 170.692,11.856 C170.692,11.2853305 170.773333,10.7586691 170.936,10.276 C171.098667,9.79333092 171.333332,9.37733508 171.64,9.028 C171.946668,8.67866492 172.322664,8.40533432 172.768,8.208 C173.213336,8.01066568 173.718664,7.912 174.284,7.912 Z M174.292,8.48 C173.881331,8.48 173.513335,8.54399936 173.188,8.672 C172.862665,8.80000064 172.581335,8.9839988 172.344,9.224 C172.106665,9.4640012 171.914667,9.75199832 171.768,10.088 C171.621333,10.4240017 171.524,10.7999979 171.476,11.216 L176.724,11.216 C176.724,10.7893312 176.665334,10.4066684 176.548,10.068 C176.430666,9.72933164 176.265334,9.44266784 176.052,9.208 C175.838666,8.97333216 175.582668,8.79333396 175.284,8.668 C174.985332,8.54266604 174.654668,8.48 174.292,8.48 Z M179.46,16 L179.46,8.04 L179.876,8.04 C180.014667,8.04 180.094667,8.106666 180.116,8.24 L180.188,9.392 C180.342667,9.17333224 180.507999,8.97333424 180.684,8.792 C180.860001,8.61066576 181.047999,8.45466732 181.248,8.324 C181.448001,8.19333268 181.661332,8.09200036 181.888,8.02 C182.114668,7.94799964 182.353332,7.912 182.604,7.912 C183.185336,7.912 183.649332,8.08133164 183.996,8.42 C184.342668,8.75866836 184.577333,9.22933032 184.7,9.832 C184.796,9.50133168 184.930666,9.2160012 185.104,8.976 C185.277334,8.7359988 185.475999,8.53733412 185.7,8.38 C185.924001,8.22266588 186.167999,8.10533372 186.432,8.028 C186.696001,7.95066628 186.966665,7.912 187.244,7.912 C187.638669,7.912 187.993332,7.97733268 188.308,8.108 C188.622668,8.23866732 188.890666,8.43199872 189.112,8.688 C189.333334,8.94400128 189.502666,9.2586648 189.62,9.632 C189.737334,10.0053352 189.796,10.4319976 189.796,10.912 L189.796,16 L189.028,16 L189.028,10.912 C189.028,10.1333294 188.860002,9.54000204 188.524,9.132 C188.187998,8.72399796 187.708003,8.52 187.084,8.52 C186.806665,8.52 186.541335,8.57066616 186.288,8.672 C186.034665,8.77333384 185.810668,8.923999 185.616,9.124 C185.421332,9.324001 185.266667,9.57333184 185.152,9.872 C185.037333,10.1706682 184.98,10.5173314 184.98,10.912 L184.98,16 L184.22,16 L184.22,10.912 C184.22,10.1386628 184.065335,9.54666872 183.756,9.136 C183.446665,8.72533128 182.996003,8.52 182.404,8.52 C181.971998,8.52 181.572002,8.64933204 181.204,8.908 C180.835998,9.16666796 180.508001,9.52533104 180.22,9.984 L180.22,16 L179.46,16 Z M192.188,18.816 L192.188,8.04 L192.604,8.04 C192.673334,8.04 192.729333,8.05466652 192.772,8.084 C192.814667,8.11333348 192.838667,8.16533296 192.844,8.24 L192.916,9.472 C193.268002,8.9919976 193.679998,8.61066808 194.152,8.328 C194.624002,8.04533192 195.15333,7.904 195.74,7.904 C196.721338,7.904 197.483997,8.24266328 198.028,8.92 C198.572003,9.59733672 198.844,10.6133266 198.844,11.968 C198.844,12.5493362 198.768001,13.0919975 198.616,13.596 C198.463999,14.1000025 198.241335,14.5373315 197.948,14.908 C197.654665,15.2786685 197.293335,15.5706656 196.864,15.784 C196.434665,15.9973344 195.940003,16.104 195.38,16.104 C194.835997,16.104 194.366669,16.0053343 193.972,15.808 C193.577331,15.6106657 193.236001,15.3173353 192.948,14.928 L192.948,18.816 L192.188,18.816 Z M195.524,8.52 C194.995997,8.52 194.517335,8.65733196 194.088,8.932 C193.658665,9.20666804 193.278668,9.58933088 192.948,10.08 L192.948,14.256 C193.252002,14.714669 193.589331,15.0373324 193.96,15.224 C194.330669,15.4106676 194.753331,15.504 195.228,15.504 C195.697336,15.504 196.107998,15.4186675 196.46,15.248 C196.812002,15.0773325 197.106665,14.8360016 197.344,14.524 C197.581335,14.2119984 197.759999,13.8386688 197.88,13.404 C198.000001,12.9693312 198.06,12.4906693 198.06,11.968 C198.06,10.7839941 197.842669,9.91333612 197.408,9.356 C196.973331,8.79866388 196.345337,8.52 195.524,8.52 Z M202.924,16.128 C202.385331,16.128 201.965335,15.9786682 201.664,15.68 C201.362665,15.3813318 201.212,14.9200031 201.212,14.296 L201.212,8.856 L200.068,8.856 C200.009333,8.856 199.961334,8.84000016 199.924,8.808 C199.886666,8.77599984 199.868,8.73066696 199.868,8.672 L199.868,8.376 L201.228,8.28 L201.42,5.432 C201.425333,5.38399976 201.445333,5.34133352 201.48,5.304 C201.514667,5.26666648 201.561333,5.248 201.62,5.248 L201.98,5.248 L201.98,8.288 L204.484,8.288 L204.484,8.856 L201.98,8.856 L201.98,14.256 C201.98,14.4746678 202.008,14.6626659 202.064,14.82 C202.12,14.9773341 202.197333,15.1066662 202.296,15.208 C202.394667,15.3093338 202.510666,15.3839998 202.644,15.432 C202.777334,15.4800002 202.921333,15.504 203.076,15.504 C203.268001,15.504 203.433333,15.4760003 203.572,15.42 C203.710667,15.3639997 203.830666,15.302667 203.932,15.236 C204.033334,15.169333 204.116,15.1080003 204.18,15.052 C204.244,14.9959997 204.294666,14.968 204.332,14.968 C204.374667,14.968 204.417333,14.9946664 204.46,15.048 L204.668,15.384 C204.465332,15.6080011 204.208002,15.7879993 203.896,15.924 C203.583998,16.0600007 203.260002,16.128 202.924,16.128 Z M208.188,18.56 C208.156,18.634667 208.114667,18.6959998 208.064,18.744 C208.013333,18.7920002 207.94,18.816 207.844,18.816 L207.3,18.816 L208.7,15.704 L205.332,8.04 L205.964,8.04 C206.044,8.04 206.106666,8.0599998 206.152,8.1 C206.197334,8.1400002 206.230667,8.18399976 206.252,8.232 L208.932,14.424 C208.964,14.5040004 208.992,14.5853329 209.016,14.668 C209.04,14.7506671 209.062667,14.8346662 209.084,14.92 C209.110667,14.8346662 209.138667,14.7506671 209.168,14.668 C209.197333,14.5853329 209.228,14.5040004 209.26,14.424 L211.908,8.232 C211.934667,8.17333304 211.972,8.12666684 212.02,8.092 C212.068,8.05733316 212.121333,8.04 212.18,8.04 L212.764,8.04 L208.188,18.56 Z" transform="translate(29 124)"/>
    <g transform="translate(87 -4)">
      <path fill="#EFF6FD" fill-rule="nonzero" d="M17.8271661,68.8157074 C13.7196785,69.316138 13.0532044,69.2830685 8.11366786,71.1907597 C-4.34032345,76.0005974 1.22848179,79.8839216 9.87903202,82.9023206 C15.1091342,84.7272375 21.0132441,86.546007 26.0309366,87.1790067 C30.2574319,87.712194 34.9063272,87.479117 39.4560048,87.8083259 C41.242562,87.9375989 43.538584,88.8943586 45.3425383,89.0018374 C56.6236791,89.6739628 67.6253173,88.9417338 77.8164743,86.6799838 C84.0041582,85.306735 95.5669554,82.5348187 96.7467752,78.0251492 C96.7479748,78.0205637 97.2390353,75.0276545 96.0912068,74.4647942 C92.3821613,72.6459905 88.4953271,70.9244346 84.3516444,69.4362745 C83.0333867,68.9628361 81.3720526,68.9077714 79.8822567,68.6435198 C71.6354473,68.0798528 65.4100351,67.6411964 61.2060203,67.3275504 C57.3842841,67.0424249 52.2312886,66.2085458 48.7135265,66.0499052 C42.4342777,65.7667298 32.1388242,66.6886639 17.8271661,68.8157074 Z"/>
      <g transform="translate(13)">
        <rect width="42" height="8" x="18" y="15" fill="#D1E2F1" stroke="#81BFF1" stroke-width="1.25"/>
        <path fill="#D1E2F1" stroke="#81BFF1" stroke-width="1.25" d="M14,25.0364749 C20.7681021,26.3812466 25.3924991,29.1694163 27.8731909,33.4009839 C31.5942287,39.7483352 30.2069096,45.6608675 33.4217336,49.6188734 C35.5649496,52.2575439 38.8118094,54.7179195 43.162313,57 L47,49.6188734 C42.1559992,51.2463255 38.6242413,50.1847141 36.4047264,46.4340392 C33.0754541,40.8080269 35.5316912,37.5720799 32.569974,33.4009839 C30.5954959,30.6202532 26.3995465,26.4865919 19.9821258,21 L14,25.0364749 Z"/>
        <g stroke="#81BFF1" stroke-width="1.25" transform="translate(39 46)">
          <path fill="#EEF5FB" d="M12.4880197,23 C16.2067205,23 18.6401495,22.2345355 21.1132994,19.7392118 C21.9182803,18.9270136 23.8747104,17.0587774 24.3734135,16.1209574 C25.1842016,14.5962555 24.9760395,13.312158 24.9760395,11.5 C24.9760395,7.916499 23.0188552,5.05981533 20.2287948,2.95074507 C18.0738476,1.32177132 15.493586,0 12.4880197,0 C7.42109352,0 3.09026182,2.24998789 1.13213055,6.24308933 C0.424914251,7.68527376 0,9.81476953 0,11.5 C0,13.4987441 0.33379789,15.2354244 1.13213055,16.798336 C1.95695795,18.413117 3.27448099,19.8377134 5.03040852,20.8771411 C6.97542087,22.0284984 10.0040409,23 12.4880197,23 Z"/>
          <path fill="#FFFFFF" d="M12.9558635,18.4 C15.1595381,18.4 16.6015701,17.9407213 18.0671404,16.4435271 C18.5441661,15.9562081 19.7035321,14.8352665 19.9990598,14.2725744 C20.4795269,13.3577533 20.3561715,12.5872948 20.3561715,11.5 C20.3561715,9.3498994 19.1963586,7.6358892 17.5429895,6.37044704 C16.2659838,5.39306279 14.7369398,4.6 12.9558635,4.6 C9.9532406,4.6 7.38682182,5.94999273 6.22644773,8.3458536 C5.80735659,9.21116426 5.55555556,10.4888617 5.55555556,11.5 C5.55555556,12.6992465 5.75336171,13.7412546 6.22644773,14.6790016 C6.71523434,15.6478702 7.49598873,16.502628 8.53653838,17.1262847 C9.68913829,17.817099 11.4838761,18.4 12.9558635,18.4 Z"/>
        </g>
        <g transform="rotate(-59 43.802 -29.571)">
          <path fill="#EEF5FB" stroke="#81BFF1" stroke-width="1.25" d="M12.5357143,25 C16.2686176,25 18.7113404,24.1679734 21.1939358,21.455665 C22.0019912,20.5728408 23.9658933,18.5421494 24.466501,17.5227798 C25.2803857,15.8654952 25.0714286,14.469737 25.0714286,12.5 C25.0714286,8.60489022 23.1067693,5.49979927 20.3060531,3.20733159 C18.1428757,1.43670796 15.5527594,0 12.5357143,0 C7.44943634,0 3.10206423,2.44563901 1.13645441,6.78596667 C0.426537094,8.35355844 0,10.6682278 0,12.5 C0,14.672548 0.335072739,16.5602439 1.13645441,18.2590609 C1.96443202,20.0142576 3.28698697,21.5627319 5.04962078,22.6925447 C7.00206157,23.94402 10.0422486,25 12.5357143,25 Z"/>
          <path fill="#FFFFFF" stroke="#81BFF1" stroke-width="1.25" d="M12.5406138,19.9074074 C14.7527046,19.9074074 16.2002441,19.4143546 17.6714117,17.8070608 C18.1502593,17.2839057 19.3140532,16.080533 19.6107096,15.4764621 C20.0930117,14.4943675 19.9691852,13.6672515 19.9691852,12.5 C19.9691852,10.1917868 18.8049427,8.3517329 17.145259,6.99323354 C15.8633761,5.94397509 14.3284924,5.09259259 12.5406138,5.09259259 C9.52652314,5.09259259 6.95030263,6.54186015 5.78549681,9.11390617 C5.36480507,10.0428494 5.11204235,11.4145053 5.11204235,12.5 C5.11204235,13.7874358 5.31060397,14.9060704 5.78549681,15.9127768 C6.27615021,16.9528934 7.05988648,17.8705078 8.10441022,18.5400265 C9.26141217,19.2816415 11.0630045,19.9074074 12.5406138,19.9074074 Z"/>
          <path fill="#81BFF1" d="M12.5444053,15.9664539 C13.5796003,15.9664539 14.2570072,15.7357194 14.9454714,14.983552 C15.1695583,14.7387305 15.7141804,14.1755866 15.8530071,13.8928988 C16.0787106,13.4333067 16.0207634,13.0462402 16.0207634,12.5 C16.0207634,11.4198225 15.4759313,10.5587301 14.699247,9.92299144 C14.0993626,9.43196861 13.3810811,9.03354606 12.5444053,9.03354606 C11.1338974,9.03354606 9.92830022,9.71176165 9.38320455,10.9154053 C9.18633289,11.3501241 9.0680472,11.9920197 9.0680472,12.5 C9.0680472,13.102483 9.16096834,13.6259719 9.38320455,14.0970816 C9.61281625,14.5838262 9.97958231,15.0132434 10.4683894,15.3265589 C11.0098331,15.6736134 11.8529266,15.9664539 12.5444053,15.9664539 Z"/>
        </g>
        <g stroke="#81BFF1" stroke-width="1.25" transform="translate(0 7)">
          <path fill="#EEF5FB" d="M12.4880197,23 C16.2067205,23 18.6401495,22.2345355 21.1132994,19.7392118 C21.9182803,18.9270136 23.8747104,17.0587774 24.3734135,16.1209574 C25.1842016,14.5962555 24.9760395,13.312158 24.9760395,11.5 C24.9760395,7.916499 23.0188552,5.05981533 20.2287948,2.95074507 C18.0738476,1.32177132 15.493586,0 12.4880197,0 C7.42109352,0 3.09026182,2.24998789 1.13213055,6.24308933 C0.424914251,7.68527376 0,9.81476953 0,11.5 C0,13.4987441 0.33379789,15.2354244 1.13213055,16.798336 C1.95695795,18.413117 3.27448099,19.8377134 5.03040852,20.8771411 C6.97542087,22.0284984 10.0040409,23 12.4880197,23 Z"/>
          <path fill="#FFFFFF" d="M12.9558635,18.4 C15.1595381,18.4 16.6015701,17.9407213 18.0671404,16.4435271 C18.5441661,15.9562081 19.7035321,14.8352665 19.9990598,14.2725744 C20.4795269,13.3577533 20.3561715,12.5872948 20.3561715,11.5 C20.3561715,9.3498994 19.1963586,7.6358892 17.5429895,6.37044704 C16.2659838,5.39306279 14.7369398,4.6 12.9558635,4.6 C9.9532406,4.6 7.38682182,5.94999273 6.22644773,8.3458536 C5.80735659,9.21116426 5.55555556,10.4888617 5.55555556,11.5 C5.55555556,12.6992465 5.75336171,13.7412546 6.22644773,14.6790016 C6.71523434,15.6478702 7.49598873,16.502628 8.53653838,17.1262847 C9.68913829,17.817099 11.4838761,18.4 12.9558635,18.4 Z"/>
        </g>
      </g>
      <g transform="translate(0 35)">
        <g fill-rule="nonzero">
          <use fill="#FFFFFF" fill-rule="evenodd" xlink:href="#a"/>
          <path stroke="#81BFF1" stroke-width="1.125" d="M8.54770161,10.7136168 C9.10893859,7.31007778 10.369868,4.42091604 12.3942077,2.60236234 C14.6896611,0.52527779 19.2864184,-0.5625 23.7705425,-0.5625 C25.5285552,-0.5625 26.9667593,-0.0284911815 28.9791963,1.16183671 C29.1577566,1.2674526 29.3417736,1.37828135 29.5752691,1.52038657 C29.6554626,1.56919232 30.056673,1.81411595 30.1696791,1.88281413 C30.3302482,1.98042668 30.4676004,2.06330602 30.597196,2.14064586 C32.3043772,3.1481466 33.1294442,4.0104629 34.3113444,5.93594019 C34.5769764,5.86237506 34.847779,5.79700804 35.127411,5.73899268 C35.8741037,5.59918638 38.0531251,5.39077187 38.7737779,5.39077187 C40.6210748,5.39077187 41.8880277,5.87180272 43.2402216,6.96667393 C43.7048952,7.34292007 43.8258998,7.45514962 45.0282935,8.59835256 C47.2013005,10.7052115 48.5625,13.5280473 48.5625,16.2464238 C48.5625,16.865463 48.4241993,17.4100296 48.1350177,18.1251916 C48.1015958,18.2078458 48.0660915,18.2932799 48.0224381,18.3965689 C47.9657038,18.5302857 47.9657038,18.5302857 47.9094105,18.662618 C47.7043554,19.1458978 47.595889,19.4327861 47.5062612,19.7568194 C46.8527271,22.1195539 46.3938875,23.1988919 45.3036952,24.2840436 C43.8529662,25.728065 42.5483542,26.1055594 39.5989562,26.3658267 C38.9955326,26.4190753 38.742932,26.4433156 38.418891,26.4821919 C38.0556013,26.5257769 37.7325587,26.5755067 37.3714221,26.6450428 C31.1723801,27.2565306 26.5385061,27.5625 23.4625587,27.5625 C20.0300133,27.5625 14.9345053,27.2566976 8.08684566,26.6316567 C5.73403743,26.0562478 4.01026774,25.1012437 2.42078911,23.5751257 C0.339607743,21.5769055 -0.5625,20.2099482 -0.5625,18.3117456 C-0.5625,16.2991341 0.386359078,14.4804294 2.08845837,12.8461801 C2.91016787,12.057226 3.84754377,11.559963 4.98350326,11.2797996 C5.22584083,11.2200315 5.42127745,11.2233518 5.92947891,11.2613104 L5.9412596,11.2621901 C6.28135238,11.2875759 6.43324411,11.2909341 6.52498325,11.273417 C6.63893143,11.2516592 6.75928292,11.2022291 7.08666622,11.0477218 C7.17605619,11.0055858 7.21655468,10.9867063 7.27007687,10.9624792 C7.64411583,10.7931679 7.92006364,10.7080701 8.22140969,10.7080701 C8.33184934,10.7080701 8.43506459,10.709731 8.54770161,10.7136168 Z"/>
        </g>
        <path fill="#EEF5FB" d="M7.27427897,25.2475547 C16.4521141,26.6310051 22.2176236,27.1953422 24.5708073,26.940566 C28.1005829,26.5584016 39.9172027,25.6944645 41.7665149,25.2475547 C43.615827,24.8006449 45.3817614,24.2863333 45.656315,23.2235114 C45.9308686,22.1606894 46.6920833,20.4560571 46.9223316,19.7495013 C47.1525798,19.0429455 47.9033287,17.0803274 47.9957769,16.331272 C48.088225,15.5822166 46.6373122,12.3914265 46.1468136,12.0212152 C45.656315,11.6510039 45.5530522,16.226966 43.9817822,17.8635817 C42.4105123,19.5001974 34.7819688,21.3887241 31.4517417,22.3061177 C28.1215146,23.2235114 10.5354316,22.3061177 10.2563428,22.3061177 C9.97725399,22.3061177 4.75654913,21.2148896 3.82857887,20.3574448 C3.20993204,19.7858149 2.26917021,18.6786119 1.00629339,17.0358356 C0.940242371,19.3423242 1.39411053,21.0990849 2.36789787,22.3061177 C3.34168521,23.5131505 4.97714557,24.4936295 7.27427897,25.2475547 Z"/>
      </g>
    </g>
    <path fill="#133A51" d="M16.2890625,116.804688 L14.2773438,116.804688 L7.0703125,105.642578 C6.88801992,105.362629 6.73828184,105.069663 6.62109375,104.763672 L6.5625,104.763672 C6.61458359,105.063153 6.640625,105.704422 6.640625,106.6875 L6.640625,116.804688 L5,116.804688 L5,102.800781 L7.12890625,102.800781 L14.140625,113.787109 C14.4335952,114.242841 14.6223954,114.555338 14.7070313,114.724609 L14.7460938,114.724609 C14.6809893,114.320962 14.6484375,113.634119 14.6484375,112.664062 L14.6484375,102.800781 L16.2890625,102.800781 L16.2890625,116.804688 Z M23.9257812,117.039062 C22.4479093,117.039062 21.2679081,116.571945 20.3857422,115.637695 C19.5035763,114.703446 19.0625,113.464851 19.0625,111.921875 C19.0625,110.242179 19.5214798,108.930343 20.4394531,107.986328 C21.3574265,107.042313 22.5976484,106.570312 24.1601562,106.570312 C25.6510491,106.570312 26.8147745,107.029292 27.6513672,107.947266 C28.4879599,108.865239 28.90625,110.138013 28.90625,111.765625 C28.90625,113.360685 28.4554082,114.638342 27.5537109,115.598633 C26.6520137,116.558924 25.4427159,117.039062 23.9257812,117.039062 Z M24.0429688,107.917969 C23.0143178,107.917969 22.2005238,108.2679 21.6015625,108.967773 C21.0026012,109.667647 20.703125,110.632806 20.703125,111.863281 C20.703125,113.048183 21.0058563,113.982418 21.6113281,114.666016 C22.2167999,115.349613 23.0273387,115.691406 24.0429688,115.691406 C25.0781302,115.691406 25.8740207,115.356123 26.4306641,114.685547 C26.9873075,114.014971 27.265625,113.061204 27.265625,111.824219 C27.265625,110.574213 26.9873075,109.61068 26.4306641,108.933594 C25.8740207,108.256507 25.0781302,107.917969 24.0429688,107.917969 Z M42.1582031,108.425781 C41.8782538,108.210936 41.474612,108.103516 40.9472656,108.103516 C40.2636685,108.103516 39.6923851,108.425778 39.2333984,109.070312 C38.7744118,109.714847 38.5449219,110.593744 38.5449219,111.707031 L38.5449219,116.804688 L36.9433594,116.804688 L36.9433594,106.804688 L38.5449219,106.804688 L38.5449219,108.865234 L38.5839844,108.865234 C38.8118501,108.162106 39.1601539,107.613609 39.6289062,107.219727 C40.0976586,106.825844 40.6217419,106.628906 41.2011719,106.628906 C41.6178406,106.628906 41.9368479,106.674479 42.1582031,106.765625 L42.1582031,108.425781 Z M51.6699219,112.205078 L44.609375,112.205078 C44.6354168,113.318365 44.934893,114.177731 45.5078125,114.783203 C46.080732,115.388675 46.8684846,115.691406 47.8710938,115.691406 C48.9974015,115.691406 50.0325474,115.320316 50.9765625,114.578125 L50.9765625,116.082031 C50.0976519,116.720055 48.9355541,117.039062 47.4902344,117.039062 C46.0774669,117.039062 44.967452,116.584965 44.1601562,115.676758 C43.3528605,114.76855 42.9492188,113.490894 42.9492188,111.84375 C42.9492188,110.287753 43.3902951,109.019862 44.2724609,108.040039 C45.1546268,107.060216 46.2499935,106.570312 47.5585938,106.570312 C48.867194,106.570312 49.8795537,106.993485 50.5957031,107.839844 C51.3118525,108.686202 51.6699219,109.861321 51.6699219,111.365234 L51.6699219,112.205078 Z M50.0292969,110.847656 C50.0227864,109.923172 49.7998069,109.203779 49.3603516,108.689453 C48.9208962,108.175128 48.3105508,107.917969 47.5292969,107.917969 C46.7740848,107.917969 46.1328151,108.188148 45.6054688,108.728516 C45.0781224,109.268883 44.7526048,109.975256 44.6289062,110.847656 L50.0292969,110.847656 Z M68.2910156,116.804688 L66.6894531,116.804688 L66.6894531,111.0625 C66.6894531,109.955724 66.5185564,109.15495 66.1767578,108.660156 C65.8349592,108.165362 65.2604207,107.917969 64.453125,107.917969 C63.7695278,107.917969 63.188479,108.230466 62.7099609,108.855469 C62.2314429,109.480472 61.9921875,110.229162 61.9921875,111.101562 L61.9921875,116.804688 L60.390625,116.804688 L60.390625,110.867188 C60.390625,108.901032 59.632169,107.917969 58.1152344,107.917969 C57.4121059,107.917969 56.8326846,108.212562 56.3769531,108.801758 C55.9212217,109.390953 55.6933594,110.157547 55.6933594,111.101562 L55.6933594,116.804688 L54.0917969,116.804688 L54.0917969,106.804688 L55.6933594,106.804688 L55.6933594,108.386719 L55.7324219,108.386719 C56.4420608,107.175775 57.4772067,106.570312 58.8378906,106.570312 C59.5214878,106.570312 60.117185,106.76074 60.625,107.141602 C61.132815,107.522463 61.4811188,108.022132 61.6699219,108.640625 C62.4121131,107.26041 63.5188729,106.570312 64.9902344,106.570312 C67.1907662,106.570312 68.2910156,107.927721 68.2910156,110.642578 L68.2910156,116.804688 Z M75.4980469,117.039062 C74.0201749,117.039062 72.8401737,116.571945 71.9580078,115.637695 C71.0758419,114.703446 70.6347656,113.464851 70.6347656,111.921875 C70.6347656,110.242179 71.0937454,108.930343 72.0117188,107.986328 C72.9296921,107.042313 74.1699141,106.570312 75.7324219,106.570312 C77.2233147,106.570312 78.3870401,107.029292 79.2236328,107.947266 C80.0602255,108.865239 80.4785156,110.138013 80.4785156,111.765625 C80.4785156,113.360685 80.0276738,114.638342 79.1259766,115.598633 C78.2242793,116.558924 77.0149815,117.039062 75.4980469,117.039062 Z M75.6152344,107.917969 C74.5865834,107.917969 73.7727895,108.2679 73.1738281,108.967773 C72.5748668,109.667647 72.2753906,110.632806 72.2753906,111.863281 C72.2753906,113.048183 72.578122,113.982418 73.1835938,114.666016 C73.7890655,115.349613 74.5996043,115.691406 75.6152344,115.691406 C76.6503958,115.691406 77.4462863,115.356123 78.0029297,114.685547 C78.5595731,114.014971 78.8378906,113.061204 78.8378906,111.824219 C78.8378906,110.574213 78.5595731,109.61068 78.0029297,108.933594 C77.4462863,108.256507 76.6503958,107.917969 75.6152344,107.917969 Z M87.6757812,116.707031 C87.2981752,116.915366 86.8001333,117.019531 86.1816406,117.019531 C84.4303298,117.019531 83.5546875,116.042979 83.5546875,114.089844 L83.5546875,108.171875 L81.8359375,108.171875 L81.8359375,106.804688 L83.5546875,106.804688 L83.5546875,104.363281 L85.15625,103.845703 L85.15625,106.804688 L87.6757812,106.804688 L87.6757812,108.171875 L85.15625,108.171875 L85.15625,113.806641 C85.15625,114.477217 85.2701812,114.955728 85.4980469,115.242188 C85.7259126,115.528647 86.103513,115.671875 86.6308594,115.671875 C87.0345072,115.671875 87.382811,115.561199 87.6757812,115.339844 L87.6757812,116.707031 Z M97.6953125,112.205078 L90.6347656,112.205078 C90.6608074,113.318365 90.9602836,114.177731 91.5332031,114.783203 C92.1061227,115.388675 92.8938752,115.691406 93.8964844,115.691406 C95.0227921,115.691406 96.057938,115.320316 97.0019531,114.578125 L97.0019531,116.082031 C96.1230425,116.720055 94.9609447,117.039062 93.515625,117.039062 C92.1028575,117.039062 90.9928426,116.584965 90.1855469,115.676758 C89.3782512,114.76855 88.9746094,113.490894 88.9746094,111.84375 C88.9746094,110.287753 89.4156857,109.019862 90.2978516,108.040039 C91.1800174,107.060216 92.2753841,106.570312 93.5839844,106.570312 C94.8925847,106.570312 95.9049443,106.993485 96.6210938,107.839844 C97.3372432,108.686202 97.6953125,109.861321 97.6953125,111.365234 L97.6953125,112.205078 Z M96.0546875,110.847656 C96.0481771,109.923172 95.8251975,109.203779 95.3857422,108.689453 C94.9462869,108.175128 94.3359414,107.917969 93.5546875,107.917969 C92.7994754,107.917969 92.1582058,108.188148 91.6308594,108.728516 C91.103513,109.268883 90.7779954,109.975256 90.6542969,110.847656 L96.0546875,110.847656 Z M105.234375,111.863281 L99.9023438,111.863281 L99.9023438,110.603516 L105.234375,110.603516 L105.234375,111.863281 Z M112.753906,116.707031 C112.3763,116.915366 111.878258,117.019531 111.259766,117.019531 C109.508455,117.019531 108.632812,116.042979 108.632812,114.089844 L108.632812,108.171875 L106.914062,108.171875 L106.914062,106.804688 L108.632812,106.804688 L108.632812,104.363281 L110.234375,103.845703 L110.234375,106.804688 L112.753906,106.804688 L112.753906,108.171875 L110.234375,108.171875 L110.234375,113.806641 C110.234375,114.477217 110.348306,114.955728 110.576172,115.242188 C110.804038,115.528647 111.181638,115.671875 111.708984,115.671875 C112.112632,115.671875 112.460936,115.561199 112.753906,115.339844 L112.753906,116.707031 Z M120.107422,108.425781 C119.827473,108.210936 119.423831,108.103516 118.896484,108.103516 C118.212887,108.103516 117.641604,108.425778 117.182617,109.070312 C116.723631,109.714847 116.494141,110.593744 116.494141,111.707031 L116.494141,116.804688 L114.892578,116.804688 L114.892578,106.804688 L116.494141,106.804688 L116.494141,108.865234 L116.533203,108.865234 C116.761069,108.162106 117.109373,107.613609 117.578125,107.219727 C118.046877,106.825844 118.570961,106.628906 119.150391,106.628906 C119.567059,106.628906 119.886067,106.674479 120.107422,106.765625 L120.107422,108.425781 Z M129.003906,116.804688 L127.402344,116.804688 L127.402344,115.242188 L127.363281,115.242188 C126.666663,116.44011 125.641283,117.039062 124.287109,117.039062 C123.291011,117.039062 122.511396,116.775393 121.948242,116.248047 C121.385088,115.7207 121.103516,115.020838 121.103516,114.148438 C121.103516,112.279939 122.203765,111.19271 124.404297,110.886719 L127.402344,110.466797 C127.402344,108.76757 126.715502,107.917969 125.341797,107.917969 C124.137364,107.917969 123.050135,108.328121 122.080078,109.148438 L122.080078,107.507812 C123.063156,106.882809 124.195957,106.570312 125.478516,106.570312 C127.828788,106.570312 129.003906,107.81379 129.003906,110.300781 L129.003906,116.804688 Z M127.402344,111.746094 L124.990234,112.078125 C124.248043,112.182292 123.688153,112.36621 123.310547,112.629883 C122.932941,112.893556 122.744141,113.360674 122.744141,114.03125 C122.744141,114.519534 122.918293,114.918293 123.266602,115.227539 C123.614911,115.536785 124.078773,115.691406 124.658203,115.691406 C125.452478,115.691406 126.108396,115.413089 126.625977,114.856445 C127.143557,114.299802 127.402344,113.595056 127.402344,112.742188 L127.402344,111.746094 Z M138.837891,116.345703 C138.069658,116.807945 137.158208,117.039062 136.103516,117.039062 C134.677727,117.039062 133.527023,116.5752 132.651367,115.647461 C131.775712,114.719722 131.337891,113.516934 131.337891,112.039062 C131.337891,110.391919 131.809891,109.06869 132.753906,108.069336 C133.697921,107.069982 134.957674,106.570312 136.533203,106.570312 C137.412114,106.570312 138.186846,106.733071 138.857422,107.058594 L138.857422,108.699219 C138.115231,108.178383 137.320968,107.917969 136.474609,107.917969 C135.452469,107.917969 134.614261,108.284176 133.959961,109.016602 C133.305661,109.749027 132.978516,110.710932 132.978516,111.902344 C132.978516,113.074225 133.28613,113.998695 133.901367,114.675781 C134.516605,115.352868 135.341792,115.691406 136.376953,115.691406 C137.249353,115.691406 138.069658,115.401696 138.837891,114.822266 L138.837891,116.345703 Z M149.560547,116.804688 L147.314453,116.804688 L142.900391,112 L142.861328,112 L142.861328,116.804688 L141.259766,116.804688 L141.259766,102 L142.861328,102 L142.861328,111.384766 L142.900391,111.384766 L147.099609,106.804688 L149.199219,106.804688 L144.560547,111.628906 L149.560547,116.804688 Z M152.021484,104.265625 C151.735025,104.265625 151.490886,104.16797 151.289062,103.972656 C151.087239,103.777343 150.986328,103.529949 150.986328,103.230469 C150.986328,102.930988 151.087239,102.681967 151.289062,102.483398 C151.490886,102.28483 151.735025,102.185547 152.021484,102.185547 C152.314455,102.185547 152.563476,102.28483 152.768555,102.483398 C152.973634,102.681967 153.076172,102.930988 153.076172,103.230469 C153.076172,103.516929 152.973634,103.761067 152.768555,103.962891 C152.563476,104.164715 152.314455,104.265625 152.021484,104.265625 Z M152.802734,116.804688 L151.201172,116.804688 L151.201172,106.804688 L152.802734,106.804688 L152.802734,116.804688 Z M164.345703,116.804688 L162.744141,116.804688 L162.744141,111.101562 C162.744141,108.979156 161.969409,107.917969 160.419922,107.917969 C159.619137,107.917969 158.956708,108.219073 158.432617,108.821289 C157.908526,109.423506 157.646484,110.183589 157.646484,111.101562 L157.646484,116.804688 L156.044922,116.804688 L156.044922,106.804688 L157.646484,106.804688 L157.646484,108.464844 L157.685547,108.464844 C158.440759,107.201817 159.534498,106.570312 160.966797,106.570312 C162.060552,106.570312 162.897133,106.923499 163.476562,107.629883 C164.055992,108.336267 164.345703,109.356764 164.345703,110.691406 L164.345703,116.804688 Z M175.898438,116.003906 C175.898438,119.6758 174.140643,121.511719 170.625,121.511719 C169.388015,121.511719 168.307296,121.277346 167.382812,120.808594 L167.382812,119.207031 C168.50912,119.832034 169.583328,120.144531 170.605469,120.144531 C173.066419,120.144531 174.296875,118.835951 174.296875,116.21875 L174.296875,115.125 L174.257812,115.125 C173.49609,116.401048 172.350268,117.039062 170.820312,117.039062 C169.576817,117.039062 168.57585,116.594731 167.817383,115.706055 C167.058915,114.817378 166.679688,113.624356 166.679688,112.126953 C166.679688,110.427726 167.088212,109.076828 167.905273,108.074219 C168.722335,107.07161 169.840488,106.570312 171.259766,106.570312 C172.607429,106.570312 173.606768,107.110672 174.257812,108.191406 L174.296875,108.191406 L174.296875,106.804688 L175.898438,106.804688 L175.898438,116.003906 Z M174.296875,112.283203 L174.296875,110.808594 C174.296875,110.014319 174.028323,109.333987 173.491211,108.767578 C172.954099,108.201169 172.28516,107.917969 171.484375,107.917969 C170.494787,107.917969 169.720055,108.277666 169.160156,108.99707 C168.600258,109.716475 168.320312,110.723952 168.320312,112.019531 C168.320312,113.132818 168.588865,114.023109 169.125977,114.69043 C169.663089,115.357751 170.374345,115.691406 171.259766,115.691406 C172.158208,115.691406 172.888995,115.372399 173.452148,114.734375 C174.015302,114.096351 174.296875,113.279302 174.296875,112.283203 Z M186.259766,115.359375 L186.220703,115.359375 L186.220703,116.804688 L184.619141,116.804688 L184.619141,102 L186.220703,102 L186.220703,108.5625 L186.259766,108.5625 C187.04753,107.234368 188.199862,106.570312 189.716797,106.570312 C190.999355,106.570312 192.003577,107.017899 192.729492,107.913086 C193.455407,108.808273 193.818359,110.007805 193.818359,111.511719 C193.818359,113.184904 193.411462,114.524409 192.597656,115.530273 C191.78385,116.536138 190.67058,117.039062 189.257812,117.039062 C187.936191,117.039062 186.936852,116.479172 186.259766,115.359375 Z M186.220703,111.326172 L186.220703,112.722656 C186.220703,113.549483 186.489255,114.250974 187.026367,114.827148 C187.563479,115.403323 188.245439,115.691406 189.072266,115.691406 C190.042323,115.691406 190.802406,115.320316 191.352539,114.578125 C191.902672,113.835934 192.177734,112.804043 192.177734,111.482422 C192.177734,110.369135 191.920575,109.496748 191.40625,108.865234 C190.891925,108.233721 190.195317,107.917969 189.316406,107.917969 C188.385412,107.917969 187.636722,108.241859 187.070312,108.889648 C186.503903,109.537438 186.220703,110.349604 186.220703,111.326172 Z M201.591797,108.425781 C201.311848,108.210936 200.908206,108.103516 200.380859,108.103516 C199.697262,108.103516 199.125979,108.425778 198.666992,109.070312 C198.208006,109.714847 197.978516,110.593744 197.978516,111.707031 L197.978516,116.804688 L196.376953,116.804688 L196.376953,106.804688 L197.978516,106.804688 L197.978516,108.865234 L198.017578,108.865234 C198.245444,108.162106 198.593748,107.613609 199.0625,107.219727 C199.531252,106.825844 200.055336,106.628906 200.634766,106.628906 C201.051434,106.628906 201.370442,106.674479 201.591797,106.765625 L201.591797,108.425781 Z M210.488281,116.804688 L208.886719,116.804688 L208.886719,115.242188 L208.847656,115.242188 C208.151038,116.44011 207.125658,117.039062 205.771484,117.039062 C204.775386,117.039062 203.995771,116.775393 203.432617,116.248047 C202.869463,115.7207 202.587891,115.020838 202.587891,114.148438 C202.587891,112.279939 203.68814,111.19271 205.888672,110.886719 L208.886719,110.466797 C208.886719,108.76757 208.199877,107.917969 206.826172,107.917969 C205.621739,107.917969 204.53451,108.328121 203.564453,109.148438 L203.564453,107.507812 C204.547531,106.882809 205.680332,106.570312 206.962891,106.570312 C209.313163,106.570312 210.488281,107.81379 210.488281,110.300781 L210.488281,116.804688 Z M208.886719,111.746094 L206.474609,112.078125 C205.732418,112.182292 205.172528,112.36621 204.794922,112.629883 C204.417316,112.893556 204.228516,113.360674 204.228516,114.03125 C204.228516,114.519534 204.402668,114.918293 204.750977,115.227539 C205.099286,115.536785 205.563148,115.691406 206.142578,115.691406 C206.936853,115.691406 207.592771,115.413089 208.110352,114.856445 C208.627932,114.299802 208.886719,113.595056 208.886719,112.742188 L208.886719,111.746094 Z M221.806641,116.804688 L220.205078,116.804688 L220.205078,111.101562 C220.205078,108.979156 219.430346,107.917969 217.880859,107.917969 C217.080074,107.917969 216.417646,108.219073 215.893555,108.821289 C215.369464,109.423506 215.107422,110.183589 215.107422,111.101562 L215.107422,116.804688 L213.505859,116.804688 L213.505859,106.804688 L215.107422,106.804688 L215.107422,108.464844 L215.146484,108.464844 C215.901696,107.201817 216.995436,106.570312 218.427734,106.570312 C219.52149,106.570312 220.35807,106.923499 220.9375,107.629883 C221.51693,108.336267 221.806641,109.356764 221.806641,110.691406 L221.806641,116.804688 Z M231.640625,116.345703 C230.872392,116.807945 229.960943,117.039062 228.90625,117.039062 C227.480462,117.039062 226.329757,116.5752 225.454102,115.647461 C224.578446,114.719722 224.140625,113.516934 224.140625,112.039062 C224.140625,110.391919 224.612625,109.06869 225.556641,108.069336 C226.500656,107.069982 227.760409,106.570312 229.335938,106.570312 C230.214848,106.570312 230.98958,106.733071 231.660156,107.058594 L231.660156,108.699219 C230.917965,108.178383 230.123702,107.917969 229.277344,107.917969 C228.255203,107.917969 227.416995,108.284176 226.762695,109.016602 C226.108395,109.749027 225.78125,110.710932 225.78125,111.902344 C225.78125,113.074225 226.088864,113.998695 226.704102,114.675781 C227.319339,115.352868 228.144526,115.691406 229.179688,115.691406 C230.052088,115.691406 230.872392,115.401696 231.640625,114.822266 L231.640625,116.345703 Z M242.363281,116.804688 L240.761719,116.804688 L240.761719,111.042969 C240.761719,108.959625 239.986987,107.917969 238.4375,107.917969 C237.656246,107.917969 236.998701,108.219073 236.464844,108.821289 C235.930987,109.423506 235.664062,110.19661 235.664062,111.140625 L235.664062,116.804688 L234.0625,116.804688 L234.0625,102 L235.664062,102 L235.664062,108.464844 L235.703125,108.464844 C236.471358,107.201817 237.565097,106.570312 238.984375,106.570312 C241.23699,106.570312 242.363281,107.927721 242.363281,110.642578 L242.363281,116.804688 Z M253.417969,112.205078 L246.357422,112.205078 C246.383464,113.318365 246.68294,114.177731 247.255859,114.783203 C247.828779,115.388675 248.616531,115.691406 249.619141,115.691406 C250.745448,115.691406 251.780594,115.320316 252.724609,114.578125 L252.724609,116.082031 C251.845699,116.720055 250.683601,117.039062 249.238281,117.039062 C247.825514,117.039062 246.715499,116.584965 245.908203,115.676758 C245.100907,114.76855 244.697266,113.490894 244.697266,111.84375 C244.697266,110.287753 245.138342,109.019862 246.020508,108.040039 C246.902674,107.060216 247.99804,106.570312 249.306641,106.570312 C250.615241,106.570312 251.627601,106.993485 252.34375,107.839844 C253.059899,108.686202 253.417969,109.861321 253.417969,111.365234 L253.417969,112.205078 Z M251.777344,110.847656 C251.770833,109.923172 251.547854,109.203779 251.108398,108.689453 C250.668943,108.175128 250.058598,107.917969 249.277344,107.917969 C248.522132,107.917969 247.880862,108.188148 247.353516,108.728516 C246.826169,109.268883 246.500652,109.975256 246.376953,110.847656 L251.777344,110.847656 Z M255.234375,116.443359 L255.234375,114.724609 C256.106775,115.369144 257.067052,115.691406 258.115234,115.691406 C259.521491,115.691406 260.224609,115.222661 260.224609,114.285156 C260.224609,114.018228 260.164389,113.791993 260.043945,113.606445 C259.923502,113.420898 259.760743,113.256511 259.555664,113.113281 C259.350585,112.970051 259.109702,112.841472 258.833008,112.727539 C258.556314,112.613606 258.258465,112.494792 257.939453,112.371094 C257.496743,112.195312 257.107749,112.017905 256.772461,111.838867 C256.437173,111.65983 256.157228,111.458009 255.932617,111.233398 C255.708007,111.008788 255.538738,110.753257 255.424805,110.466797 C255.310872,110.180337 255.253906,109.845054 255.253906,109.460938 C255.253906,108.992185 255.361327,108.57715 255.576172,108.21582 C255.791017,107.85449 256.077472,107.551759 256.435547,107.307617 C256.793622,107.063475 257.202146,106.879558 257.661133,106.755859 C258.120119,106.632161 258.593748,106.570312 259.082031,106.570312 C259.947921,106.570312 260.722653,106.720051 261.40625,107.019531 L261.40625,108.640625 C260.670569,108.158852 259.824224,107.917969 258.867188,107.917969 C258.567707,107.917969 258.297527,107.952148 258.056641,108.020508 C257.815754,108.088868 257.60905,108.184895 257.436523,108.308594 C257.263997,108.432292 257.130534,108.580403 257.036133,108.75293 C256.941731,108.925457 256.894531,109.115884 256.894531,109.324219 C256.894531,109.584637 256.941731,109.802733 257.036133,109.978516 C257.130534,110.154298 257.268879,110.310546 257.451172,110.447266 C257.633464,110.583985 257.854816,110.707682 258.115234,110.818359 C258.375652,110.929037 258.671873,111.049479 259.003906,111.179688 C259.446617,111.348959 259.843748,111.523111 260.195312,111.702148 C260.546877,111.881186 260.846353,112.083007 261.09375,112.307617 C261.341147,112.532228 261.531575,112.791014 261.665039,113.083984 C261.798503,113.376955 261.865234,113.725258 261.865234,114.128906 C261.865234,114.6237 261.756186,115.053384 261.538086,115.417969 C261.319986,115.782554 261.028648,116.085285 260.664062,116.326172 C260.299477,116.567058 259.87956,116.746093 259.404297,116.863281 C258.929034,116.980469 258.430992,117.039062 257.910156,117.039062 C256.881505,117.039062 255.989587,116.840497 255.234375,116.443359 Z"/>
    <circle cx="242.75" cy="138.75" r="1" fill="#64819B"/>
  </g>
</svg>
