<svg xmlns="http://www.w3.org/2000/svg" width="308" height="240" viewBox="0 0 308 240">
  <g fill="none" fill-rule="evenodd">
    <rect width="308" height="241"/>
    <path fill="#FFFFFF" d="M45.4648429,193.996094 L40.8457023,202.824219 L40.8457023,208 L39.2050773,208 L39.2050773,202.863281 L34.7031242,193.996094 L36.5683586,193.996094 L39.7031242,200.324219 C39.7421869,200.402344 39.856118,200.6888 40.0449211,201.183594 L40.0742179,201.183594 C40.1393224,200.962238 40.2630191,200.675783 40.4453117,200.324219 L43.7265617,193.996094 L45.4648429,193.996094 Z M50.1249993,208.234375 C48.6471273,208.234375 47.4671261,207.767257 46.5849602,206.833008 C45.7027943,205.898758 45.261718,204.660164 45.261718,203.117188 C45.261718,201.437492 45.7206978,200.125656 46.6386711,199.181641 C47.5566445,198.237625 48.7968664,197.765625 50.3593743,197.765625 C51.8502671,197.765625 53.0139925,198.224605 53.8505852,199.142578 C54.6871779,200.060551 55.105468,201.333325 55.105468,202.960938 C55.105468,204.555998 54.6546262,205.833654 53.7529289,206.793945 C52.8512317,207.754237 51.6419339,208.234375 50.1249993,208.234375 Z M50.2421868,199.113281 C49.2135358,199.113281 48.3997418,199.463213 47.8007805,200.163086 C47.2018192,200.862959 46.902343,201.828119 46.902343,203.058594 C46.902343,204.243496 47.2050744,205.177731 47.8105461,205.861328 C48.4160179,206.544925 49.2265567,206.886719 50.2421868,206.886719 C51.2773482,206.886719 52.0732387,206.551436 52.6298821,205.880859 C53.1865255,205.210283 53.464843,204.256517 53.464843,203.019531 C53.464843,201.769525 53.1865255,200.805993 52.6298821,200.128906 C52.0732387,199.45182 51.2773482,199.113281 50.2421868,199.113281 Z M66.2499993,208 L64.6484368,208 L64.6484368,206.417969 L64.6093743,206.417969 C63.9453085,207.628912 62.9166729,208.234375 61.5234368,208.234375 C59.1406124,208.234375 57.9492181,206.815118 57.9492181,203.976562 L57.9492181,198 L59.5410149,198 L59.5410149,203.722656 C59.5410149,205.832042 60.3482985,206.886719 61.9628899,206.886719 C62.7441438,206.886719 63.3870411,206.598636 63.8916009,206.022461 C64.3961607,205.446286 64.6484368,204.692713 64.6484368,203.761719 L64.6484368,198 L66.2499993,198 L66.2499993,208 Z M75.197265,199.621094 C74.9173157,199.406249 74.5136739,199.298828 73.9863275,199.298828 C73.3027303,199.298828 72.731447,199.621091 72.2724603,200.265625 C71.8134736,200.910159 71.5839837,201.789057 71.5839837,202.902344 L71.5839837,208 L69.9824212,208 L69.9824212,198 L71.5839837,198 L71.5839837,200.060547 L71.6230462,200.060547 C71.850912,199.357418 72.1992158,198.808921 72.6679681,198.415039 C73.1367205,198.021157 73.6608038,197.824219 74.2402337,197.824219 C74.6569025,197.824219 74.9759097,197.869791 75.197265,197.960938 L75.197265,199.621094 Z M88.6289057,199.621094 C88.3489564,199.406249 87.9453146,199.298828 87.4179682,199.298828 C86.7343711,199.298828 86.1630877,199.621091 85.7041011,200.265625 C85.2451144,200.910159 85.0156245,201.789057 85.0156245,202.902344 L85.0156245,208 L83.414062,208 L83.414062,198 L85.0156245,198 L85.0156245,200.060547 L85.054687,200.060547 C85.2825527,199.357418 85.6308565,198.808921 86.0996089,198.415039 C86.5683612,198.021157 87.0924445,197.824219 87.6718745,197.824219 C88.0885432,197.824219 88.4075505,197.869791 88.6289057,197.960938 L88.6289057,199.621094 Z M98.6406246,203.400391 L91.5800777,203.400391 C91.6061195,204.513677 91.9055956,205.373044 92.4785152,205.978516 C93.0514347,206.583987 93.8391872,206.886719 94.8417964,206.886719 C95.9681041,206.886719 97.00325,206.515629 97.9472652,205.773438 L97.9472652,207.277344 C97.0683545,207.915368 95.9062568,208.234375 94.4609371,208.234375 C93.0481696,208.234375 91.9381546,207.780278 91.1308589,206.87207 C90.3235632,205.963863 89.9199214,204.686206 89.9199214,203.039062 C89.9199214,201.483065 90.3609977,200.215174 91.2431636,199.235352 C92.1253295,198.255529 93.2206961,197.765625 94.5292964,197.765625 C95.8378967,197.765625 96.8502564,198.188798 97.5664058,199.035156 C98.2825552,199.881515 98.6406246,201.056633 98.6406246,202.560547 L98.6406246,203.400391 Z M96.9999996,202.042969 C96.9934891,201.118485 96.7705096,200.399091 96.3310542,199.884766 C95.8915989,199.37044 95.2812535,199.113281 94.4999996,199.113281 C93.7447874,199.113281 93.1035178,199.383461 92.5761714,199.923828 C92.048825,200.464195 91.7233075,201.170569 91.5996089,202.042969 L96.9999996,202.042969 Z M103.203125,206.554688 L103.164062,206.554688 L103.164062,212.599609 L101.5625,212.599609 L101.5625,198 L103.164062,198 L103.164062,199.757812 L103.203125,199.757812 C103.990889,198.429681 105.143221,197.765625 106.660156,197.765625 C107.949225,197.765625 108.955074,198.213212 109.677734,199.108398 C110.400394,200.003585 110.761718,201.203117 110.761718,202.707031 C110.761718,204.380217 110.354821,205.719722 109.541015,206.725586 C108.727209,207.73145 107.613939,208.234375 106.201171,208.234375 C104.905592,208.234375 103.906253,207.674485 103.203125,206.554688 Z M103.164062,202.521484 L103.164062,203.917969 C103.164062,204.744796 103.432614,205.446286 103.969726,206.022461 C104.506838,206.598636 105.188798,206.886719 106.015625,206.886719 C106.985682,206.886719 107.745765,206.515629 108.295898,205.773438 C108.846031,205.031246 109.121093,203.999356 109.121093,202.677734 C109.121093,201.564448 108.863934,200.69206 108.349609,200.060547 C107.835283,199.429033 107.138676,199.113281 106.259765,199.113281 C105.328771,199.113281 104.580081,199.437171 104.013671,200.084961 C103.447262,200.732751 103.164062,201.544917 103.164062,202.521484 Z M118,208.234375 C116.522128,208.234375 115.342126,207.767257 114.459961,206.833008 C113.577795,205.898758 113.136718,204.660164 113.136718,203.117188 C113.136718,201.437492 113.595698,200.125656 114.513672,199.181641 C115.431645,198.237625 116.671867,197.765625 118.234375,197.765625 C119.725268,197.765625 120.888993,198.224605 121.725586,199.142578 C122.562178,200.060551 122.980468,201.333325 122.980468,202.960938 C122.980468,204.555998 122.529627,205.833654 121.627929,206.793945 C120.726232,207.754237 119.516934,208.234375 118,208.234375 Z M118.117187,199.113281 C117.088536,199.113281 116.274742,199.463213 115.675781,200.163086 C115.07682,200.862959 114.777343,201.828119 114.777343,203.058594 C114.777343,204.243496 115.080075,205.177731 115.685547,205.861328 C116.291018,206.544925 117.101557,206.886719 118.117187,206.886719 C119.152349,206.886719 119.948239,206.551436 120.504882,205.880859 C121.061526,205.210283 121.339843,204.256517 121.339843,203.019531 C121.339843,201.769525 121.061526,200.805993 120.504882,200.128906 C119.948239,199.45182 119.152349,199.113281 118.117187,199.113281 Z M125.433593,207.638672 L125.433593,205.919922 C126.305994,206.564456 127.266271,206.886719 128.314453,206.886719 C129.72071,206.886719 130.423828,206.417973 130.423828,205.480469 C130.423828,205.21354 130.363607,204.987306 130.243164,204.801758 C130.12272,204.61621 129.959962,204.451824 129.754883,204.308594 C129.549803,204.165364 129.30892,204.036784 129.032226,203.922852 C128.755532,203.808919 128.457684,203.690105 128.138672,203.566406 C127.695961,203.390624 127.306968,203.213217 126.971679,203.03418 C126.636391,202.855142 126.356446,202.653321 126.131836,202.428711 C125.907225,202.2041 125.737956,201.948569 125.624023,201.662109 C125.51009,201.37565 125.453125,201.040367 125.453125,200.65625 C125.453125,200.187498 125.560546,199.772463 125.77539,199.411133 C125.990235,199.049803 126.276691,198.747072 126.634765,198.50293 C126.99284,198.258788 127.401365,198.07487 127.860351,197.951172 C128.319338,197.827473 128.792966,197.765625 129.28125,197.765625 C130.147139,197.765625 130.921871,197.915363 131.605468,198.214844 L131.605468,199.835938 C130.869788,199.354164 130.023442,199.113281 129.066406,199.113281 C128.766925,199.113281 128.496746,199.147461 128.255859,199.21582 C128.014972,199.28418 127.808269,199.380208 127.635742,199.503906 C127.463215,199.627605 127.329753,199.775715 127.235351,199.948242 C127.14095,200.120769 127.09375,200.311197 127.09375,200.519531 C127.09375,200.779949 127.14095,200.998046 127.235351,201.173828 C127.329753,201.34961 127.468098,201.505859 127.65039,201.642578 C127.832683,201.779298 128.054035,201.902994 128.314453,202.013672 C128.574871,202.12435 128.871092,202.244791 129.203125,202.375 C129.645835,202.544272 130.042967,202.718424 130.394531,202.897461 C130.746095,203.076498 131.045571,203.278319 131.292968,203.50293 C131.540366,203.72754 131.730793,203.986327 131.864258,204.279297 C131.997722,204.572267 132.064453,204.920571 132.064453,205.324219 C132.064453,205.819013 131.955404,206.248696 131.737304,206.613281 C131.519204,206.977866 131.227866,207.280598 130.863281,207.521484 C130.498696,207.762371 130.078778,207.941406 129.603515,208.058594 C129.128253,208.175782 128.630211,208.234375 128.109375,208.234375 C127.080724,208.234375 126.188806,208.035809 125.433593,207.638672 Z M135.845703,195.460938 C135.559243,195.460938 135.315105,195.363282 135.113281,195.167969 C134.911457,194.972655 134.810547,194.725262 134.810547,194.425781 C134.810547,194.126301 134.911457,193.87728 135.113281,193.678711 C135.315105,193.480142 135.559243,193.380859 135.845703,193.380859 C136.138673,193.380859 136.387694,193.480142 136.592773,193.678711 C136.797852,193.87728 136.90039,194.126301 136.90039,194.425781 C136.90039,194.712241 136.797852,194.956379 136.592773,195.158203 C136.387694,195.360027 136.138673,195.460938 135.845703,195.460938 Z M136.626953,208 L135.02539,208 L135.02539,198 L136.626953,198 L136.626953,208 Z M145.007812,207.902344 C144.630206,208.110678 144.132164,208.214844 143.513672,208.214844 C141.762361,208.214844 140.886719,207.238291 140.886719,205.285156 L140.886719,199.367188 L139.167969,199.367188 L139.167969,198 L140.886719,198 L140.886719,195.558594 L142.488281,195.041016 L142.488281,198 L145.007812,198 L145.007812,199.367188 L142.488281,199.367188 L142.488281,205.001953 C142.488281,205.672529 142.602212,206.15104 142.830078,206.4375 C143.057944,206.72396 143.435544,206.867188 143.96289,206.867188 C144.366538,206.867188 144.714842,206.756512 145.007812,206.535156 L145.007812,207.902344 Z M151.669922,208.234375 C150.19205,208.234375 149.012049,207.767257 148.129883,206.833008 C147.247717,205.898758 146.806641,204.660164 146.806641,203.117188 C146.806641,201.437492 147.26562,200.125656 148.183594,199.181641 C149.101567,198.237625 150.341789,197.765625 151.904297,197.765625 C153.39519,197.765625 154.558915,198.224605 155.395508,199.142578 C156.2321,200.060551 156.650391,201.333325 156.650391,202.960938 C156.650391,204.555998 156.199549,205.833654 155.297851,206.793945 C154.396154,207.754237 153.186856,208.234375 151.669922,208.234375 Z M151.787109,199.113281 C150.758458,199.113281 149.944664,199.463213 149.345703,200.163086 C148.746742,200.862959 148.447266,201.828119 148.447266,203.058594 C148.447266,204.243496 148.749997,205.177731 149.355469,205.861328 C149.96094,206.544925 150.771479,206.886719 151.787109,206.886719 C152.822271,206.886719 153.618161,206.551436 154.174805,205.880859 C154.731448,205.210283 155.009766,204.256517 155.009766,203.019531 C155.009766,201.769525 154.731448,200.805993 154.174805,200.128906 C153.618161,199.45182 152.822271,199.113281 151.787109,199.113281 Z M164.923828,199.621094 C164.643879,199.406249 164.240237,199.298828 163.712891,199.298828 C163.029293,199.298828 162.45801,199.621091 161.999023,200.265625 C161.540037,200.910159 161.310547,201.789057 161.310547,202.902344 L161.310547,208 L159.708984,208 L159.708984,198 L161.310547,198 L161.310547,200.060547 L161.349609,200.060547 C161.577475,199.357418 161.925779,198.808921 162.394531,198.415039 C162.863284,198.021157 163.387367,197.824219 163.966797,197.824219 C164.383466,197.824219 164.702473,197.869791 164.923828,197.960938 L164.923828,199.621094 Z M175.921875,198 L171.322266,209.601562 C170.501949,211.671885 169.349617,212.707031 167.865234,212.707031 C167.448566,212.707031 167.100262,212.664714 166.820313,212.580078 L166.820313,211.144531 C167.165366,211.261719 167.481118,211.320312 167.767578,211.320312 C168.574874,211.320312 169.180337,210.838546 169.583984,209.875 L170.384766,207.980469 L166.478516,198 L168.255859,198 L170.960938,205.695312 C170.99349,205.792969 171.061848,206.046873 171.166016,206.457031 L171.224609,206.457031 C171.257162,206.30078 171.322265,206.053387 171.419922,205.714844 L174.261719,198 L175.921875,198 Z M184.939453,195.460938 C184.652994,195.460938 184.408855,195.363282 184.207031,195.167969 C184.005207,194.972655 183.904297,194.725262 183.904297,194.425781 C183.904297,194.126301 184.005207,193.87728 184.207031,193.678711 C184.408855,193.480142 184.652994,193.380859 184.939453,193.380859 C185.232423,193.380859 185.481444,193.480142 185.686524,193.678711 C185.891603,193.87728 185.994141,194.126301 185.994141,194.425781 C185.994141,194.712241 185.891603,194.956379 185.686524,195.158203 C185.481444,195.360027 185.232423,195.460938 184.939453,195.460938 Z M185.720703,208 L184.119141,208 L184.119141,198 L185.720703,198 L185.720703,208 Z M188.857422,207.638672 L188.857422,205.919922 C189.729822,206.564456 190.690099,206.886719 191.738281,206.886719 C193.144538,206.886719 193.847656,206.417973 193.847656,205.480469 C193.847656,205.21354 193.787436,204.987306 193.666992,204.801758 C193.546549,204.61621 193.38379,204.451824 193.178711,204.308594 C192.973632,204.165364 192.732749,204.036784 192.456055,203.922852 C192.179361,203.808919 191.881512,203.690105 191.5625,203.566406 C191.11979,203.390624 190.730796,203.213217 190.395508,203.03418 C190.06022,202.855142 189.780275,202.653321 189.555664,202.428711 C189.331054,202.2041 189.161785,201.948569 189.047852,201.662109 C188.933919,201.37565 188.876953,201.040367 188.876953,200.65625 C188.876953,200.187498 188.984374,199.772463 189.199219,199.411133 C189.414064,199.049803 189.700519,198.747072 190.058594,198.50293 C190.416669,198.258788 190.825193,198.07487 191.28418,197.951172 C191.743167,197.827473 192.216795,197.765625 192.705078,197.765625 C193.570968,197.765625 194.3457,197.915363 195.029297,198.214844 L195.029297,199.835938 C194.293616,199.354164 193.447271,199.113281 192.490235,199.113281 C192.190754,199.113281 191.920574,199.147461 191.679688,199.21582 C191.438801,199.28418 191.232097,199.380208 191.059571,199.503906 C190.887044,199.627605 190.753581,199.775715 190.65918,199.948242 C190.564778,200.120769 190.517578,200.311197 190.517578,200.519531 C190.517578,200.779949 190.564778,200.998046 190.65918,201.173828 C190.753581,201.34961 190.891926,201.505859 191.074219,201.642578 C191.256512,201.779298 191.477863,201.902994 191.738281,202.013672 C191.998699,202.12435 192.29492,202.244791 192.626953,202.375 C193.069664,202.544272 193.466795,202.718424 193.81836,202.897461 C194.169924,203.076498 194.4694,203.278319 194.716797,203.50293 C194.964194,203.72754 195.154622,203.986327 195.288086,204.279297 C195.42155,204.572267 195.488281,204.920571 195.488281,205.324219 C195.488281,205.819013 195.379233,206.248696 195.161133,206.613281 C194.943033,206.977866 194.651695,207.280598 194.28711,207.521484 C193.922524,207.762371 193.502607,207.941406 193.027344,208.058594 C192.552081,208.175782 192.054039,208.234375 191.533203,208.234375 C190.504552,208.234375 189.612634,208.035809 188.857422,207.638672 Z M212.464844,203.400391 L205.404297,203.400391 C205.430339,204.513677 205.729815,205.373044 206.302735,205.978516 C206.875654,206.583987 207.663407,206.886719 208.666016,206.886719 C209.792324,206.886719 210.82747,206.515629 211.771485,205.773438 L211.771485,207.277344 C210.892574,207.915368 209.730476,208.234375 208.285157,208.234375 C206.872389,208.234375 205.762374,207.780278 204.955078,206.87207 C204.147783,205.963863 203.744141,204.686206 203.744141,203.039062 C203.744141,201.483065 204.185217,200.215174 205.067383,199.235352 C205.949549,198.255529 207.044916,197.765625 208.353516,197.765625 C209.662116,197.765625 210.674476,198.188798 211.390625,199.035156 C212.106775,199.881515 212.464844,201.056633 212.464844,202.560547 L212.464844,203.400391 Z M210.824219,202.042969 C210.817709,201.118485 210.594729,200.399091 210.155274,199.884766 C209.715818,199.37044 209.105473,199.113281 208.324219,199.113281 C207.569007,199.113281 206.927737,199.383461 206.400391,199.923828 C205.873045,200.464195 205.547527,201.170569 205.423828,202.042969 L210.824219,202.042969 Z M229.585938,208 L227.984375,208 L227.984375,202.257812 C227.984375,201.151036 227.813479,200.350263 227.47168,199.855469 C227.129881,199.360675 226.555343,199.113281 225.748047,199.113281 C225.06445,199.113281 224.483401,199.425778 224.004883,200.050781 C223.526365,200.675784 223.28711,201.424475 223.28711,202.296875 L223.28711,208 L221.685547,208 L221.685547,202.0625 C221.685547,200.096344 220.927091,199.113281 219.410157,199.113281 C218.707028,199.113281 218.127607,199.407875 217.671875,199.99707 C217.216144,200.586266 216.988282,201.35286 216.988282,202.296875 L216.988282,208 L215.386719,208 L215.386719,198 L216.988282,198 L216.988282,199.582031 L217.027344,199.582031 C217.736983,198.371088 218.772129,197.765625 220.132813,197.765625 C220.81641,197.765625 221.412107,197.956053 221.919922,198.336914 C222.427737,198.717775 222.776041,199.217445 222.964844,199.835938 C223.707035,198.455722 224.813795,197.765625 226.285157,197.765625 C228.485688,197.765625 229.585938,199.123033 229.585938,201.837891 L229.585938,208 Z M234.753907,206.554688 L234.714844,206.554688 L234.714844,212.599609 L233.113282,212.599609 L233.113282,198 L234.714844,198 L234.714844,199.757812 L234.753907,199.757812 C235.541671,198.429681 236.694003,197.765625 238.210938,197.765625 C239.500007,197.765625 240.505856,198.213212 241.228516,199.108398 C241.951176,200.003585 242.3125,201.203117 242.3125,202.707031 C242.3125,204.380217 241.905603,205.719722 241.091797,206.725586 C240.277991,207.73145 239.164721,208.234375 237.751954,208.234375 C236.456374,208.234375 235.457035,207.674485 234.753907,206.554688 Z M234.714844,202.521484 L234.714844,203.917969 C234.714844,204.744796 234.983396,205.446286 235.520508,206.022461 C236.05762,206.598636 236.73958,206.886719 237.566407,206.886719 C238.536464,206.886719 239.296547,206.515629 239.84668,205.773438 C240.396813,205.031246 240.671875,203.999356 240.671875,202.677734 C240.671875,201.564448 240.414717,200.69206 239.900391,200.060547 C239.386066,199.429033 238.689458,199.113281 237.810547,199.113281 C236.879553,199.113281 236.130863,199.437171 235.564454,200.084961 C234.998044,200.732751 234.714844,201.544917 234.714844,202.521484 Z M250.009766,207.902344 C249.63216,208.110678 249.134118,208.214844 248.515626,208.214844 C246.764315,208.214844 245.888672,207.238291 245.888672,205.285156 L245.888672,199.367188 L244.169922,199.367188 L244.169922,198 L245.888672,198 L245.888672,195.558594 L247.490235,195.041016 L247.490235,198 L250.009766,198 L250.009766,199.367188 L247.490235,199.367188 L247.490235,205.001953 C247.490235,205.672529 247.604166,206.15104 247.832032,206.4375 C248.059897,206.72396 248.437498,206.867188 248.964844,206.867188 C249.368492,206.867188 249.716796,206.756512 250.009766,206.535156 L250.009766,207.902344 Z M260.607422,198 L256.007813,209.601562 C255.187496,211.671885 254.035164,212.707031 252.550782,212.707031 C252.134113,212.707031 251.785809,212.664714 251.50586,212.580078 L251.50586,211.144531 C251.850914,211.261719 252.166666,211.320312 252.453126,211.320312 C253.260421,211.320312 253.865884,210.838546 254.269532,209.875 L255.070313,207.980469 L251.164063,198 L252.941407,198 L255.646485,205.695312 C255.679037,205.792969 255.747396,206.046873 255.851563,206.457031 L255.910157,206.457031 C255.942709,206.30078 256.007813,206.053387 256.105469,205.714844 L258.947266,198 L260.607422,198 Z M262.142579,208.214844 C261.843098,208.214844 261.587567,208.107423 261.375977,207.892578 C261.164388,207.677733 261.058594,207.420574 261.058594,207.121094 C261.058594,206.821613 261.164388,206.562827 261.375977,206.344727 C261.587567,206.126627 261.843098,206.017578 262.142579,206.017578 C262.44857,206.017578 262.708984,206.126627 262.923829,206.344727 C263.138674,206.562827 263.246094,206.821613 263.246094,207.121094 C263.246094,207.420574 263.138674,207.677733 262.923829,207.892578 C262.708984,208.107423 262.44857,208.214844 262.142579,208.214844 Z M266.978516,208.214844 C266.679036,208.214844 266.423504,208.107423 266.211915,207.892578 C266.000325,207.677733 265.894532,207.420574 265.894532,207.121094 C265.894532,206.821613 266.000325,206.562827 266.211915,206.344727 C266.423504,206.126627 266.679036,206.017578 266.978516,206.017578 C267.284507,206.017578 267.544921,206.126627 267.759766,206.344727 C267.974611,206.562827 268.082032,206.821613 268.082032,207.121094 C268.082032,207.420574 267.974611,207.677733 267.759766,207.892578 C267.544921,208.107423 267.284507,208.214844 266.978516,208.214844 Z M271.814454,208.214844 C271.514973,208.214844 271.259442,208.107423 271.047852,207.892578 C270.836263,207.677733 270.730469,207.420574 270.730469,207.121094 C270.730469,206.821613 270.836263,206.562827 271.047852,206.344727 C271.259442,206.126627 271.514973,206.017578 271.814454,206.017578 C272.120445,206.017578 272.380859,206.126627 272.595704,206.344727 C272.810549,206.562827 272.917969,206.821613 272.917969,207.121094 C272.917969,207.420574 272.810549,207.677733 272.595704,207.892578 C272.380859,208.107423 272.120445,208.214844 271.814454,208.214844 Z" opacity=".8"/>
    <g transform="translate(90 28)">
      <path fill="#252527" d="M22.6120839,90.4014836 C17.2285223,91.5683195 16.3549947,91.4912126 9.88089129,95.9393076 C-16.3110764,113.934751 15.9104328,129.301388 33.3645214,133.218529 C54.6824077,138.002804 80.3056676,140.319486 101.238282,132.054975 C109.348295,128.85302 124.503308,122.389843 126.049663,111.874808 C126.051235,111.864116 126.694854,104.885657 125.190429,103.573256 C120.329094,99.332417 115.234736,95.318327 109.803734,91.8484374 C108.075933,90.7445381 105.898472,90.6161458 103.945841,90"/>
      <g transform="translate(4)">
        <path fill="#2D2D30" d="M31.3390625,95.2226563 C36.14375,95.2226563 41.1544271,95.2226563 46.3710937,95.2226563 C51.5877604,95.2226563 57.3513021,94.4192708 63.6617187,92.8125 C63.0768229,97.8489583 63.9760417,101.834375 66.359375,104.76875 C69.934375,109.170313 75.3304687,109.364844 79.871875,109.170313 C84.4132812,108.975781 90.90625,104.125 92.3039062,98.46875 C93.7015625,92.8125 96.1039062,79.275 95.4351562,68.7070313 C94.7664062,58.1390625 95.3515625,37.16875 96.9570312,32.3867188 C98.5625,27.6046875 100.475,20.1398437 102.561719,18.1210938 C103.952865,16.7752604 105.902344,16.1023438 108.410156,16.1023438 C88.6226562,16.1023438 78.025,16.1023438 76.6171875,16.1023438 C75.209375,16.1023438 69.7208333,16.1023438 60.1515625,16.1023438 C54.1510417,5.78307292 45.8744792,0.484375 35.321875,0.20625 C19.4929687,-0.2109375 -0.2984375,15.3796875 0.48984375,32.3867188 C1.278125,49.39375 12.821875,63.2140625 28.1289062,63.5789063 C33.2742188,63.5789063 33.0630432,62.422483 33.303125,64.7890625 C34.6681213,78.244358 33.303125,75.7289063 33.303125,81.715625 C33.303125,85.7067708 32.6484375,90.2091146 31.3390625,95.2226563 Z"/>
        <path fill="#252527" d="M98 32.4119894C101.61875 32.4119894 105.720052 32.4119894 110.303906 32.4119894 114.88776 32.4119894 119.466406 32.7609477 124.039844 33.4588644 120.636719 22.7463644 116.6125 17.2773539 111.967187 17.0518331 104.999219 16.7135519 102.064844 17.9658956 100.489844 22.7416769 99.4398437 25.925531 98.6098958 29.1489685 98 32.4119894zM33.4867188 64.528125L33.4867188 72.778125C44.3976563 74.2109375 53.4322917 71.4609375 60.590625 64.528125 71.328125 54.1289062 69.9875 40.2046875 69.9 35.7382812 69.8416667 32.7606771 67.515625 26.29375 62.921875 16.3375 65.9332095 30.6626792 64.8678729 41.6931384 59.7258654 49.4288775 54.5838579 57.1646165 45.8374756 62.197699 33.4867188 64.528125zM3.75859375 95.6375C4.19244792 100.936979 5.49635417 104.451823 7.6703125 106.182031 10.93125 108.777344 19.5757812 112.504687 27.1984375 113.070312 34.8210937 113.635938 43.484375 114.201563 56.9695312 113.635938 65.9596354 113.258854 73.5973958 112.08724 79.8828125 110.121094 72.5572917 110.279891 68.1346354 108.490814 66.6148437 104.753864 65.0950521 101.016913 64.3351562 97.4145833 64.3351562 93.946875 52.5867187 95.0739583 42.7736979 95.6375 34.8960937 95.6375 27.0184896 95.6375 16.6393229 95.6375 3.75859375 95.6375z"/>
        <path fill="#2D2D30" d="M32.8991668,0.499787626 C10.4221454,2.54605606 2.0550589,17.2713162 0.855102384,32.1845253 C-0.297723351,46.5119872 10.2499795,60.9682243 26.1595606,63.5654588 C69.4847471,70.6382827 82.1154519,6.21211458 36.4688341,0.499787626 L32.8991668,0.499787626 Z"/>
        <path fill="#252527" d="M9.13698731,53.4341771 C5.66013939,38.0870873 7.00899574,26.689605 13.1835564,19.2417301 C22.4453973,8.06991778 35.2919487,3.16618524 38.9036249,2.49720757 C42.5153011,1.8282299 25.3565402,-1.70886043 17.2467638,4.52307391 C9.13698731,10.7550083 2.27681065,20.5739481 1.39210776,28.9872316 C0.507404872,37.400515 2.67096816,46.018049 4.24874568,48.0267032 C5.30059736,49.365806 6.93001124,51.1682973 9.13698731,53.4341771 Z"/>
        <path stroke="#81BFF1" stroke-width="1.5" d="M32.8991668.499787626C10.4221454 2.54605606 2.0550589 17.2713162.855102384 32.1845253-.297723351 46.5119872 10.2499795 60.9682243 26.1595606 63.5654588 69.4847471 70.6382827 82.1154519 6.21211458 36.4688341.499787626L32.8991668.499787626zM3 95.3813275C48.9317014 95.8597633 28.4731707 97.2744782 64.4760537 93" stroke-linecap="round" stroke-linejoin="round"/>
        <path stroke="#81BFF1" stroke-width="1.5" d="M33.2973458 65.5486072C33.1170133 69.6962562 33.6039792 74.7315452 33.2973458 79.1889914 32.9295592 84.535407 31.7635675 89.3152774 31.5472704 94.2901114M63.8393818 94.5025751C62.931358 113.496878 85.6088321 113.983082 90.4135715 102.038539 95.1157996 90.3488392 94.7260926 80.086371 94.7603512 70.539188 94.8181667 54.4271413 93.3646558 40.1972077 99.8273319 23.4530014 101.186056 19.93267 103.08355 13.9400142 113.080941 17.5439195 119.277111 19.7775437 121.342611 28.3774506 122.935657 32.6283424M62.6463941 16.7616052C69.5621596 16.6029468 75.3011961 16.8580412 82.2795641 16.3665248 85.365601 16.149162 91.778814 16.149162 101.519203 16.3665248" stroke-linecap="round" stroke-linejoin="round"/>
        <path stroke="#81BFF1" stroke-width="1.5" d="M3.55011858 96.0890939C5.40105717 99.7909711 6.13858577 104.306386 9.10293434 107.194725 19.2758659 117.106813 58.2079979 113.021427 66.21916 112.747541 71.00521 112.583916 76.9404705 109.795312 80.4978291 111.161022M98.7412458 31.835083C106.464717 31.0698434 112.016435 30.9368801 123.330738 33.4200525" stroke-linecap="round" stroke-linejoin="round"/>
        <g fill-rule="nonzero" transform="translate(20 18)">
          <path fill="#252527" d="M14.3931376,11.8393224 L14.7334055,11.7258998 L17.9141074,12.9486545 L18.0534406,13.0149737 C18.1104197,13.0477095 18.1667054,13.0805367 18.2222981,13.1134565 C20.2151895,11.3670513 21.0941706,10.6104407 22.2264182,9.66657331 C22.8756358,9.12537075 23.1672964,8.83985357 23.7446811,8.18749234 C24.4376641,7.40452178 24.8523664,6.99856618 25.6427372,6.33969515 C26.3851161,5.72083121 27.4886214,5.82095987 28.1074854,6.56333876 C28.7263493,7.30571766 28.6262206,8.409223 27.8838417,9.02808693 C27.2346241,9.56928949 26.9429636,9.85480667 26.3655789,10.5071679 C25.6725959,11.2901385 25.2578935,11.6960941 24.4675228,12.3549651 C23.4314927,13.2186234 22.6090283,13.9248333 20.8889415,15.4305208 C22.3039104,17.5123601 21.5635707,19.8254303 18.9006235,22.0184456 C16.8473785,23.7093533 13.3082217,23.4412395 10.6471748,21.7367769 C7.69306272,19.8445991 6.81343538,16.7852657 9.1865585,14.0855105 C9.26256793,13.9990393 9.33801998,13.9165663 9.41312665,13.837906 C5.11165337,9.40526957 3.15869455,7.23745891 0.635561825,4.09581407 C0.030360428,3.34225567 0.150627538,2.24076322 0.904185934,1.63556183 C1.65774433,1.03036043 2.75923678,1.15062754 3.36443817,1.90418593 C5.95705133,5.1323434 7.92180191,7.29253067 12.7448548,12.2437344 C13.5700992,12.0918782 13.8209564,12.0300495 14.3931376,11.8393224 Z"/>
          <path fill="#81BFF1" d="M11.400585,11.3234306 C11.3035679,11.2238043 11.2042408,11.1218394 11.1024756,11.0174005 C6.42604093,6.21810849 4.32290121,3.93972615 1.58475922,0.5303654 C1.32538719,0.207411802 0.853318998,0.155868755 0.5303654,0.415240782 C0.207411802,0.67461281 0.155868755,1.146681 0.415240782,1.4696346 C3.15977501,4.88695455 5.2706009,7.17880374 9.86570018,11.89745 C9.57371149,12.0953576 9.27190723,12.3654448 8.93763911,12.745721 C4.70796792,17.5575559 13.7219565,22.1642469 17.2649162,19.2465154 C19.8725154,17.0990808 20.2842609,15.1228698 18.5001528,13.3178824 C18.5053063,13.3133627 18.5104668,13.3088369 18.5156341,13.3043051 C20.6457115,11.4361774 21.6006708,10.6093218 22.8272072,9.58685315 C23.6098586,8.93441711 23.9873335,8.55555417 24.616751,7.84440345 C25.199954,7.18546838 25.5266013,6.85761988 26.2435262,6.25997499 C26.5616885,5.99474759 26.6046008,5.52181673 26.3393734,5.20365435 C26.074146,4.88549197 25.6012152,4.84257968 25.2830528,5.10780708 C24.5004013,5.76024313 24.1229265,6.13910607 23.493509,6.85025679 C22.910306,7.50919185 22.5836587,7.83704036 21.8667338,8.43468525 C20.6274103,9.46781351 19.6660253,10.3002328 17.5265854,12.1765716 C17.4564932,12.2380441 17.3876735,12.2983891 17.3200746,12.3576507 C17.0836356,12.1976779 16.828704,12.0391471 16.5552797,11.8820583 L13.7093654,10.7880057 C12.7338223,11.1131868 12.0151721,11.206167 11.400585,11.3234306 Z"/>
        </g>
      </g>
    </g>
  </g>
</svg>
