<svg xmlns="http://www.w3.org/2000/svg" width="308" height="240" viewBox="0 0 308 240">
  <g fill="none" fill-rule="evenodd">
    <rect width="308" height="241"/>
    <g transform="translate(32 28)">
      <path fill="#000000" d="M13.4648429,165.996094 L8.84570232,174.824219 L8.84570232,180 L7.20507732,180 L7.20507732,174.863281 L2.7031242,165.996094 L4.56835857,165.996094 L7.7031242,172.324219 C7.74218689,172.402344 7.85611804,172.6888 8.04492107,173.183594 L8.07421795,173.183594 C8.13932244,172.962238 8.26301912,172.675783 8.4453117,172.324219 L11.7265617,165.996094 L13.4648429,165.996094 Z M18.1249993,180.234375 C16.6471273,180.234375 15.4671261,179.767257 14.5849602,178.833008 C13.7027943,177.898758 13.261718,176.660164 13.261718,175.117188 C13.261718,173.437492 13.7206978,172.125656 14.6386711,171.181641 C15.5566445,170.237625 16.7968664,169.765625 18.3593743,169.765625 C19.8502671,169.765625 21.0139925,170.224605 21.8505852,171.142578 C22.6871779,172.060551 23.105468,173.333325 23.105468,174.960938 C23.105468,176.555998 22.6546262,177.833654 21.7529289,178.793945 C20.8512317,179.754237 19.6419339,180.234375 18.1249993,180.234375 Z M18.2421868,171.113281 C17.2135358,171.113281 16.3997418,171.463213 15.8007805,172.163086 C15.2018192,172.862959 14.902343,173.828119 14.902343,175.058594 C14.902343,176.243496 15.2050744,177.177731 15.8105461,177.861328 C16.4160179,178.544925 17.2265567,178.886719 18.2421868,178.886719 C19.2773482,178.886719 20.0732387,178.551436 20.6298821,177.880859 C21.1865255,177.210283 21.464843,176.256517 21.464843,175.019531 C21.464843,173.769525 21.1865255,172.805993 20.6298821,172.128906 C20.0732387,171.45182 19.2773482,171.113281 18.2421868,171.113281 Z M34.2499993,180 L32.6484368,180 L32.6484368,178.417969 L32.6093743,178.417969 C31.9453085,179.628912 30.9166729,180.234375 29.5234368,180.234375 C27.1406124,180.234375 25.9492181,178.815118 25.9492181,175.976562 L25.9492181,170 L27.5410149,170 L27.5410149,175.722656 C27.5410149,177.832042 28.3482985,178.886719 29.9628899,178.886719 C30.7441438,178.886719 31.3870411,178.598636 31.8916009,178.022461 C32.3961607,177.446286 32.6484368,176.692713 32.6484368,175.761719 L32.6484368,170 L34.2499993,170 L34.2499993,180 Z M43.197265,171.621094 C42.9173157,171.406249 42.5136739,171.298828 41.9863275,171.298828 C41.3027303,171.298828 40.731447,171.621091 40.2724603,172.265625 C39.8134736,172.910159 39.5839837,173.789057 39.5839837,174.902344 L39.5839837,180 L37.9824212,180 L37.9824212,170 L39.5839837,170 L39.5839837,172.060547 L39.6230462,172.060547 C39.850912,171.357418 40.1992158,170.808921 40.6679681,170.415039 C41.1367205,170.021157 41.6608038,169.824219 42.2402337,169.824219 C42.6569025,169.824219 42.9759097,169.869791 43.197265,169.960938 L43.197265,171.621094 Z M56.6289057,171.621094 C56.3489564,171.406249 55.9453146,171.298828 55.4179682,171.298828 C54.7343711,171.298828 54.1630877,171.621091 53.7041011,172.265625 C53.2451144,172.910159 53.0156245,173.789057 53.0156245,174.902344 L53.0156245,180 L51.414062,180 L51.414062,170 L53.0156245,170 L53.0156245,172.060547 L53.054687,172.060547 C53.2825527,171.357418 53.6308565,170.808921 54.0996089,170.415039 C54.5683612,170.021157 55.0924445,169.824219 55.6718745,169.824219 C56.0885432,169.824219 56.4075505,169.869791 56.6289057,169.960938 L56.6289057,171.621094 Z M66.6406246,175.400391 L59.5800777,175.400391 C59.6061195,176.513677 59.9055956,177.373044 60.4785152,177.978516 C61.0514347,178.583987 61.8391872,178.886719 62.8417964,178.886719 C63.9681041,178.886719 65.00325,178.515629 65.9472652,177.773438 L65.9472652,179.277344 C65.0683545,179.915368 63.9062568,180.234375 62.4609371,180.234375 C61.0481696,180.234375 59.9381546,179.780278 59.1308589,178.87207 C58.3235632,177.963863 57.9199214,176.686206 57.9199214,175.039062 C57.9199214,173.483065 58.3609977,172.215174 59.2431636,171.235352 C60.1253295,170.255529 61.2206961,169.765625 62.5292964,169.765625 C63.8378967,169.765625 64.8502564,170.188798 65.5664058,171.035156 C66.2825552,171.881515 66.6406246,173.056633 66.6406246,174.560547 L66.6406246,175.400391 Z M64.9999996,174.042969 C64.9934891,173.118485 64.7705096,172.399091 64.3310542,171.884766 C63.8915989,171.37044 63.2812535,171.113281 62.4999996,171.113281 C61.7447874,171.113281 61.1035178,171.383461 60.5761714,171.923828 C60.048825,172.464195 59.7233075,173.170569 59.5996089,174.042969 L64.9999996,174.042969 Z M71.2031246,178.554688 L71.1640621,178.554688 L71.1640621,184.599609 L69.5624996,184.599609 L69.5624996,170 L71.1640621,170 L71.1640621,171.757812 L71.2031246,171.757812 C71.990889,170.429681 73.1432212,169.765625 74.6601559,169.765625 C75.9492248,169.765625 76.9550741,170.213212 77.677734,171.108398 C78.4003939,172.003585 78.7617184,173.203117 78.7617184,174.707031 C78.7617184,176.380217 78.3548214,177.719722 77.5410152,178.725586 C76.7272091,179.73145 75.613939,180.234375 74.2011715,180.234375 C72.9055921,180.234375 71.9062531,179.674485 71.2031246,178.554688 Z M71.1640621,174.521484 L71.1640621,175.917969 C71.1640621,176.744796 71.4326141,177.446286 71.9697262,178.022461 C72.5068382,178.598636 73.1887976,178.886719 74.0156246,178.886719 C74.9856815,178.886719 75.7457651,178.515629 76.2958981,177.773438 C76.846031,177.031246 77.1210934,175.999356 77.1210934,174.677734 C77.1210934,173.564448 76.8639345,172.69206 76.349609,172.060547 C75.8352835,171.429033 75.1386759,171.113281 74.2597652,171.113281 C73.328771,171.113281 72.5800806,171.437171 72.0136715,172.084961 C71.4472624,172.732751 71.1640621,173.544917 71.1640621,174.521484 Z M85.9999997,180.234375 C84.5221277,180.234375 83.3421265,179.767257 82.4599606,178.833008 C81.5777947,177.898758 81.1367184,176.660164 81.1367184,175.117188 C81.1367184,173.437492 81.5956982,172.125656 82.5136715,171.181641 C83.4316449,170.237625 84.6718669,169.765625 86.2343747,169.765625 C87.7252675,169.765625 88.8889929,170.224605 89.7255856,171.142578 C90.5621783,172.060551 90.9804684,173.333325 90.9804684,174.960938 C90.9804684,176.555998 90.5296266,177.833654 89.6279294,178.793945 C88.7262321,179.754237 87.5169343,180.234375 85.9999997,180.234375 Z M86.1171872,171.113281 C85.0885362,171.113281 84.2747423,171.463213 83.6757809,172.163086 C83.0768196,172.862959 82.7773434,173.828119 82.7773434,175.058594 C82.7773434,176.243496 83.0800748,177.177731 83.6855465,177.861328 C84.2910183,178.544925 85.1015571,178.886719 86.1171872,178.886719 C87.1523486,178.886719 87.9482391,178.551436 88.5048825,177.880859 C89.0615259,177.210283 89.3398434,176.256517 89.3398434,175.019531 C89.3398434,173.769525 89.0615259,172.805993 88.5048825,172.128906 C87.9482391,171.45182 87.1523486,171.113281 86.1171872,171.113281 Z M93.4335935,179.638672 L93.4335935,177.919922 C94.3059937,178.564456 95.2662705,178.886719 96.3144529,178.886719 C97.7207099,178.886719 98.4238279,178.417973 98.4238279,177.480469 C98.4238279,177.21354 98.3636071,176.987306 98.2431638,176.801758 C98.1227205,176.61621 97.9599617,176.451824 97.7548825,176.308594 C97.5498034,176.165364 97.3089204,176.036784 97.0322263,175.922852 C96.7555322,175.808919 96.4576836,175.690105 96.1386716,175.566406 C95.6959611,175.390624 95.3069676,175.213217 94.9716794,175.03418 C94.6363913,174.855142 94.3564462,174.653321 94.1318357,174.428711 C93.9072252,174.2041 93.737956,173.948569 93.6240232,173.662109 C93.5100903,173.37565 93.4531247,173.040367 93.4531247,172.65625 C93.4531247,172.187498 93.5605455,171.772463 93.7753904,171.411133 C93.9902352,171.049803 94.2766906,170.747072 94.6347654,170.50293 C94.9928401,170.258788 95.4013646,170.07487 95.8603513,169.951172 C96.319338,169.827473 96.792966,169.765625 97.2812497,169.765625 C98.1471395,169.765625 98.9218713,169.915363 99.6054685,170.214844 L99.6054685,171.835938 C98.8697877,171.354164 98.023442,171.113281 97.066406,171.113281 C96.7669253,171.113281 96.4967457,171.147461 96.2558591,171.21582 C96.0149725,171.28418 95.8082688,171.380208 95.6357419,171.503906 C95.463215,171.627605 95.3297528,171.775715 95.2353513,171.948242 C95.1409498,172.120769 95.0937497,172.311197 95.0937497,172.519531 C95.0937497,172.779949 95.1409498,172.998046 95.2353513,173.173828 C95.3297528,173.34961 95.4680978,173.505859 95.6503904,173.642578 C95.8326829,173.779298 96.0540349,173.902994 96.3144529,174.013672 C96.5748708,174.12435 96.8710918,174.244791 97.2031247,174.375 C97.6458353,174.544272 98.0429667,174.718424 98.394531,174.897461 C98.7460952,175.076498 99.0455714,175.278319 99.2929685,175.50293 C99.5403656,175.72754 99.7307933,175.986327 99.8642575,176.279297 C99.9977218,176.572267 100.064453,176.920571 100.064453,177.324219 C100.064453,177.819013 99.9554045,178.248696 99.7373044,178.613281 C99.5192044,178.977866 99.2278661,179.280598 98.863281,179.521484 C98.4986958,179.762371 98.0787781,179.941406 97.6035154,180.058594 C97.1282526,180.175782 96.6302107,180.234375 96.1093747,180.234375 C95.0807238,180.234375 94.1888056,180.035809 93.4335935,179.638672 Z M103.845703,167.460938 C103.559243,167.460938 103.315105,167.363282 103.113281,167.167969 C102.911457,166.972655 102.810547,166.725262 102.810547,166.425781 C102.810547,166.126301 102.911457,165.87728 103.113281,165.678711 C103.315105,165.480142 103.559243,165.380859 103.845703,165.380859 C104.138673,165.380859 104.387694,165.480142 104.592773,165.678711 C104.797852,165.87728 104.90039,166.126301 104.90039,166.425781 C104.90039,166.712241 104.797852,166.956379 104.592773,167.158203 C104.387694,167.360027 104.138673,167.460938 103.845703,167.460938 Z M104.626953,180 L103.02539,180 L103.02539,170 L104.626953,170 L104.626953,180 Z M113.007812,179.902344 C112.630206,180.110678 112.132164,180.214844 111.513672,180.214844 C109.762361,180.214844 108.886719,179.238291 108.886719,177.285156 L108.886719,171.367188 L107.167969,171.367188 L107.167969,170 L108.886719,170 L108.886719,167.558594 L110.488281,167.041016 L110.488281,170 L113.007812,170 L113.007812,171.367188 L110.488281,171.367188 L110.488281,177.001953 C110.488281,177.672529 110.602212,178.15104 110.830078,178.4375 C111.057944,178.72396 111.435544,178.867188 111.96289,178.867188 C112.366538,178.867188 112.714842,178.756512 113.007812,178.535156 L113.007812,179.902344 Z M119.669922,180.234375 C118.19205,180.234375 117.012049,179.767257 116.129883,178.833008 C115.247717,177.898758 114.806641,176.660164 114.806641,175.117188 C114.806641,173.437492 115.26562,172.125656 116.183594,171.181641 C117.101567,170.237625 118.341789,169.765625 119.904297,169.765625 C121.39519,169.765625 122.558915,170.224605 123.395508,171.142578 C124.2321,172.060551 124.650391,173.333325 124.650391,174.960938 C124.650391,176.555998 124.199549,177.833654 123.297851,178.793945 C122.396154,179.754237 121.186856,180.234375 119.669922,180.234375 Z M119.787109,171.113281 C118.758458,171.113281 117.944664,171.463213 117.345703,172.163086 C116.746742,172.862959 116.447266,173.828119 116.447266,175.058594 C116.447266,176.243496 116.749997,177.177731 117.355469,177.861328 C117.96094,178.544925 118.771479,178.886719 119.787109,178.886719 C120.822271,178.886719 121.618161,178.551436 122.174805,177.880859 C122.731448,177.210283 123.009766,176.256517 123.009766,175.019531 C123.009766,173.769525 122.731448,172.805993 122.174805,172.128906 C121.618161,171.45182 120.822271,171.113281 119.787109,171.113281 Z M132.923828,171.621094 C132.643879,171.406249 132.240237,171.298828 131.712891,171.298828 C131.029293,171.298828 130.45801,171.621091 129.999023,172.265625 C129.540037,172.910159 129.310547,173.789057 129.310547,174.902344 L129.310547,180 L127.708984,180 L127.708984,170 L129.310547,170 L129.310547,172.060547 L129.349609,172.060547 C129.577475,171.357418 129.925779,170.808921 130.394531,170.415039 C130.863284,170.021157 131.387367,169.824219 131.966797,169.824219 C132.383466,169.824219 132.702473,169.869791 132.923828,169.960938 L132.923828,171.621094 Z M143.921875,170 L139.322266,181.601562 C138.501949,183.671885 137.349617,184.707031 135.865234,184.707031 C135.448566,184.707031 135.100262,184.664714 134.820313,184.580078 L134.820313,183.144531 C135.165366,183.261719 135.481118,183.320312 135.767578,183.320312 C136.574874,183.320312 137.180337,182.838546 137.583984,181.875 L138.384766,179.980469 L134.478516,170 L136.255859,170 L138.960938,177.695312 C138.99349,177.792969 139.061848,178.046873 139.166016,178.457031 L139.224609,178.457031 C139.257162,178.30078 139.322265,178.053387 139.419922,177.714844 L142.261719,170 L143.921875,170 Z M152.939453,167.460938 C152.652994,167.460938 152.408855,167.363282 152.207031,167.167969 C152.005207,166.972655 151.904297,166.725262 151.904297,166.425781 C151.904297,166.126301 152.005207,165.87728 152.207031,165.678711 C152.408855,165.480142 152.652994,165.380859 152.939453,165.380859 C153.232423,165.380859 153.481444,165.480142 153.686524,165.678711 C153.891603,165.87728 153.994141,166.126301 153.994141,166.425781 C153.994141,166.712241 153.891603,166.956379 153.686524,167.158203 C153.481444,167.360027 153.232423,167.460938 152.939453,167.460938 Z M153.720703,180 L152.119141,180 L152.119141,170 L153.720703,170 L153.720703,180 Z M156.857422,179.638672 L156.857422,177.919922 C157.729822,178.564456 158.690099,178.886719 159.738281,178.886719 C161.144538,178.886719 161.847656,178.417973 161.847656,177.480469 C161.847656,177.21354 161.787436,176.987306 161.666992,176.801758 C161.546549,176.61621 161.38379,176.451824 161.178711,176.308594 C160.973632,176.165364 160.732749,176.036784 160.456055,175.922852 C160.179361,175.808919 159.881512,175.690105 159.5625,175.566406 C159.11979,175.390624 158.730796,175.213217 158.395508,175.03418 C158.06022,174.855142 157.780275,174.653321 157.555664,174.428711 C157.331054,174.2041 157.161785,173.948569 157.047852,173.662109 C156.933919,173.37565 156.876953,173.040367 156.876953,172.65625 C156.876953,172.187498 156.984374,171.772463 157.199219,171.411133 C157.414064,171.049803 157.700519,170.747072 158.058594,170.50293 C158.416669,170.258788 158.825193,170.07487 159.28418,169.951172 C159.743167,169.827473 160.216795,169.765625 160.705078,169.765625 C161.570968,169.765625 162.3457,169.915363 163.029297,170.214844 L163.029297,171.835938 C162.293616,171.354164 161.447271,171.113281 160.490235,171.113281 C160.190754,171.113281 159.920574,171.147461 159.679688,171.21582 C159.438801,171.28418 159.232097,171.380208 159.059571,171.503906 C158.887044,171.627605 158.753581,171.775715 158.65918,171.948242 C158.564778,172.120769 158.517578,172.311197 158.517578,172.519531 C158.517578,172.779949 158.564778,172.998046 158.65918,173.173828 C158.753581,173.34961 158.891926,173.505859 159.074219,173.642578 C159.256512,173.779298 159.477863,173.902994 159.738281,174.013672 C159.998699,174.12435 160.29492,174.244791 160.626953,174.375 C161.069664,174.544272 161.466795,174.718424 161.81836,174.897461 C162.169924,175.076498 162.4694,175.278319 162.716797,175.50293 C162.964194,175.72754 163.154622,175.986327 163.288086,176.279297 C163.42155,176.572267 163.488281,176.920571 163.488281,177.324219 C163.488281,177.819013 163.379233,178.248696 163.161133,178.613281 C162.943033,178.977866 162.651695,179.280598 162.28711,179.521484 C161.922524,179.762371 161.502607,179.941406 161.027344,180.058594 C160.552081,180.175782 160.054039,180.234375 159.533203,180.234375 C158.504552,180.234375 157.612634,180.035809 156.857422,179.638672 Z M180.464844,175.400391 L173.404297,175.400391 C173.430339,176.513677 173.729815,177.373044 174.302735,177.978516 C174.875654,178.583987 175.663407,178.886719 176.666016,178.886719 C177.792324,178.886719 178.82747,178.515629 179.771485,177.773438 L179.771485,179.277344 C178.892574,179.915368 177.730476,180.234375 176.285157,180.234375 C174.872389,180.234375 173.762374,179.780278 172.955078,178.87207 C172.147783,177.963863 171.744141,176.686206 171.744141,175.039062 C171.744141,173.483065 172.185217,172.215174 173.067383,171.235352 C173.949549,170.255529 175.044916,169.765625 176.353516,169.765625 C177.662116,169.765625 178.674476,170.188798 179.390625,171.035156 C180.106775,171.881515 180.464844,173.056633 180.464844,174.560547 L180.464844,175.400391 Z M178.824219,174.042969 C178.817709,173.118485 178.594729,172.399091 178.155274,171.884766 C177.715818,171.37044 177.105473,171.113281 176.324219,171.113281 C175.569007,171.113281 174.927737,171.383461 174.400391,171.923828 C173.873045,172.464195 173.547527,173.170569 173.423828,174.042969 L178.824219,174.042969 Z M197.585938,180 L195.984375,180 L195.984375,174.257812 C195.984375,173.151036 195.813479,172.350263 195.47168,171.855469 C195.129881,171.360675 194.555343,171.113281 193.748047,171.113281 C193.06445,171.113281 192.483401,171.425778 192.004883,172.050781 C191.526365,172.675784 191.28711,173.424475 191.28711,174.296875 L191.28711,180 L189.685547,180 L189.685547,174.0625 C189.685547,172.096344 188.927091,171.113281 187.410157,171.113281 C186.707028,171.113281 186.127607,171.407875 185.671875,171.99707 C185.216144,172.586266 184.988282,173.35286 184.988282,174.296875 L184.988282,180 L183.386719,180 L183.386719,170 L184.988282,170 L184.988282,171.582031 L185.027344,171.582031 C185.736983,170.371088 186.772129,169.765625 188.132813,169.765625 C188.81641,169.765625 189.412107,169.956053 189.919922,170.336914 C190.427737,170.717775 190.776041,171.217445 190.964844,171.835938 C191.707035,170.455722 192.813795,169.765625 194.285157,169.765625 C196.485688,169.765625 197.585938,171.123033 197.585938,173.837891 L197.585938,180 Z M202.753907,178.554688 L202.714844,178.554688 L202.714844,184.599609 L201.113282,184.599609 L201.113282,170 L202.714844,170 L202.714844,171.757812 L202.753907,171.757812 C203.541671,170.429681 204.694003,169.765625 206.210938,169.765625 C207.500007,169.765625 208.505856,170.213212 209.228516,171.108398 C209.951176,172.003585 210.3125,173.203117 210.3125,174.707031 C210.3125,176.380217 209.905603,177.719722 209.091797,178.725586 C208.277991,179.73145 207.164721,180.234375 205.751954,180.234375 C204.456374,180.234375 203.457035,179.674485 202.753907,178.554688 Z M202.714844,174.521484 L202.714844,175.917969 C202.714844,176.744796 202.983396,177.446286 203.520508,178.022461 C204.05762,178.598636 204.73958,178.886719 205.566407,178.886719 C206.536464,178.886719 207.296547,178.515629 207.84668,177.773438 C208.396813,177.031246 208.671875,175.999356 208.671875,174.677734 C208.671875,173.564448 208.414717,172.69206 207.900391,172.060547 C207.386066,171.429033 206.689458,171.113281 205.810547,171.113281 C204.879553,171.113281 204.130863,171.437171 203.564454,172.084961 C202.998044,172.732751 202.714844,173.544917 202.714844,174.521484 Z M218.009766,179.902344 C217.63216,180.110678 217.134118,180.214844 216.515626,180.214844 C214.764315,180.214844 213.888672,179.238291 213.888672,177.285156 L213.888672,171.367188 L212.169922,171.367188 L212.169922,170 L213.888672,170 L213.888672,167.558594 L215.490235,167.041016 L215.490235,170 L218.009766,170 L218.009766,171.367188 L215.490235,171.367188 L215.490235,177.001953 C215.490235,177.672529 215.604166,178.15104 215.832032,178.4375 C216.059897,178.72396 216.437498,178.867188 216.964844,178.867188 C217.368492,178.867188 217.716796,178.756512 218.009766,178.535156 L218.009766,179.902344 Z M228.607422,170 L224.007813,181.601562 C223.187496,183.671885 222.035164,184.707031 220.550782,184.707031 C220.134113,184.707031 219.785809,184.664714 219.50586,184.580078 L219.50586,183.144531 C219.850914,183.261719 220.166666,183.320312 220.453126,183.320312 C221.260421,183.320312 221.865884,182.838546 222.269532,181.875 L223.070313,179.980469 L219.164063,170 L220.941407,170 L223.646485,177.695312 C223.679037,177.792969 223.747396,178.046873 223.851563,178.457031 L223.910157,178.457031 C223.942709,178.30078 224.007813,178.053387 224.105469,177.714844 L226.947266,170 L228.607422,170 Z M230.142579,180.214844 C229.843098,180.214844 229.587567,180.107423 229.375977,179.892578 C229.164388,179.677733 229.058594,179.420574 229.058594,179.121094 C229.058594,178.821613 229.164388,178.562827 229.375977,178.344727 C229.587567,178.126627 229.843098,178.017578 230.142579,178.017578 C230.44857,178.017578 230.708984,178.126627 230.923829,178.344727 C231.138674,178.562827 231.246094,178.821613 231.246094,179.121094 C231.246094,179.420574 231.138674,179.677733 230.923829,179.892578 C230.708984,180.107423 230.44857,180.214844 230.142579,180.214844 Z M234.978516,180.214844 C234.679036,180.214844 234.423504,180.107423 234.211915,179.892578 C234.000325,179.677733 233.894532,179.420574 233.894532,179.121094 C233.894532,178.821613 234.000325,178.562827 234.211915,178.344727 C234.423504,178.126627 234.679036,178.017578 234.978516,178.017578 C235.284507,178.017578 235.544921,178.126627 235.759766,178.344727 C235.974611,178.562827 236.082032,178.821613 236.082032,179.121094 C236.082032,179.420574 235.974611,179.677733 235.759766,179.892578 C235.544921,180.107423 235.284507,180.214844 234.978516,180.214844 Z M239.814454,180.214844 C239.514973,180.214844 239.259442,180.107423 239.047852,179.892578 C238.836263,179.677733 238.730469,179.420574 238.730469,179.121094 C238.730469,178.821613 238.836263,178.562827 239.047852,178.344727 C239.259442,178.126627 239.514973,178.017578 239.814454,178.017578 C240.120445,178.017578 240.380859,178.126627 240.595704,178.344727 C240.810549,178.562827 240.917969,178.821613 240.917969,179.121094 C240.917969,179.420574 240.810549,179.677733 240.595704,179.892578 C240.380859,180.107423 240.120445,180.214844 239.814454,180.214844 Z" opacity=".8"/>
      <g transform="translate(58)">
        <path fill="#DFEDFB" d="M22.6120839,90.4014836 C17.2285223,91.5683195 16.3549947,91.4912126 9.88089129,95.9393076 C-16.3110764,113.934751 15.9104328,129.301388 33.3645214,133.218529 C54.6824077,138.002804 80.3056676,140.319486 101.238282,132.054975 C109.348295,128.85302 124.503308,122.389843 126.049663,111.874808 C126.051235,111.864116 126.694854,104.885657 125.190429,103.573256 C120.329094,99.332417 115.234736,95.318327 109.803734,91.8484374 C108.075933,90.7445381 105.898472,90.6161458 103.945841,90" opacity=".5"/>
        <g transform="translate(4)">
          <path fill="#FFFFFF" d="M31.3390625,95.2226563 C36.14375,95.2226563 41.1544271,95.2226563 46.3710937,95.2226563 C51.5877604,95.2226563 57.3513021,94.4192708 63.6617187,92.8125 C63.0768229,97.8489583 63.9760417,101.834375 66.359375,104.76875 C69.934375,109.170313 75.3304687,109.364844 79.871875,109.170313 C84.4132812,108.975781 90.90625,104.125 92.3039062,98.46875 C93.7015625,92.8125 96.1039062,79.275 95.4351562,68.7070313 C94.7664062,58.1390625 95.3515625,37.16875 96.9570312,32.3867188 C98.5625,27.6046875 100.475,20.1398437 102.561719,18.1210938 C103.952865,16.7752604 105.902344,16.1023438 108.410156,16.1023438 C88.6226562,16.1023438 78.025,16.1023438 76.6171875,16.1023438 C75.209375,16.1023438 69.7208333,16.1023438 60.1515625,16.1023438 C54.1510417,5.78307292 45.8744792,0.484375 35.321875,0.20625 C19.4929687,-0.2109375 -0.2984375,15.3796875 0.48984375,32.3867188 C1.278125,49.39375 12.821875,63.2140625 28.1289062,63.5789063 C33.2742188,63.5789063 33.0630432,62.422483 33.303125,64.7890625 C34.6681213,78.244358 33.303125,75.7289063 33.303125,81.715625 C33.303125,85.7067708 32.6484375,90.2091146 31.3390625,95.2226563 Z"/>
          <path fill="#EEF6FD" d="M98,32.4119894 C101.61875,32.4119894 105.720052,32.4119894 110.303906,32.4119894 C114.88776,32.4119894 119.466406,32.7609477 124.039844,33.4588644 C120.636719,22.7463644 116.6125,17.2773539 111.967187,17.0518331 C104.999219,16.7135519 102.064844,17.9658956 100.489844,22.7416769 C99.4398437,25.925531 98.6098958,29.1489685 98,32.4119894 Z"/>
          <path fill="#EEF5FB" d="M33.4867188,64.528125 L33.4867188,72.778125 C44.3976563,74.2109375 53.4322917,71.4609375 60.590625,64.528125 C71.328125,54.1289062 69.9875,40.2046875 69.9,35.7382812 C69.8416667,32.7606771 67.515625,26.29375 62.921875,16.3375 C65.9332095,30.6626792 64.8678729,41.6931384 59.7258654,49.4288775 C54.5838579,57.1646165 45.8374756,62.197699 33.4867188,64.528125 Z"/>
          <path fill="#EEF6FD" d="M3.75859375 95.6375C4.19244792 100.936979 5.49635417 104.451823 7.6703125 106.182031 10.93125 108.777344 19.5757812 112.504687 27.1984375 113.070312 34.8210937 113.635938 43.484375 114.201563 56.9695312 113.635938 65.9596354 113.258854 73.5973958 112.08724 79.8828125 110.121094 72.5572917 110.279891 68.1346354 108.490814 66.6148437 104.753864 65.0950521 101.016913 64.3351562 97.4145833 64.3351562 93.946875 52.5867187 95.0739583 42.7736979 95.6375 34.8960937 95.6375 27.0184896 95.6375 16.6393229 95.6375 3.75859375 95.6375zM32.8991668.499787626C10.4221454 2.54605606 2.0550589 17.2713162.855102384 32.1845253-.297723351 46.5119872 10.2499795 60.9682243 26.1595606 63.5654588 69.4847471 70.6382827 82.1154519 6.21211458 36.4688341.499787626L32.8991668.499787626z"/>
          <path fill="#DEECF9" d="M9.13698731,53.4341771 C5.66013939,38.0870873 7.00899574,26.689605 13.1835564,19.2417301 C22.4453973,8.06991778 35.2919487,3.16618524 38.9036249,2.49720757 C42.5153011,1.8282299 25.3565402,-1.70886043 17.2467638,4.52307391 C9.13698731,10.7550083 2.27681065,20.5739481 1.39210776,28.9872316 C0.507404872,37.400515 2.67096816,46.018049 4.24874568,48.0267032 C5.30059736,49.365806 6.93001124,51.1682973 9.13698731,53.4341771 Z"/>
          <path stroke="#81BFF1" stroke-width="1.5" d="M32.8991668.499787626C10.4221454 2.54605606 2.0550589 17.2713162.855102384 32.1845253-.297723351 46.5119872 10.2499795 60.9682243 26.1595606 63.5654588 69.4847471 70.6382827 82.1154519 6.21211458 36.4688341.499787626L32.8991668.499787626zM3 95.3813275C48.9317014 95.8597633 28.4731707 97.2744782 64.4760537 93" stroke-linecap="round" stroke-linejoin="round"/>
          <path stroke="#81BFF1" stroke-width="1.5" d="M33.2973458 65.5486072C33.1170133 69.6962562 33.6039792 74.7315452 33.2973458 79.1889914 32.9295592 84.535407 31.7635675 89.3152774 31.5472704 94.2901114M63.8393818 94.5025751C62.931358 113.496878 85.6088321 113.983082 90.4135715 102.038539 95.1157996 90.3488392 94.7260926 80.086371 94.7603512 70.539188 94.8181667 54.4271413 93.3646558 40.1972077 99.8273319 23.4530014 101.186056 19.93267 103.08355 13.9400142 113.080941 17.5439195 119.277111 19.7775437 121.342611 28.3774506 122.935657 32.6283424M62.6463941 16.7616052C69.5621596 16.6029468 75.3011961 16.8580412 82.2795641 16.3665248 85.365601 16.149162 91.778814 16.149162 101.519203 16.3665248" stroke-linecap="round" stroke-linejoin="round"/>
          <path stroke="#81BFF1" stroke-width="1.5" d="M3.55011858 96.0890939C5.40105717 99.7909711 6.13858577 104.306386 9.10293434 107.194725 19.2758659 117.106813 58.2079979 113.021427 66.21916 112.747541 71.00521 112.583916 76.9404705 109.795312 80.4978291 111.161022M98.7412458 31.835083C106.464717 31.0698434 112.016435 30.9368801 123.330738 33.4200525" stroke-linecap="round" stroke-linejoin="round"/>
          <g fill-rule="nonzero" transform="translate(20 18)">
            <path fill="#DEECF9" d="M14.3931376,11.8393224 L14.7334055,11.7258998 L17.9141074,12.9486545 L18.0534406,13.0149737 C18.1104197,13.0477095 18.1667054,13.0805367 18.2222981,13.1134565 C20.2151895,11.3670513 21.0941706,10.6104407 22.2264182,9.66657331 C22.8756358,9.12537075 23.1672964,8.83985357 23.7446811,8.18749234 C24.4376641,7.40452178 24.8523664,6.99856618 25.6427372,6.33969515 C26.3851161,5.72083121 27.4886214,5.82095987 28.1074854,6.56333876 C28.7263493,7.30571766 28.6262206,8.409223 27.8838417,9.02808693 C27.2346241,9.56928949 26.9429636,9.85480667 26.3655789,10.5071679 C25.6725959,11.2901385 25.2578935,11.6960941 24.4675228,12.3549651 C23.4314927,13.2186234 22.6090283,13.9248333 20.8889415,15.4305208 C22.3039104,17.5123601 21.5635707,19.8254303 18.9006235,22.0184456 C16.8473785,23.7093533 13.3082217,23.4412395 10.6471748,21.7367769 C7.69306272,19.8445991 6.81343538,16.7852657 9.1865585,14.0855105 C9.26256793,13.9990393 9.33801998,13.9165663 9.41312665,13.837906 C5.11165337,9.40526957 3.15869455,7.23745891 0.635561825,4.09581407 C0.030360428,3.34225567 0.150627538,2.24076322 0.904185934,1.63556183 C1.65774433,1.03036043 2.75923678,1.15062754 3.36443817,1.90418593 C5.95705133,5.1323434 7.92180191,7.29253067 12.7448548,12.2437344 C13.5700992,12.0918782 13.8209564,12.0300495 14.3931376,11.8393224 Z"/>
            <path fill="#81BFF1" d="M11.400585,11.3234306 C11.3035679,11.2238043 11.2042408,11.1218394 11.1024756,11.0174005 C6.42604093,6.21810849 4.32290121,3.93972615 1.58475922,0.5303654 C1.32538719,0.207411802 0.853318998,0.155868755 0.5303654,0.415240782 C0.207411802,0.67461281 0.155868755,1.146681 0.415240782,1.4696346 C3.15977501,4.88695455 5.2706009,7.17880374 9.86570018,11.89745 C9.57371149,12.0953576 9.27190723,12.3654448 8.93763911,12.745721 C4.70796792,17.5575559 13.7219565,22.1642469 17.2649162,19.2465154 C19.8725154,17.0990808 20.2842609,15.1228698 18.5001528,13.3178824 C18.5053063,13.3133627 18.5104668,13.3088369 18.5156341,13.3043051 C20.6457115,11.4361774 21.6006708,10.6093218 22.8272072,9.58685315 C23.6098586,8.93441711 23.9873335,8.55555417 24.616751,7.84440345 C25.199954,7.18546838 25.5266013,6.85761988 26.2435262,6.25997499 C26.5616885,5.99474759 26.6046008,5.52181673 26.3393734,5.20365435 C26.074146,4.88549197 25.6012152,4.84257968 25.2830528,5.10780708 C24.5004013,5.76024313 24.1229265,6.13910607 23.493509,6.85025679 C22.910306,7.50919185 22.5836587,7.83704036 21.8667338,8.43468525 C20.6274103,9.46781351 19.6660253,10.3002328 17.5265854,12.1765716 C17.4564932,12.2380441 17.3876735,12.2983891 17.3200746,12.3576507 C17.0836356,12.1976779 16.828704,12.0391471 16.5552797,11.8820583 L13.7093654,10.7880057 C12.7338223,11.1131868 12.0151721,11.206167 11.400585,11.3234306 Z"/>
          </g>
        </g>
      </g>
    </g>
  </g>
</svg>
