<svg xmlns="http://www.w3.org/2000/svg" width="20" height="16" viewBox="0 0 20 16">
  <g fill="none" fill-rule="evenodd">
    <rect width="20" height="16" fill="#00FFFF"/>
    <path fill="#FF00FF" d="M11.6822049,6 L6,6 L6,7 L10.527787,7 C10.8679898,6.61989539 11.2559383,6.28341957 11.6822049,6 L11.6822049,6 Z M9.34141142,9 L6,9 L6,10 L9.08295844,10 C9.14069617,9.65584819 9.22773125,9.32163077 9.34141142,9 L9.34141142,9 Z M9.08295844,12 L6,12 L6,13 L9.34141142,13 C9.22773125,12.6783692 9.14069617,12.3441518 9.08295844,12 L9.08295844,12 Z M6,3 L17,3 L17,4 L6,4 L6,3 Z"/>
    <path fill="#FF00FF" d="M3.3500061,1.93579254 L3.3500061,7 L2.3500061,7 L2.3500061,1.89263458 L0.707106781,3.53553391 L-5.77315973e-15,2.82842712 L2.82842712,2.26485497e-14 L5.65685425,2.82842712 L4.94974747,3.53553391 L3.3500061,1.93579254 Z" transform="matrix(1 0 0 -1 0 7)"/>
    <path fill="#FF00FF" d="M14.7052036,10.7578057 L13.4526017,9.50520382 L12.1999998,10.7578057 L14.7052036,13.2630096 L18.4630094,9.50520382 L17.2104074,8.25260191 L14.7052036,10.7578057 L14.7052036,10.7578057 Z M15,16 C12.2385763,16 10,13.7614237 10,11 C10,8.23857625 12.2385763,6 15,6 C17.7614237,6 20,8.23857625 20,11 C20,13.7614237 17.7614237,16 15,16 Z"/>
  </g>
</svg>
