<svg xmlns="http://www.w3.org/2000/svg" width="20" height="16" viewBox="0 0 20 16">
  <g fill="none" fill-rule="evenodd">
    <rect width="20" height="16" fill="#00FFFF"/>
    <path fill="#FF00FF" d="M6 3L17 3 17 4 6 4 6 3zM6 6L17 6 17 7 6 7 6 6zM6 9L17 9 17 10 6 10 6 9zM6 12L17 12 17 13 6 13 6 12zM3.3500061 1.93579254L3.3500061 7 2.3500061 7 2.3500061 1.89263458.707106781 3.53553391-.77315973e-15 2.82842712 2.82842712.26485497e-14 5.65685425 2.82842712 4.94974747 3.53553391 3.3500061 1.93579254z"/>
  </g>
</svg>
