<svg xmlns="http://www.w3.org/2000/svg" width="20" height="20" viewBox="0 0 20 20">
  <g fill="none" fill-rule="evenodd">
    <rect width="20" height="20" fill="#00FFFF"/>
    <path fill="#78ACC3" fill-rule="nonzero" d="M2.26528684,11.6069595 C0.878937883,10.5020687 0,8.85881854 0,7.02396719 C0,3.69702198 2.8896664,1 6.45425056,1 C8.58090783,1 10.4673346,1.95997904 11.6432143,3.44097493 C10.5158408,2.54248218 9.05292255,2 7.45425056,2 C3.8896664,2 1,4.69702198 1,8.02396719 C1,9.36603228 1.47022268,10.6055927 2.26528684,11.6069595 L2.26528684,11.6069595 Z M13.422258,12.8697574 C12.2383627,14.2005208 10.4523374,15.0479344 8.45425056,15.0479344 C4.8896664,15.0479344 2,12.3509124 2,9.02396719 C2,5.69702198 4.8896664,3 8.45425056,3 C12.0188347,3 14.9085011,5.69702198 14.9085011,9.02396719 C14.9085011,9.55206067 14.8356933,10.0642827 14.6989353,10.552366 L17,12.8697574 L13.422258,12.8697574 L13.422258,12.8697574 Z"/>
  </g>
</svg>
