<svg xmlns="http://www.w3.org/2000/svg" width="70" height="70" viewBox="0 0 70 70" xmlns:xlink="http://www.w3.org/1999/xlink">
  <defs>
    <path id="a" d="M19.4743703,8.68036889 C19.9714835,8.1483534 21.395189,6.58613363 22.6577383,5.67973959 C24.1817515,4.5855667 25.312942,3.91102204 25.312942,3.91102204 L26.5520371,6.21035485 C26.5520371,6.21035485 28.2000335,5.11227604 28.4991865,3.73415029 C28.7983394,2.35595084 28.4991865,0.550458716 28.4991865,0.550458716 C28.4991865,0.550458716 30.2700598,0.88283022 31.3314038,2.49604801 C32.3926739,4.10919211 32.4948993,6.12545641 34.3406346,7.09471362 C35.2395686,7.56674011 36.3546804,8.13147688 37.2620963,8.58655317 C47.5168618,12.1996009 54.87421,21.9723549 54.87421,33.448605 C54.87421,47.9937274 43.0558983,59.8024963 28.4991865,59.8024963 C13.9424009,59.8024963 2.12416297,47.9937274 2.12416297,33.448605 C2.12416297,33.2905995 2.12556432,33.1328889 2.12836704,32.9755467 L0.708054322,33.448605 L2.47029827,29.1722881 C2.55865755,28.6320923 2.66346434,28.0974238 2.78420236,27.568872 L-4.54747351e-13,28.4961959 C-4.54747351e-13,28.4961959 1.66260006,25.0742433 3.18624445,22.8362997 C4.06548566,21.5446938 5.40378208,19.3870057 6.37846311,18.3913652 C9.47406186,13.6394844 14.0612213,10.6524153 19.4743703,8.68036889 Z"/>
    <path id="b" d="M28.0760979,17.9816514 C38.191834,18.0283013 46.370599,21.5494494 46.370599,25.8798596 C46.370599,30.2392324 38.0819381,33.7785099 27.8726798,33.7785099 C17.6633478,33.7785099 9.37476065,30.2392324 9.37476065,25.8798596 C9.37476065,22.3727875 14.7390097,19.3965517 22.1521909,18.3667896 C22.5397769,18.9100807 23.1233317,19.5905948 23.8898743,20.1036702 C25.391687,21.1089651 28.6692409,22.403003 28.6692409,22.403003 C28.6692409,22.403003 27.3776318,21.1372646 27.4301459,19.7499267 C27.4565504,19.0510622 27.7707495,18.4279578 28.0760979,17.9816514 Z"/>
    <path id="c" d="M38.348585,37.5675481 C43.1067101,36.2704885 45.7830079,34.8647266 45.7510717,37.2758571 C45.7231921,39.3744404 38.1366113,46.0310089 28.757768,46.0310089 C19.3788509,46.0310089 11.7399774,39.7282576 11.7644642,37.6296006 C11.7885086,35.5612328 14.4907684,36.7492951 19.3013337,37.8296867 C19.9556202,39.0910034 20.8230605,40.5217485 21.2838858,40.5479845 C21.7188229,40.5726729 22.8064976,39.5458586 23.6936307,38.6210405 C25.2500226,38.8240008 26.9415349,38.9561387 28.757768,38.9561387 C30.5499567,38.9561387 32.2231776,38.8015233 33.766146,38.5625991 C34.6630148,39.5020092 35.7877148,40.5731887 36.2317976,40.5479845 C36.724928,40.5199798 37.683604,38.8835476 38.348585,37.5675481 Z"/>
    <path id="e" d="M0,4.16665635 C0.924084646,1.77535023 4.30777299,0 8.33564327,0 C11.5070628,0 14.2790955,1.10058449 15.7656408,2.73583755 C13.0237742,4.05802761 9.69562385,5.03384382 6.1046821,5.03384382 C3.95455715,5.03384382 1.8958892,4.70257776 0,4.16665635 Z"/>
  </defs>
  <g fill="none" fill-rule="evenodd">
    <rect width="70" height="70"/>
    <g transform="translate(7 5)">
      <g stroke-linecap="round" stroke-linejoin="round">
        <use fill="#FFFFFF" xlink:href="#a"/>
        <path stroke="#297BCC" stroke-width="2" d="M1.4291338,29.0742077 L-0.216516592,33.067595 L-1.04904925,35.087845 L1.02405403,34.3973643 L1.13907076,34.3590561 C1.6203747,49.0358581 13.6951886,60.8024963 28.4991865,60.8024963 C43.6080287,60.8024963 55.87421,48.5461666 55.87421,33.448605 C55.87421,21.7825173 48.4823987,11.5078962 37.6545224,7.66464207 C36.5615823,7.11625925 35.5759639,6.61389964 34.8055351,6.20935064 C34.0727717,5.82455215 33.7289389,5.312019 33.1416767,3.91367925 C33.0586076,3.71554533 33.0171934,3.61710909 32.9718078,3.51085524 C32.6908574,2.8531117 32.4633203,2.39711444 32.1668229,1.9464347 C31.8200221,1.41930561 31.3939834,0.974779092 30.9084337,0.606847377 C30.0897356,-0.0135319362 29.2743514,-0.321513138 28.6836534,-0.432380004 L27.2790244,-0.696011883 L27.5126368,0.713920651 C27.5261438,0.795439706 27.548357,0.955771214 27.5710657,1.17338374 C27.629806,1.73628044 27.6510872,2.3152108 27.6139697,2.84121601 C27.5962714,3.09202577 27.565616,3.32082782 27.5219431,3.52202915 C27.4488526,3.8587396 27.2082741,4.24887961 26.8425126,4.6414268 L26.1932544,3.43662759 L25.6977969,2.51722951 L24.8007761,3.05213554 C24.6496201,3.14227195 24.3799383,3.30910227 24.0146513,3.54481252 C23.4096972,3.93517372 22.755388,4.37859153 22.0745282,4.86741827 C21.8738152,5.01151164 21.6663895,5.1725829 21.4522592,5.349642 C21.1417746,5.60637418 20.8197654,5.89452522 20.4867628,6.21069249 C20.1393914,6.54050225 19.7928647,6.88833749 19.4362527,7.26065985 C19.2576428,7.44713831 19.0973843,7.61760336 18.9048545,7.82431464 C13.0160007,10.0092137 8.59065177,13.2055778 5.59314216,17.7651968 C5.17104302,18.2096692 4.69503488,18.826991 4.12397801,19.6451345 C3.98049237,19.850704 3.83122505,20.0686642 3.67082446,20.3063362 C3.44130818,20.6464197 2.55237473,21.9903889 2.35960051,22.2735744 C2.23902207,22.4506812 2.11583391,22.6374655 1.99019425,22.8334293 C1.71909192,23.2562755 1.43813403,23.719373 1.14948592,24.2165362 C0.660718105,25.0583825 0.172794259,25.9574508 -0.292226096,26.8561473 C-0.454851233,27.1704359 -0.603097323,27.4624181 -0.73412016,27.724781 C-0.813172766,27.8830776 -0.869238813,27.9969917 -0.899455593,28.0591837 L-1.93740723,30.195489 L0.315999708,29.4449552 L1.4291338,29.0742077 Z"/>
      </g>
      <path fill="#D9EBFA" d="M28.4379272,0 C28.4379272,0 30.4363276,2.19095655 30.5164109,4.71547512 C30.5964941,7.2399937 27.8512635,8.20280094 27.4887949,8.00992278 C27.1263262,7.81704462 26.4242335,5.19857311 26.1827781,4.65960697 C25.9413227,4.12064082 25.2428471,3.32884268 25.2428471,3.32884268 C25.2428471,3.32884268 25.9618194,7.80082892 25.0700526,8.71866292 C24.1782858,9.63649693 25.7433356,9.98146062 28.000198,9.67671947 C30.2570605,9.37197831 33.1437376,7.40892837 34.7617744,7.70942557 C36.3798111,8.00992278 37.7490949,8.51596666 37.7490949,8.51596666 C37.7490949,8.51596666 34.0282068,6.84239232 33.3574621,5.75099964 C32.6867174,4.65960697 32.0652791,2.13249134 31.0891774,1.43109894 C30.1130756,0.729706537 28.4379272,0 28.4379272,0 Z" style="mix-blend-mode:darken"/>
      <path fill="#E6F9FF" d="M4.62234937,44.5751525 C4.62234937,44.5751525 11.8374837,59.8277445 27.7952265,59.8277445 C43.7529693,59.8277445 51.3786596,48.5971509 53.4228503,42.5576375 C55.467041,36.5181242 55.327555,31.3232716 52.4327062,22.1177377 C49.5378573,12.9122039 37.1266994,8.59664904 37.1266994,8.59664904 C37.1266994,8.59664904 47.1520977,16.6983782 48.7316256,27.2882236 C48.8007292,27.7515242 50.416505,29.662973 50.4517308,30.135328 C50.4869565,30.6076831 48.9302957,29.3713964 48.9367731,29.7142593 C48.9562276,30.7440349 50.6222251,34.0654037 50.4517308,35.1271602 C50.2812364,36.1889167 48.4769863,34.1300814 48.2979905,34.7744988 C47.3647657,38.1342773 45.3410064,41.5996166 41.7572208,45.0278331 C34.7555754,51.7255432 27.7414625,53.2953648 21.7246295,52.6568874 C21.3623821,52.6184475 21.6443439,54.8821793 21.2895466,54.8283676 C20.9347494,54.7745559 19.3559643,52.2951595 18.7303305,52.1501828 C10.4042931,50.2208085 4.62234937,44.5751525 4.62234937,44.5751525 Z" style="mix-blend-mode:multiply"/>
      <g stroke-linecap="round" stroke-linejoin="round">
        <use fill="#C6F1FF" xlink:href="#b"/>
        <path stroke="#297BCC" stroke-width="1.204" d="M27.0802285,21.0771607 C26.7697318,20.938608 26.4647339,20.7984089 26.1705717,20.6582645 C25.7957832,20.4797082 25.4507286,20.3068836 25.141939,20.142016 C24.7765531,19.9469306 24.4676259,19.7659782 24.2247493,19.6033995 C23.6233412,19.2008547 23.0918158,18.647311 22.6422682,18.0171665 L22.4305118,17.7203411 L22.0693617,17.7705083 C14.2457462,18.8572837 8.77275396,22.0217034 8.77275396,25.8798596 C8.77275396,30.7117975 17.3645348,34.3805166 27.8726798,34.3805166 C38.3807768,34.3805166 46.9726057,30.711787 46.9726057,25.8798596 C46.9726057,21.0821714 38.5005449,17.4277119 28.0788741,17.3796511 L27.7595557,17.3781785 L27.5792475,17.6417224 C27.1376426,18.2871853 26.8565212,18.9873543 26.8285684,19.7271979 C26.8112994,20.1834169 26.9032448,20.6348829 27.0802285,21.0771607 Z"/>
      </g>
      <path fill="#5588BB" d="M16.0348528,32.2268208 C16.0348528,32.2268208 6.71818286,29.7223812 9.52105796,24.2596414 C12.3239331,18.7969015 22.0175668,18.2078002 22.0175668,18.2078002 C22.0175668,18.2078002 23.5597489,20.2507223 24.1983761,20.2287963 C24.3816229,20.2225049 27.8192723,21.7192426 27.8192723,21.7192426 C27.8192723,21.7192426 27.3714814,21.1046828 27.3856583,19.8981094 C27.3998352,18.691536 27.5251321,19.8505705 27.5289564,19.8057173 C27.6053984,18.9091575 27.4851421,18.1772665 28.1070721,17.9245319 C29.7446295,17.2590752 30.2681954,17.9245319 30.2681954,17.9245319 C30.2681954,17.9245319 29.3979542,19.3792826 30.2486124,20.967094 C31.0992705,22.5549054 31.7751011,22.5125741 31.4474016,22.8732528 C31.1197021,23.2339315 30.1117532,23.4508323 28.1070721,22.2505429 C26.102391,21.0502535 22.9817886,19.47702 22.9817886,19.47702 C22.9817886,19.47702 15.073785,20.9614792 13.3273785,24.0775516 C10.0567983,29.9131717 16.0348528,32.2268208 16.0348528,32.2268208 Z" opacity=".196" style="mix-blend-mode:multiply"/>
      <g transform="translate(15.176 21.936)">
        <path fill="#1655A9" d="M3.5,-3.55271368e-15 C5.43165365,-3.55271368e-15 7,1.56825521 7,3.5 C7,5.43165365 5.43165365,7 3.5,7 C1.56825521,7 -2.48689958e-14,5.43165365 -2.48689958e-14,3.5 C-2.48689958e-14,1.56825521 1.56825521,-3.55271368e-15 3.5,-3.55271368e-15 Z"/>
        <path fill="#FFFFFF" d="M2.15138399,0.917431193 C2.93289895,0.917431193 3.56749263,1.55144273 3.56749263,2.33240523 C3.56749263,3.11336772 2.93289895,3.74737926 2.15138399,3.74737926 C1.36979528,3.74737926 0.735275345,3.11336772 0.735275345,2.33240523 C0.735275345,1.55144273 1.36979528,0.917431193 2.15138399,0.917431193 Z"/>
      </g>
      <g transform="translate(33.006 21.936)">
        <path fill="#1655A9" d="M3.5,-3.55271368e-15 C5.43165365,-3.55271368e-15 7,1.56825521 7,3.5 C7,5.43165365 5.43165365,7 3.5,7 C1.56825521,7 -7.10542736e-15,5.43165365 -7.10542736e-15,3.5 C-7.10542736e-15,1.56825521 1.56825521,-3.55271368e-15 3.5,-3.55271368e-15 Z"/>
        <path fill="#FFFFFF" d="M2.15138399,0.917431193 C2.93289895,0.917431193 3.56749263,1.55144273 3.56749263,2.33240523 C3.56749263,3.11336772 2.93289895,3.74737926 2.15138399,3.74737926 C1.36979528,3.74737926 0.735275345,3.11336772 0.735275345,2.33240523 C0.735275345,1.55144273 1.36979528,0.917431193 2.15138399,0.917431193 Z"/>
      </g>
      <mask id="d" fill="white">
        <use xlink:href="#c"/>
      </mask>
      <use fill="#297BCC" xlink:href="#c"/>
      <g transform="translate(22.61 40.734)" mask="url(#d)">
        <mask id="f" fill="white">
          <use xlink:href="#e"/>
        </mask>
        <use fill="#82C2DC" xlink:href="#e"/>
        <path fill="#2268AC" d="M6.46398114,5.01259276 C6.46398114,5.01259276 9.9651446,4.39984294 10.3720151,2.91541517 C10.7788855,1.4309874 10.075579,0.120665735 10.075579,0.120665735 C10.075579,0.120665735 12.4955578,0.426339462 13.5864066,1.0781856 C14.6772553,1.73003175 15.8417129,2.72078349 15.8417129,2.72078349 C15.8417129,2.72078349 13.0245703,4.08014553 11.4124999,4.54636915 C9.80042955,5.01259276 6.46398114,5.01259276 6.46398114,5.01259276 Z" opacity=".165" style="mix-blend-mode:multiply" mask="url(#f)"/>
      </g>
      <path fill="#2268AC" d="M22.3892668,45.1329226 C22.3892668,45.1329226 19.5153134,42.5759914 26.598442,40.2987027 C29.3384771,39.4177571 36.6735386,40.0900368 36.9221117,40.1434417 C39.8760557,40.7780842 41.9442487,41.6984715 41.9442487,41.6984715 C41.9442487,41.6984715 47.4865024,37.4569819 45.8242416,36.2128994 C44.1619808,34.968817 31.9077621,37.9641934 29.8479107,37.9641934 C27.7880593,37.9641934 12.0953171,35.5383356 11.6782481,36.8386034 C11.261179,38.1388711 13.3157231,41.0491239 16.6140347,42.5759914 C19.9123463,44.1028589 22.3892668,45.1329226 22.3892668,45.1329226 Z" opacity=".522" style="mix-blend-mode:multiply" mask="url(#d)"/>
    </g>
  </g>
</svg>
