<svg xmlns="http://www.w3.org/2000/svg" width="64" height="64" viewBox="0 0 64 64" xmlns:xlink="http://www.w3.org/1999/xlink">
  <defs>
    <path id="a" d="M15.678809,26.5944969 C15.4573469,26.3730348 15.4573469,26.0139739 15.678809,25.7925118 C15.900271,25.5710497 16.259332,25.5710497 16.4807941,25.7925118 L20.0765689,29.3882866 C20.3294593,29.641177 20.7400629,29.6406227 20.9951901,29.3854955 L24.743496,25.6371896 C24.9649581,25.4157275 25.324019,25.4157275 25.5454811,25.6371896 C25.7669431,25.8586516 25.7669431,26.2177126 25.5454811,26.4391747 L21.7971751,30.1874806 C21.0996079,30.8850478 19.9708839,30.8865718 19.2745838,30.1902717 L15.678809,26.5944969 Z M21.1271323,27.5626996 C21.1271323,27.8758942 20.8732379,28.1297887 20.5600432,28.1297887 C20.2468486,28.1297887 19.9929542,27.8758942 19.9929542,27.5626996 C19.9929542,27.2025754 19.9735376,26.8450056 19.9350157,26.4910406 C19.901131,26.1796844 20.126066,25.8998112 20.4374223,25.8659264 C20.7487785,25.8320416 21.0286517,26.0569767 21.0625365,26.368333 C21.1054915,26.7630326 21.1271323,27.161565 21.1271323,27.5626996 Z M20.539702,24.0219497 C20.6413789,24.3181805 20.4836619,24.6407485 20.187431,24.7424254 C19.8912002,24.8441024 19.5686323,24.6863853 19.4669553,24.3901545 C19.3507742,24.0516664 19.2160477,23.7205029 19.0635129,23.3980433 C18.9295885,23.1149264 19.050533,22.7768477 19.3336499,22.6429234 C19.6167668,22.5089991 19.9548455,22.6299436 20.0887698,22.9130605 C20.2592649,23.2734883 20.4098511,23.6436356 20.539702,24.0219497 Z M18.8233039,20.8669518 C19.0168214,21.1132075 18.9740686,21.4697141 18.7278128,21.6632316 C18.4815571,21.856749 18.1250505,21.8139962 17.931533,21.5677404 C17.7105572,21.2865432 17.4742463,21.0181851 17.2238311,20.7640223 C17.00402,20.5409216 17.0066867,20.1818705 17.2297875,19.9620594 C17.4528883,19.7422482 17.8119393,19.744915 18.0317505,19.9680157 C18.3118781,20.2523357 18.5761824,20.5524836 18.8233039,20.8669518 Z M16.1023022,18.4202081 C16.3678922,18.5861985 16.4486337,18.9360636 16.2826433,19.2016536 C16.116653,19.4672437 15.7667879,19.5479852 15.5011978,19.3819948 C15.1985122,19.1928202 14.8855379,19.021336 14.5637103,18.8684711 C14.2808075,18.7340951 14.1604028,18.3958238 14.2947788,18.1129211 C14.4291548,17.8300183 14.7674261,17.7096136 15.0503289,17.8439896 C15.4115685,18.0155748 15.7627627,18.2080003 16.1023022,18.4202081 Z M12.8290301,17.0844912 C13.135006,17.1513465 13.3288516,17.4535859 13.2619963,17.7595618 C13.1951411,18.0655377 12.8929016,18.2593833 12.5869257,18.192528 C12.2398878,18.1167007 11.8878058,18.0609571 11.5318783,18.0257397 C11.2202056,17.9949011 10.9925445,17.7172409 11.0233831,17.4055682 C11.0542217,17.0938955 11.3318819,16.8662344 11.6435547,16.897073 C12.0433791,16.9366338 12.4390096,16.9992723 12.8290301,17.0844912 Z M9.21175943,16.9414473 C9.52208761,16.8991707 9.80793029,17.1164694 9.85020691,17.4267976 C9.89248354,17.7371258 9.67518482,18.0229684 9.36485664,18.0652451 C9.01082481,18.1134755 8.66112653,18.1821549 8.31700029,18.2707964 C8.01370578,18.3489202 7.70450511,18.1663833 7.62638125,17.8630888 C7.54825739,17.5597943 7.73079425,17.2505937 8.03408876,17.1724698 C8.42088942,17.0728361 8.81393096,16.9956443 9.21175943,16.9414473 Z M5.75746848,18.0579567 C6.0339216,17.9107678 6.37735129,18.0155572 6.52454017,18.2920103 C6.67172906,18.5684634 6.56693969,18.9118931 6.29048657,19.059082 C5.97603825,19.2265003 5.67114907,19.4120775 5.37725432,19.614817 C5.11945039,19.7926597 4.76628902,19.7278383 4.58844632,19.4700344 C4.41060361,19.2122305 4.47542499,18.8590691 4.73322892,18.6812264 C5.06273925,18.453918 5.40468639,18.2457846 5.75746848,18.0579567 Z M2.92278507,20.2613966 C3.13399979,20.0301408 3.492693,20.0138943 3.72394878,20.225109 C3.95520456,20.4363237 3.97145105,20.7950169 3.76023634,21.0262727 C3.51961197,21.2897287 3.29359966,21.5667898 3.08338227,21.8560752 C2.89926858,22.1094387 2.54462328,22.1655767 2.29125983,21.981463 C2.03789637,21.7973493 1.98175834,21.442704 2.16587203,21.1893405 C2.40092669,20.8658759 2.65366697,20.5560499 2.92278507,20.2613966 Z M0.939892943,23.3721286 C1.06046223,23.0830716 1.39252994,22.9464853 1.68158692,23.0670546 C1.9706439,23.1876239 2.10723016,23.5196916 1.98666087,23.8087486 C1.84936086,24.1379164 1.73020838,24.4750229 1.62987031,24.8187188 C1.54210048,25.1193637 1.22722814,25.291933 0.926583253,25.2041632 C0.625938363,25.1163934 0.453369027,24.801521 0.541138854,24.5008761 C0.653268727,24.1167888 0.786436233,23.740031 0.939892943,23.3721286 Z M0.13421818,26.767804 C0.156700527,26.4554174 0.428165509,26.2204035 0.740552186,26.2428858 C1.05293886,26.2653682 1.28795276,26.5368331 1.26547041,26.8492198 C1.24875448,27.0814835 1.2402044,27.3151054 1.23990215,27.549799 C1.2394988,27.8629934 0.985277603,28.1165607 0.672083207,28.1161573 C0.358888811,28.115754 0.105321565,27.8615328 0.105724911,27.5483384 C0.106061524,27.2869613 0.115587612,27.0266712 0.13421818,26.767804 Z"/>
    <path id="b" d="M52.678809,26.5944969 C52.4573469,26.3730348 52.4573469,26.0139739 52.678809,25.7925118 C52.900271,25.5710497 53.259332,25.5710497 53.4807941,25.7925118 L57.0765689,29.3882866 C57.3294593,29.641177 57.7400629,29.6406227 57.9951901,29.3854955 L61.743496,25.6371896 C61.9649581,25.4157275 62.324019,25.4157275 62.5454811,25.6371896 C62.7669431,25.8586516 62.7669431,26.2177126 62.5454811,26.4391747 L58.7971751,30.1874806 C58.0996079,30.8850478 56.9708839,30.8865718 56.2745838,30.1902717 L52.678809,26.5944969 Z M58.1271323,27.5626996 C58.1271323,27.8758942 57.8732379,28.1297887 57.5600432,28.1297887 C57.2468486,28.1297887 56.9929542,27.8758942 56.9929542,27.5626996 C56.9929542,27.2025754 56.9735376,26.8450056 56.9350157,26.4910406 C56.901131,26.1796844 57.126066,25.8998112 57.4374223,25.8659264 C57.7487785,25.8320416 58.0286517,26.0569767 58.0625365,26.368333 C58.1054915,26.7630326 58.1271323,27.161565 58.1271323,27.5626996 Z M57.539702,24.0219497 C57.6413789,24.3181805 57.4836619,24.6407485 57.187431,24.7424254 C56.8912002,24.8441024 56.5686323,24.6863853 56.4669553,24.3901545 C56.3507742,24.0516664 56.2160477,23.7205029 56.0635129,23.3980433 C55.9295885,23.1149264 56.050533,22.7768477 56.3336499,22.6429234 C56.6167668,22.5089991 56.9548455,22.6299436 57.0887698,22.9130605 C57.2592649,23.2734883 57.4098511,23.6436356 57.539702,24.0219497 Z M55.8233039,20.8669518 C56.0168214,21.1132075 55.9740686,21.4697141 55.7278128,21.6632316 C55.4815571,21.856749 55.1250505,21.8139962 54.931533,21.5677404 C54.7105572,21.2865432 54.4742463,21.0181851 54.2238311,20.7640223 C54.00402,20.5409216 54.0066867,20.1818705 54.2297875,19.9620594 C54.4528883,19.7422482 54.8119393,19.744915 55.0317505,19.9680157 C55.3118781,20.2523357 55.5761824,20.5524836 55.8233039,20.8669518 Z M53.1023022,18.4202081 C53.3678922,18.5861985 53.4486337,18.9360636 53.2826433,19.2016536 C53.116653,19.4672437 52.7667879,19.5479852 52.5011978,19.3819948 C52.1985122,19.1928202 51.8855379,19.021336 51.5637103,18.8684711 C51.2808075,18.7340951 51.1604028,18.3958238 51.2947788,18.1129211 C51.4291548,17.8300183 51.7674261,17.7096136 52.0503289,17.8439896 C52.4115685,18.0155748 52.7627627,18.2080003 53.1023022,18.4202081 Z M49.8290301,17.0844912 C50.135006,17.1513465 50.3288516,17.4535859 50.2619963,17.7595618 C50.1951411,18.0655377 49.8929016,18.2593833 49.5869257,18.192528 C49.2398878,18.1167007 48.8878058,18.0609571 48.5318783,18.0257397 C48.2202056,17.9949011 47.9925445,17.7172409 48.0233831,17.4055682 C48.0542217,17.0938955 48.3318819,16.8662344 48.6435547,16.897073 C49.0433791,16.9366338 49.4390096,16.9992723 49.8290301,17.0844912 Z M46.2117594,16.9414473 C46.5220876,16.8991707 46.8079303,17.1164694 46.8502069,17.4267976 C46.8924835,17.7371258 46.6751848,18.0229684 46.3648566,18.0652451 C46.0108248,18.1134755 45.6611265,18.1821549 45.3170003,18.2707964 C45.0137058,18.3489202 44.7045051,18.1663833 44.6263812,17.8630888 C44.5482574,17.5597943 44.7307943,17.2505937 45.0340888,17.1724698 C45.4208894,17.0728361 45.813931,16.9956443 46.2117594,16.9414473 Z M42.7574685,18.0579567 C43.0339216,17.9107678 43.3773513,18.0155572 43.5245402,18.2920103 C43.6717291,18.5684634 43.5669397,18.9118931 43.2904866,19.059082 C42.9760383,19.2265003 42.6711491,19.4120775 42.3772543,19.614817 C42.1194504,19.7926597 41.766289,19.7278383 41.5884463,19.4700344 C41.4106036,19.2122305 41.475425,18.8590691 41.7332289,18.6812264 C42.0627393,18.453918 42.4046864,18.2457846 42.7574685,18.0579567 Z M39.9227851,20.2613966 C40.1339998,20.0301408 40.492693,20.0138943 40.7239488,20.225109 C40.9552046,20.4363237 40.9714511,20.7950169 40.7602363,21.0262727 C40.519612,21.2897287 40.2935997,21.5667898 40.0833823,21.8560752 C39.8992686,22.1094387 39.5446233,22.1655767 39.2912598,21.981463 C39.0378964,21.7973493 38.9817583,21.442704 39.165872,21.1893405 C39.4009267,20.8658759 39.653667,20.5560499 39.9227851,20.2613966 Z M37.9398929,23.3721286 C38.0604622,23.0830716 38.3925299,22.9464853 38.6815869,23.0670546 C38.9706439,23.1876239 39.1072302,23.5196916 38.9866609,23.8087486 C38.8493609,24.1379164 38.7302084,24.4750229 38.6298703,24.8187188 C38.5421005,25.1193637 38.2272281,25.291933 37.9265833,25.2041632 C37.6259384,25.1163934 37.453369,24.801521 37.5411389,24.5008761 C37.6532687,24.1167888 37.7864362,23.740031 37.9398929,23.3721286 Z M37.1342182,26.767804 C37.1567005,26.4554174 37.4281655,26.2204035 37.7405522,26.2428858 C38.0529389,26.2653682 38.2879528,26.5368331 38.2654704,26.8492198 C38.2487545,27.0814835 38.2402044,27.3151054 38.2399021,27.549799 C38.2394988,27.8629934 37.9852776,28.1165607 37.6720832,28.1161573 C37.3588888,28.115754 37.1053216,27.8615328 37.1057249,27.5483384 C37.1060615,27.2869613 37.1155876,27.0266712 37.1342182,26.767804 Z"/>
  </defs>
  <g fill="none" fill-rule="evenodd">
    <circle cx="32" cy="32" r="32" fill="#DCEEF5"/>
    <circle cx="32" cy="32" r="30" stroke="#2DBBE9" stroke-width="4"/>
    <g transform="translate(1 29)">
      <g stroke="#133A51">
        <path fill="#FFFFFF" stroke-width="2" d="M18.1596524,1.77635684e-15 L1.8,1.77635684e-15 L1.8,2.88657986e-15 C0.80588745,3.06919538e-15 3.19730981e-16,0.80588745 0,1.8 L0,1.8 L6.66133815e-16,23.2 C7.8787749e-16,24.1941125 0.80588745,25 1.8,25 L22.2,25 C23.1941125,25 24,24.1941125 24,23.2 L24,5.84034756 L18.1596524,1.16573418e-15 Z" stroke-linecap="round" stroke-linejoin="round"/>
        <path fill="#DCEEF5" d="M18.215193,0.24193701 L18.215193,3.93149639 L18.215193,3.93149639 C18.215193,4.92560894 19.0210804,5.73149639 20.015193,5.73149639 L23.9678107,5.73149639 L18.215193,0.24193701 Z"/>
      </g>
      <rect width="22" height="8" x="1" y="6" fill="#FFE2DC"/>
      <rect width="14" height="2" x="4" y="18" fill="#8EA6BB"/>
      <rect width="14" height="2" x="4" y="9" fill="#F25335"/>
    </g>
    <g transform="translate(39 29)">
      <g stroke="#133A51">
        <path fill="#FFFFFF" stroke-width="2" d="M18.1596524,1.77635684e-15 L1.8,1.77635684e-15 L1.8,2.88657986e-15 C0.80588745,3.06919538e-15 3.19730981e-16,0.80588745 0,1.8 L0,1.8 L6.66133815e-16,23.2 C7.8787749e-16,24.1941125 0.80588745,25 1.8,25 L22.2,25 C23.1941125,25 24,24.1941125 24,23.2 L24,5.84034756 L18.1596524,1.16573418e-15 Z" stroke-linecap="round" stroke-linejoin="round"/>
        <path fill="#DCEEF5" d="M18.215193,0.24193701 L18.215193,3.93149639 L18.215193,3.93149639 C18.215193,4.92560894 19.0210804,5.73149639 20.015193,5.73149639 L23.9678107,5.73149639 L18.215193,0.24193701 Z"/>
      </g>
      <rect width="22" height="8" x="1" y="6" fill="#FFE2DC"/>
      <rect width="14" height="2" x="4" y="18" fill="#8EA6BB"/>
      <rect width="14" height="2" x="4" y="9" fill="#F25335"/>
    </g>
    <g transform="translate(20 1)">
      <g stroke="#133A51">
        <path fill="#FFFFFF" stroke-width="2" d="M18.1596524,1.77635684e-15 L1.8,1.77635684e-15 L1.8,2.88657986e-15 C0.80588745,3.06919538e-15 3.19730981e-16,0.80588745 0,1.8 L0,1.8 L6.66133815e-16,23.2 C7.8787749e-16,24.1941125 0.80588745,25 1.8,25 L22.2,25 C23.1941125,25 24,24.1941125 24,23.2 L24,5.84034756 L18.1596524,1.16573418e-15 Z" stroke-linecap="round" stroke-linejoin="round"/>
        <path fill="#DCEEF5" d="M18.215193,0.24193701 L18.215193,3.93149639 L18.215193,3.93149639 C18.215193,4.92560894 19.0210804,5.73149639 20.015193,5.73149639 L23.9678107,5.73149639 L18.215193,0.24193701 Z"/>
      </g>
      <rect width="22" height="8" x="1" y="13" fill="#CEF3ED"/>
      <rect width="14" height="2" x="4" y="8" fill="#8EA6BB"/>
      <rect width="14" height="2" x="4" y="16" fill="#009E81"/>
    </g>
    <g fill-rule="nonzero" transform="rotate(-90 12.909 23.803)">
      <use fill="#F43D02" fill-rule="evenodd" xlink:href="#a"/>
      <path stroke="#FFFFFF" d="M15.3252556,26.9480503 C14.9085314,26.5313261 14.9085314,25.8556826 15.3252556,25.4389584 C15.7419798,25.0222342 16.4176232,25.0222342 16.8343474,25.4389584 L20.4301223,29.0347332 C20.48759,29.0922009 20.5816145,29.0919643 20.6416367,29.0319421 L24.3899426,25.2836362 C24.8066668,24.866912 25.4823103,24.866912 25.8990345,25.2836362 C26.3157587,25.7003604 26.3157587,26.3760038 25.8990345,26.792728 L22.1507285,30.541034 C21.2579909,31.4337716 19.812685,31.4354797 18.9210304,30.5438251 L15.3252556,26.9480503 Z M21.6271323,27.5626996 C21.6271323,28.1520366 21.1493803,28.6297887 20.5600432,28.6297887 C19.9707062,28.6297887 19.4929542,28.1520366 19.4929542,27.5626996 C19.4929542,27.2212127 19.4745782,26.881695 19.4379507,26.545136 C19.3741898,25.9592583 19.7974492,25.4326222 20.3833269,25.3688614 C20.9692046,25.3051005 21.4958407,25.7283599 21.5596015,26.3142376 C21.6045785,26.7275165 21.6271323,27.1441133 21.6271323,27.5626996 Z M21.01262,23.8596274 C21.2039451,24.4170436 20.9071696,25.0240184 20.3497533,25.2153434 C19.7923371,25.4066685 19.1853624,25.109893 18.9940373,24.5524768 C18.8839952,24.2318746 18.7562964,23.9178828 18.6115306,23.611847 C18.3595258,23.0791071 18.5871064,22.4429459 19.1198463,22.1909411 C19.6525861,21.9389363 20.2887473,22.166517 20.5407521,22.6992568 C20.7193467,23.076807 20.8768808,23.4641578 21.01262,23.8596274 Z M19.2164392,20.5580106 C19.5805802,21.0213889 19.5001324,21.6922259 19.036754,22.0563668 C18.5733756,22.4205078 17.9025387,22.34006 17.5383977,21.8766816 C17.3289841,21.6101976 17.1050189,21.3558496 16.8676616,21.1149401 C16.4540439,20.6951324 16.459062,20.0195076 16.8788697,19.6058899 C17.2986775,19.1922722 17.9743023,19.1972902 18.38792,19.617098 C18.6811857,19.9147526 18.9578262,20.2289191 19.2164392,20.5580106 Z M16.3672978,17.9962065 C16.8670574,18.3085499 17.0189883,18.9668895 16.7066449,19.4666492 C16.3943015,19.9664089 15.7359619,20.1183398 15.2362022,19.8059964 C14.9495453,19.6268395 14.6534073,19.4646139 14.3491856,19.3201116 C13.8168486,19.0672569 13.5902836,18.4307333 13.8431383,17.8983963 C14.0959931,17.3660594 14.7325167,17.1394943 15.2648536,17.3923491 C15.6431506,17.5720364 16.0112123,17.7736576 16.3672978,17.9962065 Z M12.9357613,16.5960156 C13.5115149,16.7218169 13.8762733,17.2905394 13.750472,17.866293 C13.6246707,18.4420466 13.0559481,18.806805 12.4801945,18.6810037 C12.1516098,18.6092084 11.8187164,18.5565626 11.482646,18.52331 C10.8961728,18.4652812 10.467784,17.9428091 10.5258128,17.3563359 C10.5838417,16.7698627 11.1063138,16.3414739 11.6927869,16.3995027 C12.1113581,16.4409184 12.5261984,16.5065267 12.9357613,16.5960156 Z M9.14426686,16.4460235 C9.72821006,16.3664718 10.266079,16.7753618 10.3456307,17.359305 C10.4251825,17.9432482 10.0162924,18.4811171 9.43234922,18.5606689 C9.0981051,18.6062036 8.76750404,18.6710747 8.44172122,18.7549912 C7.87101327,18.9019966 7.28919169,18.5585177 7.14218636,17.9878098 C6.99518103,17.4171018 7.33865987,16.8352803 7.90936782,16.6882749 C8.31555298,16.5836481 8.72771548,16.5027711 9.14426686,16.4460235 Z M5.52248861,17.6166128 C6.04268924,17.3396481 6.68891941,17.5368298 6.9658841,18.0570304 C7.24284878,18.5772311 7.04566708,19.2234612 6.52546645,19.5004259 C6.22810899,19.6587447 5.93954485,19.8343562 5.66117152,20.0263884 C5.17606298,20.3610343 4.51152076,20.2390602 4.17687491,19.7539516 C3.84222907,19.2688431 3.96420318,18.6043008 4.44931172,18.269655 C4.79477379,18.0313425 5.15307497,17.8132956 5.52248861,17.6166128 Z M2.55359649,19.9242026 C2.95103831,19.4890496 3.62598977,19.4584786 4.06114277,19.8559204 C4.49629578,20.2533623 4.52686673,20.9283137 4.12942492,21.3634667 C3.90129933,21.613238 3.68707794,21.8758614 3.48786468,22.1500037 C3.14141875,22.6267567 2.47408422,22.7323913 1.99733129,22.3859454 C1.52057837,22.0394995 1.41494369,21.3721649 1.76138962,20.895412 C2.00733357,20.5569624 2.27184801,20.2326847 2.55359649,19.9242026 Z M0.478427563,23.1796456 C0.705302273,22.6357283 1.33015264,22.3787145 1.87406991,22.6055893 C2.41798718,22.832464 2.67500096,23.4573143 2.44812625,24.0012316 C2.31780152,24.3136766 2.20486772,24.6333167 2.10983522,24.958839 C1.94467912,25.5245612 1.3521852,25.8492842 0.786463004,25.6841281 C0.220740813,25.518972 -0.10398216,24.9264781 0.0611739427,24.3607559 C0.178371991,23.9593082 0.317669254,23.5650531 0.478427563,23.1796456 Z M-0.364491923,26.7319121 C-0.322186987,26.1440954 0.188627496,25.7018708 0.776444158,25.7441757 C1.36426082,25.7864806 1.80648545,26.2972951 1.76418051,26.8851118 C1.74829141,27.105887 1.74018852,27.3277537 1.73990173,27.5504429 C1.73914276,28.1397795 1.26077583,28.6169159 0.671439284,28.6161569 C0.0821027424,28.6153979 -0.395033649,28.137031 -0.394274674,27.5476944 C-0.393923259,27.2748236 -0.383985849,27.0027754 -0.364491923,26.7319121 Z"/>
      <path stroke="#F43D02" stroke-width=".3" d="M15.572743,26.7005629 C15.2927022,26.4205222 15.2927022,25.9664865 15.572743,25.6864458 C15.8527837,25.4064051 16.3068194,25.4064051 16.5868601,25.6864458 L20.1826349,29.2822206 C20.3770657,29.4766515 20.6926965,29.475857 20.889124,29.2794295 L24.63743,25.5311236 C24.9174707,25.2510829 25.3715064,25.2510829 25.6515471,25.5311236 C25.9315878,25.8111643 25.9315878,26.2652 25.6515471,26.5452407 L21.9032412,30.2935466 C21.1470562,31.0497315 19.9233578,31.0511777 19.1685178,30.2963377 L15.572743,26.7005629 Z M21.2771323,27.5626996 C21.2771323,27.9587369 20.9560806,28.2797887 20.5600432,28.2797887 C20.1640059,28.2797887 19.8429542,27.9587369 19.8429542,27.5626996 C19.8429542,27.2085778 19.8238941,26.8564192 19.7858962,26.5072692 C19.7430486,26.1135565 20.027481,25.7596545 20.4211937,25.7168069 C20.8149063,25.6739593 21.1688084,25.9583917 21.211656,26.3521043 C21.2552629,26.7527939 21.2771323,27.1567499 21.2771323,27.5626996 Z M20.6815774,23.973253 C20.8101488,24.3478394 20.6107142,24.7557294 20.2361277,24.8843008 C19.8615413,25.0128722 19.4536513,24.8134376 19.3250799,24.4388512 C19.2108238,24.1059716 19.0782321,23.779949 18.9279182,23.4621844 C18.7585697,23.1041806 18.911505,22.6766772 19.2695088,22.5073287 C19.6275126,22.3379803 20.055016,22.4909156 20.2243645,22.8489194 C20.397411,23.2147409 20.5500522,23.5900609 20.6815774,23.973253 Z M18.9412445,20.7742694 C19.185949,21.0856619 19.1318877,21.5364676 18.8204952,21.7811721 C18.5091026,22.0258766 18.0582969,21.9718153 17.8135924,21.6604228 C17.5961118,21.3836733 17.3635082,21.119515 17.1169803,20.8692977 C16.8390272,20.5871848 16.8423993,20.1331616 17.1245122,19.8552085 C17.406625,19.5772554 17.8606482,19.5806276 18.1386013,19.8627404 C18.4226967,20.1510875 18.6906988,20.4554438 18.9412445,20.7742694 Z M16.1818009,18.2930076 C16.5176418,18.5029039 16.6197401,18.9453113 16.4098438,19.2811523 C16.1999475,19.6169932 15.7575401,19.7190916 15.4216991,19.5091953 C15.1236608,19.3229251 14.8157276,19.1542381 14.4993529,19.0039633 C14.1416199,18.8340437 13.989367,18.4062967 14.1592867,18.0485636 C14.3292063,17.6908306 14.7569533,17.5385778 15.1146863,17.7084974 C15.4808312,17.8824126 15.8370977,18.0775726 16.1818009,18.2930076 Z M12.8610495,16.9379485 C13.2479587,17.0224876 13.4930781,17.404672 13.408539,17.7915812 C13.3239999,18.1784904 12.9418156,18.4236098 12.5549064,18.3390707 C12.2130375,18.2643729 11.8667049,18.2096017 11.5171086,18.1750108 C11.1229957,18.1360151 10.8351164,17.7849113 10.874112,17.3907985 C10.9131077,16.9966856 11.2642115,16.7088063 11.6583243,16.7478019 C12.0633688,16.7878792 12.4647699,16.851362 12.8610495,16.9379485 Z M9.19151166,16.7928202 C9.58392435,16.739361 9.9453749,17.0141371 9.99883406,17.4065498 C10.0522932,17.7989625 9.7775171,18.160413 9.38510442,18.2138722 C9.03736443,18.2612455 8.69338737,18.3287413 8.35441657,18.4160548 C7.97089803,18.5148431 7.57991108,18.2840237 7.48112278,17.9005051 C7.38233448,17.5169866 7.61315394,17.1259996 7.99667247,17.0272113 C8.3896701,16.9259814 8.78845661,16.8477292 9.19151166,16.7928202 Z M5.68697452,17.9255535 C6.03655189,17.7394319 6.47082173,17.871939 6.65694335,18.2215163 C6.84306497,18.5710937 6.71055791,19.0053636 6.36098054,19.1914852 C6.05180119,19.3560981 5.7518006,19.5386695 5.46242948,19.7382884 C5.13643417,19.9631721 4.68985854,19.8812049 4.46497489,19.5552096 C4.24009125,19.2292143 4.32205845,18.7826386 4.64805376,18.557755 C4.98251716,18.3270297 5.32938182,18.1159427 5.68697452,17.9255535 Z M2.8120285,20.1602384 C3.07911134,19.8678134 3.53268203,19.8472696 3.82510698,20.1143524 C4.11753192,20.3814353 4.13807576,20.835006 3.87099291,21.1274309 C3.63407193,21.3868321 3.41160278,21.6595668 3.204727,21.9442538 C2.97191363,22.2646341 2.52346156,22.3356211 2.20308127,22.1028077 C1.88270097,21.8699944 1.81171395,21.4215423 2.04452731,21.101162 C2.2828085,20.7732573 2.53907515,20.4590908 2.8120285,20.1602384 Z M0.801453329,23.3143837 C0.953914245,22.9488686 1.37381675,22.7761541 1.73933182,22.928615 C2.10484689,23.0810759 2.2775614,23.5009784 2.12510049,23.8664935 C1.98978428,24.1909053 1.87252704,24.5227821 1.77385978,24.8607549 C1.66287407,25.2409229 1.26471526,25.4591384 0.884547179,25.3481527 C0.504379098,25.2371669 0.286163671,24.8390081 0.39714938,24.45884 C0.510712609,24.069843 0.64568641,23.6878247 0.801453329,23.3143837 Z M-0.0153948511,26.7570364 C0.0130342731,26.3620208 0.356304105,26.0648437 0.751319778,26.0932728 C1.14633545,26.1217019 1.44351257,26.4649717 1.41508344,26.8599874 C1.39860285,27.0889811 1.39019941,27.3190775 1.38990202,27.5499922 C1.38939199,27.9460292 1.06792707,28.2666672 0.67189003,28.2661572 C0.27585299,28.2656471 -0.0447849994,27.9441822 -0.0442749646,27.5481452 C-0.043934143,27.2835005 -0.0342973478,27.019682 -0.0153948511,26.7570364 Z"/>
    </g>
    <g fill-rule="nonzero" transform="matrix(0 -1 -1 0 73.712 73.712)">
      <use fill="#F43D02" fill-rule="evenodd" xlink:href="#b"/>
      <path stroke="#FFFFFF" d="M52.3252556,26.9480503 C51.9085314,26.5313261 51.9085314,25.8556826 52.3252556,25.4389584 C52.7419798,25.0222342 53.4176232,25.0222342 53.8343474,25.4389584 L57.4301223,29.0347332 C57.48759,29.0922009 57.5816145,29.0919643 57.6416367,29.0319421 L61.3899426,25.2836362 C61.8066668,24.866912 62.4823103,24.866912 62.8990345,25.2836362 C63.3157587,25.7003604 63.3157587,26.3760038 62.8990345,26.792728 L59.1507285,30.541034 C58.2579909,31.4337716 56.812685,31.4354797 55.9210304,30.5438251 L52.3252556,26.9480503 Z M58.6271323,27.5626996 C58.6271323,28.1520366 58.1493803,28.6297887 57.5600432,28.6297887 C56.9707062,28.6297887 56.4929542,28.1520366 56.4929542,27.5626996 C56.4929542,27.2212127 56.4745782,26.881695 56.4379507,26.545136 C56.3741898,25.9592583 56.7974492,25.4326222 57.3833269,25.3688614 C57.9692046,25.3051005 58.4958407,25.7283599 58.5596015,26.3142376 C58.6045785,26.7275165 58.6271323,27.1441133 58.6271323,27.5626996 Z M58.01262,23.8596274 C58.2039451,24.4170436 57.9071696,25.0240184 57.3497533,25.2153434 C56.7923371,25.4066685 56.1853624,25.109893 55.9940373,24.5524768 C55.8839952,24.2318746 55.7562964,23.9178828 55.6115306,23.611847 C55.3595258,23.0791071 55.5871064,22.4429459 56.1198463,22.1909411 C56.6525861,21.9389363 57.2887473,22.166517 57.5407521,22.6992568 C57.7193467,23.076807 57.8768808,23.4641578 58.01262,23.8596274 Z M56.2164392,20.5580106 C56.5805802,21.0213889 56.5001324,21.6922259 56.036754,22.0563668 C55.5733756,22.4205078 54.9025387,22.34006 54.5383977,21.8766816 C54.3289841,21.6101976 54.1050189,21.3558496 53.8676616,21.1149401 C53.4540439,20.6951324 53.459062,20.0195076 53.8788697,19.6058899 C54.2986775,19.1922722 54.9743023,19.1972902 55.38792,19.617098 C55.6811857,19.9147526 55.9578262,20.2289191 56.2164392,20.5580106 Z M53.3672978,17.9962065 C53.8670574,18.3085499 54.0189883,18.9668895 53.7066449,19.4666492 C53.3943015,19.9664089 52.7359619,20.1183398 52.2362022,19.8059964 C51.9495453,19.6268395 51.6534073,19.4646139 51.3491856,19.3201116 C50.8168486,19.0672569 50.5902836,18.4307333 50.8431383,17.8983963 C51.0959931,17.3660594 51.7325167,17.1394943 52.2648536,17.3923491 C52.6431506,17.5720364 53.0112123,17.7736576 53.3672978,17.9962065 Z M49.9357613,16.5960156 C50.5115149,16.7218169 50.8762733,17.2905394 50.750472,17.866293 C50.6246707,18.4420466 50.0559481,18.806805 49.4801945,18.6810037 C49.1516098,18.6092084 48.8187164,18.5565626 48.482646,18.52331 C47.8961728,18.4652812 47.467784,17.9428091 47.5258128,17.3563359 C47.5838417,16.7698627 48.1063138,16.3414739 48.6927869,16.3995027 C49.1113581,16.4409184 49.5261984,16.5065267 49.9357613,16.5960156 Z M46.1442669,16.4460235 C46.7282101,16.3664718 47.266079,16.7753618 47.3456307,17.359305 C47.4251825,17.9432482 47.0162924,18.4811171 46.4323492,18.5606689 C46.0981051,18.6062036 45.767504,18.6710747 45.4417212,18.7549912 C44.8710133,18.9019966 44.2891917,18.5585177 44.1421864,17.9878098 C43.995181,17.4171018 44.3386599,16.8352803 44.9093678,16.6882749 C45.315553,16.5836481 45.7277155,16.5027711 46.1442669,16.4460235 Z M42.5224886,17.6166128 C43.0426892,17.3396481 43.6889194,17.5368298 43.9658841,18.0570304 C44.2428488,18.5772311 44.0456671,19.2234612 43.5254664,19.5004259 C43.228109,19.6587447 42.9395448,19.8343562 42.6611715,20.0263884 C42.176063,20.3610343 41.5115208,20.2390602 41.1768749,19.7539516 C40.8422291,19.2688431 40.9642032,18.6043008 41.4493117,18.269655 C41.7947738,18.0313425 42.153075,17.8132956 42.5224886,17.6166128 Z M39.5535965,19.9242026 C39.9510383,19.4890496 40.6259898,19.4584786 41.0611428,19.8559204 C41.4962958,20.2533623 41.5268667,20.9283137 41.1294249,21.3634667 C40.9012993,21.613238 40.6870779,21.8758614 40.4878647,22.1500037 C40.1414187,22.6267567 39.4740842,22.7323913 38.9973313,22.3859454 C38.5205784,22.0394995 38.4149437,21.3721649 38.7613896,20.895412 C39.0073336,20.5569624 39.271848,20.2326847 39.5535965,19.9242026 Z M37.4784276,23.1796456 C37.7053023,22.6357283 38.3301526,22.3787145 38.8740699,22.6055893 C39.4179872,22.832464 39.675001,23.4573143 39.4481263,24.0012316 C39.3178015,24.3136766 39.2048677,24.6333167 39.1098352,24.958839 C38.9446791,25.5245612 38.3521852,25.8492842 37.786463,25.6841281 C37.2207408,25.518972 36.8960178,24.9264781 37.0611739,24.3607559 C37.178372,23.9593082 37.3176693,23.5650531 37.4784276,23.1796456 Z M36.6355081,26.7319121 C36.677813,26.1440954 37.1886275,25.7018708 37.7764442,25.7441757 C38.3642608,25.7864806 38.8064854,26.2972951 38.7641805,26.8851118 C38.7482914,27.105887 38.7401885,27.3277537 38.7399017,27.5504429 C38.7391428,28.1397795 38.2607758,28.6169159 37.6714393,28.6161569 C37.0821027,28.6153979 36.6049664,28.137031 36.6057253,27.5476944 C36.6060767,27.2748236 36.6160142,27.0027754 36.6355081,26.7319121 Z"/>
      <path stroke="#F43D02" stroke-width=".3" d="M52.572743,26.7005629 C52.2927022,26.4205222 52.2927022,25.9664865 52.572743,25.6864458 C52.8527837,25.4064051 53.3068194,25.4064051 53.5868601,25.6864458 L57.1826349,29.2822206 C57.3770657,29.4766515 57.6926965,29.475857 57.889124,29.2794295 L61.63743,25.5311236 C61.9174707,25.2510829 62.3715064,25.2510829 62.6515471,25.5311236 C62.9315878,25.8111643 62.9315878,26.2652 62.6515471,26.5452407 L58.9032412,30.2935466 C58.1470562,31.0497315 56.9233578,31.0511777 56.1685178,30.2963377 L52.572743,26.7005629 Z M58.2771323,27.5626996 C58.2771323,27.9587369 57.9560806,28.2797887 57.5600432,28.2797887 C57.1640059,28.2797887 56.8429542,27.9587369 56.8429542,27.5626996 C56.8429542,27.2085778 56.8238941,26.8564192 56.7858962,26.5072692 C56.7430486,26.1135565 57.027481,25.7596545 57.4211937,25.7168069 C57.8149063,25.6739593 58.1688084,25.9583917 58.211656,26.3521043 C58.2552629,26.7527939 58.2771323,27.1567499 58.2771323,27.5626996 Z M57.6815774,23.973253 C57.8101488,24.3478394 57.6107142,24.7557294 57.2361277,24.8843008 C56.8615413,25.0128722 56.4536513,24.8134376 56.3250799,24.4388512 C56.2108238,24.1059716 56.0782321,23.779949 55.9279182,23.4621844 C55.7585697,23.1041806 55.911505,22.6766772 56.2695088,22.5073287 C56.6275126,22.3379803 57.055016,22.4909156 57.2243645,22.8489194 C57.397411,23.2147409 57.5500522,23.5900609 57.6815774,23.973253 Z M55.9412445,20.7742694 C56.185949,21.0856619 56.1318877,21.5364676 55.8204952,21.7811721 C55.5091026,22.0258766 55.0582969,21.9718153 54.8135924,21.6604228 C54.5961118,21.3836733 54.3635082,21.119515 54.1169803,20.8692977 C53.8390272,20.5871848 53.8423993,20.1331616 54.1245122,19.8552085 C54.406625,19.5772554 54.8606482,19.5806276 55.1386013,19.8627404 C55.4226967,20.1510875 55.6906988,20.4554438 55.9412445,20.7742694 Z M53.1818009,18.2930076 C53.5176418,18.5029039 53.6197401,18.9453113 53.4098438,19.2811523 C53.1999475,19.6169932 52.7575401,19.7190916 52.4216991,19.5091953 C52.1236608,19.3229251 51.8157276,19.1542381 51.4993529,19.0039633 C51.1416199,18.8340437 50.989367,18.4062967 51.1592867,18.0485636 C51.3292063,17.6908306 51.7569533,17.5385778 52.1146863,17.7084974 C52.4808312,17.8824126 52.8370977,18.0775726 53.1818009,18.2930076 Z M49.8610495,16.9379485 C50.2479587,17.0224876 50.4930781,17.404672 50.408539,17.7915812 C50.3239999,18.1784904 49.9418156,18.4236098 49.5549064,18.3390707 C49.2130375,18.2643729 48.8667049,18.2096017 48.5171086,18.1750108 C48.1229957,18.1360151 47.8351164,17.7849113 47.874112,17.3907985 C47.9131077,16.9966856 48.2642115,16.7088063 48.6583243,16.7478019 C49.0633688,16.7878792 49.4647699,16.851362 49.8610495,16.9379485 Z M46.1915117,16.7928202 C46.5839243,16.739361 46.9453749,17.0141371 46.9988341,17.4065498 C47.0522932,17.7989625 46.7775171,18.160413 46.3851044,18.2138722 C46.0373644,18.2612455 45.6933874,18.3287413 45.3544166,18.4160548 C44.970898,18.5148431 44.5799111,18.2840237 44.4811228,17.9005051 C44.3823345,17.5169866 44.6131539,17.1259996 44.9966725,17.0272113 C45.3896701,16.9259814 45.7884566,16.8477292 46.1915117,16.7928202 Z M42.6869745,17.9255535 C43.0365519,17.7394319 43.4708217,17.871939 43.6569434,18.2215163 C43.843065,18.5710937 43.7105579,19.0053636 43.3609805,19.1914852 C43.0518012,19.3560981 42.7518006,19.5386695 42.4624295,19.7382884 C42.1364342,19.9631721 41.6898585,19.8812049 41.4649749,19.5552096 C41.2400912,19.2292143 41.3220584,18.7826386 41.6480538,18.557755 C41.9825172,18.3270297 42.3293818,18.1159427 42.6869745,17.9255535 Z M39.8120285,20.1602384 C40.0791113,19.8678134 40.532682,19.8472696 40.825107,20.1143524 C41.1175319,20.3814353 41.1380758,20.835006 40.8709929,21.1274309 C40.6340719,21.3868321 40.4116028,21.6595668 40.204727,21.9442538 C39.9719136,22.2646341 39.5234616,22.3356211 39.2030813,22.1028077 C38.882701,21.8699944 38.8117139,21.4215423 39.0445273,21.101162 C39.2828085,20.7732573 39.5390752,20.4590908 39.8120285,20.1602384 Z M37.8014533,23.3143837 C37.9539142,22.9488686 38.3738167,22.7761541 38.7393318,22.928615 C39.1048469,23.0810759 39.2775614,23.5009784 39.1251005,23.8664935 C38.9897843,24.1909053 38.872527,24.5227821 38.7738598,24.8607549 C38.6628741,25.2409229 38.2647153,25.4591384 37.8845472,25.3481527 C37.5043791,25.2371669 37.2861637,24.8390081 37.3971494,24.45884 C37.5107126,24.069843 37.6456864,23.6878247 37.8014533,23.3143837 Z M36.9846051,26.7570364 C37.0130343,26.3620208 37.3563041,26.0648437 37.7513198,26.0932728 C38.1463355,26.1217019 38.4435126,26.4649717 38.4150834,26.8599874 C38.3986029,27.0889811 38.3901994,27.3190775 38.389902,27.5499922 C38.389392,27.9460292 38.0679271,28.2666672 37.67189,28.2661572 C37.275853,28.2656471 36.955215,27.9441822 36.955725,27.5481452 C36.9560659,27.2835005 36.9657027,27.019682 36.9846051,26.7570364 Z"/>
    </g>
  </g>
</svg>
