<svg xmlns="http://www.w3.org/2000/svg" width="20" height="16" viewBox="0 0 20 16">
  <g fill="none" fill-rule="evenodd">
    <rect width="20" height="16" fill="#00FFFF"/>
    <path fill="#FF00FF" d="M13.1795324 6L6 6 6 7 12.798648 7 13.1795324 6zM12.0368791 9L6 9 6 10 11.6559946 10 12.0368791 9zM10.8942257 12L6 12 6 13 10.5133413 13 10.8942257 12zM6 3L17 3 17 4 6 4 6 3zM3.3500061 1.93579254L3.3500061 7 2.3500061 7 2.3500061 1.89263458.707106781 3.53553391-.77315973e-15 2.82842712 2.82842712.26485497e-14 5.65685425 2.82842712 4.94974747 3.53553391 3.3500061 1.93579254zM17.0342368 13.3186813L13.946505 13.3186813 13.4072753 15 11 15 14.4279601 6 16.5463623 6 20 15 17.5798859 15 17.0342368 13.3186813zM14.4857347 11.643544L16.4950071 11.643544 15.4871612 8.52197802 14.4857347 11.643544z"/>
  </g>
</svg>
