<svg xmlns="http://www.w3.org/2000/svg" width="16" height="16" viewBox="0 0 16 16">
  <g fill="none" fill-rule="evenodd">
    <rect width="16" height="16" fill="#00FFFF"/>
    <path fill="#FF00FF" d="M6.68220488 5L1 5 1 6 5.52778699 6C5.86798982 5.61989539 6.25593828 5.28341957 6.68220488 5L6.68220488 5zM4.34141142 8L1 8 1 9 4.08295844 9C4.14069617 8.65584819 4.22773125 8.32163077 4.34141142 8L4.34141142 8zM4.08295844 11L1 11 1 12 4.34141142 12C4.22773125 11.6783692 4.14069617 11.3441518 4.08295844 11L4.08295844 11zM1 2L12 2 12 3 1 3 1 2zM9.70520363 9.75780573L8.45260172 8.50520382 7.19999981 9.75780573 9.70520363 12.2630096 13.4630094 8.50520382 12.2104074 7.25260191 9.70520363 9.75780573 9.70520363 9.75780573zM10 15C7.23857625 15 5 12.7614237 5 10 5 7.23857625 7.23857625 5 10 5 12.7614237 5 15 7.23857625 15 10 15 12.7614237 12.7614237 15 10 15z"/>
  </g>
</svg>
