<svg xmlns="http://www.w3.org/2000/svg" width="22" height="22" viewBox="0 0 22 22">
  <g fill="none" fill-rule="evenodd">
    <rect width="22" height="22"/>
    <path fill="#FFFFFF" d="M18.5712629,7.23261919 L18.5827763,7.72301415 C18.5827763,12.7307108 14.7731691,18.5 7.80579044,18.5 C5.66733442,18.5 3.67690783,17.873089 2,16.798041 C2.2961854,16.8326445 2.59806423,16.8518757 2.90386521,16.8518757 C4.67888999,16.8518757 6.31157877,16.2460937 7.60772199,15.2307003 C5.95004534,15.1999557 4.55192628,14.1037788 4.0692491,12.5999515 C4.30192101,12.6441706 4.53655399,12.6653628 4.78270038,12.6653628 C5.12886152,12.6653628 5.46344601,12.6211437 5.78076039,12.5346035 C4.04805685,12.1845834 2.74229804,10.6557683 2.74229804,8.82115218 L2.74229804,8.77307425 C3.25382199,9.05768298 3.83651393,9.22690467 4.45766822,9.24809691 C3.44227485,8.5692491 2.77304262,7.40962191 2.77304262,6.09614533 C2.77304262,5.40192523 2.95959766,4.75192417 3.28456656,4.19232229 C5.15188832,6.48462771 7.94420429,7.99231386 11.092297,8.15002214 C11.0268857,7.87306792 10.9942433,7.58270249 10.9942433,7.28658035 C10.9942433,5.19620226 12.6903823,3.5 14.7827215,3.5 C15.8711807,3.5 16.8558294,3.95958712 17.5480885,4.69612846 C18.4096325,4.5249457 19.2212007,4.20959239 19.9538831,3.77689096 C19.6711722,4.661525 19.0712102,5.40382304 18.2884887,5.87302575 C19.051979,5.78262657 19.7846615,5.57684035 20.4635093,5.27685933 C19.9558442,6.03452966 19.3115999,6.70186407 18.5712629,7.23261919 Z"/>
  </g>
</svg>
