<svg xmlns="http://www.w3.org/2000/svg" width="20" height="16" viewBox="0 0 20 16">
  <g fill="none" fill-rule="evenodd">
    <rect width="19.924" height="16" x=".076" fill="#00FFFF"/>
    <path fill="#FF00FF" d="M11.6822049,6 L6,6 L6,7 L10.527787,7 C10.8679898,6.61989539 11.2559383,6.28341957 11.6822049,6 L11.6822049,6 Z M9.34141142,9 L6,9 L6,10 L9.08295844,10 C9.14069617,9.65584819 9.22773125,9.32163077 9.34141142,9 L9.34141142,9 Z M9.08295844,12 L6,12 L6,13 L9.34141142,13 C9.22773125,12.6783692 9.14069617,12.3441518 9.08295844,12 L9.08295844,12 Z M6,3 L17,3 L17,4 L6,4 L6,3 Z"/>
    <path fill="#FF00FF" d="M3.3500061,1.93579254 L3.3500061,7 L2.3500061,7 L2.3500061,1.89263458 L0.707106781,3.53553391 L-5.77315973e-15,2.82842712 L2.82842712,2.26485497e-14 L5.65685425,2.82842712 L4.94974747,3.53553391 L3.3500061,1.93579254 Z" transform="matrix(1 0 0 -1 0 7)"/>
    <path fill="#FF00FF" fill-rule="nonzero" d="M15,6 C12.25,6 10,8.25 10,11 C10,13.75 12.25,16 15,16 C17.75,16 20,13.75 20,11 C20,8.25 17.75,6 15,6 Z M14.5,14.95 C12.55,14.7 11,13 11,11 C11,10.7 11.05,10.4 11.1,10.1 L13.5,12.5 L13.5,13 C13.5,13.55 13.95,14 14.5,14 L14.5,14.95 Z M17.95,13.7 C17.8,13.3 17.45,13 17,13 L16.5,13 L16.5,11.5 C16.5,11.2 16.3,11 16,11 L13,11 L13,10 L14,10 C14.3,10 14.5,9.8 14.5,9.5 L14.5,8.5 L15.5,8.5 C16.05,8.5 16.5,8.05 16.5,7.5 L16.5,7.3 C17.95,7.9 19,9.35 19,11 C19,12.05 18.6,13 17.95,13.7 Z"/>
  </g>
</svg>
