<svg xmlns="http://www.w3.org/2000/svg" width="16" height="16" viewBox="0 0 16 16">
  <g fill="none" fill-rule="evenodd">
    <rect width="16" height="16" fill="#00FFFF"/>
    <rect width="6" height="6" x="1" y="3" fill="#FFC692"/>
    <rect width="6" height="6" x="8" y="6" fill="#CBE8F0"/>
    <path fill="#FF00FF" fill-rule="nonzero" d="M0,2 L15,2 L15,13 L0,13 L0,2 Z M1,3 L1,12 L7,12 L7,3 L1,3 Z M8,3 L8,12 L14,12 L14,3 L8,3 Z"/>
    <path fill="#FF00FF" fill-rule="nonzero" d="M10,4 L13,4 L13,5 L10,5 L10,4 Z M10,7 L13,7 L13,8 L10,8 L10,7 Z M10,10 L13,10 L13,11 L10,11 L10,10 Z M3,4 L6,4 L6,5 L3,5 L3,4 Z M3,7 L6,7 L6,8 L3,8 L3,7 Z M3,10 L6,10 L6,11 L3,11 L3,10 Z"/>
  </g>
</svg>
