<svg xmlns="http://www.w3.org/2000/svg" width="15" height="15" viewBox="0 0 15 15">
  <g fill="none" fill-rule="evenodd">
    <rect width="15" height="15" fill="#00FFFF"/>
    <path fill="#7F7F7F" d="M10.891087,9.47687343 L14.4852814,13.0710678 L13.0710678,14.4852814 L9.47687343,10.891087 C7.13366904,12.5610153 3.85958515,12.3448665 1.75735931,10.2426407 C-0.585786438,7.89949494 -0.585786438,4.10050506 1.75735931,1.75735931 C4.10050506,-0.585786438 7.89949494,-0.585786438 10.2426407,1.75735931 C12.3448665,3.85958515 12.5610153,7.13366904 10.891087,9.47687343 Z M9.53553391,9.53553391 C11.4881554,7.58291245 11.4881554,4.41708755 9.53553391,2.46446609 C7.58291245,0.511844635 4.41708755,0.511844635 2.46446609,2.46446609 C0.511844635,4.41708755 0.511844635,7.58291245 2.46446609,9.53553391 C4.41708755,11.4881554 7.58291245,11.4881554 9.53553391,9.53553391 Z"/>
  </g>
</svg>
