<svg xmlns="http://www.w3.org/2000/svg" width="16" height="16" viewBox="0 0 16 16">
  <g fill="none" fill-rule="evenodd">
    <rect width="16" height="16" fill="#00FFFF"/>
    <path fill="#FF00FF" d="M6.58615084,5 L1,5 L1,6 L5.12991647,6 C5.37148004,5.41137557 5.92567233,5 6.58615112,5 L6.58615084,5 Z M5,8 L1,8 L1,9 L5,9 L5,8 Z M5,11 L1,11 L1,12 L5,12 L5,11 L5,11 Z M1,2 L12,2 L12,3 L1,3 L1,2 Z"/>
    <path fill="#FF00FF" fill-rule="nonzero" d="M14.4239682,7.66666667 L10.2857143,7.66666667 L10.2857143,6.66634582 C10.2857143,6.2839063 10.0147388,6 9.69956316,6 L6.58615112,6 C6.26634597,6 6,6.28146036 6,6.66634582 L6,13.3336542 C6,13.7174437 6.2679664,14 6.5760318,14 L14.4239682,14 C14.7388907,14 15,13.7217924 15,13.3336542 L15,8.33301249 C15,7.94922298 14.7320336,7.66666667 14.4239682,7.66666667 Z"/>
  </g>
</svg>
