<svg xmlns="http://www.w3.org/2000/svg" width="20" height="20" viewBox="0 0 20 20">
  <g fill="none" fill-rule="evenodd">
    <rect width="20" height="20" fill="#00FFFF"/>
    <path fill="#00FF00" d="M10,20 C15.5228475,20 20,15.5228475 20,10 C20,4.4771525 15.5228475,0 10,0 C4.4771525,0 0,4.4771525 0,10 C0,15.5228475 4.4771525,20 10,20 L10,20 L10,20 Z M10,18.75 C14.8324916,18.75 18.75,14.8324916 18.75,10 C18.75,5.16750844 14.8324916,1.25 10,1.25 C5.16750844,1.25 1.25,5.16750844 1.25,10 C1.25,14.8324916 5.16750844,18.75 10,18.75 L10,18.75 L10,18.75 Z M12.6783009,10.625 L8.80805826,14.4952426 C8.56398058,14.7393203 8.56398058,15.1350484 8.80805826,15.3791261 C9.05213594,15.6232038 9.44786406,15.6232038 9.69194174,15.3791261 L14.363961,10.7071068 C14.7544853,10.3165825 14.7544853,9.68341751 14.363961,9.29289322 L14.363961,9.29289322 L9.69194174,4.62087393 C9.44786406,4.37679624 9.05213594,4.37679624 8.80805826,4.62087393 L8.80805826,4.62087393 C8.56398058,4.86495161 8.56398058,5.26067972 8.80805826,5.5047574 L12.6783009,9.375 L5.625,9.375 C5.27982203,9.375 5,9.65482203 5,10 C5,10.345178 5.27982203,10.625 5.625,10.625 L12.6783009,10.625 Z" transform="rotate(90 10 10)"/>
  </g>
</svg>
