<svg xmlns="http://www.w3.org/2000/svg" width="16" height="16" viewBox="0 0 16 16">
  <g fill="none" fill-rule="evenodd">
    <rect width="16" height="16" fill="#00FFFF"/>
    <path fill="#FF00FF" d="M8.17953243 5L1 5 1 6 7.79864798 6 8.17953243 5zM7.03687908 8L1 8 1 9 6.65599463 9 7.03687908 8zM5.89422573 11L1 11 1 12 5.51334128 12 5.89422573 11zM1 2L12 2 12 3 1 3 1 2zM12.0342368 12.3186813L8.94650499 12.3186813 8.40727532 14 6 14 9.42796006 5 11.5463623 5 15 14 12.5798859 14 12.0342368 12.3186813zM9.48573466 10.643544L11.4950071 10.643544 10.4871612 7.52197802 9.48573466 10.643544z"/>
  </g>
</svg>
