<svg xmlns="http://www.w3.org/2000/svg" width="20" height="16" viewBox="0 0 20 16">
  <g fill="none" fill-rule="evenodd">
    <rect width="20" height="16" fill="#00FFFF"/>
    <path fill="#FF00FF" d="M9.24892302,6 L6,6 L6,7 L9.09763773,7 L9.10821704,6.60155371 C9.11390006,6.3875154 9.16370382,6.18402238 9.24892302,6 Z M9.0445349,9 L6,9 L6,10 L9.01810964,10 C9.01818925,9.99383763 9.01831058,9.98768055 9.01847391,9.98152931 L9.0445349,9 L9.0445349,9 Z M10.3431458,12 L6,12 L6,13 L10.5133413,13 L10.7422233,12.3990775 L10.3431458,12 L10.3431458,12 Z M6,3 L17,3 L17,4 L6,4 L6,3 Z"/>
    <path fill="#FF00FF" d="M3.3500061,1.93579254 L3.3500061,7 L2.3500061,7 L2.3500061,1.89263458 L0.707106781,3.53553391 L-5.77315973e-15,2.82842712 L2.82842712,2.26485497e-14 L5.65685425,2.82842712 L4.94974747,3.53553391 L3.3500061,1.93579254 Z" transform="matrix(1 0 0 -1 0 7)"/>
    <path fill="#FF00FF" fill-rule="nonzero" d="M14.0080714,6.01812161 C14.1440191,6.014512 14.3336989,6.09105822 14.4342962,6.19165548 L18.9659498,10.7233091 C19.1580116,10.9153709 19.1525727,11.2322036 18.9665154,11.4182609 L15.4182609,14.9665154 C15.2265115,15.1582649 14.9140995,15.1567402 14.7233091,14.9659498 L10.1916555,10.4342962 C10.0922058,10.3348465 10.0142984,10.1520642 10.0181216,10.0080714 L10.1078647,6.62809577 C10.1152961,6.34821143 10.3435233,6.11542054 10.6280958,6.10786474 L14.0080714,6.01812161 Z M13.6568542,9.65685425 C14.0473785,9.26632996 14.0473785,8.63316498 13.6568542,8.24264069 C13.26633,7.8521164 12.633165,7.8521164 12.2426407,8.24264069 C11.8521164,8.63316498 11.8521164,9.26632996 12.2426407,9.65685425 C12.633165,10.0473785 13.26633,10.0473785 13.6568542,9.65685425 Z"/>
  </g>
</svg>
