<svg xmlns="http://www.w3.org/2000/svg" width="16" height="16" viewBox="0 0 16 16">
  <g fill="#8EA6BB" transform="translate(0 3)">
    <path d="M15.7265229,4.22766484 C15.5543137,4.01456044 15.3717255,3.81565934 15.1965621,3.63412088 C14.1810588,2.5828022 13.0910458,1.70445055 11.8859216,1.04994505 C11.0227843,0.581263736 10.1758301,0.2725 9.35718956,0.118626374 C8.86351636,0.0259065934 8.41010459,0 8.01041832,0 C7.59332028,0 7.13062747,0.0231868132 6.63734642,0.118626374 C5.809634,0.278928571 4.96210459,0.588269231 4.10882355,1.04994505 C2.93742485,1.68401099 1.83943793,2.55513736 0.798183024,3.63412088 C0.596875835,3.84255495 0.422967338,4.03442308 0.268196096,4.22766484 C-0.0895816818,4.67376374 -0.0892156687,5.26046703 0.268196096,5.70673077 C0.692901978,6.23739011 1.26014381,6.7914011 1.97125492,7.3868956 C3.48466668,8.65348901 4.96767322,9.45796703 6.42027453,9.78912088 C6.9315425,9.90406593 7.46301963,9.95271978 8.01041832,9.95271978 C8.54040525,9.95271978 9.06299348,9.90406593 9.57444446,9.78912088 C11.0440915,9.45601648 12.5302615,8.65733516 14.0406928,7.3868956 C14.7981569,6.74972527 15.3503922,6.18104396 15.7264967,5.70673077 C16.0891111,5.24956044 16.0931896,4.68134615 15.7265229,4.22766484 Z M14.9966928,5.04931319 C14.6142615,5.54252747 14.0859477,6.05351648 13.4325098,6.60167582 C12.0612941,7.75214286 10.7143137,8.49958791 9.37462747,8.79368132 C8.88077126,8.90082418 8.42751636,8.93978022 8.01041832,8.93978022 L7.98427453,8.93978022 C7.55847061,8.93978022 7.11410459,8.8989011 6.63732028,8.79368132 C5.31522878,8.49760989 3.95585623,7.7682967 2.56200002,6.60167582 C1.9050327,6.05173077 1.38895427,5.53335165 1.01541178,5.04931319 C0.954601325,5.00370879 0.954601325,4.94898352 1.01541178,4.88508242 C1.05881048,4.82118132 1.13478433,4.7275 1.2412157,4.61098901 C1.35206538,4.49002747 1.43250982,4.40098901 1.47590851,4.34626374 C2.48380394,3.30524725 3.51355557,2.52021978 4.55203923,1.97225275 C5.38197387,1.53414835 6.13384315,1.24447802 6.81122878,1.12291209 C7.20275819,1.0528022 7.60205231,1.01343407 8.01041832,1.01343407 C8.40137257,1.01343407 8.79271897,1.0481044 9.20071897,1.12291209 C9.8875425,1.24895604 10.6412941,1.53802198 11.4600915,1.97225275 C12.5182092,2.53326923 13.5368758,3.3143956 14.5187843,4.34626374 C14.7445883,4.58373626 14.90417,4.76351648 14.9966667,4.88508242 C15.0434118,4.94645604 15.0400915,5.00370879 14.9966928,5.04931319 Z"/>
    <path d="M8.06742484,2 C7.22452288,2 6.4945098,2.3103022 5.89500654,2.94049451 C5.29550327,3.57046703 5,4.32843407 5,5.21398352 C5,6.09972527 5.2932549,6.85087912 5.89500654,7.47851648 C6.49247059,8.10184066 7.22452288,8.40983516 8.06742484,8.40983516 C8.91014379,8.40983516 9.62271895,8.09953297 10.2137255,7.47851648 C10.8132288,6.84851648 11.1087059,6.09972527 11.1087059,5.21398352 C11.1087059,4.32843407 10.8109804,3.5728022 10.2137255,2.94049451 C9.62049673,2.31266484 8.91014379,2 8.06742484,2 Z"/>
  </g>
</svg>
