<svg xmlns="http://www.w3.org/2000/svg" width="16" height="13" viewBox="0 0 16 13">
  <path fill="#FFFFFF" fill-rule="evenodd" d="M14.3602282,3.23493663 L14.3702054,3.6599456 C14.3702054,7.99994939 11.0688983,13 5.03114796,13 C3.17801723,13 1.45316499,12.4566771 0,11.5249689 C0.25666661,11.5549586 0.518267007,11.5716256 0.783266236,11.5716256 C2.32145684,11.5716256 3.73630274,11.0466145 4.85950696,10.1666069 C3.42300721,10.1399616 2.21143337,9.18994159 1.7931578,7.88662463 C1.99478526,7.92494781 2.19811214,7.94331443 2.41141624,7.94331443 C2.71139054,7.94331443 3.00133281,7.90499125 3.27630925,7.82998967 C1.77479314,7.52663897 0.6432563,6.20166586 0.6432563,4.61166523 L0.6432563,4.56999768 C1.08652973,4.81665858 1.59147551,4.96331738 2.12975177,4.98168399 C1.24983811,4.39334922 0.669898755,3.38833899 0.669898755,2.24999262 C0.669898755,1.6483352 0.831562537,1.08500095 1.11317219,0.600012652 C2.73134497,2.58667735 5.15109383,3.89333868 7.87914961,4.03001919 C7.82246587,3.7899922 7.79417882,3.53834215 7.79417882,3.28170297 C7.79417882,1.47004196 9.26400905,0 11.0771761,0 C12.0204067,0 12.8736779,0.398308837 13.4735717,1.03664467 C14.2201634,0.888286275 14.9234475,0.614980073 15.5583712,0.239972165 C15.3133812,1.006655 14.7934696,1.64997997 14.1151834,2.05662231 C14.7768043,1.97827636 15.411728,1.7999283 16,1.53994475 C15.5600706,2.19659237 15.0017851,2.77494886 14.3602282,3.23493663 Z"/>
</svg>
