<svg xmlns="http://www.w3.org/2000/svg" width="70" height="70" viewBox="0 0 70 70" xmlns:xlink="http://www.w3.org/1999/xlink">
  <defs>
    <path id="a" d="M19.4743703,8.68036889 C19.9714835,8.1483534 21.395189,6.58613363 22.6577383,5.67973959 C24.1817515,4.5855667 25.312942,3.91102204 25.312942,3.91102204 L26.5520371,6.21035485 C26.5520371,6.21035485 28.2000335,5.11227604 28.4991865,3.73415029 C28.7983394,2.35595084 28.4991865,0.550458716 28.4991865,0.550458716 C28.4991865,0.550458716 30.2700598,0.88283022 31.3314038,2.49604801 C32.3926739,4.10919211 32.4948993,6.12545641 34.3406346,7.09471362 C35.2395686,7.56674011 36.3546804,8.13147688 37.2620963,8.58655317 C47.5168618,12.1996009 54.87421,21.9723549 54.87421,33.448605 C54.87421,47.9937274 43.0558983,59.8024963 28.4991865,59.8024963 C13.9424009,59.8024963 2.12416297,47.9937274 2.12416297,33.448605 C2.12416297,33.2905995 2.12556432,33.1328889 2.12836704,32.9755467 L0.708054322,33.448605 L2.47029827,29.1722881 C2.55865755,28.6320923 2.66346434,28.0974238 2.78420236,27.568872 L0,28.4961959 C0,28.4961959 1.66260006,25.0742433 3.18624445,22.8362997 C4.06548566,21.5446938 5.40378208,19.3870057 6.37846311,18.3913652 C9.47406186,13.6394844 14.0612213,10.6524153 19.4743703,8.68036889 Z"/>
    <path id="b" d="M18.0799193,0.463446672 C20.6955978,0.475509186 23.0453397,1.0393406 25.091787,1.94365376 C30.9596611,4.53663329 34.3339445,9.92894412 34.3339445,13.1396176 C34.3339445,15.8781844 33.1814953,18.349699 27.5119714,18.349699 C23.9632011,18.349699 23.4078209,16.5203913 17.9878579,16.5203913 C12.5678949,16.5203913 13.3640243,19.4427322 6.53687786,18.784762 C1.13048337,18.2637177 0.204432058,15.8782673 0.204432058,13.3574365 C0.204432058,10.6724814 2.86446689,5.37054411 7.43803576,2.57028167 C8.83843501,1.71285817 10.4182372,1.08997858 12.1560123,0.848584917 C12.5435983,1.39187599 13.1271531,2.07239006 13.8936957,2.58546554 C15.3955084,3.59076037 18.6730623,4.88479835 18.6730623,4.88479835 C18.6730623,4.88479835 17.3814532,3.61905986 17.4339673,2.23172203 C17.4603718,1.53285752 17.7745709,0.909753065 18.0799193,0.463446672 Z"/>
  </defs>
  <g fill="none" fill-rule="evenodd">
    <rect width="70" height="70"/>
    <g transform="translate(7 5)">
      <g stroke-linecap="round" stroke-linejoin="round">
        <use fill="#FFFFFF" xlink:href="#a"/>
        <path stroke="#297BCC" stroke-width="2" d="M1.4291338,29.0742077 L-0.216516592,33.067595 L-1.04904925,35.087845 L1.02405403,34.3973643 L1.13907076,34.3590561 C1.6203747,49.0358581 13.6951886,60.8024963 28.4991865,60.8024963 C43.6080287,60.8024963 55.87421,48.5461666 55.87421,33.448605 C55.87421,21.7825173 48.4823987,11.5078962 37.6545224,7.66464207 C36.5615823,7.11625925 35.5759639,6.61389964 34.8055351,6.20935064 C34.0727717,5.82455215 33.7289389,5.312019 33.1416767,3.91367925 C33.0586076,3.71554533 33.0171934,3.61710909 32.9718078,3.51085524 C32.6908574,2.8531117 32.4633203,2.39711444 32.1668229,1.9464347 C31.8200221,1.41930561 31.3939834,0.974779092 30.9084337,0.606847377 C30.0897356,-0.0135319362 29.2743514,-0.321513138 28.6836534,-0.432380004 L27.2790244,-0.696011883 L27.5126368,0.713920651 C27.5261438,0.795439706 27.548357,0.955771214 27.5710657,1.17338374 C27.629806,1.73628044 27.6510872,2.3152108 27.6139697,2.84121601 C27.5962714,3.09202577 27.565616,3.32082782 27.5219431,3.52202915 C27.4488526,3.8587396 27.2082741,4.24887961 26.8425126,4.6414268 L26.1932544,3.43662759 L25.6977969,2.51722951 L24.8007761,3.05213554 C24.6496201,3.14227195 24.3799383,3.30910227 24.0146513,3.54481252 C23.4096972,3.93517372 22.755388,4.37859153 22.0745282,4.86741827 C21.8738152,5.01151164 21.6663895,5.1725829 21.4522592,5.349642 C21.1417746,5.60637418 20.8197654,5.89452522 20.4867628,6.21069249 C20.1393914,6.54050225 19.7928647,6.88833749 19.4362527,7.26065985 C19.2576428,7.44713831 19.0973843,7.61760336 18.9048545,7.82431464 C13.0160007,10.0092137 8.59065177,13.2055778 5.59314216,17.7651968 C5.17104302,18.2096692 4.69503488,18.826991 4.12397801,19.6451345 C3.98049237,19.850704 3.83122505,20.0686642 3.67082446,20.3063362 C3.44130818,20.6464197 2.55237473,21.9903889 2.35960051,22.2735744 C2.23902207,22.4506812 2.11583391,22.6374655 1.99019425,22.8334293 C1.71909192,23.2562755 1.43813403,23.719373 1.14948592,24.2165362 C0.660718105,25.0583825 0.172794259,25.9574508 -0.292226096,26.8561473 C-0.454851233,27.1704359 -0.603097323,27.4624181 -0.73412016,27.724781 C-0.813172766,27.8830776 -0.869238813,27.9969917 -0.899455593,28.0591837 L-1.93740723,30.195489 L0.315999708,29.4449552 L1.4291338,29.0742077 Z"/>
      </g>
      <path fill="#D9EBFA" d="M28.4379272,0 C28.4379272,0 30.4363276,2.19095655 30.5164109,4.71547512 C30.5964941,7.2399937 27.8512635,8.20280094 27.4887949,8.00992278 C27.1263262,7.81704462 26.4242335,5.19857311 26.1827781,4.65960697 C25.9413227,4.12064082 25.2428471,3.32884268 25.2428471,3.32884268 C25.2428471,3.32884268 25.9618194,7.80082892 25.0700526,8.71866292 C24.1782858,9.63649693 25.7433356,9.98146062 28.000198,9.67671947 C30.2570605,9.37197831 33.1437376,7.40892837 34.7617744,7.70942557 C36.3798111,8.00992278 37.7490949,8.51596666 37.7490949,8.51596666 C37.7490949,8.51596666 34.0282068,6.84239232 33.3574621,5.75099964 C32.6867174,4.65960697 32.0652791,2.13249134 31.0891774,1.43109894 C30.1130756,0.729706537 28.4379272,0 28.4379272,0 Z" style="mix-blend-mode:darken"/>
      <path fill="#E6F9FF" d="M4.62234937,44.5751525 C4.62234937,44.5751525 11.8374837,59.8277445 27.7952265,59.8277445 C43.7529693,59.8277445 51.3786596,48.5971509 53.4228503,42.5576375 C55.467041,36.5181242 55.327555,31.3232716 52.4327062,22.1177377 C49.5378573,12.9122039 37.1266994,8.59664904 37.1266994,8.59664904 C37.1266994,8.59664904 47.1520977,16.6983782 48.7316256,27.2882236 C48.8007292,27.7515242 50.416505,29.662973 50.4517308,30.135328 C50.4869565,30.6076831 48.9302957,29.3713964 48.9367731,29.7142593 C48.9562276,30.7440349 50.6222251,34.0654037 50.4517308,35.1271602 C50.2812364,36.1889167 48.4769863,34.1300814 48.2979905,34.7744988 C47.3647657,38.1342773 45.3410064,41.5996166 41.7572208,45.0278331 C34.7555754,51.7255432 27.7414625,53.2953648 21.7246295,52.6568874 C21.3623821,52.6184475 21.6443439,54.8821793 21.2895466,54.8283676 C20.9347494,54.7745559 19.3559643,52.2951595 18.7303305,52.1501828 C10.4042931,50.2208085 4.62234937,44.5751525 4.62234937,44.5751525 Z" style="mix-blend-mode:multiply"/>
      <g transform="translate(10.478 14.862)">
        <g stroke-linecap="round" stroke-linejoin="round">
          <use fill="#C6F1FF" xlink:href="#b"/>
          <path stroke="#297BCC" stroke-width="1.204" d="M17.0840499,3.55895598 C16.7735531,3.4204033 16.4685553,3.28020421 16.1743931,3.14005982 C15.7996046,2.96150353 15.45455,2.78867892 15.1457604,2.62381126 C14.7803745,2.42872589 14.4714473,2.24777347 14.2285707,2.08519484 C13.6271626,1.68265004 13.0956372,1.12910628 12.6460896,0.498961844 L12.4343332,0.202136412 L12.0731831,0.252303627 C10.3250646,0.49513408 8.66504422,1.11313683 7.12368599,2.05686539 C2.86006846,4.66735369 -0.397574631,9.9649517 -0.397574631,13.3574365 C-0.397574631,16.8856963 1.47545994,18.901761 6.4791267,19.3839923 C9.73247737,19.6975358 11.1945213,19.3714396 13.4598614,18.2393294 C13.4608368,18.238842 13.4608368,18.238842 13.4618121,18.2383546 C15.1551241,17.392117 16.0661986,17.122398 17.9878579,17.122398 C20.210474,17.122398 21.5578331,17.3880864 23.2462103,18.000927 C23.3488862,18.0381959 23.9484408,18.2600918 24.1221362,18.3223147 C25.3461112,18.7607792 26.2577401,18.9517057 27.5119714,18.9517057 C32.8023991,18.9517057 34.9359512,16.8964991 34.9359512,13.1396176 C34.9359512,9.19367836 30.8598499,3.83436286 25.3351118,1.39301318 C23.1001355,0.405390099 20.6634036,-0.126652372 18.0826955,-0.138553615 L17.7633771,-0.14002619 L17.5830689,0.123517665 C17.141464,0.768980601 16.8603426,1.46914962 16.8323898,2.20899321 C16.8151208,2.66521223 16.9070662,3.1166782 17.0840499,3.55895598 Z"/>
        </g>
        <path fill="#5588BB" d="M5.42911805,18.946746 C5.42911805,18.946746 -2.09275397,18.2664018 0.635024009,10.1383767 C3.36280198,2.01035157 12.185954,0.44725694 12.185954,0.44725694 C12.185954,0.44725694 13.389526,1.76186769 14.6745547,2.66658521 C15.9595834,3.57130272 17.4988923,4.18113922 17.8277882,4.16984726 C17.9289141,4.16637531 17.1982452,3.14038644 17.1032982,2.12365689 C17.0083512,1.10692735 17.5490742,0.457422242 17.8277882,0.344160812 C19.4653456,-0.32129584 21.0702207,0.572110369 21.0702207,0.572110369 C21.0702207,0.572110369 19.6461848,1.34491578 19.5242452,2.54692006 C19.4023055,3.74892433 20.5391924,5.7026343 20.3109397,5.8352012 C19.8796446,6.08569316 20.1206893,6.85339874 18.1160082,5.65310934 C16.1113271,4.45281993 13.6448265,2.12365689 13.6448265,2.12365689 C13.6448265,2.12365689 5.41067413,6.1742717 3.66426764,9.2903441 C0.39368741,15.1259642 5.42911805,18.946746 5.42911805,18.946746 Z" opacity=".196" style="mix-blend-mode:multiply"/>
      </g>
      <g fill="#297BCC" transform="translate(16.728 19.083)">
        <path d="M6.06349746,1.54553005 C6.16227037,1.83328784 6.21589109,2.14192296 6.21589109,2.46297559 C6.21589109,4.02482687 4.94677747,5.29292365 3.3836738,5.29292365 C1.82049637,5.29292365 0.551456509,4.02482687 0.551456509,2.46297559 C0.551456509,2.14192296 0.60507411,1.83328784 0.703842708,1.54553005 C1.08558455,2.65769961 2.14180644,3.45806127 3.3836738,3.45806127 C4.62548256,3.45806127 5.68173896,2.65769961 6.06349746,1.54553005 Z" transform="rotate(-47 5.283 4.245)"/>
        <g transform="rotate(15 5.86 44.818)">
          <path d="M10.7344458,0.946604821 C10.8332187,1.23436261 10.8868394,1.54299773 10.8868394,1.86405036 C10.8868394,3.42590164 9.61772578,4.69399842 8.05462211,4.69399842 C6.49144468,4.69399842 5.22240482,3.42590164 5.22240482,1.86405036 C5.22240482,1.54299773 5.27602242,1.23436261 5.37479102,0.946604821 C5.75653286,2.05877438 6.81275475,2.85913604 8.05462211,2.85913604 C9.29643087,2.85913604 10.3526873,2.05877438 10.7344458,0.946604821 Z" transform="rotate(22 8.055 2.82)"/>
          <path d="M4.91199845,18.7029881 C2.29966071,19.4016953 0.936523742,21.8008736 0.936523742,21.8008736 C0.508225608,22.0384796 0.194942825,21.764052 0.0584467979,21.2555636 C-0.0780492297,20.7470752 0.951683656,17.7979879 4.32939548,16.8945703 C7.7071073,15.9911527 9.35444714,17.5584811 9.36875945,17.5595661 C9.38881602,17.5610865 10.0790332,18.1831069 10.2176197,18.699383 C10.3621344,19.2377433 9.95384081,19.4926259 9.3719362,19.2903725 C9.31222562,19.2696188 7.52433619,18.0042808 4.91199845,18.7029881 Z"/>
        </g>
      </g>
      <g fill="#F25335" transform="translate(8.823 35.78)" opacity=".15">
        <path d="M32.535934,8.44036697 C30.2009662,8.44036697 28.3081008,6.55092647 28.3081008,4.22018349 C28.3081008,1.88944051 30.2009662,0 32.535934,0 C34.8709019,0 36.7637673,1.88944051 36.7637673,4.22018349 C36.7637673,6.55092647 34.8709019,8.44036697 32.535934,8.44036697 Z M4.22783324,8.44036697 C1.89286541,8.44036697 0,6.55092647 0,4.22018349 C0,1.88944051 1.89286541,0 4.22783324,0 C6.56280106,0 8.45566647,1.88944051 8.45566647,4.22018349 C8.45566647,6.55092647 6.56280106,8.44036697 4.22783324,8.44036697 Z"/>
      </g>
    </g>
  </g>
</svg>
