<svg xmlns="http://www.w3.org/2000/svg" width="16" height="16" viewBox="0 0 16 16">
  <g fill="none" fill-rule="evenodd">
    <rect width="16" height="16" fill="#00FFFF"/>
    <path fill="#FF00FF" d="M6.68220488,5 L1,5 L1,6 L5.52778699,6 C5.86798982,5.61989539 6.25593828,5.28341957 6.68220488,5 L6.68220488,5 Z M4.34141142,8 L1,8 L1,9 L4.08295844,9 C4.14069617,8.65584819 4.22773125,8.32163077 4.34141142,8 L4.34141142,8 Z M4.08295844,11 L1,11 L1,12 L4.34141142,12 C4.22773125,11.6783692 4.14069617,11.3441518 4.08295844,11 L4.08295844,11 Z M1,2 L12,2 L12,3 L1,3 L1,2 Z"/>
    <path fill="#FF00FF" fill-rule="nonzero" d="M10,5 C7.25,5 5,7.25 5,10 C5,12.75 7.25,15 10,15 C12.75,15 15,12.75 15,10 C15,7.25 12.75,5 10,5 Z M9.5,13.95 C7.55,13.7 6,12 6,10 C6,9.7 6.05,9.4 6.1,9.1 L8.5,11.5 L8.5,12 C8.5,12.55 8.95,13 9.5,13 L9.5,13.95 Z M12.95,12.7 C12.8,12.3 12.45,12 12,12 L11.5,12 L11.5,10.5 C11.5,10.2 11.3,10 11,10 L8,10 L8,9 L9,9 C9.3,9 9.5,8.8 9.5,8.5 L9.5,7.5 L10.5,7.5 C11.05,7.5 11.5,7.05 11.5,6.5 L11.5,6.3 C12.95,6.9 14,8.35 14,10 C14,11.05 13.6,12 12.95,12.7 Z"/>
  </g>
</svg>
