<svg xmlns="http://www.w3.org/2000/svg" width="20" height="16" viewBox="0 0 20 16">
  <g fill="none" fill-rule="evenodd">
    <rect width="20" height="16" fill="#00FFFF"/>
    <path fill="#FF00FF" d="M6,3 L17,3 L17,4 L6,4 L6,3 Z M6,6 L17,6 L17,7 L6,7 L6,6 Z M6,9 L17,9 L17,10 L6,10 L6,9 Z M6,12 L17,12 L17,13 L6,13 L6,12 Z"/>
    <path fill="#FF00FF" d="M3.3500061,1.93579254 L3.3500061,7 L2.3500061,7 L2.3500061,1.89263458 L0.707106781,3.53553391 L-5.77315973e-15,2.82842712 L2.82842712,2.26485497e-14 L5.65685425,2.82842712 L4.94974747,3.53553391 L3.3500061,1.93579254 Z" transform="matrix(1 0 0 -1 0 7)"/>
  </g>
</svg>
