<svg xmlns="http://www.w3.org/2000/svg" width="20" height="16" viewBox="0 0 20 16">
  <g fill="none" fill-rule="evenodd">
    <rect width="20" height="16" fill="#00FFFF"/>
    <path fill="#FF00FF" d="M12.7055147,6 L6,6 L6,7 L11.2250619,7 C11.6581275,6.59115393 12.1575672,6.25186519 12.7055147,6 L12.7055147,6 Z M9.87494031,9 L6,9 L6,10 L9.59068811,10 C9.65419326,9.65427222 9.75002732,9.31985556 9.87494031,9 L9.87494031,9 Z M9.59068811,12 L6,12 L6,13 L9.87494031,13 C9.75002732,12.6801444 9.65419326,12.3457278 9.59068811,12 L9.59068811,12 Z M6,3 L17,3 L17,4 L6,4 L6,3 Z"/>
    <path fill="#FF00FF" d="M3.3500061,1.93579254 L3.3500061,7 L2.3500061,7 L2.3500061,1.89263458 L0.707106781,3.53553391 L-5.77315973e-15,2.82842712 L2.82842712,2.26485497e-14 L5.65685425,2.82842712 L4.94974747,3.53553391 L3.3500061,1.93579254 Z" transform="matrix(1 0 0 -1 0 7)"/>
    <path fill="#FF00FF" d="M15,15.5 C12.5147186,15.5 10.5,13.4852814 10.5,11 C10.5,8.51471863 12.5147186,6.5 15,6.5 C17.4852814,6.5 19.5,8.51471863 19.5,11 C19.5,13.4852814 17.4852814,15.5 15,15.5 Z M15.5,11 L15.5,8.49538898 C15.5,8.2217932 15.2786698,8 14.9921684,8 L14.5078316,8 C14.2273639,8 14,8.21704435 14,8.49877232 L14,12.0012277 C14,12.276692 14.2150574,12.5 14.4904785,12.5 L17.5095215,12.5 C17.7804053,12.5 18,12.2786698 18,11.9921684 L18,11.5078316 C18,11.2273639 17.7692871,11 17.4940877,11 L15.5,11 Z"/>
  </g>
</svg>
