<svg xmlns="http://www.w3.org/2000/svg" width="20" height="20" viewBox="0 0 20 20">
  <g fill="none" fill-rule="evenodd">
    <rect width="20" height="20" fill="#00FFFF"/>
    <path fill="#00FF00" d="M4.47438804,3.12575857 C3.75139461,3.70662958 3.12265283,4.40001791 2.61473677,5.17934947 L1.53069033,4.55347496 C2.15206079,3.58609952 2.93558661,2.73280068 3.84288427,2.03196195 L4.47438804,3.12575857 Z M5.54085929,0.972940952 C6.58740898,0.457909145 7.73710764,0.120485316 8.95062476,0 L8.95062476,1.25714322 C7.96380158,1.3694155 7.02679427,1.64584191 6.16757716,2.05844815 L5.54085929,0.972940952 Z M18.1666978,15.6527249 L17.0797034,15.0251484 C16.6114264,15.681839 16.054679,16.2710866 15.4268615,16.7754909 L16.0583652,17.8692876 C16.8690993,17.2430391 17.5810055,16.4950561 18.1666978,15.6527249 Z M10.9506248,19.9012495 L10.9506248,18.6441063 C11.9374479,18.531834 12.8744552,18.2554076 13.7336724,17.8428014 L14.3603902,18.9283086 C13.3138405,19.4433404 12.1641419,19.7807642 10.9506248,19.9012495 Z M4.02956503,18.0100486 L4.65901166,16.9198151 C4.02688467,16.4391084 3.46214109,15.8743648 2.98143444,15.2422379 L1.89120089,15.8716845 C2.49181169,16.6878313 3.21341819,17.4094378 4.02956503,18.0100486 Z M0.872614554,14.1503645 C0.414015066,13.1607339 0.112477507,12.0834879 0,10.9506248 L1.25714322,10.9506248 C1.36027668,11.8571218 1.60192804,12.7215828 1.96041325,13.5223236 L0.872614554,14.1503645 Z M16.2422911,2.17749468 L15.6083119,3.2755788 C16.3232477,3.88215177 16.939465,4.60152912 17.4294683,5.40621509 L18.5124186,4.78097349 C17.9108285,3.78677614 17.1409577,2.90578831 16.2422911,2.17749468 Z M19.9012495,8.95062476 L18.6441063,8.95062476 C18.5765953,8.35723364 18.4497297,7.78185491 18.2695915,7.23057081 L19.3731401,6.59343677 C19.6398891,7.34205621 19.8199529,8.13181292 19.9012495,8.95062476 Z M0,8.95062476 L1.25714322,8.95062476 C1.33526385,8.2639793 1.49286089,7.60145257 1.72051026,6.97246863 L0.622820783,6.33871731 C0.303752675,7.16214698 0.0905758903,8.03835265 0,8.95062476 Z M19.9012495,10.9506248 L18.6441063,10.9506248 C18.5515332,11.7643007 18.3473571,12.5441084 18.0472597,13.2743662 L19.1385777,13.9044389 C19.5355534,12.9831695 19.7980223,11.9903198 19.9012495,10.9506248 Z M8.95062476,19.9012495 L8.95062476,18.6441063 C8.04412773,18.5409728 7.17966675,18.2993215 6.37892588,17.9408363 L5.75088501,19.028635 C6.74051561,19.4872344 7.81776157,19.788772 8.95062476,19.9012495 Z M10.9506248,0 L10.9506248,1.25714322 C12.0177642,1.37855319 13.0266488,1.69192524 13.941903,2.1618837 L14.5676945,1.07798111 C13.4663925,0.503722607 12.2448006,0.128493607 10.9506248,0 Z M9.32562476,12.6289256 L9.32562476,5.57562476 C9.32562476,5.23044679 9.60544679,4.95062476 9.95062476,4.95062476 C10.2958027,4.95062476 10.5756248,5.23044679 10.5756248,5.57562476 L10.5756248,12.6289256 L14.4458674,8.75868302 C14.689945,8.51460534 15.0856731,8.51460534 15.3297508,8.75868302 C15.5738285,9.0027607 15.5738285,9.39848881 15.3297508,9.6425665 L10.6577315,14.3145858 C10.2672072,14.7051101 9.63404227,14.7051101 9.24351798,14.3145858 L4.57149868,9.6425665 C4.327421,9.39848881 4.327421,9.0027607 4.57149868,8.75868302 C4.81557637,8.51460534 5.21130448,8.51460534 5.45538216,8.75868302 L9.32562476,12.6289256 Z"/>
  </g>
</svg>
