<svg xmlns="http://www.w3.org/2000/svg" width="26" height="26" viewBox="0 0 26 26" xmlns:xlink="http://www.w3.org/1999/xlink">
  <defs>
    <path id="a" d="M6.85015969,15.7202665 L8.30878055,19.2701558 L10.3005193,19.2701558 L11.7613734,15.7148313 C10.9812491,15.9355999 10.1535042,16.0543142 9.29612193,16.0543142 C8.44580268,16.0543142 7.62463438,15.9375477 6.85015969,15.7202665 Z M5.97684757,15.4253158 C5.2493831,15.1363475 4.57415314,14.7552722 3.96810442,14.2977893 L6.7297993,19.2701558 L7.55666127,19.2701558 L5.97684757,15.4253158 Z M1.96588039,12.1182574 C1.24355486,10.9577344 0.829956055,9.60964768 0.829956055,8.17115122 C0.829956055,3.81502857 4.62277295,0.287988281 9.29612193,0.287988281 C13.9694709,0.287988281 17.7622878,3.81502857 17.7622878,8.17115122 C17.7622878,9.38348838 17.4685171,10.5316094 16.9437531,11.5573568 L16.9525379,11.561697 L12.5731604,19.4466628 C12.6624847,19.5406025 12.7168159,19.6647495 12.7168159,19.8008649 C12.7163067,19.8285098 12.7163067,19.8285098 12.713765,19.8560548 L12.345658,23.1764849 C12.3156963,23.4467477 12.0741282,23.6520041 11.7860151,23.6520041 L6.84747375,23.6520041 C6.55936059,23.6520041 6.31779248,23.4467477 6.28783081,23.1764849 L5.91972382,19.8560548 C5.90338563,19.7086796 5.95265033,19.5690961 6.04529898,19.4631542 L1.96588039,12.1182574 Z M14.653606,14.2754445 C14.0456515,14.738571 13.367281,15.1244928 12.6357937,15.4171838 L11.0526386,19.2701558 L11.8795006,19.2701558 L14.653606,14.2754445 Z"/>
    <ellipse id="b" cx="8.296" cy="7.556" rx="8.125" ry="7.556"/>
  </defs>
  <g fill="none" fill-rule="evenodd">
    <rect width="26" height="26"/>
    <g transform="translate(4 1)">
      <g fill-rule="nonzero">
        <use fill="#FFFFFF" fill-rule="evenodd" xlink:href="#a"/>
        <path stroke="#FFFFFF" d="M10.9331835,16.4148382 C11.2592277,16.3585815 11.5810443,16.2854984 11.8975225,16.1959378 L11.2988924,15.5248016 L10.9331835,16.4148382 Z M9.96540257,18.7701558 L9.83803829,19.080126 L10.3005193,18.7701558 L9.96540257,18.7701558 Z M8.64389729,18.7701558 L8.30878055,18.7701558 L8.77126158,19.080126 L8.64389729,18.7701558 Z M7.67740954,16.4179856 L7.31264072,15.5302367 L6.71509785,16.2016793 C7.03095482,16.2902939 7.35209232,16.362511 7.67740954,16.4179856 Z M7.67740954,16.4179856 C8.20747105,16.5083741 8.74862908,16.5543142 9.29612193,16.5543142 C9.84994248,16.5543142 10.3972738,16.5073058 10.9331835,16.4148382 L9.96540257,18.7701558 L8.64389729,18.7701558 L7.67740954,16.4179856 Z M6.2039497,17.2936047 L5.59371078,15.808448 C5.49788578,15.7677847 5.40288061,15.725558 5.30873617,15.6817939 L6.2039497,17.2936047 Z M6.2039497,17.2936047 L7.16690521,19.0273834 L6.7297993,18.7701558 L7.55666127,18.7701558 L7.09418024,19.4601855 L6.2039497,17.2936047 Z M1.53472071,12.3717358 C0.749864365,11.1064475 0.329956055,9.66727347 0.329956055,8.17115122 C0.329956055,3.53213751 4.35262419,-0.212011719 9.29612193,-0.212011719 C14.2396197,-0.212011719 18.2622878,3.53213751 18.2622878,8.17115122 C18.2622878,9.2676765 18.0368404,10.3346407 17.6055775,11.3266435 L17.6443837,11.3458162 L13.1490868,19.4394921 C13.1932629,19.5547942 13.2167717,19.6795977 13.2167311,19.8100725 L13.2164764,19.8232792 C13.216156,19.837366 13.216156,19.837366 13.2152847,19.8561992 C13.2134418,19.8829919 13.2134418,19.8829919 13.2107205,19.9111479 L12.8426135,23.231578 C12.783941,23.7608203 12.3235533,24.1520041 11.7860151,24.1520041 L6.84747375,24.1520041 C6.30993556,24.1520041 5.84954779,23.7608203 5.79087532,23.231578 L5.42276834,19.9111479 C5.40573934,19.7575414 5.42445356,19.6057278 5.47442471,19.4650798 L1.53472071,12.3717358 Z M13.0192058,15.7996459 L13.0982747,15.6072136 L12.8215416,15.8814011 C12.8878068,15.8548863 12.9536993,15.8276318 13.0192058,15.7996459 Z M13.306529,15.6710535 C13.8936117,15.3961677 14.4469529,15.0614194 14.9565958,14.6731846 L14.2165001,14.0326721 L13.306529,15.6710535 Z M12.4053502,17.2936047 L11.4423947,19.0273834 L11.8795006,18.7701558 L11.0526386,18.7701558 L11.5151196,19.4601855 L12.4053502,17.2936047 Z"/>
      </g>
      <g transform="translate(1 .642)">
        <use fill="#FFFFFF" xlink:href="#b"/>
        <ellipse cx="8.296" cy="7.556" rx="8.125" ry="7.556"/>
        <path fill="#F25335" d="M9.36839068,0.115064318 C10.2073927,2.78140166 10.6765807,5.04392566 10.7759546,6.90263633 C10.9250156,9.69070233 9.54171525,14.9352805 9.61203394,14.9134835 C9.65891306,14.8989521 10.1260867,14.791471 11.0135549,14.5910402 C13.015501,11.5322989 13.8754399,8.96949761 13.5933716,6.90263633 C13.3113033,4.83577504 12.3721643,2.70025868 10.7759546,0.496087233 L9.36839068,0.115064318 Z"/>
        <path fill="#F25335" d="M3.09915702,0.153419091 C3.87913284,2.43033897 4.34832082,4.69286297 4.50672098,6.9409911 C4.74432122,10.3131833 3.27248159,14.9736353 3.34280027,14.9518382 C3.3896794,14.9373069 3.85685305,14.8298258 4.74432122,14.6293949 C6.74626729,11.5706537 7.60620619,9.00785239 7.32413793,6.9409911 C7.04206967,4.87412981 6.10293069,2.73861345 4.50672098,0.534442006 L3.09915702,0.153419091 Z" transform="matrix(-1 0 0 1 10.476 0)"/>
        <path fill="#0685B9" d="M5.47416672,18.9856125 L11.1591218,18.9856125 L11.1591218,18.9856125 C11.2729777,18.9856125 11.3652761,19.0779109 11.3652761,19.1917668 C11.3652761,19.1993559 11.3648571,19.2069393 11.3640209,19.2144822 L10.9972803,22.5225864 L10.9972803,22.5225864 C10.9857036,22.6270119 10.8974465,22.7060254 10.7923813,22.7060254 L5.84090724,22.7060254 L5.84090724,22.7060254 C5.73584201,22.7060254 5.6475849,22.6270119 5.63600816,22.5225864 L5.26926763,19.2144822 L5.26926763,19.2144822 C5.25672228,19.1013195 5.33828871,18.9994131 5.45145135,18.9868677 C5.45899426,18.9860315 5.46657759,18.9856125 5.47416672,18.9856125 Z"/>
        <path fill="#133A51" fill-rule="nonzero" d="M5.97224158,22.3753077 L10.6610469,22.3753077 L11.000169,19.3163302 L5.63311954,19.3163302 L5.97224158,22.3753077 Z M5.4792666,18.6548947 L11.1540219,18.6548947 C11.4647891,18.6548947 11.7167157,18.8925013 11.7167157,19.1856039 C11.7162066,19.2132488 11.7162066,19.2132488 11.7136648,19.2407938 L11.3455579,22.5612239 C11.3155962,22.8314867 11.0740281,23.0367431 10.7859149,23.0367431 L5.84737359,23.0367431 C5.55926042,23.0367431 5.31769232,22.8314867 5.28773064,22.5612239 L4.91962366,19.2407938 C4.88730612,18.9492804 5.11166826,18.6882528 5.42075053,18.6577722 C5.44995558,18.655375 5.44995558,18.655375 5.4792666,18.6548947 Z"/>
        <path fill="#133A51" fill-rule="nonzero" d="M0.656661851,10.946436 L1.27788709,10.6395123 L5.79064355,18.7646237 L5.16941831,19.0715475 L0.656661851,10.946436 Z M4.92032103,14.6727282 L5.57423309,14.4337184 L7.3614401,18.7832976 L6.70752803,19.0223075 L4.92032103,14.6727282 Z M15.3312124,10.6395123 L15.9524377,10.946436 L11.4396812,19.0715475 L10.818456,18.7646237 L15.3312124,10.6395123 Z M11.0348664,14.4337184 L11.6887785,14.6727282 L9.90157151,19.0223075 L9.24765944,18.7832976 L11.0348664,14.4337184 Z"/>
        <ellipse cx="8.296" cy="7.556" stroke="#133A51" stroke-width=".682" rx="8.125" ry="7.556"/>
      </g>
    </g>
  </g>
</svg>
