<svg xmlns="http://www.w3.org/2000/svg" width="16" height="16" viewBox="0 0 16 16">
  <g fill="none" fill-rule="evenodd">
    <rect width="16" height="16" fill="#00FFFF"/>
    <path fill="#FF00FF" d="M7.70551469 5L1 5 1 6 6.2250619 6C6.65812753 5.59115393 7.1575672 5.25186519 7.70551469 5L7.70551469 5zM4.87494031 8L1 8 1 9 4.59068811 9C4.65419326 8.65427222 4.75002732 8.31985556 4.87494031 8L4.87494031 8zM4.59068811 11L1 11 1 12 4.87494031 12C4.75002732 11.6801444 4.65419326 11.3457278 4.59068811 11L4.59068811 11zM1 2L12 2 12 3 1 3 1 2zM10 14.5C7.51471863 14.5 5.5 12.4852814 5.5 10 5.5 7.51471863 7.51471863 5.5 10 5.5 12.4852814 5.5 14.5 7.51471863 14.5 10 14.5 12.4852814 12.4852814 14.5 10 14.5zM10.5 10L10.5 7.49538898C10.5 7.2217932 10.2786698 7 9.99216843 7L9.50783157 7C9.22736394 7 9 7.21704435 9 7.49877232L9 11.0012277C9 11.276692 9.21505737 11.5 9.49047852 11.5L12.5095215 11.5C12.7804053 11.5 13 11.2786698 13 10.9921684L13 10.5078316C13 10.2273639 12.7692871 10 12.4940877 10L10.5 10z"/>
  </g>
</svg>
