<svg xmlns="http://www.w3.org/2000/svg" width="18" height="18" viewBox="0 0 18 18">
  <g fill="none" fill-rule="evenodd">
    <rect width="18" height="18" fill="#00FFFF" fill-rule="nonzero"/>
    <path fill="#FF00FF" d="M7.04156716,5.73450212 C7.50788471,6.00617864 7.93041135,6.35014985 8.26993818,6.7717056 C8.37918635,6.90734794 8.47933597,7.05023934 8.56914334,7.1994655 C8.68827556,7.39721466 8.7891452,7.60580476 8.87044312,7.82177453 C9.00528509,8.17991733 9.08579752,8.5568685 9.11865707,8.93773808 C9.13462864,9.12340547 9.13390861,9.30887694 9.13875245,9.49500147 C9.14163257,9.56141855 9.14562546,9.62750908 9.15086204,9.69379554 C9.18136513,10.0103379 9.24773879,10.3210026 9.36497275,10.6172998 C9.42414612,10.7665913 9.49503634,10.9112459 9.57679246,11.0495659 C9.98328207,11.7377042 10.6426331,12.240567 11.35651,12.5809463 C11.4925302,12.645796 11.6312342,12.7050293 11.7720982,12.7587769 C11.9314866,12.8196429 12.0934279,12.8720843 12.2576602,12.9181909 C12.2848249,12.847986 12.314608,12.7787608 12.3471403,12.7106457 C12.4916044,12.4081444 12.6872562,12.130329 12.9234915,11.8920243 C13.1592685,11.654242 13.43504,11.456297 13.7364707,11.3098137 C14.0007217,11.1813551 14.2841516,11.092799 14.5745855,11.0480638 C14.699478,11.0287983 14.8247632,11.0192635 14.9508993,11.0144308 C15.0278116,11.0134512 15.0275498,11.0134512 15.1041348,11.0144308 C15.2302709,11.0192635 15.3555561,11.0287983 15.4804486,11.0480638 C15.7709479,11.092799 16.0543124,11.1813551 16.3185634,11.3098137 C16.6199941,11.456297 16.8957655,11.654242 17.1315426,11.8920243 C17.3677779,12.1302637 17.5634296,12.4081444 17.7078938,12.7106457 C17.9990477,13.3202199 18.0751091,14.022987 17.9245574,14.6811495 C17.8593619,14.9659527 17.7521429,15.2410252 17.6074169,15.4950035 C17.4535923,15.7647861 17.2576133,16.0104705 17.0285129,16.2204974 C16.76328,16.4636348 16.4540599,16.6584451 16.1193769,16.7915405 C15.7727807,16.9294033 15.4005907,17 15.0275498,17 C14.6544434,17 14.2822534,16.9294033 13.9356571,16.7915405 C13.6010396,16.6584451 13.2916886,16.4636348 13.0265212,16.2204974 C12.7974208,16.0104052 12.6014417,15.7647861 12.4476826,15.4950035 C12.3028911,15.2410252 12.1956721,14.9659527 12.1304767,14.6811495 C12.070256,14.4178322 12.0462987,14.1473312 12.0578846,13.8785282 C11.7603159,13.8011396 11.469162,13.6994568 11.1863211,13.5789657 C10.1952327,13.1568222 9.28459123,12.4842922 8.73088823,11.5470082 C8.61077416,11.3437732 8.50846445,11.1300892 8.4255301,10.9091561 C8.28944445,10.5463112 8.20644463,10.1647886 8.17266869,9.77902099 C8.16291555,9.66747688 8.15715531,9.55560624 8.15525705,9.44360498 C8.15355516,9.34655899 8.15342425,9.24970893 8.1493659,9.15266294 C8.14543846,9.087552 8.14046371,9.0227023 8.13424527,8.95772197 C8.09974929,8.65195528 8.03134645,8.3521315 7.91201786,8.06765484 C7.85304086,7.92698387 7.78260885,7.79108031 7.70157276,7.66177273 C7.22183647,6.89591924 6.39766405,6.40899133 5.54901062,6.14907004 C5.41371046,6.10766549 5.27683932,6.07305286 5.13859358,6.04314232 C5.08570411,6.09976336 5.03058909,6.1543599 4.9734449,6.2068013 C4.70827752,6.44993872 4.39899195,6.64474907 4.06430895,6.77784445 C3.71771274,6.91564191 3.34558819,6.98630393 2.97248179,6.98630393 C2.59937538,6.98630393 2.22725083,6.91564191 1.88065462,6.77784445 C1.54597163,6.64474907 1.23675151,6.44993872 0.971518678,6.2068013 C0.742418254,5.99677445 0.546439205,5.75109006 0.392614634,5.48130744 C0.247823165,5.22732908 0.140604167,4.95225661 0.0754741887,4.6673881 C-0.0751429762,4.00929092 0.000983822035,3.30645854 0.292072276,2.69694966 C0.436601915,2.39444831 0.632253678,2.11663294 0.868423487,1.87839353 C1.10420055,1.64054597 1.38003746,1.44253558 1.68146817,1.2960523 C1.94571914,1.16765902 2.22908364,1.07910293 2.51958298,1.03430243 C2.64440998,1.01510221 2.76969518,1.00556741 2.89589679,1.0007347 C2.97248179,0.999755099 2.9721545,0.999755099 3.04906679,1.0007347 C3.17526839,1.00556741 3.3005536,1.01510221 3.4253806,1.03430243 C3.71587994,1.07910293 3.99924443,1.16765902 4.26349541,1.2960523 C4.56492611,1.44260089 4.84069757,1.64054597 5.07647463,1.87832823 C5.15921261,1.96179039 5.23697584,2.05008526 5.30937158,2.14262507 L12.69066,2.14262507 C12.7629903,2.05008526 12.8407535,1.96179039 12.9234915,1.87832823 C13.1592685,1.64054597 13.43504,1.44260089 13.7364707,1.2960523 C14.0007217,1.16765902 14.2841516,1.07910293 14.5745855,1.03430243 C14.699478,1.01510221 14.8247632,1.00556741 14.9508993,1.0007347 C15.0278116,0.999755099 15.0275498,0.999755099 15.1041348,1.0007347 C15.2302709,1.00556741 15.3555561,1.01510221 15.4804486,1.03430243 C15.7709479,1.07910293 16.0543124,1.16765902 16.3185634,1.2960523 C16.6199941,1.44260089 16.8957655,1.64054597 17.1315426,1.87832823 C17.3677779,2.11656763 17.5634296,2.39444831 17.7078938,2.69694966 C17.9990477,3.30652385 18.0751091,4.00929092 17.9245574,4.6673881 C17.8593619,4.95225661 17.7521429,5.22732908 17.6074169,5.48130744 C17.4535923,5.75109006 17.2576133,5.99677445 17.0285129,6.2068013 C16.7632146,6.44993872 16.4539945,6.64474907 16.1193769,6.77784445 C15.7727807,6.91564191 15.4005907,6.98630393 15.0275498,6.98630393 C14.6544434,6.98630393 14.2823188,6.91564191 13.9356571,6.77784445 C13.6010396,6.64474907 13.291754,6.44993872 13.0265212,6.2068013 C12.8713875,6.06449766 12.7314399,5.90593262 12.6094275,5.73450212 L7.04156716,5.73450212 L7.04156716,5.73450212 Z M14.9760349,11.9937724 C14.8917259,11.9970377 14.8079406,12.0033725 14.7244826,12.0162379 C14.5311219,12.0460179 14.342474,12.1050553 14.1665249,12.1905419 C13.9644583,12.2887634 13.7796725,12.4215976 13.6215932,12.5810116 C13.451077,12.7529646 13.3120458,12.9556117 13.2130744,13.1764142 C12.9650568,13.7298245 12.9804393,14.3842645 13.255098,14.9250053 C13.3572113,15.1260851 13.4932315,15.3097933 13.6558928,15.4662032 C13.8293545,15.6330622 14.0329266,15.7685086 14.2544995,15.8630076 C14.4823562,15.9602496 14.7282792,16.013344 14.9760349,16.0196788 C15.2258198,16.0260136 15.4761284,15.9853927 15.7105309,15.8988611 C15.9367512,15.8153336 16.146869,15.6897486 16.3282511,15.5311835 C16.4979163,15.382937 16.6423805,15.2062819 16.7538542,15.0106879 C17.0708637,14.4544694 17.1037887,13.7604534 16.8420251,13.1764142 C16.7495995,12.9702405 16.6222196,12.779871 16.466955,12.615559 C16.3127377,12.4524877 16.1312247,12.315278 15.9316455,12.2121585 C15.6818606,12.0831122 15.4102129,12.013691 15.1301213,11.9957316 C15.0786719,11.9937724 15.0275498,11.9931193 14.9760349,11.9937724 L14.9760349,11.9937724 L14.9760349,11.9937724 Z M14.9760349,1.98007631 C14.6946341,1.99085194 14.4203027,2.05348121 14.1665249,2.17678056 C13.9644583,2.27500207 13.7796725,2.40790152 13.6215932,2.56731555 C13.4625975,2.72770919 13.330832,2.91474802 13.2335625,3.1183748 C12.9577256,3.69601393 12.9740899,4.39081357 13.2776807,4.95447704 C13.384507,5.15281396 13.5247164,5.33306088 13.6909124,5.48542178 C13.8684325,5.64816646 14.0752775,5.77871486 14.2992722,5.86779341 C14.5304673,5.95974547 14.7786812,6.00657048 15.0275498,6.00657048 C15.2764183,6.00657048 15.5245668,5.95974547 15.7558273,5.86779341 C15.979822,5.77871486 16.1866015,5.64810115 16.3641216,5.48542178 C16.5303176,5.33306088 16.6705926,5.15281396 16.7774188,4.95447704 C17.0809441,4.39081357 17.0973739,3.69601393 16.8214715,3.1183748 C16.7242021,2.91474802 16.592502,2.72770919 16.4335063,2.56731555 C16.2754271,2.40790152 16.0906412,2.27500207 15.8885092,2.17678056 C15.6347313,2.05348121 15.3604,1.99085194 15.0790646,1.98007631 C15.0275498,1.97942324 15.0279425,1.97942324 14.9760349,1.98007631 L14.9760349,1.98007631 L14.9760349,1.98007631 Z M4.70840843,4.97988141 C4.71312136,4.97145682 4.71776882,4.96296693 4.72235083,4.95447704 C5.02587617,4.39081357 5.04230594,3.69601393 4.76646903,3.1183748 C4.66919953,2.91474802 4.53743406,2.72770919 4.37843837,2.56731555 C4.22035907,2.40790152 4.03557322,2.27500207 3.83350664,2.17678056 C3.57972883,2.05348121 3.30533198,1.99085194 3.02399665,1.98007631 C2.97208904,1.97942324 2.97248179,1.97942324 2.92096692,1.98007631 C2.83665796,1.98327634 2.75293812,1.98967641 2.66948011,2.00254187 C2.4760539,2.03232179 2.28740606,2.09129388 2.11145693,2.17684586 C1.90939036,2.27500207 1.7246045,2.40783621 1.56659067,2.56725024 C1.40752952,2.72770919 1.27576404,2.91474802 1.17849455,3.1183748 C0.902657636,3.69588332 0.919021953,4.39081357 1.22254729,4.95441173 C1.329439,5.15274865 1.46964846,5.33299557 1.63584445,5.48542178 C1.81336455,5.64810115 2.02020951,5.77871486 2.24420427,5.86779341 C2.47539932,5.95974547 2.72361327,6.00657048 2.97248179,6.00657048 C3.22135031,6.00657048 3.4694988,5.95974547 3.70075931,5.86779341 C3.92468861,5.77871486 4.13159902,5.64816646 4.30905367,5.48542178 C4.43721899,5.36793474 4.5499364,5.23392507 4.64380212,5.08776833 L4.66206469,4.97256704 L4.70840843,4.97988141 L4.70840843,4.97988141 Z M15.0444377,2.95752401 C15.6174506,2.95752401 16.0826554,3.42165983 16.0826554,3.99335605 C16.0826554,4.56498695 15.6174506,5.02912278 15.0444377,5.02912278 C14.4714903,5.02912278 14.0062855,4.56498695 14.0062855,3.99335605 C14.0062855,3.42165983 14.4714903,2.95752401 15.0444377,2.95752401 L15.0444377,2.95752401 L15.0444377,2.95752401 Z M12.1831043,3.1222279 L5.81699266,3.1222279 C5.96682434,3.62143351 5.98606877,4.15779871 5.86948939,4.6673881 C5.86281275,4.69664557 5.8556779,4.72583774 5.84808486,4.75489929 L12.1519467,4.75489929 C12.1443536,4.72583774 12.1372188,4.69671088 12.1304767,4.6673881 C12.0138973,4.15779871 12.0332072,3.62143351 12.1831043,3.1222279 L12.1831043,3.1222279 L12.1831043,3.1222279 Z"/>
  </g>
</svg>
