<svg xmlns="http://www.w3.org/2000/svg" width="64" height="64" viewBox="0 0 64 64">
  <g fill="none" fill-rule="evenodd">
    <circle cx="32" cy="32" r="32" fill="#DCEEF5"/>
    <circle cx="32" cy="32" r="30" stroke="#2DBBE9" stroke-width="4"/>
    <g transform="translate(2 16.476)">
      <path fill="#FFFFFF" fill-rule="nonzero" d="M22.2390242,2.24824472 C17.1034785,2.23975743 11.9783863,4.16453078 8.07455255,8.02699535 C0.246076218,15.7725129 0.293192455,28.377095 8.17978961,36.1801175 C12.056047,40.015298 17.1046484,41.9767511 22.1662802,42.0602346 C27.4038466,42.1472345 32.655573,40.2234835 36.6370064,36.2842416 C44.4654827,28.538724 44.4183665,15.9341419 36.5317693,8.13111946 C32.5773364,4.21859193 27.4027957,2.25613172 22.2390268,2.24824291 L22.2390242,2.24824472 Z M6.84062918,37.5050867 C-1.79105683,28.9648712 -1.84262439,15.169467 6.72544982,6.69218913 C15.293524,-1.78508873 29.2366846,-1.73406764 37.8683706,6.80614794 C46.5000566,15.3463635 46.5516242,29.1417677 37.98355,37.6190455 C29.4154758,46.0963234 15.4723152,46.0453023 6.84062918,37.5050867 Z"/>
      <g transform="translate(2.108 2.16)">
        <path fill="#018BC4" d="M20.1948952,39.6672766 C31.3482279,39.6672766 40.3897904,30.7874543 40.3897904,19.8336383 C40.3897904,8.87982233 31.3482279,0 20.1948952,0 C9.04156257,0 0,8.87982233 0,19.8336383 C0,30.7874543 9.04156257,39.6672766 20.1948952,39.6672766 Z"/>
        <path fill="#25CAAB" d="M21.4584173,0.0396051978 C21.1805205,4.0277068 20.9165349,6.35990491 20.6664605,7.03619953 C20.2913489,8.05064145 19.4552035,9.7713619 19.3152731,10.6616656 C19.1753428,11.5519693 19.7669782,13.3786437 18.5535118,12.1961788 C17.7445342,11.4078688 16.9517591,10.1494339 16.1751864,8.42087396 C15.5120309,9.21855894 15.0197379,10.2109372 14.6983072,11.3980089 C14.2161611,13.1786163 16.1980877,17.4577476 17.1210666,17.3658563 C18.0440456,17.2739649 20.8063909,17.5821283 22.6416882,17.9501787 C24.4769856,18.3182291 26.1239907,18.6428796 26.962591,20.6834014 C27.8011913,22.7239232 29.247875,28.1101152 28.7352879,30.2587731 C28.3935632,31.6912116 26.6007359,34.7249199 23.3568061,39.359898 L19.750521,39.8405738 C19.0985007,35.0904772 18.9534181,32.0911818 19.3152731,30.8426877 C19.8580557,28.9699464 12.7115413,26.4941364 12.9280651,23.9931879 C13.144589,21.4922394 14.6983072,20.4285786 14.6983072,18.8972175 C14.6983072,17.3658563 11.7794086,14.2337911 9.44772663,13.3594895 C7.11604466,12.485188 5.60676052,12.2553384 5.60676052,12.807414 C5.60676052,13.1754643 4.73092729,12.4602149 2.97926082,10.6616656 C5.50668166,6.59597764 8.33785779,3.75413399 11.4727892,2.13613468 C14.6077207,0.518135364 17.9362634,-0.180707795 21.4584173,0.0396051978 Z"/>
      </g>
    </g>
    <g transform="translate(5 51)" stroke-linecap="round" stroke-linejoin="round">
      <path stroke="#FFFFFF" stroke-width="5" d="M0.463660513,1.19693845 C0.227569103,6.36605092 3.08348967,9.46532497 9.03142221,10.4947606 C17.953321,12.038914 29.9484097,5.95967136 35.4429815,0.225451197"/>
      <path stroke="#FF4100" stroke-width="3" d="M0.463660513,1.19693845 C0.227569103,6.36605092 3.08348967,9.46532497 9.03142221,10.4947606 C17.953321,12.038914 29.9484097,5.95967136 35.4429815,0.225451197"/>
    </g>
    <g transform="translate(28.004 1)">
      <ellipse cx="17.379" cy="17.135" fill="#FF866A" stroke="#133A51" stroke-width="1.5" rx="17.379" ry="17.135"/>
      <path fill="#DCEEF5" d="M19.6726994,0.260942301 C21.4672315,6.30764916 22.4707724,11.4385901 22.6833223,15.6537651 C23.0021472,21.9765276 20.0434214,33.8701566 20.1938253,33.8207253 C20.2940945,33.7877711 21.293327,33.544026 23.1915228,33.08949 C27.473463,26.1528914 29.3127768,20.3409831 28.7094641,15.6537651 C28.1061515,10.9665471 26.0974375,6.1236335 22.6833223,1.12502422 L19.6726994,0.260942301 Z"/>
      <path fill="#FFFFFF" d="M6.2635052,0.347923068 C7.9317868,5.5115109 8.93532777,10.6424518 9.27412812,15.7407459 C9.78232863,23.3881869 6.63422719,33.9571374 6.78463104,33.9077061 C6.88490027,33.8747519 7.8841328,33.6310068 9.78232863,33.1764707 C14.0642688,26.2398721 15.9035826,20.4279639 15.3002699,15.7407459 C14.6969572,11.0535279 12.6882433,6.21061427 9.27412812,1.21200498 L6.2635052,0.347923068 Z" transform="matrix(-1 0 0 1 21.676 0)"/>
      <path fill="#6ED4FA" stroke="#133A51" stroke-width="1.5" d="M11.3542951,43.0554796 L23.4919662,43.0554796 L23.4919662,43.0554796 C23.7424492,43.0554796 23.9455058,43.2585362 23.9455058,43.5090192 C23.9455058,43.5247729 23.944685,43.5405158 23.9430467,43.556184 L23.1557068,51.0862392 L23.1557068,51.0862392 C23.1315572,51.3172036 22.9368497,51.492614 22.7046262,51.492614 L12.1416351,51.492614 L12.1416351,51.492614 C11.9094116,51.492614 11.7147041,51.3172036 11.6905545,51.0862392 L10.9032146,43.556184 L10.9032146,43.556184 C10.8771662,43.3070591 11.0580054,43.0839871 11.3071303,43.0579387 C11.3227985,43.0563004 11.3385415,43.0554796 11.3542951,43.0554796 Z"/>
      <path fill="#31A6D3" d="M22.2065383,43.0554796 L23.4919662,43.0554796 L23.4919662,43.0554796 C23.7424492,43.0554796 23.9455058,43.2585362 23.9455058,43.5090192 C23.9455058,43.5247729 23.944685,43.5405158 23.9430467,43.556184 L23.1557068,51.0862392 L23.1557068,51.0862392 C23.1315572,51.3172036 22.9368497,51.492614 22.7046262,51.492614 L21.7341344,51.492614 L21.7341344,51.492614 C21.4836514,51.492614 21.2805948,51.2895574 21.2805948,51.0390744 C21.2805948,51.0296017 21.2808916,51.0201312 21.2814847,51.0106771 L21.7538886,43.4806219 L21.7538886,43.4806219 C21.7688817,43.2416352 21.9670818,43.0554796 22.2065383,43.0554796 Z" style="mix-blend-mode:darken"/>
      <path stroke="#133A51" stroke-width="1.5" d="M1.7036453 24.4762543L11.3559299 42.9023426M10.8580953 33.0037291L14.6807325 42.8676837M33.0908785 24.4762543L23.4385939 42.9023426 33.0908785 24.4762543zM23.9364285 33.0037291L20.1137913 42.8676837 23.9364285 33.0037291zM12.5297005.624930418C7.96301137 6.49968241 5.9280551 12.4328992 6.42483171 18.4245807 6.92160831 24.4162623 8.81281924 29.5231108 12.0984645 33.7451264L12.0984645 33.7451264"/>
      <path stroke="#133A51" stroke-width="1.5" d="M28.3207911,0.624930418 C23.7541019,6.49968241 21.7191457,12.4328992 22.2159223,18.4245807 C22.7126989,24.4162623 24.6039098,29.5231108 27.889555,33.7451264" transform="matrix(-1 0 0 1 50.464 0)"/>
      <path stroke="#133A51" stroke-width="1.5" d="M15.1426001,0 C14.0469705,3.92212686 12.2505849,11.5361648 12.2624134,18.7455629 C12.2742418,25.954961 13.667622,31.7518456 15.1426001,34.2978188"/>
      <path stroke="#133A51" stroke-width="1.5" d="M22.3765075,0 C21.2808779,3.92212686 19.4844923,11.5361648 19.4963208,18.7455629 C19.5081492,25.954961 20.9015294,31.7518456 22.3765075,34.2978188" transform="matrix(-1 0 0 1 41.873 0)"/>
      <path fill="#F2604F" d="M22.3332568,0.684748398 C26.7934099,6.71163125 28.8128297,12.1968297 28.3915161,17.1403437 C27.7595458,24.5556147 22.7644929,33.464251 23.1863287,33.3175019 C23.6081645,33.1707527 34.2948673,27.4695499 34.6969234,18.8167591 C35.0989795,10.1639684 32.5945988,7.32263532 29.9913196,5.19380781 C28.2558002,3.77458947 25.7031126,2.27156967 22.3332568,0.684748398 Z" style="mix-blend-mode:darken"/>
    </g>
  </g>
</svg>
