<svg xmlns="http://www.w3.org/2000/svg" width="16" height="16" viewBox="0 0 16 16">
  <g fill="none" fill-rule="evenodd">
    <rect width="16" height="16" fill="#00FFFF"/>
    <path fill="#FF00FF" d="M1,5 L1,6 L5.45022427,6 C5.79212186,5.62011603 6.18498229,5.28357185 6.61836802,5 L1,5 Z M1,8 L1,9 L4.04927924,9 C4.09553095,8.65608631 4.17365175,8.32183997 4.28067371,8 L1,8 Z M1,11 L1,12 L4.48471373,12 C4.33980401,11.6772354 4.22648604,11.3426375 4.14598012,11 L1,11 Z M1,2 L12,2 L12,3 L1,3 L1,2 Z"/>
    <path fill="#FF00FF" fill-rule="nonzero" d="M9.9999116,5 C7.24304582,5 5.00001551,7.12571336 5.00001551,9.73833327 C5.00001551,10.648804 5.27270215,11.5305379 5.78961448,12.293682 C5.6915396,13.4225118 5.43192961,14.2591168 5.05636049,14.6545513 C4.99790016,14.7160724 4.98328508,14.8099729 5.02020739,14.887886 C5.05309133,14.9572996 5.12020532,15 5.1923192,15 C5.28635571,14.9880601 6.84074648,14.7524993 7.97245373,14.0701016 C8.61282504,14.3398632 9.29434934,14.4766665 10.0001039,14.4766665 C12.7569697,14.4766665 15,12.3511555 15,9.73833327 C15,7.12551099 12.7569697,5 9.9999116,5 Z"/>
  </g>
</svg>
