<svg xmlns="http://www.w3.org/2000/svg" width="20" height="16" viewBox="0 0 20 16">
  <g fill="none" fill-rule="evenodd">
    <rect width="20" height="16" fill="#00FFFF"/>
    <path fill="#FF00FF" d="M12.7055147 6L6 6 6 7 11.2250619 7C11.6581275 6.59115393 12.1575672 6.25186519 12.7055147 6L12.7055147 6zM9.87494031 9L6 9 6 10 9.59068811 10C9.65419326 9.65427222 9.75002732 9.31985556 9.87494031 9L9.87494031 9zM9.59068811 12L6 12 6 13 9.87494031 13C9.75002732 12.6801444 9.65419326 12.3457278 9.59068811 12L9.59068811 12zM6 3L17 3 17 4 6 4 6 3zM3.3500061 1.93579254L3.3500061 7 2.3500061 7 2.3500061 1.89263458.707106781 3.53553391-.77315973e-15 2.82842712 2.82842712.26485497e-14 5.65685425 2.82842712 4.94974747 3.53553391 3.3500061 1.93579254zM15 15.5C12.5147186 15.5 10.5 13.4852814 10.5 11 10.5 8.51471863 12.5147186 6.5 15 6.5 17.4852814 6.5 19.5 8.51471863 19.5 11 19.5 13.4852814 17.4852814 15.5 15 15.5zM15.5 11L15.5 8.49538898C15.5 8.2217932 15.2786698 8 14.9921684 8L14.5078316 8C14.2273639 8 14 8.21704435 14 8.49877232L14 12.0012277C14 12.276692 14.2150574 12.5 14.4904785 12.5L17.5095215 12.5C17.7804053 12.5 18 12.2786698 18 11.9921684L18 11.5078316C18 11.2273639 17.7692871 11 17.4940877 11L15.5 11z"/>
  </g>
</svg>
