<svg xmlns="http://www.w3.org/2000/svg" width="20" height="16" viewBox="0 0 20 16">
  <g fill="none" fill-rule="evenodd">
    <rect width="20" height="16" fill="#00FFFF"/>
    <path fill="#FF00FF" d="M13.1795324,6 L6,6 L6,7 L12.798648,7 L13.1795324,6 L13.1795324,6 Z M12.0368791,9 L6,9 L6,10 L11.6559946,10 L12.0368791,9 L12.0368791,9 Z M10.8942257,12 L6,12 L6,13 L10.5133413,13 L10.8942257,12 L10.8942257,12 Z M6,3 L17,3 L17,4 L6,4 L6,3 Z"/>
    <path fill="#FF00FF" d="M3.3500061,1.93579254 L3.3500061,7 L2.3500061,7 L2.3500061,1.89263458 L0.707106781,3.53553391 L-5.77315973e-15,2.82842712 L2.82842712,2.26485497e-14 L5.65685425,2.82842712 L4.94974747,3.53553391 L3.3500061,1.93579254 Z" transform="matrix(1 0 0 -1 0 7)"/>
    <path fill="#FF00FF" d="M17.0342368,13.3186813 L13.946505,13.3186813 L13.4072753,15 L11,15 L14.4279601,6 L16.5463623,6 L20,15 L17.5798859,15 L17.0342368,13.3186813 Z M14.4857347,11.643544 L16.4950071,11.643544 L15.4871612,8.52197802 L14.4857347,11.643544 Z"/>
  </g>
</svg>
