<svg xmlns="http://www.w3.org/2000/svg" width="48" height="48" viewBox="0 0 48 48" xmlns:xlink="http://www.w3.org/1999/xlink">
  <defs>
    <path id="a" d="M0,0 C0,0 0.68439272,3.11450868 0.823233429,5.77100422 C0.962074138,8.42749976 0.0541347371,11.6247133 2.88105421,12.681444 C7.31493445,14.3178808 8.96884703,9.10448294 12.8300203,9.35443112 C16.6911936,9.6043793 16.899586,13.5477702 21.3756878,12.7896262 C24.9361122,12.186576 22.944982,9.01753186 22.944982,6.89847315 C22.944982,4.77941445 23.4812488,0.449810212 23.4812488,0.449810212 L0,0 Z"/>
    <path id="b" d="M43.6493359,1.71312712 C43.6493359,-0.424940653 47.8774594,2.45662322 49.1262648,4.32711348 C50.8012581,6.83601838 52.3032923,12.6853878 51.9472414,12.2706496 C51.3983689,12.2087641 50.4524584,11.8003931 49.8974461,11.8247625 C49.8974461,11.8247625 50.5443336,12.3038598 51.0179802,14.2456718 C51.4916822,16.1875297 49.1262648,18.7231969 49.1262648,18.7231969 C49.1262648,18.7231969 52.5765493,20.29064 50.8562545,20.7073479 C49.1360703,21.12401 48.6041236,20.3566024 48.6041236,20.3566024 C48.6041236,20.3566024 48.6698909,22.0920989 46.9525277,21.9932928 C45.2351644,21.8944867 45.3009318,20.8242478 45.3009318,20.8242478 C45.3009318,20.8242478 45.1711118,22.1032758 43.6493359,21.9932928 C42.1276154,21.8833098 42.1479153,20.9411477 42.1479153,20.9411477 C42.1479153,20.9411477 41.3234725,22.299926 39.7456091,21.759493 C38.167801,21.2190599 41.0650514,19.1767775 40.8536445,17.3528732 C40.6422929,15.5289688 39.9218609,15.1814014 39.051121,14.5568206 C38.1804365,13.9322397 36.5925926,13.4591409 36.5925926,13.4591409 L43.6493359,1.71312712 Z"/>
    <path id="c" d="M1.77720368,0.650477763 C1.77720368,-1.4779537 9.44400102,2.05378998 12.0172724,4.95423032 C13.9206149,7.09956625 15.7182093,12.7273689 15.3619882,12.3144999 C14.8128533,12.2528934 13.8664907,11.8463629 13.3112131,11.8706225 C13.3112131,11.8706225 13.9584098,12.3475605 14.4322828,14.2806207 C14.9062112,16.2137266 12.5396632,18.7379655 12.5396632,18.7379655 C12.5396632,18.7379655 15.9915969,20.2983441 14.2704798,20.7131739 C12.5494734,21.1279581 12.0172724,20.3640092 12.0172724,20.3640092 C12.0172724,20.3640092 12.0830712,22.0916838 10.3648871,21.993323 C8.64670293,21.8949623 8.71250172,20.829547 8.71250172,20.829547 C8.71250172,20.829547 8.58261967,22.1028104 7.06011639,21.993323 C5.53766846,21.8838357 5.5579781,20.94592 5.5579781,20.94592 C5.5579781,20.94592 4.73314126,22.2985743 3.15452362,21.7605769 C1.57596133,21.2225796 4.47459664,19.1895018 4.26308866,17.3738178 C4.05163602,15.5581338 3.3308597,15.212133 2.4597036,14.5903671 C1.58860285,13.9686012 0,13.4976347 0,13.4976347 L1.77720368,0.650477763 Z"/>
    <path id="d" d="M12.2410328,5.45623188 C12.5535039,5.12182214 13.4484045,4.13985542 14.2420069,3.57012202 C15.1999581,2.88235621 15.9109921,2.45835671 15.9109921,2.45835671 L16.6898519,3.90365162 C16.6898519,3.90365162 17.7257354,3.21343065 17.9137744,2.34718018 C18.1018134,1.48088339 17.9137744,0.346002621 17.9137744,0.346002621 C17.9137744,0.346002621 19.0268948,0.554921853 19.6940252,1.56894446 C20.3611093,2.58292075 20.4253653,3.85028688 21.5855418,4.45953427 C22.150586,4.75623664 22.8515134,5.11121404 23.4218891,5.39726199 C29.8677417,7.66832058 34.4923606,13.8111945 34.4923606,21.0248374 C34.4923606,30.1674858 27.0637075,37.5901406 17.9137744,37.5901406 C8.76379486,37.5901406 1.33518815,30.1674858 1.33518815,21.0248374 C1.33518815,20.9255197 1.336069,20.8263873 1.33783071,20.7274865 L0.445062717,21.0248374 L1.55275891,18.3368668 C1.60829903,17.9973152 1.67417759,17.6612378 1.75007005,17.3290053 L-4.54747351e-13,17.9118945 C-4.54747351e-13,17.9118945 1.04506289,15.7609529 2.00278223,14.3542455 C2.55544813,13.5423789 3.39666302,12.1861179 4.00931967,11.5602867 C5.95512459,8.57339019 8.83848195,6.69580388 12.2410328,5.45623188 Z"/>
    <path id="e" d="M17.647833,11.3027523 C24.0062957,11.3320751 29.1472337,13.5453682 29.1472337,16.2673403 C29.1472337,19.0075175 23.9372182,21.2322062 17.5199702,21.2322062 C11.1026758,21.2322062 5.8927067,19.0075175 5.8927067,16.2673403 C5.8927067,14.062895 9.26452038,12.1921182 13.9242343,11.5448392 C14.1678598,11.8863364 14.5346656,12.3140881 15.0164924,12.6365927 C15.960489,13.2684923 18.0206657,14.0818876 18.0206657,14.0818876 C18.0206657,14.0818876 17.2087972,13.2862806 17.241806,12.4142397 C17.2584031,11.9749534 17.4558997,11.5832877 17.647833,11.3027523 Z"/>
    <path id="f" d="M24.1048249,23.6138874 C27.0956463,22.7985928 28.7778907,21.914971 28.7578165,23.4305387 C28.7402922,24.7496483 23.9715842,28.933777 18.0763113,28.933777 C12.180992,28.933777 7.37941434,24.9720477 7.39480609,23.6528918 C7.40991968,22.3527749 9.10848299,23.0995569 12.1322669,23.7786602 C12.5435327,24.5714879 13.0887809,25.4708134 13.3784425,25.4873046 C13.6518316,25.5028229 14.3355128,24.8573969 14.8931393,24.2760826 C15.8714428,24.4036576 16.9346791,24.4867158 18.0763113,24.4867158 C19.2028299,24.4867158 20.2545688,24.389529 21.2244346,24.239348 C21.7881807,24.8298343 22.495135,25.5031472 22.7742728,25.4873046 C23.0842404,25.4697016 23.6868368,24.4410871 24.1048249,23.6138874 Z"/>
    <path id="h" d="M0,2.61904113 C0.580853206,1.11593443 2.70774303,0 5.2395472,0 C7.23301092,0 8.97543146,0.691795965 9.90983136,1.71966932 C8.18637235,2.55076021 6.09439214,3.1641304 3.83722875,3.1641304 C2.48572163,3.1641304 1.19170179,2.95590602 0,2.61904113 Z"/>
  </defs>
  <g fill="none" fill-rule="evenodd">
    <rect width="48" height="48" fill="#297BCC"/>
    <g transform="translate(12 34)" stroke-linecap="round" stroke-linejoin="round">
      <use fill="#FFFFFF" xlink:href="#a"/>
      <path stroke="#297BCC" stroke-width="1.3" d="M-0.811784891,-0.66566992 L24.2149989,-0.186253215 L24.1263195,0.529708963 C24.1097951,0.663120208 24.0807025,0.906213495 24.0432364,1.23337508 C23.9807379,1.77912333 23.9182332,2.35785736 23.859921,2.94385758 C23.8132833,3.41253595 23.7712931,3.86658678 23.7350932,4.29893425 C23.6450126,5.37479706 23.594982,6.26478191 23.594982,6.89847315 C23.594982,7.29921402 23.6576895,7.67035924 23.8576979,8.59175546 C23.8785787,8.68798185 23.8785787,8.68798185 23.8994896,8.78506093 C24.4992817,11.5789764 24.0907024,12.9890258 21.4842362,13.4304985 C19.2319783,13.8119768 18.0265414,13.3012251 16.194585,11.7263565 C16.1249528,11.6664559 16.1249528,11.6664559 16.0558389,11.6069859 C14.7448482,10.4795437 14.0340686,10.0837341 12.7880312,10.0030735 C11.5714654,9.92432063 10.7483451,10.3360935 8.95932461,11.6846254 L8.94966609,11.6919059 C6.38211822,13.6272875 4.98209206,14.1497432 2.65345932,13.2902958 C0.443584531,12.4642226 0.0503368464,11.0366473 0.164430809,7.54404578 C0.166765293,7.47257636 0.166765293,7.47257636 0.169068215,7.40131159 C0.193105872,6.65349136 0.196702167,6.23701551 0.174119381,5.80492991 C0.157393853,5.4849136 0.131966459,5.14786002 0.0984505929,4.79583093 C0.0257567366,4.03230142 -0.0828775512,3.21768359 -0.217884944,2.3810556 C-0.309363906,1.81416916 -0.407414911,1.27111876 -0.505409746,0.771396389 C-0.56401806,0.472524661 -0.609376308,0.255443457 -0.634853069,0.13950477 L-0.811784891,-0.66566992 Z"/>
    </g>
    <g transform="translate(-2 21)" stroke-linecap="round" stroke-linejoin="round">
      <use fill="#FFFFFF" xlink:href="#b"/>
      <path stroke="#297BCC" stroke-width="1.252" d="M43.0322317,1.52487919 C43.1031796,0.786493201 43.5969477,0.332875503 44.3275472,0.33060455 C44.8582779,0.328954857 45.5023096,0.561364881 46.2279186,0.972245825 C47.5348931,1.7123288 48.9707181,2.96686117 49.6468376,3.97956899 C50.430765,5.15378218 51.2275753,7.07643467 51.8956713,9.20804758 C52.1567613,10.0410755 52.3745456,10.8389049 52.503409,11.422237 C52.5674881,11.7123067 52.6076619,11.9401787 52.6207841,12.100126 C52.6337079,12.2576555 52.6300674,12.3670728 52.57496,12.5068809 C52.4051088,12.9377956 52.032503,13.0033914 51.7373514,12.8737588 C51.5956021,12.8509648 51.4494902,12.8153492 51.1954306,12.7440746 C51.2267605,12.8204762 51.257913,12.9000535 51.2888131,12.9828838 C51.4125767,13.3146423 51.5255909,13.685379 51.6260743,14.0973317 C51.7351147,14.5443236 51.7308465,15.0204077 51.6299844,15.5181319 C51.4800866,16.2578326 51.1250474,17.0204602 50.6287046,17.7861441 C50.4625954,18.0423926 50.2882795,18.2868606 50.1116578,18.5163756 C50.2611406,18.5965722 50.4085044,18.6793196 50.5509724,18.7638438 C50.8456484,18.9386708 51.1014262,19.1105223 51.3098185,19.2798262 C51.6874122,19.5865941 51.9188882,19.8778977 51.9579058,20.2482501 C52.0177912,20.8166787 51.6154528,21.1674744 51.003605,21.3156826 C50.2229032,21.5047838 49.5717079,21.4985388 49.0488425,21.3393233 C49.0368568,21.369512 49.0241774,21.3997779 49.0107758,21.4300888 C48.6661831,22.2094688 47.9550037,22.6779299 46.9165754,22.6181853 C46.226854,22.5785032 45.6918922,22.3955951 45.3113749,22.0916015 C44.9055114,22.4719993 44.3305022,22.6700811 43.6042145,22.6175903 C42.8922003,22.5661291 42.3561133,22.3489668 41.9965955,21.9954121 C41.3277747,22.4968616 40.490849,22.6763672 39.542784,22.351646 C38.7743599,22.0884443 38.4976629,21.4688514 38.7259921,20.7448496 C38.7975031,20.5180976 38.9122871,20.2833537 39.0827966,19.9922475 C39.1823983,19.8222002 39.6781967,19.0298217 39.5369962,19.2575091 C39.9045762,18.6647821 40.1010373,18.272924 40.1915847,17.9049646 C40.2353384,17.7271613 40.2484912,17.5682422 40.2318792,17.4249225 C40.0997631,16.2847983 39.842658,15.8871107 39.0876856,15.3486053 C39.0395728,15.3142875 38.7686014,15.1244699 38.6862796,15.0654206 C38.4741243,14.9132321 38.1846272,14.7543577 37.8397112,14.596948 C37.52911,14.4551986 37.1929449,14.3230848 36.8563536,14.2050229 C36.6545517,14.1342394 36.4990414,14.0843856 36.4138624,14.0590065 L35.6404497,13.8285678 L43.0322317,1.52487919 Z"/>
      <g transform="matrix(-1 0 0 1 15.407 0)">
        <use fill="#FFFFFF" xlink:href="#c"/>
        <path stroke="#297BCC" stroke-width="1.252" d="M1.15191871,0.602756011 C1.17770158,-0.349020517 1.97870687,-0.717335935 3.07861517,-0.605587624 C3.89233353,-0.522915593 4.97371317,-0.186129483 6.18317756,0.343095101 C8.64568017,1.42061083 11.197552,3.08714425 12.4854876,4.53882963 C13.386218,5.55407997 14.3086552,7.31672037 15.1189383,9.36327447 C15.4256395,10.1379179 15.6905413,10.895812 15.8577387,11.4634794 C15.9383092,11.7370317 15.9927257,11.9546627 16.0168305,12.1068502 C16.0415003,12.2626048 16.0463218,12.3661453 16.0016533,12.5095704 C15.913346,12.793114 15.6371807,13.0235735 15.266632,12.9496205 C15.224756,12.941263 15.1871357,12.9306085 15.1528661,12.9178059 C15.0111715,12.895151 14.8651468,12.8597499 14.6112568,12.7888866 C14.6419013,12.863404 14.6723743,12.9409436 14.7026056,13.0215773 C14.8264981,13.352027 14.9396257,13.7212862 15.0402056,14.1315798 C15.1495124,14.5774314 15.1452343,15.0522416 15.0441649,15.5485039 C14.8940467,16.285601 14.5386244,17.0452477 14.0417917,17.8078684 C13.8765772,18.0614667 13.7032557,18.3034705 13.5276216,18.5307832 C13.6760014,18.6100463 13.8222727,18.6918047 13.9637198,18.7753051 C14.2585133,18.9493303 14.514393,19.1203937 14.7228838,19.2889337 C15.1012266,19.5947786 15.3331094,19.8851402 15.3723258,20.2555249 C15.4325595,20.8244106 15.0295028,21.1740815 14.4171365,21.3216762 C13.635753,21.5099995 12.9842978,21.5035853 12.4613771,21.3447206 C12.4494088,21.3747006 12.4367512,21.4047566 12.423376,21.434857 C12.0782993,22.211443 11.3670096,22.6776422 10.3291133,22.6182258 C9.63877504,22.5787061 9.10352329,22.3963946 8.72284236,22.0931569 C8.31681787,22.4724878 7.74168677,22.6698789 7.01521868,22.6176366 C6.30271633,22.5663968 5.76644177,22.3500135 5.4067702,21.9974202 C4.73775943,22.4972095 3.9008493,22.676204 2.95260371,22.3530393 C2.1836284,22.0909611 1.90578717,21.4719061 2.13497549,20.7488013 C2.20665092,20.5226604 2.32160911,20.2887316 2.4923437,19.9986935 C2.59202313,19.8293614 3.0881102,19.040472 2.94680548,19.2671922 C3.31433894,18.6774931 3.5107469,18.2876931 3.60117702,17.922041 C3.64479744,17.7456628 3.65789849,17.5881574 3.64136466,17.4462232 C3.50935174,16.3126656 3.25263634,15.9175592 2.49766278,15.3817362 C2.44952543,15.3475719 2.17842493,15.1586102 2.09606544,15.0998281 C1.88376965,14.9482977 1.59406574,14.790102 1.24891198,14.6333686 C0.938102548,14.492231 0.601717599,14.3606894 0.264906023,14.2431389 C0.0629678031,14.1726606 -0.0926547896,14.1230193 -0.177911809,14.0977435 L-0.693747086,13.944816 L1.15191871,0.602756011 Z"/>
      </g>
    </g>
    <g transform="translate(2 -1)">
      <rect width="44" height="44"/>
      <g transform="translate(4.4 3.143)">
        <g stroke-linecap="round" stroke-linejoin="round">
          <use fill="#FFFFFF" xlink:href="#d"/>
          <path stroke="#297BCC" stroke-width="1.192" d="M11.9025217,4.94583706 C12.3999823,4.41397417 12.5443372,4.2652259 12.8999352,3.92760554 C13.1087402,3.72935692 13.3105993,3.54872264 13.5051393,3.38786216 C13.6391873,3.27702119 13.7689867,3.17622872 13.8945109,3.08611391 C14.3220182,2.7791829 14.7328536,2.50076447 15.1126741,2.25567617 C15.3419454,2.10773329 15.5111337,2.00307019 15.6058266,1.94660351 L16.1403015,1.62788866 L16.8651094,2.97288193 C16.87108,2.96664721 16.8770511,2.96036733 16.88302,2.95404234 C17.1240781,2.69860322 17.2832086,2.4432588 17.3315002,2.22079134 C17.3593065,2.09268735 17.3787804,1.94734059 17.3900093,1.78821163 C17.4134926,1.45542091 17.4000496,1.08971954 17.3629454,0.734157607 C17.3485987,0.596675888 17.3345472,0.49525426 17.3259552,0.443398691 L17.1867611,-0.39668611 L18.0236859,-0.239605449 C18.3904189,-0.170774097 18.8984152,0.0211027039 19.4083861,0.407539847 C19.7107188,0.636636492 19.9759318,0.913358278 20.1917958,1.24146654 C20.3768702,1.52278201 20.5191329,1.80788438 20.6950297,2.21968312 C20.7235169,2.28637547 20.7495098,2.34815727 20.8017268,2.47270347 C21.1736241,3.35823427 21.3931922,3.68553274 21.8625449,3.9320055 C22.3552681,4.19073239 22.9878388,4.5130181 23.6198883,4.83528897 C30.4335748,7.23594598 35.0881939,13.6923057 35.0881939,21.0248374 C35.0881939,30.4966467 27.392686,38.1859739 17.9137744,38.1859739 C8.61137561,38.1859739 1.02662715,30.7804191 0.74732493,21.5521772 L-0.601878163,22.0015513 L0.955836901,18.2215507 L-1.15437181,18.92439 L-0.535925624,17.6515081 C-0.461757884,17.4988566 -0.329865228,17.2347519 -0.154608763,16.896052 C0.137463921,16.3315935 0.443915453,15.7669135 0.750846221,15.2382605 C0.932053475,14.9261519 1.10840988,14.635467 1.27853937,14.3701111 C1.35735507,14.2471799 1.43462236,14.1300233 1.51024021,14.018955 C1.63156565,13.8407279 2.19037289,12.995873 2.33451179,12.7822966 C2.43524452,12.6330369 2.52897459,12.4961722 2.61906015,12.3671081 C2.97805712,11.8527792 3.27702531,11.4651845 3.54143826,11.1871246 C5.42281884,8.32402693 8.20199372,6.31739412 11.9025217,4.94583706 Z"/>
        </g>
        <path fill="#D9EBFA" d="M17.8752685,0 C17.8752685,0 19.1314059,1.37717269 19.181744,2.96401294 C19.232082,4.55085319 17.5065085,5.15604631 17.2786711,5.0348086 C17.0508336,4.9135709 16.6095182,3.26767453 16.4577462,2.92889581 C16.3059743,2.59011709 15.8669325,2.0924154 15.8669325,2.0924154 C15.8669325,2.0924154 16.3188579,4.90337818 15.7583188,5.48030241 C15.1977796,6.05722664 16.1815252,6.27406096 17.6001245,6.08250938 C19.0187237,5.89095779 20.8332065,4.65704069 21.8502582,4.84592465 C22.8673099,5.0348086 23.7280025,5.35289333 23.7280025,5.35289333 C23.7280025,5.35289333 21.3891586,4.30093232 20.9675476,3.61491406 C20.5459366,2.92889581 20.1553183,1.34042313 19.5417686,0.899547905 C18.928219,0.45867268 17.8752685,0 17.8752685,0 Z" style="mix-blend-mode:darken"/>
        <path fill="#E6F9FF" d="M2.90547674,28.0186673 C2.90547674,28.0186673 7.44070401,37.6060108 17.4712852,37.6060108 C27.5018664,37.6060108 32.2951575,30.5467806 33.5800773,26.750515 C34.8649972,22.9542495 34.7773203,19.6889136 32.957701,13.902578 C31.1380817,8.11624243 23.3367825,5.40360797 23.3367825,5.40360797 C23.3367825,5.40360797 29.6384614,10.4961235 30.6313075,17.1525977 C30.6747441,17.4438152 31.6903746,18.6452973 31.7125165,18.9422062 C31.7346584,19.2391151 30.7561859,18.4620206 30.7602574,18.6775344 C30.7724859,19.324822 31.8196844,21.4125395 31.7125165,22.0799293 C31.6053486,22.7473191 30.4712486,21.453194 30.3587369,21.8582564 C29.7721384,23.9701171 28.5000612,26.1483304 26.2473959,28.3032094 C21.8463617,32.5131986 17.4374907,33.4999436 13.6554814,33.0986149 C13.4277831,33.0744527 13.6050162,34.4973699 13.3820007,34.4635453 C13.1589853,34.4297208 12.1666061,32.8712431 11.7733506,32.7801149 C6.53984136,31.5673654 2.90547674,28.0186673 2.90547674,28.0186673 Z" style="mix-blend-mode:multiply"/>
        <g stroke-linecap="round" stroke-linejoin="round">
          <use fill="#C6F1FF" xlink:href="#e"/>
          <path stroke="#297BCC" stroke-width=".757" d="M17.0218579,13.248501 C16.910611,12.9704978 16.8528168,12.6867192 16.8636716,12.399953 C16.8812419,11.9349084 17.0579468,11.4948022 17.335527,11.0890826 L17.4488636,10.9234265 L17.649578,10.9243521 C24.2003425,10.9545617 29.5256379,13.2516506 29.5256379,16.2673403 C29.5256379,19.3045518 24.1250597,21.6106104 17.5199702,21.6106104 C10.9148504,21.6106104 5.51430249,19.3045584 5.51430249,16.2673403 C5.51430249,13.8422136 8.95446903,11.8531497 13.8721702,11.1700338 L14.0991789,11.1385001 L14.2322829,11.3250761 C14.5148556,11.7211669 14.8489573,12.0691087 15.2269853,12.3221369 C15.3796506,12.4243291 15.5738334,12.5380707 15.8035045,12.6606958 C15.9976008,12.7643268 16.2144923,12.8729595 16.4500736,12.9851948 C16.6349756,13.0732856 16.8266885,13.1614107 17.0218579,13.248501 Z"/>
        </g>
        <path fill="#5588BB" d="M10.0790503,20.2568588 C10.0790503,20.2568588 4.2228578,18.6826396 5.984665,15.2489174 C7.74647221,11.8151952 13.8396134,11.444903 13.8396134,11.444903 C13.8396134,11.444903 14.808985,12.7290254 15.2104078,12.7152434 C15.3255915,12.7112888 17.4863997,13.6520953 17.4863997,13.6520953 C17.4863997,13.6520953 17.2049312,13.2658006 17.2138423,12.507383 C17.2227535,11.7489655 17.3015116,12.4775015 17.3039154,12.449308 C17.3519647,11.8857562 17.276375,11.4257104 17.6673025,11.2668486 C18.6966242,10.8485616 19.0257228,11.2668486 19.0257228,11.2668486 C19.0257228,11.2668486 18.4787141,12.1812634 19.0134135,13.1793162 C19.5481129,14.1773691 19.9729207,14.1507609 19.7669381,14.3774732 C19.5609556,14.6041855 18.9273877,14.7405232 17.6673025,13.9860556 C16.4072172,13.2315879 14.4456957,12.2426983 14.4456957,12.2426983 C14.4456957,12.2426983 9.47495058,13.1757869 8.37720936,15.134461 C6.32141607,18.8025651 10.0790503,20.2568588 10.0790503,20.2568588 Z" opacity=".196" style="mix-blend-mode:multiply"/>
        <g transform="translate(9.54 13.788)">
          <path fill="#1655A9" d="M2.2,-3.55271368e-15 C3.41418229,-3.55271368e-15 4.4,0.985760417 4.4,2.2 C4.4,3.41418229 3.41418229,4.4 2.2,4.4 C0.985760417,4.4 -2.48689958e-14,3.41418229 -2.48689958e-14,2.2 C-2.48689958e-14,0.985760417 0.985760417,-3.55271368e-15 2.2,-3.55271368e-15 Z"/>
          <path fill="#FFFFFF" d="M1.35229851,0.576671035 C1.84353648,0.576671035 2.24242394,0.975192576 2.24242394,1.46608328 C2.24242394,1.95697399 1.84353648,2.35549553 1.35229851,2.35549553 C0.861014174,2.35549553 0.462173074,1.95697399 0.462173074,1.46608328 C0.462173074,0.975192576 0.861014174,0.576671035 1.35229851,0.576671035 Z"/>
        </g>
        <g transform="translate(20.747 13.788)">
          <path fill="#1655A9" d="M2.2,-3.55271368e-15 C3.41418229,-3.55271368e-15 4.4,0.985760417 4.4,2.2 C4.4,3.41418229 3.41418229,4.4 2.2,4.4 C0.985760417,4.4 -7.10542736e-15,3.41418229 -7.10542736e-15,2.2 C-7.10542736e-15,0.985760417 0.985760417,-3.55271368e-15 2.2,-3.55271368e-15 Z"/>
          <path fill="#FFFFFF" d="M1.35229851,0.576671035 C1.84353648,0.576671035 2.24242394,0.975192576 2.24242394,1.46608328 C2.24242394,1.95697399 1.84353648,2.35549553 1.35229851,2.35549553 C0.861014174,2.35549553 0.462173074,1.95697399 0.462173074,1.46608328 C0.462173074,0.975192576 0.861014174,0.576671035 1.35229851,0.576671035 Z"/>
        </g>
        <mask id="g" fill="white">
          <use xlink:href="#f"/>
        </mask>
        <use fill="#297BCC" xlink:href="#f"/>
        <g transform="translate(14.212 25.604)" mask="url(#g)">
          <mask id="i" fill="white">
            <use xlink:href="#h"/>
          </mask>
          <use fill="#82C2DC" xlink:href="#h"/>
          <path fill="#2268AC" d="M4.06307386,3.15077259 C4.06307386,3.15077259 6.26380518,2.76561556 6.51955232,1.83254668 C6.77529946,0.899477792 6.33322111,0.0758470333 6.33322111,0.0758470333 C6.33322111,0.0758470333 7.85435063,0.267984805 8.540027,0.677716666 C9.22570336,1.08744853 9.9576481,1.71020676 9.9576481,1.71020676 C9.9576481,1.71020676 8.18687276,2.56466291 7.17357138,2.85771775 C6.16027,3.15077259 4.06307386,3.15077259 4.06307386,3.15077259 Z" opacity=".165" style="mix-blend-mode:multiply" mask="url(#i)"/>
        </g>
        <path fill="#2268AC" d="M14.0732534,28.3692656 C14.0732534,28.3692656 12.2667685,26.7620517 16.7190207,25.3306131 C18.4413285,24.7768759 23.0519386,25.1994517 23.2081845,25.2330205 C25.0649493,25.6319386 26.3649563,26.2104678 26.3649563,26.2104678 C26.3649563,26.2104678 29.8486587,23.5443886 28.803809,22.7623939 C27.7589593,21.9803992 20.0563076,23.8632073 18.7615439,23.8632073 C17.4667801,23.8632073 7.60277077,22.3383824 7.34061308,23.1556936 C7.07845538,23.9730047 8.3698831,25.8023065 10.4431075,26.7620517 C12.516332,27.721797 14.0732534,28.3692656 14.0732534,28.3692656 Z" opacity=".522" style="mix-blend-mode:multiply" mask="url(#g)"/>
      </g>
    </g>
  </g>
</svg>
