<svg xmlns="http://www.w3.org/2000/svg" width="20" height="16" viewBox="0 0 20 16">
  <g fill="none" fill-rule="evenodd">
    <rect width="19.995" height="16" x=".005" fill="#00FFFF"/>
    <path fill="#FF00FF" d="M6,3 L17,3 L17,4 L6,4 L6,3 Z M6,6 L9.13868125,6 L9.13868125,7 L6,7 L6,6 Z M6,9 L9.13868125,9 L9.13868125,10 L6,10 L6,9 Z M6,12 L9.13868125,12 L9.13868125,13 L6,13 L6,12 Z"/>
    <path fill="#FF00FF" d="M3.3500061,1.93579254 L3.3500061,7 L2.3500061,7 L2.3500061,1.89263458 L0.707106781,3.53553391 L-5.77315973e-15,2.82842712 L2.82842712,2.26485497e-14 L5.65685425,2.82842712 L4.94974747,3.53553391 L3.3500061,1.93579254 Z" transform="matrix(1 0 0 -1 0 7)"/>
    <path fill="#FF00FF" d="M11.7864812,16 L10,16 L10,7 L11.7864812,7 L11.7864812,16 Z M13.3721546,16 L13.3721546,7 L16.0399666,7 C16.8022024,7 17.4840359,7.17822624 18.0854876,7.53468407 C18.6869393,7.89114189 19.1563822,8.39800496 19.4938303,9.05528846 C19.8312785,9.71257197 20,10.4594738 20,11.2960165 L20,11.7101648 C20,12.5467075 19.8342559,13.2905187 19.5027627,13.9416209 C19.1712695,14.592723 18.7038116,15.0975257 18.1003749,15.456044 C17.4969383,15.8145622 16.8160972,15.9958791 16.0578314,16 L13.3721546,16 Z M15.1586358,8.50206044 L15.1586358,14.5103022 L16.0221018,14.5103022 C16.7208179,14.5103022 17.254772,14.273354 17.6239799,13.7994505 C17.9931879,13.3255471 18.181759,12.6476692 18.189699,11.7657967 L18.189699,11.2898352 C18.189699,10.3749954 18.0070827,9.68166445 17.6418448,9.20982143 C17.2766068,8.73797841 16.7426527,8.50206044 16.0399666,8.50206044 L15.1586358,8.50206044 Z"/>
  </g>
</svg>
