<svg xmlns="http://www.w3.org/2000/svg" width="16" height="16" viewBox="0 0 16 16" xmlns:xlink="http://www.w3.org/1999/xlink">
  <defs>
    <polygon id="a" points=".01 16 .01 .02 15.981 .02 15.981 16"/>
  </defs>
  <g fill="none" fill-rule="evenodd">
    <mask id="b" fill="white">
      <use xlink:href="#a"/>
    </mask>
    <path fill="#F34F29" d="M15.6789565,7.29826087 L8.70173913,0.321217391 C8.30017391,-0.0806956522 7.64852174,-0.0806956522 7.24626087,0.321217391 L5.79756522,1.77026087 L7.63530435,3.60817391 C8.06243478,3.46382609 8.55234783,3.56069565 8.89269565,3.90104348 C9.23513043,4.24365217 9.33095652,4.73756522 9.18313043,5.16626087 L10.9544348,6.93756522 C11.3831304,6.78973913 11.8773913,6.88521739 12.2198261,7.22817391 C12.698087,7.70626087 12.698087,8.4813913 12.2198261,8.95982609 C11.7412174,9.43843478 10.9662609,9.43843478 10.4874783,8.95982609 C10.1276522,8.59982609 10.0387826,8.07113043 10.2210435,7.628 L8.56886957,5.976 L8.56886957,10.3231304 C8.6853913,10.3808696 8.79547826,10.457913 8.89269565,10.5547826 C9.37095652,11.0330435 9.37095652,11.808 8.89269565,12.2869565 C8.41443478,12.7650435 7.63895652,12.7650435 7.16104348,12.2869565 C6.68278261,11.808 6.68278261,11.0330435 7.16104348,10.5547826 C7.27913043,10.4366957 7.41617391,10.3473043 7.56208696,10.2874783 L7.56208696,5.9 C7.41617391,5.84034783 7.27947826,5.75165217 7.16104348,5.63286957 C6.79878261,5.27078261 6.71165217,4.73895652 6.8973913,4.29408696 L5.08556522,2.48191304 L0.301217391,7.26591304 C-0.100521739,7.66817391 -0.100521739,8.31982609 0.301217391,8.72173913 L7.27878261,15.6987826 C7.68052174,16.1005217 8.332,16.1005217 8.73443478,15.6987826 L15.6789565,8.75408696 C16.0810435,8.35217391 16.0810435,7.7 15.6789565,7.29826087" mask="url(#b)"/>
  </g>
</svg>
