<svg xmlns="http://www.w3.org/2000/svg" width="18" height="18" viewBox="0 0 18 18">
  <g fill="none" fill-rule="evenodd">
    <rect width="18" height="18" fill="#00FFFF" fill-rule="nonzero"/>
    <g fill="#00FF00" transform="translate(0 2)">
      <path d="M10.9726621,10.7414155 C10.9726621,10.7414155 11.123066,10.8205739 11.1994093,10.8571372 C11.3263615,10.9179338 11.4558185,10.973465 11.5872916,11.0238533 C11.7360542,11.0809152 11.8871994,11.130079 12.0404828,11.173304 C12.0658366,11.1074869 12.0936341,11.0425882 12.1239976,10.9787304 C12.2588308,10.6951354 12.4414391,10.4346835 12.6619254,10.2112728 C12.881984,9.98835191 13.1393707,9.8027784 13.420706,9.66545033 C13.6673402,9.5450204 13.9318748,9.46199906 14.2029465,9.42005982 C14.3195128,9.40199839 14.4364456,9.39305951 14.5541727,9.38852885 C14.6259575,9.38761047 14.6257131,9.38761047 14.6971924,9.38852885 C14.8149195,9.39305951 14.9318524,9.40199839 15.0484187,9.42005982 C15.3195514,9.46199906 15.5840249,9.5450204 15.8306592,9.66545033 C16.1119945,9.8027784 16.3693812,9.98835191 16.5894398,10.2112728 C16.809926,10.4346222 16.9925343,10.6951354 17.1273676,10.9787304 C17.3991112,11.5502062 17.4701018,12.2090503 17.3295869,12.8260776 C17.2687378,13.0930806 17.1686667,13.3509611 17.0335891,13.5890658 C16.8900195,13.841987 16.7071057,14.0723161 16.4932787,14.2692163 C16.245728,14.4971576 15.9571226,14.6797923 15.6447518,14.8045692 C15.321262,14.9338156 14.9738847,15 14.6257131,15 C14.2774805,15 13.9301031,14.9338156 13.6066133,14.8045692 C13.2943036,14.6797923 13.005576,14.4971576 12.7580865,14.2692163 C12.5442594,14.0722549 12.3613456,13.841987 12.2178371,13.5890658 C12.0826984,13.3509611 11.9826273,13.0930806 11.9217783,12.8260776 C11.8655723,12.5792177 11.8432121,12.325623 11.8540256,12.0736202 C11.5762948,12.0010684 11.3045512,11.9057408 11.0405664,11.7927803 C10.96055,11.758546 10.8023696,11.6847993 10.8023696,11.6847993 C10.8023696,11.6847993 10.8918199,11.3823397 10.9186613,11.2336443 C10.9455026,11.0849489 10.9726621,10.7414155 10.9726621,10.7414155 Z M8.31860897,5.410974 C8.42057393,5.53813869 8.5140469,5.67209938 8.59786711,5.81199891 C8.70905719,5.99738875 8.80320219,6.19294196 8.87908025,6.39541362 C9.00493275,6.73117249 9.08007769,7.08456421 9.1107466,7.44162945 C9.1129628,7.46750753 9.12103271,7.53562317 9.12103271,7.53562317 C9.12103271,7.53562317 8.80988458,7.39058988 8.64713745,7.3396637 C8.48439032,7.28873751 8.1595726,7.23476689 8.1595726,7.23476689 C8.1595726,7.23476689 8.06653484,6.82224896 7.98455,6.62592641 C7.92950481,6.49404738 7.86376826,6.36663779 7.78813457,6.24541194 C7.3403807,5.52742429 6.57115312,5.07092937 5.77907658,4.82725316 C5.65279643,4.7884364 5.52505003,4.75598706 5.39602067,4.72794593 C5.34665717,4.78102815 5.29521648,4.8322124 5.2418819,4.88137622 C4.99439235,5.10931755 4.70572582,5.29195226 4.39335502,5.41672917 C4.06986522,5.54591429 3.72254898,5.61215993 3.37431634,5.61215993 C3.02608369,5.61215993 2.67876745,5.54591429 2.35527765,5.41672917 C2.04290685,5.29195226 1.75430141,5.10931755 1.50675077,4.88137622 C1.2929237,4.68447605 1.11000992,4.45414693 0.966440325,4.20122573 C0.831301621,3.96312101 0.731230555,3.70524057 0.670442576,3.43817635 C0.529866556,2.82121024 0.600918234,2.16230488 0.872600791,1.59089031 C1.00749512,1.30729529 1.19010343,1.04684338 1.41052859,0.823493937 C1.63058718,0.600511842 1.88803497,0.414877106 2.16937029,0.277549034 C2.41600453,0.157180336 2.68047806,0.0741589957 2.95161078,0.0321585242 C3.06811598,0.0141583222 3.18504884,0.00521944634 3.302837,0.000688783241 C3.37431634,-0.000229594414 3.37401087,-0.000229594414 3.44579567,0.000688783241 C3.56358383,0.00521944634 3.68051669,0.0141583222 3.79702189,0.0321585242 C4.06815461,0.0741589957 4.33262814,0.157180336 4.57926238,0.277549034 C4.8605977,0.414938331 5.11798439,0.600511842 5.33804299,0.823432712 C5.41526511,0.901678488 5.48784412,0.984454928 5.55541347,1.071211 L12.444616,1.071211 C12.5121242,0.984454928 12.5847033,0.901678488 12.6619254,0.823432712 C12.881984,0.600511842 13.1393707,0.414938331 13.420706,0.277549034 C13.6673402,0.157180336 13.9318748,0.0741589957 14.2029465,0.0321585242 C14.3195128,0.0141583222 14.4364456,0.00521944634 14.5541727,0.000688783241 C14.6259575,-0.000229594414 14.6257131,-0.000229594414 14.6971924,0.000688783241 C14.8149195,0.00521944634 14.9318524,0.0141583222 15.0484187,0.0321585242 C15.3195514,0.0741589957 15.5840249,0.157180336 15.8306592,0.277549034 C16.1119945,0.414938331 16.3693812,0.600511842 16.5894398,0.823432712 C16.809926,1.04678216 16.9925343,1.30729529 17.1273676,1.59089031 C17.3991112,2.16236611 17.4701018,2.82121024 17.3295869,3.43817635 C17.2687378,3.70524057 17.1686667,3.96312101 17.0335891,4.20122573 C16.8900195,4.45414693 16.7071057,4.68447605 16.4932787,4.88137622 C16.2456669,5.10931755 15.9570615,5.29195226 15.6447518,5.41672917 C15.321262,5.54591429 14.9738847,5.61215993 14.6257131,5.61215993 C14.2774805,5.61215993 13.9301642,5.54591429 13.6066133,5.41672917 C13.2943036,5.29195226 13.0056371,5.10931755 12.7580865,4.88137622 C12.613295,4.74796656 12.4826772,4.59931183 12.368799,4.43859574 L7.17212935,4.43859574 C7.60735906,4.69329248 8.00171726,5.01576548 8.31860897,5.410974 Z M11.9708974,1.98958866 L6.02919315,1.98958866 C6.16903605,2.45759391 6.18699752,2.96043629 6.07819009,3.43817635 C6.07195856,3.46560523 6.06529938,3.49297288 6.05821254,3.52021808 L11.9418169,3.52021808 C11.9347301,3.49297288 11.9280709,3.46566645 11.9217783,3.43817635 C11.8129708,2.96043629 11.8309934,2.45759391 11.9708974,1.98958866 Z M14.3428505,10.3277231 C14.1623804,10.3556417 13.9863091,10.4109893 13.8220899,10.4911331 C13.6334944,10.5832157 13.4610276,10.7077477 13.313487,10.8571984 C13.1543385,11.0184043 13.0245761,11.208386 12.9322028,11.4153883 C12.7007197,11.9342105 12.7150767,12.547748 12.9714248,13.0546925 C13.0667305,13.2432048 13.1936827,13.4154312 13.3454999,13.5620655 C13.5073976,13.7184958 13.6973982,13.8454768 13.9041995,13.9340697 C14.1168658,14.025234 14.3463939,14.07501 14.5776326,14.0809489 C14.8107652,14.0868877 15.0443865,14.0488056 15.2631621,13.9676823 C15.4743011,13.8893753 15.6704111,13.7716393 15.839701,13.6229845 C15.9980552,13.4840034 16.1328884,13.3183893 16.2369306,13.1350199 C16.5328061,12.6135651 16.5635361,11.9629251 16.3192235,11.4153883 C16.2329595,11.2221005 16.1140717,11.0436291 15.969158,10.8895865 C15.8252218,10.7367072 15.6558097,10.6080732 15.4695358,10.5113986 C15.2364032,10.3904176 14.9828654,10.3253353 14.7214465,10.3084984 C14.6734271,10.3066616 14.6257131,10.3060494 14.5776326,10.3066616 C14.4989442,10.3097229 14.4207446,10.3156617 14.3428505,10.3277231 Z M13.8220899,1.10323177 C13.6334944,1.19531444 13.4610276,1.31990767 13.313487,1.46935833 C13.165091,1.61972736 13.0421099,1.79507627 12.951325,1.98597637 C12.6938772,2.52751306 12.7091506,3.17888772 12.992502,3.70732223 C13.0922065,3.89326309 13.2230687,4.06224458 13.3781849,4.20508291 C13.5438704,4.35765606 13.7369257,4.48004518 13.9459874,4.56355633 C14.1617695,4.64976137 14.3934358,4.69365983 14.6257131,4.69365983 C14.8579904,4.69365983 15.0895957,4.64976137 15.3054388,4.56355633 C15.5145006,4.48004518 15.7074948,4.35759483 15.8731802,4.20508291 C16.0282965,4.06224458 16.1592197,3.89326309 16.2589242,3.70732223 C16.5422145,3.17888772 16.557549,2.52751306 16.3000401,1.98597637 C16.2092552,1.79507627 16.0863352,1.61972736 15.9379393,1.46935833 C15.7903986,1.31990767 15.6179318,1.19531444 15.4292752,1.10323177 C15.1924159,0.987638637 14.9363733,0.928923692 14.6737937,0.918821538 C14.6257131,0.918209286 14.6260797,0.918209286 14.5776326,0.918821538 C14.3149918,0.928923692 14.0589492,0.987638637 13.8220899,1.10323177 Z M5.00752744,3.70732223 C5.29081776,3.17888772 5.30615221,2.52751306 5.04870443,1.98597637 C4.95791956,1.79507627 4.83493846,1.61972736 4.68654247,1.46935833 C4.5390018,1.31990767 4.366535,1.19531444 4.17793953,1.10323177 C3.94108024,0.987638637 3.68497651,0.928923692 3.42239688,0.918821538 C3.37394977,0.918209286 3.37431634,0.918209286 3.32623579,0.918821538 C3.24754743,0.921821571 3.16940892,0.927821639 3.09151477,0.939882999 C2.91098364,0.967801679 2.73491232,1.02308801 2.57069314,1.103293 C2.38209767,1.19531444 2.20963087,1.31984645 2.06215129,1.4692971 C1.91369421,1.61972736 1.79071311,1.79507627 1.69992824,1.98597637 C1.44248046,2.52739061 1.45775382,3.17888772 1.74104413,3.707261 C1.84080973,3.89320186 1.9716719,4.06218335 2.12678816,4.20508291 C2.29247358,4.35759483 2.48552887,4.48004518 2.69459065,4.56355633 C2.9103727,4.64976137 3.14203905,4.69365983 3.37431634,4.69365983 C3.60659362,4.69365983 3.83819888,4.64976137 4.05404202,4.56355633 C4.2630427,4.48004518 4.45615909,4.35765606 4.62178342,4.20508291 C4.74140439,4.09493882 4.8466073,3.96930476 4.93421531,3.83228281 L4.99451454,3.73113882 C4.99891327,3.72324077 5.0032509,3.7152815 5.00752744,3.70732223 Z M15.6104784,2.80627129 C15.6104784,3.34217527 15.1762873,3.7773026 14.6414752,3.7773026 C14.1067243,3.7773026 13.6725332,3.34217527 13.6725332,2.80627129 C13.6725332,2.2703061 14.1067243,1.83517876 14.6414752,1.83517876 C15.1762873,1.83517876 15.6104784,2.2703061 15.6104784,2.80627129 Z"/>
      <path fill-rule="nonzero" d="M1.94602002,10.3598616 C1.74389712,10.3598616 1.5533995,10.4487915 1.41672169,10.6006433 C1.27862459,10.754072 1.2,10.9609507 1.2,11.1798277 C1.2,11.3989292 1.27859197,11.6059596 1.41653606,11.7592183 C1.55321387,11.9110701 1.74371148,12 1.94583439,12 L7.71787485,12 C8.06606837,12 8.38724566,11.8492278 8.62734745,11.5824699 C8.86401526,11.3195272 9,10.963527 9,10.5872977 C9,10.209078 8.86488201,9.85534689 8.62598685,9.58730652 C8.3859771,9.32328998 8.063615,9.17129549 7.71787485,9.17129549 C7.63136395,9.17129549 7.54375552,9.18099649 7.45762261,9.19959928 C7.37736598,9.21898725 7.29309894,9.24782905 7.2149517,9.28352302 L7.0399473,9.36651917 C6.85337259,9.45495931 6.63810754,9.36647945 6.54500808,9.16308552 L6.45664726,8.97004408 C6.29989652,8.61616344 6.05700359,8.32040649 5.75840151,8.11648811 C5.45846658,7.90939188 5.11762279,7.8 4.7568593,7.8 C4.26404816,7.8 3.80318058,8.00724511 3.45312653,8.37377216 C3.10212971,8.73864386 2.88960367,9.2327516 2.86126946,9.76923513 L2.84659063,10.0444161 C2.83202354,10.3175012 2.60339342,10.5095377 2.36848819,10.4459954 L2.12679536,10.380617 C2.09548919,10.3732422 2.06544483,10.3671413 2.03685247,10.3631392 C2.00442913,10.3614364 1.97489925,10.3598616 1.94602002,10.3598616 Z M7.71787485,8.10281693 C8.36762118,8.10281693 8.97561011,8.38347384 9.42363563,8.8763896 C9.83985694,9.34338991 10.0684786,9.95126899 10.0684786,10.5872977 C10.0684786,11.2224899 9.83812658,11.8344097 9.42151222,12.2972767 C8.98032374,12.787446 8.371752,13.0684786 7.71787485,13.0684786 L1.94583439,13.0684786 C1.43845005,13.0684786 0.960277333,12.8494455 0.622371293,12.4740251 C0.305137051,12.1215714 0.131521439,11.6589418 0.131521439,11.1798277 C0.131521439,10.7007885 0.305275579,10.2383425 0.622556925,9.8858365 C0.937430787,9.53600529 1.37410143,9.32196883 1.84271013,9.29441606 C1.95568438,8.66640083 2.24543945,8.08798855 2.6804339,7.63580703 C3.23156184,7.05874386 3.97087559,6.73152144 4.7568593,6.73152144 C5.33443811,6.73152144 5.88693436,6.90680418 6.36097239,7.2341306 C6.71250239,7.47419399 7.00979383,7.7907153 7.23349648,8.15489114 C7.39305313,8.12053464 7.55571116,8.10281693 7.71787485,8.10281693 Z"/>
    </g>
  </g>
</svg>
