<svg xmlns="http://www.w3.org/2000/svg" width="12" height="12" viewBox="0 0 12 12">
  <g fill="none" fill-rule="evenodd">
    <rect width="12" height="12"/>
    <rect width="12" height="12" fill="#9960FF" rx="1"/>
    <path fill="#FFFFFF" fill-rule="nonzero" d="M4.78555216,5.50183847 L5.36153673,5.50183847 C5.92600444,5.50183847 6.34262911,5.42377552 6.61142325,5.26764728 C6.8802174,5.11151904 7.01461245,4.86617835 7.01461245,4.53161784 C7.01461245,4.20024362 6.8773375,3.96446165 6.60278348,3.82426486 C6.32822947,3.68406808 5.90296511,3.61397074 5.32697766,3.61397074 L4.78555216,3.61397074 L4.78555216,5.50183847 Z M4.78555216,6.70625029 L4.78555216,9.38750041 L3,9.38750041 L3,2.4000001 L5.45369427,2.4000001 C6.59798933,2.4000001 7.44467818,2.57285377 7.99378622,2.91856629 C8.54289426,3.26427882 8.81744416,3.78921232 8.81744416,4.49338254 C8.81744416,4.90441403 8.68112917,5.27003539 8.40849511,5.59025759 C8.13586105,5.91047979 7.74995525,6.16139641 7.25076613,6.34301498 C8.51793852,7.91385623 9.34350814,8.92867456 9.72749975,9.38750041 L7.74611286,9.38750041 L5.7359267,6.70625029 L4.78555216,6.70625029 Z"/>
  </g>
</svg>
