<svg xmlns="http://www.w3.org/2000/svg" width="20" height="16" viewBox="0 0 20 16">
  <g fill="none" fill-rule="evenodd">
    <rect width="20" height="16" fill="#00FFFF"/>
    <path fill="#FF00FF" d="M11.5861508,6 L6,6 L6,7 L10.1299165,7 C10.37148,6.41137557 10.9256723,6 11.5861511,6 L11.5861508,6 Z M10,9 L6,9 L6,10 L10,10 L10,9 Z M10,12 L6,12 L6,13 L10,13 L10,12 L10,12 Z M6,3 L17,3 L17,4 L6,4 L6,3 Z"/>
    <path fill="#FF00FF" d="M3.3500061,1.93579254 L3.3500061,7 L2.3500061,7 L2.3500061,1.89263458 L0.707106781,3.53553391 L-5.77315973e-15,2.82842712 L2.82842712,2.26485497e-14 L5.65685425,2.82842712 L4.94974747,3.53553391 L3.3500061,1.93579254 Z" transform="matrix(1 0 0 -1 0 7)"/>
    <path fill="#FF00FF" fill-rule="nonzero" d="M19.4239682,8.66666667 L15.2857143,8.66666667 L15.2857143,7.66634582 C15.2857143,7.2839063 15.0147388,7 14.6995632,7 L11.5861511,7 C11.266346,7 11,7.28146036 11,7.66634582 L11,14.3336542 C11,14.7174437 11.2679664,15 11.5760318,15 L19.4239682,15 C19.7388907,15 20,14.7217924 20,14.3336542 L20,9.33301249 C20,8.94922298 19.7320336,8.66666667 19.4239682,8.66666667 Z"/>
  </g>
</svg>
