<svg xmlns="http://www.w3.org/2000/svg" width="16" height="16" viewBox="0 0 16 16">
  <g fill="none" fill-rule="evenodd">
    <rect width="16" height="16" fill="#00FFFF"/>
    <path fill="#FF00FF" d="M1 2L12 2 12 3 1 3 1 2zM1 5L4.13868125 5 4.13868125 6 1 6 1 5zM1 8L4.13868125 8 4.13868125 9 1 9 1 8zM1 11L4.13868125 11 4.13868125 12 1 12 1 11zM6.78648125 15L5 15 5 6 6.78648125 6 6.78648125 15zM8.37215458 15L8.37215458 6 11.0399666 6C11.8022024 6 12.4840359 6.17822624 13.0854876 6.53468407 13.6869393 6.89114189 14.1563822 7.39800496 14.4938303 8.05528846 14.8312785 8.71257197 15 9.45947384 15 10.2960165L15 10.7101648C15 11.5467075 14.8342559 12.2905187 14.5027627 12.9416209 14.1712695 13.592723 13.7038116 14.0975257 13.1003749 14.456044 12.4969383 14.8145622 11.8160972 14.9958791 11.0578314 15L8.37215458 15zM10.1586358 7.50206044L10.1586358 13.5103022 11.0221018 13.5103022C11.7208179 13.5103022 12.254772 13.273354 12.6239799 12.7994505 12.9931879 12.3255471 13.181759 11.6476692 13.189699 10.7657967L13.189699 10.2898352C13.189699 9.37499543 13.0070827 8.68166445 12.6418448 8.20982143 12.2766068 7.73797841 11.7426527 7.50206044 11.0399666 7.50206044L10.1586358 7.50206044z"/>
  </g>
</svg>
