<svg xmlns="http://www.w3.org/2000/svg" width="20" height="16" viewBox="0 0 20 16">
  <g fill="none" fill-rule="evenodd">
    <rect width="19.995" height="16" x=".005" fill="#00FFFF"/>
    <path fill="#FF00FF" d="M6 3L17 3 17 4 6 4 6 3zM6 6L9.13868125 6 9.13868125 7 6 7 6 6zM6 9L9.13868125 9 9.13868125 10 6 10 6 9zM6 12L9.13868125 12 9.13868125 13 6 13 6 12zM3.3500061 1.93579254L3.3500061 7 2.3500061 7 2.3500061 1.89263458.707106781 3.53553391-.77315973e-15 2.82842712 2.82842712.26485497e-14 5.65685425 2.82842712 4.94974747 3.53553391 3.3500061 1.93579254zM11.7864812 16L10 16 10 7 11.7864812 7 11.7864812 16zM13.3721546 16L13.3721546 7 16.0399666 7C16.8022024 7 17.4840359 7.17822624 18.0854876 7.53468407 18.6869393 7.89114189 19.1563822 8.39800496 19.4938303 9.05528846 19.8312785 9.71257197 20 10.4594738 20 11.2960165L20 11.7101648C20 12.5467075 19.8342559 13.2905187 19.5027627 13.9416209 19.1712695 14.592723 18.7038116 15.0975257 18.1003749 15.456044 17.4969383 15.8145622 16.8160972 15.9958791 16.0578314 16L13.3721546 16zM15.1586358 8.50206044L15.1586358 14.5103022 16.0221018 14.5103022C16.7208179 14.5103022 17.254772 14.273354 17.6239799 13.7994505 17.9931879 13.3255471 18.181759 12.6476692 18.189699 11.7657967L18.189699 11.2898352C18.189699 10.3749954 18.0070827 9.68166445 17.6418448 9.20982143 17.2766068 8.73797841 16.7426527 8.50206044 16.0399666 8.50206044L15.1586358 8.50206044z"/>
  </g>
</svg>
