<svg xmlns="http://www.w3.org/2000/svg" width="20" height="16" viewBox="0 0 20 16">
  <g fill="none" fill-rule="evenodd">
    <rect width="20" height="16" fill="#00FFFF"/>
    <path fill="#FF00FF" d="M6,6 L6,7 L10.4502243,7 C10.7921219,6.62011603 11.1849823,6.28357185 11.618368,6 L6,6 Z M6,9 L6,10 L9.04927924,10 C9.09553095,9.65608631 9.17365175,9.32183997 9.28067371,9 L6,9 Z M6,12 L6,13 L9.48471373,13 C9.33980401,12.6772354 9.22648604,12.3426375 9.14598012,12 L6,12 Z M6,3 L17,3 L17,4 L6,4 L6,3 Z"/>
    <path fill="#FF00FF" d="M3.3500061,1.93579254 L3.3500061,7 L2.3500061,7 L2.3500061,1.89263458 L0.707106781,3.53553391 L-5.77315973e-15,2.82842712 L2.82842712,2.26485497e-14 L5.65685425,2.82842712 L4.94974747,3.53553391 L3.3500061,1.93579254 Z" transform="matrix(1 0 0 -1 0 7)"/>
    <path fill="#FF00FF" fill-rule="nonzero" d="M14.9999116,6 C12.2430458,6 10.0000155,8.12571336 10.0000155,10.7383333 C10.0000155,11.648804 10.2727021,12.5305379 10.7896145,13.293682 C10.6915396,14.4225118 10.4319296,15.2591168 10.0563605,15.6545513 C9.99790016,15.7160724 9.98328508,15.8099729 10.0202074,15.887886 C10.0530913,15.9572996 10.1202053,16 10.1923192,16 C10.2863557,15.9880601 11.8407465,15.7524993 12.9724537,15.0701016 C13.612825,15.3398632 14.2943493,15.4766665 15.0001039,15.4766665 C17.7569697,15.4766665 20,13.3511555 20,10.7383333 C20,8.12551099 17.7569697,6 14.9999116,6 Z"/>
  </g>
</svg>
