<svg xmlns="http://www.w3.org/2000/svg" width="16" height="16" viewBox="0 0 16 16">
  <path fill="#0685B9" fill-rule="evenodd" d="M8,0 C12.418278,0 16,3.581722 16,8 C16,12.418278 12.418278,16 8,16 C3.581722,16 0,12.418278 0,8 C0,3.581722 3.581722,0 8,0 L8,0 L8,0 Z M8,1 C11.8659932,1 15,4.13400675 15,8 C15,11.8659932 11.8659932,15 8,15 C4.13400675,15 1,11.8659932 1,8 C1,4.13400675 4.13400675,1 8,1 L8,1 Z M7.25,12 L8.75,12 L8.75,7 L7.25,7 L7.25,12 L7.25,12 Z M7.25,6 L8.75,6 L8.75,4 L7.25,4 L7.25,6 L7.25,6 Z"/>
</svg>
