<svg xmlns="http://www.w3.org/2000/svg" width="20" height="16" viewBox="0 0 20 16">
  <g fill="none" fill-rule="evenodd">
    <rect width="20" height="16" fill="#00FFFF"/>
    <path fill="#FF00FF" d="M11.6822049 6L6 6 6 7 10.527787 7C10.8679898 6.61989539 11.2559383 6.28341957 11.6822049 6L11.6822049 6zM9.34141142 9L6 9 6 10 9.08295844 10C9.14069617 9.65584819 9.22773125 9.32163077 9.34141142 9L9.34141142 9zM9.08295844 12L6 12 6 13 9.34141142 13C9.22773125 12.6783692 9.14069617 12.3441518 9.08295844 12L9.08295844 12zM6 3L17 3 17 4 6 4 6 3zM3.3500061 1.93579254L3.3500061 7 2.3500061 7 2.3500061 1.89263458.707106781 3.53553391-.77315973e-15 2.82842712 2.82842712.26485497e-14 5.65685425 2.82842712 4.94974747 3.53553391 3.3500061 1.93579254zM14.7052036 10.7578057L13.4526017 9.50520382 12.1999998 10.7578057 14.7052036 13.2630096 18.4630094 9.50520382 17.2104074 8.25260191 14.7052036 10.7578057 14.7052036 10.7578057zM15 16C12.2385763 16 10 13.7614237 10 11 10 8.23857625 12.2385763 6 15 6 17.7614237 6 20 8.23857625 20 11 20 13.7614237 17.7614237 16 15 16z"/>
  </g>
</svg>
