<svg xmlns="http://www.w3.org/2000/svg" width="20" height="16" viewBox="0 0 20 16">
  <g fill="none" fill-rule="evenodd">
    <rect width="20" height="16" fill="#00FFFF"/>
    <path fill="#FF00FF" d="M11.5861508 6L6 6 6 7 10.1299165 7C10.37148 6.41137557 10.9256723 6 11.5861511 6L11.5861508 6zM10 9L6 9 6 10 10 10 10 9zM10 12L6 12 6 13 10 13 10 12 10 12zM6 3L17 3 17 4 6 4 6 3zM3.3500061 1.93579254L3.3500061 7 2.3500061 7 2.3500061 1.89263458.707106781 3.53553391-.77315973e-15 2.82842712 2.82842712.26485497e-14 5.65685425 2.82842712 4.94974747 3.53553391 3.3500061 1.93579254z"/>
    <path fill="#FF00FF" fill-rule="nonzero" d="M19.4239682,8.66666667 L15.2857143,8.66666667 L15.2857143,7.66634582 C15.2857143,7.2839063 15.0147388,7 14.6995632,7 L11.5861511,7 C11.266346,7 11,7.28146036 11,7.66634582 L11,14.3336542 C11,14.7174437 11.2679664,15 11.5760318,15 L19.4239682,15 C19.7388907,15 20,14.7217924 20,14.3336542 L20,9.33301249 C20,8.94922298 19.7320336,8.66666667 19.4239682,8.66666667 Z"/>
  </g>
</svg>
