<svg xmlns="http://www.w3.org/2000/svg" width="16" height="16" viewBox="0 0 16 16">
  <g fill="none" fill-rule="evenodd">
    <rect width="16" height="16" fill="#00FFFF"/>
    <path fill="#FF00FF" d="M5.24892302,5 L1,5 L1,6 L5.09763773,6 L5.10821704,5.60155371 C5.11390006,5.3875154 5.16370382,5.18402238 5.24892302,5 Z M1,8 L1,9 L5.01810964,9 C5.01818925,8.99383763 5.01831058,8.98768055 5.01847391,8.98152931 L5.0445349,8 L1,8 Z M1,11 L1,12 L6.51334128,12 L6.7422233,11.3990775 L6.34314575,11 L1,11 Z M1,2 L12,2 L12,3 L1,3 L1,2 Z"/>
    <path fill="#FF00FF" fill-rule="nonzero" d="M10.0080714,5.01812161 C10.1440191,5.014512 10.3336989,5.09105822 10.4342962,5.19165548 L14.9659498,9.72330913 C15.1580116,9.91537094 15.1525727,10.2322036 14.9665154,10.4182609 L11.4182609,13.9665154 C11.2265115,14.1582649 10.9140995,14.1567402 10.7233091,13.9659498 L6.19165548,9.43429617 C6.09220576,9.33484645 6.01429839,9.15206423 6.01812161,9.00807137 L6.10786474,5.62809577 C6.11529606,5.34821143 6.34352333,5.11542054 6.62809577,5.10786474 L10.0080714,5.01812161 Z M9.65685425,8.65685425 C10.0473785,8.26632996 10.0473785,7.63316498 9.65685425,7.24264069 C9.26632996,6.8521164 8.63316498,6.8521164 8.24264069,7.24264069 C7.8521164,7.63316498 7.8521164,8.26632996 8.24264069,8.65685425 C8.63316498,9.04737854 9.26632996,9.04737854 9.65685425,8.65685425 Z"/>
  </g>
</svg>
