<svg xmlns="http://www.w3.org/2000/svg" width="18" height="18" viewBox="0 0 18 18">
  <g fill="none">
    <rect width="18" height="18" fill="#00FFFF"/>
    <g fill="#00FF00" transform="translate(0 2)">
      <path d="M9.4983766,1.90309851 C9.29660634,2.08553933 9.11960355,2.28874492 8.97020085,2.50817057 L6.21,0.872235582 L0.982634806,3.97341739 L6.26480354,7.14587348 L7.06563056,6.66745785 C7.15422914,6.79562527 7.25723184,6.91564143 7.37362227,7.02525254 C7.4775839,7.1231588 7.59041954,7.21080162 7.71034795,7.28748837 L6.65296377,7.92049731 L6.65296377,12.8836985 L11.6049382,9.93425258 L11.6049382,7.66442852 L12.42,7.66442852 L12.42,10.2950127 C12.42,10.3437938 12.3837925,10.4032884 12.3398471,10.4275016 L6.2901529,13.9817735 C6.24588568,14.0061641 6.1737925,14.0059867 6.1298471,13.9817735 L0.0801529026,10.4275016 C0.0358856768,10.4031111 0,10.3434391 0,10.2950127 L0,3.70498731 C0,3.65620625 0.0362075043,3.59671162 0.0801529026,3.57249841 L6.1298471,0.0182264653 C6.17411432,-0.00616406846 6.2462075,-0.00598674669 6.2901529,0.0182264653 L9.4983766,1.90309851 Z M0.815061836,4.87780741 L0.815061836,9.93425258 L5.83790193,12.9227443 L5.83790193,7.91725776 L0.815061836,4.87780741 Z"/>
      <path d="M9.50757903,4.36165283 C9.55932335,4.36165283 9.60310876,4.36358363 9.6740242,4.3680399 C9.76104295,3.76915405 10.0641811,3.22279713 10.5297122,2.81259638 C11.042155,2.35778118 11.7184367,2.1 12.4373257,2.1 C12.9627524,2.1 13.463765,2.23629933 13.901125,2.49228316 C14.292279,2.71870453 14.6198053,3.03706415 14.8492346,3.41412455 C14.9290504,3.38934018 15.0099647,3.36870653 15.0924232,3.3519054 C15.2395875,3.32487882 15.381618,3.31154767 15.5236016,3.31154767 C16.097372,3.31154767 16.6349579,3.52640351 17.0372921,3.90159531 C17.4400606,4.28462624 17.6699647,4.79480467 17.6699647,5.34037174 C17.6699647,5.88478191 17.4385182,6.39838306 17.0387168,6.77489756 C16.6380586,7.15221888 16.1001027,7.36628037 15.5236016,7.36628037 L9.50738555,7.36628037 C9.08371709,7.36628037 8.68178606,7.20723345 8.3885272,6.93105583 C8.09117791,6.65102603 7.92,6.26880106 7.92,5.8638755 C7.92,5.45902679 8.09129498,5.07697914 8.38872069,4.79687738 C8.68197955,4.52069975 9.08391057,4.36165283 9.50757903,4.36165283 Z M9.50757903,5.13943061 C9.29690569,5.13943061 9.09834942,5.21800071 8.95588971,5.35216268 C8.81195066,5.48771782 8.73,5.67049641 8.73,5.8638755 C8.73,6.05745301 8.81191666,6.24036559 8.95569622,6.37577053 C9.09815594,6.50993249 9.2967122,6.5885026 9.50738555,6.5885026 L15.5236016,6.5885026 C15.8865248,6.5885026 16.2212889,6.45529447 16.4715478,6.21961225 C16.7182274,5.98730082 16.8599647,5.67277256 16.8599647,5.34037174 C16.8599647,5.00621239 16.7191308,4.6936889 16.4701296,4.45687365 C16.2199667,4.22361348 15.8839677,4.08932545 15.5236016,4.08932545 C15.433431,4.08932545 15.3421165,4.09789634 15.2523399,4.11433201 C15.1686881,4.1314614 15.0808563,4.1569433 14.9994032,4.18847913 L14.8169956,4.26180672 C14.6225282,4.33994411 14.3981567,4.26177163 14.3011189,4.08207189 L14.2090201,3.91151863 C14.0456383,3.598863 13.7924702,3.33755999 13.4812363,3.15739689 C13.1686132,2.97442615 12.8133506,2.87777778 12.4373257,2.87777778 C11.9236671,2.87777778 11.4433034,3.06088006 11.0784409,3.38470887 C10.7125958,3.70707517 10.4910793,4.14362228 10.4615464,4.61760865 L10.4462466,4.86073262 C10.4310633,5.10200494 10.1927614,5.27167035 9.94791894,5.21553035 L9.69600174,5.15776819 C9.66337122,5.15125249 9.63205588,5.14586227 9.60225398,5.14232639 C9.56845903,5.14082195 9.53767994,5.13943061 9.50757903,5.13943061 Z"/>
    </g>
  </g>
</svg>
