<svg xmlns="http://www.w3.org/2000/svg" width="32" height="32" viewBox="0 0 32 32">
  <g fill="none" fill-rule="evenodd">
    <rect width="32" height="32" fill="#00FFFF"/>
    <path fill="#FF00FF" fill-rule="nonzero" d="M4,9.12071794 L4,18.8767287 L15.9130548,25.7547342 L27.8261096,18.8767287 L27.8261096,9.12071794 L15.9130548,2.24271254 L4,9.12071794 Z M15.7163755,0.046864314 C15.8249985,-0.015849197 16.0019008,-0.0153932631 16.1097341,0.046864314 L29.2243319,7.61869691 C29.2799171,7.65078908 29.5161534,7.7614092 29.6555163,7.96071949 C29.7948792,8.16002979 29.8261096,8.42936118 29.8261096,8.49015864 C29.8261096,8.49015864 29.8261096,15.7256421 29.8261096,19.3433838 C29.8261096,19.4155007 29.8282205,19.6959101 29.7255249,19.9004517 C29.6228293,20.1049932 29.3841796,20.2865778 29.3314788,20.3170046 C24.9242306,22.8615306 16.1097341,27.9505824 16.1097341,27.9505824 C16.0011111,28.0132958 15.8242088,28.01284 15.7163755,27.9505824 L2.55730793,20.3531912 C2.49695576,20.3183469 2.25084629,20.1504755 2.12615967,19.9004517 C2.00147305,19.6504278 2,19.3224747 2,19.2548218 C2,15.6940869 2,8.71452398 2,8.71452398 C2,8.65472459 2.04086349,8.29578691 2.17166138,8.04170227 C2.30245927,7.78761763 2.55215762,7.58843206 2.60857961,7.5558568 L15.7163755,0.046864314 Z"/>
    <path fill="#FF00FF" fill-rule="nonzero" d="M16.9596354,30 L16.9596354,17.6989141 L29.2418144,10.5638021 L29.2418144,8 L16.0071673,15.7071832 L3,8.07942708 L3,10.6432292 L14.9596354,17.6905845 L14.9596354,30 L4.95521292,30 C4.40537065,30 3.95963542,30.4438648 3.95963542,31 L3.95963542,31 C3.95963542,31.5522847 4.40710464,32 4.96033005,32 L26.9589408,32 C27.5116092,32 27.9596354,31.5561352 27.9596354,31 L27.9596354,31 C27.9596354,30.4477153 27.5147984,30 26.9640579,30 L16.9596354,30 Z"/>
  </g>
</svg>
