<svg xmlns="http://www.w3.org/2000/svg" width="22" height="22" viewBox="0 0 22 22">
  <g fill="none" fill-rule="evenodd">
    <rect width="22" height="22" fill="#2DBBE9" rx="2"/>
    <path fill="#FFFFFF" d="M18,11 L18,18 L4,18 L4,11 L3,11 L3,6 L19,6 L19,11 L18,11 Z M4,7 L4,10 L9,10 L9,7 L4,7 Z M10,7 L10,17 L12,17 L12,7 L10,7 Z M13,7 L13,10 L18,10 L18,7 L13,7 Z M13,11 L13,17 L17,17 L17,11 L13,11 Z M5,11 L5,17 L9,17 L9,11 L5,11 Z"/>
    <path fill="#FFFFFF" fill-rule="nonzero" d="M11.6446768,6.31899921 C11.7422168,6.66571017 11.4522595,6.99870543 11.095429,6.94977107 C10.9407334,6.92855671 10.6764242,6.88557871 10.3384031,6.81913615 C9.7750929,6.70840999 9.21128587,6.5707818 8.68168677,6.40373682 C7.66371975,6.0826519 6.88984287,5.69385194 6.43554166,5.19331725 C5.78031642,4.47141083 5.85963661,3.58524976 6.70564968,2.74825693 C7.53813433,1.92464827 8.43959496,1.79015989 9.26201444,2.29933421 C9.86074586,2.67001933 10.3734644,3.349074 10.8306643,4.25166079 C11.0601913,4.70478435 11.2610067,5.18698264 11.4327256,5.66879673 C11.5358948,5.95827185 11.6070157,6.18513087 11.6446768,6.31899921 Z M9.93858441,4.70353847 C9.55715401,3.95053293 9.14267627,3.40159037 8.73561686,3.14957276 C8.31902226,2.89165174 7.92281736,2.95076131 7.40895655,3.45914331 C6.92557241,3.93737358 6.90048399,4.21766017 7.17601926,4.52123621 C7.48033487,4.85652151 8.12060503,5.17819673 8.9824958,5.45005242 C9.43908205,5.59406785 9.92917648,5.71594327 10.4219781,5.8160685 C10.2794556,5.43475421 10.1176739,5.05709026 9.93858441,4.70353847 Z"/>
    <path fill="#FFFFFF" fill-rule="nonzero" d="M10.0191095,6.31899921 C10.0567706,6.18513087 10.1278915,5.95827185 10.2310607,5.66879673 C10.4027796,5.18698264 10.603595,4.70478435 10.833122,4.25166079 C11.2903219,3.349074 11.8030404,2.67001933 12.4017719,2.29933421 C13.2241913,1.79015989 14.125652,1.92464827 14.9581366,2.74825693 C15.8041497,3.58524976 15.8834699,4.47141083 15.2282446,5.19331725 C14.7739434,5.69385194 14.0000666,6.0826519 12.9820995,6.40373682 C12.4525004,6.5707818 11.8886934,6.70840999 11.3253832,6.81913615 C10.9873621,6.88557871 10.7230529,6.92855671 10.5683573,6.94977107 C10.2115269,6.99870543 9.92156953,6.66571017 10.0191095,6.31899921 Z M11.7252019,4.70353847 C11.5461124,5.05709026 11.3843307,5.43475421 11.2418082,5.8160685 C11.7346098,5.71594327 12.2247043,5.59406785 12.6812905,5.45005242 C13.5431813,5.17819673 14.1834514,4.85652151 14.487767,4.52123621 C14.7633023,4.21766017 14.7382139,3.93737358 14.2548298,3.45914331 C13.7409689,2.95076131 13.344764,2.89165174 12.9281694,3.14957276 C12.52111,3.40159037 12.1066323,3.95053293 11.7252019,4.70353847 Z"/>
  </g>
</svg>
