<svg xmlns="http://www.w3.org/2000/svg" width="32" height="32" viewBox="0 0 32 32">
  <g fill="none" fill-rule="evenodd">
    <g fill-rule="nonzero">
      <rect width="32" height="32" fill="#00FFFF"/>
      <path fill="#A8D8E6" d="M24.507321,13.1522834 C25.0621115,12.5313881 25.5612752,11.8648882 26,11.1608658 L26,27 L0,27 L4.4408921e-16,7 L24.1200558,7 C23.9461346,7.5160215 23.7345413,8.01734971 23.4875582,8.5 L1.5,8.5 L1.50348725,25.4349883 L24.507321,25.4349883 L24.507321,13.1522834 Z"/>
      <path fill="#A8D8E6" d="M17.3760134,16.1533135 C18.143646,15.9642327 18.9052861,15.7048263 19.6528476,15.3719904 C24.4255718,13.2470367 27.7308236,8.6686934 27.7308236,2.86335034 L30.0590465,5.72874972 L31.3515194,4.65783806 L27.2027557,0 L22.5290171,3.72501591 L23.4790051,4.83767023 L26.2384908,2.86335034 C26.1866488,7.40843979 23.4670333,12.0318511 19.0427427,14.0016722 C18.3620085,14.3047546 17.668141,14.539338 16.9688677,14.7083888 L17.3760134,16.1533135 L17.3760134,16.1533135 Z"/>
    </g>
    <path fill="#A8D8E6" fill-rule="nonzero" d="M8.93344525,20.2833281 C8.30750636,20.5686826 7.62147057,20.7109375 6.87920673,20.7109375 C5.74031326,20.7109375 4.81000631,20.3565913 4.11405224,19.6463856 C3.42001121,18.9381321 3.07421875,17.9998898 3.07421875,16.8554688 C3.07421875,15.7105173 3.42253297,14.77184 4.12132527,14.0635726 C4.82073256,13.3546818 5.74005831,13 6.85396635,13 C7.56392841,13 8.24229802,13.1247837 8.88654557,13.3743162 L9.240549,13.5114302 L8.7414815,15.081667 L8.35023822,14.9466605 C7.79276551,14.7542932 7.29780843,14.6595553 6.86658654,14.6595553 C6.25292566,14.6595553 5.78945705,14.8483443 5.44645585,15.2271815 C5.09579892,15.6144742 4.91676683,16.1506798 4.91676683,16.8554688 C4.91676683,17.491939 5.10169762,18.0120569 5.47269886,18.4347843 C5.83222384,18.8444353 6.29106408,19.0450721 6.87920673,19.0450721 C7.38580843,19.0450721 7.9113949,18.9465247 8.45732366,18.7476506 L8.89250798,18.5891192 L9.22932196,20.1484431 L8.93344525,20.2833281 Z"/>
    <polygon fill="#A8D8E6" points="11.125 21.304 10.104 20.138 13.184 16.985 10.104 13.753 11.033 12.652 15.104 17.079"/>
    <polygon fill="#A8D8E6" points="15 21 21.166 21 21.166 22.571 15 22.571"/>
  </g>
</svg>
