<svg xmlns="http://www.w3.org/2000/svg" width="32" height="32" viewBox="0 0 32 32">
  <g fill="none" fill-rule="evenodd">
    <rect width="32" height="32" fill="#00FFFF"/>
    <path fill="#A8D8E6" d="M24.507321,13.1522834 C25.0621115,12.5313881 25.5612752,11.8648882 26,11.1608658 L26,27 L0,27 L0,9 L4.4408921e-16,5 L12.25,5 L13.4330245,7 L24.1200558,7 C23.9461346,7.5160215 23.7345413,8.01734971 23.4875582,8.5 L13.6827777,8.5 L12.2475707,10.939245 L1.5,10.939245 L1.50348725,25.4349883 L24.507321,25.4349883 L24.507321,13.1522834 Z M1.5,9.53955017 L11.3400309,9.53955017 L12.2124023,8.00183105 L11.3899536,6.5 L1.5,6.51965332 L1.5,9.53955017 Z"/>
    <path fill="#A8D8E6" d="M19.1847281,15.821312 C23.9574523,13.6963583 27.2627041,9.118015 27.2627041,3.31267195 L29.590927,6.17807132 L30.8833999,5.10715967 L26.7346362,0.449321605 L22.0608976,4.17433752 L23.0108856,5.28699183 L25.7703713,3.31267195 C25.7185293,7.85776139 22.9989138,12.4811727 18.5746232,14.4509938 C17.0856275,15.1139374 15.5337967,15.4491512 14,15.4876781 L14,16.9884886 C15.7379741,16.9497964 17.4972206,16.5726388 19.1847281,15.821312 Z"/>
  </g>
</svg>
