<svg xmlns="http://www.w3.org/2000/svg" width="32" height="32" viewBox="0 0 32 32">
  <g fill="none">
    <rect width="32" height="32" fill="#00FFFF"/>
    <g fill="#00FF00" transform="translate(0 3)">
      <path d="M17.5895863,3.67026142 C17.2159377,4.02211157 16.8881547,4.41400805 16.6114831,4.83718609 L11.5,1.68216862 L1.81969409,7.66301926 L11.601488,13.7813274 L13.084501,12.8586687 C13.2485725,13.1058487 13.4393182,13.3373085 13.6548561,13.5487013 C13.8473776,13.7375205 14.0563325,13.906546 14.2784221,14.0544418 L12.3203033,15.2752448 L12.3203033,24.8471327 L21.4906262,19.1589157 L21.4906262,14.7813979 L23,14.7813979 L23,19.8546673 C23,19.9487451 22.9329491,20.0634847 22.8515687,20.1101816 L11.6484313,26.964849 C11.566455,27.0118878 11.4329491,27.0115459 11.3515687,26.964849 L0.148431301,20.1101816 C0.0664549571,20.0631428 0,19.9480611 0,19.8546673 L0,7.14533268 C0,7.0512549 0.0670509338,6.93651527 0.148431301,6.88981836 L11.3515687,0.0351510402 C11.433545,-0.0118878463 11.5670509,-0.0115458686 11.6484313,0.0351510402 L17.5895863,3.67026142 Z M1.50937377,9.40720001 L1.50937377,19.1589157 L10.8109295,24.9224355 L10.8109295,15.2689971 L1.50937377,9.40720001 Z"/>
      <path d="M16.6899612,7.61175903 C16.785784,7.61175903 16.8668681,7.61548272 16.998193,7.62407695 C17.1593388,6.46908281 17.7207058,5.41539447 18.5828004,4.62429303 C19.5317685,3.74714942 20.7841421,3.25 22.115418,3.25 C23.0884305,3.25 24.0162315,3.51286299 24.8261574,4.0065461 C25.5505166,4.44321587 26.1570468,5.05719515 26.5819159,5.78438305 C26.729723,5.73658464 26.8795642,5.69679117 27.0322652,5.66438899 C27.3047917,5.61226629 27.567811,5.58655622 27.8307437,5.58655622 C28.8932814,5.58655622 29.8888109,6.00092105 30.6338742,6.72450525 C31.3797419,7.46320775 31.8054902,8.44712328 31.8054902,9.49928836 C31.8054902,10.5492223 31.3768856,11.5397388 30.6365126,12.2658739 C29.894553,12.993565 28.8983383,13.4063979 27.8307437,13.4063979 L16.6896029,13.4063979 C15.9050316,13.4063979 15.1607149,13.0996645 14.617643,12.5670362 C14.0669961,12.0269788 13.75,11.2898306 13.75,10.5089027 C13.75,9.7281231 14.0672129,8.99131692 14.6180013,8.45112065 C15.1610732,7.91849238 15.90539,7.61175903 16.6899612,7.61175903 Z M16.6899612,9.11175903 C16.2998253,9.11175903 15.9321286,9.26328709 15.6683143,9.52202802 C15.4017605,9.78345579 15.25,10.1359574 15.25,10.5089027 C15.25,10.8822308 15.4016975,11.2349908 15.667956,11.4961289 C15.9317703,11.7548698 16.299467,11.9063979 16.6896029,11.9063979 L27.8307437,11.9063979 C28.5028237,11.9063979 29.1227572,11.6494965 29.5861996,11.1949665 C30.0430137,10.7469373 30.3054902,10.1403471 30.3054902,9.49928836 C30.3054902,8.85483817 30.0446867,8.2521143 29.5835734,7.79539919 C29.1203087,7.34554027 28.4980882,7.08655622 27.8307437,7.08655622 C27.6637611,7.08655622 27.4946601,7.1030858 27.3284072,7.13478316 C27.1734965,7.16781841 27.0108451,7.21696207 26.8600059,7.27778118 L26.522214,7.41919868 C26.1620892,7.56989221 25.7465865,7.419131 25.5668868,7.07256722 L25.3963335,6.74364308 C25.0937746,6.14066435 24.6249449,5.63672283 24.0485858,5.28926543 C23.4696541,4.93639329 22.8117604,4.75 22.115418,4.75 C21.1641983,4.75 20.2746359,5.10312583 19.5989647,5.72765282 C18.9214737,6.34935926 18.5112579,7.19127155 18.4565674,8.10538812 L18.4282345,8.57427006 C18.4001172,9.03958095 17.9588174,9.36679281 17.5054054,9.25852282 L17.0388921,9.14712437 C16.9784652,9.13455838 16.9204739,9.12416295 16.8652851,9.11734375 C16.8027019,9.11444234 16.7457036,9.11175903 16.6899612,9.11175903 Z"/>
    </g>
  </g>
</svg>
