<svg xmlns="http://www.w3.org/2000/svg" width="16" height="16" viewBox="0 0 16 16">
  <g fill="none" fill-rule="evenodd">
    <rect width="16" height="16"/>
    <path fill="#424242" fill-rule="nonzero" d="M9.31543298,2 L5.02253976,2 L5.02253976,1 L11.0225398,1 L11.0225398,7 L10.0225398,7 L10.0225398,2.70710678 L2.50710673,10.2225398 L1.79999995,9.51543303 L9.31543298,2 Z M11,14.6497473 L11.7071068,15.3568541 L14.5355339,12.5284269 L11.7071068,9.69999981 L11,10.4071066 L13.1213203,12.5284269 L11,14.6497473 Z M7.935534,14.6497473 L7.22842722,15.3568541 L4.4000001,12.5284269 L7.22842722,9.69999981 L7.935534,10.4071066 L5.81421366,12.5284269 L7.935534,14.6497473 Z M10,12 L10,11 L9,11 L9,12 L8,12 L8,13 L9,13 L9,14 L10,14 L10,13 L11,13 L11,12 L10,12 Z"/>
  </g>
</svg>
