<svg id="Layer_1" data-name="Layer 1" xmlns="http://www.w3.org/2000/svg" xmlns:xlink="http://www.w3.org/1999/xlink" width="543" height="143" viewBox="0 0 543 143">
  <defs>
    <style>
      .cls-1, .cls-4, .cls-6 {
        fill: #e6e7e6;
      }

      .cls-2 {
        fill: #ff6345;
      }

      .cls-2, .cls-6 {
        fill-rule: evenodd;
      }

      .cls-3 {
        fill: url(#linear-gradient);
      }

      .cls-4 {
        font-size: 24px;
        font-family: Roboto-Regular, Roboto;
      }

      .cls-5 {
        letter-spacing: 0.72em;
      }
    </style>
    <linearGradient id="linear-gradient" x1="-0.29" y1="113.49" x2="542.71" y2="113.49" gradientUnits="userSpaceOnUse">
      <stop offset="0.38" stop-color="#ff6345"/>
      <stop offset="0.38" stop-color="#ff6345"/>
      <stop offset="0.64" stop-color="#ff6345"/>
    </linearGradient>
  </defs>
  <g id="V4">
    <rect class="cls-1" x="-0.29" y="0.49" width="543" height="143"/>
    <g>
      <g>
        <polygon class="cls-2" points="422.41 99.49 422.41 54.57 405.85 54.57 418.98 35.97 441.01 35.97 441.01 99.49 422.41 99.49"/>
        <path d="M440,37V98.49h-16.6V53.57H407.78L419.5,37H440m2-2H418.47l-.6.84L406.15,52.42l-2.23,3.15h17.49v44.92H442V35Z"/>
      </g>
      <g>
        <path class="cls-2" d="M481,99.49a33.23,33.23,0,1,1,33.22-33.23A33.26,33.26,0,0,1,481,99.49Zm0-49.32a16.09,16.09,0,1,0,16.09,16.09A16.1,16.1,0,0,0,481,50.17Z"/>
        <path d="M481,34A32.23,32.23,0,1,1,448.8,66.26,32.23,32.23,0,0,1,481,34m0,49.31a17.09,17.09,0,1,0-17.09-17.09A17.09,17.09,0,0,0,481,83.35M481,32a34.23,34.23,0,1,0,34.22,34.22A34.26,34.26,0,0,0,481,32Zm0,49.31a15.09,15.09,0,1,1,15.09-15.09A15.1,15.1,0,0,1,481,81.35Z"/>
      </g>
    </g>
    <g>
      <path class="cls-2" d="M369.73,90.79h1.15a2.43,2.43,0,0,0,1.52-.28L391,80.3a3.57,3.57,0,0,0,2.17-3.22V56.22a3.57,3.57,0,0,0-2-3.16L372.29,42.78a4.08,4.08,0,0,0-1.94-.49,4.13,4.13,0,0,0-2.06.55L349.58,53.06a3.58,3.58,0,0,0-2,3.16V88.86l-4.89-2.69a6.81,6.81,0,0,1-3.91-6.12V53.23a6.84,6.84,0,0,1,3.83-6.08c18.43-10.06,22.83-12.47,24-13l0,0a7.39,7.39,0,0,1,3.79-1,7.56,7.56,0,0,1,3.59.9l24.15,13.21a6.8,6.8,0,0,1,3.84,6.08V80.05a6.83,6.83,0,0,1-4,6.18L374.12,99.29a5.82,5.82,0,0,1-3.39.75h-1Zm-17.31.9v-32a4.24,4.24,0,0,1,2.36-3.77l14.07-7.72,0,.06a4.79,4.79,0,0,1,1.46-.23,4.55,4.55,0,0,1,2.2.56L385.91,56a4.21,4.21,0,0,1,2.35,3.76V74.62a4.25,4.25,0,0,1-2.48,3.84l-13.13,7.25a4.55,4.55,0,0,1-2.32.62,4.49,4.49,0,0,1-2.5-.74L361.23,82V96.24Zm9-29.62a1,1,0,0,0-.56.85v8.94a.94.94,0,0,0,.56.85l7.84,4.35a1.17,1.17,0,0,0,.68.22,1,1,0,0,0,.57-.16l7.89-4.38a1,1,0,0,0,.62-.88V62.92a1,1,0,0,0-.54-.84l-8-4.42a1.11,1.11,0,0,0-.54-.13,1.08,1.08,0,0,0-.57.15l-.75.45,0,0Z"/>
      <path d="M370.35,34a6.58,6.58,0,0,1,3.11.78L397.61,48a5.82,5.82,0,0,1,3.32,5.2V80.05a5.87,5.87,0,0,1-3.45,5.27l-23.84,13.1a5,5,0,0,1-2.91.62V91.78a3.59,3.59,0,0,0,2.18-.42l18.53-10.18a4.55,4.55,0,0,0,2.69-4.1V56.22a4.56,4.56,0,0,0-2.58-4L372.77,41.91a5,5,0,0,0-2.42-.62,5.13,5.13,0,0,0-2.56.69L349.1,52.19a4.55,4.55,0,0,0-2.55,4v31l-3.41-1.88a5.85,5.85,0,0,1-3.39-5.24V53.23A5.87,5.87,0,0,1,343,48s24-13.11,24-13.11h0a6.37,6.37,0,0,1,3.28-.89m0,15a3.57,3.57,0,0,1,1.72.44h0l13.36,7.34h0a3.25,3.25,0,0,1,1.83,2.89V74.62a3.25,3.25,0,0,1-1.91,2.93h0l-13.18,7.28h0a3.54,3.54,0,0,1-1.84.5,3.5,3.5,0,0,1-1.95-.58l-8.15-4.49V94.6l-6.81-3.52V59.71a3.25,3.25,0,0,1,1.81-2.88l13.3-7.29h0a3.59,3.59,0,0,1,1.82-.49m-1.45,7.77h0L361,61.19a2,2,0,0,0-1.08,1.73v8.94A2,2,0,0,0,361,73.61h0l7.79,4.33a2.17,2.17,0,0,0,1.17.34,2.12,2.12,0,0,0,1.09-.3h0l7.85-4.36h0a2,2,0,0,0,1.14-1.76V62.92A2,2,0,0,0,379,61.19h0l-8-4.4h0a2.06,2.06,0,0,0-1-.26,2.11,2.11,0,0,0-1.09.29M370.35,32a8.51,8.51,0,0,0-4.3,1.16v0c-.59.29-1.64.86-3.71,2l-8.27,4.51-12,6.55a7.82,7.82,0,0,0-4.35,6.95V80.05a7.82,7.82,0,0,0,4.47,7l3.37,1.85,3,1.63V56.22A2.56,2.56,0,0,1,350,54h0l0,0,18.69-10.21a3.22,3.22,0,0,1,1.6-.44,3,3,0,0,1,1.46.37l18.78,10.27h0l0,0a2.56,2.56,0,0,1,1.47,2.26V77.08a2.55,2.55,0,0,1-1.54,2.29l0,0-.06,0L371.94,89.61h0l0,0c-.22.13-.24.14-1,.14h-2.15V101h2a6.85,6.85,0,0,0,3.9-.89L398.39,87.1a7.8,7.8,0,0,0,4.54-7V53.23a7.83,7.83,0,0,0-4.39-7L374.42,33.07a8.48,8.48,0,0,0-4.07-1ZM369,47l-1.48.81-13.27,7.29a5.23,5.23,0,0,0-2.87,4.64V92.3l1.08.56,6.81,3.52,2.92,1.5V83.65l5.12,2.82a5.62,5.62,0,0,0,5.81.1l13.14-7.25c.15-.08.3-.16.44-.25l2-1.08-.39-.37a5.17,5.17,0,0,0,.95-3V59.71a5.24,5.24,0,0,0-2.9-4.66L373,47.73a5.61,5.61,0,0,0-3.83-.56L369,47Zm-.63,12.48,1.52-.91H370l8,4.4h0l0,0v8.84l0,0-.07,0-7.85,4.36,0,0,0,0h-.12l-.07,0-.07,0L362,71.86l-.05,0,0,0V63h0l0,0,6.42-3.54,0,.05Z"/>
    </g>
    <rect class="cls-3" x="-0.29" y="83.49" width="543" height="60"/>
    <rect x="-0.29" y="81.49" width="543" height="2"/>
    <text class="cls-4" transform="translate(407.78 122.1)"><tspan class="cls-5">202</tspan><tspan x="91.99" y="0">1</tspan></text>
    <g>
      <polygon class="cls-2" points="423.41 36.97 419.5 36.97 407.78 53.57 423.41 53.57 423.41 98.49 440.01 98.49 440.01 53.57 440.01 36.97 423.41 36.97"/>
      <path class="cls-2" d="M481,34a32.23,32.23,0,1,0,32.22,32.22A32.23,32.23,0,0,0,481,34Zm0,49.31a17.09,17.09,0,1,1,17.09-17.09A17.09,17.09,0,0,1,481,83.35Z"/>
    </g>
    <g>
      <path class="cls-6" d="M346.55,87.17l13.68,7.43,7.35,4a9.78,9.78,0,0,0,3.15.46q1.83,0,26.09-20.11V51.85l-26.48-13.1L343.69,52.39V81.67Z"/>
      <path class="cls-2" d="M373.46,34.82,397.61,48a5.82,5.82,0,0,1,3.32,5.2V80.05a5.87,5.87,0,0,1-3.45,5.27l-23.84,13.1a5,5,0,0,1-2.91.62V91.78a3.59,3.59,0,0,0,2.18-.42l18.53-10.18a4.55,4.55,0,0,0,2.69-4.1V56.22a4.56,4.56,0,0,0-2.58-4L372.77,41.91a5,5,0,0,0-2.42-.62,5.13,5.13,0,0,0-2.56.69L349.1,52.19a4.55,4.55,0,0,0-2.55,4v31l-3.41-1.88a5.85,5.85,0,0,1-3.39-5.24V53.23A5.87,5.87,0,0,1,343,48s24-13.12,24-13.11a6.37,6.37,0,0,1,3.28-.89A6.58,6.58,0,0,1,373.46,34.82Zm6.6,28.46v-.36A2,2,0,0,0,379,61.19h0l-8-4.4h0a2.06,2.06,0,0,0-1-.26,2.11,2.11,0,0,0-1.09.29h0L361,61.19a2,2,0,0,0-1.08,1.73v8.94A2,2,0,0,0,361,73.61h0l7.79,4.33a2.17,2.17,0,0,0,1.17.34,2.12,2.12,0,0,0,1.09-.3h0l7.85-4.36h0a2,2,0,0,0,1.14-1.76Zm5.37-6.46a3.25,3.25,0,0,1,1.83,2.89V74.62a3.25,3.25,0,0,1-1.91,2.93h0l-13.18,7.28h0a3.54,3.54,0,0,1-1.84.5,3.5,3.5,0,0,1-1.95-.58l-8.15-4.49V94.6l-6.81-3.52V59.71a3.25,3.25,0,0,1,1.81-2.88l13.3-7.29h0a3.6,3.6,0,0,1,3.54,0h0l13.36,7.34Z"/>
    </g>
  </g>
</svg>
