<svg xmlns="http://www.w3.org/2000/svg" width="268" height="146" viewBox="0 0 268 146" xmlns:xlink="http://www.w3.org/1999/xlink">
  <defs>
    <path id="a" d="M8.22140969,11.2705701 C8.47165647,11.2705701 8.68341223,11.2800902 9.02637472,11.3020624 C9.44721633,8.34918123 10.5202114,5.04199977 12.771621,3.019454 C15.2499057,0.776931104 20.2938388,0 23.7705425,0 C26.3116204,0 28.1961387,1.36291695 30.3113067,2.62507705 C32.2030123,3.74147573 32.945248,4.73952098 34.0548182,6.59866412 C34.4408249,6.47646175 34.8321439,6.37472497 35.2309312,6.2918849 C35.9426498,6.15862697 38.0871142,5.95327187 38.7737779,5.95327187 C41.5486562,5.95327187 42.6909646,7.15226951 44.6367402,9.00219933 C46.5846167,10.8907809 48,13.5564375 48,16.2464238 C48,17.4678351 47.3031124,18.3812895 46.9641181,19.6068622 C46.5581084,21.0747169 46.1113245,22.6864902 44.9068703,23.8853755 C42.6967674,26.0852597 39.9677617,25.5538934 37.3162038,26.0852597 C31.1339993,26.6950866 26.5161176,27 23.4625587,27 C20.0503998,27 14.9697049,26.6950866 8.22047396,26.0852597 C5.83297869,25.5013676 4.22863094,24.5311013 2.81036729,23.1693732 C1.37232141,21.7886515 0,20.3082814 0,18.3117456 C0,16.3155887 1.03962112,14.6330091 2.47803655,13.2519326 C3.25584855,12.5051261 4.12007139,12.0721042 5.11819745,11.8259348 C5.48859348,11.7345835 6.22936838,11.9025256 6.63048357,11.8259348 C7.11938867,11.732581 7.71314961,11.2705701 8.22140969,11.2705701 Z"/>
  </defs>
  <g fill="none" fill-rule="evenodd">
    <rect width="268" height="146"/>
    <g transform="translate(2 -4)">
      <g transform="translate(0 99)">
        <path fill="#133A51" d="M13.1425781,22 L11.1308594,22 L3.92382812,10.8378906 C3.74153555,10.5579413 3.59179746,10.2649755 3.47460938,9.95898438 L3.41601562,9.95898438 C3.46809922,10.258465 3.49414062,10.8997347 3.49414062,11.8828125 L3.49414062,22 L1.85351562,22 L1.85351562,7.99609375 L3.98242188,7.99609375 L10.9941406,18.9824219 C11.2871108,19.4381533 11.475911,19.7506502 11.5605469,19.9199219 L11.5996094,19.9199219 C11.5345049,19.516274 11.5019531,18.8294319 11.5019531,17.859375 L11.5019531,7.99609375 L13.1425781,7.99609375 L13.1425781,22 Z M20.7792969,22.234375 C19.3014249,22.234375 18.1214237,21.7672573 17.2392578,20.8330078 C16.3570919,19.8987583 15.9160156,18.660164 15.9160156,17.1171875 C15.9160156,15.4374916 16.3749954,14.1256558 17.2929688,13.1816406 C18.2109421,12.2376255 19.4511641,11.765625 21.0136719,11.765625 C22.5045647,11.765625 23.6682901,12.2246048 24.5048828,13.1425781 C25.3414755,14.0605515 25.7597656,15.3333252 25.7597656,16.9609375 C25.7597656,18.5559976 25.3089238,19.8336541 24.4072266,20.7939453 C23.5055293,21.7542366 22.2962315,22.234375 20.7792969,22.234375 Z M20.8964844,13.1132812 C19.8678334,13.1132812 19.0540395,13.4632126 18.4550781,14.1630859 C17.8561168,14.8629592 17.5566406,15.8281188 17.5566406,17.0585938 C17.5566406,18.2434955 17.859372,19.177731 18.4648438,19.8613281 C19.0703155,20.5449253 19.8808543,20.8867188 20.8964844,20.8867188 C21.9316458,20.8867188 22.7275363,20.5514356 23.2841797,19.8808594 C23.8408231,19.2102831 24.1191406,18.2565166 24.1191406,17.0195312 C24.1191406,15.769525 23.8408231,14.805993 23.2841797,14.1289062 C22.7275363,13.4518195 21.9316458,13.1132812 20.8964844,13.1132812 Z M44.0507812,22 L42.0976562,22 L39.7539062,18.0742188 C39.5390614,17.7096336 39.3307302,17.3987643 39.1289062,17.1416016 C38.9270823,16.8844388 38.7203787,16.67448 38.5087891,16.5117188 C38.2971995,16.3489575 38.0693372,16.2301436 37.8251953,16.1552734 C37.5810535,16.0804033 37.3059911,16.0429688 37,16.0429688 L35.6523438,16.0429688 L35.6523438,22 L34.0117188,22 L34.0117188,7.99609375 L38.1914062,7.99609375 C38.8033885,7.99609375 39.3681615,8.07259038 39.8857422,8.22558594 C40.4033229,8.37858149 40.8525372,8.61132656 41.2333984,8.92382812 C41.6142597,9.23632969 41.9121083,9.62532319 42.1269531,10.0908203 C42.3417979,10.5563174 42.4492188,11.1015594 42.4492188,11.7265625 C42.4492188,12.2148462 42.3759773,12.6624329 42.2294922,13.0693359 C42.0830071,13.476239 41.8746758,13.8391911 41.6044922,14.1582031 C41.3343085,14.4772151 41.008791,14.7490223 40.6279297,14.9736328 C40.2470684,15.1982433 39.8190128,15.3723952 39.34375,15.4960938 L39.34375,15.5351562 C39.5781262,15.6393234 39.7815747,15.7581374 39.9541016,15.8916016 C40.1266285,16.0250658 40.2910148,16.1829418 40.4472656,16.3652344 C40.6035164,16.547527 40.7581373,16.7542306 40.9111328,16.9853516 C41.0641284,17.2164725 41.2350251,17.4850245 41.4238281,17.7910156 L44.0507812,22 Z M35.6523438,9.48046875 L35.6523438,14.5585938 L37.8789062,14.5585938 C38.2890646,14.5585938 38.6682925,14.4967454 39.0166016,14.3730469 C39.3649106,14.2493483 39.6660144,14.0719413 39.9199219,13.8408203 C40.1738294,13.6096994 40.3723951,13.3264991 40.515625,12.9912109 C40.6588549,12.6559228 40.7304688,12.27995 40.7304688,11.8632812 C40.7304688,11.1145796 40.4879582,10.5302755 40.0029297,10.1103516 C39.5179012,9.69042759 38.8164108,9.48046875 37.8984375,9.48046875 L35.6523438,9.48046875 Z M53.2402344,17.4003906 L46.1796875,17.4003906 C46.2057293,18.5136774 46.5052055,19.3730438 47.078125,19.9785156 C47.6510445,20.5839874 48.4387971,20.8867188 49.4414062,20.8867188 C50.567714,20.8867188 51.6028599,20.5156287 52.546875,19.7734375 L52.546875,21.2773438 C51.6679644,21.9153678 50.5058666,22.234375 49.0605469,22.234375 C47.6477794,22.234375 46.5377645,21.780278 45.7304688,20.8720703 C44.923173,19.9638626 44.5195312,18.6862062 44.5195312,17.0390625 C44.5195312,15.4830651 44.9606076,14.2151742 45.8427734,13.2353516 C46.7249393,12.255529 47.820306,11.765625 49.1289062,11.765625 C50.4375065,11.765625 51.4498662,12.1887979 52.1660156,13.0351562 C52.882165,13.8815146 53.2402344,15.0566331 53.2402344,16.5605469 L53.2402344,17.4003906 Z M51.5996094,16.0429688 C51.5930989,15.118485 51.3701194,14.3990911 50.9306641,13.8847656 C50.4912087,13.3704401 49.8808633,13.1132812 49.0996094,13.1132812 C48.3443973,13.1132812 47.7031276,13.3834608 47.1757812,13.9238281 C46.6484349,14.4641954 46.3229173,15.1705686 46.1992188,16.0429688 L51.5996094,16.0429688 Z M69.8613281,22 L68.2597656,22 L68.2597656,16.2578125 C68.2597656,15.1510361 68.0888689,14.3502629 67.7470703,13.8554688 C67.4052717,13.3606746 66.8307332,13.1132812 66.0234375,13.1132812 C65.3398403,13.1132812 64.7587915,13.4257781 64.2802734,14.0507812 C63.8017554,14.6757844 63.5625,15.4244748 63.5625,16.296875 L63.5625,22 L61.9609375,22 L61.9609375,16.0625 C61.9609375,14.0963443 61.2024815,13.1132812 59.6855469,13.1132812 C58.9824184,13.1132812 58.4029971,13.4078747 57.9472656,13.9970703 C57.4915342,14.586266 57.2636719,15.3528599 57.2636719,16.296875 L57.2636719,22 L55.6621094,22 L55.6621094,12 L57.2636719,12 L57.2636719,13.5820312 L57.3027344,13.5820312 C58.0123733,12.3710877 59.0475192,11.765625 60.4082031,11.765625 C61.0918003,11.765625 61.6874975,11.9560528 62.1953125,12.3369141 C62.7031275,12.7177753 63.0514313,13.2174448 63.2402344,13.8359375 C63.9824256,12.4557223 65.0891854,11.765625 66.5605469,11.765625 C68.7610787,11.765625 69.8613281,13.1230333 69.8613281,15.8378906 L69.8613281,22 Z M77.0683594,22.234375 C75.5904874,22.234375 74.4104862,21.7672573 73.5283203,20.8330078 C72.6461544,19.8987583 72.2050781,18.660164 72.2050781,17.1171875 C72.2050781,15.4374916 72.6640579,14.1256558 73.5820312,13.1816406 C74.5000046,12.2376255 75.7402266,11.765625 77.3027344,11.765625 C78.7936272,11.765625 79.9573526,12.2246048 80.7939453,13.1425781 C81.630538,14.0605515 82.0488281,15.3333252 82.0488281,16.9609375 C82.0488281,18.5559976 81.5979863,19.8336541 80.6962891,20.7939453 C79.7945918,21.7542366 78.585294,22.234375 77.0683594,22.234375 Z M77.1855469,13.1132812 C76.1568959,13.1132812 75.343102,13.4632126 74.7441406,14.1630859 C74.1451793,14.8629592 73.8457031,15.8281188 73.8457031,17.0585938 C73.8457031,18.2434955 74.1484345,19.177731 74.7539062,19.8613281 C75.359378,20.5449253 76.1699168,20.8867188 77.1855469,20.8867188 C78.2207083,20.8867188 79.0165988,20.5514356 79.5732422,19.8808594 C80.1298856,19.2102831 80.4082031,18.2565166 80.4082031,17.0195312 C80.4082031,15.769525 80.1298856,14.805993 79.5732422,14.1289062 C79.0165988,13.4518195 78.2207083,13.1132812 77.1855469,13.1132812 Z M89.2460938,21.9023438 C88.8684877,22.1106781 88.3704458,22.2148438 87.7519531,22.2148438 C86.0006423,22.2148438 85.125,21.238291 85.125,19.2851562 L85.125,13.3671875 L83.40625,13.3671875 L83.40625,12 L85.125,12 L85.125,9.55859375 L86.7265625,9.04101562 L86.7265625,12 L89.2460938,12 L89.2460938,13.3671875 L86.7265625,13.3671875 L86.7265625,19.0019531 C86.7265625,19.6725294 86.8404937,20.1510402 87.0683594,20.4375 C87.2962251,20.7239598 87.6738255,20.8671875 88.2011719,20.8671875 C88.6048197,20.8671875 88.9531235,20.7565115 89.2460938,20.5351562 L89.2460938,21.9023438 Z M99.265625,17.4003906 L92.2050781,17.4003906 C92.2311199,18.5136774 92.5305961,19.3730438 93.1035156,19.9785156 C93.6764352,20.5839874 94.4641877,20.8867188 95.4667969,20.8867188 C96.5931046,20.8867188 97.6282505,20.5156287 98.5722656,19.7734375 L98.5722656,21.2773438 C97.693355,21.9153678 96.5312572,22.234375 95.0859375,22.234375 C93.67317,22.234375 92.5631551,21.780278 91.7558594,20.8720703 C90.9485637,19.9638626 90.5449219,18.6862062 90.5449219,17.0390625 C90.5449219,15.4830651 90.9859982,14.2151742 91.8681641,13.2353516 C92.7503299,12.255529 93.8456966,11.765625 95.1542969,11.765625 C96.4628972,11.765625 97.4752568,12.1887979 98.1914062,13.0351562 C98.9075557,13.8815146 99.265625,15.0566331 99.265625,16.5605469 L99.265625,17.4003906 Z M97.625,16.0429688 C97.6184896,15.118485 97.39551,14.3990911 96.9560547,13.8847656 C96.5165994,13.3704401 95.9062539,13.1132812 95.125,13.1132812 C94.3697879,13.1132812 93.7285183,13.3834608 93.2011719,13.9238281 C92.6738255,14.4641954 92.3483079,15.1705686 92.2246094,16.0429688 L97.625,16.0429688 Z M106.804688,17.0585938 L101.472656,17.0585938 L101.472656,15.7988281 L106.804688,15.7988281 L106.804688,17.0585938 Z M114.324219,21.9023438 C113.946613,22.1106781 113.448571,22.2148438 112.830078,22.2148438 C111.078767,22.2148438 110.203125,21.238291 110.203125,19.2851562 L110.203125,13.3671875 L108.484375,13.3671875 L108.484375,12 L110.203125,12 L110.203125,9.55859375 L111.804688,9.04101562 L111.804688,12 L114.324219,12 L114.324219,13.3671875 L111.804688,13.3671875 L111.804688,19.0019531 C111.804688,19.6725294 111.918619,20.1510402 112.146484,20.4375 C112.37435,20.7239598 112.75195,20.8671875 113.279297,20.8671875 C113.682945,20.8671875 114.031249,20.7565115 114.324219,20.5351562 L114.324219,21.9023438 Z M121.677734,13.6210938 C121.397785,13.4062489 120.994143,13.2988281 120.466797,13.2988281 C119.7832,13.2988281 119.211916,13.6210905 118.75293,14.265625 C118.293943,14.9101595 118.064453,15.7890569 118.064453,16.9023438 L118.064453,22 L116.462891,22 L116.462891,12 L118.064453,12 L118.064453,14.0605469 L118.103516,14.0605469 C118.331381,13.3574184 118.679685,12.8089212 119.148438,12.4150391 C119.61719,12.0211569 120.141273,11.8242188 120.720703,11.8242188 C121.137372,11.8242188 121.456379,11.8697912 121.677734,11.9609375 L121.677734,13.6210938 Z M130.574219,22 L128.972656,22 L128.972656,20.4375 L128.933594,20.4375 C128.236976,21.6354227 127.211595,22.234375 125.857422,22.234375 C124.861323,22.234375 124.081709,21.9707058 123.518555,21.4433594 C122.955401,20.916013 122.673828,20.2161502 122.673828,19.34375 C122.673828,17.4752511 123.774078,16.3880224 125.974609,16.0820312 L128.972656,15.6621094 C128.972656,13.9628821 128.285814,13.1132812 126.912109,13.1132812 C125.707676,13.1132812 124.620448,13.5234334 123.650391,14.34375 L123.650391,12.703125 C124.633468,12.0781219 125.76627,11.765625 127.048828,11.765625 C129.3991,11.765625 130.574219,13.0091021 130.574219,15.4960938 L130.574219,22 Z M128.972656,16.9414062 L126.560547,17.2734375 C125.818356,17.3776047 125.258465,17.5615221 124.880859,17.8251953 C124.503253,18.0888685 124.314453,18.5559862 124.314453,19.2265625 C124.314453,19.7148462 124.488605,20.1136052 124.836914,20.4228516 C125.185223,20.7320979 125.649086,20.8867188 126.228516,20.8867188 C127.02279,20.8867188 127.678708,20.6084012 128.196289,20.0517578 C128.71387,19.4951144 128.972656,18.7903688 128.972656,17.9375 L128.972656,16.9414062 Z M140.408203,21.5410156 C139.63997,22.0032575 138.728521,22.234375 137.673828,22.234375 C136.24804,22.234375 135.097335,21.7705125 134.22168,20.8427734 C133.346024,19.9150344 132.908203,18.712247 132.908203,17.234375 C132.908203,15.5872313 133.380204,14.2640024 134.324219,13.2646484 C135.268234,12.2652945 136.527987,11.765625 138.103516,11.765625 C138.982426,11.765625 139.757158,11.9283838 140.427734,12.2539062 L140.427734,13.8945312 C139.685543,13.3736953 138.89128,13.1132812 138.044922,13.1132812 C137.022781,13.1132812 136.184574,13.4794885 135.530273,14.2119141 C134.875973,14.9443396 134.548828,15.906244 134.548828,17.0976562 C134.548828,18.2695371 134.856442,19.194007 135.47168,19.8710938 C136.086917,20.5481805 136.912104,20.8867188 137.947266,20.8867188 C138.819666,20.8867188 139.63997,20.5970081 140.408203,20.0175781 L140.408203,21.5410156 Z M151.130859,22 L148.884766,22 L144.470703,17.1953125 L144.431641,17.1953125 L144.431641,22 L142.830078,22 L142.830078,7.1953125 L144.431641,7.1953125 L144.431641,16.5800781 L144.470703,16.5800781 L148.669922,12 L150.769531,12 L146.130859,16.8242188 L151.130859,22 Z M153.591797,9.4609375 C153.305337,9.4609375 153.061199,9.36328223 152.859375,9.16796875 C152.657551,8.97265527 152.556641,8.72526191 152.556641,8.42578125 C152.556641,8.12630059 152.657551,7.87727964 152.859375,7.67871094 C153.061199,7.48014224 153.305337,7.38085938 153.591797,7.38085938 C153.884767,7.38085938 154.133788,7.48014224 154.338867,7.67871094 C154.543946,7.87727964 154.646484,8.12630059 154.646484,8.42578125 C154.646484,8.71224102 154.543946,8.9563792 154.338867,9.15820312 C154.133788,9.36002705 153.884767,9.4609375 153.591797,9.4609375 Z M154.373047,22 L152.771484,22 L152.771484,12 L154.373047,12 L154.373047,22 Z M165.916016,22 L164.314453,22 L164.314453,16.296875 C164.314453,14.1744686 163.539721,13.1132812 161.990234,13.1132812 C161.189449,13.1132812 160.527021,13.414385 160.00293,14.0166016 C159.478839,14.6188181 159.216797,15.3789017 159.216797,16.296875 L159.216797,22 L157.615234,22 L157.615234,12 L159.216797,12 L159.216797,13.6601562 L159.255859,13.6601562 C160.011071,12.3971291 161.104811,11.765625 162.537109,11.765625 C163.630865,11.765625 164.467445,12.1188116 165.046875,12.8251953 C165.626305,13.5315791 165.916016,14.5520767 165.916016,15.8867188 L165.916016,22 Z M177.46875,21.1992188 C177.46875,24.8711121 175.710955,26.7070312 172.195312,26.7070312 C170.958327,26.7070312 169.877609,26.4726586 168.953125,26.0039062 L168.953125,24.4023438 C170.079433,25.0273469 171.153641,25.3398438 172.175781,25.3398438 C174.636731,25.3398438 175.867188,24.0312631 175.867188,21.4140625 L175.867188,20.3203125 L175.828125,20.3203125 C175.066402,21.5963605 173.920581,22.234375 172.390625,22.234375 C171.147129,22.234375 170.146163,21.7900435 169.387695,20.9013672 C168.629228,20.0126909 168.25,18.8196689 168.25,17.3222656 C168.25,15.6230384 168.658525,14.2721404 169.475586,13.2695312 C170.292647,12.2669221 171.4108,11.765625 172.830078,11.765625 C174.177741,11.765625 175.17708,12.3059842 175.828125,13.3867188 L175.867188,13.3867188 L175.867188,12 L177.46875,12 L177.46875,21.1992188 Z M175.867188,17.4785156 L175.867188,16.0039062 C175.867188,15.2096314 175.598635,14.5292997 175.061523,13.9628906 C174.524411,13.3964815 173.855473,13.1132812 173.054688,13.1132812 C172.065099,13.1132812 171.290367,13.4729782 170.730469,14.1923828 C170.17057,14.9117875 169.890625,15.9192644 169.890625,17.2148438 C169.890625,18.3281306 170.159177,19.2184211 170.696289,19.8857422 C171.233401,20.5530632 171.944657,20.8867188 172.830078,20.8867188 C173.72852,20.8867188 174.459307,20.5677115 175.022461,19.9296875 C175.585615,19.2916635 175.867188,18.4746144 175.867188,17.4785156 Z M186.404297,22 L186.404297,7.99609375 L190.388672,7.99609375 C191.599615,7.99609375 192.559892,8.29231475 193.269531,8.88476562 C193.97917,9.4772165 194.333984,10.2486932 194.333984,11.1992188 C194.333984,11.9934936 194.119143,12.6835908 193.689453,13.2695312 C193.259763,13.8554717 192.667321,14.2721342 191.912109,14.5195312 L191.912109,14.5585938 C192.856125,14.6692714 193.611325,15.0257131 194.177734,15.6279297 C194.744143,16.2301462 195.027344,17.013016 195.027344,17.9765625 C195.027344,19.1744852 194.597661,20.1445275 193.738281,20.8867188 C192.878902,21.62891 191.794928,22 190.486328,22 L186.404297,22 Z M188.044922,9.48046875 L188.044922,14.0019531 L189.724609,14.0019531 C190.623051,14.0019531 191.329425,13.7854839 191.84375,13.3525391 C192.358075,12.9195942 192.615234,12.3092487 192.615234,11.5214844 C192.615234,10.1608005 191.720061,9.48046875 189.929688,9.48046875 L188.044922,9.48046875 Z M188.044922,15.4765625 L188.044922,20.515625 L190.271484,20.515625 C191.235031,20.515625 191.982094,20.2877627 192.512695,19.8320312 C193.043297,19.3762998 193.308594,18.7513061 193.308594,17.9570312 C193.308594,16.3033771 192.182303,15.4765625 189.929688,15.4765625 L188.044922,15.4765625 Z M202.869141,13.6210938 C202.589191,13.4062489 202.18555,13.2988281 201.658203,13.2988281 C200.974606,13.2988281 200.403323,13.6210905 199.944336,14.265625 C199.485349,14.9101595 199.255859,15.7890569 199.255859,16.9023438 L199.255859,22 L197.654297,22 L197.654297,12 L199.255859,12 L199.255859,14.0605469 L199.294922,14.0605469 C199.522788,13.3574184 199.871091,12.8089212 200.339844,12.4150391 C200.808596,12.0211569 201.332679,11.8242188 201.912109,11.8242188 C202.328778,11.8242188 202.647785,11.8697912 202.869141,11.9609375 L202.869141,13.6210938 Z M211.765625,22 L210.164062,22 L210.164062,20.4375 L210.125,20.4375 C209.428382,21.6354227 208.403002,22.234375 207.048828,22.234375 C206.052729,22.234375 205.273115,21.9707058 204.709961,21.4433594 C204.146807,20.916013 203.865234,20.2161502 203.865234,19.34375 C203.865234,17.4752511 204.965484,16.3880224 207.166016,16.0820312 L210.164062,15.6621094 C210.164062,13.9628821 209.47722,13.1132812 208.103516,13.1132812 C206.899083,13.1132812 205.811854,13.5234334 204.841797,14.34375 L204.841797,12.703125 C205.824875,12.0781219 206.957676,11.765625 208.240234,11.765625 C210.590507,11.765625 211.765625,13.0091021 211.765625,15.4960938 L211.765625,22 Z M210.164062,16.9414062 L207.751953,17.2734375 C207.009762,17.3776047 206.449872,17.5615221 206.072266,17.8251953 C205.69466,18.0888685 205.505859,18.5559862 205.505859,19.2265625 C205.505859,19.7148462 205.680011,20.1136052 206.02832,20.4228516 C206.376629,20.7320979 206.840492,20.8867188 207.419922,20.8867188 C208.214197,20.8867188 208.870115,20.6084012 209.387695,20.0517578 C209.905276,19.4951144 210.164062,18.7903688 210.164062,17.9375 L210.164062,16.9414062 Z M223.083984,22 L221.482422,22 L221.482422,16.296875 C221.482422,14.1744686 220.70769,13.1132812 219.158203,13.1132812 C218.357418,13.1132812 217.69499,13.414385 217.170898,14.0166016 C216.646807,14.6188181 216.384766,15.3789017 216.384766,16.296875 L216.384766,22 L214.783203,22 L214.783203,12 L216.384766,12 L216.384766,13.6601562 L216.423828,13.6601562 C217.17904,12.3971291 218.272779,11.765625 219.705078,11.765625 C220.798834,11.765625 221.635414,12.1188116 222.214844,12.8251953 C222.794274,13.5315791 223.083984,14.5520767 223.083984,15.8867188 L223.083984,22 Z M232.917969,21.5410156 C232.149736,22.0032575 231.238287,22.234375 230.183594,22.234375 C228.757805,22.234375 227.607101,21.7705125 226.731445,20.8427734 C225.85579,19.9150344 225.417969,18.712247 225.417969,17.234375 C225.417969,15.5872313 225.889969,14.2640024 226.833984,13.2646484 C227.778,12.2652945 229.037753,11.765625 230.613281,11.765625 C231.492192,11.765625 232.266924,11.9283838 232.9375,12.2539062 L232.9375,13.8945312 C232.195309,13.3736953 231.401046,13.1132812 230.554688,13.1132812 C229.532547,13.1132812 228.694339,13.4794885 228.040039,14.2119141 C227.385739,14.9443396 227.058594,15.906244 227.058594,17.0976562 C227.058594,18.2695371 227.366208,19.194007 227.981445,19.8710938 C228.596683,20.5481805 229.42187,20.8867188 230.457031,20.8867188 C231.329431,20.8867188 232.149736,20.5970081 232.917969,20.0175781 L232.917969,21.5410156 Z M243.640625,22 L242.039062,22 L242.039062,16.2382812 C242.039062,14.1549375 241.264331,13.1132812 239.714844,13.1132812 C238.93359,13.1132812 238.276044,13.414385 237.742188,14.0166016 C237.208331,14.6188181 236.941406,15.3919224 236.941406,16.3359375 L236.941406,22 L235.339844,22 L235.339844,7.1953125 L236.941406,7.1953125 L236.941406,13.6601562 L236.980469,13.6601562 C237.748702,12.3971291 238.842441,11.765625 240.261719,11.765625 C242.514334,11.765625 243.640625,13.1230333 243.640625,15.8378906 L243.640625,22 Z M254.695312,17.4003906 L247.634766,17.4003906 C247.660807,18.5136774 247.960284,19.3730438 248.533203,19.9785156 C249.106123,20.5839874 249.893875,20.8867188 250.896484,20.8867188 C252.022792,20.8867188 253.057938,20.5156287 254.001953,19.7734375 L254.001953,21.2773438 C253.123042,21.9153678 251.960945,22.234375 250.515625,22.234375 C249.102858,22.234375 247.992843,21.780278 247.185547,20.8720703 C246.378251,19.9638626 245.974609,18.6862062 245.974609,17.0390625 C245.974609,15.4830651 246.415686,14.2151742 247.297852,13.2353516 C248.180017,12.255529 249.275384,11.765625 250.583984,11.765625 C251.892585,11.765625 252.904944,12.1887979 253.621094,13.0351562 C254.337243,13.8815146 254.695312,15.0566331 254.695312,16.5605469 L254.695312,17.4003906 Z M253.054688,16.0429688 C253.048177,15.118485 252.825198,14.3990911 252.385742,13.8847656 C251.946287,13.3704401 251.335941,13.1132812 250.554688,13.1132812 C249.799475,13.1132812 249.158206,13.3834608 248.630859,13.9238281 C248.103513,14.4641954 247.777995,15.1705686 247.654297,16.0429688 L253.054688,16.0429688 Z M256.511719,21.6386719 L256.511719,19.9199219 C257.384119,20.5644563 258.344396,20.8867188 259.392578,20.8867188 C260.798835,20.8867188 261.501953,20.4179734 261.501953,19.4804688 C261.501953,19.2135403 261.441732,18.9873056 261.321289,18.8017578 C261.200846,18.61621 261.038087,18.4518236 260.833008,18.3085938 C260.627929,18.1653639 260.387046,18.0367844 260.110352,17.9228516 C259.833657,17.8089187 259.535809,17.6901048 259.216797,17.5664062 C258.774086,17.3906241 258.385093,17.213217 258.049805,17.0341797 C257.714517,16.8551423 257.434571,16.6533214 257.209961,16.4287109 C256.98535,16.2041004 256.816081,15.9485691 256.702148,15.6621094 C256.588216,15.3756496 256.53125,15.0403665 256.53125,14.65625 C256.53125,14.1874977 256.638671,13.7724627 256.853516,13.4111328 C257.06836,13.0498029 257.354816,12.7470715 257.712891,12.5029297 C258.070965,12.2587878 258.47949,12.0748704 258.938477,11.9511719 C259.397463,11.8274733 259.871091,11.765625 260.359375,11.765625 C261.225265,11.765625 261.999997,11.9153631 262.683594,12.2148438 L262.683594,13.8359375 C261.947913,13.3541643 261.101567,13.1132812 260.144531,13.1132812 C259.845051,13.1132812 259.574871,13.1474606 259.333984,13.2158203 C259.093098,13.28418 258.886394,13.3802077 258.713867,13.5039062 C258.54134,13.6276048 258.407878,13.7757153 258.313477,13.9482422 C258.219075,14.1207691 258.171875,14.3111969 258.171875,14.5195312 C258.171875,14.7799492 258.219075,14.998046 258.313477,15.1738281 C258.407878,15.3496103 258.546223,15.5058587 258.728516,15.6425781 C258.910808,15.7792976 259.13216,15.9029942 259.392578,16.0136719 C259.652996,16.1243495 259.949217,16.244791 260.28125,16.375 C260.723961,16.5442717 261.121092,16.7184236 261.472656,16.8974609 C261.824221,17.0764983 262.123697,17.2783192 262.371094,17.5029297 C262.618491,17.7275402 262.808919,17.9863267 262.942383,18.2792969 C263.075847,18.5722671 263.142578,18.9205709 263.142578,19.3242188 C263.142578,19.8190129 263.03353,20.2486961 262.81543,20.6132812 C262.59733,20.9778664 262.305991,21.2805978 261.941406,21.5214844 C261.576821,21.762371 261.156903,21.9414057 260.681641,22.0585938 C260.206378,22.1757818 259.708336,22.234375 259.1875,22.234375 C258.158849,22.234375 257.266931,22.0358093 256.511719,21.6386719 Z"/>
        <path fill="#64819B" d="M9.124,4.68 L9.124,5.376 L5.148,5.376 L5.148,16 L4.332,16 L4.332,5.376 L0.332,5.376 L0.332,4.68 L9.124,4.68 Z M10.7,16 L10.7,4.36 L11.46,4.36 L11.46,9.4 C11.8280018,8.9466644 12.2479976,8.58533468 12.72,8.316 C13.1920024,8.04666532 13.7213304,7.912 14.308,7.912 C14.7453355,7.912 15.130665,7.98133264 15.464,8.12 C15.797335,8.25866736 16.0733322,8.45866536 16.292,8.72 C16.5106678,8.98133464 16.6759994,9.29599816 16.788,9.664 C16.9000006,10.0320018 16.956,10.4479977 16.956,10.912 L16.956,16 L16.196,16 L16.196,10.912 C16.196,10.1653296 16.025335,9.58000212 15.684,9.156 C15.342665,8.73199788 14.8200035,8.52 14.116,8.52 C13.5933307,8.52 13.1080022,8.65466532 12.66,8.924 C12.2119978,9.19333468 11.8120018,9.56266432 11.46,10.032 L11.46,16 L10.7,16 Z M22.356,7.912 C22.8040022,7.912 23.2186648,7.98933256 23.6,8.144 C23.9813352,8.29866744 24.3119986,8.52399852 24.592,8.82 C24.8720014,9.11600148 25.0906659,9.47999784 25.248,9.912 C25.4053341,10.3440022 25.484,10.8399972 25.484,11.4 C25.484,11.5173339 25.4666668,11.5973331 25.432,11.64 C25.3973332,11.6826669 25.342667,11.704 25.268,11.704 L19.516,11.704 L19.516,11.856 C19.516,12.4533363 19.5853326,12.9786644 19.724,13.432 C19.8626674,13.8853356 20.0599987,14.2653318 20.316,14.572 C20.5720013,14.8786682 20.8813315,15.1093326 21.244,15.264 C21.6066685,15.4186674 22.0119978,15.496 22.46,15.496 C22.860002,15.496 23.2066652,15.4520004 23.5,15.364 C23.7933348,15.2759996 24.039999,15.1773339 24.24,15.068 C24.440001,14.9586661 24.5986661,14.8600004 24.716,14.772 C24.8333339,14.6839996 24.9186664,14.64 24.972,14.64 C25.0413337,14.64 25.0946665,14.6666664 25.132,14.72 L25.34,14.976 C25.2119994,15.1360008 25.0426677,15.2853326 24.832,15.424 C24.6213323,15.5626674 24.386668,15.6813328 24.128,15.78 C23.869332,15.8786672 23.5920015,15.957333 23.296,16.016 C22.9999985,16.074667 22.7026682,16.104 22.404,16.104 C21.8599973,16.104 21.3640022,16.0093343 20.916,15.82 C20.4679978,15.6306657 20.0840016,15.3546685 19.764,14.992 C19.4439984,14.6293315 19.1973342,14.185336 19.024,13.66 C18.8506658,13.134664 18.764,12.5333367 18.764,11.856 C18.764,11.2853305 18.8453325,10.7586691 19.008,10.276 C19.1706675,9.79333092 19.4053318,9.37733508 19.712,9.028 C20.0186682,8.67866492 20.3946644,8.40533432 20.84,8.208 C21.2853356,8.01066568 21.7906638,7.912 22.356,7.912 Z M22.364,8.48 C21.9533313,8.48 21.585335,8.54399936 21.26,8.672 C20.934665,8.80000064 20.6533345,8.9839988 20.416,9.224 C20.1786655,9.4640012 19.9866674,9.75199832 19.84,10.088 C19.6933326,10.4240017 19.5960002,10.7999979 19.548,11.216 L24.796,11.216 C24.796,10.7893312 24.7373339,10.4066684 24.62,10.068 C24.5026661,9.72933164 24.3373344,9.44266784 24.124,9.208 C23.9106656,8.97333216 23.6546682,8.79333396 23.356,8.668 C23.0573318,8.54266604 22.7266685,8.48 22.364,8.48 Z M30.62,16 L30.62,8.04 L31.02,8.04 C31.1106671,8.04 31.1759998,8.05866648 31.216,8.096 C31.2560002,8.13333352 31.2786666,8.19733288 31.284,8.288 L31.348,9.968 C31.6040013,9.32266344 31.9453312,8.81733516 32.372,8.452 C32.7986688,8.08666484 33.3239969,7.904 33.948,7.904 C34.1880012,7.904 34.4093323,7.92933308 34.612,7.98 C34.8146677,8.03066692 35.0066658,8.10399952 35.188,8.2 L35.084,8.728 C35.0679999,8.81333376 35.0146671,8.856 34.924,8.856 C34.8919998,8.856 34.846667,8.84533344 34.788,8.824 C34.729333,8.80266656 34.6560004,8.7786668 34.568,8.752 C34.4799996,8.7253332 34.3720006,8.70133344 34.244,8.68 C34.1159994,8.65866656 33.9693342,8.648 33.804,8.648 C33.2013303,8.648 32.7066686,8.8346648 32.32,9.208 C31.9333314,9.5813352 31.6200012,10.1199965 31.38,10.824 L31.38,16 L30.62,16 Z M39.972,7.912 C40.4200022,7.912 40.8346648,7.98933256 41.216,8.144 C41.5973352,8.29866744 41.9279986,8.52399852 42.208,8.82 C42.4880014,9.11600148 42.7066659,9.47999784 42.864,9.912 C43.0213341,10.3440022 43.1,10.8399972 43.1,11.4 C43.1,11.5173339 43.0826668,11.5973331 43.048,11.64 C43.0133332,11.6826669 42.958667,11.704 42.884,11.704 L37.132,11.704 L37.132,11.856 C37.132,12.4533363 37.2013326,12.9786644 37.34,13.432 C37.4786674,13.8853356 37.6759987,14.2653318 37.932,14.572 C38.1880013,14.8786682 38.4973315,15.1093326 38.86,15.264 C39.2226685,15.4186674 39.6279978,15.496 40.076,15.496 C40.476002,15.496 40.8226652,15.4520004 41.116,15.364 C41.4093348,15.2759996 41.655999,15.1773339 41.856,15.068 C42.056001,14.9586661 42.2146661,14.8600004 42.332,14.772 C42.4493339,14.6839996 42.5346664,14.64 42.588,14.64 C42.6573337,14.64 42.7106665,14.6666664 42.748,14.72 L42.956,14.976 C42.8279994,15.1360008 42.6586677,15.2853326 42.448,15.424 C42.2373323,15.5626674 42.002668,15.6813328 41.744,15.78 C41.485332,15.8786672 41.2080015,15.957333 40.912,16.016 C40.6159985,16.074667 40.3186682,16.104 40.02,16.104 C39.4759973,16.104 38.9800022,16.0093343 38.532,15.82 C38.0839978,15.6306657 37.7000016,15.3546685 37.38,14.992 C37.0599984,14.6293315 36.8133342,14.185336 36.64,13.66 C36.4666658,13.134664 36.38,12.5333367 36.38,11.856 C36.38,11.2853305 36.4613325,10.7586691 36.624,10.276 C36.7866675,9.79333092 37.0213318,9.37733508 37.328,9.028 C37.6346682,8.67866492 38.0106644,8.40533432 38.456,8.208 C38.9013356,8.01066568 39.4066638,7.912 39.972,7.912 Z M39.98,8.48 C39.5693313,8.48 39.201335,8.54399936 38.876,8.672 C38.550665,8.80000064 38.2693345,8.9839988 38.032,9.224 C37.7946655,9.4640012 37.6026674,9.75199832 37.456,10.088 C37.3093326,10.4240017 37.2120002,10.7999979 37.164,11.216 L42.412,11.216 C42.412,10.7893312 42.3533339,10.4066684 42.236,10.068 C42.1186661,9.72933164 41.9533344,9.44266784 41.74,9.208 C41.5266656,8.97333216 41.2706682,8.79333396 40.972,8.668 C40.6733318,8.54266604 40.3426685,8.48 39.98,8.48 Z M45.148,16 L45.148,8.04 L45.564,8.04 C45.7026674,8.04 45.7826666,8.106666 45.804,8.24 L45.876,9.392 C46.0306674,9.17333224 46.1959991,8.97333424 46.372,8.792 C46.5480009,8.61066576 46.735999,8.45466732 46.936,8.324 C47.136001,8.19333268 47.3493322,8.09200036 47.576,8.02 C47.8026678,7.94799964 48.0413321,7.912 48.292,7.912 C48.8733362,7.912 49.3373316,8.08133164 49.684,8.42 C50.0306684,8.75866836 50.2653327,9.22933032 50.388,9.832 C50.4840005,9.50133168 50.6186658,9.2160012 50.792,8.976 C50.9653342,8.7359988 51.1639989,8.53733412 51.388,8.38 C51.6120011,8.22266588 51.8559987,8.10533372 52.12,8.028 C52.3840013,7.95066628 52.6546653,7.912 52.932,7.912 C53.3266686,7.912 53.6813318,7.97733268 53.996,8.108 C54.3106682,8.23866732 54.5786656,8.43199872 54.8,8.688 C55.0213344,8.94400128 55.1906661,9.2586648 55.308,9.632 C55.4253339,10.0053352 55.484,10.4319976 55.484,10.912 L55.484,16 L54.716,16 L54.716,10.912 C54.716,10.1333294 54.5480017,9.54000204 54.212,9.132 C53.8759983,8.72399796 53.3960031,8.52 52.772,8.52 C52.4946653,8.52 52.2293346,8.57066616 51.976,8.672 C51.7226654,8.77333384 51.4986676,8.923999 51.304,9.124 C51.1093324,9.324001 50.9546672,9.57333184 50.84,9.872 C50.7253328,10.1706682 50.668,10.5173314 50.668,10.912 L50.668,16 L49.908,16 L49.908,10.912 C49.908,10.1386628 49.7533349,9.54666872 49.444,9.136 C49.1346651,8.72533128 48.684003,8.52 48.092,8.52 C47.6599978,8.52 47.2600018,8.64933204 46.892,8.908 C46.5239982,9.16666796 46.1960014,9.52533104 45.908,9.984 L45.908,16 L45.148,16 Z M60.908,7.912 C61.4786695,7.912 61.9893311,8.00933236 62.44,8.204 C62.8906689,8.39866764 63.2706651,8.67466488 63.58,9.032 C63.8893349,9.38933512 64.1253325,9.81999748 64.288,10.324 C64.4506675,10.8280025 64.532,11.3919969 64.532,12.016 C64.532,12.6400031 64.4506675,13.2026642 64.288,13.704 C64.1253325,14.2053358 63.8893349,14.6346649 63.58,14.992 C63.2706651,15.3493351 62.8906689,15.623999 62.44,15.816 C61.9893311,16.008001 61.4786695,16.104 60.908,16.104 C60.3373305,16.104 59.8266689,16.008001 59.376,15.816 C58.9253311,15.623999 58.5440016,15.3493351 58.232,14.992 C57.9199984,14.6346649 57.6826675,14.2053358 57.52,13.704 C57.3573325,13.2026642 57.276,12.6400031 57.276,12.016 C57.276,11.3919969 57.3573325,10.8280025 57.52,10.324 C57.6826675,9.81999748 57.9199984,9.38933512 58.232,9.032 C58.5440016,8.67466488 58.9253311,8.39866764 59.376,8.204 C59.8266689,8.00933236 60.3373305,7.912 60.908,7.912 Z M60.908,15.504 C61.382669,15.504 61.7973316,15.4226675 62.152,15.26 C62.5066684,15.0973325 62.8026655,14.8640015 63.04,14.56 C63.2773345,14.2559985 63.4546661,13.8893355 63.572,13.46 C63.6893339,13.0306645 63.748,12.549336 63.748,12.016 C63.748,11.4879974 63.6893339,11.0080022 63.572,10.576 C63.4546661,10.1439978 63.2773345,9.7746682 63.04,9.468 C62.8026655,9.1613318 62.5066684,8.92533416 62.152,8.76 C61.7973316,8.59466584 61.382669,8.512 60.908,8.512 C60.433331,8.512 60.0186684,8.59466584 59.664,8.76 C59.3093316,8.92533416 59.0133345,9.1613318 58.776,9.468 C58.5386655,9.7746682 58.3600006,10.1439978 58.24,10.576 C58.1199994,11.0080022 58.06,11.4879974 58.06,12.016 C58.06,12.549336 58.1199994,13.0306645 58.24,13.46 C58.3600006,13.8893355 58.5386655,14.2559985 58.776,14.56 C59.0133345,14.8640015 59.3093316,15.0973325 59.664,15.26 C60.0186684,15.4226675 60.433331,15.504 60.908,15.504 Z M68.708,16.128 C68.1693306,16.128 67.7493348,15.9786682 67.448,15.68 C67.1466652,15.3813318 66.996,14.9200031 66.996,14.296 L66.996,8.856 L65.852,8.856 C65.793333,8.856 65.7453335,8.84000016 65.708,8.808 C65.6706665,8.77599984 65.652,8.73066696 65.652,8.672 L65.652,8.376 L67.012,8.28 L67.204,5.432 C67.2093334,5.38399976 67.2293332,5.34133352 67.264,5.304 C67.2986668,5.26666648 67.345333,5.248 67.404,5.248 L67.764,5.248 L67.764,8.288 L70.268,8.288 L70.268,8.856 L67.764,8.856 L67.764,14.256 C67.764,14.4746678 67.7919997,14.6626659 67.848,14.82 C67.9040003,14.9773341 67.9813328,15.1066662 68.08,15.208 C68.1786672,15.3093338 68.294666,15.3839998 68.428,15.432 C68.561334,15.4800002 68.7053326,15.504 68.86,15.504 C69.052001,15.504 69.2173326,15.4760003 69.356,15.42 C69.4946674,15.3639997 69.6146662,15.302667 69.716,15.236 C69.8173338,15.169333 69.8999997,15.1080003 69.964,15.052 C70.0280003,14.9959997 70.0786665,14.968 70.116,14.968 C70.1586669,14.968 70.2013331,14.9946664 70.244,15.048 L70.452,15.384 C70.2493323,15.6080011 69.9920016,15.7879993 69.68,15.924 C69.3679984,16.0600007 69.0440017,16.128 68.708,16.128 Z M75.236,7.912 C75.6840022,7.912 76.0986648,7.98933256 76.48,8.144 C76.8613352,8.29866744 77.1919986,8.52399852 77.472,8.82 C77.7520014,9.11600148 77.9706659,9.47999784 78.128,9.912 C78.2853341,10.3440022 78.364,10.8399972 78.364,11.4 C78.364,11.5173339 78.3466668,11.5973331 78.312,11.64 C78.2773332,11.6826669 78.222667,11.704 78.148,11.704 L72.396,11.704 L72.396,11.856 C72.396,12.4533363 72.4653326,12.9786644 72.604,13.432 C72.7426674,13.8853356 72.9399987,14.2653318 73.196,14.572 C73.4520013,14.8786682 73.7613315,15.1093326 74.124,15.264 C74.4866685,15.4186674 74.8919978,15.496 75.34,15.496 C75.740002,15.496 76.0866652,15.4520004 76.38,15.364 C76.6733348,15.2759996 76.919999,15.1773339 77.12,15.068 C77.320001,14.9586661 77.4786661,14.8600004 77.596,14.772 C77.7133339,14.6839996 77.7986664,14.64 77.852,14.64 C77.9213337,14.64 77.9746665,14.6666664 78.012,14.72 L78.22,14.976 C78.0919994,15.1360008 77.9226677,15.2853326 77.712,15.424 C77.5013323,15.5626674 77.266668,15.6813328 77.008,15.78 C76.749332,15.8786672 76.4720015,15.957333 76.176,16.016 C75.8799985,16.074667 75.5826682,16.104 75.284,16.104 C74.7399973,16.104 74.2440022,16.0093343 73.796,15.82 C73.3479978,15.6306657 72.9640016,15.3546685 72.644,14.992 C72.3239984,14.6293315 72.0773342,14.185336 71.904,13.66 C71.7306658,13.134664 71.644,12.5333367 71.644,11.856 C71.644,11.2853305 71.7253325,10.7586691 71.888,10.276 C72.0506675,9.79333092 72.2853318,9.37733508 72.592,9.028 C72.8986682,8.67866492 73.2746644,8.40533432 73.72,8.208 C74.1653356,8.01066568 74.6706638,7.912 75.236,7.912 Z M75.244,8.48 C74.8333313,8.48 74.465335,8.54399936 74.14,8.672 C73.814665,8.80000064 73.5333345,8.9839988 73.296,9.224 C73.0586655,9.4640012 72.8666674,9.75199832 72.72,10.088 C72.5733326,10.4240017 72.4760002,10.7999979 72.428,11.216 L77.676,11.216 C77.676,10.7893312 77.6173339,10.4066684 77.5,10.068 C77.3826661,9.72933164 77.2173344,9.44266784 77.004,9.208 C76.7906656,8.97333216 76.5346682,8.79333396 76.236,8.668 C75.9373318,8.54266604 75.6066685,8.48 75.244,8.48 Z M83.5,16 L83.5,8.04 L83.9,8.04 C83.9906671,8.04 84.0559998,8.05866648 84.096,8.096 C84.1360002,8.13333352 84.1586666,8.19733288 84.164,8.288 L84.228,9.968 C84.4840013,9.32266344 84.8253312,8.81733516 85.252,8.452 C85.6786688,8.08666484 86.2039969,7.904 86.828,7.904 C87.0680012,7.904 87.2893323,7.92933308 87.492,7.98 C87.6946677,8.03066692 87.8866658,8.10399952 88.068,8.2 L87.964,8.728 C87.9479999,8.81333376 87.8946671,8.856 87.804,8.856 C87.7719998,8.856 87.726667,8.84533344 87.668,8.824 C87.609333,8.80266656 87.5360004,8.7786668 87.448,8.752 C87.3599996,8.7253332 87.2520006,8.70133344 87.124,8.68 C86.9959994,8.65866656 86.8493342,8.648 86.684,8.648 C86.0813303,8.648 85.5866686,8.8346648 85.2,9.208 C84.8133314,9.5813352 84.5000012,10.1199965 84.26,10.824 L84.26,16 L83.5,16 Z M92.852,7.912 C93.3000022,7.912 93.7146648,7.98933256 94.096,8.144 C94.4773352,8.29866744 94.8079986,8.52399852 95.088,8.82 C95.3680014,9.11600148 95.5866659,9.47999784 95.744,9.912 C95.9013341,10.3440022 95.98,10.8399972 95.98,11.4 C95.98,11.5173339 95.9626668,11.5973331 95.928,11.64 C95.8933332,11.6826669 95.838667,11.704 95.764,11.704 L90.012,11.704 L90.012,11.856 C90.012,12.4533363 90.0813326,12.9786644 90.22,13.432 C90.3586674,13.8853356 90.5559987,14.2653318 90.812,14.572 C91.0680013,14.8786682 91.3773315,15.1093326 91.74,15.264 C92.1026685,15.4186674 92.5079978,15.496 92.956,15.496 C93.356002,15.496 93.7026652,15.4520004 93.996,15.364 C94.2893348,15.2759996 94.535999,15.1773339 94.736,15.068 C94.936001,14.9586661 95.0946661,14.8600004 95.212,14.772 C95.3293339,14.6839996 95.4146664,14.64 95.468,14.64 C95.5373337,14.64 95.5906665,14.6666664 95.628,14.72 L95.836,14.976 C95.7079994,15.1360008 95.5386677,15.2853326 95.328,15.424 C95.1173323,15.5626674 94.882668,15.6813328 94.624,15.78 C94.365332,15.8786672 94.0880015,15.957333 93.792,16.016 C93.4959985,16.074667 93.1986682,16.104 92.9,16.104 C92.3559973,16.104 91.8600022,16.0093343 91.412,15.82 C90.9639978,15.6306657 90.5800016,15.3546685 90.26,14.992 C89.9399984,14.6293315 89.6933342,14.185336 89.52,13.66 C89.3466658,13.134664 89.26,12.5333367 89.26,11.856 C89.26,11.2853305 89.3413325,10.7586691 89.504,10.276 C89.6666675,9.79333092 89.9013318,9.37733508 90.208,9.028 C90.5146682,8.67866492 90.8906644,8.40533432 91.336,8.208 C91.7813356,8.01066568 92.2866638,7.912 92.852,7.912 Z M92.86,8.48 C92.4493313,8.48 92.081335,8.54399936 91.756,8.672 C91.430665,8.80000064 91.1493345,8.9839988 90.912,9.224 C90.6746655,9.4640012 90.4826674,9.75199832 90.336,10.088 C90.1893326,10.4240017 90.0920002,10.7999979 90.044,11.216 L95.292,11.216 C95.292,10.7893312 95.2333339,10.4066684 95.116,10.068 C94.9986661,9.72933164 94.8333344,9.44266784 94.62,9.208 C94.4066656,8.97333216 94.1506682,8.79333396 93.852,8.668 C93.5533318,8.54266604 93.2226685,8.48 92.86,8.48 Z M98.028,18.816 L98.028,8.04 L98.444,8.04 C98.5133337,8.04 98.5693331,8.05466652 98.612,8.084 C98.6546669,8.11333348 98.6786666,8.16533296 98.684,8.24 L98.756,9.472 C99.1080018,8.9919976 99.5199976,8.61066808 99.992,8.328 C100.464002,8.04533192 100.99333,7.904 101.58,7.904 C102.561338,7.904 103.323997,8.24266328 103.868,8.92 C104.412003,9.59733672 104.684,10.6133266 104.684,11.968 C104.684,12.5493362 104.608001,13.0919975 104.456,13.596 C104.303999,14.1000025 104.081335,14.5373315 103.788,14.908 C103.494665,15.2786685 103.133335,15.5706656 102.704,15.784 C102.274665,15.9973344 101.780003,16.104 101.22,16.104 C100.675997,16.104 100.206669,16.0053343 99.812,15.808 C99.4173314,15.6106657 99.0760014,15.3173353 98.788,14.928 L98.788,18.816 L98.028,18.816 Z M101.364,8.52 C100.835997,8.52 100.357335,8.65733196 99.928,8.932 C99.4986645,9.20666804 99.1186683,9.58933088 98.788,10.08 L98.788,14.256 C99.0920015,14.714669 99.4293315,15.0373324 99.8,15.224 C100.170669,15.4106676 100.593331,15.504 101.068,15.504 C101.537336,15.504 101.947998,15.4186675 102.3,15.248 C102.652002,15.0773325 102.946665,14.8360016 103.184,14.524 C103.421335,14.2119984 103.599999,13.8386688 103.72,13.404 C103.840001,12.9693312 103.9,12.4906693 103.9,11.968 C103.9,10.7839941 103.682669,9.91333612 103.248,9.356 C102.813331,8.79866388 102.185337,8.52 101.364,8.52 Z M109.62,7.912 C110.19067,7.912 110.701331,8.00933236 111.152,8.204 C111.602669,8.39866764 111.982665,8.67466488 112.292,9.032 C112.601335,9.38933512 112.837333,9.81999748 113,10.324 C113.162667,10.8280025 113.244,11.3919969 113.244,12.016 C113.244,12.6400031 113.162667,13.2026642 113,13.704 C112.837333,14.2053358 112.601335,14.6346649 112.292,14.992 C111.982665,15.3493351 111.602669,15.623999 111.152,15.816 C110.701331,16.008001 110.19067,16.104 109.62,16.104 C109.04933,16.104 108.538669,16.008001 108.088,15.816 C107.637331,15.623999 107.256002,15.3493351 106.944,14.992 C106.631998,14.6346649 106.394667,14.2053358 106.232,13.704 C106.069333,13.2026642 105.988,12.6400031 105.988,12.016 C105.988,11.3919969 106.069333,10.8280025 106.232,10.324 C106.394667,9.81999748 106.631998,9.38933512 106.944,9.032 C107.256002,8.67466488 107.637331,8.39866764 108.088,8.204 C108.538669,8.00933236 109.04933,7.912 109.62,7.912 Z M109.62,15.504 C110.094669,15.504 110.509332,15.4226675 110.864,15.26 C111.218668,15.0973325 111.514665,14.8640015 111.752,14.56 C111.989335,14.2559985 112.166666,13.8893355 112.284,13.46 C112.401334,13.0306645 112.46,12.549336 112.46,12.016 C112.46,11.4879974 112.401334,11.0080022 112.284,10.576 C112.166666,10.1439978 111.989335,9.7746682 111.752,9.468 C111.514665,9.1613318 111.218668,8.92533416 110.864,8.76 C110.509332,8.59466584 110.094669,8.512 109.62,8.512 C109.145331,8.512 108.730668,8.59466584 108.376,8.76 C108.021332,8.92533416 107.725335,9.1613318 107.488,9.468 C107.250665,9.7746682 107.072001,10.1439978 106.952,10.576 C106.831999,11.0080022 106.772,11.4879974 106.772,12.016 C106.772,12.549336 106.831999,13.0306645 106.952,13.46 C107.072001,13.8893355 107.250665,14.2559985 107.488,14.56 C107.725335,14.8640015 108.021332,15.0973325 108.376,15.26 C108.730668,15.4226675 109.145331,15.504 109.62,15.504 Z M119.628,9.024 C119.590666,9.09866704 119.532,9.136 119.452,9.136 C119.393333,9.136 119.317334,9.102667 119.224,9.036 C119.130666,8.969333 119.008001,8.89466708 118.856,8.812 C118.703999,8.72933292 118.517334,8.654667 118.296,8.588 C118.074666,8.521333 117.804002,8.488 117.484,8.488 C117.195999,8.488 116.933335,8.52933292 116.696,8.612 C116.458665,8.69466708 116.256001,8.80533264 116.088,8.944 C115.919999,9.08266736 115.789334,9.24399908 115.696,9.428 C115.602666,9.61200092 115.556,9.80533232 115.556,10.008 C115.556,10.2586679 115.619999,10.4666658 115.748,10.632 C115.876001,10.7973342 116.043999,10.9386661 116.252,11.056 C116.460001,11.1733339 116.695999,11.2746662 116.96,11.36 C117.224001,11.4453338 117.494665,11.5306662 117.772,11.616 C118.049335,11.7013338 118.319999,11.7959995 118.584,11.9 C118.848001,12.0040005 119.083999,12.1333326 119.292,12.288 C119.500001,12.4426674 119.667999,12.6319989 119.796,12.856 C119.924001,13.0800011 119.988,13.3519984 119.988,13.672 C119.988,14.0186684 119.925334,14.3413318 119.8,14.64 C119.674666,14.9386682 119.493335,15.1973322 119.256,15.416 C119.018665,15.6346678 118.726668,15.8079994 118.38,15.936 C118.033332,16.0640006 117.638669,16.128 117.196,16.128 C116.635997,16.128 116.153335,16.0386676 115.748,15.86 C115.342665,15.6813324 114.980002,15.4480014 114.66,15.16 L114.844,14.888 C114.870667,14.8453331 114.9,14.8133334 114.932,14.792 C114.964,14.7706666 115.009333,14.76 115.068,14.76 C115.137334,14.76 115.222666,14.8026662 115.324,14.888 C115.425334,14.9733338 115.557333,15.0653328 115.72,15.164 C115.882667,15.2626672 116.085332,15.3546662 116.328,15.44 C116.570668,15.5253338 116.870665,15.568 117.228,15.568 C117.564002,15.568 117.859999,15.5213338 118.116,15.428 C118.372001,15.3346662 118.585332,15.2080008 118.756,15.048 C118.926668,14.8879992 119.056,14.7000011 119.144,14.484 C119.232,14.2679989 119.276,14.0400012 119.276,13.8 C119.276,13.533332 119.212001,13.3120009 119.084,13.136 C118.955999,12.9599991 118.788001,12.8106673 118.58,12.688 C118.371999,12.5653327 118.136001,12.4613338 117.872,12.376 C117.607999,12.2906662 117.336001,12.2053338 117.056,12.12 C116.775999,12.0346662 116.504001,11.9413338 116.24,11.84 C115.975999,11.7386662 115.740001,11.6106674 115.532,11.456 C115.323999,11.3013326 115.156001,11.1133344 115.028,10.892 C114.899999,10.6706656 114.836,10.3946683 114.836,10.064 C114.836,9.78133192 114.897333,9.50933464 115.02,9.248 C115.142667,8.98666536 115.317332,8.75733432 115.544,8.56 C115.770668,8.36266568 116.046665,8.20533392 116.372,8.088 C116.697335,7.97066608 117.062665,7.912 117.468,7.912 C117.953336,7.912 118.383998,7.98133264 118.76,8.12 C119.136002,8.25866736 119.481332,8.47199856 119.796,8.76 L119.628,9.024 Z M123.108,8.04 L123.108,16 L122.348,16 L122.348,8.04 L123.108,8.04 Z M123.444,5.296 C123.444,5.39200048 123.424,5.48133292 123.384,5.564 C123.344,5.64666708 123.292,5.71999968 123.228,5.784 C123.164,5.84800032 123.089334,5.89866648 123.004,5.936 C122.918666,5.97333352 122.828,5.992 122.732,5.992 C122.636,5.992 122.545334,5.97333352 122.46,5.936 C122.374666,5.89866648 122.3,5.84800032 122.236,5.784 C122.172,5.71999968 122.121334,5.64666708 122.084,5.564 C122.046666,5.48133292 122.028,5.39200048 122.028,5.296 C122.028,5.19999952 122.046666,5.10800044 122.084,5.02 C122.121334,4.93199956 122.172,4.85600032 122.236,4.792 C122.3,4.72799968 122.374666,4.67733352 122.46,4.64 C122.545334,4.60266648 122.636,4.584 122.732,4.584 C122.828,4.584 122.918666,4.60266648 123.004,4.64 C123.089334,4.67733352 123.164,4.72799968 123.228,4.792 C123.292,4.85600032 123.344,4.93199956 123.384,5.02 C123.424,5.10800044 123.444,5.19999952 123.444,5.296 Z M128.1,16.128 C127.561331,16.128 127.141335,15.9786682 126.84,15.68 C126.538665,15.3813318 126.388,14.9200031 126.388,14.296 L126.388,8.856 L125.244,8.856 C125.185333,8.856 125.137334,8.84000016 125.1,8.808 C125.062666,8.77599984 125.044,8.73066696 125.044,8.672 L125.044,8.376 L126.404,8.28 L126.596,5.432 C126.601333,5.38399976 126.621333,5.34133352 126.656,5.304 C126.690667,5.26666648 126.737333,5.248 126.796,5.248 L127.156,5.248 L127.156,8.288 L129.66,8.288 L129.66,8.856 L127.156,8.856 L127.156,14.256 C127.156,14.4746678 127.184,14.6626659 127.24,14.82 C127.296,14.9773341 127.373333,15.1066662 127.472,15.208 C127.570667,15.3093338 127.686666,15.3839998 127.82,15.432 C127.953334,15.4800002 128.097333,15.504 128.252,15.504 C128.444001,15.504 128.609333,15.4760003 128.748,15.42 C128.886667,15.3639997 129.006666,15.302667 129.108,15.236 C129.209334,15.169333 129.292,15.1080003 129.356,15.052 C129.42,14.9959997 129.470666,14.968 129.508,14.968 C129.550667,14.968 129.593333,14.9946664 129.636,15.048 L129.844,15.384 C129.641332,15.6080011 129.384002,15.7879993 129.072,15.924 C128.759998,16.0600007 128.436002,16.128 128.1,16.128 Z M134.66,7.912 C135.23067,7.912 135.741331,8.00933236 136.192,8.204 C136.642669,8.39866764 137.022665,8.67466488 137.332,9.032 C137.641335,9.38933512 137.877333,9.81999748 138.04,10.324 C138.202667,10.8280025 138.284,11.3919969 138.284,12.016 C138.284,12.6400031 138.202667,13.2026642 138.04,13.704 C137.877333,14.2053358 137.641335,14.6346649 137.332,14.992 C137.022665,15.3493351 136.642669,15.623999 136.192,15.816 C135.741331,16.008001 135.23067,16.104 134.66,16.104 C134.08933,16.104 133.578669,16.008001 133.128,15.816 C132.677331,15.623999 132.296002,15.3493351 131.984,14.992 C131.671998,14.6346649 131.434667,14.2053358 131.272,13.704 C131.109333,13.2026642 131.028,12.6400031 131.028,12.016 C131.028,11.3919969 131.109333,10.8280025 131.272,10.324 C131.434667,9.81999748 131.671998,9.38933512 131.984,9.032 C132.296002,8.67466488 132.677331,8.39866764 133.128,8.204 C133.578669,8.00933236 134.08933,7.912 134.66,7.912 Z M134.66,15.504 C135.134669,15.504 135.549332,15.4226675 135.904,15.26 C136.258668,15.0973325 136.554665,14.8640015 136.792,14.56 C137.029335,14.2559985 137.206666,13.8893355 137.324,13.46 C137.441334,13.0306645 137.5,12.549336 137.5,12.016 C137.5,11.4879974 137.441334,11.0080022 137.324,10.576 C137.206666,10.1439978 137.029335,9.7746682 136.792,9.468 C136.554665,9.1613318 136.258668,8.92533416 135.904,8.76 C135.549332,8.59466584 135.134669,8.512 134.66,8.512 C134.185331,8.512 133.770668,8.59466584 133.416,8.76 C133.061332,8.92533416 132.765335,9.1613318 132.528,9.468 C132.290665,9.7746682 132.112001,10.1439978 131.992,10.576 C131.871999,11.0080022 131.812,11.4879974 131.812,12.016 C131.812,12.549336 131.871999,13.0306645 131.992,13.46 C132.112001,13.8893355 132.290665,14.2559985 132.528,14.56 C132.765335,14.8640015 133.061332,15.0973325 133.416,15.26 C133.770668,15.4226675 134.185331,15.504 134.66,15.504 Z M140.284,16 L140.284,8.04 L140.684,8.04 C140.774667,8.04 140.84,8.05866648 140.88,8.096 C140.92,8.13333352 140.942667,8.19733288 140.948,8.288 L141.012,9.968 C141.268001,9.32266344 141.609331,8.81733516 142.036,8.452 C142.462669,8.08666484 142.987997,7.904 143.612,7.904 C143.852001,7.904 144.073332,7.92933308 144.276,7.98 C144.478668,8.03066692 144.670666,8.10399952 144.852,8.2 L144.748,8.728 C144.732,8.81333376 144.678667,8.856 144.588,8.856 C144.556,8.856 144.510667,8.84533344 144.452,8.824 C144.393333,8.80266656 144.32,8.7786668 144.232,8.752 C144.144,8.7253332 144.036001,8.70133344 143.908,8.68 C143.779999,8.65866656 143.633334,8.648 143.468,8.648 C142.86533,8.648 142.370669,8.8346648 141.984,9.208 C141.597331,9.5813352 141.284001,10.1199965 141.044,10.824 L141.044,16 L140.284,16 Z M148.372,18.56 C148.34,18.634667 148.298667,18.6959998 148.248,18.744 C148.197333,18.7920002 148.124,18.816 148.028,18.816 L147.484,18.816 L148.884,15.704 L145.516,8.04 L146.148,8.04 C146.228,8.04 146.290666,8.0599998 146.336,8.1 C146.381334,8.1400002 146.414667,8.18399976 146.436,8.232 L149.116,14.424 C149.148,14.5040004 149.176,14.5853329 149.2,14.668 C149.224,14.7506671 149.246667,14.8346662 149.268,14.92 C149.294667,14.8346662 149.322667,14.7506671 149.352,14.668 C149.381333,14.5853329 149.412,14.5040004 149.444,14.424 L152.092,8.232 C152.118667,8.17333304 152.156,8.12666684 152.204,8.092 C152.252,8.05733316 152.305333,8.04 152.364,8.04 L152.948,8.04 L148.372,18.56 Z M158.5,8.04 L158.5,16 L157.74,16 L157.74,8.04 L158.5,8.04 Z M158.836,5.296 C158.836,5.39200048 158.816,5.48133292 158.776,5.564 C158.736,5.64666708 158.684,5.71999968 158.62,5.784 C158.556,5.84800032 158.481334,5.89866648 158.396,5.936 C158.310666,5.97333352 158.22,5.992 158.124,5.992 C158.028,5.992 157.937334,5.97333352 157.852,5.936 C157.766666,5.89866648 157.692,5.84800032 157.628,5.784 C157.564,5.71999968 157.513334,5.64666708 157.476,5.564 C157.438666,5.48133292 157.42,5.39200048 157.42,5.296 C157.42,5.19999952 157.438666,5.10800044 157.476,5.02 C157.513334,4.93199956 157.564,4.85600032 157.628,4.792 C157.692,4.72799968 157.766666,4.67733352 157.852,4.64 C157.937334,4.60266648 158.028,4.584 158.124,4.584 C158.22,4.584 158.310666,4.60266648 158.396,4.64 C158.481334,4.67733352 158.556,4.72799968 158.62,4.792 C158.684,4.85600032 158.736,4.93199956 158.776,5.02 C158.816,5.10800044 158.836,5.19999952 158.836,5.296 Z M165.7,9.024 C165.662666,9.09866704 165.604,9.136 165.524,9.136 C165.465333,9.136 165.389334,9.102667 165.296,9.036 C165.202666,8.969333 165.080001,8.89466708 164.928,8.812 C164.775999,8.72933292 164.589334,8.654667 164.368,8.588 C164.146666,8.521333 163.876002,8.488 163.556,8.488 C163.267999,8.488 163.005335,8.52933292 162.768,8.612 C162.530665,8.69466708 162.328001,8.80533264 162.16,8.944 C161.991999,9.08266736 161.861334,9.24399908 161.768,9.428 C161.674666,9.61200092 161.628,9.80533232 161.628,10.008 C161.628,10.2586679 161.691999,10.4666658 161.82,10.632 C161.948001,10.7973342 162.115999,10.9386661 162.324,11.056 C162.532001,11.1733339 162.767999,11.2746662 163.032,11.36 C163.296001,11.4453338 163.566665,11.5306662 163.844,11.616 C164.121335,11.7013338 164.391999,11.7959995 164.656,11.9 C164.920001,12.0040005 165.155999,12.1333326 165.364,12.288 C165.572001,12.4426674 165.739999,12.6319989 165.868,12.856 C165.996001,13.0800011 166.06,13.3519984 166.06,13.672 C166.06,14.0186684 165.997334,14.3413318 165.872,14.64 C165.746666,14.9386682 165.565335,15.1973322 165.328,15.416 C165.090665,15.6346678 164.798668,15.8079994 164.452,15.936 C164.105332,16.0640006 163.710669,16.128 163.268,16.128 C162.707997,16.128 162.225335,16.0386676 161.82,15.86 C161.414665,15.6813324 161.052002,15.4480014 160.732,15.16 L160.916,14.888 C160.942667,14.8453331 160.972,14.8133334 161.004,14.792 C161.036,14.7706666 161.081333,14.76 161.14,14.76 C161.209334,14.76 161.294666,14.8026662 161.396,14.888 C161.497334,14.9733338 161.629333,15.0653328 161.792,15.164 C161.954667,15.2626672 162.157332,15.3546662 162.4,15.44 C162.642668,15.5253338 162.942665,15.568 163.3,15.568 C163.636002,15.568 163.931999,15.5213338 164.188,15.428 C164.444001,15.3346662 164.657332,15.2080008 164.828,15.048 C164.998668,14.8879992 165.128,14.7000011 165.216,14.484 C165.304,14.2679989 165.348,14.0400012 165.348,13.8 C165.348,13.533332 165.284001,13.3120009 165.156,13.136 C165.027999,12.9599991 164.860001,12.8106673 164.652,12.688 C164.443999,12.5653327 164.208001,12.4613338 163.944,12.376 C163.679999,12.2906662 163.408001,12.2053338 163.128,12.12 C162.847999,12.0346662 162.576001,11.9413338 162.312,11.84 C162.047999,11.7386662 161.812001,11.6106674 161.604,11.456 C161.395999,11.3013326 161.228001,11.1133344 161.1,10.892 C160.971999,10.6706656 160.908,10.3946683 160.908,10.064 C160.908,9.78133192 160.969333,9.50933464 161.092,9.248 C161.214667,8.98666536 161.389332,8.75733432 161.616,8.56 C161.842668,8.36266568 162.118665,8.20533392 162.444,8.088 C162.769335,7.97066608 163.134665,7.912 163.54,7.912 C164.025336,7.912 164.455998,7.98133264 164.832,8.12 C165.208002,8.25866736 165.553332,8.47199856 165.868,8.76 L165.7,9.024 Z M174.284,7.912 C174.732002,7.912 175.146665,7.98933256 175.528,8.144 C175.909335,8.29866744 176.239999,8.52399852 176.52,8.82 C176.800001,9.11600148 177.018666,9.47999784 177.176,9.912 C177.333334,10.3440022 177.412,10.8399972 177.412,11.4 C177.412,11.5173339 177.394667,11.5973331 177.36,11.64 C177.325333,11.6826669 177.270667,11.704 177.196,11.704 L171.444,11.704 L171.444,11.856 C171.444,12.4533363 171.513333,12.9786644 171.652,13.432 C171.790667,13.8853356 171.987999,14.2653318 172.244,14.572 C172.500001,14.8786682 172.809332,15.1093326 173.172,15.264 C173.534668,15.4186674 173.939998,15.496 174.388,15.496 C174.788002,15.496 175.134665,15.4520004 175.428,15.364 C175.721335,15.2759996 175.967999,15.1773339 176.168,15.068 C176.368001,14.9586661 176.526666,14.8600004 176.644,14.772 C176.761334,14.6839996 176.846666,14.64 176.9,14.64 C176.969334,14.64 177.022666,14.6666664 177.06,14.72 L177.268,14.976 C177.139999,15.1360008 176.970668,15.2853326 176.76,15.424 C176.549332,15.5626674 176.314668,15.6813328 176.056,15.78 C175.797332,15.8786672 175.520001,15.957333 175.224,16.016 C174.927999,16.074667 174.630668,16.104 174.332,16.104 C173.787997,16.104 173.292002,16.0093343 172.844,15.82 C172.395998,15.6306657 172.012002,15.3546685 171.692,14.992 C171.371998,14.6293315 171.125334,14.185336 170.952,13.66 C170.778666,13.134664 170.692,12.5333367 170.692,11.856 C170.692,11.2853305 170.773333,10.7586691 170.936,10.276 C171.098667,9.79333092 171.333332,9.37733508 171.64,9.028 C171.946668,8.67866492 172.322664,8.40533432 172.768,8.208 C173.213336,8.01066568 173.718664,7.912 174.284,7.912 Z M174.292,8.48 C173.881331,8.48 173.513335,8.54399936 173.188,8.672 C172.862665,8.80000064 172.581335,8.9839988 172.344,9.224 C172.106665,9.4640012 171.914667,9.75199832 171.768,10.088 C171.621333,10.4240017 171.524,10.7999979 171.476,11.216 L176.724,11.216 C176.724,10.7893312 176.665334,10.4066684 176.548,10.068 C176.430666,9.72933164 176.265334,9.44266784 176.052,9.208 C175.838666,8.97333216 175.582668,8.79333396 175.284,8.668 C174.985332,8.54266604 174.654668,8.48 174.292,8.48 Z M179.46,16 L179.46,8.04 L179.876,8.04 C180.014667,8.04 180.094667,8.106666 180.116,8.24 L180.188,9.392 C180.342667,9.17333224 180.507999,8.97333424 180.684,8.792 C180.860001,8.61066576 181.047999,8.45466732 181.248,8.324 C181.448001,8.19333268 181.661332,8.09200036 181.888,8.02 C182.114668,7.94799964 182.353332,7.912 182.604,7.912 C183.185336,7.912 183.649332,8.08133164 183.996,8.42 C184.342668,8.75866836 184.577333,9.22933032 184.7,9.832 C184.796,9.50133168 184.930666,9.2160012 185.104,8.976 C185.277334,8.7359988 185.475999,8.53733412 185.7,8.38 C185.924001,8.22266588 186.167999,8.10533372 186.432,8.028 C186.696001,7.95066628 186.966665,7.912 187.244,7.912 C187.638669,7.912 187.993332,7.97733268 188.308,8.108 C188.622668,8.23866732 188.890666,8.43199872 189.112,8.688 C189.333334,8.94400128 189.502666,9.2586648 189.62,9.632 C189.737334,10.0053352 189.796,10.4319976 189.796,10.912 L189.796,16 L189.028,16 L189.028,10.912 C189.028,10.1333294 188.860002,9.54000204 188.524,9.132 C188.187998,8.72399796 187.708003,8.52 187.084,8.52 C186.806665,8.52 186.541335,8.57066616 186.288,8.672 C186.034665,8.77333384 185.810668,8.923999 185.616,9.124 C185.421332,9.324001 185.266667,9.57333184 185.152,9.872 C185.037333,10.1706682 184.98,10.5173314 184.98,10.912 L184.98,16 L184.22,16 L184.22,10.912 C184.22,10.1386628 184.065335,9.54666872 183.756,9.136 C183.446665,8.72533128 182.996003,8.52 182.404,8.52 C181.971998,8.52 181.572002,8.64933204 181.204,8.908 C180.835998,9.16666796 180.508001,9.52533104 180.22,9.984 L180.22,16 L179.46,16 Z M192.188,18.816 L192.188,8.04 L192.604,8.04 C192.673334,8.04 192.729333,8.05466652 192.772,8.084 C192.814667,8.11333348 192.838667,8.16533296 192.844,8.24 L192.916,9.472 C193.268002,8.9919976 193.679998,8.61066808 194.152,8.328 C194.624002,8.04533192 195.15333,7.904 195.74,7.904 C196.721338,7.904 197.483997,8.24266328 198.028,8.92 C198.572003,9.59733672 198.844,10.6133266 198.844,11.968 C198.844,12.5493362 198.768001,13.0919975 198.616,13.596 C198.463999,14.1000025 198.241335,14.5373315 197.948,14.908 C197.654665,15.2786685 197.293335,15.5706656 196.864,15.784 C196.434665,15.9973344 195.940003,16.104 195.38,16.104 C194.835997,16.104 194.366669,16.0053343 193.972,15.808 C193.577331,15.6106657 193.236001,15.3173353 192.948,14.928 L192.948,18.816 L192.188,18.816 Z M195.524,8.52 C194.995997,8.52 194.517335,8.65733196 194.088,8.932 C193.658665,9.20666804 193.278668,9.58933088 192.948,10.08 L192.948,14.256 C193.252002,14.714669 193.589331,15.0373324 193.96,15.224 C194.330669,15.4106676 194.753331,15.504 195.228,15.504 C195.697336,15.504 196.107998,15.4186675 196.46,15.248 C196.812002,15.0773325 197.106665,14.8360016 197.344,14.524 C197.581335,14.2119984 197.759999,13.8386688 197.88,13.404 C198.000001,12.9693312 198.06,12.4906693 198.06,11.968 C198.06,10.7839941 197.842669,9.91333612 197.408,9.356 C196.973331,8.79866388 196.345337,8.52 195.524,8.52 Z M202.924,16.128 C202.385331,16.128 201.965335,15.9786682 201.664,15.68 C201.362665,15.3813318 201.212,14.9200031 201.212,14.296 L201.212,8.856 L200.068,8.856 C200.009333,8.856 199.961334,8.84000016 199.924,8.808 C199.886666,8.77599984 199.868,8.73066696 199.868,8.672 L199.868,8.376 L201.228,8.28 L201.42,5.432 C201.425333,5.38399976 201.445333,5.34133352 201.48,5.304 C201.514667,5.26666648 201.561333,5.248 201.62,5.248 L201.98,5.248 L201.98,8.288 L204.484,8.288 L204.484,8.856 L201.98,8.856 L201.98,14.256 C201.98,14.4746678 202.008,14.6626659 202.064,14.82 C202.12,14.9773341 202.197333,15.1066662 202.296,15.208 C202.394667,15.3093338 202.510666,15.3839998 202.644,15.432 C202.777334,15.4800002 202.921333,15.504 203.076,15.504 C203.268001,15.504 203.433333,15.4760003 203.572,15.42 C203.710667,15.3639997 203.830666,15.302667 203.932,15.236 C204.033334,15.169333 204.116,15.1080003 204.18,15.052 C204.244,14.9959997 204.294666,14.968 204.332,14.968 C204.374667,14.968 204.417333,14.9946664 204.46,15.048 L204.668,15.384 C204.465332,15.6080011 204.208002,15.7879993 203.896,15.924 C203.583998,16.0600007 203.260002,16.128 202.924,16.128 Z M208.188,18.56 C208.156,18.634667 208.114667,18.6959998 208.064,18.744 C208.013333,18.7920002 207.94,18.816 207.844,18.816 L207.3,18.816 L208.7,15.704 L205.332,8.04 L205.964,8.04 C206.044,8.04 206.106666,8.0599998 206.152,8.1 C206.197334,8.1400002 206.230667,8.18399976 206.252,8.232 L208.932,14.424 C208.964,14.5040004 208.992,14.5853329 209.016,14.668 C209.04,14.7506671 209.062667,14.8346662 209.084,14.92 C209.110667,14.8346662 209.138667,14.7506671 209.168,14.668 C209.197333,14.5853329 209.228,14.5040004 209.26,14.424 L211.908,8.232 C211.934667,8.17333304 211.972,8.12666684 212.02,8.092 C212.068,8.05733316 212.121333,8.04 212.18,8.04 L212.764,8.04 L208.188,18.56 Z" transform="translate(27 29)"/>
      </g>
      <g transform="translate(85)">
        <path fill="#EFF6FD" fill-rule="nonzero" d="M17.8271661,68.8157074 C13.7196785,69.316138 13.0532044,69.2830685 8.11366786,71.1907597 C-4.34032345,76.0005974 1.22848179,79.8839216 9.87903202,82.9023206 C15.1091342,84.7272375 21.0132441,86.546007 26.0309366,87.1790067 C30.2574319,87.712194 34.9063272,87.479117 39.4560048,87.8083259 C41.242562,87.9375989 43.538584,88.8943586 45.3425383,89.0018374 C56.6236791,89.6739628 67.6253173,88.9417338 77.8164743,86.6799838 C84.0041582,85.306735 95.5669554,82.5348187 96.7467752,78.0251492 C96.7479748,78.0205637 97.2390353,75.0276545 96.0912068,74.4647942 C92.3821613,72.6459905 88.4953271,70.9244346 84.3516444,69.4362745 C83.0333867,68.9628361 81.3720526,68.9077714 79.8822567,68.6435198 C71.6354473,68.0798528 65.4100351,67.6411964 61.2060203,67.3275504 C57.3842841,67.0424249 52.2312886,66.2085458 48.7135265,66.0499052 C42.4342777,65.7667298 32.1388242,66.6886639 17.8271661,68.8157074 Z"/>
        <g transform="translate(13)">
          <rect width="42" height="8" x="18" y="15" fill="#D1E2F1" stroke="#81BFF1" stroke-width="1.25"/>
          <path fill="#D1E2F1" stroke="#81BFF1" stroke-width="1.25" d="M14,25.0364749 C20.7681021,26.3812466 25.3924991,29.1694163 27.8731909,33.4009839 C31.5942287,39.7483352 30.2069096,45.6608675 33.4217336,49.6188734 C35.5649496,52.2575439 38.8118094,54.7179195 43.162313,57 L47,49.6188734 C42.1559992,51.2463255 38.6242413,50.1847141 36.4047264,46.4340392 C33.0754541,40.8080269 35.5316912,37.5720799 32.569974,33.4009839 C30.5954959,30.6202532 26.3995465,26.4865919 19.9821258,21 L14,25.0364749 Z"/>
          <g stroke="#81BFF1" stroke-width="1.25" transform="translate(39 46)">
            <path fill="#EEF5FB" d="M12.4880197,23 C16.2067205,23 18.6401495,22.2345355 21.1132994,19.7392118 C21.9182803,18.9270136 23.8747104,17.0587774 24.3734135,16.1209574 C25.1842016,14.5962555 24.9760395,13.312158 24.9760395,11.5 C24.9760395,7.916499 23.0188552,5.05981533 20.2287948,2.95074507 C18.0738476,1.32177132 15.493586,0 12.4880197,0 C7.42109352,0 3.09026182,2.24998789 1.13213055,6.24308933 C0.424914251,7.68527376 0,9.81476953 0,11.5 C0,13.4987441 0.33379789,15.2354244 1.13213055,16.798336 C1.95695795,18.413117 3.27448099,19.8377134 5.03040852,20.8771411 C6.97542087,22.0284984 10.0040409,23 12.4880197,23 Z"/>
            <path fill="#FFFFFF" d="M12.9558635,18.4 C15.1595381,18.4 16.6015701,17.9407213 18.0671404,16.4435271 C18.5441661,15.9562081 19.7035321,14.8352665 19.9990598,14.2725744 C20.4795269,13.3577533 20.3561715,12.5872948 20.3561715,11.5 C20.3561715,9.3498994 19.1963586,7.6358892 17.5429895,6.37044704 C16.2659838,5.39306279 14.7369398,4.6 12.9558635,4.6 C9.9532406,4.6 7.38682182,5.94999273 6.22644773,8.3458536 C5.80735659,9.21116426 5.55555556,10.4888617 5.55555556,11.5 C5.55555556,12.6992465 5.75336171,13.7412546 6.22644773,14.6790016 C6.71523434,15.6478702 7.49598873,16.502628 8.53653838,17.1262847 C9.68913829,17.817099 11.4838761,18.4 12.9558635,18.4 Z"/>
          </g>
          <g transform="rotate(-59 43.802 -29.571)">
            <path fill="#EEF5FB" stroke="#81BFF1" stroke-width="1.25" d="M12.5357143,25 C16.2686176,25 18.7113404,24.1679734 21.1939358,21.455665 C22.0019912,20.5728408 23.9658933,18.5421494 24.466501,17.5227798 C25.2803857,15.8654952 25.0714286,14.469737 25.0714286,12.5 C25.0714286,8.60489022 23.1067693,5.49979927 20.3060531,3.20733159 C18.1428757,1.43670796 15.5527594,0 12.5357143,0 C7.44943634,0 3.10206423,2.44563901 1.13645441,6.78596667 C0.426537094,8.35355844 0,10.6682278 0,12.5 C0,14.672548 0.335072739,16.5602439 1.13645441,18.2590609 C1.96443202,20.0142576 3.28698697,21.5627319 5.04962078,22.6925447 C7.00206157,23.94402 10.0422486,25 12.5357143,25 Z"/>
            <path fill="#FFFFFF" stroke="#81BFF1" stroke-width="1.25" d="M12.5406138,19.9074074 C14.7527046,19.9074074 16.2002441,19.4143546 17.6714117,17.8070608 C18.1502593,17.2839057 19.3140532,16.080533 19.6107096,15.4764621 C20.0930117,14.4943675 19.9691852,13.6672515 19.9691852,12.5 C19.9691852,10.1917868 18.8049427,8.3517329 17.145259,6.99323354 C15.8633761,5.94397509 14.3284924,5.09259259 12.5406138,5.09259259 C9.52652314,5.09259259 6.95030263,6.54186015 5.78549681,9.11390617 C5.36480507,10.0428494 5.11204235,11.4145053 5.11204235,12.5 C5.11204235,13.7874358 5.31060397,14.9060704 5.78549681,15.9127768 C6.27615021,16.9528934 7.05988648,17.8705078 8.10441022,18.5400265 C9.26141217,19.2816415 11.0630045,19.9074074 12.5406138,19.9074074 Z"/>
            <path fill="#81BFF1" d="M12.5444053,15.9664539 C13.5796003,15.9664539 14.2570072,15.7357194 14.9454714,14.983552 C15.1695583,14.7387305 15.7141804,14.1755866 15.8530071,13.8928988 C16.0787106,13.4333067 16.0207634,13.0462402 16.0207634,12.5 C16.0207634,11.4198225 15.4759313,10.5587301 14.699247,9.92299144 C14.0993626,9.43196861 13.3810811,9.03354606 12.5444053,9.03354606 C11.1338974,9.03354606 9.92830022,9.71176165 9.38320455,10.9154053 C9.18633289,11.3501241 9.0680472,11.9920197 9.0680472,12.5 C9.0680472,13.102483 9.16096834,13.6259719 9.38320455,14.0970816 C9.61281625,14.5838262 9.97958231,15.0132434 10.4683894,15.3265589 C11.0098331,15.6736134 11.8529266,15.9664539 12.5444053,15.9664539 Z"/>
          </g>
          <g stroke="#81BFF1" stroke-width="1.25" transform="translate(0 7)">
            <path fill="#EEF5FB" d="M12.4880197,23 C16.2067205,23 18.6401495,22.2345355 21.1132994,19.7392118 C21.9182803,18.9270136 23.8747104,17.0587774 24.3734135,16.1209574 C25.1842016,14.5962555 24.9760395,13.312158 24.9760395,11.5 C24.9760395,7.916499 23.0188552,5.05981533 20.2287948,2.95074507 C18.0738476,1.32177132 15.493586,0 12.4880197,0 C7.42109352,0 3.09026182,2.24998789 1.13213055,6.24308933 C0.424914251,7.68527376 0,9.81476953 0,11.5 C0,13.4987441 0.33379789,15.2354244 1.13213055,16.798336 C1.95695795,18.413117 3.27448099,19.8377134 5.03040852,20.8771411 C6.97542087,22.0284984 10.0040409,23 12.4880197,23 Z"/>
            <path fill="#FFFFFF" d="M12.9558635,18.4 C15.1595381,18.4 16.6015701,17.9407213 18.0671404,16.4435271 C18.5441661,15.9562081 19.7035321,14.8352665 19.9990598,14.2725744 C20.4795269,13.3577533 20.3561715,12.5872948 20.3561715,11.5 C20.3561715,9.3498994 19.1963586,7.6358892 17.5429895,6.37044704 C16.2659838,5.39306279 14.7369398,4.6 12.9558635,4.6 C9.9532406,4.6 7.38682182,5.94999273 6.22644773,8.3458536 C5.80735659,9.21116426 5.55555556,10.4888617 5.55555556,11.5 C5.55555556,12.6992465 5.75336171,13.7412546 6.22644773,14.6790016 C6.71523434,15.6478702 7.49598873,16.502628 8.53653838,17.1262847 C9.68913829,17.817099 11.4838761,18.4 12.9558635,18.4 Z"/>
          </g>
        </g>
        <g transform="translate(0 35)">
          <g fill-rule="nonzero">
            <use fill="#FFFFFF" fill-rule="evenodd" xlink:href="#a"/>
            <path stroke="#81BFF1" stroke-width="1.125" d="M8.54770161,10.7136168 C9.10893859,7.31007778 10.369868,4.42091604 12.3942077,2.60236234 C14.6896611,0.52527779 19.2864184,-0.5625 23.7705425,-0.5625 C25.5285552,-0.5625 26.9667593,-0.0284911815 28.9791963,1.16183671 C29.1577566,1.2674526 29.3417736,1.37828135 29.5752691,1.52038657 C29.6554626,1.56919232 30.056673,1.81411595 30.1696791,1.88281413 C30.3302482,1.98042668 30.4676004,2.06330602 30.597196,2.14064586 C32.3043772,3.1481466 33.1294442,4.0104629 34.3113444,5.93594019 C34.5769764,5.86237506 34.847779,5.79700804 35.127411,5.73899268 C35.8741037,5.59918638 38.0531251,5.39077187 38.7737779,5.39077187 C40.6210748,5.39077187 41.8880277,5.87180272 43.2402216,6.96667393 C43.7048952,7.34292007 43.8258998,7.45514962 45.0282935,8.59835256 C47.2013005,10.7052115 48.5625,13.5280473 48.5625,16.2464238 C48.5625,16.865463 48.4241993,17.4100296 48.1350177,18.1251916 C48.1015958,18.2078458 48.0660915,18.2932799 48.0224381,18.3965689 C47.9657038,18.5302857 47.9657038,18.5302857 47.9094105,18.662618 C47.7043554,19.1458978 47.595889,19.4327861 47.5062612,19.7568194 C46.8527271,22.1195539 46.3938875,23.1988919 45.3036952,24.2840436 C43.8529662,25.728065 42.5483542,26.1055594 39.5989562,26.3658267 C38.9955326,26.4190753 38.742932,26.4433156 38.418891,26.4821919 C38.0556013,26.5257769 37.7325587,26.5755067 37.3714221,26.6450428 C31.1723801,27.2565306 26.5385061,27.5625 23.4625587,27.5625 C20.0300133,27.5625 14.9345053,27.2566976 8.08684566,26.6316567 C5.73403743,26.0562478 4.01026774,25.1012437 2.42078911,23.5751257 C0.339607743,21.5769055 -0.5625,20.2099482 -0.5625,18.3117456 C-0.5625,16.2991341 0.386359078,14.4804294 2.08845837,12.8461801 C2.91016787,12.057226 3.84754377,11.559963 4.98350326,11.2797996 C5.22584083,11.2200315 5.42127745,11.2233518 5.92947891,11.2613104 L5.9412596,11.2621901 C6.28135238,11.2875759 6.43324411,11.2909341 6.52498325,11.273417 C6.63893143,11.2516592 6.75928292,11.2022291 7.08666622,11.0477218 C7.17605619,11.0055858 7.21655468,10.9867063 7.27007687,10.9624792 C7.64411583,10.7931679 7.92006364,10.7080701 8.22140969,10.7080701 C8.33184934,10.7080701 8.43506459,10.709731 8.54770161,10.7136168 Z"/>
          </g>
          <path fill="#EEF5FB" d="M7.27427897,25.2475547 C16.4521141,26.6310051 22.2176236,27.1953422 24.5708073,26.940566 C28.1005829,26.5584016 39.9172027,25.6944645 41.7665149,25.2475547 C43.615827,24.8006449 45.3817614,24.2863333 45.656315,23.2235114 C45.9308686,22.1606894 46.6920833,20.4560571 46.9223316,19.7495013 C47.1525798,19.0429455 47.9033287,17.0803274 47.9957769,16.331272 C48.088225,15.5822166 46.6373122,12.3914265 46.1468136,12.0212152 C45.656315,11.6510039 45.5530522,16.226966 43.9817822,17.8635817 C42.4105123,19.5001974 34.7819688,21.3887241 31.4517417,22.3061177 C28.1215146,23.2235114 10.5354316,22.3061177 10.2563428,22.3061177 C9.97725399,22.3061177 4.75654913,21.2148896 3.82857887,20.3574448 C3.20993204,19.7858149 2.26917021,18.6786119 1.00629339,17.0358356 C0.940242371,19.3423242 1.39411053,21.0990849 2.36789787,22.3061177 C3.34168521,23.5131505 4.97714557,24.4936295 7.27427897,25.2475547 Z"/>
        </g>
      </g>
    </g>
  </g>
</svg>
