<svg xmlns="http://www.w3.org/2000/svg" width="308" height="240" viewBox="0 0 308 240">
  <g fill="none" fill-rule="evenodd">
    <rect width="308" height="241"/>
    <g transform="translate(0 5)">
      <path fill="#FFFFFF" d="M55.3808587,22 L53.36914,22 L46.1621087,10.8378906 C45.9798162,10.5579413 45.8300781,10.2649755 45.71289,9.95898438 L45.6542962,9.95898438 C45.7063798,10.258465 45.7324212,10.8997347 45.7324212,11.8828125 L45.7324212,22 L44.0917962,22 L44.0917962,7.99609375 L46.2207025,7.99609375 L53.2324212,18.9824219 C53.5253915,19.4381533 53.7141917,19.7506502 53.7988275,19.9199219 L53.83789,19.9199219 C53.7727855,19.516274 53.7402337,18.8294319 53.7402337,17.859375 L53.7402337,7.99609375 L55.3808587,7.99609375 L55.3808587,22 Z M63.5175776,22.234375 C62.0397056,22.234375 60.8597044,21.7672573 59.9775385,20.8330078 C59.0953726,19.8987583 58.6542963,18.660164 58.6542963,17.1171875 C58.6542963,15.4374916 59.1132761,14.1256558 60.0312494,13.1816406 C60.9492228,12.2376255 62.1894447,11.765625 63.7519526,11.765625 C65.2428454,11.765625 66.4065708,12.2246048 67.2431635,13.1425781 C68.0797562,14.0605515 68.4980463,15.3333252 68.4980463,16.9609375 C68.4980463,18.5559976 68.0472045,19.8336541 67.1455072,20.7939453 C66.24381,21.7542366 65.0345122,22.234375 63.5175776,22.234375 Z M63.6347651,13.1132812 C62.6061141,13.1132812 61.7923201,13.4632126 61.1933588,14.1630859 C60.5943975,14.8629592 60.2949213,15.8281188 60.2949213,17.0585938 C60.2949213,18.2434955 60.5976527,19.177731 61.2031244,19.8613281 C61.8085962,20.5449253 62.619135,20.8867188 63.6347651,20.8867188 C64.6699265,20.8867188 65.465817,20.5514356 66.0224604,19.8808594 C66.5791038,19.2102831 66.8574213,18.2565166 66.8574213,17.0195312 C66.8574213,15.769525 66.5791038,14.805993 66.0224604,14.1289062 C65.465817,13.4518195 64.6699265,13.1132812 63.6347651,13.1132812 Z M84.3515621,21.5410156 C83.583329,22.0032575 82.6718798,22.234375 81.6171871,22.234375 C80.1913987,22.234375 79.040694,21.7705125 78.1650386,20.8427734 C77.2893832,19.9150344 76.8515621,18.712247 76.8515621,17.234375 C76.8515621,15.5872313 77.3235625,14.2640024 78.2675777,13.2646484 C79.2115928,12.2652945 80.4713458,11.765625 82.0468746,11.765625 C82.9257852,11.765625 83.700517,11.9283838 84.3710933,12.2539062 L84.3710933,13.8945312 C83.6289021,13.3736953 82.8346392,13.1132812 81.9882808,13.1132812 C80.9661403,13.1132812 80.1279325,13.4794885 79.4736324,14.2119141 C78.8193322,14.9443396 78.4921871,15.906244 78.4921871,17.0976562 C78.4921871,18.2695371 78.7998012,19.194007 79.4150386,19.8710938 C80.0302761,20.5481805 80.8554631,20.8867188 81.8906246,20.8867188 C82.7630247,20.8867188 83.583329,20.5970081 84.3515621,20.0175781 L84.3515621,21.5410156 Z M91.4531246,22.234375 C89.9752526,22.234375 88.7952514,21.7672573 87.9130856,20.8330078 C87.0309197,19.8987583 86.5898434,18.660164 86.5898434,17.1171875 C86.5898434,15.4374916 87.0488231,14.1256558 87.9667965,13.1816406 C88.8847698,12.2376255 90.1249918,11.765625 91.6874996,11.765625 C93.1783925,11.765625 94.3421178,12.2246048 95.1787106,13.1425781 C96.0153033,14.0605515 96.4335934,15.3333252 96.4335934,16.9609375 C96.4335934,18.5559976 95.9827515,19.8336541 95.0810543,20.7939453 C94.1793571,21.7542366 92.9700593,22.234375 91.4531246,22.234375 Z M91.5703121,13.1132812 C90.5416611,13.1132812 89.7278672,13.4632126 89.1289059,14.1630859 C88.5299445,14.8629592 88.2304684,15.8281188 88.2304684,17.0585938 C88.2304684,18.2434955 88.5331997,19.177731 89.1386715,19.8613281 C89.7441433,20.5449253 90.554682,20.8867188 91.5703121,20.8867188 C92.6054735,20.8867188 93.401364,20.5514356 93.9580074,19.8808594 C94.5146508,19.2102831 94.7929684,18.2565166 94.7929684,17.0195312 C94.7929684,15.769525 94.5146508,14.805993 93.9580074,14.1289062 C93.401364,13.4518195 92.6054735,13.1132812 91.5703121,13.1132812 Z M113.691406,22 L112.089843,22 L112.089843,16.2578125 C112.089843,15.1510361 111.918947,14.3502629 111.577148,13.8554688 C111.23535,13.3606746 110.660811,13.1132812 109.853515,13.1132812 C109.169918,13.1132812 108.588869,13.4257781 108.110351,14.0507812 C107.631833,14.6757844 107.392578,15.4244748 107.392578,16.296875 L107.392578,22 L105.791015,22 L105.791015,16.0625 C105.791015,14.0963443 105.032559,13.1132812 103.515625,13.1132812 C102.812496,13.1132812 102.233075,13.4078747 101.777343,13.9970703 C101.321612,14.586266 101.09375,15.3528599 101.09375,16.296875 L101.09375,22 L99.4921872,22 L99.4921872,12 L101.09375,12 L101.09375,13.5820312 L101.132812,13.5820312 C101.842451,12.3710877 102.877597,11.765625 104.238281,11.765625 C104.921878,11.765625 105.517575,11.9560528 106.02539,12.3369141 C106.533205,12.7177753 106.881509,13.2174448 107.070312,13.8359375 C107.812503,12.4557223 108.919263,11.765625 110.390625,11.765625 C112.591157,11.765625 113.691406,13.1230333 113.691406,15.8378906 L113.691406,22 Z M131.417968,22 L129.816406,22 L129.816406,16.2578125 C129.816406,15.1510361 129.645509,14.3502629 129.303711,13.8554688 C128.961912,13.3606746 128.387374,13.1132812 127.580078,13.1132812 C126.896481,13.1132812 126.315432,13.4257781 125.836914,14.0507812 C125.358396,14.6757844 125.11914,15.4244748 125.11914,16.296875 L125.11914,22 L123.517578,22 L123.517578,16.0625 C123.517578,14.0963443 122.759122,13.1132812 121.242187,13.1132812 C120.539059,13.1132812 119.959637,13.4078747 119.503906,13.9970703 C119.048175,14.586266 118.820312,15.3528599 118.820312,16.296875 L118.820312,22 L117.21875,22 L117.21875,12 L118.820312,12 L118.820312,13.5820312 L118.859375,13.5820312 C119.569014,12.3710877 120.60416,11.765625 121.964843,11.765625 C122.648441,11.765625 123.244138,11.9560528 123.751953,12.3369141 C124.259768,12.7177753 124.608072,13.2174448 124.796875,13.8359375 C125.539066,12.4557223 126.645826,11.765625 128.117187,11.765625 C130.317719,11.765625 131.417968,13.1230333 131.417968,15.8378906 L131.417968,22 Z M135.765625,9.4609375 C135.479165,9.4609375 135.235027,9.36328223 135.033203,9.16796875 C134.831379,8.97265527 134.730469,8.72526191 134.730469,8.42578125 C134.730469,8.12630059 134.831379,7.87727964 135.033203,7.67871094 C135.235027,7.48014224 135.479165,7.38085938 135.765625,7.38085938 C136.058595,7.38085938 136.307616,7.48014224 136.512695,7.67871094 C136.717774,7.87727964 136.820312,8.12630059 136.820312,8.42578125 C136.820312,8.71224102 136.717774,8.9563792 136.512695,9.15820312 C136.307616,9.36002705 136.058595,9.4609375 135.765625,9.4609375 Z M136.546875,22 L134.945312,22 L134.945312,12 L136.546875,12 L136.546875,22 Z M144.927734,21.9023438 C144.550128,22.1106781 144.052086,22.2148438 143.433594,22.2148438 C141.682283,22.2148438 140.80664,21.238291 140.80664,19.2851562 L140.80664,13.3671875 L139.08789,13.3671875 L139.08789,12 L140.80664,12 L140.80664,9.55859375 L142.408203,9.04101562 L142.408203,12 L144.927734,12 L144.927734,13.3671875 L142.408203,13.3671875 L142.408203,19.0019531 C142.408203,19.6725294 142.522134,20.1510402 142.75,20.4375 C142.977866,20.7239598 143.355466,20.8671875 143.882812,20.8671875 C144.28646,20.8671875 144.634764,20.7565115 144.927734,20.5351562 L144.927734,21.9023438 Z M146.960937,21.6386719 L146.960937,19.9199219 C147.833338,20.5644563 148.793614,20.8867188 149.841797,20.8867188 C151.248054,20.8867188 151.951172,20.4179734 151.951172,19.4804688 C151.951172,19.2135403 151.890951,18.9873056 151.770508,18.8017578 C151.650064,18.61621 151.487306,18.4518236 151.282226,18.3085938 C151.077147,18.1653639 150.836264,18.0367844 150.55957,17.9228516 C150.282876,17.8089187 149.985028,17.6901048 149.666016,17.5664062 C149.223305,17.3906241 148.834311,17.213217 148.499023,17.0341797 C148.163735,16.8551423 147.88379,16.6533214 147.65918,16.4287109 C147.434569,16.2041004 147.2653,15.9485691 147.151367,15.6621094 C147.037434,15.3756496 146.980469,15.0403665 146.980469,14.65625 C146.980469,14.1874977 147.087889,13.7724627 147.302734,13.4111328 C147.517579,13.0498029 147.804035,12.7470715 148.162109,12.5029297 C148.520184,12.2587878 148.928709,12.0748704 149.387695,11.9511719 C149.846682,11.8274733 150.32031,11.765625 150.808594,11.765625 C151.674483,11.765625 152.449215,11.9153631 153.132812,12.2148438 L153.132812,13.8359375 C152.397132,13.3541643 151.550786,13.1132812 150.59375,13.1132812 C150.294269,13.1132812 150.02409,13.1474606 149.783203,13.2158203 C149.542316,13.28418 149.335613,13.3802077 149.163086,13.5039062 C148.990559,13.6276048 148.857097,13.7757153 148.762695,13.9482422 C148.668294,14.1207691 148.621094,14.3111969 148.621094,14.5195312 C148.621094,14.7799492 148.668294,14.998046 148.762695,15.1738281 C148.857097,15.3496103 148.995442,15.5058587 149.177734,15.6425781 C149.360027,15.7792976 149.581379,15.9029942 149.841797,16.0136719 C150.102215,16.1243495 150.398436,16.244791 150.730469,16.375 C151.173179,16.5442717 151.570311,16.7184236 151.921875,16.8974609 C152.273439,17.0764983 152.572915,17.2783192 152.820312,17.5029297 C153.067709,17.7275402 153.258137,17.9863267 153.391601,18.2792969 C153.525066,18.5722671 153.591797,18.9205709 153.591797,19.3242188 C153.591797,19.8190129 153.482748,20.2486961 153.264648,20.6132812 C153.046548,20.9778664 152.75521,21.2805978 152.390625,21.5214844 C152.02604,21.762371 151.606122,21.9414057 151.130859,22.0585938 C150.655596,22.1757818 150.157555,22.234375 149.636719,22.234375 C148.608068,22.234375 147.71615,22.0358093 146.960937,21.6386719 Z M175.128906,12 L172.130859,22 L170.470703,22 L168.410156,14.8417969 C168.332031,14.568358 168.279948,14.2591163 168.253906,13.9140625 L168.214844,13.9140625 C168.195312,14.1484387 168.126954,14.45117 168.009766,14.8222656 L165.773438,22 L164.171875,22 L161.144531,12 L162.824219,12 L164.894531,19.5195312 C164.959636,19.747397 165.005208,20.0468731 165.03125,20.4179688 L165.109375,20.4179688 C165.128906,20.131509 165.1875,19.8255225 165.285156,19.5 L167.589844,12 L169.054688,12 L171.125,19.5390625 C171.190105,19.7799491 171.238932,20.0794253 171.271484,20.4375 L171.349609,20.4375 C171.36263,20.1835925 171.417968,19.8841163 171.515625,19.5390625 L173.546875,12 L175.128906,12 Z M185.423828,17.4003906 L178.363281,17.4003906 C178.389323,18.5136774 178.688799,19.3730438 179.261719,19.9785156 C179.834638,20.5839874 180.622391,20.8867188 181.625,20.8867188 C182.751308,20.8867188 183.786454,20.5156287 184.730469,19.7734375 L184.730469,21.2773438 C183.851558,21.9153678 182.68946,22.234375 181.244141,22.234375 C179.831373,22.234375 178.721358,21.780278 177.914063,20.8720703 C177.106767,19.9638626 176.703125,18.6862062 176.703125,17.0390625 C176.703125,15.4830651 177.144201,14.2151742 178.026367,13.2353516 C178.908533,12.255529 180.0039,11.765625 181.3125,11.765625 C182.6211,11.765625 183.63346,12.1887979 184.349609,13.0351562 C185.065759,13.8815146 185.423828,15.0566331 185.423828,16.5605469 L185.423828,17.4003906 Z M183.783203,16.0429688 C183.776693,15.118485 183.553713,14.3990911 183.114258,13.8847656 C182.674803,13.3704401 182.064457,13.1132812 181.283203,13.1132812 C180.527991,13.1132812 179.886721,13.3834608 179.359375,13.9238281 C178.832029,14.4641954 178.506511,15.1705686 178.382813,16.0429688 L183.783203,16.0429688 Z M193.560547,13.6210938 C193.280598,13.4062489 192.876956,13.2988281 192.34961,13.2988281 C191.666012,13.2988281 191.094729,13.6210905 190.635742,14.265625 C190.176756,14.9101595 189.947266,15.7890569 189.947266,16.9023438 L189.947266,22 L188.345703,22 L188.345703,12 L189.947266,12 L189.947266,14.0605469 L189.986328,14.0605469 C190.214194,13.3574184 190.562498,12.8089212 191.03125,12.4150391 C191.500002,12.0211569 192.024086,11.8242188 192.603516,11.8242188 C193.020185,11.8242188 193.339192,11.8697912 193.560547,11.9609375 L193.560547,13.6210938 Z M203.572266,17.4003906 L196.511719,17.4003906 C196.537761,18.5136774 196.837237,19.3730438 197.410156,19.9785156 C197.983076,20.5839874 198.770829,20.8867188 199.773438,20.8867188 C200.899745,20.8867188 201.934891,20.5156287 202.878906,19.7734375 L202.878906,21.2773438 C201.999996,21.9153678 200.837898,22.234375 199.392578,22.234375 C197.979811,22.234375 196.869796,21.780278 196.0625,20.8720703 C195.255205,19.9638626 194.851563,18.6862062 194.851563,17.0390625 C194.851563,15.4830651 195.292639,14.2151742 196.174805,13.2353516 C197.056971,12.255529 198.152337,11.765625 199.460938,11.765625 C200.769538,11.765625 201.781898,12.1887979 202.498047,13.0351562 C203.214196,13.8815146 203.572266,15.0566331 203.572266,16.5605469 L203.572266,17.4003906 Z M201.931641,16.0429688 C201.92513,15.118485 201.702151,14.3990911 201.262696,13.8847656 C200.82324,13.3704401 200.212895,13.1132812 199.431641,13.1132812 C198.676429,13.1132812 198.035159,13.3834608 197.507813,13.9238281 C196.980466,14.4641954 196.654949,15.1705686 196.53125,16.0429688 L201.931641,16.0429688 Z M217.414063,8.6015625 C217.101561,8.42578037 216.746747,8.33789062 216.34961,8.33789062 C215.229812,8.33789062 214.669922,9.04426377 214.669922,10.4570312 L214.669922,12 L217.013672,12 L217.013672,13.3671875 L214.669922,13.3671875 L214.669922,22 L213.078125,22 L213.078125,13.3671875 L211.369141,13.3671875 L211.369141,12 L213.078125,12 L213.078125,10.3789062 C213.078125,9.33072393 213.380857,8.50228169 213.986328,7.89355469 C214.5918,7.28482769 215.347001,6.98046875 216.251953,6.98046875 C216.740237,6.98046875 217.127603,7.03906191 217.414063,7.15625 L217.414063,8.6015625 Z M223.41211,22.234375 C221.934238,22.234375 220.754237,21.7672573 219.872071,20.8330078 C218.989905,19.8987583 218.548829,18.660164 218.548829,17.1171875 C218.548829,15.4374916 219.007808,14.1256558 219.925782,13.1816406 C220.843755,12.2376255 222.083977,11.765625 223.646485,11.765625 C225.137378,11.765625 226.301103,12.2246048 227.137696,13.1425781 C227.974288,14.0605515 228.392579,15.3333252 228.392579,16.9609375 C228.392579,18.5559976 227.941737,19.8336541 227.040039,20.7939453 C226.138342,21.7542366 224.929044,22.234375 223.41211,22.234375 Z M223.529297,13.1132812 C222.500646,13.1132812 221.686852,13.4632126 221.087891,14.1630859 C220.48893,14.8629592 220.189454,15.8281188 220.189454,17.0585938 C220.189454,18.2434955 220.492185,19.177731 221.097657,19.8613281 C221.703128,20.5449253 222.513667,20.8867188 223.529297,20.8867188 C224.564459,20.8867188 225.360349,20.5514356 225.916993,19.8808594 C226.473636,19.2102831 226.751954,18.2565166 226.751954,17.0195312 C226.751954,15.769525 226.473636,14.805993 225.916993,14.1289062 C225.360349,13.4518195 224.564459,13.1132812 223.529297,13.1132812 Z M239.53711,22 L237.935547,22 L237.935547,20.4179688 L237.896485,20.4179688 C237.232419,21.6289123 236.203783,22.234375 234.810547,22.234375 C232.427723,22.234375 231.236329,20.8151184 231.236329,17.9765625 L231.236329,12 L232.828125,12 L232.828125,17.7226562 C232.828125,19.8320418 233.635409,20.8867188 235.25,20.8867188 C236.031254,20.8867188 236.674152,20.5986357 237.178711,20.0224609 C237.683271,19.4462862 237.935547,18.692713 237.935547,17.7617188 L237.935547,12 L239.53711,12 L239.53711,22 Z M251.570313,22 L249.968751,22 L249.968751,16.296875 C249.968751,14.1744686 249.194019,13.1132812 247.644532,13.1132812 C246.843747,13.1132812 246.181318,13.414385 245.657227,14.0166016 C245.133136,14.6188181 244.871094,15.3789017 244.871094,16.296875 L244.871094,22 L243.269532,22 L243.269532,12 L244.871094,12 L244.871094,13.6601562 L244.910157,13.6601562 C245.665369,12.3971291 246.759108,11.765625 248.191407,11.765625 C249.285162,11.765625 250.121742,12.1188116 250.701172,12.8251953 C251.280602,13.5315791 251.570313,14.5520767 251.570313,15.8867188 L251.570313,22 Z M263.623047,22 L262.021485,22 L262.021485,20.3007812 L261.982422,20.3007812 C261.240231,21.5898502 260.094409,22.234375 258.544922,22.234375 C257.288406,22.234375 256.284184,21.7867883 255.532227,20.8916016 C254.78027,19.9964148 254.404297,18.7773515 254.404297,17.234375 C254.404297,15.5807209 254.82096,14.2558644 255.654297,13.2597656 C256.487635,12.2636669 257.59765,11.765625 258.984376,11.765625 C260.35808,11.765625 261.357419,12.3059842 261.982422,13.3867188 L262.021485,13.3867188 L262.021485,7.1953125 L263.623047,7.1953125 L263.623047,22 Z M262.021485,17.4785156 L262.021485,16.0039062 C262.021485,15.1966105 261.754561,14.5130236 261.220704,13.953125 C260.686847,13.3932264 260.00977,13.1132812 259.189454,13.1132812 C258.212886,13.1132812 257.444665,13.4713506 256.884766,14.1875 C256.324868,14.9036494 256.044922,15.8932229 256.044922,17.15625 C256.044922,18.3085995 256.313474,19.2184211 256.850587,19.8857422 C257.387699,20.5530632 258.10872,20.8867188 259.013672,20.8867188 C259.905604,20.8867188 260.629881,20.5644563 261.186524,19.9199219 C261.743167,19.2753874 262.021485,18.4615935 262.021485,17.4785156 Z M13.0009756,49 L11.3994131,49 L11.3994131,47.4375 L11.3603506,47.4375 C10.6637325,48.6354227 9.63835214,49.234375 8.2841787,49.234375 C7.28807997,49.234375 6.50846537,48.9707058 5.94531152,48.4433594 C5.38215766,47.916013 5.10058495,47.2161502 5.10058495,46.34375 C5.10058495,44.4752511 6.20083437,43.3880224 8.4013662,43.0820312 L11.3994131,42.6621094 C11.3994131,40.9628821 10.712571,40.1132812 9.3388662,40.1132812 C8.1344331,40.1132812 7.04720439,40.5234334 6.07714745,41.34375 L6.07714745,39.703125 C7.06022529,39.0781219 8.19302646,38.765625 9.47558495,38.765625 C11.8258571,38.765625 13.0009756,40.0091021 13.0009756,42.4960938 L13.0009756,49 Z M11.3994131,43.9414062 L8.9873037,44.2734375 C8.24511249,44.3776047 7.68522226,44.5615221 7.3076162,44.8251953 C6.93001015,45.0888685 6.74120995,45.5559862 6.74120995,46.2265625 C6.74120995,46.7148462 6.91536186,47.1136052 7.26367089,47.4228516 C7.61197992,47.7320979 8.07584247,47.8867188 8.65527245,47.8867188 C9.44954726,47.8867188 10.1054652,47.6084012 10.6230459,47.0517578 C11.1406266,46.4951144 11.3994131,45.7903688 11.3994131,44.9375 L11.3994131,43.9414062 Z M23.33496,48.5410156 C22.566727,49.0032575 21.6552778,49.234375 20.600585,49.234375 C19.1747966,49.234375 18.024092,48.7705125 17.1484366,47.8427734 C16.2727812,46.9150344 15.83496,45.712247 15.83496,44.234375 C15.83496,42.5872313 16.3069605,41.2640024 17.2509756,40.2646484 C18.1949908,39.2652945 19.4547438,38.765625 21.0302725,38.765625 C21.9091832,38.765625 22.683915,38.9283838 23.3544913,39.2539062 L23.3544913,40.8945312 C22.6123001,40.3736953 21.8180372,40.1132812 20.9716788,40.1132812 C19.9495382,40.1132812 19.1113305,40.4794885 18.4570303,41.2119141 C17.8027302,41.9443396 17.475585,42.906244 17.475585,44.0976562 C17.475585,45.2695371 17.7831991,46.194007 18.3984366,46.8710938 C19.013674,47.5481805 19.8388611,47.8867188 20.8740225,47.8867188 C21.7464227,47.8867188 22.566727,47.5970081 23.33496,47.0175781 L23.33496,48.5410156 Z M33.0732413,48.5410156 C32.3050083,49.0032575 31.3935591,49.234375 30.3388663,49.234375 C28.9130779,49.234375 27.7623733,48.7705125 26.8867179,47.8427734 C26.0110625,46.9150344 25.5732413,45.712247 25.5732413,44.234375 C25.5732413,42.5872313 26.0452418,41.2640024 26.9892569,40.2646484 C27.9332721,39.2652945 29.1930251,38.765625 30.7685538,38.765625 C31.6474645,38.765625 32.4221963,38.9283838 33.0927726,39.2539062 L33.0927726,40.8945312 C32.3505814,40.3736953 31.5563185,40.1132812 30.7099601,40.1132812 C29.6878195,40.1132812 28.8496118,40.4794885 28.1953116,41.2119141 C27.5410115,41.9443396 27.2138663,42.906244 27.2138663,44.0976562 C27.2138663,45.2695371 27.5214804,46.194007 28.1367179,46.8710938 C28.7519553,47.5481805 29.5771424,47.8867188 30.6123038,47.8867188 C31.484704,47.8867188 32.3050083,47.5970081 33.0732413,47.0175781 L33.0732413,48.5410156 Z M40.1748039,49.234375 C38.6969319,49.234375 37.5169307,48.7672573 36.6347648,47.8330078 C35.752599,46.8987583 35.3115226,45.660164 35.3115226,44.1171875 C35.3115226,42.4374916 35.7705024,41.1256558 36.6884758,40.1816406 C37.6064491,39.2376255 38.8466711,38.765625 40.4091789,38.765625 C41.9000718,38.765625 43.0637971,39.2246048 43.9003898,40.1425781 C44.7369825,41.0605515 45.1552726,42.3333252 45.1552726,43.9609375 C45.1552726,45.5559976 44.7044308,46.8336541 43.8027336,47.7939453 C42.9010364,48.7542366 41.6917386,49.234375 40.1748039,49.234375 Z M40.2919914,40.1132812 C39.2633404,40.1132812 38.4495465,40.4632126 37.8505851,41.1630859 C37.2516238,41.8629592 36.9521476,42.8281188 36.9521476,44.0585938 C36.9521476,45.2434955 37.254879,46.177731 37.8603508,46.8613281 C38.4658225,47.5449253 39.2763613,47.8867188 40.2919914,47.8867188 C41.3271528,47.8867188 42.1230433,47.5514356 42.6796867,46.8808594 C43.2363301,46.2102831 43.5146476,45.2565166 43.5146476,44.0195312 C43.5146476,42.769525 43.2363301,41.805993 42.6796867,41.1289062 C42.1230433,40.4518195 41.3271528,40.1132812 40.2919914,40.1132812 Z M53.4287102,40.6210938 C53.1487609,40.4062489 52.7451191,40.2988281 52.2177727,40.2988281 C51.5341755,40.2988281 50.9628922,40.6210905 50.5039055,41.265625 C50.0449188,41.9101595 49.8154289,42.7890569 49.8154289,43.9023438 L49.8154289,49 L48.2138664,49 L48.2138664,39 L49.8154289,39 L49.8154289,41.0605469 L49.8544914,41.0605469 C50.0823572,40.3574184 50.430661,39.8089212 50.8994133,39.4150391 C51.3681657,39.0211569 51.892249,38.8242188 52.4716789,38.8242188 C52.8883477,38.8242188 53.2073549,38.8697912 53.4287102,38.9609375 L53.4287102,40.6210938 Z M63.9384759,49 L62.3369134,49 L62.3369134,47.3007812 L62.2978509,47.3007812 C61.5556597,48.5898502 60.4098378,49.234375 58.8603509,49.234375 C57.6038342,49.234375 56.5996124,48.7867883 55.8476556,47.8916016 C55.0956987,46.9964148 54.7197259,45.7773515 54.7197259,44.234375 C54.7197259,42.5807209 55.1363884,41.2558644 55.9697259,40.2597656 C56.8030634,39.2636669 57.9130783,38.765625 59.299804,38.765625 C60.6735088,38.765625 61.6728478,39.3059842 62.2978509,40.3867188 L62.3369134,40.3867188 L62.3369134,34.1953125 L63.9384759,34.1953125 L63.9384759,49 Z M62.3369134,44.4785156 L62.3369134,43.0039062 C62.3369134,42.1966105 62.069989,41.5130236 61.5361321,40.953125 C61.0022753,40.3932264 60.3251987,40.1132812 59.5048821,40.1132812 C58.5283147,40.1132812 57.7600933,40.4713506 57.2001946,41.1875 C56.640296,41.9036494 56.3603509,42.8932229 56.3603509,44.15625 C56.3603509,45.3085995 56.6289029,46.2184211 57.1660149,46.8857422 C57.703127,47.5530632 58.4241484,47.8867188 59.3291009,47.8867188 C60.2210324,47.8867188 60.945309,47.5644563 61.5019524,46.9199219 C62.0585958,46.2753874 62.3369134,45.4615935 62.3369134,44.4785156 Z M68.5009759,36.4609375 C68.2145162,36.4609375 67.970378,36.3632822 67.7685541,36.1679688 C67.5667301,35.9726553 67.4658197,35.7252619 67.4658197,35.4257812 C67.4658197,35.1263006 67.5667301,34.8772796 67.7685541,34.6787109 C67.970378,34.4801422 68.2145162,34.3808594 68.5009759,34.3808594 C68.7939462,34.3808594 69.0429671,34.4801422 69.2480462,34.6787109 C69.4531254,34.8772796 69.5556634,35.1263006 69.5556634,35.4257812 C69.5556634,35.712241 69.4531254,35.9563792 69.2480462,36.1582031 C69.0429671,36.3600271 68.7939462,36.4609375 68.5009759,36.4609375 Z M69.2822259,49 L67.6806634,49 L67.6806634,39 L69.2822259,39 L69.2822259,49 Z M81.3251947,49 L79.7236322,49 L79.7236322,43.296875 C79.7236322,41.1744686 78.9489004,40.1132812 77.3994135,40.1132812 C76.5986282,40.1132812 75.9362,40.414385 75.4121088,41.0166016 C74.8880176,41.6188181 74.625976,42.3789017 74.625976,43.296875 L74.625976,49 L73.0244135,49 L73.0244135,39 L74.625976,39 L74.625976,40.6601562 L74.6650385,40.6601562 C75.4202506,39.3971291 76.5139897,38.765625 77.9462885,38.765625 C79.040044,38.765625 79.8766241,39.1188116 80.4560541,39.8251953 C81.0354841,40.5315791 81.3251947,41.5520767 81.3251947,42.8867188 L81.3251947,49 Z M93.3779292,48.1992188 C93.3779292,51.8711121 91.6201343,53.7070312 88.1044917,53.7070312 C86.8675063,53.7070312 85.786788,53.4726586 84.8623042,53.0039062 L84.8623042,51.4023438 C85.9886119,52.0273469 87.0628199,52.3398438 88.0849604,52.3398438 C90.5459102,52.3398438 91.7763667,51.0312631 91.7763667,48.4140625 L91.7763667,47.3203125 L91.7373042,47.3203125 C90.9755816,48.5963605 89.8297597,49.234375 88.2998042,49.234375 C87.0563084,49.234375 86.0553418,48.7900435 85.2968745,47.9013672 C84.5384072,47.0126909 84.1591792,45.8196689 84.1591792,44.3222656 C84.1591792,42.6230384 84.5677037,41.2721404 85.3847651,40.2695312 C86.2018265,39.2669221 87.3199794,38.765625 88.7392573,38.765625 C90.0869203,38.765625 91.0862593,39.3059842 91.7373042,40.3867188 L91.7763667,40.3867188 L91.7763667,39 L93.3779292,39 L93.3779292,48.1992188 Z M91.7763667,44.4785156 L91.7763667,43.0039062 C91.7763667,42.2096314 91.5078147,41.5292997 90.9707026,40.9628906 C90.4335906,40.3964815 89.7646519,40.1132812 88.9638667,40.1132812 C87.9742784,40.1132812 87.1995466,40.4729782 86.6396479,41.1923828 C86.0797493,41.9117875 85.7998042,42.9192644 85.7998042,44.2148438 C85.7998042,45.3281306 86.0683562,46.2184211 86.6054682,46.8857422 C87.1425803,47.5530632 87.8538362,47.8867188 88.7392573,47.8867188 C89.6376993,47.8867188 90.3684863,47.5677115 90.9316401,46.9296875 C91.494794,46.2916635 91.7763667,45.4746144 91.7763667,44.4785156 Z M107.737304,48.9023438 C107.359698,49.1106781 106.861656,49.2148438 106.243164,49.2148438 C104.491853,49.2148438 103.616211,48.238291 103.616211,46.2851562 L103.616211,40.3671875 L101.897461,40.3671875 L101.897461,39 L103.616211,39 L103.616211,36.5585938 L105.217773,36.0410156 L105.217773,39 L107.737304,39 L107.737304,40.3671875 L105.217773,40.3671875 L105.217773,46.0019531 C105.217773,46.6725294 105.331704,47.1510402 105.55957,47.4375 C105.787436,47.7239598 106.165036,47.8671875 106.692382,47.8671875 C107.09603,47.8671875 107.444334,47.7565115 107.737304,47.5351562 L107.737304,48.9023438 Z M114.399414,49.234375 C112.921542,49.234375 111.741541,48.7672573 110.859375,47.8330078 C109.977209,46.8987583 109.536132,45.660164 109.536132,44.1171875 C109.536132,42.4374916 109.995112,41.1256558 110.913086,40.1816406 C111.831059,39.2376255 113.071281,38.765625 114.633789,38.765625 C116.124682,38.765625 117.288407,39.2246048 118.125,40.1425781 C118.961592,41.0605515 119.379882,42.3333252 119.379882,43.9609375 C119.379882,45.5559976 118.929041,46.8336541 118.027343,47.7939453 C117.125646,48.7542366 115.916348,49.234375 114.399414,49.234375 Z M114.516601,40.1132812 C113.48795,40.1132812 112.674156,40.4632126 112.075195,41.1630859 C111.476234,41.8629592 111.176757,42.8281188 111.176757,44.0585938 C111.176757,45.2434955 111.479489,46.177731 112.084961,46.8613281 C112.690432,47.5449253 113.500971,47.8867188 114.516601,47.8867188 C115.551763,47.8867188 116.347653,47.5514356 116.904297,46.8808594 C117.46094,46.2102831 117.739257,45.2565166 117.739257,44.0195312 C117.739257,42.769525 117.46094,41.805993 116.904297,41.1289062 C116.347653,40.4518195 115.551763,40.1132812 114.516601,40.1132812 Z M136.375976,39 L131.776367,50.6015625 C130.95605,52.6718854 129.803718,53.7070312 128.319336,53.7070312 C127.902667,53.7070312 127.554363,53.664714 127.274414,53.5800781 L127.274414,52.1445312 C127.619468,52.2617193 127.93522,52.3203125 128.221679,52.3203125 C129.028975,52.3203125 129.634438,51.8385465 130.038086,50.875 L130.838867,48.9804688 L126.932617,39 L128.709961,39 L131.415039,46.6953125 C131.447591,46.7929692 131.51595,47.0468729 131.620117,47.4570312 L131.678711,47.4570312 C131.711263,47.3007805 131.776366,47.0533871 131.874023,46.7148438 L134.71582,39 L136.375976,39 Z M142.676758,49.234375 C141.198886,49.234375 140.018884,48.7672573 139.136719,47.8330078 C138.254553,46.8987583 137.813476,45.660164 137.813476,44.1171875 C137.813476,42.4374916 138.272456,41.1256558 139.19043,40.1816406 C140.108403,39.2376255 141.348625,38.765625 142.911133,38.765625 C144.402026,38.765625 145.565751,39.2246048 146.402344,40.1425781 C147.238936,41.0605515 147.657226,42.3333252 147.657226,43.9609375 C147.657226,45.5559976 147.206385,46.8336541 146.304687,47.7939453 C145.40299,48.7542366 144.193692,49.234375 142.676758,49.234375 Z M142.793945,40.1132812 C141.765294,40.1132812 140.9515,40.4632126 140.352539,41.1630859 C139.753578,41.8629592 139.454101,42.8281188 139.454101,44.0585938 C139.454101,45.2434955 139.756833,46.177731 140.362305,46.8613281 C140.967776,47.5449253 141.778315,47.8867188 142.793945,47.8867188 C143.829107,47.8867188 144.624997,47.5514356 145.18164,46.8808594 C145.738284,46.2102831 146.016601,45.2565166 146.016601,44.0195312 C146.016601,42.769525 145.738284,41.805993 145.18164,41.1289062 C144.624997,40.4518195 143.829107,40.1132812 142.793945,40.1132812 Z M158.801758,49 L157.200195,49 L157.200195,47.4179688 L157.161133,47.4179688 C156.497067,48.6289123 155.468431,49.234375 154.075195,49.234375 C151.692371,49.234375 150.500976,47.8151184 150.500976,44.9765625 L150.500976,39 L152.092773,39 L152.092773,44.7226562 C152.092773,46.8320418 152.900057,47.8867188 154.514648,47.8867188 C155.295902,47.8867188 155.938799,47.5986357 156.443359,47.0224609 C156.947919,46.4462862 157.200195,45.692713 157.200195,44.7617188 L157.200195,39 L158.801758,39 L158.801758,49 Z M167.749023,40.6210938 C167.469074,40.4062489 167.065432,40.2988281 166.538086,40.2988281 C165.854489,40.2988281 165.283205,40.6210905 164.824219,41.265625 C164.365232,41.9101595 164.135742,42.7890569 164.135742,43.9023438 L164.135742,49 L162.53418,49 L162.53418,39 L164.135742,39 L164.135742,41.0605469 L164.174805,41.0605469 C164.40267,40.3574184 164.750974,39.8089212 165.219727,39.4150391 C165.688479,39.0211569 166.212562,38.8242188 166.791992,38.8242188 C167.208661,38.8242188 167.527668,38.8697912 167.749023,38.9609375 L167.749023,40.6210938 Z M175.360352,48.6386719 L175.360352,46.9199219 C176.232752,47.5644563 177.193029,47.8867188 178.241211,47.8867188 C179.647468,47.8867188 180.350586,47.4179734 180.350586,46.4804688 C180.350586,46.2135403 180.290365,45.9873056 180.169922,45.8017578 C180.049479,45.61621 179.88672,45.4518236 179.681641,45.3085938 C179.476562,45.1653639 179.235679,45.0367844 178.958984,44.9228516 C178.68229,44.8089187 178.384442,44.6901048 178.06543,44.5664062 C177.622719,44.3906241 177.233726,44.213217 176.898438,44.0341797 C176.563149,43.8551423 176.283204,43.6533214 176.058594,43.4287109 C175.833983,43.2041004 175.664714,42.9485691 175.550781,42.6621094 C175.436848,42.3756496 175.379883,42.0403665 175.379883,41.65625 C175.379883,41.1874977 175.487304,40.7724627 175.702149,40.4111328 C175.916993,40.0498029 176.203449,39.7470715 176.561524,39.5029297 C176.919598,39.2587878 177.328123,39.0748704 177.787109,38.9511719 C178.246096,38.8274733 178.719724,38.765625 179.208008,38.765625 C180.073898,38.765625 180.848629,38.9153631 181.532227,39.2148438 L181.532227,40.8359375 C180.796546,40.3541643 179.9502,40.1132812 178.993164,40.1132812 C178.693683,40.1132812 178.423504,40.1474606 178.182617,40.2158203 C177.941731,40.28418 177.735027,40.3802077 177.5625,40.5039062 C177.389973,40.6276048 177.256511,40.7757153 177.162109,40.9482422 C177.067708,41.1207691 177.020508,41.3111969 177.020508,41.5195312 C177.020508,41.7799492 177.067708,41.998046 177.162109,42.1738281 C177.256511,42.3496103 177.394856,42.5058587 177.577149,42.6425781 C177.759441,42.7792976 177.980793,42.9029942 178.241211,43.0136719 C178.501629,43.1243495 178.79785,43.244791 179.129883,43.375 C179.572593,43.5442717 179.969725,43.7184236 180.321289,43.8974609 C180.672853,44.0764983 180.97233,44.2783192 181.219727,44.5029297 C181.467124,44.7275402 181.657552,44.9863267 181.791016,45.2792969 C181.92448,45.5722671 181.991211,45.9205709 181.991211,46.3242188 C181.991211,46.8190129 181.882163,47.2486961 181.664063,47.6132812 C181.445963,47.9778664 181.154624,48.2805978 180.790039,48.5214844 C180.425454,48.762371 180.005536,48.9414057 179.530274,49.0585938 C179.055011,49.1757818 178.556969,49.234375 178.036133,49.234375 C177.007482,49.234375 176.115564,49.0358093 175.360352,48.6386719 Z M192.989258,44.4003906 L185.928711,44.4003906 C185.954753,45.5136774 186.254229,46.3730438 186.827149,46.9785156 C187.400068,47.5839874 188.187821,47.8867188 189.19043,47.8867188 C190.316738,47.8867188 191.351883,47.5156287 192.295899,46.7734375 L192.295899,48.2773438 C191.416988,48.9153678 190.25489,49.234375 188.80957,49.234375 C187.396803,49.234375 186.286788,48.780278 185.479492,47.8720703 C184.672197,46.9638626 184.268555,45.6862062 184.268555,44.0390625 C184.268555,42.4830651 184.709631,41.2151742 185.591797,40.2353516 C186.473963,39.255529 187.56933,38.765625 188.87793,38.765625 C190.18653,38.765625 191.19889,39.1887979 191.915039,40.0351562 C192.631189,40.8815146 192.989258,42.0566331 192.989258,43.5605469 L192.989258,44.4003906 Z M191.348633,43.0429688 C191.342123,42.118485 191.119143,41.3990911 190.679688,40.8847656 C190.240232,40.3704401 189.629887,40.1132812 188.848633,40.1132812 C188.093421,40.1132812 187.452151,40.3834608 186.924805,40.9238281 C186.397458,41.4641954 186.071941,42.1705686 185.948242,43.0429688 L191.348633,43.0429688 Z M203.069336,49 L201.467774,49 L201.467774,47.4375 L201.428711,47.4375 C200.732093,48.6354227 199.706713,49.234375 198.352539,49.234375 C197.356441,49.234375 196.576826,48.9707058 196.013672,48.4433594 C195.450518,47.916013 195.168946,47.2161502 195.168946,46.34375 C195.168946,44.4752511 196.269195,43.3880224 198.469727,43.0820312 L201.467774,42.6621094 C201.467774,40.9628821 200.780932,40.1132812 199.407227,40.1132812 C198.202794,40.1132812 197.115565,40.5234334 196.145508,41.34375 L196.145508,39.703125 C197.128586,39.0781219 198.261387,38.765625 199.543946,38.765625 C201.894218,38.765625 203.069336,40.0091021 203.069336,42.4960938 L203.069336,49 Z M201.467774,43.9414062 L199.055664,44.2734375 C198.313473,44.3776047 197.753583,44.5615221 197.375977,44.8251953 C196.998371,45.0888685 196.809571,45.5559862 196.809571,46.2265625 C196.809571,46.7148462 196.983722,47.1136052 197.332031,47.4228516 C197.68034,47.7320979 198.144203,47.8867188 198.723633,47.8867188 C199.517908,47.8867188 200.173826,47.6084012 200.691406,47.0517578 C201.208987,46.4951144 201.467774,45.7903688 201.467774,44.9375 L201.467774,43.9414062 Z M211.801758,40.6210938 C211.521809,40.4062489 211.118167,40.2988281 210.590821,40.2988281 C209.907223,40.2988281 209.33594,40.6210905 208.876953,41.265625 C208.417967,41.9101595 208.188477,42.7890569 208.188477,43.9023438 L208.188477,49 L206.586914,49 L206.586914,39 L208.188477,39 L208.188477,41.0605469 L208.227539,41.0605469 C208.455405,40.3574184 208.803709,39.8089212 209.272461,39.4150391 C209.741214,39.0211569 210.265297,38.8242188 210.844727,38.8242188 C211.261396,38.8242188 211.580403,38.8697912 211.801758,38.9609375 L211.801758,40.6210938 Z M220.592774,48.5410156 C219.824541,49.0032575 218.913092,49.234375 217.858399,49.234375 C216.43261,49.234375 215.281906,48.7705125 214.40625,47.8427734 C213.530595,46.9150344 213.092774,45.712247 213.092774,44.234375 C213.092774,42.5872313 213.564774,41.2640024 214.508789,40.2646484 C215.452805,39.2652945 216.712558,38.765625 218.288086,38.765625 C219.166997,38.765625 219.941729,38.9283838 220.612305,39.2539062 L220.612305,40.8945312 C219.870114,40.3736953 219.075851,40.1132812 218.229493,40.1132812 C217.207352,40.1132812 216.369144,40.4794885 215.714844,41.2119141 C215.060544,41.9443396 214.733399,42.906244 214.733399,44.0976562 C214.733399,45.2695371 215.041013,46.194007 215.65625,46.8710938 C216.271488,47.5481805 217.096675,47.8867188 218.131836,47.8867188 C219.004236,47.8867188 219.824541,47.5970081 220.592774,47.0175781 L220.592774,48.5410156 Z M231.81543,49 L230.213868,49 L230.213868,43.2382812 C230.213868,41.1549375 229.439136,40.1132812 227.889649,40.1132812 C227.108395,40.1132812 226.450849,40.414385 225.916993,41.0166016 C225.383136,41.6188181 225.116211,42.3919224 225.116211,43.3359375 L225.116211,49 L223.514649,49 L223.514649,34.1953125 L225.116211,34.1953125 L225.116211,40.6601562 L225.155274,40.6601562 C225.923507,39.3971291 227.017246,38.765625 228.436524,38.765625 C230.689139,38.765625 231.81543,40.1230333 231.81543,42.8378906 L231.81543,49 Z M248.12793,48.5410156 C247.359697,49.0032575 246.448248,49.234375 245.393555,49.234375 C243.967767,49.234375 242.817062,48.7705125 241.941407,47.8427734 C241.065751,46.9150344 240.62793,45.712247 240.62793,44.234375 C240.62793,42.5872313 241.099931,41.2640024 242.043946,40.2646484 C242.987961,39.2652945 244.247714,38.765625 245.823243,38.765625 C246.702153,38.765625 247.476885,38.9283838 248.147461,39.2539062 L248.147461,40.8945312 C247.40527,40.3736953 246.611007,40.1132812 245.764649,40.1132812 C244.742508,40.1132812 243.904301,40.4794885 243.250001,41.2119141 C242.5957,41.9443396 242.268555,42.906244 242.268555,44.0976562 C242.268555,45.2695371 242.576169,46.194007 243.191407,46.8710938 C243.806644,47.5481805 244.631831,47.8867188 245.666993,47.8867188 C246.539393,47.8867188 247.359697,47.5970081 248.12793,47.0175781 L248.12793,48.5410156 Z M256.264649,40.6210938 C255.9847,40.4062489 255.581058,40.2988281 255.053712,40.2988281 C254.370114,40.2988281 253.798831,40.6210905 253.339844,41.265625 C252.880858,41.9101595 252.651368,42.7890569 252.651368,43.9023438 L252.651368,49 L251.049805,49 L251.049805,39 L252.651368,39 L252.651368,41.0605469 L252.69043,41.0605469 C252.918296,40.3574184 253.2666,39.8089212 253.735352,39.4150391 C254.204104,39.0211569 254.728188,38.8242188 255.307618,38.8242188 C255.724287,38.8242188 256.043294,38.8697912 256.264649,38.9609375 L256.264649,40.6210938 Z M259.323243,36.4609375 C259.036783,36.4609375 258.792645,36.3632822 258.590821,36.1679688 C258.388997,35.9726553 258.288087,35.7252619 258.288087,35.4257812 C258.288087,35.1263006 258.388997,34.8772796 258.590821,34.6787109 C258.792645,34.4801422 259.036783,34.3808594 259.323243,34.3808594 C259.616213,34.3808594 259.865234,34.4801422 260.070313,34.6787109 C260.275392,34.8772796 260.37793,35.1263006 260.37793,35.4257812 C260.37793,35.712241 260.275392,35.9563792 260.070313,36.1582031 C259.865234,36.3600271 259.616213,36.4609375 259.323243,36.4609375 Z M260.104493,49 L258.50293,49 L258.50293,39 L260.104493,39 L260.104493,49 Z M268.485352,48.9023438 C268.107746,49.1106781 267.609704,49.2148438 266.991212,49.2148438 C265.239901,49.2148438 264.364258,48.238291 264.364258,46.2851562 L264.364258,40.3671875 L262.645508,40.3671875 L262.645508,39 L264.364258,39 L264.364258,36.5585938 L265.965821,36.0410156 L265.965821,39 L268.485352,39 L268.485352,40.3671875 L265.965821,40.3671875 L265.965821,46.0019531 C265.965821,46.6725294 266.079752,47.1510402 266.307618,47.4375 C266.535484,47.7239598 266.913084,47.8671875 267.44043,47.8671875 C267.844078,47.8671875 268.192382,47.7565115 268.485352,47.5351562 L268.485352,48.9023438 Z M279.004884,44.4003906 L271.944337,44.4003906 C271.970378,45.5136774 272.269855,46.3730438 272.842774,46.9785156 C273.415694,47.5839874 274.203446,47.8867188 275.206055,47.8867188 C276.332363,47.8867188 277.367509,47.5156287 278.311524,46.7734375 L278.311524,48.2773438 C277.432614,48.9153678 276.270516,49.234375 274.825196,49.234375 C273.412429,49.234375 272.302414,48.780278 271.495118,47.8720703 C270.687822,46.9638626 270.28418,45.6862062 270.28418,44.0390625 C270.28418,42.4830651 270.725257,41.2151742 271.607423,40.2353516 C272.489588,39.255529 273.584955,38.765625 274.893555,38.765625 C276.202156,38.765625 277.214515,39.1887979 277.930665,40.0351562 C278.646814,40.8815146 279.004884,42.0566331 279.004884,43.5605469 L279.004884,44.4003906 Z M277.364259,43.0429688 C277.357748,42.118485 277.134769,41.3990911 276.695313,40.8847656 C276.255858,40.3704401 275.645512,40.1132812 274.864259,40.1132812 C274.109046,40.1132812 273.467777,40.3834608 272.94043,40.9238281 C272.413084,41.4641954 272.087566,42.1705686 271.963868,43.0429688 L277.364259,43.0429688 Z M287.141602,40.6210938 C286.861653,40.4062489 286.458011,40.2988281 285.930665,40.2988281 C285.247068,40.2988281 284.675784,40.6210905 284.216798,41.265625 C283.757811,41.9101595 283.528321,42.7890569 283.528321,43.9023438 L283.528321,49 L281.926759,49 L281.926759,39 L283.528321,39 L283.528321,41.0605469 L283.567384,41.0605469 C283.795249,40.3574184 284.143553,39.8089212 284.612305,39.4150391 C285.081058,39.0211569 285.605141,38.8242188 286.184571,38.8242188 C286.60124,38.8242188 286.920247,38.8697912 287.141602,38.9609375 L287.141602,40.6210938 Z M290.200196,36.4609375 C289.913736,36.4609375 289.669598,36.3632822 289.467774,36.1679688 C289.26595,35.9726553 289.16504,35.7252619 289.16504,35.4257812 C289.16504,35.1263006 289.26595,34.8772796 289.467774,34.6787109 C289.669598,34.4801422 289.913736,34.3808594 290.200196,34.3808594 C290.493166,34.3808594 290.742187,34.4801422 290.947266,34.6787109 C291.152346,34.8772796 291.254884,35.1263006 291.254884,35.4257812 C291.254884,35.712241 291.152346,35.9563792 290.947266,36.1582031 C290.742187,36.3600271 290.493166,36.4609375 290.200196,36.4609375 Z M290.981446,49 L289.379884,49 L289.379884,39 L290.981446,39 L290.981446,49 Z M301.881837,49 L300.280274,49 L300.280274,47.4375 L300.241212,47.4375 C299.544594,48.6354227 298.519213,49.234375 297.16504,49.234375 C296.168941,49.234375 295.389327,48.9707058 294.826173,48.4433594 C294.263019,47.916013 293.981446,47.2161502 293.981446,46.34375 C293.981446,44.4752511 295.081696,43.3880224 297.282227,43.0820312 L300.280274,42.6621094 C300.280274,40.9628821 299.593432,40.1132812 298.219727,40.1132812 C297.015294,40.1132812 295.928066,40.5234334 294.958009,41.34375 L294.958009,39.703125 C295.941087,39.0781219 297.073888,38.765625 298.356446,38.765625 C300.706718,38.765625 301.881837,40.0091021 301.881837,42.4960938 L301.881837,49 Z M300.280274,43.9414062 L297.868165,44.2734375 C297.125974,44.3776047 296.566084,44.5615221 296.188477,44.8251953 C295.810871,45.0888685 295.622071,45.5559862 295.622071,46.2265625 C295.622071,46.7148462 295.796223,47.1136052 296.144532,47.4228516 C296.492841,47.7320979 296.956704,47.8867188 297.536134,47.8867188 C298.330409,47.8867188 298.986326,47.6084012 299.503907,47.0517578 C300.021488,46.4951144 300.280274,45.7903688 300.280274,44.9375 L300.280274,43.9414062 Z" transform="translate(0 177)" opacity=".8"/>
      <g transform="translate(90)">
        <g transform="translate(0 15)">
          <path fill="#252527" d="M92.4748841,105.506927 C88.7002735,109.088781 86.9169986,108.40739 81.8845488,110.477796 C76.852099,112.548203 64.7044042,113.35749 50.8667158,113.769757 C37.0290274,114.182024 23.4001287,113.305748 12.6461868,106.805577 C11.8438171,106.320588 8.46752766,96.9394527 7.82720397,97.4362774 C-14.52808,114.781656 16.3964502,129.410463 33.3645214,133.218529 C54.6824077,138.002804 80.3056676,140.319486 101.238282,132.054975 C109.348295,128.85302 124.503308,122.389843 126.049663,111.874808 C126.051235,111.864116 126.694854,104.885657 125.190429,103.573256 C120.329094,99.332417 115.234736,95.318327 109.803734,91.8484374 C108.075933,90.7445381 99.7121158,89.1626491 97.7594848,88.5465033 C97.7594848,88.5465033 96.4437092,94.8910837 95.7473794,97.4362774" opacity=".5"/>
          <g transform="translate(4)">
            <path fill="#252527" d="M98,32.4119894 C101.61875,32.4119894 105.720052,32.4119894 110.303906,32.4119894 C114.88776,32.4119894 119.466406,32.7609477 124.039844,33.4588644 C120.636719,22.7463644 116.6125,17.2773539 111.967187,17.0518331 C104.999219,16.7135519 102.064844,17.9658956 100.489844,22.7416769 C99.4398437,25.925531 98.6098958,29.1489685 98,32.4119894 Z" opacity=".5"/>
            <path fill="#252527" d="M33.4867188 64.528125L33.4867188 72.778125C44.3976563 74.2109375 53.4322917 71.4609375 60.590625 64.528125 62.9018977 62.2896681 64.6535475 59.8878853 65.9785323 57.4522596 66.7050908 56.1166786 69.8540832 60.38519 71.1017877 60.38519 73.8845549 60.38519 82.3365008 63.1405687 82.295647 60.38519 82.2509823 57.3727815 89.8690549 40.2757728 89.562237 33.7334159 89.555276 33.5849859 93.7149666 32.1284321 95.1291983 31.300992 97.7509788 29.7670379 98.0775952 26.5199901 97.8484613 25.839633 97.3212569 24.2742281 87.4148744 25.3132855 85.9910191 26.6166672 85.5194599 27.0483275 84.4687203 27.5134505 84.4687203 28.3759359 84.4687203 29.2996752 83.9286605 33.2839857 83.2110114 36.3121072 81.7547824 42.4566678 79.4957921 49.0470525 78.6712537 48.9866321 77.9522638 48.9339461 71.9001245 48.3570389 71.1017877 46.8401612 70.5033771 45.7031524 73.3004245 39.4469146 72.8960299 39.178932 71.0834052 37.977749 69.91021 36.2594474 69.9 35.7382812 69.8416667 32.7606771 67.515625 26.29375 62.921875 16.3375 65.9332095 30.6626792 64.8678729 41.6931384 59.7258654 49.4288775 54.5838579 57.1646165 45.8374756 62.197699 33.4867188 64.528125zM3.75859375 95.6375C4.19244792 100.936979 5.49635417 104.451823 7.6703125 106.182031 10.93125 108.777344 19.5757812 112.504687 27.1984375 113.070312 34.8210937 113.635938 43.484375 114.201563 56.9695312 113.635938 65.9596354 113.258854 73.5973958 112.08724 79.8828125 110.121094 72.5572917 110.279891 68.1346354 108.490814 66.6148437 104.753864 65.0950521 101.016913 64.3351562 97.4145833 64.3351562 93.946875 52.5867187 95.0739583 42.7736979 95.6375 34.8960937 95.6375 27.0184896 95.6375 16.6393229 95.6375 3.75859375 95.6375z" opacity=".3"/>
            <path fill="#252527" d="M9.13698731,53.4341771 C5.66013939,38.0870873 7.00899574,26.689605 13.1835564,19.2417301 C22.4453973,8.06991778 35.2919487,3.16618524 38.9036249,2.49720757 C42.5153011,1.8282299 25.3565402,-1.70886043 17.2467638,4.52307391 C9.13698731,10.7550083 2.27681065,20.5739481 1.39210776,28.9872316 C0.507404872,37.400515 2.67096816,46.018049 4.24874568,48.0267032 C5.30059736,49.365806 6.93001124,51.1682973 9.13698731,53.4341771 Z" opacity=".4"/>
            <path stroke="#81BFF1" stroke-width="1.5" d="M32.8991668.499787626C10.4221454 2.54605606 2.0550589 17.2713162.855102384 32.1845253-.297723351 46.5119872 10.2499795 60.9682243 26.1595606 63.5654588 69.4847471 70.6382827 82.1154519 6.21211458 36.4688341.499787626L32.8991668.499787626zM3 95.3813275C48.9317014 95.8597633 28.4731707 97.2744782 64.4760537 93" stroke-linecap="round" stroke-linejoin="round"/>
            <path stroke="#81BFF1" stroke-width="1.5" d="M33.2973458 65.5486072C33.1170133 69.6962562 33.6039792 74.7315452 33.2973458 79.1889914 32.9295592 84.535407 31.7635675 89.3152774 31.5472704 94.2901114M63.8393818 94.5025751C62.931358 113.496878 85.6088321 113.983082 90.4135715 102.038539 95.1157996 90.3488392 94.7260926 80.086371 94.7603512 70.539188 94.8181667 54.4271413 92.4986689 39.3943624 98.9613451 22.6501561 99.6890248 20.7648041 102.752758 17.6023518 104.36167 13.7859232 105.474733 11.1456756 103.899716 6.83840163 108.551387 7.98397493 109.352345 8.1812281 105.40735 14.2102336 106.360585 14.400153 121.742286 17.4647519 121.342611 28.3774506 122.935657 32.6283424" stroke-linecap="round" stroke-linejoin="round"/>
            <path stroke="#81BFF1" stroke-width="1.5" d="M62.6463941 16.7616052C64.1193299 16.7278138 68.2125839 17.7949099 69.5021881 15.6253698 70.8034023 13.436298 67.2883513 8.00689308 70.6652657 8.00689308 74.2990606 8.00689308 77.8856384 7.96032639 81.8780879 7.67912109 84.9641248 7.46175829 93.9725112 7.57101562 108.903247 8.00689308M3.55011858 96.0890939C5.40105717 99.7909711 6.13858577 104.306386 9.10293434 107.194725 19.2758659 117.106813 58.2079979 113.021427 66.21916 112.747541 71.00521 112.583916 76.9404705 109.795312 80.4978291 111.161022M98.7412458 31.835083C106.464717 31.0698434 112.016435 30.9368801 123.330738 33.4200525" stroke-linecap="round" stroke-linejoin="round"/>
            <g fill-rule="nonzero" transform="translate(20 18)">
              <path fill="#252527" d="M14.3931376,11.8393224 L14.7334055,11.7258998 L17.9141074,12.9486545 L18.0534406,13.0149737 C18.1104197,13.0477095 18.1667054,13.0805367 18.2222981,13.1134565 C20.2151895,11.3670513 21.0941706,10.6104407 22.2264182,9.66657331 C22.8756358,9.12537075 23.1672964,8.83985357 23.7446811,8.18749234 C24.4376641,7.40452178 24.8523664,6.99856618 25.6427372,6.33969515 C26.3851161,5.72083121 27.4886214,5.82095987 28.1074854,6.56333876 C28.7263493,7.30571766 28.6262206,8.409223 27.8838417,9.02808693 C27.2346241,9.56928949 26.9429636,9.85480667 26.3655789,10.5071679 C25.6725959,11.2901385 25.2578935,11.6960941 24.4675228,12.3549651 C23.4314927,13.2186234 22.6090283,13.9248333 20.8889415,15.4305208 C22.3039104,17.5123601 21.5635707,19.8254303 18.9006235,22.0184456 C16.8473785,23.7093533 13.3082217,23.4412395 10.6471748,21.7367769 C7.69306272,19.8445991 6.81343538,16.7852657 9.1865585,14.0855105 C9.26256793,13.9990393 9.33801998,13.9165663 9.41312665,13.837906 C5.11165337,9.40526957 3.15869455,7.23745891 0.635561825,4.09581407 C0.030360428,3.34225567 0.150627538,2.24076322 0.904185934,1.63556183 C1.65774433,1.03036043 2.75923678,1.15062754 3.36443817,1.90418593 C5.95705133,5.1323434 7.92180191,7.29253067 12.7448548,12.2437344 C13.5700992,12.0918782 13.8209564,12.0300495 14.3931376,11.8393224 Z" opacity=".5"/>
              <path fill="#81BFF1" d="M11.400585,11.3234306 C11.3035679,11.2238043 11.2042408,11.1218394 11.1024756,11.0174005 C6.42604093,6.21810849 4.32290121,3.93972615 1.58475922,0.5303654 C1.32538719,0.207411802 0.853318998,0.155868755 0.5303654,0.415240782 C0.207411802,0.67461281 0.155868755,1.146681 0.415240782,1.4696346 C3.15977501,4.88695455 5.2706009,7.17880374 9.86570018,11.89745 C9.57371149,12.0953576 9.27190723,12.3654448 8.93763911,12.745721 C4.70796792,17.5575559 13.7219565,22.1642469 17.2649162,19.2465154 C19.8725154,17.0990808 20.2842609,15.1228698 18.5001528,13.3178824 C18.5053063,13.3133627 18.5104668,13.3088369 18.5156341,13.3043051 C20.6457115,11.4361774 21.6006708,10.6093218 22.8272072,9.58685315 C23.6098586,8.93441711 23.9873335,8.55555417 24.616751,7.84440345 C25.199954,7.18546838 25.5266013,6.85761988 26.2435262,6.25997499 C26.5616885,5.99474759 26.6046008,5.52181673 26.3393734,5.20365435 C26.074146,4.88549197 25.6012152,4.84257968 25.2830528,5.10780708 C24.5004013,5.76024313 24.1229265,6.13910607 23.493509,6.85025679 C22.910306,7.50919185 22.5836587,7.83704036 21.8667338,8.43468525 C20.6274103,9.46781351 19.6660253,10.3002328 17.5265854,12.1765716 C17.4564932,12.2380441 17.3876735,12.2983891 17.3200746,12.3576507 C17.0836356,12.1976779 16.828704,12.0391471 16.5552797,11.8820583 L13.7093654,10.7880057 C12.7338223,11.1131868 12.0151721,11.206167 11.400585,11.3234306 Z"/>
            </g>
          </g>
        </g>
        <g transform="translate(73)">
          <path fill="#2D2D30" fill-opacity=".73" stroke="#81BFF1" stroke-width="5" d="M21.2017813,38.7871266 C27.0653087,38.7871266 29.8388835,36.7642524 33.3940323,32.4647632 C36.3310464,28.9128275 37.9912953,25.3329771 37.9912953,20.2698367 C37.9912953,9.07794863 33.3940323,-0.250463869 18.6035402,0.00513076922 C3.81304813,0.260725407 0,10.0519038 0,21.2437918 C0,32.4356798 10.4942199,38.7871266 21.2017813,38.7871266 Z" opacity=".8" stroke-linecap="round" stroke-linejoin="round"/>
          <path stroke="#81BFF1" stroke-width="1.5" d="M26.7055323 8.41176471C23.8182602 16.3121904 21.7928309 21.1075717 20.6292444 22.7979086 19.465658 24.4882455 18.0178146 27.38028 16.2857143 31.474012M29.3794598 14.5294118C27.9718489 18.8427657 26.885572 21.8172556 26.1206289 23.4528815 25.3556859 25.0885074 24.4039116 26.6825166 23.2653061 28.2349092" stroke-linecap="round" stroke-linejoin="round"/>
          <path fill="#FFFFFF" d="M11.6560985,13.5063741 C13.3693083,13.5063741 15.5102041,12.3952239 15.5102041,10.7058824 C15.5102041,9.01654077 14.6709474,7.81344695 12.9577375,7.81344695 C11.2445277,7.81344695 9.30612245,9.01654077 9.30612245,10.7058824 C9.30612245,12.3952239 9.94288862,13.5063741 11.6560985,13.5063741 Z"/>
          <path stroke="#81BFF1" stroke-width="1.5" d="M9.56701173,41 C13.1137669,42.0940148 14.9466405,42.7311176 15.0656326,42.9113082 C15.2441206,43.1815943 15.9017497,43.7240969 15.9985299,44.3426657 C16.0953101,44.9612346 11.3875895,63.9689054 9.56701173,63.9994091 C7.74643397,64.0299128 1.72980127,62.8746332 2.00943249,61.6224367 C2.28906372,60.3702402 4.7775833,49.1618654 6.14678471,46.3323569 C7.05958564,44.446018 8.19966132,42.6685657 9.56701173,41 Z" stroke-linecap="round" stroke-linejoin="round"/>
          <path stroke="#81BFF1" stroke-width="1.5" d="M10.7394884,39 C10.7394884,39.2874476 10.4929923,40.0048601 10,41.1522373 L14.8920872,43 L16,40.2721971" stroke-linecap="round" stroke-linejoin="round"/>
        </g>
      </g>
    </g>
  </g>
</svg>
