<svg xmlns="http://www.w3.org/2000/svg" width="308" height="240" viewBox="0 0 308 240">
  <g fill="none" fill-rule="evenodd">
    <rect width="308" height="241"/>
    <g transform="translate(32 10)">
      <text fill="#000000" opacity=".8" font-family="SegoeUI, Segoe UI" font-size="20" letter-spacing=".5">
        <tspan x="17.982" y="195">No commits to display</tspan>
      </text>
      <text fill="#6189AA" font-family="Lato-Light, Lato" font-size="16" font-weight="300">
        <tspan x="11.544" y="217"> (Remember you have a filter set)</tspan>
      </text>
      <g transform="translate(58)">
        <path fill="#DFEDFB" d="M22.6120839,105.401484 C17.2285223,106.56832 16.3549947,106.491213 9.88089129,110.939308 C-16.3110764,128.934751 15.9104328,144.301388 33.3645214,148.218529 C54.6824077,153.002804 80.3056676,155.319486 101.238282,147.054975 C109.348295,143.85302 124.503308,137.389843 126.049663,126.874808 C126.051235,126.864116 126.694854,119.885657 125.190429,118.573256 C120.329094,114.332417 115.234736,110.318327 109.803734,106.848437 C108.075933,105.744538 105.898472,105.616146 103.945841,105" opacity=".5"/>
        <g transform="translate(4 15)">
          <path fill="#FFFFFF" d="M31.3390625,95.2226563 C36.14375,95.2226563 41.1544271,95.2226563 46.3710937,95.2226563 C51.5877604,95.2226563 57.3513021,94.4192708 63.6617187,92.8125 C63.0768229,97.8489583 63.9760417,101.834375 66.359375,104.76875 C69.934375,109.170313 75.3304687,109.364844 79.871875,109.170313 C84.4132812,108.975781 90.90625,104.125 92.3039062,98.46875 C93.7015625,92.8125 96.1039062,79.275 95.4351562,68.7070313 C94.7664062,58.1390625 95.3515625,37.16875 96.9570312,32.3867188 C98.5625,27.6046875 100.475,20.1398437 102.561719,18.1210938 C103.952865,16.7752604 105.902344,16.1023438 108.410156,16.1023438 C88.6226562,16.1023438 78.025,16.1023438 76.6171875,16.1023438 C75.209375,16.1023438 69.7208333,16.1023438 60.1515625,16.1023438 C54.1510417,5.78307292 45.8744792,0.484375 35.321875,0.20625 C19.4929687,-0.2109375 -0.2984375,15.3796875 0.48984375,32.3867188 C1.278125,49.39375 12.821875,63.2140625 28.1289062,63.5789063 C33.2742188,63.5789063 33.0630432,62.422483 33.303125,64.7890625 C34.6681213,78.244358 33.303125,75.7289063 33.303125,81.715625 C33.303125,85.7067708 32.6484375,90.2091146 31.3390625,95.2226563 Z"/>
          <path fill="#EEF6FD" d="M98,32.4119894 C101.61875,32.4119894 105.720052,32.4119894 110.303906,32.4119894 C114.88776,32.4119894 119.466406,32.7609477 124.039844,33.4588644 C120.636719,22.7463644 116.6125,17.2773539 111.967187,17.0518331 C104.999219,16.7135519 102.064844,17.9658956 100.489844,22.7416769 C99.4398437,25.925531 98.6098958,29.1489685 98,32.4119894 Z"/>
          <path fill="#EEF5FB" d="M33.4867188,64.528125 L33.4867188,72.778125 C44.3976563,74.2109375 53.4322917,71.4609375 60.590625,64.528125 C71.328125,54.1289062 69.9875,40.2046875 69.9,35.7382812 C69.8416667,32.7606771 67.515625,26.29375 62.921875,16.3375 C65.9332095,30.6626792 64.8678729,41.6931384 59.7258654,49.4288775 C54.5838579,57.1646165 45.8374756,62.197699 33.4867188,64.528125 Z"/>
          <path fill="#EEF6FD" d="M3.75859375 95.6375C4.19244792 100.936979 5.49635417 104.451823 7.6703125 106.182031 10.93125 108.777344 19.5757812 112.504687 27.1984375 113.070312 34.8210937 113.635938 43.484375 114.201563 56.9695312 113.635938 65.9596354 113.258854 73.5973958 112.08724 79.8828125 110.121094 72.5572917 110.279891 68.1346354 108.490814 66.6148437 104.753864 65.0950521 101.016913 64.3351562 97.4145833 64.3351562 93.946875 52.5867187 95.0739583 42.7736979 95.6375 34.8960937 95.6375 27.0184896 95.6375 16.6393229 95.6375 3.75859375 95.6375zM32.8991668.499787626C10.4221454 2.54605606 2.0550589 17.2713162.855102384 32.1845253-.297723351 46.5119872 10.2499795 60.9682243 26.1595606 63.5654588 69.4847471 70.6382827 82.1154519 6.21211458 36.4688341.499787626L32.8991668.499787626z"/>
          <path fill="#DEECF9" d="M9.13698731,53.4341771 C5.66013939,38.0870873 7.00899574,26.689605 13.1835564,19.2417301 C22.4453973,8.06991778 35.2919487,3.16618524 38.9036249,2.49720757 C42.5153011,1.8282299 25.3565402,-1.70886043 17.2467638,4.52307391 C9.13698731,10.7550083 2.27681065,20.5739481 1.39210776,28.9872316 C0.507404872,37.400515 2.67096816,46.018049 4.24874568,48.0267032 C5.30059736,49.365806 6.93001124,51.1682973 9.13698731,53.4341771 Z"/>
          <path stroke="#81BFF1" stroke-width="1.5" d="M32.8991668.499787626C10.4221454 2.54605606 2.0550589 17.2713162.855102384 32.1845253-.297723351 46.5119872 10.2499795 60.9682243 26.1595606 63.5654588 69.4847471 70.6382827 82.1154519 6.21211458 36.4688341.499787626L32.8991668.499787626zM3 95.3813275C48.9317014 95.8597633 28.4731707 97.2744782 64.4760537 93" stroke-linecap="round" stroke-linejoin="round"/>
          <path stroke="#81BFF1" stroke-width="1.5" d="M33.2973458 65.5486072C33.1170133 69.6962562 33.6039792 74.7315452 33.2973458 79.1889914 32.9295592 84.535407 31.7635675 89.3152774 31.5472704 94.2901114M63.8393818 94.5025751C62.931358 113.496878 85.6088321 113.983082 90.4135715 102.038539 95.1157996 90.3488392 94.7260926 80.086371 94.7603512 70.539188 94.8181667 54.4271413 93.3646558 40.1972077 99.8273319 23.4530014 101.186056 19.93267 103.08355 13.9400142 113.080941 17.5439195 119.277111 19.7775437 121.342611 28.3774506 122.935657 32.6283424M62.6463941 16.7616052C69.5621596 16.6029468 75.3011961 16.8580412 82.2795641 16.3665248 85.365601 16.149162 91.778814 16.149162 101.519203 16.3665248" stroke-linecap="round" stroke-linejoin="round"/>
          <path stroke="#81BFF1" stroke-width="1.5" d="M3.55011858 96.0890939C5.40105717 99.7909711 6.13858577 104.306386 9.10293434 107.194725 19.2758659 117.106813 58.2079979 113.021427 66.21916 112.747541 71.00521 112.583916 76.9404705 109.795312 80.4978291 111.161022M98.7412458 31.835083C106.464717 31.0698434 112.016435 30.9368801 123.330738 33.4200525" stroke-linecap="round" stroke-linejoin="round"/>
          <g fill-rule="nonzero" transform="translate(20 18)">
            <path fill="#DEECF9" d="M14.3931376,11.8393224 L14.7334055,11.7258998 L17.9141074,12.9486545 L18.0534406,13.0149737 C18.1104197,13.0477095 18.1667054,13.0805367 18.2222981,13.1134565 C20.2151895,11.3670513 21.0941706,10.6104407 22.2264182,9.66657331 C22.8756358,9.12537075 23.1672964,8.83985357 23.7446811,8.18749234 C24.4376641,7.40452178 24.8523664,6.99856618 25.6427372,6.33969515 C26.3851161,5.72083121 27.4886214,5.82095987 28.1074854,6.56333876 C28.7263493,7.30571766 28.6262206,8.409223 27.8838417,9.02808693 C27.2346241,9.56928949 26.9429636,9.85480667 26.3655789,10.5071679 C25.6725959,11.2901385 25.2578935,11.6960941 24.4675228,12.3549651 C23.4314927,13.2186234 22.6090283,13.9248333 20.8889415,15.4305208 C22.3039104,17.5123601 21.5635707,19.8254303 18.9006235,22.0184456 C16.8473785,23.7093533 13.3082217,23.4412395 10.6471748,21.7367769 C7.69306272,19.8445991 6.81343538,16.7852657 9.1865585,14.0855105 C9.26256793,13.9990393 9.33801998,13.9165663 9.41312665,13.837906 C5.11165337,9.40526957 3.15869455,7.23745891 0.635561825,4.09581407 C0.030360428,3.34225567 0.150627538,2.24076322 0.904185934,1.63556183 C1.65774433,1.03036043 2.75923678,1.15062754 3.36443817,1.90418593 C5.95705133,5.1323434 7.92180191,7.29253067 12.7448548,12.2437344 C13.5700992,12.0918782 13.8209564,12.0300495 14.3931376,11.8393224 Z"/>
            <path fill="#81BFF1" d="M11.400585,11.3234306 C11.3035679,11.2238043 11.2042408,11.1218394 11.1024756,11.0174005 C6.42604093,6.21810849 4.32290121,3.93972615 1.58475922,0.5303654 C1.32538719,0.207411802 0.853318998,0.155868755 0.5303654,0.415240782 C0.207411802,0.67461281 0.155868755,1.146681 0.415240782,1.4696346 C3.15977501,4.88695455 5.2706009,7.17880374 9.86570018,11.89745 C9.57371149,12.0953576 9.27190723,12.3654448 8.93763911,12.745721 C4.70796792,17.5575559 13.7219565,22.1642469 17.2649162,19.2465154 C19.8725154,17.0990808 20.2842609,15.1228698 18.5001528,13.3178824 C18.5053063,13.3133627 18.5104668,13.3088369 18.5156341,13.3043051 C20.6457115,11.4361774 21.6006708,10.6093218 22.8272072,9.58685315 C23.6098586,8.93441711 23.9873335,8.55555417 24.616751,7.84440345 C25.199954,7.18546838 25.5266013,6.85761988 26.2435262,6.25997499 C26.5616885,5.99474759 26.6046008,5.52181673 26.3393734,5.20365435 C26.074146,4.88549197 25.6012152,4.84257968 25.2830528,5.10780708 C24.5004013,5.76024313 24.1229265,6.13910607 23.493509,6.85025679 C22.910306,7.50919185 22.5836587,7.83704036 21.8667338,8.43468525 C20.6274103,9.46781351 19.6660253,10.3002328 17.5265854,12.1765716 C17.4564932,12.2380441 17.3876735,12.2983891 17.3200746,12.3576507 C17.0836356,12.1976779 16.828704,12.0391471 16.5552797,11.8820583 L13.7093654,10.7880057 C12.7338223,11.1131868 12.0151721,11.206167 11.400585,11.3234306 Z"/>
          </g>
        </g>
        <g transform="translate(63)">
          <path stroke="#81BFF1" stroke-width="1.5" d="M17.5959948,45.638265 C17.2247896,53.3593324 16.8535844,54.0803998 16.4823793,61.8014672" stroke-linecap="round" stroke-linejoin="round"/>
          <path fill="#EEF6FD" d="M1.19363938,16 C11.1492475,19.3011001 18.8354042,21.2223096 24.2521095,21.7636285 C29.6688148,22.3049474 37.1151912,21.3443426 46.5912386,18.8818143 C32.3692553,34.0806111 25.2452967,41.7709986 25.2193626,41.9529767 C25.1804615,42.2259438 23.892439,43.0329771 23.892439,44.7759447 C23.892439,45.9379232 24.0123292,51.0914416 24.2521095,60.2364999 C22.8406804,61.898039 21.4583722,62.6928745 20.1051849,62.6210063 C18.0754039,62.5132041 16.1900186,61.7826543 16.6218869,61.2119948 C17.0537552,60.6413352 18.2184809,44.5461644 17.7592499,43.0784716 C17.300019,41.6107787 10.419467,31.8855004 8.70386195,29.3157192 C7.56012526,27.6025318 5.05671774,23.1639587 1.19363938,16 Z"/>
          <path fill="#DEECF9" d="M26.739711,22.7256913 C24.2589888,31.6776314 22.7312956,37.2065721 22.1566314,39.3125134 C21.5819673,41.4184547 21.0476484,43.46951 20.5536749,45.4656794 L20.1936394,61.6313337 L23.4666752,60.2624616 C23.0917918,51.4707762 23.0917918,46.2588633 23.4666752,44.626723 C23.8415585,42.9945827 24.815733,41.4951516 26.3891986,40.12843 L46.1125072,19 C42.0030238,20.1583394 38.476806,21.0688728 35.533854,21.7316002 C32.5909019,22.3943276 29.6595209,22.7256913 26.739711,22.7256913 Z"/>
          <path stroke="#81BFF1" stroke-width="1.5" d="M17.039187 61.8014672C18.0046088 62.6600572 17.5959948 62.8685172 20.5186455 62.5777324 23.4384368 62.2872321 23.3788595 61.0264306 24.5004108 60.9105748M24.2776877 60.2424055C24.1292056 53.1152663 23.9807236 52.9881272 23.8322415 45.8609881M23.8322415 45.0531161C23.8322415 45.0531161 23.9812124 43.7147751 24.9805553 42.5802417 27.367598 39.8702814 32.3573672 35.3712458 35.5252041 31.7463417 38.9316173 27.8484387 43.9532534 22.6554612 47.2181668 19.1342163" stroke-linecap="round" stroke-linejoin="round"/>
          <path fill="#DEECF9" d="M0.193639381,13.8504308 C6.07056464,9.2620774 14.4061721,7.37262615 25.2004618,8.182077 C35.9947516,8.99152785 43.2583806,12.4225181 46.991349,18.4750479 C39.2412363,22.4117526 31.1359585,23.5342805 22.6755159,21.8426315 C14.2150732,20.1509825 7.02529027,18.1453774 1.10616719,15.8258161 L0.193639381,13.8504308 Z"/>
          <path fill="#C1DAF3" d="M22.3348995,21.3323717 C24.1879148,17.7064171 25.4822403,15.4440099 26.217876,14.54515 C26.9535116,13.6462901 28.2440483,11.7315281 30.0894861,8.80086389 C22.8246747,7.73304537 16.6384338,7.73304537 11.5307633,8.80086389 C6.42309277,9.86868242 2.64405147,11.1233794 0.193639381,12.5649549 L0.193639381,14.54515 C3.06532165,16.1468778 6.00704495,17.3314314 9.01880928,18.0988108 C12.0305736,18.8661901 16.4692704,19.9440438 22.3348995,21.3323717 Z"/>
          <path stroke="#81BFF1" stroke-width="1.5" d="M.668169294 16.0152229C9.03694427 18.5151578 17.1526973 21.2526867 23.6578094 21.9342806 33.1547625 22.9293541 37.0437274 22.0684129 43.0934631 20.6170832 44.3903833 20.3059525 45.6274853 19.4234722 47.2181668 19.1342163M.320175195 12.9225998C7.47858434 7.55752402 37.4182275 3.49799234 46.9954437 18.466047" stroke-linecap="round" stroke-linejoin="round"/>
          <path fill="#81BFF1" d="M6.46681834,1.31888236 C6.75343072,0.6145099 7.73442822,0.174882446 9.40981081,0 C14.6262908,2.40760617 10.66559,5.10218663 8.01245507,5.11521267 C5.84425381,5.12585783 6.03689976,2.37544106 6.46681834,1.31888236 Z M25.1210848,0.430451967 C25.6506897,-0.115263918 27.0414019,-0.115263918 29.2932212,0.430451967 C31.7788137,3.07503879 30.3253429,4.77652572 28.385963,5.15060583 C27.2552748,5.36870026 26.2761287,5.51219863 25.3683486,5.15060583 C23.3540396,4.34825337 24.3266774,1.24902579 25.1210848,0.430451967 Z M37.1460404,17.5793943 C36.6457218,18.1520797 35.5750417,18.2483741 33.9340002,17.8682775 C29.7855614,13.8935214 34.4077472,12.6352235 36.9205764,13.4866834 C38.9741167,14.1825155 37.8965182,16.7203663 37.1460404,17.5793943 Z M16.7114685,16.3788827 C15.9799592,16.5866841 15.0295657,16.0843092 13.8602879,14.8717581 C12.5459217,9.27884535 17.107731,10.7409708 18.7514286,12.82365 C20.0946951,14.5256621 17.8087324,16.0671807 16.7114685,16.3788827 Z M41.4668183,5.31888236 C41.7534307,4.6145099 42.7344282,4.17488245 44.4098108,4 C49.6262908,6.40760617 47.0629457,8.83593873 44.4098108,8.84896477 C43.2971016,8.85442781 41.9813101,8.8032499 41.4668183,8.02475356 C40.9787825,7.28628863 41.2575317,5.83322083 41.4668183,5.31888236 Z"/>
          <path stroke="#81BFF1" stroke-width="1.5" d="M0,14.6788843 C2.44090375,18.840852 5.26619465,24.7690304 8.4082291,29.7257725 C12.3680166,35.9725675 16.4808419,40.9669382 17.039187,42.1934113 C18.0405709,44.3930731 17.3219868,45.171056 17.5959948,45.638265" stroke-linecap="round" stroke-linejoin="round"/>
        </g>
      </g>
    </g>
  </g>
</svg>
