<svg xmlns="http://www.w3.org/2000/svg" width="128" height="128" viewBox="0 0 128 128">
  <g fill="none" fill-rule="evenodd">
    <rect width="128" height="128"/>
    <g transform="translate(0 6)">
      <path fill="#EEF6FD" d="M8.5717401,41.5416416 C8.5717401,41.5416416 19.5924916,71.6726222 20.4785079,76.9196282 C21.3645242,82.1666342 25.8895083,94.3698924 26.7529658,94.5166536 C27.6164233,94.6634149 68.3918427,27.6876095 68.3918427,27.6876095 C68.3918427,27.6876095 83.52413,22.2233658 83.671929,21.1433732 C83.819728,20.0633806 82.008412,0.0926173795 82.008412,0.0926173795 C82.008412,0.0926173795 68.8659665,3.25282522 65.02747,5.99753214 C61.1889736,8.74223905 26.0268058,27.7061967 26.0268058,27.7061967 L8.5717401,41.5416416 Z"/>
      <path fill="#DFEDFB" d="M22.8961591,68.4798555 C17.4449639,69.6561502 16.5604622,69.5784182 10.0050247,74.0625707 C-16.5159922,92.20389 16.1103153,107.695093 33.7836793,111.643987 C55.3693818,116.467045 81.3145462,118.802507 102.510137,110.471002 C110.722035,107.243091 126.067441,100.727521 127.633223,90.1272487 C127.634815,90.1164702 128.286519,83.081442 126.763194,81.7584021 C121.840786,77.4831856 116.682428,73.4365562 111.183197,69.9385387 C109.433689,68.8256909 107.228873,68.6962578 105.251711,68.0751174" opacity=".5"/>
      <polygon fill="#FFFFFF" points="112.812 7.189 67.242 27.523 67.611 19.094 65.589 18.481 40.713 30.562 30.061 66.988 27.946 94.716 75.192 75.359 104.773 46.599"/>
      <path fill="#DCE6EF" d="M106.277658,39.5162172 L100.149992,42.9527192 C100.149992,42.9527192 87.6653044,29.5616656 85.6269881,30.8747711 C83.5886717,32.1878766 79.4171174,49.9378618 78.4688098,52.4003868 C77.5205022,54.8629119 54.0112844,68.4221733 54.5585596,70.3439014 C55.1058349,72.2656295 67.6640981,78.8433657 67.6640981,78.8433657 L79.1623279,74.1498274 L104.766179,49.4088214 L106.277658,39.5162172 Z"/>
      <path stroke="#81BFF1" stroke-width="1.637" d="M8.34269278 41.9390267C10.835043 49.6100302 12.6206188 56.7931648 16.4229148 68.702631 20.2252108 80.6120973 24.0976608 88.0264047 26.3256666 94.5941159M27.3739316 95.2519806C30.7712262 58.0740982 27.6693623 78.0197777 38.0705128 35.6458333" stroke-linecap="round" stroke-linejoin="round"/>
      <path stroke="#81BFF1" stroke-width="1.637" d="M37.5953158 36.4857427C41.1322375 29.4788497 39.0870664 29.9471276 46.2829171 27.0575354 49.8570477 25.6222944 48.5932324 25.4464439 56.1354788 22.2796432 63.6777251 19.1128425 64.9021392 17.6325562 67.4831579 18.4940827M67.8290598 18.5568515C67.6018519 23.3469288 67.2759074 23.0533288 67.0486995 27.843406M67.4748218 27.7248058C67.4748218 27.7248058 74.796904 25.526056 78.232906 23.8879842 89.1816801 18.6682904 102.648901 11.9674622 113.313431 6.19384135M8.34779022 41.6462524C30.5435251 24.3715118 54.0577946 11.8483872 79.5940171.0319102113M79.8632479.544600939C81.1923077 6.24621366 82.8564389 14.6386159 84.1854987 20.3402287M105.328491 46.3277315C105.328491 46.3277315 109.036093 28.7817279 113.138941 6.31954523L105.328491 46.3277315z" stroke-linecap="round" stroke-linejoin="round"/>
      <path fill="#FFFFFF" d="M93.1621209,27.7846042 L85.8929521,54.7319837 L84.9397076,56.0438947 L67.0430953,69.1037495 L80.667547,77.2871054 L77.3060724,108.022716 C77.3060724,108.022716 94.070247,83.7960065 94.3950349,83.7960065 C94.7198228,83.7960065 108.241238,90.1261844 108.566026,89.6817658 C108.890814,89.2373472 105.046478,67.3292608 105.046478,67.3292608 L119.278267,40.4025889 C119.278267,40.4025889 101.725001,49.1937948 101.725001,48.9096217 C101.725001,48.6254487 93.1621209,27.7846042 93.1621209,27.7846042 Z"/>
      <path stroke="#81BFF1" stroke-width="1.637" d="M95.8831984 85.8839919C94.8017885 85.356333 93.4303677 85.7793605 92.8272004 86.8104431 92.8272004 86.8104431 89.281492 92.9537284 87.3459097 95.7582431 85.4103275 98.5627579 78.2142469 107.965932 78.2142469 107.965932 77.1172626 109.404361 76.3358099 109.110783 76.4809064 107.309982 76.4809064 107.309982 77.2474948 95.6102873 78.8398557 89.9985072 80.4322166 84.386727 80.9763023 79.5922998 80.9763023 79.5922998 81.1409758 78.4065426 80.338891 77.14664 79.1984984 76.7747014 79.1984984 76.7747014 76.4597781 75.9321741 75.0548126 75.2735864 73.6498471 74.6149987 68.4953444 71.7120041 68.4953444 71.7120041 66.9189477 70.8311113 66.7934132 69.2245814 68.2292967 68.1177863 68.2292967 68.1177863 72.6733892 64.6519235 75.0548126 62.9971585 77.4362359 61.3423935 83.3471267 57.6809464 83.3471267 57.6809464 84.3701624 57.0433809 85.5096736 55.5984958 85.8818707 54.4616275 85.8818707 54.4616275 88.3097175 47.3852837 89.1802029 42.5589576 90.0506883 37.7326314 92.5108212 28.7607375 92.5108212 28.7607375 92.9787244 27.0130361 93.9579013 26.924222 94.7006706 28.5783679 94.7006706 28.5783679 97.7648445 35.3066102 98.9947298 38.5343312 100.224615 41.7620523 101.208514 46.6862787 101.208514 46.6862787 101.461492 47.8562629 102.53153 48.3647952 103.609348 47.8166056L110.519338 44.3021126 118.204594 40.1027842C119.7899 39.2365515 120.473901 39.8602335 119.711047 41.5107612 119.711047 41.5107612 115.589632 50.8308191 112.583321 54.9091682 109.577009 58.9875172 106.20558 65.6601823 106.20558 65.6601823 105.649281 66.7268727 105.489673 68.5216185 105.847111 69.6755736 105.847111 69.6755736 107.278848 74.1742375 107.791338 76.4470828 108.303828 78.7199281 109.912825 87.825909 109.912825 87.825909 110.230534 89.6072273 109.071468 90.6547254 107.340458 90.163068 107.340458 90.163068 103.283077 89.0553637 101.2427 88.3011145 99.2023225 87.5468652 95.8831984 85.8839919 95.8831984 85.8839919zM75.0391282 75.4188095L27.6631557 95.2144372" stroke-linecap="round" stroke-linejoin="round"/>
    </g>
  </g>
</svg>
