<svg xmlns="http://www.w3.org/2000/svg" width="742" height="453" viewBox="0 0 742 453" xmlns:xlink="http://www.w3.org/1999/xlink">
  <defs>
    <path id="a" d="M43.6260163,95.1581633 C25.3018369,95.1581633 10.4471545,80.2956159 10.4471545,61.9617347 C10.4471545,43.6278534 25.3018369,28.7653061 43.6260163,28.7653061 C61.9501956,28.7653061 76.804878,43.6278534 76.804878,61.9617347 C76.804878,80.2956159 61.9501956,95.1581633 43.6260163,95.1581633 Z M43.6260163,89.9846939 C59.0944794,89.9846939 71.6341463,77.4383877 71.6341463,61.9617347 C71.6341463,46.4850817 59.0944794,33.9387755 43.6260163,33.9387755 C28.1575531,33.9387755 15.6178862,46.4850817 15.6178862,61.9617347 C15.6178862,77.4383877 28.1575531,89.9846939 43.6260163,89.9846939 Z"/>
    <mask id="O" width="66.358" height="66.393" x="0" y="0" fill="white">
      <use xlink:href="#a"/>
    </mask>
    <path id="b" d="M548,51 L639.246444,51 C639.246444,51 636.719176,56.8162262 636.719176,62.1721671 C636.719176,67.5281081 639.246444,71.6938776 639.246444,71.6938776 L548,71.6938776 C548,71.6938776 549.555479,65.0002065 549.555479,61.653371 C549.555479,58.3065355 548,51 548,51 Z"/>
    <mask id="P" width="91.246" height="20.694" x="0" y="0" fill="white">
      <use xlink:href="#b"/>
    </mask>
    <path id="c" d="M145,51 L508.927827,51 C508.927827,51 506.400559,56.8162262 506.400559,62.1721671 C506.400559,67.5281081 508.927827,71.6938776 508.927827,71.6938776 L145,71.6938776 C145,71.6938776 146.555479,65.0002065 146.555479,61.653371 C146.555479,58.3065355 145,51 145,51 Z"/>
    <mask id="Q" width="363.928" height="20.694" x="0" y="0" fill="white">
      <use xlink:href="#c"/>
    </mask>
    <path id="d" d="M0,51 L13.3378882,51 C13.3378882,51 10.8106204,56.8162262 10.8106204,62.1721671 C10.8106204,67.5281081 13.3378882,71.6938776 13.3378882,71.6938776 L0,71.6938776 L0,51 Z"/>
    <mask id="R" width="13.338" height="20.694" x="0" y="0" fill="white">
      <use xlink:href="#d"/>
    </mask>
    <ellipse id="e" cx="43.195" cy="61.531" rx="22.407" ry="22.418"/>
    <mask id="S" width="44.813" height="44.837" x="0" y="0" fill="white">
      <use xlink:href="#e"/>
    </mask>
    <path id="f" d="M29.8427486,71.0153061 C32.8104174,75.1900162 37.6849135,77.9132653 43.195122,77.9132653 C48.7053304,77.9132653 53.5798265,75.1900162 56.5474953,71.0153061 L29.8427486,71.0153061 Z"/>
    <mask id="T" width="28.705" height="8.898" x="-1" y="-1">
      <rect width="28.705" height="8.898" x="28.843" y="70.015" fill="white"/>
      <use fill="black" xlink:href="#f"/>
    </mask>
    <ellipse id="g" cx="125.065" cy="61.531" rx="22.407" ry="22.418"/>
    <mask id="U" width="44.813" height="44.837" x="0" y="0" fill="white">
      <use xlink:href="#g"/>
    </mask>
    <path id="h" d="M111.712667,71.0153061 C114.680336,75.1900162 119.554832,77.9132653 125.065041,77.9132653 C130.575249,77.9132653 135.449745,75.1900162 138.417414,71.0153061 L111.712667,71.0153061 Z"/>
    <mask id="V" width="28.705" height="8.898" x="-1" y="-1">
      <rect width="28.705" height="8.898" x="110.713" y="70.015" fill="white"/>
      <use fill="black" xlink:href="#h"/>
    </mask>
    <path id="i" d="M72.5541918,60.2372449 L72.5541918,58.7183341 C72.5541918,58.1602316 72.1865077,57.9737318 71.7329464,58.2847374 L67.72759,61.031198 C67.2769156,61.3402241 67.2740287,61.8464435 67.72759,62.1574491 L71.7329464,64.9039097 C72.1836208,65.2129358 72.5541918,65.0207875 72.5541918,64.470313 L72.5541918,62.8239796 L100.934959,62.8239796 L100.934959,60.2372449 L72.5541918,60.2372449 Z"/>
    <mask id="W" width="35.546" height="8.916" x="-1" y="-1">
      <rect width="35.546" height="8.916" x="66.389" y="57.135" fill="white"/>
      <use fill="black" xlink:href="#i"/>
    </mask>
    <path id="j" d="M223.520325,146.892857 L266.219512,146.892857 C266.219512,146.892857 263.897614,154.052109 263.897614,157.631735 C263.897614,161.21136 266.219512,167.586735 266.219512,167.586735 L223.520325,167.586735 C223.520325,167.586735 225.916657,160.861124 225.916657,157.498319 C225.916657,154.135514 223.520325,146.892857 223.520325,146.892857 Z"/>
    <mask id="X" width="42.699" height="20.694" x="0" y="0" fill="white">
      <use xlink:href="#j"/>
    </mask>
    <rect id="k" width="65.496" height="19.832" x="212.967" y="107.23"/>
    <mask id="Y" width="67.496" height="21.832" x="-1" y="-1">
      <rect width="67.496" height="21.832" x="211.967" y="106.23" fill="white"/>
      <use fill="black" xlink:href="#k"/>
    </mask>
    <path id="l" d="M122.04878,93.4904661 L122.04878,134.826094 C122.04878,147.92025 132.661038,158.533163 145.752758,158.533163 L194.869919,158.533163 L194.869919,155.946429 L145.752758,155.946429 C134.088625,155.946429 124.634146,146.491365 124.634146,134.826094 L124.634146,93.4904661 L126.281201,93.4904661 C126.839304,93.4904661 127.025804,93.1227819 126.714798,92.6692206 L123.968337,88.6638643 C123.659311,88.2131898 123.153092,88.2103029 122.842086,88.6638643 L120.095626,92.6692206 C119.786599,93.119895 119.978748,93.4904661 120.529222,93.4904661 L122.04878,93.4904661 Z"/>
    <mask id="Z" width="76.922" height="72.208" x="-1" y="-1">
      <rect width="76.922" height="72.208" x="118.948" y="87.325" fill="white"/>
      <use fill="black" xlink:href="#l"/>
    </mask>
    <ellipse id="m" cx="204.35" cy="157.24" rx="22.407" ry="22.418"/>
    <mask id="aa" width="44.813" height="44.837" x="0" y="0" fill="white">
      <use xlink:href="#m"/>
    </mask>
    <path id="n" d="M204.349593,173.622449 C195.306492,173.622449 187.97561,166.287685 187.97561,157.239796 C187.97561,148.191906 195.306492,140.857143 204.349593,140.857143 C213.392695,140.857143 220.723577,148.191906 220.723577,157.239796 C220.723577,166.287685 213.392695,173.622449 204.349593,173.622449 Z"/>
    <mask id="ab" width="32.748" height="32.765" x="0" y="0" fill="white">
      <use xlink:href="#n"/>
    </mask>
    <ellipse id="o" cx="285.358" cy="157.24" rx="22.407" ry="22.418"/>
    <mask id="ac" width="44.813" height="44.837" x="0" y="0" fill="white">
      <use xlink:href="#o"/>
    </mask>
    <path id="p" d="M272.662125,146.892857 C270.362654,149.71387 268.98374,153.315716 268.98374,157.239796 C268.98374,166.287685 276.314622,173.622449 285.357724,173.622449 C294.400825,173.622449 301.731707,166.287685 301.731707,157.239796 C301.731707,153.315716 300.352793,149.71387 298.053322,146.892857 L272.662125,146.892857 Z"/>
    <mask id="ad" width="32.748" height="26.73" x="0" y="0" fill="white">
      <use xlink:href="#p"/>
    </mask>
    <path id="q" d="M235.432241,155.946429 L235.432241,154.427518 C235.432241,153.869415 235.064556,153.682915 234.610995,153.993921 L230.605639,156.740382 C230.154964,157.049408 230.152077,157.555627 230.605639,157.866633 L234.610995,160.613093 C235.06167,160.92212 235.432241,160.729971 235.432241,160.179497 L235.432241,158.533163 L259.504065,158.533163 L259.504065,155.946429 L235.432241,155.946429 Z"/>
    <mask id="ae" width="31.238" height="8.916" x="-1" y="-1">
      <rect width="31.238" height="8.916" x="229.267" y="152.844" fill="white"/>
      <use fill="black" xlink:href="#q"/>
    </mask>
    <path id="r" d="M386,240 L428.707317,240 C428.707317,240 426.251056,246.62082 426.251056,249.93123 C426.251056,253.241641 428.707317,260.693878 428.707317,260.693878 L386,260.693878 C386,260.693878 388.285058,253.799911 388.285058,250.352928 C388.285058,246.905945 386,240 386,240 Z"/>
    <mask id="af" width="42.707" height="20.694" x="0" y="0" fill="white">
      <use xlink:href="#r"/>
    </mask>
    <path id="s" d="M467,240 L509.707317,240 C509.707317,240 507.251056,246.62082 507.251056,249.93123 C507.251056,253.241641 509.707317,260.693878 509.707317,260.693878 L467,260.693878 C467,260.693878 469.285058,253.799911 469.285058,250.352928 C469.285058,246.905945 467,240 467,240 Z"/>
    <mask id="ag" width="42.707" height="20.694" x="0" y="0" fill="white">
      <use xlink:href="#s"/>
    </mask>
    <rect id="t" width="91.35" height="19.832" x="400.837" y="200.352"/>
    <mask id="ah" width="93.35" height="21.832" x="-1" y="-1">
      <rect width="93.35" height="21.832" x="399.837" y="199.352" fill="white"/>
      <use fill="black" xlink:href="#t"/>
    </mask>
    <path id="u" d="M284.065041,186.612915 L284.065041,227.948543 C284.065041,241.042699 294.677298,251.655612 307.769018,251.655612 L356.886179,251.655612 L356.886179,249.068878 L307.769018,249.068878 C296.104885,249.068878 286.650407,239.613814 286.650407,227.948543 L286.650407,186.612915 L288.297461,186.612915 C288.855564,186.612915 289.042064,186.245231 288.731058,185.79167 L285.984597,181.786313 C285.675571,181.335639 285.169352,181.332752 284.858346,181.786313 L282.111886,185.79167 C281.80286,186.242344 281.995008,186.612915 282.545482,186.612915 L284.065041,186.612915 Z"/>
    <mask id="ai" width="76.922" height="72.208" x="-1" y="-1">
      <rect width="76.922" height="72.208" x="280.964" y="180.447" fill="white"/>
      <use fill="black" xlink:href="#u"/>
    </mask>
    <ellipse id="v" cx="366.366" cy="250.362" rx="22.407" ry="22.418"/>
    <mask id="aj" width="44.813" height="44.837" x="0" y="0" fill="white">
      <use xlink:href="#v"/>
    </mask>
    <path id="w" d="M353.670255,240.015306 C351.370784,242.836319 349.99187,246.438165 349.99187,250.362245 C349.99187,259.410134 357.322752,266.744898 366.365854,266.744898 C375.408955,266.744898 382.739837,259.410134 382.739837,250.362245 C382.739837,246.438165 381.360923,242.836319 379.061452,240.015306 L353.670255,240.015306 Z"/>
    <mask id="ak" width="32.748" height="26.73" x="0" y="0" fill="white">
      <use xlink:href="#w"/>
    </mask>
    <ellipse id="x" cx="447.374" cy="250.362" rx="22.407" ry="22.418"/>
    <mask id="al" width="44.813" height="44.837" x="0" y="0" fill="white">
      <use xlink:href="#x"/>
    </mask>
    <path id="y" d="M432.14706,244.326531 C431.406839,246.194366 431,248.230769 431,250.362245 C431,259.410134 438.330882,266.744898 447.373984,266.744898 C456.417085,266.744898 463.747967,259.410134 463.747967,250.362245 C463.747967,248.230769 463.341128,246.194366 462.600907,244.326531 L432.14706,244.326531 Z"/>
    <mask id="am" width="32.748" height="22.418" x="0" y="0" fill="white">
      <use xlink:href="#y"/>
    </mask>
    <ellipse id="z" cx="529.244" cy="250.362" rx="22.407" ry="22.418"/>
    <mask id="an" width="44.813" height="44.837" x="0" y="0" fill="white">
      <use xlink:href="#z"/>
    </mask>
    <path id="A" d="M516.548304,260.709184 C519.550805,264.39268 524.122804,266.744898 529.243902,266.744898 C534.365001,266.744898 538.937,264.39268 541.939501,260.709184 L516.548304,260.709184 Z"/>
    <mask id="ao" width="25.391" height="6.036" x="0" y="0" fill="white">
      <use xlink:href="#A"/>
    </mask>
    <path id="B" d="M395.724924,249.068878 L395.724924,247.549967 C395.724924,246.991864 395.357239,246.805364 394.903678,247.11637 L390.898322,249.862831 C390.447647,250.171857 390.44476,250.678076 390.898322,250.989082 L394.903678,253.735542 C395.354353,254.044568 395.724924,253.85242 395.724924,253.301946 L395.724924,251.655612 L422.382114,251.655612 L422.382114,249.068878 L395.724924,249.068878 Z"/>
    <mask id="ap" width="33.823" height="8.916" x="-1" y="-1">
      <rect width="33.823" height="8.916" x="389.559" y="245.966" fill="white"/>
      <use fill="black" xlink:href="#B"/>
    </mask>
    <path id="C" d="M477.594842,249.068878 L477.594842,247.549967 C477.594842,246.991864 477.227158,246.805364 476.773597,247.11637 L472.76824,249.862831 C472.317566,250.171857 472.314679,250.678076 472.76824,250.989082 L476.773597,253.735542 C477.224271,254.044568 477.594842,253.85242 477.594842,253.301946 L477.594842,251.655612 L504.252033,251.655612 L504.252033,249.068878 L477.594842,249.068878 Z"/>
    <mask id="aq" width="33.823" height="8.916" x="-1" y="-1">
      <rect width="33.823" height="8.916" x="471.429" y="245.966" fill="white"/>
      <use fill="black" xlink:href="#C"/>
    </mask>
    <ellipse id="D" cx="528.382" cy="61.531" rx="22.407" ry="22.418"/>
    <mask id="ar" width="44.813" height="44.837" x="0" y="0" fill="white">
      <use xlink:href="#D"/>
    </mask>
    <path id="E" d="M515.02974,71.0153061 C517.997409,75.1900162 522.871905,77.9132653 528.382114,77.9132653 C533.892322,77.9132653 538.766818,75.1900162 541.734487,71.0153061 L515.02974,71.0153061 Z"/>
    <mask id="as" width="28.705" height="8.898" x="-1" y="-1">
      <rect width="28.705" height="8.898" x="514.03" y="70.015" fill="white"/>
      <use fill="black" xlink:href="#E"/>
    </mask>
    <path id="F" d="M557.741184,60.2372449 L557.741184,58.7183341 C557.741184,58.1602316 557.3735,57.9737318 556.919938,58.2847374 L552.914582,61.031198 C552.463907,61.3402241 552.461021,61.8464435 552.914582,62.1574491 L556.919938,64.9039097 C557.370613,65.2129358 557.741184,65.0207875 557.741184,64.470313 L557.741184,62.8239796 L639.552846,62.8239796 L639.552846,60.2372449 L557.741184,60.2372449 Z"/>
    <mask id="at" width="88.977" height="8.916" x="-1" y="-1">
      <rect width="88.977" height="8.916" x="551.575" y="57.135" fill="white"/>
      <use fill="black" xlink:href="#F"/>
    </mask>
    <rect id="G" width="50.846" height="19.832" x="633.52" y="11.52"/>
    <mask id="au" width="52.846" height="21.832" x="-1" y="-1">
      <rect width="52.846" height="21.832" x="632.52" y="10.52" fill="white"/>
      <use fill="black" xlink:href="#G"/>
    </mask>
    <ellipse id="H" cx="658.512" cy="61.531" rx="22.407" ry="22.418"/>
    <mask id="av" width="44.813" height="44.837" x="0" y="0" fill="white">
      <use xlink:href="#H"/>
    </mask>
    <ellipse id="I" cx="658.512" cy="61.531" rx="18.744" ry="18.754"/>
    <mask id="aw" width="37.488" height="37.508" x="0" y="0" fill="white">
      <use xlink:href="#I"/>
    </mask>
    <path id="J" d="M659.29846,51.5258535 C658.866619,51.0696135 658.159886,51.0696135 657.728045,51.5258535 L649.275551,60.1271402 C648.842668,60.5823203 649.003813,60.9561147 649.633663,60.9561147 L651.395806,60.9561147 L651.395806,67.5621115 C651.395806,68.0387119 651.415829,68.4285714 652.263712,68.4285714 L656.366199,68.4285714 L656.366199,61.8011265 L660.658276,61.8011265 L660.658276,68.4285714 L664.965109,68.4285714 C665.611827,68.4285714 665.629711,68.0397717 665.629711,67.5621115 L665.629711,60.9561147 L667.390757,60.9561147 C668.019565,60.9561147 668.181752,60.5834081 667.749911,60.1271402 L659.29846,51.5258535 Z"/>
    <mask id="ax" width="18.959" height="17.245" x="0" y="0" fill="white">
      <use xlink:href="#J"/>
    </mask>
    <path id="K" d="M645.159822,71.0153061 C648.127491,75.1900162 653.001987,77.9132653 658.512195,77.9132653 C664.022404,77.9132653 668.8969,75.1900162 671.864568,71.0153061 L645.159822,71.0153061 Z"/>
    <mask id="ay" width="26.705" height="6.898" x="0" y="0" fill="white">
      <use xlink:href="#K"/>
    </mask>
    <path id="L" d="M154.424111,60.2372449 L154.424111,58.7183341 C154.424111,58.1602316 154.056426,57.9737318 153.602865,58.2847374 L149.597509,61.031198 C149.146834,61.3402241 149.143947,61.8464435 149.597509,62.1574491 L153.602865,64.9039097 C154.05354,65.2129358 154.424111,65.0207875 154.424111,64.470313 L154.424111,62.8239796 L504.252033,62.8239796 L504.252033,60.2372449 L154.424111,60.2372449 Z"/>
    <mask id="az" width="356.994" height="8.916" x="-1" y="-1">
      <rect width="356.994" height="8.916" x="148.258" y="57.135" fill="white"/>
      <use fill="black" xlink:href="#L"/>
    </mask>
    <rect id="M" width="17.236" height="2.587" x="1.829" y="61.099"/>
    <mask id="aA" width="19.236" height="4.587" x="-1" y="-1">
      <rect width="19.236" height="4.587" x=".829" y="60.099" fill="white"/>
      <use fill="black" xlink:href="#M"/>
    </mask>
    <path id="N" d="M48.9962384,20.1428571 L59.5691057,20.1428571 L59.5691057,0.31122449 L26.8211382,0.31122449 L26.8211382,20.1428571 L37.399813,20.1428571 L43.1980257,25.9410699 L48.9962384,20.1428571 Z"/>
    <mask id="aB" width="34.748" height="27.63" x="-1" y="-1">
      <rect width="34.748" height="27.63" x="25.821" y="-.689" fill="white"/>
      <use fill="black" xlink:href="#N"/>
    </mask>
  </defs>
  <g fill="none" fill-rule="evenodd">
    <g transform="translate(4 376)">
      <text fill="#D5D5D5" opacity=".8" font-family="SegoeUI, Segoe UI" font-size="32" letter-spacing=".8">
        <tspan x=".166" y="35">Don’t panic, your Branch Explorer didn’t go away!</tspan>
      </text>
      <text fill="#8CA3B7" font-family="Lato-Light, Lato" font-size="22" font-weight="300">
        <tspan x="154.149" y="72">It&apos;s just hidden by the filters you have selected</tspan>
      </text>
    </g>
    <g stroke="#8CA3B7" stroke-width="2" transform="translate(19.715 24.694)" stroke-dasharray="1">
      <use fill-rule="nonzero" mask="url(#O)" xlink:href="#a"/>
      <use fill="#676767" fill-opacity=".522" mask="url(#P)" xlink:href="#b"/>
      <use fill="#676767" fill-opacity=".522" mask="url(#Q)" xlink:href="#c"/>
      <use fill="#676767" fill-opacity=".522" mask="url(#R)" xlink:href="#d"/>
      <use mask="url(#S)" xlink:href="#e"/>
      <use fill="#2D2D30" mask="url(#T)" opacity=".5" stroke-linejoin="round" xlink:href="#f"/>
      <use mask="url(#U)" xlink:href="#g"/>
      <use fill="#2D2D30" mask="url(#V)" opacity=".5" stroke-linejoin="round" xlink:href="#h"/>
      <use mask="url(#W)" stroke-linejoin="round" xlink:href="#i"/>
      <use fill="#676767" fill-opacity=".522" mask="url(#X)" xlink:href="#j"/>
      <use mask="url(#Y)" stroke-linejoin="round" xlink:href="#k"/>
      <use fill-rule="nonzero" mask="url(#Z)" opacity=".5" stroke-linejoin="round" xlink:href="#l"/>
      <use mask="url(#aa)" xlink:href="#m"/>
      <use fill="#2D2D30" mask="url(#ab)" opacity=".5" xlink:href="#n"/>
      <use mask="url(#ac)" xlink:href="#o"/>
      <use fill="#2D2D30" mask="url(#ad)" opacity=".5" xlink:href="#p"/>
      <use mask="url(#ae)" stroke-linejoin="round" xlink:href="#q"/>
      <use fill="#676767" fill-opacity=".522" mask="url(#af)" xlink:href="#r"/>
      <use fill="#676767" fill-opacity=".522" mask="url(#ag)" xlink:href="#s"/>
      <use mask="url(#ah)" opacity=".5" stroke-linejoin="round" xlink:href="#t"/>
      <use fill-rule="nonzero" mask="url(#ai)" opacity=".5" stroke-linejoin="round" xlink:href="#u"/>
      <use mask="url(#aj)" xlink:href="#v"/>
      <use fill="#2D2D30" mask="url(#ak)" opacity=".5" xlink:href="#w"/>
      <use mask="url(#al)" xlink:href="#x"/>
      <use fill="#2D2D30" mask="url(#am)" opacity=".5" xlink:href="#y"/>
      <use mask="url(#an)" xlink:href="#z"/>
      <use fill="#2D2D30" mask="url(#ao)" opacity=".5" xlink:href="#A"/>
      <use mask="url(#ap)" stroke-linejoin="round" xlink:href="#B"/>
      <use mask="url(#aq)" stroke-linejoin="round" xlink:href="#C"/>
      <use mask="url(#ar)" xlink:href="#D"/>
      <use fill="#2D2D30" mask="url(#as)" opacity=".5" stroke-linejoin="round" xlink:href="#E"/>
      <use mask="url(#at)" stroke-linejoin="round" xlink:href="#F"/>
      <use mask="url(#au)" opacity=".5" stroke-linejoin="round" xlink:href="#G"/>
      <use mask="url(#av)" xlink:href="#H"/>
      <use mask="url(#aw)" xlink:href="#I"/>
      <use fill="#2D2D30" mask="url(#ax)" opacity=".5" xlink:href="#J"/>
      <use fill="#2D2D30" mask="url(#ay)" opacity=".5" xlink:href="#K"/>
      <use mask="url(#az)" stroke-linejoin="round" xlink:href="#L"/>
      <use mask="url(#aA)" stroke-linejoin="round" xlink:href="#M"/>
      <use mask="url(#aB)" opacity=".5" stroke-linejoin="round" xlink:href="#N"/>
    </g>
    <path fill="#000000" d="M45.275973,9.37258497 L46.2396928,3.44897959 C46.2396928,3.44897959 57.0233278,9.37258497 59.6348415,12.4179914 C62.2463551,15.4633979 69.8580706,20.3837581 69.8580706,20.3837581 C69.8580706,20.3837581 62.6786364,110.581073 62.2552681,135.967634 C61.8318999,161.354196 69.1494858,337.295531 69.1494858,337.295531 C69.1494858,337.295531 53.6112552,334.021419 53.0265963,333.390339 C52.4419374,332.759259 49.5214618,326.153124 49.2645476,325.521892 C46.9393646,319.808968 36.195122,316.489781 36.195122,316.489781 C36.195122,316.489781 38.5042605,212.399362 40.1955052,184.47459 C41.88675,156.549818 45.275973,9.37258497 45.275973,9.37258497 Z M128.831793,147.951077 C130.523038,120.026305 137.083611,1.7244898 137.083611,1.7244898 C137.083611,1.7244898 150.487673,3.69682493 153.099186,6.74223139 C155.7107,9.78763784 175.323003,23.6427901 175.323003,23.6427901 C175.323003,23.6427901 157.965155,108.183002 159.681742,172.261688 C161.398329,236.340375 177.21661,334.790183 177.21661,334.790183 C177.21661,334.790183 156.406887,331.487402 148.528289,320.553801 C140.649691,309.6202 131.039423,315.802936 131.039423,315.802936 C131.039423,315.802936 127.140548,175.875849 128.831793,147.951077 Z M327.593549,173.119813 C329.284793,145.195041 327.593549,3.44897959 327.593549,3.44897959 C327.593549,3.44897959 340.99761,5.42131473 343.609124,8.46672118 C346.220638,11.5121276 358.136704,22.7347748 358.136704,22.7347748 C358.136704,22.7347748 356.648521,111.636534 360.804764,167.38859 C364.961006,223.140646 388.793734,333.364549 388.793734,333.364549 C388.793734,333.364549 368.683362,338.660474 360.804764,327.726872 C352.926165,316.793271 343.609124,318.165272 343.609124,318.165272 C343.609124,318.165272 325.902304,201.044585 327.593549,173.119813 Z M626.595989,172.790025 C628.287234,144.865253 620.487805,2.58673469 620.487805,2.58673469 C620.487805,2.58673469 633.891867,4.55906983 636.50338,7.60447628 C639.114894,10.6498827 651.030961,21.8725299 651.030961,21.8725299 C651.030961,21.8725299 649.144426,113.035364 653.300669,168.78742 C657.456912,224.539476 676.686639,334.988093 676.686639,334.988093 C676.686639,334.988093 666.142493,335.077107 658.263894,324.143506 C650.385296,313.209905 636.50338,313.478196 636.50338,313.478196 C636.50338,313.478196 624.904744,200.714797 626.595989,172.790025 Z M719.377574,173.65227 C721.068819,145.727498 713.26939,3.44897959 713.26939,3.44897959 L717.101197,4.59113865 C717.101197,4.59113865 725.529336,142.653951 730.452987,190.318441 C735.376638,237.982931 739.297751,326.157344 739.297751,326.157344 C739.297751,326.157344 738.952579,322.225356 733.528757,318.822399 C728.104936,315.419443 724.165136,317.036232 724.165136,317.036232 C724.165136,317.036232 717.68633,201.577042 719.377574,173.65227 Z M421.424887,173.856886 C423.116132,145.932114 425.548058,4.31122449 425.548058,4.31122449 C425.548058,4.31122449 438.95212,6.28355963 441.563634,9.32896608 C444.175147,12.3743725 456.091214,23.5970197 456.091214,23.5970197 C456.091214,23.5970197 449.135518,151.366696 453.291761,207.118753 C457.448003,262.870809 476.449081,332.913763 476.449081,332.913763 C476.449081,332.913763 459.338798,330.952719 450.930446,323.929034 C442.522094,316.905349 438.469141,314.744131 438.469141,314.744131 C438.469141,314.744131 419.733642,201.781658 421.424887,173.856886 Z M529.083524,176.572913 C530.774769,148.648141 527.414634,6.03571429 527.414634,6.03571429 C527.414634,6.03571429 540.818696,8.00804942 543.430209,11.0534559 C546.041723,14.0988623 552.251901,23.9211203 552.251901,23.9211203 C552.251901,23.9211203 556.643699,135.598829 559.500519,186.862692 C562.357338,238.126554 582.729051,334.354774 582.729051,334.354774 C582.729051,334.354774 566.62257,330.401028 564.120848,326.662178 C555.071842,313.13834 539.32663,314.482365 539.32663,314.482365 C539.32663,314.482365 527.39228,204.497685 529.083524,176.572913 Z M237.396459,147.729425 C239.087703,119.804653 234.889124,5.17346939 234.889124,5.17346939 C234.889124,5.17346939 248.293185,7.14580453 250.904699,10.191211 C253.516213,13.2366174 259.726391,23.0588754 259.726391,23.0588754 C259.726391,23.0588754 259.689512,143.039044 262.546332,194.302906 C265.403152,245.566769 284.933079,328.378247 284.933079,328.378247 C284.933079,328.378247 265.048054,332.117097 262.546332,328.378247 C253.497326,314.854409 240.963536,316.218607 240.963536,316.218607 C240.963536,316.218607 235.705214,175.654197 237.396459,147.729425 Z" opacity=".3"/>
    <g stroke="#8CA3B7" stroke-width="3" opacity=".5">
      <path fill="#4C4C4D" d="M15.9860037,15.1683298 C15.9860037,15.1683298 18.4405494,1.84697564 40.3909201,1.84697564 C62.3412908,1.84697564 56.9422398,22.6238784 86.670898,22.6238784 C116.399556,22.6238784 109.064548,1.88153575 137.214398,1.88153575 C165.364248,1.88153575 152.447751,22.0070326 184.088835,22.0070326 C215.72992,22.0070326 210.821752,1.89096124 234.543047,1.89096124 C258.264341,1.89096124 253.942821,21.3022157 282.758075,22.3955721 C311.582277,23.4889286 309.618285,-0.795826027 332.23891,0.927990711 C354.870659,2.65180745 340.018979,21.786581 383.165969,23.7046675 C426.336449,25.622754 406.861341,2.56174169 426.227058,1.7448662 C445.588264,0.927990711 436.760095,19.8307926 474.850584,21.76773 C512.962005,23.7046675 492.567273,-0.75864772 525.22203,1.62652398 C557.89896,4.01169569 539.613692,21.3598159 570.060118,21.9918471 C600.512003,22.6238784 597.857004,2.30515901 619.914081,1.61657486 C641.966826,0.927990711 648.798598,24.8781405 671.277951,21.8619849 C693.737956,18.8458292 697.391155,2.73401864 718.558313,2.31248994 C720.979183,51.3681936 724.446543,122.800149 730.413068,169.000577 C736.426824,215.201005 741.368807,331.353603 741.368807,331.353603 C741.368807,331.353603 734.981136,315.280567 718.534926,319.466006 C702.088717,323.651446 705.121268,337.479645 680.768709,336.48578 C656.422723,335.491915 659.147352,316.050838 633.524999,316.845721 C607.897075,317.640604 603.478157,338.803402 576.866228,335.688279 C550.276772,332.573156 565.930719,316.662971 531.407922,315.280567 C496.898149,313.898162 518.928127,334.992888 475.992823,334.957804 C433.057928,334.92272 457.273621,316.72319 432.616503,316.784455 C407.958972,316.845721 402.235645,337.217303 375.343199,335.428555 C348.463839,333.639807 355.608994,317.712866 329.911341,316.578142 C304.213688,315.443418 292.865029,336.009793 274.495468,335.719174 C256.127359,335.428555 259.896897,317.322755 228.442673,316.950449 C196.991648,316.578142 212.414446,339.997297 173.106466,336.186259 C133.839329,332.375221 167.363187,318.105594 128.96948,316.321559 C90.594508,314.537524 115.475326,333.305726 76.1925495,336.48578 C36.8758844,339.665834 59.7197323,321.325445 35.7994479,317.712866 C11.9029155,314.100286 0,331.353603 0,331.353603 C0,331.353603 4.39683133,230.677867 10.5827157,174.27883 C16.716188,117.879794 15.9860037,15.1683298 15.9860037,15.1683298 Z"/>
      <path d="M54.8368628 19.8316327C54.8368628 21.0721851 49.1400246 101.215507 47.748988 177.539929 46.3579514 253.864351 49.5550411 310.938646 49.5550411 310.938646M336.641741 11.2091837C336.641741 12.4497362 329.553866 94.8637795 336.641741 171.46885 343.729616 248.07392 351.343814 317.866918 351.343814 317.866918M250.085476 13.7959184C250.085476 15.0364709 248.873802 100.866905 247.482766 177.191327 246.091729 253.515748 254.870207 318.855469 254.870207 318.855469"/>
      <path d="M390.671146,28.4540816 C390.671146,29.6654794 389.475289,113.478775 388.102411,188.009463 C386.729533,262.540152 395.393418,326.344295 395.393418,326.344295" transform="rotate(-3 391.674 177.4)"/>
      <path d="M638.107659,12.059721 C638.107659,13.3002735 636.895986,99.1307072 635.504949,175.455129 C634.113913,251.779551 642.89239,317.119271 642.89239,317.119271" transform="rotate(-3 639.124 164.59)"/>
      <path d="M298.964981,25.8641694 C298.964981,27.0388125 297.769124,108.309161 296.396246,180.578543 C295.023368,252.847924 303.687253,314.71621 303.687253,314.71621" transform="rotate(-3 299.968 170.29)"/>
      <path d="M95.8061013,29.1262803 C95.8061013,30.3009235 80.966177,105.306634 79.5932988,177.576016 C78.2204206,249.845397 71.7943854,326.466937 71.7943854,326.466937" transform="rotate(-3 83.8 177.797)"/>
      <path d="M593.170026,28.444698 C593.170026,29.656172 591.974169,113.474748 590.601291,188.010132 C589.228413,262.545516 597.892298,326.353678 597.892298,326.353678" transform="rotate(-3 594.173 177.4)"/>
      <path d="M487.599472,24.4175245 C487.599472,25.658077 480.409115,111.922533 479.018079,188.246955 C477.627042,264.571377 480.516871,331.565247 480.516871,331.565247" transform="rotate(-3 483.12 177.991)"/>
      <path d="M536.048457 11.2091837C536.048457 12.4497362 532.612532 88.8903759 539.33684 171.79556 546.061148 254.700743 551.140988 312.232013 551.140988 312.232013M143.530546 12.2667809C143.530546 13.5206236 133.526413 98.8481982 136.721825 182.641553 139.917237 266.434908 143.530546 319.225965 143.530546 319.225965M672.459381 28.765635C672.459381 28.765635 672.235518 106.960469 678.959826 189.865653 685.684134 272.770837 698.111058 326.674615 698.111058 326.674615M437.050254 8.62244898C437.050254 9.88786355 435.83858 97.4384369 434.447544 175.292487 433.056507 253.146538 445.805648 310.938646 445.805648 310.938646M195.749441 28.4540816C195.749441 29.6725776 194.537767 113.976979 193.146731 188.944381 191.755694 263.911784 204.504835 319.561095 204.504835 319.561095"/>
    </g>
  </g>
</svg>
