<svg xmlns="http://www.w3.org/2000/svg" width="440" height="152" viewBox="0 0 440 152">
  <g fill="none" fill-rule="evenodd">
    <rect width="440" height="159" y="-2"/>
    <path fill="#D5D5D5" fill-rule="nonzero" d="M55.024413,139 L53.0126942,139 L45.805663,127.837891 C45.6233704,127.557941 45.4736323,127.264975 45.3564442,126.958984 L45.2978505,126.958984 C45.3499341,127.258465 45.3759755,127.899735 45.3759755,128.882812 L45.3759755,139 L43.7353505,139 L43.7353505,124.996094 L45.8642567,124.996094 L52.8759755,135.982422 C53.1689457,136.438153 53.3577459,136.75065 53.4423817,136.919922 L53.4814442,136.919922 C53.4163397,136.516274 53.383788,135.829432 53.383788,134.859375 L53.383788,124.996094 L55.024413,124.996094 L55.024413,139 Z M63.1611318,139.234375 C61.6832598,139.234375 60.5032586,138.767257 59.6210927,137.833008 C58.7389268,136.898758 58.2978505,135.660164 58.2978505,134.117188 C58.2978505,132.437492 58.7568303,131.125656 59.6748036,130.181641 C60.592777,129.237625 61.832999,128.765625 63.3955068,128.765625 C64.8863996,128.765625 66.050125,129.224605 66.8867177,130.142578 C67.7233104,131.060551 68.1416005,132.333325 68.1416005,133.960938 C68.1416005,135.555998 67.6907587,136.833654 66.7890615,137.793945 C65.8873642,138.754237 64.6780664,139.234375 63.1611318,139.234375 Z M63.2783193,130.113281 C62.2496683,130.113281 61.4358743,130.463213 60.836913,131.163086 C60.2379517,131.862959 59.9384755,132.828119 59.9384755,134.058594 C59.9384755,135.243495 60.2412069,136.177731 60.8466786,136.861328 C61.4521504,137.544925 62.2626892,137.886719 63.2783193,137.886719 C64.3134807,137.886719 65.1093712,137.551436 65.6660146,136.880859 C66.222658,136.210283 66.5009755,135.256517 66.5009755,134.019531 C66.5009755,132.769525 66.222658,131.805993 65.6660146,131.128906 C65.1093712,130.45182 64.3134807,130.113281 63.2783193,130.113281 Z M83.9951163,138.541016 C83.2268833,139.003257 82.315434,139.234375 81.2607413,139.234375 C79.8349529,139.234375 78.6842482,138.770512 77.8085928,137.842773 C76.9329374,136.915034 76.4951163,135.712247 76.4951163,134.234375 C76.4951163,132.587231 76.9671168,131.264002 77.9111319,130.264648 C78.855147,129.265294 80.1149001,128.765625 81.6904288,128.765625 C82.5693394,128.765625 83.3440712,128.928384 84.0146475,129.253906 L84.0146475,130.894531 C83.2724563,130.373695 82.4781934,130.113281 81.631835,130.113281 C80.6096945,130.113281 79.7714867,130.479489 79.1171866,131.211914 C78.4628864,131.94434 78.1357413,132.906244 78.1357413,134.097656 C78.1357413,135.269537 78.4433554,136.194007 79.0585928,136.871094 C79.6738303,137.548181 80.4990173,137.886719 81.5341788,137.886719 C82.406579,137.886719 83.2268833,137.597008 83.9951163,137.017578 L83.9951163,138.541016 Z M95.2177726,139 L93.6162101,139 L93.6162101,133.238281 C93.6162101,131.154937 92.8414782,130.113281 91.2919913,130.113281 C90.5107374,130.113281 89.8531919,130.414385 89.3193351,131.016602 C88.7854782,131.618818 88.5185538,132.391922 88.5185538,133.335938 L88.5185538,139 L86.9169913,139 L86.9169913,124.195312 L88.5185538,124.195312 L88.5185538,130.660156 L88.5576163,130.660156 C89.3258493,129.397129 90.4195884,128.765625 91.8388663,128.765625 C94.0914818,128.765625 95.2177726,130.123033 95.2177726,132.837891 L95.2177726,139 Z M105.893554,139 L104.291991,139 L104.291991,137.4375 L104.252929,137.4375 C103.556311,138.635423 102.53093,139.234375 101.176757,139.234375 C100.180658,139.234375 99.4010437,138.970706 98.8378898,138.443359 C98.274736,137.916013 97.9931633,137.21615 97.9931633,136.34375 C97.9931633,134.475251 99.0934127,133.388022 101.293945,133.082031 L104.291991,132.662109 C104.291991,130.962882 103.605149,130.113281 102.231445,130.113281 C101.027011,130.113281 99.9397827,130.523433 98.9697258,131.34375 L98.9697258,129.703125 C99.9528036,129.078122 101.085605,128.765625 102.368163,128.765625 C104.718435,128.765625 105.893554,130.009102 105.893554,132.496094 L105.893554,139 Z M104.291991,133.941406 L101.879882,134.273438 C101.137691,134.377605 100.577801,134.561522 100.200195,134.825195 C99.8225885,135.088868 99.6337883,135.555986 99.6337883,136.226562 C99.6337883,136.714846 99.8079402,137.113605 100.156249,137.422852 C100.504558,137.732098 100.968421,137.886719 101.547851,137.886719 C102.342126,137.886719 102.998043,137.608401 103.515624,137.051758 C104.033205,136.495114 104.291991,135.790369 104.291991,134.9375 L104.291991,133.941406 Z M117.711913,139 L116.110351,139 L116.110351,133.296875 C116.110351,131.174469 115.335619,130.113281 113.786132,130.113281 C112.985347,130.113281 112.322919,130.414385 111.798827,131.016602 C111.274736,131.618818 111.012695,132.378902 111.012695,133.296875 L111.012695,139 L109.411132,139 L109.411132,129 L111.012695,129 L111.012695,130.660156 L111.051757,130.660156 C111.806969,129.397129 112.900708,128.765625 114.333007,128.765625 C115.426762,128.765625 116.263343,129.118812 116.842773,129.825195 C117.422203,130.531579 117.711913,131.552077 117.711913,132.886719 L117.711913,139 Z M129.764648,138.199219 C129.764648,141.871112 128.006853,143.707031 124.49121,143.707031 C123.254225,143.707031 122.173507,143.472659 121.249023,143.003906 L121.249023,141.402344 C122.375331,142.027347 123.449539,142.339844 124.471679,142.339844 C126.932629,142.339844 128.163085,141.031263 128.163085,138.414062 L128.163085,137.320312 L128.124023,137.320312 C127.3623,138.596361 126.216478,139.234375 124.686523,139.234375 C123.443027,139.234375 122.44206,138.790043 121.683593,137.901367 C120.925126,137.012691 120.545898,135.819669 120.545898,134.322266 C120.545898,132.623038 120.954422,131.27214 121.771484,130.269531 C122.588545,129.266922 123.706698,128.765625 125.125976,128.765625 C126.473639,128.765625 127.472978,129.305984 128.124023,130.386719 L128.163085,130.386719 L128.163085,129 L129.764648,129 L129.764648,138.199219 Z M128.163085,134.478516 L128.163085,133.003906 C128.163085,132.209631 127.894533,131.5293 127.357421,130.962891 C126.820309,130.396482 126.15137,130.113281 125.350585,130.113281 C124.360997,130.113281 123.586265,130.472978 123.026366,131.192383 C122.466468,131.911787 122.186523,132.919264 122.186523,134.214844 C122.186523,135.328131 122.455075,136.218421 122.992187,136.885742 C123.529299,137.553063 124.240555,137.886719 125.125976,137.886719 C126.024418,137.886719 126.755205,137.567712 127.318359,136.929688 C127.881512,136.291663 128.163085,135.474614 128.163085,134.478516 Z M141.543945,134.400391 L134.483398,134.400391 C134.50944,135.513677 134.808916,136.373044 135.381835,136.978516 C135.954755,137.583987 136.742507,137.886719 137.745117,137.886719 C138.871424,137.886719 139.90657,137.515629 140.850585,136.773438 L140.850585,138.277344 C139.971675,138.915368 138.809577,139.234375 137.364257,139.234375 C135.95149,139.234375 134.841475,138.780278 134.034179,137.87207 C133.226883,136.963863 132.823242,135.686206 132.823242,134.039062 C132.823242,132.483065 133.264318,131.215174 134.146484,130.235352 C135.02865,129.255529 136.124016,128.765625 137.432617,128.765625 C138.741217,128.765625 139.753576,129.188798 140.469726,130.035156 C141.185875,130.881515 141.543945,132.056633 141.543945,133.560547 L141.543945,134.400391 Z M139.90332,133.042969 C139.896809,132.118485 139.67383,131.399091 139.234374,130.884766 C138.794919,130.37044 138.184574,130.113281 137.40332,130.113281 C136.648108,130.113281 136.006838,130.383461 135.479492,130.923828 C134.952145,131.464195 134.626628,132.170569 134.502929,133.042969 L139.90332,133.042969 Z M143.860351,138.638672 L143.860351,136.919922 C144.732751,137.564456 145.693028,137.886719 146.74121,137.886719 C148.147467,137.886719 148.850585,137.417973 148.850585,136.480469 C148.850585,136.21354 148.790365,135.987306 148.669921,135.801758 C148.549478,135.61621 148.386719,135.451824 148.18164,135.308594 C147.976561,135.165364 147.735678,135.036784 147.458984,134.922852 C147.18229,134.808919 146.884441,134.690105 146.565429,134.566406 C146.122719,134.390624 145.733725,134.213217 145.398437,134.03418 C145.063149,133.855142 144.783204,133.653321 144.558593,133.428711 C144.333983,133.2041 144.164714,132.948569 144.050781,132.662109 C143.936848,132.37565 143.879882,132.040367 143.879882,131.65625 C143.879882,131.187498 143.987303,130.772463 144.202148,130.411133 C144.416993,130.049803 144.703448,129.747072 145.061523,129.50293 C145.419598,129.258788 145.828122,129.07487 146.287109,128.951172 C146.746095,128.827473 147.219724,128.765625 147.708007,128.765625 C148.573897,128.765625 149.348629,128.915363 150.032226,129.214844 L150.032226,130.835938 C149.296545,130.354164 148.4502,130.113281 147.493163,130.113281 C147.193683,130.113281 146.923503,130.147461 146.682617,130.21582 C146.44173,130.28418 146.235026,130.380208 146.062499,130.503906 C145.889973,130.627605 145.75651,130.775715 145.662109,130.948242 C145.567707,131.120769 145.520507,131.311197 145.520507,131.519531 C145.520507,131.779949 145.567707,131.998046 145.662109,132.173828 C145.75651,132.34961 145.894855,132.505859 146.077148,132.642578 C146.25944,132.779298 146.480792,132.902994 146.74121,133.013672 C147.001628,133.12435 147.297849,133.244791 147.629882,133.375 C148.072593,133.544272 148.469724,133.718424 148.821288,133.897461 C149.172853,134.076498 149.472329,134.278319 149.719726,134.50293 C149.967123,134.72754 150.157551,134.986327 150.291015,135.279297 C150.424479,135.572267 150.49121,135.920571 150.49121,136.324219 C150.49121,136.819013 150.382162,137.248696 150.164062,137.613281 C149.945962,137.977866 149.654624,138.280598 149.290038,138.521484 C148.925453,138.762371 148.505536,138.941406 148.030273,139.058594 C147.55501,139.175782 147.056968,139.234375 146.536132,139.234375 C145.507481,139.234375 144.615563,139.035809 143.860351,138.638672 Z M167.96582,139 L166.364257,139 L166.364257,137.300781 L166.325195,137.300781 C165.583004,138.58985 164.437182,139.234375 162.887695,139.234375 C161.631178,139.234375 160.626956,138.786788 159.875,137.891602 C159.123043,136.996415 158.74707,135.777351 158.74707,134.234375 C158.74707,132.580721 159.163732,131.255864 159.99707,130.259766 C160.830407,129.263667 161.940422,128.765625 163.327148,128.765625 C164.700853,128.765625 165.700192,129.305984 166.325195,130.386719 L166.364257,130.386719 L166.364257,124.195312 L167.96582,124.195312 L167.96582,139 Z M166.364257,134.478516 L166.364257,133.003906 C166.364257,132.196611 166.097333,131.513024 165.563476,130.953125 C165.029619,130.393226 164.352543,130.113281 163.532226,130.113281 C162.555659,130.113281 161.787437,130.471351 161.227539,131.1875 C160.66764,131.903649 160.387695,132.893223 160.387695,134.15625 C160.387695,135.308599 160.656247,136.218421 161.193359,136.885742 C161.730471,137.553063 162.451492,137.886719 163.356445,137.886719 C164.248376,137.886719 164.972653,137.564456 165.529296,136.919922 C166.08594,136.275387 166.364257,135.461593 166.364257,134.478516 Z M179.745117,134.400391 L172.68457,134.400391 C172.710612,135.513677 173.010088,136.373044 173.583007,136.978516 C174.155927,137.583987 174.943679,137.886719 175.946289,137.886719 C177.072596,137.886719 178.107742,137.515629 179.051757,136.773438 L179.051757,138.277344 C178.172847,138.915368 177.010749,139.234375 175.565429,139.234375 C174.152662,139.234375 173.042647,138.780278 172.235351,137.87207 C171.428055,136.963863 171.024414,135.686206 171.024414,134.039062 C171.024414,132.483065 171.46549,131.215174 172.347656,130.235352 C173.229822,129.255529 174.325188,128.765625 175.633789,128.765625 C176.942389,128.765625 177.954749,129.188798 178.670898,130.035156 C179.387047,130.881515 179.745117,132.056633 179.745117,133.560547 L179.745117,134.400391 Z M178.104492,133.042969 C178.097981,132.118485 177.875002,131.399091 177.435546,130.884766 C176.996091,130.37044 176.385746,130.113281 175.604492,130.113281 C174.84928,130.113281 174.20801,130.383461 173.680664,130.923828 C173.153317,131.464195 172.8278,132.170569 172.704101,133.042969 L178.104492,133.042969 Z M187.305664,138.902344 C186.928058,139.110678 186.430016,139.214844 185.811523,139.214844 C184.060212,139.214844 183.18457,138.238291 183.18457,136.285156 L183.18457,130.367188 L181.46582,130.367188 L181.46582,129 L183.18457,129 L183.18457,126.558594 L184.786132,126.041016 L184.786132,129 L187.305664,129 L187.305664,130.367188 L184.786132,130.367188 L184.786132,136.001953 C184.786132,136.672529 184.900064,137.15104 185.127929,137.4375 C185.355795,137.72396 185.733395,137.867188 186.260742,137.867188 C186.66439,137.867188 187.012694,137.756511 187.305664,137.535156 L187.305664,138.902344 Z M197.825195,134.400391 L190.764648,134.400391 C190.79069,135.513677 191.090166,136.373044 191.663086,136.978516 C192.236005,137.583987 193.023758,137.886719 194.026367,137.886719 C195.152675,137.886719 196.187821,137.515629 197.131836,136.773438 L197.131836,138.277344 C196.252925,138.915368 195.090827,139.234375 193.645508,139.234375 C192.23274,139.234375 191.122725,138.780278 190.315429,137.87207 C189.508134,136.963863 189.104492,135.686206 189.104492,134.039062 C189.104492,132.483065 189.545568,131.215174 190.427734,130.235352 C191.3099,129.255529 192.405267,128.765625 193.713867,128.765625 C195.022467,128.765625 196.034827,129.188798 196.750976,130.035156 C197.467126,130.881515 197.825195,132.056633 197.825195,133.560547 L197.825195,134.400391 Z M196.18457,133.042969 C196.17806,132.118485 195.95508,131.399091 195.515625,130.884766 C195.076169,130.37044 194.465824,130.113281 193.68457,130.113281 C192.929358,130.113281 192.288088,130.383461 191.760742,130.923828 C191.233396,131.464195 190.907878,132.170569 190.784179,133.042969 L196.18457,133.042969 Z M207.563476,138.541016 C206.795243,139.003257 205.883794,139.234375 204.829101,139.234375 C203.403313,139.234375 202.252608,138.770512 201.376953,137.842773 C200.501297,136.915034 200.063476,135.712247 200.063476,134.234375 C200.063476,132.587231 200.535477,131.264002 201.479492,130.264648 C202.423507,129.265294 203.68326,128.765625 205.258789,128.765625 C206.137699,128.765625 206.912431,128.928384 207.583008,129.253906 L207.583008,130.894531 C206.840816,130.373695 206.046554,130.113281 205.200195,130.113281 C204.178055,130.113281 203.339847,130.479489 202.685547,131.211914 C202.031247,131.94434 201.704101,132.906244 201.704101,134.097656 C201.704101,135.269537 202.011715,136.194007 202.626953,136.871094 C203.24219,137.548181 204.067377,137.886719 205.102539,137.886719 C205.974939,137.886719 206.795243,137.597008 207.563476,137.017578 L207.563476,138.541016 Z M215.124023,138.902344 C214.746417,139.110678 214.248375,139.214844 213.629883,139.214844 C211.878572,139.214844 211.00293,138.238291 211.00293,136.285156 L211.00293,130.367188 L209.28418,130.367188 L209.28418,129 L211.00293,129 L211.00293,126.558594 L212.604492,126.041016 L212.604492,129 L215.124023,129 L215.124023,130.367188 L212.604492,130.367188 L212.604492,136.001953 C212.604492,136.672529 212.718423,137.15104 212.946289,137.4375 C213.174155,137.72396 213.551755,137.867188 214.079101,137.867188 C214.482749,137.867188 214.831053,137.756511 215.124023,137.535156 L215.124023,138.902344 Z M225.643555,134.400391 L218.583008,134.400391 C218.60905,135.513677 218.908526,136.373044 219.481445,136.978516 C220.054365,137.583987 220.842117,137.886719 221.844726,137.886719 C222.971034,137.886719 224.00618,137.515629 224.950195,136.773438 L224.950195,138.277344 C224.071285,138.915368 222.909187,139.234375 221.463867,139.234375 C220.0511,139.234375 218.941085,138.780278 218.133789,137.87207 C217.326493,136.963863 216.922851,135.686206 216.922851,134.039062 C216.922851,132.483065 217.363928,131.215174 218.246094,130.235352 C219.12826,129.255529 220.223626,128.765625 221.532226,128.765625 C222.840827,128.765625 223.853186,129.188798 224.569336,130.035156 C225.285485,130.881515 225.643555,132.056633 225.643555,133.560547 L225.643555,134.400391 Z M224.00293,133.042969 C223.996419,132.118485 223.77344,131.399091 223.333984,130.884766 C222.894529,130.37044 222.284184,130.113281 221.50293,130.113281 C220.747717,130.113281 220.106448,130.383461 219.579101,130.923828 C219.051755,131.464195 218.726238,132.170569 218.602539,133.042969 L224.00293,133.042969 Z M237.100586,139 L235.499023,139 L235.499023,137.300781 L235.459961,137.300781 C234.71777,138.58985 233.571948,139.234375 232.022461,139.234375 C230.765944,139.234375 229.761722,138.786788 229.009766,137.891602 C228.257809,136.996415 227.881836,135.777351 227.881836,134.234375 C227.881836,132.580721 228.298498,131.255864 229.131836,130.259766 C229.965173,129.263667 231.075188,128.765625 232.461914,128.765625 C233.835619,128.765625 234.834958,129.305984 235.459961,130.386719 L235.499023,130.386719 L235.499023,124.195312 L237.100586,124.195312 L237.100586,139 Z M235.499023,134.478516 L235.499023,133.003906 C235.499023,132.196611 235.232099,131.513024 234.698242,130.953125 C234.164385,130.393226 233.487309,130.113281 232.666992,130.113281 C231.690425,130.113281 230.922203,130.471351 230.362305,131.1875 C229.802406,131.903649 229.522461,132.893223 229.522461,134.15625 C229.522461,135.308599 229.791013,136.218421 230.328125,136.885742 C230.865237,137.553063 231.586258,137.886719 232.491211,137.886719 C233.383142,137.886719 234.107419,137.564456 234.664062,136.919922 C235.220706,136.275387 235.499023,135.461593 235.499023,134.478516 Z M247.641602,126.460938 C247.355142,126.460938 247.111004,126.363282 246.90918,126.167969 C246.707356,125.972655 246.606445,125.725262 246.606445,125.425781 C246.606445,125.126301 246.707356,124.87728 246.90918,124.678711 C247.111004,124.480142 247.355142,124.380859 247.641602,124.380859 C247.934572,124.380859 248.183593,124.480142 248.388672,124.678711 C248.593751,124.87728 248.696289,125.126301 248.696289,125.425781 C248.696289,125.712241 248.593751,125.956379 248.388672,126.158203 C248.183593,126.360027 247.934572,126.460938 247.641602,126.460938 Z M248.422852,139 L246.821289,139 L246.821289,129 L248.422852,129 L248.422852,139 Z M260.46582,139 L258.864258,139 L258.864258,133.296875 C258.864258,131.174469 258.089526,130.113281 256.540039,130.113281 C255.739254,130.113281 255.076826,130.414385 254.552735,131.016602 C254.028643,131.618818 253.766602,132.378902 253.766602,133.296875 L253.766602,139 L252.165039,139 L252.165039,129 L253.766602,129 L253.766602,130.660156 L253.805664,130.660156 C254.560876,129.397129 255.654615,128.765625 257.086914,128.765625 C258.18067,128.765625 259.01725,129.118812 259.59668,129.825195 C260.17611,130.531579 260.46582,131.552077 260.46582,132.886719 L260.46582,139 Z M274.600586,138.902344 C274.22298,139.110678 273.724938,139.214844 273.106446,139.214844 C271.355135,139.214844 270.479492,138.238291 270.479492,136.285156 L270.479492,130.367188 L268.760742,130.367188 L268.760742,129 L270.479492,129 L270.479492,126.558594 L272.081055,126.041016 L272.081055,129 L274.600586,129 L274.600586,130.367188 L272.081055,130.367188 L272.081055,136.001953 C272.081055,136.672529 272.194986,137.15104 272.422852,137.4375 C272.650718,137.72396 273.028318,137.867188 273.555664,137.867188 C273.959312,137.867188 274.307616,137.756511 274.600586,137.535156 L274.600586,138.902344 Z M285.540039,139 L283.938477,139 L283.938477,133.238281 C283.938477,131.154937 283.163745,130.113281 281.614258,130.113281 C280.833004,130.113281 280.175459,130.414385 279.641602,131.016602 C279.107745,131.618818 278.840821,132.391922 278.840821,133.335938 L278.840821,139 L277.239258,139 L277.239258,124.195312 L278.840821,124.195312 L278.840821,130.660156 L278.879883,130.660156 C279.648116,129.397129 280.741855,128.765625 282.161133,128.765625 C284.413749,128.765625 285.540039,130.123033 285.540039,132.837891 L285.540039,139 Z M297.094727,134.400391 L290.03418,134.400391 C290.060222,135.513677 290.359698,136.373044 290.932618,136.978516 C291.505537,137.583987 292.29329,137.886719 293.295899,137.886719 C294.422207,137.886719 295.457352,137.515629 296.401368,136.773438 L296.401368,138.277344 C295.522457,138.915368 294.360359,139.234375 292.915039,139.234375 C291.502272,139.234375 290.392257,138.780278 289.584961,137.87207 C288.777666,136.963863 288.374024,135.686206 288.374024,134.039062 C288.374024,132.483065 288.8151,131.215174 289.697266,130.235352 C290.579432,129.255529 291.674799,128.765625 292.983399,128.765625 C294.291999,128.765625 295.304359,129.188798 296.020508,130.035156 C296.736658,130.881515 297.094727,132.056633 297.094727,133.560547 L297.094727,134.400391 Z M295.454102,133.042969 C295.447592,132.118485 295.224612,131.399091 294.785157,130.884766 C294.345701,130.37044 293.735356,130.113281 292.954102,130.113281 C292.19889,130.113281 291.55762,130.383461 291.030274,130.923828 C290.502927,131.464195 290.17741,132.170569 290.053711,133.042969 L295.454102,133.042969 Z M311.209961,130.621094 C310.930012,130.406249 310.52637,130.298828 309.999024,130.298828 C309.315427,130.298828 308.744143,130.621091 308.285157,131.265625 C307.82617,131.910159 307.59668,132.789057 307.59668,133.902344 L307.59668,139 L305.995118,139 L305.995118,129 L307.59668,129 L307.59668,131.060547 L307.635743,131.060547 C307.863608,130.357418 308.211912,129.808921 308.680665,129.415039 C309.149417,129.021157 309.6735,128.824219 310.25293,128.824219 C310.669599,128.824219 310.988606,128.869791 311.209961,128.960938 L311.209961,130.621094 Z M321.22168,134.400391 L314.161133,134.400391 C314.187175,135.513677 314.486651,136.373044 315.059571,136.978516 C315.63249,137.583987 316.420243,137.886719 317.422852,137.886719 C318.54916,137.886719 319.584306,137.515629 320.528321,136.773438 L320.528321,138.277344 C319.64941,138.915368 318.487312,139.234375 317.041993,139.234375 C315.629225,139.234375 314.51921,138.780278 313.711915,137.87207 C312.904619,136.963863 312.500977,135.686206 312.500977,134.039062 C312.500977,132.483065 312.942053,131.215174 313.824219,130.235352 C314.706385,129.255529 315.801752,128.765625 317.110352,128.765625 C318.418952,128.765625 319.431312,129.188798 320.147462,130.035156 C320.863611,130.881515 321.22168,132.056633 321.22168,133.560547 L321.22168,134.400391 Z M319.581055,133.042969 C319.574545,132.118485 319.351565,131.399091 318.91211,130.884766 C318.472655,130.37044 317.862309,130.113281 317.081055,130.113281 C316.325843,130.113281 315.684574,130.383461 315.157227,130.923828 C314.629881,131.464195 314.304363,132.170569 314.180665,133.042969 L319.581055,133.042969 Z M325.78418,137.554688 L325.745118,137.554688 L325.745118,143.599609 L324.143555,143.599609 L324.143555,129 L325.745118,129 L325.745118,130.757812 L325.78418,130.757812 C326.571945,129.429681 327.724277,128.765625 329.241212,128.765625 C330.530281,128.765625 331.53613,129.213212 332.25879,130.108398 C332.98145,131.003585 333.342774,132.203117 333.342774,133.707031 C333.342774,135.380217 332.935877,136.719721 332.122071,137.725586 C331.308265,138.73145 330.194995,139.234375 328.782227,139.234375 C327.486648,139.234375 326.487309,138.674485 325.78418,137.554688 Z M325.745118,133.521484 L325.745118,134.917969 C325.745118,135.744796 326.01367,136.446286 326.550782,137.022461 C327.087894,137.598636 327.769853,137.886719 328.59668,137.886719 C329.566737,137.886719 330.326821,137.515629 330.876954,136.773438 C331.427087,136.031246 331.702149,134.999356 331.702149,133.677734 C331.702149,132.564448 331.44499,131.69206 330.930665,131.060547 C330.416339,130.429033 329.719732,130.113281 328.840821,130.113281 C327.909827,130.113281 327.161136,130.437171 326.594727,131.084961 C326.028318,131.732751 325.745118,132.544917 325.745118,133.521484 Z M340.581055,139.234375 C339.103183,139.234375 337.923182,138.767257 337.041016,137.833008 C336.15885,136.898758 335.717774,135.660164 335.717774,134.117188 C335.717774,132.437492 336.176754,131.125656 337.094727,130.181641 C338.012701,129.237625 339.252923,128.765625 340.81543,128.765625 C342.306323,128.765625 343.470049,129.224605 344.306641,130.142578 C345.143234,131.060551 345.561524,132.333325 345.561524,133.960938 C345.561524,135.555998 345.110682,136.833654 344.208985,137.793945 C343.307288,138.754237 342.09799,139.234375 340.581055,139.234375 Z M340.698243,130.113281 C339.669592,130.113281 338.855798,130.463213 338.256837,131.163086 C337.657875,131.862959 337.358399,132.828119 337.358399,134.058594 C337.358399,135.243495 337.66113,136.177731 338.266602,136.861328 C338.872074,137.544925 339.682613,137.886719 340.698243,137.886719 C341.733404,137.886719 342.529295,137.551436 343.085938,136.880859 C343.642582,136.210283 343.920899,135.256517 343.920899,134.019531 C343.920899,132.769525 343.642582,131.805993 343.085938,131.128906 C342.529295,130.45182 341.733404,130.113281 340.698243,130.113281 Z M348.014649,138.638672 L348.014649,136.919922 C348.887049,137.564456 349.847326,137.886719 350.895509,137.886719 C352.301766,137.886719 353.004884,137.417973 353.004884,136.480469 C353.004884,136.21354 352.944663,135.987306 352.824219,135.801758 C352.703776,135.61621 352.541017,135.451824 352.335938,135.308594 C352.130859,135.165364 351.889976,135.036784 351.613282,134.922852 C351.336588,134.808919 351.038739,134.690105 350.719727,134.566406 C350.277017,134.390624 349.888023,134.213217 349.552735,134.03418 C349.217447,133.855142 348.937502,133.653321 348.712891,133.428711 C348.488281,133.2041 348.319012,132.948569 348.205079,132.662109 C348.091146,132.37565 348.03418,132.040367 348.03418,131.65625 C348.03418,131.187498 348.141601,130.772463 348.356446,130.411133 C348.571291,130.049803 348.857746,129.747072 349.215821,129.50293 C349.573896,129.258788 349.98242,129.07487 350.441407,128.951172 C350.900394,128.827473 351.374022,128.765625 351.862305,128.765625 C352.728195,128.765625 353.502927,128.915363 354.186524,129.214844 L354.186524,130.835938 C353.450843,130.354164 352.604498,130.113281 351.647462,130.113281 C351.347981,130.113281 351.077801,130.147461 350.836915,130.21582 C350.596028,130.28418 350.389325,130.380208 350.216798,130.503906 C350.044271,130.627605 349.910809,130.775715 349.816407,130.948242 C349.722005,131.120769 349.674805,131.311197 349.674805,131.519531 C349.674805,131.779949 349.722005,131.998046 349.816407,132.173828 C349.910809,132.34961 350.049153,132.505859 350.231446,132.642578 C350.413739,132.779298 350.635091,132.902994 350.895509,133.013672 C351.155927,133.12435 351.452148,133.244791 351.78418,133.375 C352.226891,133.544272 352.624022,133.718424 352.975587,133.897461 C353.327151,134.076498 353.626627,134.278319 353.874024,134.50293 C354.121421,134.72754 354.311849,134.986327 354.445313,135.279297 C354.578777,135.572267 354.645509,135.920571 354.645509,136.324219 C354.645509,136.819013 354.53646,137.248696 354.31836,137.613281 C354.10026,137.977866 353.808922,138.280598 353.444337,138.521484 C353.079752,138.762371 352.659834,138.941406 352.184571,139.058594 C351.709308,139.175782 351.211266,139.234375 350.69043,139.234375 C349.661779,139.234375 348.769861,139.035809 348.014649,138.638672 Z M358.426759,126.460938 C358.140299,126.460938 357.896161,126.363282 357.694337,126.167969 C357.492513,125.972655 357.391602,125.725262 357.391602,125.425781 C357.391602,125.126301 357.492513,124.87728 357.694337,124.678711 C357.896161,124.480142 358.140299,124.380859 358.426759,124.380859 C358.719729,124.380859 358.96875,124.480142 359.173829,124.678711 C359.378908,124.87728 359.481446,125.126301 359.481446,125.425781 C359.481446,125.712241 359.378908,125.956379 359.173829,126.158203 C358.96875,126.360027 358.719729,126.460938 358.426759,126.460938 Z M359.208009,139 L357.606446,139 L357.606446,129 L359.208009,129 L359.208009,139 Z M367.588868,138.902344 C367.211262,139.110678 366.71322,139.214844 366.094727,139.214844 C364.343417,139.214844 363.467774,138.238291 363.467774,136.285156 L363.467774,130.367188 L361.749024,130.367188 L361.749024,129 L363.467774,129 L363.467774,126.558594 L365.069337,126.041016 L365.069337,129 L367.588868,129 L367.588868,130.367188 L365.069337,130.367188 L365.069337,136.001953 C365.069337,136.672529 365.183268,137.15104 365.411134,137.4375 C365.638999,137.72396 366.0166,137.867188 366.543946,137.867188 C366.947594,137.867188 367.295898,137.756511 367.588868,137.535156 L367.588868,138.902344 Z M374.250977,139.234375 C372.773106,139.234375 371.593104,138.767257 370.710938,137.833008 C369.828773,136.898758 369.387696,135.660164 369.387696,134.117188 C369.387696,132.437492 369.846676,131.125656 370.764649,130.181641 C371.682623,129.237625 372.922845,128.765625 374.485352,128.765625 C375.976245,128.765625 377.139971,129.224605 377.976563,130.142578 C378.813156,131.060551 379.231446,132.333325 379.231446,133.960938 C379.231446,135.555998 378.780604,136.833654 377.878907,137.793945 C376.97721,138.754237 375.767912,139.234375 374.250977,139.234375 Z M374.368165,130.113281 C373.339514,130.113281 372.52572,130.463213 371.926759,131.163086 C371.327797,131.862959 371.028321,132.828119 371.028321,134.058594 C371.028321,135.243495 371.331053,136.177731 371.936524,136.861328 C372.541996,137.544925 373.352535,137.886719 374.368165,137.886719 C375.403326,137.886719 376.199217,137.551436 376.75586,136.880859 C377.312504,136.210283 377.590821,135.256517 377.590821,134.019531 C377.590821,132.769525 377.312504,131.805993 376.75586,131.128906 C376.199217,130.45182 375.403326,130.113281 374.368165,130.113281 Z M387.504884,130.621094 C387.224934,130.406249 386.821293,130.298828 386.293946,130.298828 C385.610349,130.298828 385.039066,130.621091 384.580079,131.265625 C384.121092,131.910159 383.891603,132.789057 383.891603,133.902344 L383.891603,139 L382.29004,139 L382.29004,129 L383.891603,129 L383.891603,131.060547 L383.930665,131.060547 C384.158531,130.357418 384.506835,129.808921 384.975587,129.415039 C385.444339,129.021157 385.968423,128.824219 386.547853,128.824219 C386.964521,128.824219 387.283529,128.869791 387.504884,128.960938 L387.504884,130.621094 Z M398.502931,129 L393.903321,140.601562 C393.083005,142.671885 391.930673,143.707031 390.44629,143.707031 C390.029621,143.707031 389.681318,143.664714 389.401368,143.580078 L389.401368,142.144531 C389.746422,142.261719 390.062174,142.320312 390.348634,142.320312 C391.15593,142.320312 391.761392,141.838546 392.16504,140.875 L392.965821,138.980469 L389.059571,129 L390.836915,129 L393.541993,136.695312 C393.574545,136.792969 393.642904,137.046873 393.747071,137.457031 L393.805665,137.457031 C393.838217,137.300781 393.903321,137.053387 394.000978,136.714844 L396.842774,129 L398.502931,129 Z" opacity=".8"/>
    <g transform="translate(156 1)">
      <path fill="#252527" fill-rule="nonzero" d="M7.36633914,35.81176 C7.36633914,35.81176 16.8372975,61.7867432 17.5987178,66.3100243 C18.360138,70.8333054 22.2487962,81.3533555 22.99083,81.4798738 C23.2412842,81.5225768 24.0431188,80.4381488 24.5185417,71.8675177 C24.654058,69.4245117 24.0522064,61.7922446 25.6371617,59.2208242 C28.6540396,54.3262625 30.2711303,30.8811387 34.708512,26.0420398 C37.6082966,22.8797371 42.1151635,22.0410995 46.0405387,20.2279683 C50.7970754,18.0309235 54.9601285,15.2357988 57.7255984,15.8587656 C58.7742398,16.094989 56.7104376,23.9006757 57.7255984,23.8846523 C58.7407593,23.8686289 71.7785492,19.158074 71.905564,18.2270459 C72.0325788,17.2960178 70.4759791,0.0798425685 70.4759791,0.0798425685 C70.4759791,0.0798425685 59.1816899,2.80415967 55.882982,5.17028632 C52.5842741,7.53641298 22.3667863,23.8846523 22.3667863,23.8846523 L7.36633914,35.81176 Z" opacity=".5"/>
      <path fill="#252527" fill-rule="nonzero" d="M67.2965519,79.342723 C67.5772919,77.3414208 68.2028809,73.2710191 69.1733188,67.1315177 L65.1337128,65.0233635 L23.5048271,81.7237992 L14.5979032,60.8702958 C9.91328234,61.8843429 14.2316472,59.981395 8.59806814,63.8470437 C-14.1934308,79.486112 13.8448022,92.8405976 29.0328494,96.2448168 C47.5830625,100.402625 69.8796882,102.415954 88.0946486,95.2336222 C95.1517491,92.4509405 108.339207,86.8340699 109.684801,77.695904 C109.686169,77.6866123 110.246227,71.6219328 108.93712,70.4813811 C104.706925,66.7958496 100.273961,63.307376 95.5480597,60.2918437 C94.0445769,59.3324922 92.1498127,59.2209119 90.4506892,58.685446 C92.1456556,64.2605607 93.2529406,68.5349229 93.772544,71.5085326 C93.9911305,72.7594692 93.9911305,74.8219263 93.772544,77.695904 C91.710366,77.3388931 90.1438515,77.0342852 89.0730005,76.7820803 C84.4356683,75.6899041 81.7981276,73.7246784 81.5004598,73.4507725 C81.223425,73.1958524 79.4366303,76.6496728 74.7407507,83.1831762 C73.3424589,85.1286573 70.5710191,88.6191834 66.4264314,93.6547545" opacity=".5"/>
      <path fill="#2D2D30" fill-rule="nonzero" d="M96.948,6.197 L57.786,23.727 L58.103,16.46 L56.365,15.932 L34.987,26.347 L25.834,57.749 L24.016,81.652 L64.618,64.965 C59.3588463,64.1763211 57.081513,62.485915 57.786,59.8937818 C58.2557303,58.1654271 63.1919515,54.6666934 72.5946638,49.3975806 C74.8887623,48.1120086 77.2632147,25.634833 80.0890715,24.1384885 C81.3439517,23.4740057 83.7363883,29.1412103 85.1457401,34.0736351 C86.3565341,38.3111503 86.5715759,41.940423 87.8171458,41.3031707 C88.3020922,41.0550649 89.0427103,40.6776746 90.039,40.171 L96.948,6.197 Z" opacity=".5"/>
      <path fill="#252527" fill-rule="nonzero" d="M73.5856929,48.273079 L78.1777081,29.5031775 C78.1777081,29.5031775 75.337371,25.4841944 73.5856929,26.616182 C71.8340148,27.7481695 68.2490853,43.0498809 67.4341334,45.1727473 C66.6191816,47.2956137 46.4159475,58.9846321 46.8862622,60.6412943 C47.3565768,62.2979565 58.1488343,67.9684187 58.1488343,67.9684187 L65.219274,65.1803497 C63.1749372,64.4604351 61.6494673,63.7678851 60.6428643,63.1026999 C59.6362613,62.4375147 58.5875783,61.4290082 57.4968152,60.0771804 C61.0049145,57.1567654 63.5790675,55.0948638 65.219274,53.8914756 C66.8594806,52.6880875 69.6482869,50.8152886 73.5856929,48.273079 Z" opacity=".5"/>
      <path stroke="#81BFF1" stroke-width="1.406" d="M7.16950161,36.1543333 C9.31136504,42.7672674 10.8458443,48.9596248 14.1134424,59.2264061 C17.3810405,69.4931873 20.7089272,75.8848317 22.6236198,81.5466517 M23.5244725,82.1137764 C26.4440225,50.0638778 23.7783583,67.2584291 32.716847,30.7291667" stroke-linecap="round" stroke-linejoin="round"/>
      <path stroke="#81BFF1" stroke-width="1.406" d="M32.3084745,31.4532265 C35.3480166,25.4128015 33.5904477,25.8164893 39.7743819,23.3254615 C42.8459004,22.0881848 41.7598091,21.9365896 48.2414271,19.206589 C54.723045,16.4765883 55.7752759,15.2004795 57.9933389,15.9431747 L32.3084745,31.4532265 Z M58.2905983,15.9972858 C58.0953414,20.1266628 57.815233,19.8735593 57.6199761,24.0029362 L58.2905983,15.9972858 Z M57.986175,23.9006946 C57.986175,23.9006946 64.2785893,22.0052207 67.2314036,20.5930898 C76.6405063,16.0933538 88.2138991,10.3167778 97.3787295,5.33951841 L57.986175,23.9006946 Z M7.17388222,35.9019417 C26.2483419,21.009924 46.4559172,10.2141269 68.4011084,0.0275088028 L7.17388222,35.9019417 Z M68.6324786,0.469483568 C69.7746394,5.38466695 71.2047522,12.6194965 72.346913,17.5346799 L68.6324786,0.469483568 Z M90.5166724,39.9376996 C90.5166724,39.9376996 93.7028926,24.8118344 97.2287778,5.44788382 L90.5166724,39.9376996 Z" stroke-linecap="round" stroke-linejoin="round"/>
      <path fill="#46464C" fill-rule="nonzero" d="M80.0611976,23.952245 L73.8142557,47.1827445 L72.9950612,48.3137024 L57.61516,59.5721979 L69.3236732,66.626815 L66.434906,93.1230308 C66.434906,93.1230308 80.8416185,72.2379366 81.1207331,72.2379366 C81.3998477,72.2379366 93.0198142,77.6949866 93.2989288,77.3118671 C93.5780434,76.9287476 90.2743166,58.0424662 90.2743166,58.0424662 L102.50476,34.829818 C102.50476,34.829818 87.4199231,42.4084438 87.4199231,42.163467 C87.4199231,41.9184902 80.0611976,23.952245 80.0611976,23.952245 Z" opacity=".3"/>
      <path stroke="#81BFF1" stroke-width="1.406" d="M82.3996236,74.0379241 C81.470287,73.5830457 80.2917222,73.9477246 79.7733754,74.8365889 C79.7733754,74.8365889 76.7262821,80.1325245 75.0628912,82.5502096 C73.3995002,84.9678947 67.2053193,93.0873219 67.2053193,93.0873219 C66.2681484,94.3200331 65.6001521,94.0731582 65.7257789,92.5086054 C65.7257789,92.5086054 66.3845658,82.4226615 67.753001,77.58492 C69.1214361,72.7471785 69.5890098,68.6140515 69.5890098,68.6140515 C69.7305261,67.5918471 69.0412344,66.5057242 68.0612095,66.1850875 C68.0612095,66.1850875 65.7076218,65.4587708 64.5002296,64.8910228 C63.2928373,64.3232747 58.8631866,61.8206932 58.8631866,61.8206932 C57.5084707,61.0613028 57.4005895,59.6763633 58.6345519,58.7222295 C58.6345519,58.7222295 62.4536939,55.7344168 64.5002296,54.3078953 C66.5467653,52.8813737 71.626437,49.7249538 71.626437,49.7249538 C72.5056083,49.1753284 73.4848758,47.9297377 73.8047327,46.9496789 C73.8047327,46.9496789 75.8911634,40.8493825 76.6392368,36.6887565 C77.3873102,32.5281306 79.5053626,24.7790407 79.5053626,24.7790407 C79.9053265,23.2805193 80.7450714,23.2105362 81.3833888,24.636524 C81.3833888,24.636524 84.0166632,30.4367329 85.073596,33.2192511 C86.1305287,36.0017692 86.9760665,40.246792 86.9760665,40.246792 C87.1934695,41.255399 88.1130339,41.6937889 89.0392838,41.2212118 L94.9775562,38.1914763 L101.582073,34.5713657 C102.944445,33.8246134 103.532259,34.3622703 102.876681,35.785139 C102.876681,35.785139 99.3348403,43.8196717 96.7512913,47.3354898 C94.1677423,50.8513079 91.2651576,56.6135736 91.2651576,56.6135736 C90.7899943,57.527629 90.6551875,59.0703608 90.962361,60.0651496 C90.962361,60.0651496 92.1927599,63.9433082 92.6331809,65.9026576 C93.073602,67.862007 94.4589047,75.7263772 94.4589047,75.7263772 C94.7305164,77.2540509 93.7332928,78.1506254 92.2457057,77.7267828 C92.2457057,77.7267828 88.7588941,76.7718653 87.005445,76.1216504 C85.2519959,75.4714355 82.3996236,74.0379241 82.3996236,74.0379241 Z M64.4867508,65.0162151 L23.7730244,82.0814114 L64.4867508,65.0162151 Z" stroke-linecap="round" stroke-linejoin="round"/>
    </g>
  </g>
</svg>
