<svg xmlns="http://www.w3.org/2000/svg" width="780" height="138" viewBox="0 0 780 138" xmlns:xlink="http://www.w3.org/1999/xlink">
  <defs>
    <rect id="a" width="370" height="135"/>
    <path id="c" d="M0.179599462,30.0633053 C1.31441986,29.5827647 7.90237632,22.1440377 7.90237632,22.1440377 C7.90237632,22.1440377 5.58723239,19.5962073 5.6523846,18.4806913 C5.7175368,17.3651752 5.73304923,13.9252078 4.4441387,12.832788 C3.15522816,11.7403683 -0.118928626,10.7513647 1.82426171,8.61547553 C3.76745205,6.47958635 6.28391284,6.28585334 7.41873324,7.77090993 C8.55355364,9.25596651 10.246081,12.706815 11.0996094,12.360026 C11.9531377,12.0132371 14.7716248,6.17209552 15.3407586,4.62154201 C15.9098924,3.0709885 15.5055351,-0.512037993 18.2622662,0.0615771781 C21.0189973,0.63519235 18.1040963,9.43793619 18.5877394,9.72233073 C19.0713825,10.0067253 24.1366509,-0.213509905 26.3152854,2.20401605 C28.49392,4.62154201 23.5444208,10.7651535 24.0284086,11.297747 C24.5123964,11.8303404 31.5264276,5.06726582 33.0797389,7.77090993 C34.6330501,10.474554 26.989559,13.4139871 27.3818511,14.5719037 C27.7741432,15.7298204 37.0095543,11.3466973 37.0095543,13.9269314 C37.0095543,14.7620097 37.8327473,16.1117709 35.8119948,16.942203 C33.7912423,17.772635 30.3401693,16.942203 28.49392,19.455906 C26.6476707,21.969609 28.9430855,19.455906 25.9319475,25.161944 C22.9208095,30.867982 21.2445015,29.9981531 18.5877394,30.0633053 C15.9309773,30.1284575 12.6627604,43.3229167 12.6627604,43.3229167 L0,30.6293366"/>
    <path id="d" d="M0.116533649,0.18105866 C0.116533649,0.18105866 1.47488753,5.80470241 1.75045273,10.6013448 C2.02601793,15.3979873 -0.327268634,21.236664 5.28348223,23.1447264 C6.3613445,23.5066353 7.90348463,23.3615271 8.83398798,23.3931958 C9.76449132,23.4248645 11.3696105,23.4633684 12.1397699,23.2743645 C17.2864758,22.0113173 19.7314931,16.7271941 25.5810182,17.0716804 C31.6362411,17.4282806 34.0811248,22.6766559 36.946078,23.2743645 C38.852891,23.6721784 39.319057,23.3931958 40.6482265,23.3931958 C41.9773959,23.3931958 42.9699649,23.3135998 43.5294718,23.1447264 C47.0524065,22.0814155 45.6567688,16.4633657 45.6567688,12.6371342 C45.6567688,8.81090269 46.7211285,0.993248525 46.7211285,0.993248525 L0.116533649,0.18105866 Z"/>
    <path id="e" d="M16.5359713,47.292733 C16.5359713,47.292733 13.9592886,49.8735203 11.0688038,53.6036031 C8.17821824,57.3336859 4.23474372,63.144423 4.23474372,63.144423 L8.88185623,61.5972439 C8.88185623,61.5972439 7.73953968,63.1626096 6.69500938,64.4337557 C5.65047907,65.7049018 5.05479871,67.0123202 5.05479871,67.0123202 L8.06180125,66.7544738 C8.06180125,66.7544738 5.91725123,70.7229028 5.05479871,75.005961 C4.19244689,79.2891201 4.50806182,85.0624735 4.50806182,85.0624735 C4.50806182,85.0624735 0.282809839,88.2691848 3.41468874,89.1883181 C6.54656764,90.1073504 7.51506436,88.4146781 7.51506436,88.4146781 C7.51506436,88.4146781 7.39532405,92.2426657 10.5220669,92.024729 C13.6488098,91.8067922 13.5290695,89.4461645 13.5290695,89.4461645 C13.5290695,89.4461645 13.7654282,92.2673187 16.5359713,92.024729 C19.3065144,91.7821392 19.269555,89.7040108 19.269555,89.7040108 C19.269555,89.7040108 20.7706897,92.7010704 23.6433495,91.5090363 C26.5161099,90.3170021 23.2584483,87.0225907 23.6433495,82.9996018 C24.0282506,78.9766128 25.3384453,78.4464718 26.9236701,77.0688328 C28.5089956,75.6911937 29.3839357,73.2009355 29.3839357,73.2009355 L16.5359713,47.292733 Z"/>
    <path id="f" d="M26.5905069,11.1459942 C27.2692703,10.4166083 29.2132125,8.27482667 30.9371105,7.032173 C33.0180138,5.53207713 34.5625531,4.60728576 34.5625531,4.60728576 L36.2544263,7.75963917 C36.2544263,7.75963917 38.5046177,6.25418834 38.9130843,4.36479703 C39.3215508,2.47530469 38.9130843,0 38.9130843,0 C38.9130843,0 41.3310531,0.455676727 42.7802231,2.66737596 C44.2292924,4.87897416 44.3688719,7.64324458 46.8890581,8.97208279 C48.1164718,9.61922457 49.639057,10.3934709 50.878052,11.0173741 C64.880015,15.9708125 74.9258145,29.3691228 74.9258145,45.1029027 C74.9258145,65.0440639 58.7889693,81.2337225 38.9130843,81.2337225 C19.0370986,81.2337225 2.90035411,65.0440639 2.90035411,45.1029027 C2.90035411,44.8862794 2.90226754,44.6700603 2.90609439,44.4543464 L0.966784703,45.1029027 L3.37297084,39.2401315 C3.49361751,38.4995306 3.63672179,37.7665074 3.80157872,37.0418702 L0,38.3132184 C0,38.3132184 2.27013133,33.6217688 4.35053116,30.5535792 C5.55105621,28.7828053 7.37838,25.824645 8.70921957,24.4596355 C12.9359821,17.9448728 19.1993371,13.8496424 26.5905069,11.1459942 Z"/>
    <path id="g" d="M26.287964,0.503114181 C40.1000948,0.567070582 51.2674651,5.39451589 51.2674651,11.3314482 C51.2674651,17.3080879 39.9500417,22.1603883 26.0102148,22.1603883 C12.0702871,22.1603883 0.752964427,17.3080879 0.752964427,11.3314482 C0.752964427,6.5233009 8.07736562,2.44292294 18.1994,1.03113338 C18.728614,1.77597791 19.5254057,2.70895327 20.5720508,3.41237265 C22.6226415,4.79061793 27.0978476,6.56472606 27.0978476,6.56472606 C27.0978476,6.56472606 25.3342711,4.82941613 25.4059743,2.9273952 C25.4420274,1.96926163 25.8710381,1.11499406 26.287964,0.503114181 Z"/>
    <path id="h" d="M36.2983139,2.19939809 C42.7951071,0.421147452 46.4493519,-1.50613272 46.4057459,1.79949377 C46.3676787,4.67662248 36.0088828,13.8026856 23.202913,13.8026856 C10.3968426,13.8026856 -0.0333544789,5.16170097 8.01587541e-05,2.28447122 C0.0329105559,-0.551232331 3.72260409,1.07758463 10.2909998,2.55878659 C11.1843693,4.2880343 12.3687812,6.24956601 12.997997,6.28553517 C13.5918646,6.31938255 15.0769869,4.91163447 16.2882876,3.64372156 C18.4134012,3.92197737 20.7230096,4.10313665 23.202913,4.10313665 C25.6499861,4.10313665 27.9346192,3.89116109 30.0414042,3.56359924 C31.2659981,4.85151748 32.8016752,6.32008981 33.4080305,6.28553517 C34.0813558,6.24714112 35.390342,4.00361524 36.2983139,2.19939809 Z"/>
    <path id="j" d="M0,5.71242812 C1.26175474,2.43398057 5.88187785,0 11.3815736,0 C15.7118627,0 19.4968248,1.50888609 21.5265692,3.75079538 C17.7827961,5.56349962 13.2385052,6.90133012 8.33539615,6.90133012 C5.39959327,6.90133012 2.58866675,6.44716895 0,5.71242812 Z"/>
  </defs>
  <g fill="none" fill-rule="evenodd">
    <rect width="780" height="138"/>
    <g transform="translate(223 39)">
      <text fill="#163244" font-family="SegoeUI, Segoe UI" font-size="20">
        <tspan x="54.614" y="22">Welcome to gmaster!</tspan>
      </text>
      <text fill="#6189AA" font-family="Lato-Light, Lato" font-size="16" font-weight="300">
        <tspan x=".548" y="47">I’m going to help you find your local Git repos first</tspan>
      </text>
    </g>
    <g transform="translate(410)">
      <mask id="b" fill="white">
        <use xlink:href="#a"/>
      </mask>
      <g transform="translate(108 9)" opacity=".5" mask="url(#b)">
        <g transform="translate(120.23)">
          <path stroke="#81BFF1" d="M24.2310605 78.7663726C21.2572817 69.767762 22.4220602 74.7232733 21.1965099 63.7991985M25.300584 63.8074557C26.9519998 69.7380968 26.6097209 72.4768937 29.7294325 73.495565 32.8491441 74.5142363 47.8618179 59.4224945 55.2745516 52.871078M49.1756002 67.8560369L58.3097373 56.7024307M50.043159 67.4514328C73.1234265 67.0631182 64.5480337 71.8398194 77.4443002 56.6649556M47.1527781 74.1975861C70.4775031 75.1391565 68.2737398 76.6392613 80.7398806 57.6462951M38.5387953 91.4374028C34.1051596 83.8407789 41.8791509 81.353435 48.0197019 74.4630877M11.6578084 90.7787302C20.7267635 84.1648255 16.5624266 87.8960809 24.1446857 79.5781213M23.6531114 44.1196892C23.8993299 41.060016 23.4677227 42.8232971 25.8791683 39.1494746M26.1389279 43.9570854L28.9137189 39.3571756M26.8703205 5.95820981C32.2237982.49986751 33.7823188.0252452803 50.0801105.516880931 66.3779021 1.00851658 66.1442174-.0624976241 70.7080144 5.69798923" stroke-linecap="round" stroke-linejoin="round"/>
          <path stroke="#81BFF1" d="M26.2719366,6.01808643 C24.1068019,5.97502334 9.55019523,6.01808643 9.55019523,6.01808643 C9.55019523,6.01808643 2.73690278,8.75784666 1.89579951,15.4404018 C1.05469625,22.122957 7.41070554,25.3139588 7.41070554,25.3139588 C7.41070554,25.3139588 3.66117786,29.7415294 6.91620543,34.9194012 C10.3932813,40.4504919 19.6007547,39.0245074 25.7936178,39.1020263 C31.9864808,39.1795452 46.2762137,41.1504542 48.7771933,29.7415294" stroke-linecap="round" stroke-linejoin="round"/>
          <path stroke="#81BFF1" d="M33.9667855 29.6823001C36.1929667 29.6616442 42.6915911 29.6826039 49.4284901 29.6823001 56.1653891 29.6819964 63.2096063 30.6652478 64.2410015 26.4424892M60.7898567 26.4052686C74.2731833 26.2275806 92.3736249 26.4720319 105.850209 26.0100828 106.471483 25.9887868 110.263816 26.0100828 109.831129 22.6427508 109.398441 19.2754188 105.680125 19.984183 105.067358 19.9317961 99.8575026 19.486393 96.2008239 20.1629291 91.0368881 19.3414449 88.4519999 18.9302383 91.0368881 11.6503732 86.9588803 8.26912393 82.5403027 4.60549377 78.3612184 6.51582568 71.709636 5.80350155M8.25892857 43.8154496C4.52393804 45.2762087 4.48997487 47.7897878 6.09937409 48.3829033 7.70877331 48.9760189 18.748731 48.0094762 20.5130168 49.4613299 21.6327618 50.3827827 20.7764615 51.4914813 20.5130168 51.7366417 15.2811585 56.6053841 4.50625166 48.1600877.320065845 54.7181741-.181299456 55.5036139.0719896602 57.5620276.884469114 58.0181853L9.20165032 58.4881359C13.9402838 61.14859 10.1558106 63.5693248 15.7508642 63.524893 24.7260276 63.4536189 29.984843 63.3364028 38.9237608 62.5273808 40.1623561 62.415281 42.515994 61.9435753 42.2995007 60.0080313 42.2639503 59.690195 41.6486297 58.7334893 41.957752 58.6515829 42.1110643 58.6109606 48.8373877 59.3995553 48.3244409 55.2868402 48.2139257 54.4007494 47.2402947 52.664244 44.1266916 52.664244 39.9908388 52.664244 37.1109197 53.209849 33.0030281 53.1024761 32.3565575 53.0855786 31.7524021 52.615108 31.3237342 52.1308565 31.0721299 51.8466276 31.0451848 51.3715113 31.1470345 51.0058232 32.4333797 46.3872439 39.9985698 51.3377447 41.1771667 45.5046177 41.2779081 45.0060272 41.0672966 44.2979566 40.6027311 44.090882 39.2587507 43.4918189 37.7285804 43.3530082 36.257732 43.3118386 27.6301988 43.0703504 18.9959672 43.2669581 10.3650848 43.2445178L8.25892857 43.8154496zM68.5869714 33.7409644C63.3121236 34.1261315 53.7648458 31.9774097 49.9995277 38.2242673 49.293754 39.3951824 50.5014168 41.3127707 49.5577786 42.3020274 48.5564548 43.3517582 42.4406239 40.7744137 43.2393099 45.2929458 43.3561764 45.9541135 44.1158163 46.4545117 44.7710304 46.6008455 47.9673643 47.3147062 51.271161 47.4086945 54.5212263 47.8126189M54.3888634 48.6777553C54.3888634 59.8937802 67.4028248 56.1781928 81.2093456 56.5895614 95.0158664 57.00093 99.8951715 57.7411346 103.110717 51.5346795" stroke-linecap="round" stroke-linejoin="round"/>
          <rect width="5.379" height="1.9" x="13.259" y="15" stroke="#81BFF1" rx=".95"/>
          <rect width="5.379" height="1.9" x="37.616" y="9.78" stroke="#81BFF1" rx=".95"/>
          <rect width="5.379" height="1.9" x="54.434" y="17.9" stroke="#81BFF1" rx=".95"/>
          <rect width="5.379" height="1.9" x="68.353" y="46.9" stroke="#81BFF1" rx=".95"/>
          <rect width="5.379" height="1.9" x="98.509" y="41.68" stroke="#81BFF1" rx=".95"/>
          <rect width="5.379" height="1.9" x="82.851" y="37.04" stroke="#81BFF1" rx=".95"/>
          <rect width="5.379" height="1.9" x="31.237" y="21.96" stroke="#81BFF1" rx=".95"/>
          <rect width="5.379" height="1.9" x="19.058" y="31.24" stroke="#81BFF1" rx=".95"/>
          <rect width="5.379" height="1.9" x="23.118" y="53.371" stroke="#81BFF1" rx=".95"/>
          <rect width="5.379" height="1.9" x="72.992" y="12.1" stroke="#81BFF1" rx=".95"/>
          <path stroke="#81BFF1" d="M103.926577 51.6903587C110.089813 51.5489204 110.748233 52.1376152 116.896849 51.6903587 126.088803 51.0217268 118.051252 50.224288 125.229564 48.2269005 128.023585 47.4494555 129.437847 48.3648992 132.288812 47.8330094 132.569443 47.7806535 134.324418 47.1542997 133.891731 45.6159559 133.459043 44.0776121 131.333469 43.2445178 131.333469 43.2445178 131.333469 43.2445178 124.205443 43.1924202 118.704622 42.5719577 116.126404 42.2811487 119.992587 36.5491526 116.539566 35.1760615 111.00906 32.9768599 104.451684 35.1644469 98.9831942 33.9545783 97.5217426 33.6312415 97.059991 31.5877102 95.7870665 30.8002129 92.8024741 28.953789 92.5378642 30.0781332 85.2446348 29.688126 77.9514054 29.2981188 71.2387002 28.2509 68.0973256 33.6373941M27.7497735 89.6153238C30.8986518 87.0921983 37.7752131 79.1384246 40.9240914 76.6152991M22.9556628 86.1951143L30.7913294 78.7302386M39.45924 70.0056882C42.6252975 67.0761703 49.9760783 60.3489369 53.1421358 57.4194191L39.45924 70.0056882zM47.5964853 72.0127284C52.1949237 72.814906 57.0343419 72.4730958 61.3173262 72.2109135M66.0890662 72.1781174C71.1796956 70.2683281 70.0568794 69.6245007 72.7716543 66.693378M23.2133498 66.2665952C23.2133498 71.568104 24.1108179 72.7398923 24.7079343 74.4680747" stroke-linecap="round" stroke-linejoin="round"/>
        </g>
        <g transform="translate(130.5 80.91)" stroke-linecap="round" stroke-linejoin="round">
          <path stroke="#81BFF1" d="M.0140162338 34.854617C8.45443485 34.2237591 4.50837388 33.7123732 11.8976162 35.9829128M5.47543841 33.8800388C9.54981775 22.6858699 16.4178821 21.1222346 27.6810722 23.108182"/>
          <path stroke="#81BFF1" d="M26.6429922 23.0218368C29.6507353 16.2526539 31.7196093 11.7151356 39.6458628 10.2679119 48.9968751 8.560547 58.4752768 19.8675103 52.5787549 28.6540233 45.9349827 38.5540273 30.824378 33.8029584 33.9625196 26.7900507 36.6816938 20.7134233 48.858622 21.2507877 44.449641 27.8714956M54.7430648 23.6130886C61.458905 21.545972 64.9164395 23.1588863 64.4032017 30.6902992M64.9483387 30.1621607C74.1241364 17.0193708 95.8411116 34.3052535 86.3447727 47.4656657 80.5566839 55.4870343 57.049939 57.280183 60.3912254 44.6007855 63.4754769 32.8967749 77.3487606 42.1972718 72.2860374 46.0276112 69.4522137 48.1716168 66.4493012 44.8077103 65.9516228 45.5211558M53.3597313 7.41851954C70.286234-1.27077655 71.5660402-3.64171561 87.0310267 9.57792449M87.4180353 9.19188778C100.433436 1.84077267 99.2679413 3.20981384 113.670828 12.292959M101.600103 16.1428717C98.6499195 16.4934153 94.7735186 16.6624919 94.7735186 16.6624919 94.7735186 16.6624919 93.0530508 17.0295558 93.0530508 18.9438643 93.0530508 20.8581727 94.7735186 20.8581727 94.7735186 20.8581727 100.89813 22.467755 104.908697 20.2985909 111.154692 21.3400728 115.62815 22.0859949 113.848325 26.6639558 110.002945 26.905823 103.300395 27.3274008 96.4379263 26.9480276 89.7223024 26.905823M92.6614027 33.804148C102.233519 33.8016957 111.811755 33.4540237 121.377751 33.7967912 124.764552 33.9181466 122.828356 39.4148201 119.691692 39.4148201 101.778224 39.4148201 100.578261 38.9728581 100.578261 38.9728581 100.578261 38.9728581 97.9113427 38.9860229 97.1740545 41.643752 96.4367664 44.3014812 98.8963014 45.1189458 99.3128474 45.1300856 109.418662 45.4003459 119.375693 45.406287 129.481348 45.1300856"/>
        </g>
        <g transform="translate(28.686 73.311)" stroke-linecap="round" stroke-linejoin="round">
          <path stroke="#81BFF1" d="M32.0637837 12.7329846C28.4269143 12.5877133 29.2046387 13.6024578 28.8334314 10.667698M22.8036129 10.546848C22.5008891 14.8111992 26.4006929 12.8201973 28.4048984 11.2907941M19.5798497 9.07850864C18.742227 12.2937416 20.5594937 12.3913425 23.31757 11.3188275M19.2906311 5.37503305C16.6829556 6.748568 16.8277752 7.50292806 19.5047799 8.74281418M19.4833651 5.44240752C18.479572-.756619328 24.8176994-1.41327384 25.5774282 2.37262885M25.2667948 2.77852469C27.093474.668680119 29.7375767 1.53703532 28.865436 4.42354537M29.6151922 3.66381578C31.8568169 1.82134931 34.6017334 1.42751811 34.7881801 5.05370866M35.2593075 4.41129546C34.4212704.878673919 36.7027816.190145983 39.018678 2.53352662M38.8299447 2.68170334C40.6197007.742283031 43.4704298 1.79006926 41.4390302 4.19974905M42.4351751 4.92814715C45.2289238 5.73273559 47.2603774 7.56470014 43.9986967 9.3727419M40.7857587 10.8768887C42.3002399 11.5283902 44.9059308 12.5929614 44.0523516 9.73670537M37.5191657 11.3308418C36.8440406 14.849269 37.6669355 12.6474495 32.3675926 16.1417558M32.0891992 16.2861633C31.708892 23.8255425 29.7428754 21.9964383 34.3918872 24.009963M43.8167879 19.2280247C41.7690906 24.6250017 43.4854931 22.0559392 37.7761443 26.2568779M37.7816286 26.4062325L37.5299908 33.2640582M38.8579487 27.0173142C44.7474351 29.9517647 42.7441405 31.4231829 42.7349834 39.4172789M43.2597657 40.1720614C47.8859716 42.6017654 47.027864 43.1829056 46.8047521 49.0212032M20.5691701 19.8322748C25.9536427 22.3960229 25.8605324 21.3195241 25.4703538 26.7190762M26.4450839 27.0215546C33.5593297 30.4996112 31.6185504 27.6271764 31.5215872 36.0992041M32.4104224 36.999572C44.3312467 44.428163 40.9256328 38.9402598 40.517955 54.6003274M13.9397349 24.4714545C14.9607557 31.7383225 18.8371949 25.0839724 19.8690682 36.5750658M20.4258551 37.2664786C30.8868474 42.2883993 28.8589613 38.1823455 28.4157235 48.440275M7.25923352 21.1908362C12.7515688 18.515865 9.03465618 19.8383274 18.9908228 19.6348629M19.4941902 19.5792672C25.7990147 17.4610174 22.560576 19.0624888 28.897676 14.1888385M6.03835 23.1454025C-1.83084675 30.126712-.573028336 32.75763 4.51083363 41.6922273M9.62357753 35.537122C11.4969784 44.4300309 9.88537933 43.2267403 1.39414486 48.5243753M46.6738504 21.3774198C49.9184536 21.4526955 51.727105 18.2590323 48.1159741 16.9373541M47.8472457 17.0611299C49.7877975 14.2938259 46.11562 13.1183573 43.9732081 14.6363073M43.9449372 15.2250195C42.8975269 13.2480747 40.4492397 14.0347196 39.6751078 15.8840164M39.5812859 16.8406349C36.0133901 17.5797948 37.0202609 18.8633317 40.0143579 20.0609809"/>
        </g>
        <g transform="matrix(-1 0 0 1 110.405 17.88)" stroke-linecap="round" stroke-linejoin="round">
          <path stroke="#81BFF1" d="M102.063105 25.6988439C102.97986 23.5205285 106.533571 23.566875 107.957009 25.4174359 110.195626 28.3277822 109.954882 35.7187376 105.656863 36.6294897 103.034014 37.1852727 100.394498 37.6832863 97.7344514 38.0179097 96.2914511 38.1994335 94.8277043 38.2245745 93.3742121 38.1745988 92.7919959 38.1545804 92.2096148 38.01644 91.6650713 37.8092251 89.5768404 37.0145916 87.6245538 35.8692657 85.4998811 35.1781832 84.2214823 34.7623644 82.8647312 34.5897078 81.5228825 34.5103223 80.3776431 34.4425685 79.2098077 34.4955245 78.088808 34.7397348 76.5691246 35.0707986 75.1391656 35.7281175 73.6643443 36.2223088M42.3586406 8.52592903C50.4172465 5.58118783 57.8947019 5.768722 62.4040194 13.6000562M62.2443358 13.2360878C69.6675042 8.14584096 84.3924935 10.3476515 80.9318777 21.5652027"/>
          <path stroke="#81BFF1" d="M81.1392909 21.2693905C85.624219 19.7225307 88.6126991 21.0778338 91.8728355 24.8953731 91.9861704 25.0280854 94.4504745 30.2915906 96.5208562 31.3993761 99.2430731 32.8559349 105.485088 31.2668964 106.231724 27.8289022 106.791073 25.2532984 103.801751 25.49236 102.190852 25.6991952M31.4815563 1.72681648C27.0121793-1.37414583 16.9641605-.367200149 16.4997265 6.48018768M16.6755539 6.68219717C9.68843764 3.94524192 1.07504438 14.1842854 7.58727667 19.6027243 7.6493553 19.6543763 7.60856781 19.442522 7.61921339 19.3624209"/>
          <path stroke="#81BFF1" d="M7.09208208 19.1681404C-.706151789 20.6929158-1.92487515 30.0807473 2.90731928 35.4810218 7.33377066 40.4278535 10.9662012 41.5107677 17.2184781 42.6426975M16.5635999 42.8197632C18.913899 47.4698975 20.6137631 49.2717991 26.0512615 49.7309471 28.9118928 49.9725018 30.9373175 50.1308408 33.6058744 49.1568888 36.3752854 48.1461278 37.7798512 45.4210794 40.3624203 44.552829"/>
          <path stroke="#81BFF1" d="M19.582497,36.705375 C20.8684297,44.1271142 24.3003802,43.7081657 32.1044978,44.7513253 C33.6698099,44.9605572 40.6341312,45.1952921 42.0073367,44.8556676 C45.4532305,44.0034207 48.6062819,42.1990786 52.0221297,41.2331982 C52.9330797,40.9756139 69.281029,35.7017486 68.6492269,42.5485435 C68.4132455,45.105858 62.2542093,46.9413923 61.4775037,42.5696228"/>
          <path stroke="#81BFF1" d="M66.7642587,31.2008798 C75.6889601,31.4224468 76.5379764,42.5224462 68.8408472,46.4007767 C66.1513631,47.7559194 58.2032593,47.6987401 61.1261998,42.7470398"/>
          <path stroke="#81BFF1" d="M57.3408214 22.1262621C60.353901 20.9697391 67.0947296 21.294594 67.8027284 25.5843133 68.3324496 28.7938596 68.3073405 28.9693745 66.844276 31.2008798 66.7393084 31.3609792 66.6166426 31.6352914 66.4290986 31.5975211 66.2723224 31.5659472 66.4290986 31.2773506 66.4290986 31.1172654M52.3793998 15.7023602C55.4289147 16.6876186 57.0398045 18.7595255 57.2288674 22.0559979M43.2212829 11.5933114C47.5380763 12.7022389 53.3081197 16.1196904 54.4338783 20.9493372 54.7660232 22.374281 54.0218293 23.5124899 53.2680126 24.7492236 50.7847798 28.8232881 47.265592 32.3152865 42.0073367 31.4724508 39.784754 31.1161973 38.6724397 30.4998543 36.688645 28.9355629 29.6092271 23.3531948 40.997674 17.4159472 43.9242417 24.0497438 45.0422292 26.5839418 41.1061462 26.6731302 39.9788288 25.8035375 39.7826733 25.6522266 39.8733265 24.818233 39.9149553 25.0626018M42.8061056 10.9605826C39.6741005 1.02696929 25.8839356-1.45580633 22.7449339 9.46571232M22.2016588 9.82511356C17.30614 8.46470967 10.4173503 11.9238066 11.9317231 18.1096107 12.3236507 19.7105294 14.1178686 20.4991088 15.2857803 21.2623641M14.0560412 21.3111977C8.32966595 24.4960644 8.50324363 29.751018 13.848277 33.9151848 15.638627 35.3099966 17.2961722 35.4511246 19.5024798 36.0448918"/>
        </g>
      </g>
      <g transform="translate(171 40)">
        <g transform="translate(94 15)" stroke-linecap="round" stroke-linejoin="round">
          <use fill="#FFFFFF" xlink:href="#c"/>
          <path stroke="#5FA4E7" stroke-width=".75" d="M7.40176723,22.1426453 C7.35949786,22.0935306 7.31342034,22.0395068 7.26403488,21.9809955 C6.99533094,21.6626384 6.72658988,21.3261173 6.47510727,20.9857731 C6.28987251,20.7350855 6.12090302,20.4914331 5.9717957,20.2575868 C5.50417478,19.5242128 5.25059103,18.9285007 5.27802256,18.4588265 C5.4076263,16.2397911 5.09769074,13.8782793 4.20167721,13.1188605 C4.11035205,13.0414576 4.00222601,12.9599573 3.87441269,12.8716101 C3.74346104,12.7810936 3.59571579,12.6858205 3.40413837,12.5671871 C3.30426819,12.505343 2.94354384,12.2852541 2.88011127,12.2462018 C1.92403789,11.6575945 1.42016457,11.2611587 1.10326985,10.7388086 C0.655846163,10.0013024 0.788126846,9.19711372 1.54687941,8.36311853 C3.56466501,6.14523675 6.37363579,5.78565411 7.71669593,7.54321884 C8.0395657,7.96573492 8.1751179,8.17553192 9.03678095,9.54852551 C9.12645728,9.69141782 9.2010611,9.8097134 9.27247534,9.92208186 C10.1841646,11.3566015 10.8083817,12.0735812 10.9584529,12.0126072 C11.5237661,11.7829202 14.2076254,6.62035898 14.9887239,4.49232695 C15.0913542,4.21272003 15.159063,3.88147285 15.2643732,3.21088696 C15.2880075,3.05976981 15.2880075,3.05976981 15.3122469,2.90557876 C15.331014,2.78697728 15.3470927,2.68806746 15.363199,2.59296622 C15.7461271,0.33193194 16.4863211,-0.690990045 18.3386592,-0.305559183 C19.8207121,0.00282346962 20.0848228,1.84378833 19.6655088,4.93128494 C19.5894758,5.49113197 19.4931994,6.0748895 19.3672445,6.7633236 C19.3572137,6.81814893 19.1077215,8.13556917 19.0121361,8.67426328 C19.0768972,8.57889646 19.1475892,8.47325615 19.2250052,8.35628575 C19.3871959,8.11122635 20.0477362,7.09645346 20.0661609,7.06828213 C20.4472492,6.48559772 20.7584352,6.01967845 21.071514,5.56746217 C21.6346157,4.75410872 22.1492544,4.06675661 22.640205,3.48636399 C24.2630224,1.56789969 25.6043183,0.854928945 26.5938567,1.95297218 C27.4952436,2.95319786 27.4245549,4.45916882 26.6660939,6.42027704 C26.4313671,7.02719628 26.1376841,7.66147276 25.7672322,8.38395766 C25.5477795,8.81195167 24.8075722,10.1854965 24.6842451,10.4288239 C24.6274325,10.5409165 24.5786231,10.6408781 24.5374355,10.7296906 C24.6524144,10.6595019 24.7858813,10.5733362 24.9397655,10.4701837 C25.2221446,10.2808977 26.7271602,9.22059112 27.172289,8.91870894 C27.651287,8.593857 28.0847428,8.31320948 28.498463,8.06311 C30.9462167,6.58340928 32.6219904,6.22139968 33.4048954,7.58409933 C33.6221377,7.96222433 33.7011739,8.36302939 33.6467566,8.77454424 C33.4981596,9.89826561 32.4929357,10.9178067 30.5448101,12.3002604 C27.6391857,14.3621866 27.6926599,14.3206342 27.7370215,14.4515751 C27.7568248,14.5100279 28.8496016,14.2918123 31.4394449,13.5737526 C31.6853205,13.5055811 31.8928952,13.4486719 32.0917265,13.3951077 C33.6189891,12.9836698 34.6588588,12.7673663 35.4861516,12.729681 C36.657964,12.6763019 37.3845543,13.0302792 37.3845543,13.9269314 C37.3845543,14.0483723 37.3985566,14.143099 37.461441,14.4881824 C37.5399721,14.9191278 37.5668303,15.1666334 37.5429294,15.4594607 C37.4780915,16.2538376 36.9880152,16.8643457 35.9545349,17.2890564 C35.345089,17.5395094 34.766887,17.6394969 33.4781983,17.7760461 C32.8678945,17.8407137 32.6732459,17.8627644 32.3717466,17.9048952 C30.6484894,18.1456993 29.5730153,18.6201849 28.7961574,19.6778915 C28.1951646,20.4961544 28.0554015,20.7423555 28.0379748,20.9087258 C28.0357554,20.9299138 28.0347959,20.9451335 28.0322479,20.9969646 C27.9964677,21.7555854 27.6486819,22.7122641 26.2636009,25.3369611 C24.6273412,28.4376361 23.2833222,29.8396468 21.7112701,30.2745882 C21.1033555,30.4427806 20.643693,30.4661546 19.5309538,30.4428695 C19.0830617,30.4334969 18.8655987,30.4316041 18.5969328,30.4381926 C18.3347132,30.444623 17.9893583,30.6940404 17.5975305,31.1992469 C16.7857545,32.2459172 15.897693,34.2127963 14.9916689,36.8162431 C14.4897287,38.2585609 14.0134648,39.8054539 13.5785221,41.3525553 C13.4262503,41.8941899 13.2900478,42.3970688 13.1718372,42.8482085 C13.1010252,43.1184559 13.0520276,43.3110688 13.0267603,43.413078 L12.8668877,44.0585166 L-0.426306295,30.7329686 L-0.12561973,29.7853154 L0.0333749704,29.7179889 C0.413777963,29.556907 1.78428707,28.229284 3.6851631,26.2093521 C3.7930487,26.0947094 3.90237981,25.9781371 4.01307083,25.8597374 C4.82364394,24.9927149 5.674137,24.0634048 6.51246455,23.1340472 C6.80591047,22.8087374 7.07685614,22.5066792 7.31880598,22.2356377 C7.34820067,22.2027086 7.37587242,22.1716896 7.40176723,22.1426453 Z"/>
          <path stroke="#5FA4E7" d="M12.8782552,15.5322266 C12.8782552,15.5322266 14.8180339,16.6386719 15.0651042,18.8066406 C15.3121745,20.9746094 14.9013672,24.4775391 14.9013672,24.4775391"/>
        </g>
        <g transform="rotate(-138 60.632 24.888)">
          <path fill="#FFFFFF" stroke="#5FA4E7" stroke-width=".75" d="M16.9069334,0 C16.9069334,0 6.1751882,6.6512035 3.29612095,15.3929356 C0.417053701,24.1346677 1.06166485,35.023212 1.06166485,35.023212 C1.06166485,35.023212 7.90861582,33.1701989 15.6005359,35.023212 C23.292456,36.8762251 26.1091783,39.2535187 26.1091783,39.2535187 C26.1091783,39.2535187 24.2389245,37.6537728 25.5544553,34.4670554 C26.8699861,31.2803381 30.1447931,27.0223413 30.1447931,27.0223413 L16.9069334,0 Z" stroke-linecap="round" stroke-linejoin="round"/>
          <path fill="#5FA4E7" stroke="#5FA4E7" stroke-width=".75" d="M6.48498709,37.6443489 C6.48498709,37.6443489 0.688002227,36.9646354 1.02291453,35.5584705 C1.35782683,34.1523057 5.08079945,33.1656883 13.7812642,35.0061822 C22.4817289,36.846676 26.2436155,38.7809142 26.2436155,39.4931352 C26.2436155,40.2053563 22.2735004,40.3503401 22.2735004,40.3503401 L22.5504379,37.8236588 C22.5504379,37.8236588 19.4577197,35.8025176 14.0953972,35.0061822 C8.7330748,34.2098468 4.99292868,34.6105557 4.99292868,34.6105557 L6.48498709,37.6443489 Z" stroke-linecap="round" stroke-linejoin="round"/>
          <path fill="#E5E7E8" d="M6.04418883,34.884317 L6.91947713,36.8083677 C6.91947713,36.8083677 9.45880244,37.0074091 14.5600718,37.7822916 C19.6613411,38.557174 21.7401533,40.2354391 21.7401533,40.2354391 L21.8257054,37.8042742 C21.8257054,37.8042742 20.0485437,36.8997794 17.5144655,36.1521733 C14.9803873,35.4045671 14.8162701,35.600622 13.3879493,35.3047046 C9.02652362,34.401111 6.04418883,34.884317 6.04418883,34.884317 Z" style="mix-blend-mode:multiply"/>
          <path fill="#E3EDF6" d="M9.26881115,34.2895674 C9.26881115,34.2895674 8.55023971,27.2054964 8.11623938,22.8913578 C7.68223905,18.5772192 9.85583558,17.5205484 9.85583558,17.9368623 C9.85583558,18.3531762 10.7891977,20.7216779 11.2666635,20.3672706 C11.7441292,20.0128634 11.849688,13.6934741 12.2215949,12.4288102 C12.5935018,11.1641462 17.096582,19.4724087 19.0842251,21.7970189 C21.0718682,24.1216292 26.3831433,29.8465183 26.3831433,29.8465183 L26.073003,24.913641 L13.9615179,2 C13.9615179,2 4.28605575,10.0350872 2.11507368,15.8005923 C-0.0559083871,21.5660974 0.000135081832,34.2895674 0.000135081832,34.2895674 C0.000135081832,34.2895674 2.73424717,33.8374082 4.10926701,33.8374082 C5.48428685,33.8374082 9.26881115,34.2895674 9.26881115,34.2895674 Z" style="mix-blend-mode:multiply" opacity=".7"/>
        </g>
        <g transform="rotate(-44 54.07 -85.487)">
          <path fill="#6189AA" stroke="#516C83" stroke-width=".6" d="M0.479468822,7.71782931 C0.961125972,7.87587809 6.19757344,14.246396 6.19757344,14.246396 C6.19757344,14.246396 6.85237531,10.1816698 6.85237531,10.1816698 L0.643956312,6.33923868 C0.643956312,6.33923868 -0.0021883287,7.55978052 0.479468822,7.71782931 Z" stroke-linecap="round" stroke-linejoin="round"/>
          <polygon fill="#6189AA" stroke="#516C83" stroke-width=".5" points="1.108 5.928 12.979 1.463 12.696 7.512 .891 7.631" stroke-linecap="round" stroke-linejoin="round" transform="rotate(15 6.935 4.547)"/>
          <path fill="#43759E" d="M0.949988608,4.11503644 L0.143818509,7.60625101 C0.143818509,7.60625101 5.98269509,14.5009663 6.27115748,14.5009663 C6.55961987,14.5009663 7.18860359,10.2207004 7.18860359,10.1022261 C7.18860359,9.98375191 6.54734883,9.73151646 6.54734883,9.73151646 L5.11210204,11.6766936 L1.16008367,7.66963612 L1.64878711,6.58351362 C1.64878711,6.58351362 11.5473325,9.13094254 11.8127402,9.13094254 C12.078148,9.13094254 13.9668654,3.12967762 13.8133845,2.99349285 C13.6599035,2.85730807 12.441724,2.99265393 12.441724,2.99265393 L9.19538334,6.87387335 C9.19538334,6.87387335 6.38931271,6.52553489 4.01904991,5.81785878 C1.64878711,5.11018267 0.949988608,4.11503644 0.949988608,4.11503644 Z" style="mix-blend-mode:darken"/>
        </g>
        <g transform="translate(.279)">
          <g transform="translate(28.613 71.19)">
            <g stroke-linecap="round" stroke-linejoin="round">
              <use fill="#FFFFFF" xlink:href="#d"/>
              <path stroke="#5FA4E7" stroke-width=".75" d="M-0.361856907,-0.202335312 L47.1496348,0.625659268 L47.0927006,1.04383739 C47.0844914,1.10412916 47.0689432,1.22019279 47.0471911,1.38554607 C47.0109002,1.66141927 46.9704519,1.97528717 46.9268861,2.3213772 C46.8023962,3.31033476 46.6779021,4.35899819 46.5617253,5.42112917 C46.4687487,6.27115588 46.3850107,7.09491521 46.3127759,7.87977595 C46.1322009,9.84179749 46.0317688,11.4671232 46.0317688,12.6371342 C46.0317688,13.3263908 46.0631834,13.8891767 46.1671784,15.3415861 C46.1933963,15.7077477 46.2077282,15.912681 46.2226017,16.1389594 C46.5183471,20.6382869 46.0265705,22.7827475 43.6378283,23.5037304 C43.0437138,23.6830492 42.0382984,23.7681958 40.6482265,23.7681958 C40.3344346,23.7681958 40.0982991,23.7809999 39.6774015,23.8145488 C39.5512533,23.8246565 39.5512533,23.8246565 39.4244855,23.8343697 C38.566396,23.8982573 37.9325287,23.8632395 36.8694916,23.6414605 C36.5449314,23.5737483 36.2203439,23.4526622 35.8867251,23.2795975 C35.3688766,23.0109637 34.8468735,22.6317487 34.1673786,22.0563833 C33.9366865,21.8610437 32.7186087,20.788657 32.3489199,20.4783876 C30.0806952,18.5747305 28.1283253,17.5973444 25.5589722,17.4460318 C22.928737,17.2911338 21.2384526,18.0716836 18.1369503,20.3732802 C17.9845968,20.4864225 17.9845968,20.4864225 17.8318314,20.599958 C15.3727075,22.4269605 14.0876184,23.1824724 12.2291462,23.6385579 C11.5521514,23.8046984 10.4363892,23.8229489 8.82123263,23.7679788 C8.62906486,23.7614385 8.46474275,23.7618387 8.01275002,23.7672373 C7.4579459,23.7738639 7.17505998,23.7733237 6.83659815,23.7596439 C6.17024584,23.7327115 5.62534945,23.6550877 5.16274561,23.4997583 C1.41714598,22.2259827 0.824200837,20.0234535 1.25785542,14.2609006 C1.27966733,13.9709112 1.28912681,13.8437379 1.30081472,13.6813889 C1.39703227,12.3448948 1.42495828,11.4738292 1.37607004,10.622853 C1.34222453,10.0337192 1.29086595,9.4143767 1.22325616,8.76833819 C1.07709794,7.37173811 0.859138494,5.88483252 0.588464938,4.35887874 C0.405309673,3.32631954 0.209044777,2.33742172 0.0128180264,1.42707983 C-0.0558209357,1.1086476 -0.119529077,0.822875994 -0.176662658,0.574117396 C-0.210842023,0.425301048 -0.235163542,0.322180689 -0.247983534,0.26910537 L-0.361856907,-0.202335312 Z"/>
            </g>
            <path fill="#E8EFF7" d="M0.690044004,3.08295105 C0.690044004,3.08295105 13.9905361,12.6772814 23.0412503,12.6772814 C32.0919646,12.6772814 35.3079378,13.8890069 37.0322441,16.01093 C38.7565505,18.1328531 37.777295,23.3882204 37.777295,23.3882204 C37.777295,23.3882204 42.5646535,23.6846236 44.0909544,22.9999864 C45.6172553,22.3153492 46.7751507,21.2025741 46.7751507,18.9622126 C46.7751507,16.7218511 45.6172553,12.6772814 45.6172553,12.6772814 L46.5640869,0.960384064 C46.5640869,0.960384064 37.1705068,9.97660447 22.3786707,9.97660447 C7.58683465,9.97660447 0.690044004,3.08295105 0.690044004,3.08295105 Z" style="mix-blend-mode:multiply"/>
          </g>
          <g stroke-linecap="round" stroke-linejoin="round">
            <use fill="#FFFFFF" xlink:href="#e"/>
            <path stroke="#5FA4E7" stroke-width=".75" d="M19.4401002,90.63182 C19.3739793,90.7819463 19.2895057,90.9356599 19.1834359,91.0891101 C18.6813836,91.815425 17.8240016,92.2883833 16.5686813,92.3982996 C15.15928,92.5217073 14.1860919,91.9441385 13.6177111,90.925577 C13.5936886,90.8825277 13.570759,90.8395183 13.5488849,90.7966273 C13.520547,90.8467416 13.4902459,90.8968949 13.4578885,90.9469799 C12.9249581,91.7718849 11.9731225,92.2994989 10.5481415,92.3988213 C8.96436307,92.5092121 7.95885372,91.7068006 7.46468539,90.3527499 C7.32856653,89.9797761 7.24249476,89.6053115 7.19328984,89.2557763 C6.30168449,89.8744468 5.0176653,90.0495148 3.30908867,89.5481426 C1.90164677,89.1350913 1.57166242,88.1905274 2.16118534,87.0722679 C2.37569182,86.665373 2.70270885,86.2443787 3.11272762,85.8165187 C3.36813784,85.5499947 3.64065126,85.2966434 3.91313291,85.0639992 C3.99243542,84.996291 4.06344857,84.9372897 4.12420653,84.88791 C4.11838422,84.7547544 4.1117166,84.580541 4.10506128,84.3694236 C4.03881724,82.2680553 4.07431449,79.9363845 4.28661059,77.7316723 C4.38427343,76.7174357 4.51659468,75.7791931 4.68717768,74.9319354 C4.9841075,73.457341 5.44720833,71.9275535 6.03124299,70.3888246 C6.4024712,69.410767 6.80009861,68.4878815 7.197889,67.6478017 C7.27548099,67.4839378 7.35002566,67.329738 7.42095779,67.1858014 L4.44750141,67.4407712 L4.713549,66.8568415 C4.78853323,66.6922637 4.93037202,66.4114465 5.13521473,66.0527423 C5.47569452,65.4565212 5.87125187,64.8602822 6.31885749,64.3021408 C6.36171546,64.2489117 6.36171546,64.2489117 6.40527891,64.1956775 C6.48523496,64.0983746 6.56729766,63.997471 6.65130849,63.8932014 C6.73237872,63.7925815 6.81511249,63.689014 6.89935038,63.5827359 C7.21648671,63.1826233 7.54376142,62.7584262 7.86784748,62.3300786 L3.30272613,63.8499601 L3.92445208,62.9338426 C3.99157076,62.8349428 4.11772312,62.6498837 4.29512142,62.3909666 C4.59064541,61.9596422 4.92183172,61.4790741 5.28089584,60.9615592 C6.3068823,59.482817 7.35085844,58.0040141 8.35066954,56.6233744 C8.51795128,56.392375 8.68284786,56.1657313 8.84517546,55.9437342 C9.54676622,54.9842478 10.1929969,54.1215624 10.7723855,53.3739051 C12.0431864,51.7339752 13.3453213,50.1938263 14.6082282,48.7978114 C15.0504527,48.3089771 15.4563214,47.8729398 15.8170072,47.4952674 C16.0340169,47.2680375 16.1881563,47.1103494 16.2705953,47.0277791 L16.6397841,46.6580022 L29.7901604,73.1760247 L29.737734,73.3252408 C29.6820474,73.4837361 29.5752833,73.7540166 29.4187895,74.0992977 C29.1585127,74.6735611 28.8513376,75.2479904 28.4977038,75.7862318 C28.0919301,76.4038316 27.6499296,76.9345252 27.169654,77.3518821 C27.0303737,77.4729236 26.8915426,77.5893195 26.7059353,77.7418534 C26.5940571,77.8336218 26.5940571,77.8336218 26.4847529,77.9231496 C26.3767892,78.0117967 26.33382,78.0472499 26.2715949,78.0991599 C24.8279519,79.3034873 24.2747359,80.3377475 24.0166448,83.035317 C23.9010399,84.2436197 24.0882837,85.338617 24.5846113,87.0167934 C25.5582009,90.3086822 25.5620783,91.1188736 23.7870759,91.8553998 C22.199652,92.5141146 20.8419858,92.0931087 19.7761373,91.0096015 C19.655639,90.8871069 19.5436621,90.760516 19.4401002,90.63182 Z"/>
          </g>
          <path fill="#ECF2F9" d="M19.5645662,60.9650983 C19.5645662,60.9650983 22.5036405,66.670168 24.3760351,68.4565615 C26.2484297,70.2429551 29.0886137,73.3394639 29.0886137,73.3394639 C29.0886137,73.3394639 29.5195222,75.2076932 27.5128418,76.9606337 C25.5061614,78.7135741 23.3304686,81.0487778 23.8179339,83.9607502 C24.3053992,86.8727226 25.9446177,91.3060924 24.3760351,91.8192468 C22.8074525,92.3324012 21.0766402,91.5435313 20.3206032,90.9830758 C19.5645662,90.4226203 19.3313902,90.5486471 19.3313902,90.5486471 C19.3313902,90.5486471 18.4195029,92.7005936 16.4340908,92.5252373 C14.4486788,92.349881 13.3329278,89.3546119 13.3329278,89.3546119 C13.3329278,89.3546119 14.7702915,92.5252373 10.3652535,92.5252373 C5.96021551,92.5252373 7.27795664,88.281002 7.27795664,88.281002 C7.27795664,88.281002 7.58600101,90.089015 4.31139009,89.6580234 C1.03677917,89.2270318 4.11983348,88.3227016 5.93556412,87.0021614 C7.75129477,85.6816212 7.27795664,87.8381768 7.27795664,87.8381768 C7.27795664,87.8381768 8.62749037,92.7221683 11.3617981,88.9695127 C14.0961059,85.216857 13.3329278,89.2590762 13.3329278,89.2590762 C13.3329278,89.2590762 15.1911952,92.8029224 17.3531193,89.6580234 C19.5150435,86.5131243 20.0875824,89.1069036 21.1755304,85.3253072 C22.2634785,81.5437108 20.6455283,75.3265758 19.3313902,74.1006378 C18.017252,72.8746997 17.7531824,72.1759197 17.7531824,72.1759197 C17.7531824,72.1759197 18.0737607,74.447616 18.4199542,74.9078679 C18.7661478,75.3681198 16.6537463,73.5492068 16.173267,72.5275658 C15.6927877,71.5059249 15.8412007,68.5578543 17.5862954,65.1910758 C19.3313902,61.8242974 19.5645662,60.9650983 19.5645662,60.9650983 Z" style="mix-blend-mode:multiply"/>
          <g transform="translate(0 45.783)">
            <path fill="#FFFFFF" stroke="#5FA4E7" stroke-width=".75" d="M16.9015023,0.204979723 C16.9015023,0.204979723 6.1697571,6.85618322 3.29068985,15.5979153 C0.411622598,24.3396474 0.266095992,36.0011981 0.266095992,36.0011981 C0.266095992,36.0011981 5.43055104,33.1868984 11.4695178,34.2557198 C17.5084845,35.3245412 26.1037472,39.4584984 26.1037472,39.4584984 C26.1037472,39.4584984 24.2334934,37.8587525 25.5490242,34.6720352 C26.864555,31.4853178 30.139362,27.227321 30.139362,27.227321 L16.9015023,0.204979723 Z" stroke-linecap="round" stroke-linejoin="round"/>
            <path fill="#5FA4E7" stroke="#5FA4E7" stroke-width=".75" d="M3.98454645,38.1474235 C3.98454645,38.1474235 -0.149095839,37.5657502 0.185816463,36.1595854 C0.520728766,34.7534206 5.37692135,32.7036195 14.0773861,34.5441134 C22.7778508,36.3846072 26.6804936,39.4863371 26.6804936,40.1985581 C26.6804936,40.9107791 24.7357828,41.4662413 24.7357828,41.4662413 L24.3123194,38.8748073 C24.3123194,38.8748073 19.3066746,35.7158006 13.9443521,34.9194651 C8.58202971,34.1231297 3.80227427,34.7459301 3.80227427,34.7459301 L3.98454645,38.1474235 Z" stroke-linecap="round" stroke-linejoin="round"/>
            <path fill="#E5E7E8" d="M4.43315253,35.0782362 L4.43315253,37.2010123 C4.43315253,37.2010123 10.0192764,36.8885827 15.0100123,37.9181992 C20.0007483,38.9478158 24.0983207,40.9750489 24.0983207,40.9750489 L23.7237966,38.9511141 C23.7237966,38.9511141 19.3292572,36.3364377 14.9678315,35.4328441 C10.6064059,34.5292504 4.43315253,35.0782362 4.43315253,35.0782362 Z" style="mix-blend-mode:multiply"/>
            <path fill="#E3EDF6" d="M14.409792,34.338853 C14.409792,34.338853 13.279495,24.9922624 14.0452049,22.2542862 C14.8109149,19.5163101 18.1201674,27.1278773 18.575737,25.0518762 C19.0313066,22.9758751 15.7227077,19.4976398 16.2188015,16.5107269 C16.7148952,13.523814 20.7522748,7.53721381 20.7522748,7.99414368 C20.7522748,8.45107356 29.5943779,26.3427441 29.5943779,26.3427441 C29.5943779,26.3427441 26.4151947,30.4914708 25.6275887,32.670322 C24.8399827,34.8491733 24.23016,37.5855117 24.23016,37.5855117 C24.23016,37.5855117 23.4360019,37.9138445 20.0247855,36.2453135 C16.613569,34.5767825 14.409792,34.338853 14.409792,34.338853 Z" style="mix-blend-mode:multiply" opacity=".7"/>
          </g>
          <g transform="translate(27.86 71.442)">
            <path fill="#FFFFFF" stroke="#5FA4E7" stroke-width=".75" d="M1.43577727,2.80627613 C1.43577727,2.80627613 0.910652056,4.29374288 1.26980505,6.83179703 C1.62895805,9.36985119 0.160737096,12.1293655 0.160737096,12.1293655 L7.97642237,16.6382787 L9.97896188,9.36985119 L1.43577727,2.80627613 Z" stroke-linecap="round" stroke-linejoin="round"/>
            <path fill="#FFFFFF" stroke="#5FA4E7" stroke-width=".75" d="M10.3162542,7.52002933 C10.3162542,8.18523853 5.46385527,17.1645879 5.46385527,17.1645879 C5.46385527,17.1645879 13.430982,19.0774098 26.3289961,17.7688257 C39.2270103,16.4602417 49.6248629,10.2077729 49.6248629,10.2077729 L48.1959668,4.52802763 C48.1959668,4.52802763 10.3162542,6.85482012 10.3162542,7.52002933 Z" stroke-linecap="round" stroke-linejoin="round"/>
            <polygon fill="#E8EFF7" points="39.191 10.688 40.308 14.187 49.653 10.307 48.387 6.15" style="mix-blend-mode:multiply" opacity=".738"/>
            <path fill="#6189AA" stroke="#516C83" stroke-width=".5" d="M2.25765876,1.79118832 L1.50101689,3.36608024 C1.50101689,3.36608024 1.30556026,4.50342371 1.32630865,4.96761123 C1.38976557,6.38728304 1.50101689,6.91407052 1.50101689,6.91407052 C1.50101689,6.91407052 12.5622123,12.9072596 25.5631117,12.9072596 C38.5640111,12.9072596 48.1414063,5.877346 48.1414063,5.67276157 C48.1414063,5.46817714 48.5374337,0.0503114181 48.5374337,0.0503114181 C48.5374337,0.0503114181 46.1920059,8.11771446 24.7798772,6.47878553 C15.0885052,5.73698774 2.25765876,1.79118832 2.25765876,1.79118832 Z" stroke-linecap="round" stroke-linejoin="round"/>
            <path fill="#6189AA" stroke="#516C83" stroke-width=".5" d="M45.2554158 6.15405315L46.7359969 24.9991927C46.7359969 24.9991927 50.5629336 25.1365487 50.5629336 24.6313397 50.5629336 24.1261308 46.732625 5.48394457 46.732625 5.48394457L45.2554158 6.15405315zM46.9785238 5.43158739L54.0230078 8.57482789C54.0230078 8.57482789 55.6690098 2.8899587 55.1651612 2.8899587 54.6613125 2.8899587 47.3150253 4.03519564 47.3150253 4.03519564L46.9785238 5.43158739z" stroke-linecap="round" stroke-linejoin="round"/>
            <path fill="#43759E" d="M43.835896,3.87148282 L43.5257618,7.77029687 L45.1046637,7.15032822 L46.0297954,6.18013388 L48.6891118,25.12085 C48.6891118,25.12085 49.3816548,25.2597325 50.023433,25.1000339 C50.6652111,24.9403352 50.8398876,24.6310207 50.8398876,24.6310207 L47.1416619,6.24711321 L47.6338513,5.99351552 L48.3966868,3.84246753 L52.2557082,3.82100091 L54.0255853,8.72978312 C54.0255853,8.72978312 55.6416271,3.51916719 55.4107524,2.82938934 C55.1798777,2.13961148 48.2462313,3.66101786 48.2462313,3.66101786 L48.5007953,0.101471276 C48.5007953,0.101471276 47.6804795,1.45426306 46.3402837,2.44006113 C45.0000879,3.4258592 43.835896,3.87148282 43.835896,3.87148282 Z" style="mix-blend-mode:darken"/>
          </g>
          <g transform="translate(13.051)">
            <g stroke-linecap="round" stroke-linejoin="round">
              <use fill="#FFFFFF" xlink:href="#f"/>
              <path stroke="#5FA4E7" stroke-width=".75" d="M26.3768728,10.8249181 C26.4698742,10.724647 26.6385569,10.5427111 26.7103774,10.4655723 C26.8990668,10.2629106 27.0732546,10.0777005 27.2531868,9.8890744 C27.7299959,9.38922683 28.1924098,8.92317125 28.6542198,8.48291801 C29.0934397,8.06420044 29.5165664,7.6840179 29.9216905,7.34766264 C30.1974762,7.11869094 30.4630721,6.9116069 30.7178186,6.72797559 C31.6335031,6.06787069 32.5134527,5.46910379 33.3262627,4.94247673 C33.6110399,4.75796698 33.8672087,4.59558029 34.0908389,4.45667341 C34.2255919,4.37297219 34.3199273,4.31547748 34.3699132,4.28554848 L34.707113,4.08365042 L36.3800039,7.2006352 C36.4011165,7.18402898 36.4229063,7.16674159 36.4453335,7.14878448 C36.7513092,6.90379486 37.0574198,6.62645741 37.3420995,6.32356246 C37.9705167,5.65493579 38.4001592,4.96270691 38.5465511,4.28556064 C38.6169476,3.95991908 38.665018,3.59967106 38.6923463,3.21081066 C38.7476498,2.4238857 38.7165817,1.57526566 38.6308636,0.75049153 C38.5976509,0.430921074 38.5646225,0.191554475 38.543088,0.061055548 L38.4558224,-0.467773969 L38.9825322,-0.368513212 C39.1571373,-0.335608127 39.4477617,-0.257073775 39.8163653,-0.117278876 C40.4260085,0.113931617 41.0352547,0.437987432 41.6051207,0.871574288 C42.1812249,1.30990756 42.6847378,1.83741566 43.0938901,2.46185707 C43.4594702,3.01981268 43.7470885,3.59856989 44.1094627,4.45040213 C44.170192,4.59315846 44.2255605,4.72529938 44.339049,4.99708676 C45.2245321,7.11413533 45.7984043,7.97306917 47.0639531,8.64036491 C48.1403335,9.20787587 49.5189472,9.91312808 51.0031193,10.6638445 C65.4392198,15.7708667 75.3008145,29.5056114 75.3008145,45.1029027 C75.3008145,65.2508617 58.996386,81.6087225 38.9130843,81.6087225 C18.8297165,81.6087225 2.52535411,65.2508964 2.52535411,45.1029027 C2.52535411,45.060926 2.52542523,45.0189646 2.52556747,44.9770191 L0.30883895,45.7183516 L0.619866145,44.9605211 L3.00284975,39.1798374 C3.08872941,38.652657 3.18604544,38.128208 3.29468851,37.6068022 L-0.725303409,38.9511935 L-0.337557601,38.1498787 C-0.297826898,38.0677713 -0.222858227,37.914829 -0.116583291,37.7011529 C0.0602689075,37.3455741 0.260549835,36.9494945 0.480334696,36.5230047 C1.10843253,35.3041885 1.76726863,34.0852327 2.42570395,32.9465225 C2.81289532,32.2769066 3.1890715,31.6543306 3.55082155,31.0877944 C3.71758921,30.8266199 3.88078354,30.5781657 4.0401405,30.3431448 C4.30799481,29.9480598 5.52324067,28.1032394 5.83273133,27.642782 C6.04900205,27.3210163 6.24993127,27.0264212 6.44265413,26.7491829 C7.23722407,25.6061674 7.8881723,24.7645821 8.39463049,24.2555309 C12.3989188,18.0836706 18.364761,13.7706154 26.3768728,10.8249181 Z"/>
            </g>
            <path fill="#E6F9FF" d="M38.3274639,0.754671271 C38.3274639,0.754671271 41.0561006,3.75844234 41.1654471,7.21952232 C41.2747935,10.6806023 37.5264273,12.0005977 37.0315088,11.7361644 C36.5365904,11.4717311 35.5779458,7.88184297 35.24826,7.14292786 C34.9185743,6.40401274 33.9648685,5.31846845 33.9648685,5.31846845 C33.9648685,5.31846845 34.9465608,11.4494996 33.7289331,12.7078373 C32.5113054,13.966175 34.6482407,14.4391155 37.729784,14.0213196 C40.8113273,13.6035237 44.7528262,10.9122094 46.9621103,11.3241869 C49.1713945,11.7361644 51.0410287,12.4299436 51.0410287,12.4299436 C51.0410287,12.4299436 45.9604896,10.1354963 45.0446478,8.63921209 C44.1288061,7.14292786 43.2802878,3.67828735 41.9475084,2.71668809 C40.614729,1.75508882 38.3274639,0.754671271 38.3274639,0.754671271 Z" style="mix-blend-mode:multiply"/>
            <path fill="#EFF6FD" d="M5.30745111,59.3510168 C5.30745111,59.3510168 15.1590702,80.262109 36.9479375,80.262109 C58.7368048,80.262109 69.1490012,64.8651208 71.9401603,56.5850317 C74.7313195,48.3049426 74.5408639,41.1828717 70.5882073,28.5622123 C66.6355506,15.9415529 49.6892272,10.0249871 49.6892272,10.0249871 C49.6892272,10.0249871 63.3780098,21.1323455 65.5347136,35.6508769 C65.6290683,36.2860555 67.8352654,38.9066253 67.883363,39.5542175 C67.9314605,40.2018098 65.8059798,38.5068779 65.8148241,38.9769381 C65.8413875,40.3887462 68.1161577,44.9422968 67.883363,46.3979503 C67.6505682,47.8536037 65.1870265,45.030969 64.9426237,45.9144563 C63.6683889,50.5206661 60.905127,55.2715982 56.0117891,59.9716356 C46.4516699,69.1541033 36.8745275,71.306307 28.6590815,70.4309633 C28.1644652,70.3782627 28.5494587,73.4818077 28.0650148,73.4080326 C27.580571,73.3342574 25.4248815,69.9350394 24.5706346,69.7362783 C13.2021769,67.0911329 5.30745111,59.3510168 5.30745111,59.3510168 Z" style="mix-blend-mode:multiply"/>
          </g>
          <g transform="translate(25.099 23.395)">
            <g stroke-linecap="round" stroke-linejoin="round">
              <use fill="#DEECFA" xlink:href="#g"/>
              <path stroke="#5FA4E7" stroke-width=".75" d="M25.9135404,5.66826406 C25.3338082,4.76934134 24.9963887,3.83775761 25.0312395,2.91329454 C25.0657651,1.99575499 25.4189477,1.11251611 25.9780663,0.291954476 L26.0903309,0.127195031 L26.2897004,0.128118201 C40.2981033,0.192983431 51.6424651,5.10640519 51.6424651,11.3314482 C51.6424651,17.6020307 40.1359809,22.5353883 26.0102148,22.5353883 C11.8843829,22.5353883 0.377964427,17.6020453 0.377964427,11.3314482 C0.377964427,6.35195177 7.6642286,2.12191597 18.1475977,0.659728593 L18.3731771,0.628265484 L18.5050961,0.813935536 C19.1479702,1.71875152 19.9100474,2.5156385 20.7812372,3.10113951 C21.126668,3.33331084 21.5607007,3.58858136 22.0716683,3.86250915 C22.4997731,4.09201451 22.9768901,4.33195997 23.4944255,4.57953041 C24.2645503,4.94793064 25.0874418,5.31607969 25.9135404,5.66826406 Z"/>
            </g>
            <path fill="#5588BB" d="M9.84672315,20.0330441 C9.84672315,20.0330441 -2.8743544,16.5994921 0.952720284,9.11015146 C4.77979496,1.62081083 18.0155829,0.813161023 18.0155829,0.813161023 C18.0155829,0.813161023 20.1212943,3.61397893 20.9932825,3.58391876 C21.2434895,3.57529333 25.9372916,5.62729994 25.9372916,5.62729994 C25.9372916,5.62729994 25.3258732,4.78474696 25.3452305,3.13055154 C25.3645878,1.47635612 25.5356695,3.06537644 25.5408912,3.00388323 C25.645266,1.77471227 25.4810667,0.77129981 26.3302564,0.424804109 C28.5661942,-0.48752774 29.2810765,0.424804109 29.2810765,0.424804109 C29.2810765,0.424804109 28.0928402,2.41924724 29.2543377,4.59611469 C30.4158352,6.77298214 31.3386212,6.71494646 30.8911769,7.20943198 C30.4437326,7.70391749 29.0674688,8.0012855 26.3302564,6.35570535 C23.593044,4.71012521 19.3321412,2.55324383 19.3321412,2.55324383 C19.3321412,2.55324383 8.53447129,4.58841685 6.14990979,8.86050892 C1.68422568,16.8610632 9.84672315,20.0330441 9.84672315,20.0330441 Z" opacity=".196" style="mix-blend-mode:multiply"/>
          </g>
          <g transform="translate(35.138 30.69)">
            <path fill="#5FA4E7" d="M3.86713881,0 C6.00141675,0 7.73427762,1.73844208 7.73427762,3.87981958 C7.73427762,6.02109605 6.00141675,7.75963917 3.86713881,7.75963917 C1.73276017,7.75963917 0,6.02109605 0,3.87981958 C0,1.73844208 1.73276017,0 3.86713881,0 Z"/>
            <path fill="#43759E" d="M5.48033077,0.353182312 C6.81010571,0.967066447 7.73427762,2.31599596 7.73427762,3.87981958 C7.73427762,6.02109605 6.00141675,7.75963917 3.86713881,7.75963917 C3.3972257,7.75963917 2.95387592,7.63105412 2.5300071,7.52108197 C2.2441332,7.4469124 5.24814301,7.0246593 6.01648876,5.00615668 C7.06734401,2.24548019 5.48033077,0.353182312 5.48033077,0.353182312 Z" opacity=".286" style="mix-blend-mode:multiply"/>
            <path fill="#FFFFFF" d="M2.93752197,1.25778545 C4.00461059,1.25778545 4.87109138,2.12700649 4.87109138,3.19769524 C4.87109138,4.268384 4.00461059,5.13760504 2.93752197,5.13760504 C1.87033265,5.13760504 1.00395257,4.268384 1.00395257,3.19769524 C1.00395257,2.12700649 1.87033265,1.25778545 2.93752197,1.25778545 Z"/>
            <g transform="translate(24.346)">
              <path fill="#5FA4E7" d="M3.86713881,0 C6.00141675,0 7.73427762,1.73844208 7.73427762,3.87981958 C7.73427762,6.02109605 6.00141675,7.75963917 3.86713881,7.75963917 C1.73276017,7.75963917 0,6.02109605 0,3.87981958 C0,1.73844208 1.73276017,0 3.86713881,0 Z"/>
              <path fill="#43759E" d="M5.47931577,0.352186068 C6.80909072,0.966070203 7.73326262,2.31499971 7.73326262,3.87882334 C7.73326262,6.02009981 6.00040175,7.75864292 3.86612381,7.75864292 C3.3962107,7.75864292 2.95286093,7.63005787 2.52899211,7.52008573 C2.2431182,7.44591616 5.24712801,7.02366306 6.01547377,5.00516044 C7.06632901,2.24448395 5.47931577,0.352186068 5.47931577,0.352186068 Z" opacity=".286" style="mix-blend-mode:multiply"/>
              <path fill="#FFFFFF" d="M2.93752197,1.25778545 C4.00461059,1.25778545 4.87109138,2.12700649 4.87109138,3.19769524 C4.87109138,4.268384 4.00461059,5.13760504 2.93752197,5.13760504 C1.87033265,5.13760504 1.00395257,4.268384 1.00395257,3.19769524 C1.00395257,2.12700649 1.87033265,1.25778545 2.93752197,1.25778545 Z"/>
            </g>
          </g>
          <g transform="translate(29.115 48.55)">
            <mask id="i" fill="white">
              <use xlink:href="#h"/>
            </mask>
            <use fill="#5FA4E7" xlink:href="#h"/>
            <g transform="translate(14.808 6.54)" mask="url(#i)">
              <mask id="k" fill="white">
                <use xlink:href="#j"/>
              </mask>
              <use fill="#DEECFA" xlink:href="#j"/>
              <path fill="#2268AC" d="M8.82598677,6.87219522 C8.82598677,6.87219522 13.6065116,6.0321237 14.1620567,3.9969938 C14.7176019,1.96186389 13.7572999,0.16543105 13.7572999,0.16543105 C13.7572999,0.16543105 17.061564,0.584505495 18.5510202,1.47817752 C20.0404764,2.37184955 21.6304388,3.73015646 21.6304388,3.73015646 C21.6304388,3.73015646 17.7838831,5.59382299 15.5827456,6.2330091 C13.381608,6.87219522 8.82598677,6.87219522 8.82598677,6.87219522 Z" opacity=".165" style="mix-blend-mode:multiply" mask="url(#k)"/>
            </g>
            <path fill="#406D99" d="M14.5072956,12.5714217 C14.5072956,12.5714217 10.5831699,9.06590452 20.254547,5.94377325 C23.9958193,4.73600901 34.0111882,5.65769516 34.3505925,5.73091253 C38.3839383,6.6009986 41.2078703,7.8628369 41.2078703,7.8628369 C41.2078703,7.8628369 48.7753209,2.04781338 46.5056528,0.342193564 C44.2359847,-1.36342625 27.5039476,2.74319331 24.6914052,2.74319331 C21.8788628,2.74319331 0.451830143,-0.582624045 -0.117640272,1.20002503 C-0.687110687,2.9826741 2.1181851,6.97259038 6.62173393,9.06590452 C11.1252828,11.1592187 14.5072956,12.5714217 14.5072956,12.5714217 Z" opacity=".093" style="mix-blend-mode:multiply" mask="url(#i)"/>
          </g>
        </g>
        <g transform="translate(23.37 10.333)">
          <path fill="#6189AA" stroke="#516C83" stroke-width=".5" d="M4.82758122,4.35462506 C4.82758122,4.35462506 14.752901,0.417000459 28.8144915,0.131976067 C42.876082,-0.153048326 53.0639236,4.85884077 53.0639236,4.85884077 C53.0639236,4.85884077 54.6536157,6.29664764 55.3653863,7.07140979 C56.0771569,7.84617195 57.3791976,9.76277373 57.3791976,9.76277373 C57.3791976,9.76277373 40.9490946,4.85884077 29.4171182,4.35462506 C17.8851417,3.85040934 0.0625845746,9.22296953 0.0625845746,9.22296953 C0.0625845746,9.22296953 1.90597431,6.9083655 2.63383052,6.18256468 C3.36168673,5.45676385 4.82758122,4.35462506 4.82758122,4.35462506 Z" stroke-linecap="round" stroke-linejoin="round"/>
          <path fill="#43759E" d="M31.1391968,0.100328043 L33.1609259,4.53313738 C33.1609259,4.53313738 41.6417691,5.81766063 45.977204,6.78152714 C50.312639,7.74539365 57.4083413,9.77102767 57.4083413,9.77102767 C57.4083413,9.77102767 56.0957128,7.91476715 55.3058254,7.04173151 C54.515938,6.16869587 52.9778123,4.87411516 52.9778123,4.87411516 C52.9778123,4.87411516 46.4446975,2.30476708 43.6253667,1.68847871 C40.8060359,1.07219033 31.1391968,0.100328043 31.1391968,0.100328043 Z" style="mix-blend-mode:darken"/>
        </g>
      </g>
    </g>
  </g>
</svg>
