<svg xmlns="http://www.w3.org/2000/svg" width="234" height="214" viewBox="0 0 234 214">
  <g fill="none" fill-rule="evenodd" opacity=".5">
    <path fill="#EEF6FD" d="M15.6702124,77.2790488 C15.6702124,77.2790488 35.8175238,132.605763 37.4372723,142.240352 C39.0570209,151.87494 47.3292574,174.282647 48.9077656,174.552131 C50.4862739,174.821615 125.028837,51.8401796 125.028837,51.8401796 C125.028837,51.8401796 152.69255,41.8066976 152.962745,39.8236077 C153.23294,37.8405179 149.921628,1.17006467 149.921628,1.17006467 C149.921628,1.17006467 125.895595,6.9728601 118.878344,12.0127099 C111.861092,17.0525596 47.5802544,51.8743095 47.5802544,51.8743095 L15.6702124,77.2790488 Z"/>
    <path fill="#DFEDFB" d="M41.8570408,126.743183 C31.8915746,128.903103 30.2745949,128.760371 18.2904359,136.994203 C-30.1932982,170.305419 29.4516701,198.750473 61.7607886,206.00146 C101.222151,214.857592 148.653155,219.145982 187.401343,203.847615 C202.413721,197.920503 230.467041,185.956569 233.329485,166.492276 C233.332396,166.472484 234.523792,153.554717 231.738964,151.125342 C222.740187,143.27516 213.310063,135.844711 203.256782,129.421627 C200.058464,127.378208 196.027783,127.140542 192.413284,126"/>
    <polygon fill="#FFFFFF" points="206.235 14.2 122.926 51.539 123.601 36.061 119.904 34.934 74.428 57.118 54.955 124.004 51.089 174.919 137.46 139.375 191.538 86.565"/>
    <path fill="#DCE6EF" d="M194.288843,73.5599505 L183.086704,79.8700793 C183.086704,79.8700793 160.263135,55.2813342 156.536838,57.6924676 C152.810541,60.103601 145.184418,92.6962463 143.450793,97.2179517 C141.717168,101.739657 98.7393793,126.637266 99.7398668,130.165957 C100.740354,133.694647 123.698429,145.772732 123.698429,145.772732 L144.718631,137.154424 L191.525671,91.7248186 L194.288843,73.5599505 Z"/>
    <path stroke="#81BFF1" stroke-width="3" d="M15.2514852 78.00873C19.8078129 92.0942795 23.0720688 105.284001 30.0231411 127.152245 36.9742134 149.020489 44.0535361 162.634691 48.1266093 174.694368M50.0429688 175.902344C56.2536479 107.63606 50.583053 144.260454 69.5976562 66.453125" stroke-linecap="round" stroke-linejoin="round"/>
    <path stroke="#81BFF1" stroke-width="3" d="M68.7289367 67.9953724C75.1948717 55.1292671 71.4560433 55.9891221 84.6109578 50.6832331 91.1449153 48.0478336 88.834503 47.7249359 102.622672 41.9100345 116.410841 36.0951331 118.649223 33.3770213 123.367648 34.9589622M124 35.0742188C123.584635 43.8697917 122.988768 43.3306813 122.573404 52.1262542M123.352409 51.9084796C123.352409 51.9084796 136.73809 47.87112 143.019531 44.8632812 163.035259 35.2788436 187.655022 22.9747367 207.151115 12.3731742M15.260804 76.4711359C55.8373818 44.7511381 98.8244057 21.7560903 145.507812.05859375M146 0C148.429687 11.4322917 151.471927 28.2598798 153.901615 39.6921715M192.553648 86.0673002C192.553648 86.0673002 199.331608 53.8492073 206.832127 12.6039925L192.553648 86.0673002z" stroke-linecap="round" stroke-linejoin="round"/>
    <path fill="#FFFFFF" d="M170.312002,52.0182818 L157.023053,101.499246 L155.280403,103.908186 L122.563159,127.888781 L147.470359,142.915116 L141.325164,199.352056 C141.325164,199.352056 171.97217,154.866805 172.565923,154.866805 C173.159676,154.866805 197.878514,166.490321 198.472267,165.674277 C199.06602,164.858232 192.038092,124.630453 192.038092,124.630453 L218.055581,75.1875124 C218.055581,75.1875124 185.966018,91.3299853 185.966018,90.8081847 C185.966018,90.2863842 170.312002,52.0182818 170.312002,52.0182818 Z"/>
    <path stroke="#81BFF1" stroke-width="3" d="M175.286472 158.700778C173.30952 157.731887 170.810721 158.494309 169.699726 160.401934 169.699726 160.401934 163.217727 171.682277 159.679241 176.831946 156.140755 181.981616 142.98542 199.247789 142.98542 199.247789 140.979996 201.889042 139.551402 201.349972 139.816657 198.043329 139.816657 198.043329 141.218076 176.560269 144.129111 166.25588 147.040146 155.95149 148.034803 147.14793 148.034803 147.14793 148.335846 144.970634 146.869535 142.657192 144.770616 141.969549 144.770616 141.969549 139.778032 140.427182 137.209579 139.217878 134.641127 138.008575 125.23975 132.690207 125.23975 132.690207 122.345916 131.066006 122.121737 128.09899 124.741701 126.070612 124.741701 126.070612 132.85604 119.714308 137.209579 116.675817 141.563119 113.637326 152.368966 106.914152 152.368966 106.914152 154.239203 105.743449 156.322372 103.090341 157.002795 101.002816 157.002795 101.002816 161.441202 88.0091847 163.032558 79.1470514 164.623915 70.2849181 169.125469 53.795003 169.125469 53.795003 169.978577 50.5945112 171.775468 50.4577988 173.124664 53.4757962 173.124664 53.4757962 178.726356 65.8302411 180.97474 71.7570047 183.223125 77.6837684 185.021814 86.7256669 185.021814 86.7256669 185.48429 88.874 187.455273 89.8002001 189.420853 88.7960658L202.043165 82.3478446 216.080033 74.6440012C218.985207 73.0495571 220.231236 74.2138271 218.846759 77.222346 218.846759 77.222346 211.312297 94.3359007 205.816383 101.824593 200.32047 109.313286 194.145881 121.586912 194.145881 121.586912 193.135079 123.53385 192.848308 126.819869 193.50175 128.938769 193.50175 128.938769 196.119144 137.199247 197.056039 141.372661 197.992935 145.546075 200.937119 162.281868 200.937119 162.281868 201.51642 165.544272 199.396278 167.460832 196.210606 166.551959 196.210606 166.551959 188.814375 164.524073 185.08431 163.139115 181.354246 161.754158 175.286472 158.700778 175.286472 158.700778zM137.180906 139.484538L50.5717065 175.833406" stroke-linecap="round" stroke-linejoin="round"/>
  </g>
</svg>
