<svg xmlns="http://www.w3.org/2000/svg" width="308" height="240" viewBox="0 0 308 240">
  <g fill="none" fill-rule="evenodd">
    <rect width="308" height="241"/>
    <g transform="translate(43 10)">
      <path fill="#FFFFFF" d="M20.1074212,195 L18.0957025,195 L10.8886712,183.837891 C10.7063787,183.557941 10.5566406,183.264975 10.4394525,182.958984 L10.3808587,182.958984 C10.4329423,183.258465 10.4589837,183.899735 10.4589837,184.882812 L10.4589837,195 L8.81835875,195 L8.81835875,180.996094 L10.947265,180.996094 L17.9589837,191.982422 C18.251954,192.438153 18.4407542,192.75065 18.52539,192.919922 L18.5644525,192.919922 C18.499348,192.516274 18.4667962,191.829432 18.4667962,190.859375 L18.4667962,180.996094 L20.1074212,180.996094 L20.1074212,195 Z M28.2441401,195.234375 C26.7662681,195.234375 25.5862669,194.767257 24.704101,193.833008 C23.8219351,192.898758 23.3808588,191.660164 23.3808588,190.117188 C23.3808588,188.437492 23.8398386,187.125656 24.7578119,186.181641 C25.6757853,185.237625 26.9160072,184.765625 28.4785151,184.765625 C29.9694079,184.765625 31.1331333,185.224605 31.969726,186.142578 C32.8063187,187.060551 33.2246088,188.333325 33.2246088,189.960938 C33.2246088,191.555998 32.773767,192.833654 31.8720697,193.793945 C30.9703725,194.754237 29.7610747,195.234375 28.2441401,195.234375 Z M28.3613276,186.113281 C27.3326766,186.113281 26.5188826,186.463213 25.9199213,187.163086 C25.32096,187.862959 25.0214838,188.828119 25.0214838,190.058594 C25.0214838,191.243496 25.3242152,192.177731 25.9296869,192.861328 C26.5351587,193.544925 27.3456975,193.886719 28.3613276,193.886719 C29.396489,193.886719 30.1923795,193.551436 30.7490229,192.880859 C31.3056663,192.210283 31.5839838,191.256517 31.5839838,190.019531 C31.5839838,188.769525 31.3056663,187.805993 30.7490229,187.128906 C30.1923795,186.45182 29.396489,186.113281 28.3613276,186.113281 Z M49.0781246,194.541016 C48.3098915,195.003258 47.3984423,195.234375 46.3437496,195.234375 C44.9179612,195.234375 43.7672565,194.770512 42.8916011,193.842773 C42.0159457,192.915034 41.5781246,191.712247 41.5781246,190.234375 C41.5781246,188.587231 42.050125,187.264002 42.9941402,186.264648 C43.9381553,185.265294 45.1979083,184.765625 46.7734371,184.765625 C47.6523477,184.765625 48.4270795,184.928384 49.0976558,185.253906 L49.0976558,186.894531 C48.3554646,186.373695 47.5612017,186.113281 46.7148433,186.113281 C45.6927028,186.113281 44.854495,186.479489 44.2001949,187.211914 C43.5458947,187.94434 43.2187496,188.906244 43.2187496,190.097656 C43.2187496,191.269537 43.5263637,192.194007 44.1416011,192.871094 C44.7568386,193.54818 45.5820256,193.886719 46.6171871,193.886719 C47.4895872,193.886719 48.3098915,193.597008 49.0781246,193.017578 L49.0781246,194.541016 Z M56.1796871,195.234375 C54.7018151,195.234375 53.5218139,194.767257 52.6396481,193.833008 C51.7574822,192.898758 51.3164059,191.660164 51.3164059,190.117188 C51.3164059,188.437492 51.7753856,187.125656 52.693359,186.181641 C53.6113323,185.237625 54.8515543,184.765625 56.4140621,184.765625 C57.904955,184.765625 59.0686803,185.224605 59.9052731,186.142578 C60.7418658,187.060551 61.1601559,188.333325 61.1601559,189.960938 C61.1601559,191.555998 60.709314,192.833654 59.8076168,193.793945 C58.9059196,194.754237 57.6966218,195.234375 56.1796871,195.234375 Z M56.2968746,186.113281 C55.2682236,186.113281 54.4544297,186.463213 53.8554684,187.163086 C53.256507,187.862959 52.9570309,188.828119 52.9570309,190.058594 C52.9570309,191.243496 53.2597622,192.177731 53.865234,192.861328 C54.4707058,193.544925 55.2812445,193.886719 56.2968746,193.886719 C57.332036,193.886719 58.1279265,193.551436 58.6845699,192.880859 C59.2412133,192.210283 59.5195309,191.256517 59.5195309,190.019531 C59.5195309,188.769525 59.2412133,187.805993 58.6845699,187.128906 C58.1279265,186.45182 57.332036,186.113281 56.2968746,186.113281 Z M78.4179684,195 L76.8164059,195 L76.8164059,189.257812 C76.8164059,188.151036 76.6455092,187.350263 76.3037106,186.855469 C75.961912,186.360675 75.3873735,186.113281 74.5800778,186.113281 C73.8964806,186.113281 73.3154318,186.425778 72.8369137,187.050781 C72.3583957,187.675784 72.1191403,188.424475 72.1191403,189.296875 L72.1191403,195 L70.5175778,195 L70.5175778,189.0625 C70.5175778,187.096344 69.7591218,186.113281 68.2421872,186.113281 C67.5390587,186.113281 66.9596374,186.407875 66.5039059,186.99707 C66.0481745,187.586266 65.8203122,188.35286 65.8203122,189.296875 L65.8203122,195 L64.2187497,195 L64.2187497,185 L65.8203122,185 L65.8203122,186.582031 L65.8593747,186.582031 C66.5690136,185.371088 67.6041595,184.765625 68.9648434,184.765625 C69.6484406,184.765625 70.2441378,184.956053 70.7519528,185.336914 C71.2597678,185.717775 71.6080716,186.217445 71.7968747,186.835938 C72.5390659,185.455722 73.6458256,184.765625 75.1171872,184.765625 C77.317719,184.765625 78.4179684,186.123033 78.4179684,188.837891 L78.4179684,195 Z M96.144531,195 L94.5429685,195 L94.5429685,189.257812 C94.5429685,188.151036 94.3720718,187.350263 94.0302732,186.855469 C93.6884746,186.360675 93.1139361,186.113281 92.3066404,186.113281 C91.6230432,186.113281 91.0419943,186.425778 90.5634763,187.050781 C90.0849583,187.675784 89.8457029,188.424475 89.8457029,189.296875 L89.8457029,195 L88.2441404,195 L88.2441404,189.0625 C88.2441404,187.096344 87.4856844,186.113281 85.9687497,186.113281 C85.2656212,186.113281 84.6861999,186.407875 84.2304685,186.99707 C83.774737,187.586266 83.5468747,188.35286 83.5468747,189.296875 L83.5468747,195 L81.9453122,195 L81.9453122,185 L83.5468747,185 L83.5468747,186.582031 L83.5859372,186.582031 C84.2955762,185.371088 85.3307221,184.765625 86.691406,184.765625 C87.3750031,184.765625 87.9707003,184.956053 88.4785154,185.336914 C88.9863304,185.717775 89.3346342,186.217445 89.5234372,186.835938 C90.2656284,185.455722 91.3723882,184.765625 92.8437497,184.765625 C95.0442816,184.765625 96.144531,186.123033 96.144531,188.837891 L96.144531,195 Z M100.492187,182.460938 C100.205728,182.460938 99.9615893,182.363282 99.7597654,182.167969 C99.5579415,181.972655 99.457031,181.725262 99.457031,181.425781 C99.457031,181.126301 99.5579415,180.87728 99.7597654,180.678711 C99.9615893,180.480142 100.205728,180.380859 100.492187,180.380859 C100.785158,180.380859 101.034178,180.480142 101.239258,180.678711 C101.444337,180.87728 101.546875,181.126301 101.546875,181.425781 C101.546875,181.712241 101.444337,181.956379 101.239258,182.158203 C101.034178,182.360027 100.785158,182.460938 100.492187,182.460938 Z M101.273437,195 L99.6718748,195 L99.6718748,185 L101.273437,185 L101.273437,195 Z M109.654297,194.902344 C109.276691,195.110678 108.778649,195.214844 108.160156,195.214844 C106.408845,195.214844 105.533203,194.238291 105.533203,192.285156 L105.533203,186.367188 L103.814453,186.367188 L103.814453,185 L105.533203,185 L105.533203,182.558594 L107.134765,182.041016 L107.134765,185 L109.654297,185 L109.654297,186.367188 L107.134765,186.367188 L107.134765,192.001953 C107.134765,192.672529 107.248697,193.15104 107.476562,193.4375 C107.704428,193.72396 108.082028,193.867188 108.609375,193.867188 C109.013023,193.867188 109.361327,193.756512 109.654297,193.535156 L109.654297,194.902344 Z M111.6875,194.638672 L111.6875,192.919922 C112.5599,193.564456 113.520177,193.886719 114.568359,193.886719 C115.974616,193.886719 116.677734,193.417973 116.677734,192.480469 C116.677734,192.21354 116.617514,191.987306 116.49707,191.801758 C116.376627,191.61621 116.213868,191.451824 116.008789,191.308594 C115.80371,191.165364 115.562827,191.036784 115.286133,190.922852 C115.009439,190.808919 114.71159,190.690105 114.392578,190.566406 C113.949867,190.390624 113.560874,190.213217 113.225586,190.03418 C112.890298,189.855142 112.610353,189.653321 112.385742,189.428711 C112.161132,189.2041 111.991862,188.948569 111.87793,188.662109 C111.763997,188.37565 111.707031,188.040367 111.707031,187.65625 C111.707031,187.187498 111.814452,186.772463 112.029297,186.411133 C112.244142,186.049803 112.530597,185.747072 112.888672,185.50293 C113.246746,185.258788 113.655271,185.07487 114.114258,184.951172 C114.573244,184.827473 115.046872,184.765625 115.535156,184.765625 C116.401046,184.765625 117.175778,184.915363 117.859375,185.214844 L117.859375,186.835938 C117.123694,186.354164 116.277348,186.113281 115.320312,186.113281 C115.020832,186.113281 114.750652,186.147461 114.509766,186.21582 C114.268879,186.28418 114.062175,186.380208 113.889648,186.503906 C113.717121,186.627605 113.583659,186.775715 113.489258,186.948242 C113.394856,187.120769 113.347656,187.311197 113.347656,187.519531 C113.347656,187.779949 113.394856,187.998046 113.489258,188.173828 C113.583659,188.34961 113.722004,188.505859 113.904297,188.642578 C114.086589,188.779298 114.307941,188.902994 114.568359,189.013672 C114.828777,189.12435 115.124998,189.244791 115.457031,189.375 C115.899742,189.544272 116.296873,189.718424 116.648437,189.897461 C117.000002,190.076498 117.299478,190.278319 117.546875,190.50293 C117.794272,190.72754 117.9847,190.986327 118.118164,191.279297 C118.251628,191.572267 118.318359,191.920571 118.318359,192.324219 C118.318359,192.819013 118.209311,193.248696 117.991211,193.613281 C117.773111,193.977866 117.481773,194.280598 117.117187,194.521484 C116.752602,194.762371 116.332685,194.941406 115.857422,195.058594 C115.382159,195.175782 114.884117,195.234375 114.363281,195.234375 C113.33463,195.234375 112.442712,195.035809 111.6875,194.638672 Z M131.896484,194.902344 C131.518878,195.110678 131.020836,195.214844 130.402344,195.214844 C128.651033,195.214844 127.775391,194.238291 127.775391,192.285156 L127.775391,186.367188 L126.056641,186.367188 L126.056641,185 L127.775391,185 L127.775391,182.558594 L129.376953,182.041016 L129.376953,185 L131.896484,185 L131.896484,186.367188 L129.376953,186.367188 L129.376953,192.001953 C129.376953,192.672529 129.490884,193.15104 129.71875,193.4375 C129.946616,193.72396 130.324216,193.867188 130.851563,193.867188 C131.25521,193.867188 131.603514,193.756512 131.896484,193.535156 L131.896484,194.902344 Z M138.558594,195.234375 C137.080722,195.234375 135.900721,194.767257 135.018555,193.833008 C134.136389,192.898758 133.695313,191.660164 133.695313,190.117188 C133.695313,188.437492 134.154292,187.125656 135.072266,186.181641 C135.990239,185.237625 137.230461,184.765625 138.792969,184.765625 C140.283862,184.765625 141.447587,185.224605 142.28418,186.142578 C143.120773,187.060551 143.539063,188.333325 143.539063,189.960938 C143.539063,191.555998 143.088221,192.833654 142.186524,193.793945 C141.284826,194.754237 140.075529,195.234375 138.558594,195.234375 Z M138.675781,186.113281 C137.64713,186.113281 136.833336,186.463213 136.234375,187.163086 C135.635414,187.862959 135.335938,188.828119 135.335938,190.058594 C135.335938,191.243496 135.638669,192.177731 136.244141,192.861328 C136.849612,193.544925 137.660151,193.886719 138.675781,193.886719 C139.710943,193.886719 140.506833,193.551436 141.063477,192.880859 C141.62012,192.210283 141.898438,191.256517 141.898438,190.019531 C141.898438,188.769525 141.62012,187.805993 141.063477,187.128906 C140.506833,186.45182 139.710943,186.113281 138.675781,186.113281 Z M161.111328,195 L159.509766,195 L159.509766,193.300781 L159.470703,193.300781 C158.728512,194.58985 157.58269,195.234375 156.033203,195.234375 C154.776687,195.234375 153.772465,194.786788 153.020508,193.891602 C152.268551,192.996415 151.892578,191.777351 151.892578,190.234375 C151.892578,188.580721 152.309241,187.255864 153.142578,186.259766 C153.975916,185.263667 155.085931,184.765625 156.472656,184.765625 C157.846361,184.765625 158.8457,185.305984 159.470703,186.386719 L159.509766,186.386719 L159.509766,180.195312 L161.111328,180.195312 L161.111328,195 Z M159.509766,190.478516 L159.509766,189.003906 C159.509766,188.196611 159.242841,187.513024 158.708985,186.953125 C158.175128,186.393226 157.498051,186.113281 156.677735,186.113281 C155.701167,186.113281 154.932946,186.471351 154.373047,187.1875 C153.813148,187.903649 153.533203,188.893223 153.533203,190.15625 C153.533203,191.3086 153.801755,192.218421 154.338867,192.885742 C154.875979,193.553063 155.597001,193.886719 156.501953,193.886719 C157.393885,193.886719 158.118161,193.564456 158.674805,192.919922 C159.231448,192.275387 159.509766,191.461593 159.509766,190.478516 Z M165.673828,182.460938 C165.387369,182.460938 165.14323,182.363282 164.941407,182.167969 C164.739583,181.972655 164.638672,181.725262 164.638672,181.425781 C164.638672,181.126301 164.739583,180.87728 164.941407,180.678711 C165.14323,180.480142 165.387369,180.380859 165.673828,180.380859 C165.966799,180.380859 166.21582,180.480142 166.420899,180.678711 C166.625978,180.87728 166.728516,181.126301 166.728516,181.425781 C166.728516,181.712241 166.625978,181.956379 166.420899,182.158203 C166.21582,182.360027 165.966799,182.460938 165.673828,182.460938 Z M166.455078,195 L164.853516,195 L164.853516,185 L166.455078,185 L166.455078,195 Z M169.591797,194.638672 L169.591797,192.919922 C170.464197,193.564456 171.424474,193.886719 172.472657,193.886719 C173.878914,193.886719 174.582032,193.417973 174.582032,192.480469 C174.582032,192.21354 174.521811,191.987306 174.401368,191.801758 C174.280924,191.61621 174.118165,191.451824 173.913086,191.308594 C173.708007,191.165364 173.467124,191.036784 173.19043,190.922852 C172.913736,190.808919 172.615887,190.690105 172.296875,190.566406 C171.854165,190.390624 171.465171,190.213217 171.129883,190.03418 C170.794595,189.855142 170.51465,189.653321 170.290039,189.428711 C170.065429,189.2041 169.89616,188.948569 169.782227,188.662109 C169.668294,188.37565 169.611328,188.040367 169.611328,187.65625 C169.611328,187.187498 169.718749,186.772463 169.933594,186.411133 C170.148439,186.049803 170.434894,185.747072 170.792969,185.50293 C171.151044,185.258788 171.559568,185.07487 172.018555,184.951172 C172.477542,184.827473 172.95117,184.765625 173.439453,184.765625 C174.305343,184.765625 175.080075,184.915363 175.763672,185.214844 L175.763672,186.835938 C175.027991,186.354164 174.181646,186.113281 173.22461,186.113281 C172.925129,186.113281 172.654949,186.147461 172.414063,186.21582 C172.173176,186.28418 171.966473,186.380208 171.793946,186.503906 C171.621419,186.627605 171.487957,186.775715 171.393555,186.948242 C171.299154,187.120769 171.251953,187.311197 171.251953,187.519531 C171.251953,187.779949 171.299154,187.998046 171.393555,188.173828 C171.487957,188.34961 171.626301,188.505859 171.808594,188.642578 C171.990887,188.779298 172.212239,188.902994 172.472657,189.013672 C172.733075,189.12435 173.029296,189.244791 173.361328,189.375 C173.804039,189.544272 174.20117,189.718424 174.552735,189.897461 C174.904299,190.076498 175.203775,190.278319 175.451172,190.50293 C175.698569,190.72754 175.888997,190.986327 176.022461,191.279297 C176.155925,191.572267 176.222657,191.920571 176.222657,192.324219 C176.222657,192.819013 176.113608,193.248696 175.895508,193.613281 C175.677408,193.977866 175.38607,194.280598 175.021485,194.521484 C174.6569,194.762371 174.236982,194.941406 173.761719,195.058594 C173.286456,195.175782 172.788414,195.234375 172.267578,195.234375 C171.238927,195.234375 170.347009,195.035809 169.591797,194.638672 Z M180.824219,193.554688 L180.785157,193.554688 L180.785157,199.599609 L179.183594,199.599609 L179.183594,185 L180.785157,185 L180.785157,186.757812 L180.824219,186.757812 C181.611983,185.429681 182.764316,184.765625 184.28125,184.765625 C185.570319,184.765625 186.576169,185.213212 187.298829,186.108398 C188.021488,187.003585 188.382813,188.203117 188.382813,189.707031 C188.382813,191.380217 187.975916,192.719722 187.16211,193.725586 C186.348304,194.73145 185.235033,195.234375 183.822266,195.234375 C182.526687,195.234375 181.527348,194.674485 180.824219,193.554688 Z M180.785157,189.521484 L180.785157,190.917969 C180.785157,191.744796 181.053709,192.446286 181.590821,193.022461 C182.127933,193.598636 182.809892,193.886719 183.636719,193.886719 C184.606776,193.886719 185.36686,193.515629 185.916993,192.773438 C186.467126,192.031246 186.742188,190.999356 186.742188,189.677734 C186.742188,188.564448 186.485029,187.69206 185.970704,187.060547 C185.456378,186.429033 184.75977,186.113281 183.88086,186.113281 C182.949866,186.113281 182.201175,186.437171 181.634766,187.084961 C181.068357,187.732751 180.785157,188.544917 180.785157,189.521484 Z M193.042969,195 L191.441407,195 L191.441407,180.195312 L193.042969,180.195312 L193.042969,195 Z M203.94336,195 L202.341797,195 L202.341797,193.4375 L202.302735,193.4375 C201.606117,194.635423 200.580736,195.234375 199.226563,195.234375 C198.230464,195.234375 197.45085,194.970706 196.887696,194.443359 C196.324542,193.916013 196.042969,193.21615 196.042969,192.34375 C196.042969,190.475251 197.143219,189.388022 199.343751,189.082031 L202.341797,188.662109 C202.341797,186.962882 201.654955,186.113281 200.281251,186.113281 C199.076817,186.113281 197.989589,186.523433 197.019532,187.34375 L197.019532,185.703125 C198.00261,185.078122 199.135411,184.765625 200.417969,184.765625 C202.768241,184.765625 203.94336,186.009102 203.94336,188.496094 L203.94336,195 Z M202.341797,189.941406 L199.929688,190.273438 C199.187497,190.377605 198.627607,190.561522 198.250001,190.825195 C197.872394,191.088869 197.683594,191.555986 197.683594,192.226562 C197.683594,192.714846 197.857746,193.113605 198.206055,193.422852 C198.554364,193.732098 199.018227,193.886719 199.597657,193.886719 C200.391932,193.886719 201.047849,193.608401 201.56543,193.051758 C202.083011,192.495114 202.341797,191.790369 202.341797,190.9375 L202.341797,189.941406 Z M215.419922,185 L210.820313,196.601562 C209.999996,198.671885 208.847664,199.707031 207.363282,199.707031 C206.946613,199.707031 206.598309,199.664714 206.31836,199.580078 L206.31836,198.144531 C206.663414,198.261719 206.979166,198.320312 207.265626,198.320312 C208.072921,198.320312 208.678384,197.838546 209.082032,196.875 L209.882813,194.980469 L205.976563,185 L207.753907,185 L210.458985,192.695312 C210.491537,192.792969 210.559896,193.046873 210.664063,193.457031 L210.722657,193.457031 C210.755209,193.30078 210.820313,193.053387 210.917969,192.714844 L213.759766,185 L215.419922,185 Z" opacity=".8"/>
      <path fill="#8EA6BB" d="M5.656,211.96 C5.656,213.154673 5.81733172,214.299995 6.14,215.396 C6.46266828,216.492005 6.9439968,217.549328 7.584,218.568 C7.62133352,218.626667 7.64,218.682666 7.64,218.736 C7.64,218.816 7.60266704,218.874666 7.528,218.912 L7.192,219.12 C6.78133128,218.490664 6.4360014,217.881336 6.156,217.292 C5.8759986,216.702664 5.65066752,216.116003 5.48,215.532 C5.30933248,214.947997 5.18533372,214.36267 5.108,213.776 C5.03066628,213.18933 4.992,212.584003 4.992,211.96 C4.992,211.335997 5.03066628,210.729336 5.108,210.14 C5.18533372,209.550664 5.30933248,208.964003 5.48,208.38 C5.65066752,207.795997 5.8759986,207.209336 6.156,206.62 C6.4360014,206.030664 6.78133128,205.421336 7.192,204.792 L7.528,205 C7.59733368,205.037334 7.632,205.093333 7.632,205.168 C7.632,205.221334 7.61333352,205.277333 7.576,205.336 C6.94133016,206.360005 6.46266828,207.419995 6.14,208.516 C5.81733172,209.612005 5.656,210.759994 5.656,211.96 Z M11.168,211.88 L11.168,217 L10.352,217 L10.352,205.68 L13.24,205.68 C14.5466732,205.68 15.5226634,205.931997 16.168,206.436 C16.8133366,206.940003 17.136,207.679995 17.136,208.656 C17.136,209.088002 17.0613341,209.482665 16.912,209.84 C16.7626659,210.197335 16.5480014,210.510665 16.268,210.78 C15.9879986,211.049335 15.6506686,211.270666 15.256,211.444 C14.8613314,211.617334 14.4160025,211.730666 13.92,211.784 C14.0480006,211.864 14.1626662,211.970666 14.264,212.104 L18.16,217 L17.448,217 C17.3626662,217 17.2893336,216.984 17.228,216.952 C17.1666664,216.92 17.106667,216.866667 17.048,216.792 L13.424,212.2 C13.3333329,212.082666 13.2360005,212 13.132,211.952 C13.0279995,211.904 12.8666678,211.88 12.648,211.88 L11.168,211.88 Z M11.168,211.272 L13.136,211.272 C13.6373358,211.272 14.0866647,211.212001 14.484,211.092 C14.8813353,210.971999 15.217332,210.800001 15.492,210.576 C15.766668,210.351999 15.9759993,210.082668 16.12,209.768 C16.2640007,209.453332 16.336,209.098669 16.336,208.704 C16.336,207.898663 16.0720026,207.301335 15.544,206.912 C15.0159974,206.522665 14.248005,206.328 13.24,206.328 L11.168,206.328 L11.168,211.272 Z M22.824,208.912 C23.2720022,208.912 23.6866648,208.989333 24.068,209.144 C24.4493352,209.298667 24.7799986,209.523999 25.06,209.82 C25.3400014,210.116001 25.5586659,210.479998 25.716,210.912 C25.8733341,211.344002 25.952,211.839997 25.952,212.4 C25.952,212.517334 25.9346668,212.597333 25.9,212.64 C25.8653332,212.682667 25.810667,212.704 25.736,212.704 L19.984,212.704 L19.984,212.856 C19.984,213.453336 20.0533326,213.978664 20.192,214.432 C20.3306674,214.885336 20.5279987,215.265332 20.784,215.572 C21.0400013,215.878668 21.3493315,216.109333 21.712,216.264 C22.0746685,216.418667 22.4799978,216.496 22.928,216.496 C23.328002,216.496 23.6746652,216.452 23.968,216.364 C24.2613348,216.276 24.507999,216.177334 24.708,216.068 C24.908001,215.958666 25.0666661,215.86 25.184,215.772 C25.3013339,215.684 25.3866664,215.64 25.44,215.64 C25.5093337,215.64 25.5626665,215.666666 25.6,215.72 L25.808,215.976 C25.6799994,216.136001 25.5106677,216.285333 25.3,216.424 C25.0893323,216.562667 24.854668,216.681333 24.596,216.78 C24.337332,216.878667 24.0600015,216.957333 23.764,217.016 C23.4679985,217.074667 23.1706682,217.104 22.872,217.104 C22.3279973,217.104 21.8320022,217.009334 21.384,216.82 C20.9359978,216.630666 20.5520016,216.354668 20.232,215.992 C19.9119984,215.629332 19.6653342,215.185336 19.492,214.66 C19.3186658,214.134664 19.232,213.533337 19.232,212.856 C19.232,212.28533 19.3133325,211.758669 19.476,211.276 C19.6386675,210.793331 19.8733318,210.377335 20.18,210.028 C20.4866682,209.678665 20.8626644,209.405334 21.308,209.208 C21.7533356,209.010666 22.2586638,208.912 22.824,208.912 Z M22.832,209.48 C22.4213313,209.48 22.053335,209.543999 21.728,209.672 C21.402665,209.800001 21.1213345,209.983999 20.884,210.224 C20.6466655,210.464001 20.4546674,210.751998 20.308,211.088 C20.1613326,211.424002 20.0640002,211.799998 20.016,212.216 L25.264,212.216 C25.264,211.789331 25.2053339,211.406668 25.088,211.068 C24.9706661,210.729332 24.8053344,210.442668 24.592,210.208 C24.3786656,209.973332 24.1226682,209.793334 23.824,209.668 C23.5253318,209.542666 23.1946685,209.48 22.832,209.48 Z M28,217 L28,209.04 L28.416,209.04 C28.5546674,209.04 28.6346666,209.106666 28.656,209.24 L28.728,210.392 C28.8826674,210.173332 29.0479991,209.973334 29.224,209.792 C29.4000009,209.610666 29.587999,209.454667 29.788,209.324 C29.988001,209.193333 30.2013322,209.092 30.428,209.02 C30.6546678,208.948 30.8933321,208.912 31.144,208.912 C31.7253362,208.912 32.1893316,209.081332 32.536,209.42 C32.8826684,209.758668 33.1173327,210.22933 33.24,210.832 C33.3360005,210.501332 33.4706658,210.216001 33.644,209.976 C33.8173342,209.735999 34.0159989,209.537334 34.24,209.38 C34.4640011,209.222666 34.7079987,209.105334 34.972,209.028 C35.2360013,208.950666 35.5066653,208.912 35.784,208.912 C36.1786686,208.912 36.5333318,208.977333 36.848,209.108 C37.1626682,209.238667 37.4306656,209.431999 37.652,209.688 C37.8733344,209.944001 38.0426661,210.258665 38.16,210.632 C38.2773339,211.005335 38.336,211.431998 38.336,211.912 L38.336,217 L37.568,217 L37.568,211.912 C37.568,211.133329 37.4000017,210.540002 37.064,210.132 C36.7279983,209.723998 36.2480031,209.52 35.624,209.52 C35.3466653,209.52 35.0813346,209.570666 34.828,209.672 C34.5746654,209.773334 34.3506676,209.923999 34.156,210.124 C33.9613324,210.324001 33.8066672,210.573332 33.692,210.872 C33.5773328,211.170668 33.52,211.517331 33.52,211.912 L33.52,217 L32.76,217 L32.76,211.912 C32.76,211.138663 32.6053349,210.546669 32.296,210.136 C31.9866651,209.725331 31.536003,209.52 30.944,209.52 C30.5119978,209.52 30.1120018,209.649332 29.744,209.908 C29.3759982,210.166668 29.0480014,210.525331 28.76,210.984 L28.76,217 L28,217 Z M43.728,208.912 C44.1760022,208.912 44.5906648,208.989333 44.972,209.144 C45.3533352,209.298667 45.6839986,209.523999 45.964,209.82 C46.2440014,210.116001 46.4626659,210.479998 46.62,210.912 C46.7773341,211.344002 46.856,211.839997 46.856,212.4 C46.856,212.517334 46.8386668,212.597333 46.804,212.64 C46.7693332,212.682667 46.714667,212.704 46.64,212.704 L40.888,212.704 L40.888,212.856 C40.888,213.453336 40.9573326,213.978664 41.096,214.432 C41.2346674,214.885336 41.4319987,215.265332 41.688,215.572 C41.9440013,215.878668 42.2533315,216.109333 42.616,216.264 C42.9786685,216.418667 43.3839978,216.496 43.832,216.496 C44.232002,216.496 44.5786652,216.452 44.872,216.364 C45.1653348,216.276 45.411999,216.177334 45.612,216.068 C45.812001,215.958666 45.9706661,215.86 46.088,215.772 C46.2053339,215.684 46.2906664,215.64 46.344,215.64 C46.4133337,215.64 46.4666665,215.666666 46.504,215.72 L46.712,215.976 C46.5839994,216.136001 46.4146677,216.285333 46.204,216.424 C45.9933323,216.562667 45.758668,216.681333 45.5,216.78 C45.241332,216.878667 44.9640015,216.957333 44.668,217.016 C44.3719985,217.074667 44.0746682,217.104 43.776,217.104 C43.2319973,217.104 42.7360022,217.009334 42.288,216.82 C41.8399978,216.630666 41.4560016,216.354668 41.136,215.992 C40.8159984,215.629332 40.5693342,215.185336 40.396,214.66 C40.2226658,214.134664 40.136,213.533337 40.136,212.856 C40.136,212.28533 40.2173325,211.758669 40.38,211.276 C40.5426675,210.793331 40.7773318,210.377335 41.084,210.028 C41.3906682,209.678665 41.7666644,209.405334 42.212,209.208 C42.6573356,209.010666 43.1626638,208.912 43.728,208.912 Z M43.736,209.48 C43.3253313,209.48 42.957335,209.543999 42.632,209.672 C42.306665,209.800001 42.0253345,209.983999 41.788,210.224 C41.5506655,210.464001 41.3586674,210.751998 41.212,211.088 C41.0653326,211.424002 40.9680002,211.799998 40.92,212.216 L46.168,212.216 C46.168,211.789331 46.1093339,211.406668 45.992,211.068 C45.8746661,210.729332 45.7093344,210.442668 45.496,210.208 C45.2826656,209.973332 45.0266682,209.793334 44.728,209.668 C44.4293318,209.542666 44.0986685,209.48 43.736,209.48 Z M48.904,217 L48.904,209.04 L49.32,209.04 C49.4586674,209.04 49.5386666,209.106666 49.56,209.24 L49.632,210.392 C49.7866674,210.173332 49.9519991,209.973334 50.128,209.792 C50.3040009,209.610666 50.491999,209.454667 50.692,209.324 C50.892001,209.193333 51.1053322,209.092 51.332,209.02 C51.5586678,208.948 51.7973321,208.912 52.048,208.912 C52.6293362,208.912 53.0933316,209.081332 53.44,209.42 C53.7866684,209.758668 54.0213327,210.22933 54.144,210.832 C54.2400005,210.501332 54.3746658,210.216001 54.548,209.976 C54.7213342,209.735999 54.9199989,209.537334 55.144,209.38 C55.3680011,209.222666 55.6119987,209.105334 55.876,209.028 C56.1400013,208.950666 56.4106653,208.912 56.688,208.912 C57.0826686,208.912 57.4373318,208.977333 57.752,209.108 C58.0666682,209.238667 58.3346656,209.431999 58.556,209.688 C58.7773344,209.944001 58.9466661,210.258665 59.064,210.632 C59.1813339,211.005335 59.24,211.431998 59.24,211.912 L59.24,217 L58.472,217 L58.472,211.912 C58.472,211.133329 58.3040017,210.540002 57.968,210.132 C57.6319983,209.723998 57.1520031,209.52 56.528,209.52 C56.2506653,209.52 55.9853346,209.570666 55.732,209.672 C55.4786654,209.773334 55.2546676,209.923999 55.06,210.124 C54.8653324,210.324001 54.7106672,210.573332 54.596,210.872 C54.4813328,211.170668 54.424,211.517331 54.424,211.912 L54.424,217 L53.664,217 L53.664,211.912 C53.664,211.138663 53.5093349,210.546669 53.2,210.136 C52.8906651,209.725331 52.440003,209.52 51.848,209.52 C51.4159978,209.52 51.0160018,209.649332 50.648,209.908 C50.2799982,210.166668 49.9520014,210.525331 49.664,210.984 L49.664,217 L48.904,217 Z M61.712,217 L61.712,205.36 L62.48,205.36 L62.48,210.432 C62.8320018,209.962664 63.2399977,209.592001 63.704,209.32 C64.1680023,209.047999 64.6906638,208.912 65.272,208.912 C66.2480049,208.912 67.0093306,209.24933 67.556,209.924 C68.1026694,210.59867 68.376,211.613327 68.376,212.968 C68.376,213.549336 68.3000008,214.091997 68.148,214.596 C67.9959992,215.100003 67.7720015,215.537331 67.476,215.908 C67.1799985,216.278669 66.8173355,216.570666 66.388,216.784 C65.9586645,216.997334 65.4640028,217.104 64.904,217.104 C64.3493306,217.104 63.872002,216.996001 63.472,216.78 C63.071998,216.563999 62.7280014,216.245335 62.44,215.824 L62.392,216.8 C62.3759999,216.933334 62.3040006,217 62.176,217 L61.712,217 Z M65.056,209.52 C64.5279974,209.52 64.0506688,209.655999 63.624,209.928 C63.1973312,210.200001 62.8160017,210.578664 62.48,211.064 L62.48,215.264 C62.7840015,215.722669 63.1199982,216.043999 63.488,216.228 C63.8560018,216.412001 64.2799976,216.504 64.76,216.504 C65.2293357,216.504 65.6399982,216.418668 65.992,216.248 C66.3440018,216.077332 66.6386655,215.836002 66.876,215.524 C67.1133345,215.211998 67.2919994,214.838669 67.412,214.404 C67.5320006,213.969331 67.592,213.490669 67.592,212.968 C67.592,211.783994 67.3733355,210.913336 66.936,210.356 C66.4986645,209.798664 65.8720041,209.52 65.056,209.52 Z M73.368,208.912 C73.8160022,208.912 74.2306648,208.989333 74.612,209.144 C74.9933352,209.298667 75.3239986,209.523999 75.604,209.82 C75.8840014,210.116001 76.1026659,210.479998 76.26,210.912 C76.4173341,211.344002 76.496,211.839997 76.496,212.4 C76.496,212.517334 76.4786668,212.597333 76.444,212.64 C76.4093332,212.682667 76.354667,212.704 76.28,212.704 L70.528,212.704 L70.528,212.856 C70.528,213.453336 70.5973326,213.978664 70.736,214.432 C70.8746674,214.885336 71.0719987,215.265332 71.328,215.572 C71.5840013,215.878668 71.8933315,216.109333 72.256,216.264 C72.6186685,216.418667 73.0239978,216.496 73.472,216.496 C73.872002,216.496 74.2186652,216.452 74.512,216.364 C74.8053348,216.276 75.051999,216.177334 75.252,216.068 C75.452001,215.958666 75.6106661,215.86 75.728,215.772 C75.8453339,215.684 75.9306664,215.64 75.984,215.64 C76.0533337,215.64 76.1066665,215.666666 76.144,215.72 L76.352,215.976 C76.2239994,216.136001 76.0546677,216.285333 75.844,216.424 C75.6333323,216.562667 75.398668,216.681333 75.14,216.78 C74.881332,216.878667 74.6040015,216.957333 74.308,217.016 C74.0119985,217.074667 73.7146682,217.104 73.416,217.104 C72.8719973,217.104 72.3760022,217.009334 71.928,216.82 C71.4799978,216.630666 71.0960016,216.354668 70.776,215.992 C70.4559984,215.629332 70.2093342,215.185336 70.036,214.66 C69.8626658,214.134664 69.776,213.533337 69.776,212.856 C69.776,212.28533 69.8573325,211.758669 70.02,211.276 C70.1826675,210.793331 70.4173318,210.377335 70.724,210.028 C71.0306682,209.678665 71.4066644,209.405334 71.852,209.208 C72.2973356,209.010666 72.8026638,208.912 73.368,208.912 Z M73.376,209.48 C72.9653313,209.48 72.597335,209.543999 72.272,209.672 C71.946665,209.800001 71.6653345,209.983999 71.428,210.224 C71.1906655,210.464001 70.9986674,210.751998 70.852,211.088 C70.7053326,211.424002 70.6080002,211.799998 70.56,212.216 L75.808,212.216 C75.808,211.789331 75.7493339,211.406668 75.632,211.068 C75.5146661,210.729332 75.3493344,210.442668 75.136,210.208 C74.9226656,209.973332 74.6666682,209.793334 74.368,209.668 C74.0693318,209.542666 73.7386685,209.48 73.376,209.48 Z M78.544,217 L78.544,209.04 L78.944,209.04 C79.0346671,209.04 79.0999998,209.058666 79.14,209.096 C79.1800002,209.133334 79.2026666,209.197333 79.208,209.288 L79.272,210.968 C79.5280013,210.322663 79.8693312,209.817335 80.296,209.452 C80.7226688,209.086665 81.2479969,208.904 81.872,208.904 C82.1120012,208.904 82.3333323,208.929333 82.536,208.98 C82.7386677,209.030667 82.9306658,209.104 83.112,209.2 L83.008,209.728 C82.9919999,209.813334 82.9386671,209.856 82.848,209.856 C82.8159998,209.856 82.770667,209.845333 82.712,209.824 C82.653333,209.802667 82.5800004,209.778667 82.492,209.752 C82.4039996,209.725333 82.2960006,209.701333 82.168,209.68 C82.0399994,209.658667 81.8933342,209.648 81.728,209.648 C81.1253303,209.648 80.6306686,209.834665 80.244,210.208 C79.8573314,210.581335 79.5440012,211.119996 79.304,211.824 L79.304,217 L78.544,217 Z M89.72,219.56 C89.6879998,219.634667 89.6466669,219.696 89.596,219.744 C89.5453331,219.792 89.4720005,219.816 89.376,219.816 L88.832,219.816 L90.232,216.704 L86.864,209.04 L87.496,209.04 C87.5760004,209.04 87.6386664,209.06 87.684,209.1 C87.7293336,209.14 87.7626666,209.184 87.784,209.232 L90.464,215.424 C90.4960002,215.504 90.5239999,215.585333 90.548,215.668 C90.5720001,215.750667 90.5946666,215.834666 90.616,215.92 C90.6426668,215.834666 90.6706665,215.750667 90.7,215.668 C90.7293335,215.585333 90.7599998,215.504 90.792,215.424 L93.44,209.232 C93.4666668,209.173333 93.5039998,209.126667 93.552,209.092 C93.6000002,209.057333 93.653333,209.04 93.712,209.04 L94.296,209.04 L89.72,219.56 Z M98.808,208.912 C99.3786695,208.912 99.8893311,209.009332 100.34,209.204 C100.790669,209.398668 101.170665,209.674665 101.48,210.032 C101.789335,210.389335 102.025333,210.819997 102.188,211.324 C102.350667,211.828003 102.432,212.391997 102.432,213.016 C102.432,213.640003 102.350667,214.202664 102.188,214.704 C102.025333,215.205336 101.789335,215.634665 101.48,215.992 C101.170665,216.349335 100.790669,216.623999 100.34,216.816 C99.8893311,217.008001 99.3786695,217.104 98.808,217.104 C98.2373305,217.104 97.7266689,217.008001 97.276,216.816 C96.8253311,216.623999 96.4440016,216.349335 96.132,215.992 C95.8199984,215.634665 95.5826675,215.205336 95.42,214.704 C95.2573325,214.202664 95.176,213.640003 95.176,213.016 C95.176,212.391997 95.2573325,211.828003 95.42,211.324 C95.5826675,210.819997 95.8199984,210.389335 96.132,210.032 C96.4440016,209.674665 96.8253311,209.398668 97.276,209.204 C97.7266689,209.009332 98.2373305,208.912 98.808,208.912 Z M98.808,216.504 C99.282669,216.504 99.6973316,216.422667 100.052,216.26 C100.406668,216.097333 100.702665,215.864002 100.94,215.56 C101.177335,215.255998 101.354666,214.889335 101.472,214.46 C101.589334,214.030665 101.648,213.549336 101.648,213.016 C101.648,212.487997 101.589334,212.008002 101.472,211.576 C101.354666,211.143998 101.177335,210.774668 100.94,210.468 C100.702665,210.161332 100.406668,209.925334 100.052,209.76 C99.6973316,209.594666 99.282669,209.512 98.808,209.512 C98.333331,209.512 97.9186684,209.594666 97.564,209.76 C97.2093316,209.925334 96.9133345,210.161332 96.676,210.468 C96.4386655,210.774668 96.2600006,211.143998 96.14,211.576 C96.0199994,212.008002 95.96,212.487997 95.96,213.016 C95.96,213.549336 96.0199994,214.030665 96.14,214.46 C96.2600006,214.889335 96.4386655,215.255998 96.676,215.56 C96.9133345,215.864002 97.2093316,216.097333 97.564,216.26 C97.9186684,216.422667 98.333331,216.504 98.808,216.504 Z M105,209.04 L105,214.128 C105,214.87467 105.170665,215.459998 105.512,215.884 C105.853335,216.308002 106.37333,216.52 107.072,216.52 C107.589336,216.52 108.071998,216.388001 108.52,216.124 C108.968002,215.859999 109.370665,215.493336 109.728,215.024 L109.728,209.04 L110.496,209.04 L110.496,217 L110.072,217 C109.922666,217 109.845333,216.930667 109.84,216.792 L109.768,215.608 C109.399998,216.066669 108.974669,216.434665 108.492,216.712 C108.009331,216.989335 107.472003,217.128 106.88,217.128 C106.437331,217.128 106.050668,217.058667 105.72,216.92 C105.389332,216.781333 105.114668,216.581335 104.896,216.32 C104.677332,216.058665 104.512001,215.744002 104.4,215.376 C104.287999,215.007998 104.232,214.592002 104.232,214.128 L104.232,209.04 L105,209.04 Z M116.176,217 L116.176,205.36 L116.936,205.36 L116.936,210.4 C117.304002,209.946664 117.723998,209.585335 118.196,209.316 C118.668002,209.046665 119.19733,208.912 119.784,208.912 C120.221336,208.912 120.606665,208.981333 120.94,209.12 C121.273335,209.258667 121.549332,209.458665 121.768,209.72 C121.986668,209.981335 122.151999,210.295998 122.264,210.664 C122.376001,211.032002 122.432,211.447998 122.432,211.912 L122.432,217 L121.672,217 L121.672,211.912 C121.672,211.16533 121.501335,210.580002 121.16,210.156 C120.818665,209.731998 120.296004,209.52 119.592,209.52 C119.069331,209.52 118.584002,209.654665 118.136,209.924 C117.687998,210.193335 117.288002,210.562664 116.936,211.032 L116.936,217 L116.176,217 Z M129.912,217 C129.751999,217 129.653334,216.925334 129.616,216.776 L129.504,215.76 C129.285332,215.973334 129.068001,216.165332 128.852,216.336 C128.635999,216.506668 128.410668,216.650666 128.176,216.768 C127.941332,216.885334 127.688001,216.974666 127.416,217.036 C127.143999,217.097334 126.845335,217.128 126.52,217.128 C126.247999,217.128 125.984001,217.088 125.728,217.008 C125.471999,216.928 125.245334,216.805334 125.048,216.64 C124.850666,216.474666 124.692001,216.262668 124.572,216.004 C124.451999,215.745332 124.392,215.434668 124.392,215.072 C124.392,214.735998 124.487999,214.424001 124.68,214.136 C124.872001,213.847999 125.171998,213.597334 125.58,213.384 C125.988002,213.170666 126.51333,213.000001 127.156,212.872 C127.79867,212.743999 128.570662,212.669333 129.472,212.648 L129.472,211.816 C129.472,211.079996 129.313335,210.513335 128.996,210.116 C128.678665,209.718665 128.208003,209.52 127.584,209.52 C127.199998,209.52 126.873335,209.573333 126.604,209.68 C126.334665,209.786667 126.106668,209.903999 125.92,210.032 C125.733332,210.160001 125.581334,210.277333 125.464,210.384 C125.346666,210.490667 125.248,210.544 125.168,210.544 C125.061333,210.544 124.981334,210.496 124.928,210.4 L124.792,210.168 C125.208002,209.751998 125.645331,209.437334 126.104,209.224 C126.562669,209.010666 127.082664,208.904 127.664,208.904 C128.090669,208.904 128.463998,208.971999 128.784,209.108 C129.104002,209.244001 129.369332,209.438665 129.58,209.692 C129.790668,209.945335 129.949333,210.251998 130.056,210.612 C130.162667,210.972002 130.216,211.373331 130.216,211.816 L130.216,217 L129.912,217 Z M126.712,216.576 C127.021335,216.576 127.305332,216.542667 127.564,216.476 C127.822668,216.409333 128.062666,216.316001 128.284,216.196 C128.505334,216.075999 128.711999,215.933334 128.904,215.768 C129.096001,215.602666 129.285332,215.424001 129.472,215.232 L129.472,213.16 C128.714663,213.181333 128.062669,213.238666 127.516,213.332 C126.969331,213.425334 126.518668,213.551999 126.164,213.712 C125.809332,213.872001 125.548001,214.062666 125.38,214.284 C125.211999,214.505334 125.128,214.757332 125.128,215.04 C125.128,215.306668 125.172,215.537332 125.26,215.732 C125.348,215.926668 125.463999,216.086666 125.608,216.212 C125.752001,216.337334 125.919999,216.429333 126.112,216.488 C126.304001,216.546667 126.503999,216.576 126.712,216.576 Z M135.552,217 L134.88,217 L131.52,209.04 L132.12,209.04 C132.194667,209.04 132.254666,209.06 132.3,209.1 C132.345334,209.14 132.378667,209.184 132.4,209.232 L135.024,215.512 C135.077334,215.634667 135.117333,215.751999 135.144,215.864 L135.224,216.2 C135.250667,216.087999 135.278667,215.974667 135.308,215.86 C135.337333,215.745333 135.376,215.629334 135.424,215.512 L138.064,209.232 C138.090667,209.173333 138.126666,209.126667 138.172,209.092 C138.217334,209.057333 138.272,209.04 138.336,209.04 L138.912,209.04 L135.552,217 Z M143.408,208.912 C143.856002,208.912 144.270665,208.989333 144.652,209.144 C145.033335,209.298667 145.363999,209.523999 145.644,209.82 C145.924001,210.116001 146.142666,210.479998 146.3,210.912 C146.457334,211.344002 146.536,211.839997 146.536,212.4 C146.536,212.517334 146.518667,212.597333 146.484,212.64 C146.449333,212.682667 146.394667,212.704 146.32,212.704 L140.568,212.704 L140.568,212.856 C140.568,213.453336 140.637333,213.978664 140.776,214.432 C140.914667,214.885336 141.111999,215.265332 141.368,215.572 C141.624001,215.878668 141.933332,216.109333 142.296,216.264 C142.658668,216.418667 143.063998,216.496 143.512,216.496 C143.912002,216.496 144.258665,216.452 144.552,216.364 C144.845335,216.276 145.091999,216.177334 145.292,216.068 C145.492001,215.958666 145.650666,215.86 145.768,215.772 C145.885334,215.684 145.970666,215.64 146.024,215.64 C146.093334,215.64 146.146666,215.666666 146.184,215.72 L146.392,215.976 C146.263999,216.136001 146.094668,216.285333 145.884,216.424 C145.673332,216.562667 145.438668,216.681333 145.18,216.78 C144.921332,216.878667 144.644001,216.957333 144.348,217.016 C144.051999,217.074667 143.754668,217.104 143.456,217.104 C142.911997,217.104 142.416002,217.009334 141.968,216.82 C141.519998,216.630666 141.136002,216.354668 140.816,215.992 C140.495998,215.629332 140.249334,215.185336 140.076,214.66 C139.902666,214.134664 139.816,213.533337 139.816,212.856 C139.816,212.28533 139.897333,211.758669 140.06,211.276 C140.222667,210.793331 140.457332,210.377335 140.764,210.028 C141.070668,209.678665 141.446664,209.405334 141.892,209.208 C142.337336,209.010666 142.842664,208.912 143.408,208.912 Z M143.416,209.48 C143.005331,209.48 142.637335,209.543999 142.312,209.672 C141.986665,209.800001 141.705335,209.983999 141.468,210.224 C141.230665,210.464001 141.038667,210.751998 140.892,211.088 C140.745333,211.424002 140.648,211.799998 140.6,212.216 L145.848,212.216 C145.848,211.789331 145.789334,211.406668 145.672,211.068 C145.554666,210.729332 145.389334,210.442668 145.176,210.208 C144.962666,209.973332 144.706668,209.793334 144.408,209.668 C144.109332,209.542666 143.778668,209.48 143.416,209.48 Z M156.752,217 C156.591999,217 156.493334,216.925334 156.456,216.776 L156.344,215.76 C156.125332,215.973334 155.908001,216.165332 155.692,216.336 C155.475999,216.506668 155.250668,216.650666 155.016,216.768 C154.781332,216.885334 154.528001,216.974666 154.256,217.036 C153.983999,217.097334 153.685335,217.128 153.36,217.128 C153.087999,217.128 152.824001,217.088 152.568,217.008 C152.311999,216.928 152.085334,216.805334 151.888,216.64 C151.690666,216.474666 151.532001,216.262668 151.412,216.004 C151.291999,215.745332 151.232,215.434668 151.232,215.072 C151.232,214.735998 151.327999,214.424001 151.52,214.136 C151.712001,213.847999 152.011998,213.597334 152.42,213.384 C152.828002,213.170666 153.35333,213.000001 153.996,212.872 C154.63867,212.743999 155.410662,212.669333 156.312,212.648 L156.312,211.816 C156.312,211.079996 156.153335,210.513335 155.836,210.116 C155.518665,209.718665 155.048003,209.52 154.424,209.52 C154.039998,209.52 153.713335,209.573333 153.444,209.68 C153.174665,209.786667 152.946668,209.903999 152.76,210.032 C152.573332,210.160001 152.421334,210.277333 152.304,210.384 C152.186666,210.490667 152.088,210.544 152.008,210.544 C151.901333,210.544 151.821334,210.496 151.768,210.4 L151.632,210.168 C152.048002,209.751998 152.485331,209.437334 152.944,209.224 C153.402669,209.010666 153.922664,208.904 154.504,208.904 C154.930669,208.904 155.303998,208.971999 155.624,209.108 C155.944002,209.244001 156.209332,209.438665 156.42,209.692 C156.630668,209.945335 156.789333,210.251998 156.896,210.612 C157.002667,210.972002 157.056,211.373331 157.056,211.816 L157.056,217 L156.752,217 Z M153.552,216.576 C153.861335,216.576 154.145332,216.542667 154.404,216.476 C154.662668,216.409333 154.902666,216.316001 155.124,216.196 C155.345334,216.075999 155.551999,215.933334 155.744,215.768 C155.936001,215.602666 156.125332,215.424001 156.312,215.232 L156.312,213.16 C155.554663,213.181333 154.902669,213.238666 154.356,213.332 C153.809331,213.425334 153.358668,213.551999 153.004,213.712 C152.649332,213.872001 152.388001,214.062666 152.22,214.284 C152.051999,214.505334 151.968,214.757332 151.968,215.04 C151.968,215.306668 152.012,215.537332 152.1,215.732 C152.188,215.926668 152.303999,216.086666 152.448,216.212 C152.592001,216.337334 152.759999,216.429333 152.952,216.488 C153.144001,216.546667 153.343999,216.576 153.552,216.576 Z M162.84,217 L162.84,209.872 L161.72,209.8 C161.565333,209.789333 161.488,209.722667 161.488,209.6 L161.488,209.288 L162.84,209.288 L162.84,208.608 C162.84,208.117331 162.911999,207.676002 163.056,207.284 C163.200001,206.891998 163.409332,206.558668 163.684,206.284 C163.958668,206.009332 164.293331,205.798667 164.688,205.652 C165.082669,205.505333 165.533331,205.432 166.04,205.432 C166.216001,205.432 166.398666,205.446667 166.588,205.476 C166.777334,205.505333 166.935999,205.546666 167.064,205.6 L167.032,205.984 C167.026667,206.037334 166.989334,206.064 166.92,206.064 C166.861333,206.064 166.774667,206.054667 166.66,206.036 C166.545333,206.017333 166.400001,206.008 166.224,206.008 C165.381329,206.008 164.730669,206.223998 164.272,206.656 C163.813331,207.088002 163.584,207.746662 163.584,208.632 L163.584,209.288 L168.248,209.288 L168.248,217 L167.48,217 L167.48,209.856 L163.6,209.856 L163.6,217 L162.84,217 Z M172.056,205.36 L172.056,217 L171.296,217 L171.296,205.36 L172.056,205.36 Z M177.048,217.128 C176.509331,217.128 176.089335,216.978668 175.788,216.68 C175.486665,216.381332 175.336,215.920003 175.336,215.296 L175.336,209.856 L174.192,209.856 C174.133333,209.856 174.085334,209.84 174.048,209.808 C174.010666,209.776 173.992,209.730667 173.992,209.672 L173.992,209.376 L175.352,209.28 L175.544,206.432 C175.549333,206.384 175.569333,206.341334 175.604,206.304 C175.638667,206.266666 175.685333,206.248 175.744,206.248 L176.104,206.248 L176.104,209.288 L178.608,209.288 L178.608,209.856 L176.104,209.856 L176.104,215.256 C176.104,215.474668 176.132,215.662666 176.188,215.82 C176.244,215.977334 176.321333,216.106666 176.42,216.208 C176.518667,216.309334 176.634666,216.384 176.768,216.432 C176.901334,216.48 177.045333,216.504 177.2,216.504 C177.392001,216.504 177.557333,216.476 177.696,216.42 C177.834667,216.364 177.954666,216.302667 178.056,216.236 C178.157334,216.169333 178.24,216.108 178.304,216.052 C178.368,215.996 178.418666,215.968 178.456,215.968 C178.498667,215.968 178.541333,215.994666 178.584,216.048 L178.792,216.384 C178.589332,216.608001 178.332002,216.787999 178.02,216.924 C177.707998,217.060001 177.384002,217.128 177.048,217.128 Z M183.576,208.912 C184.024002,208.912 184.438665,208.989333 184.82,209.144 C185.201335,209.298667 185.531999,209.523999 185.812,209.82 C186.092001,210.116001 186.310666,210.479998 186.468,210.912 C186.625334,211.344002 186.704,211.839997 186.704,212.4 C186.704,212.517334 186.686667,212.597333 186.652,212.64 C186.617333,212.682667 186.562667,212.704 186.488,212.704 L180.736,212.704 L180.736,212.856 C180.736,213.453336 180.805333,213.978664 180.944,214.432 C181.082667,214.885336 181.279999,215.265332 181.536,215.572 C181.792001,215.878668 182.101332,216.109333 182.464,216.264 C182.826668,216.418667 183.231998,216.496 183.68,216.496 C184.080002,216.496 184.426665,216.452 184.72,216.364 C185.013335,216.276 185.259999,216.177334 185.46,216.068 C185.660001,215.958666 185.818666,215.86 185.936,215.772 C186.053334,215.684 186.138666,215.64 186.192,215.64 C186.261334,215.64 186.314666,215.666666 186.352,215.72 L186.56,215.976 C186.431999,216.136001 186.262668,216.285333 186.052,216.424 C185.841332,216.562667 185.606668,216.681333 185.348,216.78 C185.089332,216.878667 184.812001,216.957333 184.516,217.016 C184.219999,217.074667 183.922668,217.104 183.624,217.104 C183.079997,217.104 182.584002,217.009334 182.136,216.82 C181.687998,216.630666 181.304002,216.354668 180.984,215.992 C180.663998,215.629332 180.417334,215.185336 180.244,214.66 C180.070666,214.134664 179.984,213.533337 179.984,212.856 C179.984,212.28533 180.065333,211.758669 180.228,211.276 C180.390667,210.793331 180.625332,210.377335 180.932,210.028 C181.238668,209.678665 181.614664,209.405334 182.06,209.208 C182.505336,209.010666 183.010664,208.912 183.576,208.912 Z M183.584,209.48 C183.173331,209.48 182.805335,209.543999 182.48,209.672 C182.154665,209.800001 181.873335,209.983999 181.636,210.224 C181.398665,210.464001 181.206667,210.751998 181.06,211.088 C180.913333,211.424002 180.816,211.799998 180.768,212.216 L186.016,212.216 C186.016,211.789331 185.957334,211.406668 185.84,211.068 C185.722666,210.729332 185.557334,210.442668 185.344,210.208 C185.130666,209.973332 184.874668,209.793334 184.576,209.668 C184.277332,209.542666 183.946668,209.48 183.584,209.48 Z M188.752,217 L188.752,209.04 L189.152,209.04 C189.242667,209.04 189.308,209.058666 189.348,209.096 C189.388,209.133334 189.410667,209.197333 189.416,209.288 L189.48,210.968 C189.736001,210.322663 190.077331,209.817335 190.504,209.452 C190.930669,209.086665 191.455997,208.904 192.08,208.904 C192.320001,208.904 192.541332,208.929333 192.744,208.98 C192.946668,209.030667 193.138666,209.104 193.32,209.2 L193.216,209.728 C193.2,209.813334 193.146667,209.856 193.056,209.856 C193.024,209.856 192.978667,209.845333 192.92,209.824 C192.861333,209.802667 192.788,209.778667 192.7,209.752 C192.612,209.725333 192.504001,209.701333 192.376,209.68 C192.247999,209.658667 192.101334,209.648 191.936,209.648 C191.33333,209.648 190.838669,209.834665 190.452,210.208 C190.065331,210.581335 189.752001,211.119996 189.512,211.824 L189.512,217 L188.752,217 Z M202.576,210.024 C202.538666,210.098667 202.48,210.136 202.4,210.136 C202.341333,210.136 202.265334,210.102667 202.172,210.036 C202.078666,209.969333 201.956001,209.894667 201.804,209.812 C201.651999,209.729333 201.465334,209.654667 201.244,209.588 C201.022666,209.521333 200.752002,209.488 200.432,209.488 C200.143999,209.488 199.881335,209.529333 199.644,209.612 C199.406665,209.694667 199.204001,209.805333 199.036,209.944 C198.867999,210.082667 198.737334,210.243999 198.644,210.428 C198.550666,210.612001 198.504,210.805332 198.504,211.008 C198.504,211.258668 198.567999,211.466666 198.696,211.632 C198.824001,211.797334 198.991999,211.938666 199.2,212.056 C199.408001,212.173334 199.643999,212.274666 199.908,212.36 C200.172001,212.445334 200.442665,212.530666 200.72,212.616 C200.997335,212.701334 201.267999,212.795999 201.532,212.9 C201.796001,213.004001 202.031999,213.133333 202.24,213.288 C202.448001,213.442667 202.615999,213.631999 202.744,213.856 C202.872001,214.080001 202.936,214.351998 202.936,214.672 C202.936,215.018668 202.873334,215.341332 202.748,215.64 C202.622666,215.938668 202.441335,216.197332 202.204,216.416 C201.966665,216.634668 201.674668,216.807999 201.328,216.936 C200.981332,217.064001 200.586669,217.128 200.144,217.128 C199.583997,217.128 199.101335,217.038668 198.696,216.86 C198.290665,216.681332 197.928002,216.448001 197.608,216.16 L197.792,215.888 C197.818667,215.845333 197.848,215.813333 197.88,215.792 C197.912,215.770667 197.957333,215.76 198.016,215.76 C198.085334,215.76 198.170666,215.802666 198.272,215.888 C198.373334,215.973334 198.505333,216.065333 198.668,216.164 C198.830667,216.262667 199.033332,216.354666 199.276,216.44 C199.518668,216.525334 199.818665,216.568 200.176,216.568 C200.512002,216.568 200.807999,216.521334 201.064,216.428 C201.320001,216.334666 201.533332,216.208001 201.704,216.048 C201.874668,215.887999 202.004,215.700001 202.092,215.484 C202.18,215.267999 202.224,215.040001 202.224,214.8 C202.224,214.533332 202.160001,214.312001 202.032,214.136 C201.903999,213.959999 201.736001,213.810667 201.528,213.688 C201.319999,213.565333 201.084001,213.461334 200.82,213.376 C200.555999,213.290666 200.284001,213.205334 200.004,213.12 C199.723999,213.034666 199.452001,212.941334 199.188,212.84 C198.923999,212.738666 198.688001,212.610667 198.48,212.456 C198.271999,212.301333 198.104001,212.113334 197.976,211.892 C197.847999,211.670666 197.784,211.394668 197.784,211.064 C197.784,210.781332 197.845333,210.509335 197.968,210.248 C198.090667,209.986665 198.265332,209.757334 198.492,209.56 C198.718668,209.362666 198.994665,209.205334 199.32,209.088 C199.645335,208.970666 200.010665,208.912 200.416,208.912 C200.901336,208.912 201.331998,208.981333 201.708,209.12 C202.084002,209.258667 202.429332,209.471999 202.744,209.76 L202.576,210.024 Z M208.072,208.912 C208.520002,208.912 208.934665,208.989333 209.316,209.144 C209.697335,209.298667 210.027999,209.523999 210.308,209.82 C210.588001,210.116001 210.806666,210.479998 210.964,210.912 C211.121334,211.344002 211.2,211.839997 211.2,212.4 C211.2,212.517334 211.182667,212.597333 211.148,212.64 C211.113333,212.682667 211.058667,212.704 210.984,212.704 L205.232,212.704 L205.232,212.856 C205.232,213.453336 205.301333,213.978664 205.44,214.432 C205.578667,214.885336 205.775999,215.265332 206.032,215.572 C206.288001,215.878668 206.597332,216.109333 206.96,216.264 C207.322668,216.418667 207.727998,216.496 208.176,216.496 C208.576002,216.496 208.922665,216.452 209.216,216.364 C209.509335,216.276 209.755999,216.177334 209.956,216.068 C210.156001,215.958666 210.314666,215.86 210.432,215.772 C210.549334,215.684 210.634666,215.64 210.688,215.64 C210.757334,215.64 210.810666,215.666666 210.848,215.72 L211.056,215.976 C210.927999,216.136001 210.758668,216.285333 210.548,216.424 C210.337332,216.562667 210.102668,216.681333 209.844,216.78 C209.585332,216.878667 209.308001,216.957333 209.012,217.016 C208.715999,217.074667 208.418668,217.104 208.12,217.104 C207.575997,217.104 207.080002,217.009334 206.632,216.82 C206.183998,216.630666 205.800002,216.354668 205.48,215.992 C205.159998,215.629332 204.913334,215.185336 204.74,214.66 C204.566666,214.134664 204.48,213.533337 204.48,212.856 C204.48,212.28533 204.561333,211.758669 204.724,211.276 C204.886667,210.793331 205.121332,210.377335 205.428,210.028 C205.734668,209.678665 206.110664,209.405334 206.556,209.208 C207.001336,209.010666 207.506664,208.912 208.072,208.912 Z M208.08,209.48 C207.669331,209.48 207.301335,209.543999 206.976,209.672 C206.650665,209.800001 206.369335,209.983999 206.132,210.224 C205.894665,210.464001 205.702667,210.751998 205.556,211.088 C205.409333,211.424002 205.312,211.799998 205.264,212.216 L210.512,212.216 C210.512,211.789331 210.453334,211.406668 210.336,211.068 C210.218666,210.729332 210.053334,210.442668 209.84,210.208 C209.626666,209.973332 209.370668,209.793334 209.072,209.668 C208.773332,209.542666 208.442668,209.48 208.08,209.48 Z M215.424,217.128 C214.885331,217.128 214.465335,216.978668 214.164,216.68 C213.862665,216.381332 213.712,215.920003 213.712,215.296 L213.712,209.856 L212.568,209.856 C212.509333,209.856 212.461334,209.84 212.424,209.808 C212.386666,209.776 212.368,209.730667 212.368,209.672 L212.368,209.376 L213.728,209.28 L213.92,206.432 C213.925333,206.384 213.945333,206.341334 213.98,206.304 C214.014667,206.266666 214.061333,206.248 214.12,206.248 L214.48,206.248 L214.48,209.288 L216.984,209.288 L216.984,209.856 L214.48,209.856 L214.48,215.256 C214.48,215.474668 214.508,215.662666 214.564,215.82 C214.62,215.977334 214.697333,216.106666 214.796,216.208 C214.894667,216.309334 215.010666,216.384 215.144,216.432 C215.277334,216.48 215.421333,216.504 215.576,216.504 C215.768001,216.504 215.933333,216.476 216.072,216.42 C216.210667,216.364 216.330666,216.302667 216.432,216.236 C216.533334,216.169333 216.616,216.108 216.68,216.052 C216.744,215.996 216.794666,215.968 216.832,215.968 C216.874667,215.968 216.917333,215.994666 216.96,216.048 L217.168,216.384 C216.965332,216.608001 216.708002,216.787999 216.396,216.924 C216.083998,217.060001 215.760002,217.128 215.424,217.128 Z M220.424,211.96 C220.424,210.759994 220.262668,209.612005 219.94,208.516 C219.617332,207.419995 219.13867,206.360005 218.504,205.336 C218.466666,205.277333 218.448,205.221334 218.448,205.168 C218.448,205.093333 218.482666,205.037334 218.552,205 L218.888,204.792 C219.293335,205.421336 219.637332,206.030664 219.92,206.62 C220.202668,207.209336 220.429332,207.795997 220.6,208.38 C220.770668,208.964003 220.894666,209.550664 220.972,210.14 C221.049334,210.729336 221.088,211.335997 221.088,211.96 C221.088,212.584003 221.049334,213.18933 220.972,213.776 C220.894666,214.36267 220.770668,214.947997 220.6,215.532 C220.429332,216.116003 220.202668,216.702664 219.92,217.292 C219.637332,217.881336 219.293335,218.490664 218.888,219.12 L218.552,218.912 C218.477333,218.874666 218.44,218.816 218.44,218.736 C218.44,218.682666 218.458666,218.626667 218.496,218.568 C219.136003,217.549328 219.617332,216.492005 219.94,215.396 C220.262668,214.299995 220.424,213.154673 220.424,211.96 Z"/>
      <g transform="translate(47)">
        <path fill="#252527" d="M22.6120839,105.401484 C17.2285223,106.56832 16.3549947,106.491213 9.88089129,110.939308 C-16.3110764,128.934751 15.9104328,144.301388 33.3645214,148.218529 C54.6824077,153.002804 80.3056676,155.319486 101.238282,147.054975 C109.348295,143.85302 124.503308,137.389843 126.049663,126.874808 C126.051235,126.864116 126.694854,119.885657 125.190429,118.573256 C120.329094,114.332417 115.234736,110.318327 109.803734,106.848437 C108.075933,105.744538 105.898472,105.616146 103.945841,105"/>
        <g transform="translate(4 15)">
          <path fill="#2D2D30" d="M31.3390625,95.2226563 C36.14375,95.2226563 41.1544271,95.2226563 46.3710937,95.2226563 C51.5877604,95.2226563 57.3513021,94.4192708 63.6617187,92.8125 C63.0768229,97.8489583 63.9760417,101.834375 66.359375,104.76875 C69.934375,109.170313 75.3304687,109.364844 79.871875,109.170313 C84.4132812,108.975781 90.90625,104.125 92.3039062,98.46875 C93.7015625,92.8125 96.1039062,79.275 95.4351562,68.7070313 C94.7664062,58.1390625 95.3515625,37.16875 96.9570312,32.3867188 C98.5625,27.6046875 100.475,20.1398437 102.561719,18.1210938 C103.952865,16.7752604 105.902344,16.1023438 108.410156,16.1023438 C88.6226562,16.1023438 78.025,16.1023438 76.6171875,16.1023438 C75.209375,16.1023438 69.7208333,16.1023438 60.1515625,16.1023438 C54.1510417,5.78307292 45.8744792,0.484375 35.321875,0.20625 C19.4929687,-0.2109375 -0.2984375,15.3796875 0.48984375,32.3867188 C1.278125,49.39375 12.821875,63.2140625 28.1289062,63.5789063 C33.2742188,63.5789063 33.0630432,62.422483 33.303125,64.7890625 C34.6681213,78.244358 33.303125,75.7289063 33.303125,81.715625 C33.303125,85.7067708 32.6484375,90.2091146 31.3390625,95.2226563 Z"/>
          <path fill="#252527" d="M98 32.4119894C101.61875 32.4119894 105.720052 32.4119894 110.303906 32.4119894 114.88776 32.4119894 119.466406 32.7609477 124.039844 33.4588644 120.636719 22.7463644 116.6125 17.2773539 111.967187 17.0518331 104.999219 16.7135519 102.064844 17.9658956 100.489844 22.7416769 99.4398437 25.925531 98.6098958 29.1489685 98 32.4119894zM33.4867188 64.528125L33.4867188 72.778125C44.3976563 74.2109375 53.4322917 71.4609375 60.590625 64.528125 71.328125 54.1289062 69.9875 40.2046875 69.9 35.7382812 69.8416667 32.7606771 67.515625 26.29375 62.921875 16.3375 65.9332095 30.6626792 64.8678729 41.6931384 59.7258654 49.4288775 54.5838579 57.1646165 45.8374756 62.197699 33.4867188 64.528125zM3.75859375 95.6375C4.19244792 100.936979 5.49635417 104.451823 7.6703125 106.182031 10.93125 108.777344 19.5757812 112.504687 27.1984375 113.070312 34.8210937 113.635938 43.484375 114.201563 56.9695312 113.635938 65.9596354 113.258854 73.5973958 112.08724 79.8828125 110.121094 72.5572917 110.279891 68.1346354 108.490814 66.6148437 104.753864 65.0950521 101.016913 64.3351562 97.4145833 64.3351562 93.946875 52.5867187 95.0739583 42.7736979 95.6375 34.8960937 95.6375 27.0184896 95.6375 16.6393229 95.6375 3.75859375 95.6375z"/>
          <path fill="#2D2D30" d="M32.8991668,0.499787626 C10.4221454,2.54605606 2.0550589,17.2713162 0.855102384,32.1845253 C-0.297723351,46.5119872 10.2499795,60.9682243 26.1595606,63.5654588 C69.4847471,70.6382827 82.1154519,6.21211458 36.4688341,0.499787626 L32.8991668,0.499787626 Z"/>
          <path fill="#252527" d="M9.13698731,53.4341771 C5.66013939,38.0870873 7.00899574,26.689605 13.1835564,19.2417301 C22.4453973,8.06991778 35.2919487,3.16618524 38.9036249,2.49720757 C42.5153011,1.8282299 25.3565402,-1.70886043 17.2467638,4.52307391 C9.13698731,10.7550083 2.27681065,20.5739481 1.39210776,28.9872316 C0.507404872,37.400515 2.67096816,46.018049 4.24874568,48.0267032 C5.30059736,49.365806 6.93001124,51.1682973 9.13698731,53.4341771 Z"/>
          <path stroke="#81BFF1" stroke-width="1.5" d="M32.8991668.499787626C10.4221454 2.54605606 2.0550589 17.2713162.855102384 32.1845253-.297723351 46.5119872 10.2499795 60.9682243 26.1595606 63.5654588 69.4847471 70.6382827 82.1154519 6.21211458 36.4688341.499787626L32.8991668.499787626zM3 95.3813275C48.9317014 95.8597633 28.4731707 97.2744782 64.4760537 93" stroke-linecap="round" stroke-linejoin="round"/>
          <path stroke="#81BFF1" stroke-width="1.5" d="M33.2973458 65.5486072C33.1170133 69.6962562 33.6039792 74.7315452 33.2973458 79.1889914 32.9295592 84.535407 31.7635675 89.3152774 31.5472704 94.2901114M63.8393818 94.5025751C62.931358 113.496878 85.6088321 113.983082 90.4135715 102.038539 95.1157996 90.3488392 94.7260926 80.086371 94.7603512 70.539188 94.8181667 54.4271413 93.3646558 40.1972077 99.8273319 23.4530014 101.186056 19.93267 103.08355 13.9400142 113.080941 17.5439195 119.277111 19.7775437 121.342611 28.3774506 122.935657 32.6283424M62.6463941 16.7616052C69.5621596 16.6029468 75.3011961 16.8580412 82.2795641 16.3665248 85.365601 16.149162 91.778814 16.149162 101.519203 16.3665248" stroke-linecap="round" stroke-linejoin="round"/>
          <path stroke="#81BFF1" stroke-width="1.5" d="M3.55011858 96.0890939C5.40105717 99.7909711 6.13858577 104.306386 9.10293434 107.194725 19.2758659 117.106813 58.2079979 113.021427 66.21916 112.747541 71.00521 112.583916 76.9404705 109.795312 80.4978291 111.161022M98.7412458 31.835083C106.464717 31.0698434 112.016435 30.9368801 123.330738 33.4200525" stroke-linecap="round" stroke-linejoin="round"/>
          <g fill-rule="nonzero" transform="translate(20 18)">
            <path fill="#252527" d="M14.3931376,11.8393224 L14.7334055,11.7258998 L17.9141074,12.9486545 L18.0534406,13.0149737 C18.1104197,13.0477095 18.1667054,13.0805367 18.2222981,13.1134565 C20.2151895,11.3670513 21.0941706,10.6104407 22.2264182,9.66657331 C22.8756358,9.12537075 23.1672964,8.83985357 23.7446811,8.18749234 C24.4376641,7.40452178 24.8523664,6.99856618 25.6427372,6.33969515 C26.3851161,5.72083121 27.4886214,5.82095987 28.1074854,6.56333876 C28.7263493,7.30571766 28.6262206,8.409223 27.8838417,9.02808693 C27.2346241,9.56928949 26.9429636,9.85480667 26.3655789,10.5071679 C25.6725959,11.2901385 25.2578935,11.6960941 24.4675228,12.3549651 C23.4314927,13.2186234 22.6090283,13.9248333 20.8889415,15.4305208 C22.3039104,17.5123601 21.5635707,19.8254303 18.9006235,22.0184456 C16.8473785,23.7093533 13.3082217,23.4412395 10.6471748,21.7367769 C7.69306272,19.8445991 6.81343538,16.7852657 9.1865585,14.0855105 C9.26256793,13.9990393 9.33801998,13.9165663 9.41312665,13.837906 C5.11165337,9.40526957 3.15869455,7.23745891 0.635561825,4.09581407 C0.030360428,3.34225567 0.150627538,2.24076322 0.904185934,1.63556183 C1.65774433,1.03036043 2.75923678,1.15062754 3.36443817,1.90418593 C5.95705133,5.1323434 7.92180191,7.29253067 12.7448548,12.2437344 C13.5700992,12.0918782 13.8209564,12.0300495 14.3931376,11.8393224 Z"/>
            <path fill="#81BFF1" d="M11.400585,11.3234306 C11.3035679,11.2238043 11.2042408,11.1218394 11.1024756,11.0174005 C6.42604093,6.21810849 4.32290121,3.93972615 1.58475922,0.5303654 C1.32538719,0.207411802 0.853318998,0.155868755 0.5303654,0.415240782 C0.207411802,0.67461281 0.155868755,1.146681 0.415240782,1.4696346 C3.15977501,4.88695455 5.2706009,7.17880374 9.86570018,11.89745 C9.57371149,12.0953576 9.27190723,12.3654448 8.93763911,12.745721 C4.70796792,17.5575559 13.7219565,22.1642469 17.2649162,19.2465154 C19.8725154,17.0990808 20.2842609,15.1228698 18.5001528,13.3178824 C18.5053063,13.3133627 18.5104668,13.3088369 18.5156341,13.3043051 C20.6457115,11.4361774 21.6006708,10.6093218 22.8272072,9.58685315 C23.6098586,8.93441711 23.9873335,8.55555417 24.616751,7.84440345 C25.199954,7.18546838 25.5266013,6.85761988 26.2435262,6.25997499 C26.5616885,5.99474759 26.6046008,5.52181673 26.3393734,5.20365435 C26.074146,4.88549197 25.6012152,4.84257968 25.2830528,5.10780708 C24.5004013,5.76024313 24.1229265,6.13910607 23.493509,6.85025679 C22.910306,7.50919185 22.5836587,7.83704036 21.8667338,8.43468525 C20.6274103,9.46781351 19.6660253,10.3002328 17.5265854,12.1765716 C17.4564932,12.2380441 17.3876735,12.2983891 17.3200746,12.3576507 C17.0836356,12.1976779 16.828704,12.0391471 16.5552797,11.8820583 L13.7093654,10.7880057 C12.7338223,11.1131868 12.0151721,11.206167 11.400585,11.3234306 Z"/>
          </g>
        </g>
        <g transform="translate(63)">
          <path stroke="#81BFF1" stroke-width="1.5" d="M17.5959948,45.638265 C17.2247896,53.3593324 16.8535844,54.0803998 16.4823793,61.8014672" stroke-linecap="round" stroke-linejoin="round"/>
          <path fill="#2D2D30" d="M1.19363938,16 C11.1492475,19.3011001 18.8354042,21.2223096 24.2521095,21.7636285 C29.6688148,22.3049474 37.1151912,21.3443426 46.5912386,18.8818143 C32.3692553,34.0806111 25.2452967,41.7709986 25.2193626,41.9529767 C25.1804615,42.2259438 23.892439,43.0329771 23.892439,44.7759447 C23.892439,45.9379232 24.0123292,51.0914416 24.2521095,60.2364999 C22.8406804,61.898039 21.4583722,62.6928745 20.1051849,62.6210063 C18.0754039,62.5132041 16.1900186,61.7826543 16.6218869,61.2119948 C17.0537552,60.6413352 18.2184809,44.5461644 17.7592499,43.0784716 C17.300019,41.6107787 10.419467,31.8855004 8.70386195,29.3157192 C7.56012526,27.6025318 5.05671774,23.1639587 1.19363938,16 Z"/>
          <path fill="#252527" d="M26.739711,22.7256913 C24.2589888,31.6776314 22.7312956,37.2065721 22.1566314,39.3125134 C21.5819673,41.4184547 21.0476484,43.46951 20.5536749,45.4656794 L20.1936394,61.6313337 L23.4666752,60.2624616 C23.0917918,51.4707762 23.0917918,46.2588633 23.4666752,44.626723 C23.8415585,42.9945827 24.815733,41.4951516 26.3891986,40.12843 L46.1125072,19 C42.0030238,20.1583394 38.476806,21.0688728 35.533854,21.7316002 C32.5909019,22.3943276 29.6595209,22.7256913 26.739711,22.7256913 Z"/>
          <path stroke="#81BFF1" stroke-width="1.5" d="M17.039187 61.8014672C18.0046088 62.6600572 17.5959948 62.8685172 20.5186455 62.5777324 23.4384368 62.2872321 23.3788595 61.0264306 24.5004108 60.9105748M24.2776877 60.2424055C24.1292056 53.1152663 23.9807236 52.9881272 23.8322415 45.8609881M23.8322415 45.0531161C23.8322415 45.0531161 23.9812124 43.7147751 24.9805553 42.5802417 27.367598 39.8702814 32.3573672 35.3712458 35.5252041 31.7463417 38.9316173 27.8484387 43.9532534 22.6554612 47.2181668 19.1342163" stroke-linecap="round" stroke-linejoin="round"/>
          <path fill="#2D2D30" d="M0.193639381,13.8504308 C6.07056464,9.2620774 14.4061721,7.37262615 25.2004618,8.182077 C35.9947516,8.99152785 43.2583806,12.4225181 46.991349,18.4750479 C39.2412363,22.4117526 31.1359585,23.5342805 22.6755159,21.8426315 C14.2150732,20.1509825 7.02529027,18.1453774 1.10616719,15.8258161 L0.193639381,13.8504308 Z"/>
          <path fill="#252527" d="M22.3348995,21.3323717 C24.1879148,17.7064171 25.4822403,15.4440099 26.217876,14.54515 C26.9535116,13.6462901 28.2440483,11.7315281 30.0894861,8.80086389 C22.8246747,7.73304537 16.6384338,7.73304537 11.5307633,8.80086389 C6.42309277,9.86868242 2.64405147,11.1233794 0.193639381,12.5649549 L0.193639381,14.54515 C3.06532165,16.1468778 6.00704495,17.3314314 9.01880928,18.0988108 C12.0305736,18.8661901 16.4692704,19.9440438 22.3348995,21.3323717 Z"/>
          <path stroke="#81BFF1" stroke-width="1.5" d="M.668169294 16.0152229C9.03694427 18.5151578 17.1526973 21.2526867 23.6578094 21.9342806 33.1547625 22.9293541 37.0437274 22.0684129 43.0934631 20.6170832 44.3903833 20.3059525 45.6274853 19.4234722 47.2181668 19.1342163M.320175195 12.9225998C7.47858434 7.55752402 37.4182275 3.49799234 46.9954437 18.466047" stroke-linecap="round" stroke-linejoin="round"/>
          <path fill="#81BFF1" d="M6.46681834,1.31888236 C6.75343072,0.6145099 7.73442822,0.174882446 9.40981081,0 C14.6262908,2.40760617 10.66559,5.10218663 8.01245507,5.11521267 C5.84425381,5.12585783 6.03689976,2.37544106 6.46681834,1.31888236 Z M25.1210848,0.430451967 C25.6506897,-0.115263918 27.0414019,-0.115263918 29.2932212,0.430451967 C31.7788137,3.07503879 30.3253429,4.77652572 28.385963,5.15060583 C27.2552748,5.36870026 26.2761287,5.51219863 25.3683486,5.15060583 C23.3540396,4.34825337 24.3266774,1.24902579 25.1210848,0.430451967 Z M37.1460404,17.5793943 C36.6457218,18.1520797 35.5750417,18.2483741 33.9340002,17.8682775 C29.7855614,13.8935214 34.4077472,12.6352235 36.9205764,13.4866834 C38.9741167,14.1825155 37.8965182,16.7203663 37.1460404,17.5793943 Z M16.7114685,16.3788827 C15.9799592,16.5866841 15.0295657,16.0843092 13.8602879,14.8717581 C12.5459217,9.27884535 17.107731,10.7409708 18.7514286,12.82365 C20.0946951,14.5256621 17.8087324,16.0671807 16.7114685,16.3788827 Z M41.4668183,5.31888236 C41.7534307,4.6145099 42.7344282,4.17488245 44.4098108,4 C49.6262908,6.40760617 47.0629457,8.83593873 44.4098108,8.84896477 C43.2971016,8.85442781 41.9813101,8.8032499 41.4668183,8.02475356 C40.9787825,7.28628863 41.2575317,5.83322083 41.4668183,5.31888236 Z"/>
          <path stroke="#81BFF1" stroke-width="1.5" d="M0,14.6788843 C2.44090375,18.840852 5.26619465,24.7690304 8.4082291,29.7257725 C12.3680166,35.9725675 16.4808419,40.9669382 17.039187,42.1934113 C18.0405709,44.3930731 17.3219868,45.171056 17.5959948,45.638265" stroke-linecap="round" stroke-linejoin="round"/>
        </g>
      </g>
    </g>
  </g>
</svg>
