<svg xmlns="http://www.w3.org/2000/svg" width="338" height="177" viewBox="0 0 338 177">
  <g fill="none" fill-rule="evenodd">
    <rect width="338" height="177"/>
    <g transform="translate(-26 -2)">
      <rect width="390" height="164" y="17"/>
      <g transform="translate(26 111)">
        <text fill="#FFFFFF" transform="translate(38)" font-size="20" font-family="SegoeUI, Segoe UI" opacity=".8">
          <tspan x="0" y="22">The remote repo list is empty</tspan>
        </text>
        <g transform="translate(0 33)">
          <path fill="#8EA6BB" d="M9.597 12L8.773 12 8.773 6.576 1.685 6.576 1.685 12 .861 12 .861.68 1.685.68 1.685 5.96 8.773 5.96 8.773.68 9.597.68 9.597 12zM15.573 3.912C16.0210022 3.912 16.4356648 3.98933256 16.817 4.144 17.1983352 4.29866744 17.5289986 4.52399852 17.809 4.82 18.0890014 5.11600148 18.3076659 5.47999784 18.465 5.912 18.6223341 6.34400216 18.701 6.8399972 18.701 7.4 18.701 7.51733392 18.6836668 7.59733312 18.649 7.64 18.6143332 7.68266688 18.559667 7.704 18.485 7.704L12.733 7.704 12.733 7.856C12.733 8.45333632 12.8023326 8.9786644 12.941 9.432 13.0796674 9.8853356 13.2769987 10.2653318 13.533 10.572 13.7890013 10.8786682 14.0983315 11.1093326 14.461 11.264 14.8236685 11.4186674 15.2289978 11.496 15.677 11.496 16.077002 11.496 16.4236652 11.4520004 16.717 11.364 17.0103348 11.2759996 17.256999 11.1773339 17.457 11.068 17.657001 10.9586661 17.8156661 10.8600004 17.933 10.772 18.0503339 10.6839996 18.1356664 10.64 18.189 10.64 18.2583337 10.64 18.3116665 10.6666664 18.349 10.72L18.557 10.976C18.4289994 11.1360008 18.2596677 11.2853326 18.049 11.424 17.8383323 11.5626674 17.603668 11.6813328 17.345 11.78 17.086332 11.8786672 16.8090015 11.957333 16.513 12.016 16.2169985 12.074667 15.9196682 12.104 15.621 12.104 15.0769973 12.104 14.5810022 12.0093343 14.133 11.82 13.6849978 11.6306657 13.3010016 11.3546685 12.981 10.992 12.6609984 10.6293315 12.4143342 10.185336 12.241 9.66 12.0676658 9.13466404 11.981 8.53333672 11.981 7.856 11.981 7.28533048 12.0623325 6.75866908 12.225 6.276 12.3876675 5.79333092 12.6223318 5.37733508 12.929 5.028 13.2356682 4.67866492 13.6116644 4.40533432 14.057 4.208 14.5023356 4.01066568 15.0076638 3.912 15.573 3.912zM15.581 4.48C15.1703313 4.48 14.802335 4.54399936 14.477 4.672 14.151665 4.80000064 13.8703345 4.9839988 13.633 5.224 13.3956655 5.4640012 13.2036674 5.75199832 13.057 6.088 12.9103326 6.42400168 12.8130002 6.79999792 12.765 7.216L18.013 7.216C18.013 6.7893312 17.9543339 6.40666836 17.837 6.068 17.7196661 5.72933164 17.5543344 5.44266784 17.341 5.208 17.1276656 4.97333216 16.8716682 4.79333396 16.573 4.668 16.2743318 4.54266604 15.9436685 4.48 15.581 4.48zM20.749 12L20.749 4.04 21.149 4.04C21.2396671 4.04 21.3049998 4.05866648 21.345 4.096 21.3850002 4.13333352 21.4076666 4.19733288 21.413 4.288L21.477 5.968C21.7330013 5.32266344 22.0743312 4.81733516 22.501 4.452 22.9276688 4.08666484 23.4529969 3.904 24.077 3.904 24.3170012 3.904 24.5383323 3.92933308 24.741 3.98 24.9436677 4.03066692 25.1356658 4.10399952 25.317 4.2L25.213 4.728C25.1969999 4.81333376 25.1436671 4.856 25.053 4.856 25.0209998 4.856 24.975667 4.84533344 24.917 4.824 24.858333 4.80266656 24.7850004 4.7786668 24.697 4.752 24.6089996 4.7253332 24.5010006 4.70133344 24.373 4.68 24.2449994 4.65866656 24.0983342 4.648 23.933 4.648 23.3303303 4.648 22.8356686 4.8346648 22.449 5.208 22.0623314 5.5813352 21.7490012 6.11999648 21.509 6.824L21.509 12 20.749 12zM30.101 3.912C30.5490022 3.912 30.9636648 3.98933256 31.345 4.144 31.7263352 4.29866744 32.0569986 4.52399852 32.337 4.82 32.6170014 5.11600148 32.8356659 5.47999784 32.993 5.912 33.1503341 6.34400216 33.229 6.8399972 33.229 7.4 33.229 7.51733392 33.2116668 7.59733312 33.177 7.64 33.1423332 7.68266688 33.087667 7.704 33.013 7.704L27.261 7.704 27.261 7.856C27.261 8.45333632 27.3303326 8.9786644 27.469 9.432 27.6076674 9.8853356 27.8049987 10.2653318 28.061 10.572 28.3170013 10.8786682 28.6263315 11.1093326 28.989 11.264 29.3516685 11.4186674 29.7569978 11.496 30.205 11.496 30.605002 11.496 30.9516652 11.4520004 31.245 11.364 31.5383348 11.2759996 31.784999 11.1773339 31.985 11.068 32.185001 10.9586661 32.3436661 10.8600004 32.461 10.772 32.5783339 10.6839996 32.6636664 10.64 32.717 10.64 32.7863337 10.64 32.8396665 10.6666664 32.877 10.72L33.085 10.976C32.9569994 11.1360008 32.7876677 11.2853326 32.577 11.424 32.3663323 11.5626674 32.131668 11.6813328 31.873 11.78 31.614332 11.8786672 31.3370015 11.957333 31.041 12.016 30.7449985 12.074667 30.4476682 12.104 30.149 12.104 29.6049973 12.104 29.1090022 12.0093343 28.661 11.82 28.2129978 11.6306657 27.8290016 11.3546685 27.509 10.992 27.1889984 10.6293315 26.9423342 10.185336 26.769 9.66 26.5956658 9.13466404 26.509 8.53333672 26.509 7.856 26.509 7.28533048 26.5903325 6.75866908 26.753 6.276 26.9156675 5.79333092 27.1503318 5.37733508 27.457 5.028 27.7636682 4.67866492 28.1396644 4.40533432 28.585 4.208 29.0303356 4.01066568 29.5356638 3.912 30.101 3.912zM30.109 4.48C29.6983313 4.48 29.330335 4.54399936 29.005 4.672 28.679665 4.80000064 28.3983345 4.9839988 28.161 5.224 27.9236655 5.4640012 27.7316674 5.75199832 27.585 6.088 27.4383326 6.42400168 27.3410002 6.79999792 27.293 7.216L32.541 7.216C32.541 6.7893312 32.4823339 6.40666836 32.365 6.068 32.2476661 5.72933164 32.0823344 5.44266784 31.869 5.208 31.6556656 4.97333216 31.3996682 4.79333396 31.101 4.668 30.8023318 4.54266604 30.4716685 4.48 30.109 4.48zM40.101 14.56C40.0689998 14.634667 40.0276669 14.6959998 39.977 14.744 39.9263331 14.7920002 39.8530005 14.816 39.757 14.816L39.213 14.816 40.613 11.704 37.245 4.04 37.877 4.04C37.9570004 4.04 38.0196664 4.0599998 38.065 4.1 38.1103336 4.1400002 38.1436666 4.18399976 38.165 4.232L40.845 10.424C40.8770002 10.5040004 40.9049999 10.5853329 40.929 10.668 40.9530001 10.7506671 40.9756666 10.8346662 40.997 10.92 41.0236668 10.8346662 41.0516665 10.7506671 41.081 10.668 41.1103335 10.5853329 41.1409998 10.5040004 41.173 10.424L43.821 4.232C43.8476668 4.17333304 43.8849998 4.12666684 43.933 4.092 43.9810002 4.05733316 44.034333 4.04 44.093 4.04L44.677 4.04 40.101 14.56zM49.045 3.912C49.6156695 3.912 50.1263311 4.00933236 50.577 4.204 51.0276689 4.39866764 51.4076651 4.67466488 51.717 5.032 52.0263349 5.38933512 52.2623325 5.81999748 52.425 6.324 52.5876675 6.82800252 52.669 7.39199688 52.669 8.016 52.669 8.64000312 52.5876675 9.20266416 52.425 9.704 52.2623325 10.2053358 52.0263349 10.6346649 51.717 10.992 51.4076651 11.3493351 51.0276689 11.623999 50.577 11.816 50.1263311 12.008001 49.6156695 12.104 49.045 12.104 48.4743305 12.104 47.9636689 12.008001 47.513 11.816 47.0623311 11.623999 46.6810016 11.3493351 46.369 10.992 46.0569984 10.6346649 45.8196675 10.2053358 45.657 9.704 45.4943325 9.20266416 45.413 8.64000312 45.413 8.016 45.413 7.39199688 45.4943325 6.82800252 45.657 6.324 45.8196675 5.81999748 46.0569984 5.38933512 46.369 5.032 46.6810016 4.67466488 47.0623311 4.39866764 47.513 4.204 47.9636689 4.00933236 48.4743305 3.912 49.045 3.912zM49.045 11.504C49.519669 11.504 49.9343316 11.4226675 50.289 11.26 50.6436684 11.0973325 50.9396655 10.8640015 51.177 10.56 51.4143345 10.2559985 51.5916661 9.88933548 51.709 9.46 51.8263339 9.03066452 51.885 8.549336 51.885 8.016 51.885 7.48799736 51.8263339 7.00800216 51.709 6.576 51.5916661 6.14399784 51.4143345 5.7746682 51.177 5.468 50.9396655 5.1613318 50.6436684 4.92533416 50.289 4.76 49.9343316 4.59466584 49.519669 4.512 49.045 4.512 48.570331 4.512 48.1556684 4.59466584 47.801 4.76 47.4463316 4.92533416 47.1503345 5.1613318 46.913 5.468 46.6756655 5.7746682 46.4970006 6.14399784 46.377 6.576 46.2569994 7.00800216 46.197 7.48799736 46.197 8.016 46.197 8.549336 46.2569994 9.03066452 46.377 9.46 46.4970006 9.88933548 46.6756655 10.2559985 46.913 10.56 47.1503345 10.8640015 47.4463316 11.0973325 47.801 11.26 48.1556684 11.4226675 48.570331 11.504 49.045 11.504zM55.237 4.04L55.237 9.128C55.237 9.8746704 55.407665 10.4599979 55.749 10.884 56.090335 11.3080021 56.6103298 11.52 57.309 11.52 57.8263359 11.52 58.3089978 11.3880013 58.757 11.124 59.2050022 10.8599987 59.6076649 10.4933357 59.965 10.024L59.965 4.04 60.733 4.04 60.733 12 60.309 12C60.1596659 12 60.0823334 11.9306674 60.077 11.792L60.005 10.608C59.6369982 11.066669 59.2116691 11.4346653 58.729 11.712 58.2463309 11.9893347 57.709003 12.128 57.117 12.128 56.6743311 12.128 56.2876683 12.0586674 55.957 11.92 55.6263317 11.7813326 55.3516678 11.5813346 55.133 11.32 54.9143322 11.0586654 54.7490006 10.7440018 54.637 10.376 54.5249994 10.0079982 54.469 9.59200232 54.469 9.128L54.469 4.04 55.237 4.04zM65.293 4.04L65.877 4.04C65.951667 4.04 66.0129998 4.0599998 66.061 4.1 66.1090002 4.1400002 66.1409999 4.18399976 66.157 4.232L68.165 10.512C68.2023335 10.6346673 68.2316666 10.7519994 68.253 10.864L68.317 11.2C68.3436668 11.0879994 68.3729998 10.9760006 68.405 10.864 68.4370002 10.7519994 68.4743331 10.6346673 68.517 10.512L70.653 4.176C70.6903335 4.05866608 70.7649994 4 70.877 4L71.189 4C71.3063339 4 71.3836665 4.05866608 71.421 4.176L73.525 10.512C73.6050004 10.7520012 73.6689998 10.9839989 73.717 11.208 73.7383334 11.0959994 73.7609999 10.9826672 73.785 10.868 73.8090001 10.7533328 73.8423331 10.6346673 73.885 10.512L75.901 4.232C75.9436669 4.10399936 76.0343326 4.04 76.173 4.04L76.733 4.04 74.069 12 73.509 12C73.4236662 12 73.3623335 11.9440006 73.325 11.832L71.141 5.368C71.1143332 5.2879996 71.0903334 5.2080004 71.069 5.128 71.0476666 5.0479996 71.0290001 4.9680004 71.013 4.888 70.9969999 4.9680004 70.9796668 5.0479996 70.961 5.128 70.9423332 5.2080004 70.9196668 5.2879996 70.893 5.368L68.685 11.832C68.6529998 11.9440006 68.5890005 12 68.493 12L67.957 12 65.293 4.04zM79.189 4.04L79.189 12 78.429 12 78.429 4.04 79.189 4.04zM79.525 1.296C79.525 1.39200048 79.5050002 1.48133292 79.465 1.564 79.4249998 1.64666708 79.3730003 1.71999968 79.309 1.784 79.2449997 1.84800032 79.1703338 1.89866648 79.085 1.936 78.9996662 1.97333352 78.9090005 1.992 78.813 1.992 78.7169995 1.992 78.6263338 1.97333352 78.541 1.936 78.4556662 1.89866648 78.3810003 1.84800032 78.317 1.784 78.2529997 1.71999968 78.2023335 1.64666708 78.165 1.564 78.1276665 1.48133292 78.109 1.39200048 78.109 1.296 78.109 1.19999952 78.1276665 1.10800044 78.165 1.02 78.2023335.93199956 78.2529997.85600032 78.317.792 78.3810003.72799968 78.4556662.67733352 78.541.64 78.6263338.60266648 78.7169995.584 78.813.584 78.9090005.584 78.9996662.60266648 79.085.64 79.1703338.67733352 79.2449997.72799968 79.309.792 79.3730003.85600032 79.4249998.93199956 79.465 1.02 79.5050002 1.10800044 79.525 1.19999952 79.525 1.296zM82.989.36L82.989 12 82.229 12 82.229.36 82.989.36zM86.789.36L86.789 12 86.029 12 86.029.36 86.789.36zM92.693 12L92.693.36 93.453.36 93.453 5.4C93.8210018 4.9466644 94.2409976 4.58533468 94.713 4.316 95.1850024 4.04666532 95.7143304 3.912 96.301 3.912 96.7383355 3.912 97.123665 3.98133264 97.457 4.12 97.790335 4.25866736 98.0663322 4.45866536 98.285 4.72 98.5036678 4.98133464 98.6689994 5.29599816 98.781 5.664 98.8930006 6.03200184 98.949 6.44799768 98.949 6.912L98.949 12 98.189 12 98.189 6.912C98.189 6.1653296 98.018335 5.58000212 97.677 5.156 97.335665 4.73199788 96.8130035 4.52 96.109 4.52 95.5863307 4.52 95.1010022 4.65466532 94.653 4.924 94.2049978 5.19333468 93.8050018 5.56266432 93.453 6.032L93.453 12 92.693 12zM106.429 12C106.268999 12 106.170334 11.9253341 106.133 11.776L106.021 10.76C105.802332 10.9733344 105.585001 11.1653325 105.369 11.336 105.152999 11.5066675 104.927668 11.6506661 104.693 11.768 104.458332 11.8853339 104.205001 11.9746664 103.933 12.036 103.660999 12.0973336 103.362335 12.128 103.037 12.128 102.764999 12.128 102.501001 12.0880004 102.245 12.008 101.988999 11.9279996 101.762334 11.8053342 101.565 11.64 101.367666 11.4746658 101.209001 11.262668 101.089 11.004 100.968999 10.745332 100.909 10.4346685 100.909 10.072 100.909 9.73599832 101.004999 9.42400144 101.197 9.136 101.389001 8.84799856 101.688998 8.5973344 102.097 8.384 102.505002 8.1706656 103.03033 8.00000064 103.673 7.872 104.31567 7.74399936 105.087662 7.66933344 105.989 7.648L105.989 6.816C105.989 6.07999632 105.830335 5.51333532 105.513 5.116 105.195665 4.71866468 104.725003 4.52 104.101 4.52 103.716998 4.52 103.390335 4.5733328 103.121 4.68 102.851665 4.7866672 102.623668 4.90399936 102.437 5.032 102.250332 5.16000064 102.098334 5.2773328 101.981 5.384 101.863666 5.4906672 101.765 5.544 101.685 5.544 101.578333 5.544 101.498334 5.49600048 101.445 5.4L101.309 5.168C101.725002 4.75199792 102.162331 4.4373344 102.621 4.224 103.079669 4.0106656 103.599664 3.904 104.181 3.904 104.607669 3.904 104.980998 3.97199932 105.301 4.108 105.621002 4.24400068 105.886332 4.4386654 106.097 4.692 106.307668 4.9453346 106.466333 5.2519982 106.573 5.612 106.679667 5.9720018 106.733 6.37333112 106.733 6.816L106.733 12 106.429 12zM103.229 11.576C103.538335 11.576 103.822332 11.542667 104.081 11.476 104.339668 11.409333 104.579666 11.3160006 104.801 11.196 105.022334 11.0759994 105.228999 10.9333342 105.421 10.768 105.613001 10.6026658 105.802332 10.424001 105.989 10.232L105.989 8.16C105.231663 8.18133344 104.579669 8.2386662 104.033 8.332 103.486331 8.4253338 103.035668 8.5519992 102.681 8.712 102.326332 8.8720008 102.065001 9.06266556 101.897 9.284 101.728999 9.50533444 101.645 9.75733192 101.645 10.04 101.645 10.306668 101.689 10.5373324 101.777 10.732 101.865 10.9266676 101.980999 11.086666 102.125 11.212 102.269001 11.337334 102.436999 11.429333 102.629 11.488 102.821001 11.546667 103.020999 11.576 103.229 11.576zM111.869 12L111.197 12 107.837 4.04 108.437 4.04C108.511667 4.04 108.571666 4.0599998 108.617 4.1 108.662334 4.1400002 108.695667 4.18399976 108.717 4.232L111.341 10.512C111.394334 10.6346673 111.434333 10.7519994 111.461 10.864L111.541 11.2C111.567667 11.0879994 111.595667 10.9746672 111.625 10.86 111.654333 10.7453328 111.693 10.6293339 111.741 10.512L114.381 4.232C114.407667 4.17333304 114.443666 4.12666684 114.489 4.092 114.534334 4.05733316 114.589 4.04 114.653 4.04L115.229 4.04 111.869 12zM119.581 3.912C120.029002 3.912 120.443665 3.98933256 120.825 4.144 121.206335 4.29866744 121.536999 4.52399852 121.817 4.82 122.097001 5.11600148 122.315666 5.47999784 122.473 5.912 122.630334 6.34400216 122.709 6.8399972 122.709 7.4 122.709 7.51733392 122.691667 7.59733312 122.657 7.64 122.622333 7.68266688 122.567667 7.704 122.493 7.704L116.741 7.704 116.741 7.856C116.741 8.45333632 116.810333 8.9786644 116.949 9.432 117.087667 9.8853356 117.284999 10.2653318 117.541 10.572 117.797001 10.8786682 118.106332 11.1093326 118.469 11.264 118.831668 11.4186674 119.236998 11.496 119.685 11.496 120.085002 11.496 120.431665 11.4520004 120.725 11.364 121.018335 11.2759996 121.264999 11.1773339 121.465 11.068 121.665001 10.9586661 121.823666 10.8600004 121.941 10.772 122.058334 10.6839996 122.143666 10.64 122.197 10.64 122.266334 10.64 122.319666 10.6666664 122.357 10.72L122.565 10.976C122.436999 11.1360008 122.267668 11.2853326 122.057 11.424 121.846332 11.5626674 121.611668 11.6813328 121.353 11.78 121.094332 11.8786672 120.817001 11.957333 120.521 12.016 120.224999 12.074667 119.927668 12.104 119.629 12.104 119.084997 12.104 118.589002 12.0093343 118.141 11.82 117.692998 11.6306657 117.309002 11.3546685 116.989 10.992 116.668998 10.6293315 116.422334 10.185336 116.249 9.66 116.075666 9.13466404 115.989 8.53333672 115.989 7.856 115.989 7.28533048 116.070333 6.75866908 116.233 6.276 116.395667 5.79333092 116.630332 5.37733508 116.937 5.028 117.243668 4.67866492 117.619664 4.40533432 118.065 4.208 118.510336 4.01066568 119.015664 3.912 119.581 3.912zM119.589 4.48C119.178331 4.48 118.810335 4.54399936 118.485 4.672 118.159665 4.80000064 117.878335 4.9839988 117.641 5.224 117.403665 5.4640012 117.211667 5.75199832 117.065 6.088 116.918333 6.42400168 116.821 6.79999792 116.773 7.216L122.021 7.216C122.021 6.7893312 121.962334 6.40666836 121.845 6.068 121.727666 5.72933164 121.562334 5.44266784 121.349 5.208 121.135666 4.97333216 120.879668 4.79333396 120.581 4.668 120.282332 4.54266604 119.951668 4.48 119.589 4.48zM129.581 14.56C129.549 14.634667 129.507667 14.6959998 129.457 14.744 129.406333 14.7920002 129.333 14.816 129.237 14.816L128.693 14.816 130.093 11.704 126.725 4.04 127.357 4.04C127.437 4.04 127.499666 4.0599998 127.545 4.1 127.590334 4.1400002 127.623667 4.18399976 127.645 4.232L130.325 10.424C130.357 10.5040004 130.385 10.5853329 130.409 10.668 130.433 10.7506671 130.455667 10.8346662 130.477 10.92 130.503667 10.8346662 130.531667 10.7506671 130.561 10.668 130.590333 10.5853329 130.621 10.5040004 130.653 10.424L133.301 4.232C133.327667 4.17333304 133.365 4.12666684 133.413 4.092 133.461 4.05733316 133.514333 4.04 133.573 4.04L134.157 4.04 129.581 14.56zM138.525 3.912C139.09567 3.912 139.606331 4.00933236 140.057 4.204 140.507669 4.39866764 140.887665 4.67466488 141.197 5.032 141.506335 5.38933512 141.742333 5.81999748 141.905 6.324 142.067667 6.82800252 142.149 7.39199688 142.149 8.016 142.149 8.64000312 142.067667 9.20266416 141.905 9.704 141.742333 10.2053358 141.506335 10.6346649 141.197 10.992 140.887665 11.3493351 140.507669 11.623999 140.057 11.816 139.606331 12.008001 139.09567 12.104 138.525 12.104 137.95433 12.104 137.443669 12.008001 136.993 11.816 136.542331 11.623999 136.161002 11.3493351 135.849 10.992 135.536998 10.6346649 135.299667 10.2053358 135.137 9.704 134.974333 9.20266416 134.893 8.64000312 134.893 8.016 134.893 7.39199688 134.974333 6.82800252 135.137 6.324 135.299667 5.81999748 135.536998 5.38933512 135.849 5.032 136.161002 4.67466488 136.542331 4.39866764 136.993 4.204 137.443669 4.00933236 137.95433 3.912 138.525 3.912zM138.525 11.504C138.999669 11.504 139.414332 11.4226675 139.769 11.26 140.123668 11.0973325 140.419665 10.8640015 140.657 10.56 140.894335 10.2559985 141.071666 9.88933548 141.189 9.46 141.306334 9.03066452 141.365 8.549336 141.365 8.016 141.365 7.48799736 141.306334 7.00800216 141.189 6.576 141.071666 6.14399784 140.894335 5.7746682 140.657 5.468 140.419665 5.1613318 140.123668 4.92533416 139.769 4.76 139.414332 4.59466584 138.999669 4.512 138.525 4.512 138.050331 4.512 137.635668 4.59466584 137.281 4.76 136.926332 4.92533416 136.630335 5.1613318 136.393 5.468 136.155665 5.7746682 135.977001 6.14399784 135.857 6.576 135.736999 7.00800216 135.677 7.48799736 135.677 8.016 135.677 8.549336 135.736999 9.03066452 135.857 9.46 135.977001 9.88933548 136.155665 10.2559985 136.393 10.56 136.630335 10.8640015 136.926332 11.0973325 137.281 11.26 137.635668 11.4226675 138.050331 11.504 138.525 11.504zM144.717 4.04L144.717 9.128C144.717 9.8746704 144.887665 10.4599979 145.229 10.884 145.570335 11.3080021 146.09033 11.52 146.789 11.52 147.306336 11.52 147.788998 11.3880013 148.237 11.124 148.685002 10.8599987 149.087665 10.4933357 149.445 10.024L149.445 4.04 150.213 4.04 150.213 12 149.789 12C149.639666 12 149.562333 11.9306674 149.557 11.792L149.485 10.608C149.116998 11.066669 148.691669 11.4346653 148.209 11.712 147.726331 11.9893347 147.189003 12.128 146.597 12.128 146.154331 12.128 145.767668 12.0586674 145.437 11.92 145.106332 11.7813326 144.831668 11.5813346 144.613 11.32 144.394332 11.0586654 144.229001 10.7440018 144.117 10.376 144.004999 10.0079982 143.949 9.59200232 143.949 9.128L143.949 4.04 144.717 4.04zM152.805 12L152.805 4.04 153.205 4.04C153.295667 4.04 153.361 4.05866648 153.401 4.096 153.441 4.13333352 153.463667 4.19733288 153.469 4.288L153.533 5.968C153.789001 5.32266344 154.130331 4.81733516 154.557 4.452 154.983669 4.08666484 155.508997 3.904 156.133 3.904 156.373001 3.904 156.594332 3.92933308 156.797 3.98 156.999668 4.03066692 157.191666 4.10399952 157.373 4.2L157.269 4.728C157.253 4.81333376 157.199667 4.856 157.109 4.856 157.077 4.856 157.031667 4.84533344 156.973 4.824 156.914333 4.80266656 156.841 4.7786668 156.753 4.752 156.665 4.7253332 156.557001 4.70133344 156.429 4.68 156.300999 4.65866656 156.154334 4.648 155.989 4.648 155.38633 4.648 154.891669 4.8346648 154.505 5.208 154.118331 5.5813352 153.805001 6.11999648 153.565 6.824L153.565 12 152.805 12zM163.229.36L163.229 12 162.469 12 162.469.36 163.229.36zM167.029 4.04L167.029 12 166.269 12 166.269 4.04 167.029 4.04zM167.365 1.296C167.365 1.39200048 167.345 1.48133292 167.305 1.564 167.265 1.64666708 167.213 1.71999968 167.149 1.784 167.085 1.84800032 167.010334 1.89866648 166.925 1.936 166.839666 1.97333352 166.749 1.992 166.653 1.992 166.557 1.992 166.466334 1.97333352 166.381 1.936 166.295666 1.89866648 166.221 1.84800032 166.157 1.784 166.093 1.71999968 166.042334 1.64666708 166.005 1.564 165.967666 1.48133292 165.949 1.39200048 165.949 1.296 165.949 1.19999952 165.967666 1.10800044 166.005 1.02 166.042334.93199956 166.093.85600032 166.157.792 166.221.72799968 166.295666.67733352 166.381.64 166.466334.60266648 166.557.584 166.653.584 166.749.584 166.839666.60266648 166.925.64 167.010334.67733352 167.085.72799968 167.149.792 167.213.85600032 167.265.93199956 167.305 1.02 167.345 1.10800044 167.365 1.19999952 167.365 1.296zM174.229 5.024C174.191666 5.09866704 174.133 5.136 174.053 5.136 173.994333 5.136 173.918334 5.102667 173.825 5.036 173.731666 4.969333 173.609001 4.89466708 173.457 4.812 173.304999 4.72933292 173.118334 4.654667 172.897 4.588 172.675666 4.521333 172.405002 4.488 172.085 4.488 171.796999 4.488 171.534335 4.52933292 171.297 4.612 171.059665 4.69466708 170.857001 4.80533264 170.689 4.944 170.520999 5.08266736 170.390334 5.24399908 170.297 5.428 170.203666 5.61200092 170.157 5.80533232 170.157 6.008 170.157 6.25866792 170.220999 6.46666584 170.349 6.632 170.477001 6.79733416 170.644999 6.93866608 170.853 7.056 171.061001 7.17333392 171.296999 7.27466624 171.561 7.36 171.825001 7.44533376 172.095665 7.53066624 172.373 7.616 172.650335 7.70133376 172.920999 7.79599948 173.185 7.9 173.449001 8.00400052 173.684999 8.13333256 173.893 8.288 174.101001 8.44266744 174.268999 8.63199888 174.397 8.856 174.525001 9.08000112 174.589 9.3519984 174.589 9.672 174.589 10.0186684 174.526334 10.3413318 174.401 10.64 174.275666 10.9386682 174.094335 11.1973322 173.857 11.416 173.619665 11.6346678 173.327668 11.8079994 172.981 11.936 172.634332 12.0640006 172.239669 12.128 171.797 12.128 171.236997 12.128 170.754335 12.0386676 170.349 11.86 169.943665 11.6813324 169.581002 11.4480014 169.261 11.16L169.445 10.888C169.471667 10.8453331 169.501 10.8133334 169.533 10.792 169.565 10.7706666 169.610333 10.76 169.669 10.76 169.738334 10.76 169.823666 10.8026662 169.925 10.888 170.026334 10.9733338 170.158333 11.0653328 170.321 11.164 170.483667 11.2626672 170.686332 11.3546662 170.929 11.44 171.171668 11.5253338 171.471665 11.568 171.829 11.568 172.165002 11.568 172.460999 11.5213338 172.717 11.428 172.973001 11.3346662 173.186332 11.2080008 173.357 11.048 173.527668 10.8879992 173.657 10.7000011 173.745 10.484 173.833 10.2679989 173.877 10.0400012 173.877 9.8 173.877 9.533332 173.813001 9.31200088 173.685 9.136 173.556999 8.95999912 173.389001 8.81066728 173.181 8.688 172.972999 8.56533272 172.737001 8.46133376 172.473 8.376 172.208999 8.29066624 171.937001 8.20533376 171.657 8.12 171.376999 8.03466624 171.105001 7.94133384 170.841 7.84 170.576999 7.73866616 170.341001 7.61066744 170.133 7.456 169.924999 7.30133256 169.757001 7.11333444 169.629 6.892 169.500999 6.67066556 169.437 6.39466832 169.437 6.064 169.437 5.78133192 169.498333 5.50933464 169.621 5.248 169.743667 4.98666536 169.918332 4.75733432 170.145 4.56 170.371668 4.36266568 170.647665 4.20533392 170.973 4.088 171.298335 3.97066608 171.663665 3.912 172.069 3.912 172.554336 3.912 172.984998 3.98133264 173.361 4.12 173.737002 4.25866736 174.082332 4.47199856 174.397 4.76L174.229 5.024zM178.901 12.128C178.362331 12.128 177.942335 11.9786682 177.641 11.68 177.339665 11.3813318 177.189 10.9200031 177.189 10.296L177.189 4.856 176.045 4.856C175.986333 4.856 175.938334 4.84000016 175.901 4.808 175.863666 4.77599984 175.845 4.73066696 175.845 4.672L175.845 4.376 177.205 4.28 177.397 1.432C177.402333 1.38399976 177.422333 1.34133352 177.457 1.304 177.491667 1.26666648 177.538333 1.248 177.597 1.248L177.957 1.248 177.957 4.288 180.461 4.288 180.461 4.856 177.957 4.856 177.957 10.256C177.957 10.4746678 177.985 10.6626659 178.041 10.82 178.097 10.9773341 178.174333 11.1066662 178.273 11.208 178.371667 11.3093338 178.487666 11.3839998 178.621 11.432 178.754334 11.4800002 178.898333 11.504 179.053 11.504 179.245001 11.504 179.410333 11.4760003 179.549 11.42 179.687667 11.3639997 179.807666 11.302667 179.909 11.236 180.010334 11.169333 180.093 11.1080003 180.157 11.052 180.221 10.9959997 180.271666 10.968 180.309 10.968 180.351667 10.968 180.394333 10.9946664 180.437 11.048L180.645 11.384C180.442332 11.6080011 180.185002 11.7879993 179.873 11.924 179.560998 12.0600007 179.237002 12.128 178.901 12.128zM188.549 3.912C189.11967 3.912 189.630331 4.00933236 190.081 4.204 190.531669 4.39866764 190.911665 4.67466488 191.221 5.032 191.530335 5.38933512 191.766333 5.81999748 191.929 6.324 192.091667 6.82800252 192.173 7.39199688 192.173 8.016 192.173 8.64000312 192.091667 9.20266416 191.929 9.704 191.766333 10.2053358 191.530335 10.6346649 191.221 10.992 190.911665 11.3493351 190.531669 11.623999 190.081 11.816 189.630331 12.008001 189.11967 12.104 188.549 12.104 187.97833 12.104 187.467669 12.008001 187.017 11.816 186.566331 11.623999 186.185002 11.3493351 185.873 10.992 185.560998 10.6346649 185.323667 10.2053358 185.161 9.704 184.998333 9.20266416 184.917 8.64000312 184.917 8.016 184.917 7.39199688 184.998333 6.82800252 185.161 6.324 185.323667 5.81999748 185.560998 5.38933512 185.873 5.032 186.185002 4.67466488 186.566331 4.39866764 187.017 4.204 187.467669 4.00933236 187.97833 3.912 188.549 3.912zM188.549 11.504C189.023669 11.504 189.438332 11.4226675 189.793 11.26 190.147668 11.0973325 190.443665 10.8640015 190.681 10.56 190.918335 10.2559985 191.095666 9.88933548 191.213 9.46 191.330334 9.03066452 191.389 8.549336 191.389 8.016 191.389 7.48799736 191.330334 7.00800216 191.213 6.576 191.095666 6.14399784 190.918335 5.7746682 190.681 5.468 190.443665 5.1613318 190.147668 4.92533416 189.793 4.76 189.438332 4.59466584 189.023669 4.512 188.549 4.512 188.074331 4.512 187.659668 4.59466584 187.305 4.76 186.950332 4.92533416 186.654335 5.1613318 186.417 5.468 186.179665 5.7746682 186.001001 6.14399784 185.881 6.576 185.760999 7.00800216 185.701 7.48799736 185.701 8.016 185.701 8.549336 185.760999 9.03066452 185.881 9.46 186.001001 9.88933548 186.179665 10.2559985 186.417 10.56 186.654335 10.8640015 186.950332 11.0973325 187.305 11.26 187.659668 11.4226675 188.074331 11.504 188.549 11.504zM194.469 12L194.469 4.872 193.349 4.8C193.194333 4.78933328 193.117 4.72266728 193.117 4.6L193.117 4.288 194.469 4.288 194.469 3.28C194.469 2.8266644 194.527666 2.42800172 194.645 2.084 194.762334 1.73999828 194.927666 1.45333448 195.141 1.224 195.354334.99466552 195.611665.82266724 195.913.708 196.214335.59333276 196.546332.536 196.909.536 197.074334.536 197.240999.55066652 197.409.58 197.577001.60933348 197.724999.6506664 197.853.704L197.829 1.072C197.823667 1.14666704 197.773 1.184 197.677 1.184 197.613 1.184 197.526334 1.17600008 197.417 1.16 197.307666 1.14399992 197.173001 1.136 197.013 1.136 196.751665 1.136 196.510334 1.17466628 196.289 1.252 196.067666 1.32933372 195.877001 1.45333248 195.717 1.624 195.556999 1.79466752 195.433 2.01733196 195.345 2.292 195.257 2.56666804 195.213 2.903998 195.213 3.304L195.213 4.288 197.797 4.288 197.797 4.856 195.229 4.856 195.229 12 194.469 12zM202.413 12L202.413 4.04 202.813 4.04C202.903667 4.04 202.969 4.05866648 203.009 4.096 203.049 4.13333352 203.071667 4.19733288 203.077 4.288L203.141 5.968C203.397001 5.32266344 203.738331 4.81733516 204.165 4.452 204.591669 4.08666484 205.116997 3.904 205.741 3.904 205.981001 3.904 206.202332 3.92933308 206.405 3.98 206.607668 4.03066692 206.799666 4.10399952 206.981 4.2L206.877 4.728C206.861 4.81333376 206.807667 4.856 206.717 4.856 206.685 4.856 206.639667 4.84533344 206.581 4.824 206.522333 4.80266656 206.449 4.7786668 206.361 4.752 206.273 4.7253332 206.165001 4.70133344 206.037 4.68 205.908999 4.65866656 205.762334 4.648 205.597 4.648 204.99433 4.648 204.499669 4.8346648 204.113 5.208 203.726331 5.5813352 203.413001 6.11999648 203.173 6.824L203.173 12 202.413 12zM211.765 3.912C212.213002 3.912 212.627665 3.98933256 213.009 4.144 213.390335 4.29866744 213.720999 4.52399852 214.001 4.82 214.281001 5.11600148 214.499666 5.47999784 214.657 5.912 214.814334 6.34400216 214.893 6.8399972 214.893 7.4 214.893 7.51733392 214.875667 7.59733312 214.841 7.64 214.806333 7.68266688 214.751667 7.704 214.677 7.704L208.925 7.704 208.925 7.856C208.925 8.45333632 208.994333 8.9786644 209.133 9.432 209.271667 9.8853356 209.468999 10.2653318 209.725 10.572 209.981001 10.8786682 210.290332 11.1093326 210.653 11.264 211.015668 11.4186674 211.420998 11.496 211.869 11.496 212.269002 11.496 212.615665 11.4520004 212.909 11.364 213.202335 11.2759996 213.448999 11.1773339 213.649 11.068 213.849001 10.9586661 214.007666 10.8600004 214.125 10.772 214.242334 10.6839996 214.327666 10.64 214.381 10.64 214.450334 10.64 214.503666 10.6666664 214.541 10.72L214.749 10.976C214.620999 11.1360008 214.451668 11.2853326 214.241 11.424 214.030332 11.5626674 213.795668 11.6813328 213.537 11.78 213.278332 11.8786672 213.001001 11.957333 212.705 12.016 212.408999 12.074667 212.111668 12.104 211.813 12.104 211.268997 12.104 210.773002 12.0093343 210.325 11.82 209.876998 11.6306657 209.493002 11.3546685 209.173 10.992 208.852998 10.6293315 208.606334 10.185336 208.433 9.66 208.259666 9.13466404 208.173 8.53333672 208.173 7.856 208.173 7.28533048 208.254333 6.75866908 208.417 6.276 208.579667 5.79333092 208.814332 5.37733508 209.121 5.028 209.427668 4.67866492 209.803664 4.40533432 210.249 4.208 210.694336 4.01066568 211.199664 3.912 211.765 3.912zM211.773 4.48C211.362331 4.48 210.994335 4.54399936 210.669 4.672 210.343665 4.80000064 210.062335 4.9839988 209.825 5.224 209.587665 5.4640012 209.395667 5.75199832 209.249 6.088 209.102333 6.42400168 209.005 6.79999792 208.957 7.216L214.205 7.216C214.205 6.7893312 214.146334 6.40666836 214.029 6.068 213.911666 5.72933164 213.746334 5.44266784 213.533 5.208 213.319666 4.97333216 213.063668 4.79333396 212.765 4.668 212.466332 4.54266604 212.135668 4.48 211.773 4.48zM216.941 12L216.941 4.04 217.357 4.04C217.495667 4.04 217.575667 4.106666 217.597 4.24L217.669 5.392C217.823667 5.17333224 217.988999 4.97333424 218.165 4.792 218.341001 4.61066576 218.528999 4.45466732 218.729 4.324 218.929001 4.19333268 219.142332 4.09200036 219.369 4.02 219.595668 3.94799964 219.834332 3.912 220.085 3.912 220.666336 3.912 221.130332 4.08133164 221.477 4.42 221.823668 4.75866836 222.058333 5.22933032 222.181 5.832 222.277 5.50133168 222.411666 5.2160012 222.585 4.976 222.758334 4.7359988 222.956999 4.53733412 223.181 4.38 223.405001 4.22266588 223.648999 4.10533372 223.913 4.028 224.177001 3.95066628 224.447665 3.912 224.725 3.912 225.119669 3.912 225.474332 3.97733268 225.789 4.108 226.103668 4.23866732 226.371666 4.43199872 226.593 4.688 226.814334 4.94400128 226.983666 5.2586648 227.101 5.632 227.218334 6.0053352 227.277 6.4319976 227.277 6.912L227.277 12 226.509 12 226.509 6.912C226.509 6.13332944 226.341002 5.54000204 226.005 5.132 225.668998 4.72399796 225.189003 4.52 224.565 4.52 224.287665 4.52 224.022335 4.57066616 223.769 4.672 223.515665 4.77333384 223.291668 4.923999 223.097 5.124 222.902332 5.324001 222.747667 5.57333184 222.633 5.872 222.518333 6.17066816 222.461 6.51733136 222.461 6.912L222.461 12 221.701 12 221.701 6.912C221.701 6.1386628 221.546335 5.54666872 221.237 5.136 220.927665 4.72533128 220.477003 4.52 219.885 4.52 219.452998 4.52 219.053002 4.64933204 218.685 4.908 218.316998 5.16666796 217.989001 5.52533104 217.701 5.984L217.701 12 216.941 12zM232.701 3.912C233.27167 3.912 233.782331 4.00933236 234.233 4.204 234.683669 4.39866764 235.063665 4.67466488 235.373 5.032 235.682335 5.38933512 235.918333 5.81999748 236.081 6.324 236.243667 6.82800252 236.325 7.39199688 236.325 8.016 236.325 8.64000312 236.243667 9.20266416 236.081 9.704 235.918333 10.2053358 235.682335 10.6346649 235.373 10.992 235.063665 11.3493351 234.683669 11.623999 234.233 11.816 233.782331 12.008001 233.27167 12.104 232.701 12.104 232.13033 12.104 231.619669 12.008001 231.169 11.816 230.718331 11.623999 230.337002 11.3493351 230.025 10.992 229.712998 10.6346649 229.475667 10.2053358 229.313 9.704 229.150333 9.20266416 229.069 8.64000312 229.069 8.016 229.069 7.39199688 229.150333 6.82800252 229.313 6.324 229.475667 5.81999748 229.712998 5.38933512 230.025 5.032 230.337002 4.67466488 230.718331 4.39866764 231.169 4.204 231.619669 4.00933236 232.13033 3.912 232.701 3.912zM232.701 11.504C233.175669 11.504 233.590332 11.4226675 233.945 11.26 234.299668 11.0973325 234.595665 10.8640015 234.833 10.56 235.070335 10.2559985 235.247666 9.88933548 235.365 9.46 235.482334 9.03066452 235.541 8.549336 235.541 8.016 235.541 7.48799736 235.482334 7.00800216 235.365 6.576 235.247666 6.14399784 235.070335 5.7746682 234.833 5.468 234.595665 5.1613318 234.299668 4.92533416 233.945 4.76 233.590332 4.59466584 233.175669 4.512 232.701 4.512 232.226331 4.512 231.811668 4.59466584 231.457 4.76 231.102332 4.92533416 230.806335 5.1613318 230.569 5.468 230.331665 5.7746682 230.153001 6.14399784 230.033 6.576 229.912999 7.00800216 229.853 7.48799736 229.853 8.016 229.853 8.549336 229.912999 9.03066452 230.033 9.46 230.153001 9.88933548 230.331665 10.2559985 230.569 10.56 230.806335 10.8640015 231.102332 11.0973325 231.457 11.26 231.811668 11.4226675 232.226331 11.504 232.701 11.504zM240.501 12.128C239.962331 12.128 239.542335 11.9786682 239.241 11.68 238.939665 11.3813318 238.789 10.9200031 238.789 10.296L238.789 4.856 237.645 4.856C237.586333 4.856 237.538334 4.84000016 237.501 4.808 237.463666 4.77599984 237.445 4.73066696 237.445 4.672L237.445 4.376 238.805 4.28 238.997 1.432C239.002333 1.38399976 239.022333 1.34133352 239.057 1.304 239.091667 1.26666648 239.138333 1.248 239.197 1.248L239.557 1.248 239.557 4.288 242.061 4.288 242.061 4.856 239.557 4.856 239.557 10.256C239.557 10.4746678 239.585 10.6626659 239.641 10.82 239.697 10.9773341 239.774333 11.1066662 239.873 11.208 239.971667 11.3093338 240.087666 11.3839998 240.221 11.432 240.354334 11.4800002 240.498333 11.504 240.653 11.504 240.845001 11.504 241.010333 11.4760003 241.149 11.42 241.287667 11.3639997 241.407666 11.302667 241.509 11.236 241.610334 11.169333 241.693 11.1080003 241.757 11.052 241.821 10.9959997 241.871666 10.968 241.909 10.968 241.951667 10.968 241.994333 10.9946664 242.037 11.048L242.245 11.384C242.042332 11.6080011 241.785002 11.7879993 241.473 11.924 241.160998 12.0600007 240.837002 12.128 240.501 12.128zM247.029 3.912C247.477002 3.912 247.891665 3.98933256 248.273 4.144 248.654335 4.29866744 248.984999 4.52399852 249.265 4.82 249.545001 5.11600148 249.763666 5.47999784 249.921 5.912 250.078334 6.34400216 250.157 6.8399972 250.157 7.4 250.157 7.51733392 250.139667 7.59733312 250.105 7.64 250.070333 7.68266688 250.015667 7.704 249.941 7.704L244.189 7.704 244.189 7.856C244.189 8.45333632 244.258333 8.9786644 244.397 9.432 244.535667 9.8853356 244.732999 10.2653318 244.989 10.572 245.245001 10.8786682 245.554332 11.1093326 245.917 11.264 246.279668 11.4186674 246.684998 11.496 247.133 11.496 247.533002 11.496 247.879665 11.4520004 248.173 11.364 248.466335 11.2759996 248.712999 11.1773339 248.913 11.068 249.113001 10.9586661 249.271666 10.8600004 249.389 10.772 249.506334 10.6839996 249.591666 10.64 249.645 10.64 249.714334 10.64 249.767666 10.6666664 249.805 10.72L250.013 10.976C249.884999 11.1360008 249.715668 11.2853326 249.505 11.424 249.294332 11.5626674 249.059668 11.6813328 248.801 11.78 248.542332 11.8786672 248.265001 11.957333 247.969 12.016 247.672999 12.074667 247.375668 12.104 247.077 12.104 246.532997 12.104 246.037002 12.0093343 245.589 11.82 245.140998 11.6306657 244.757002 11.3546685 244.437 10.992 244.116998 10.6293315 243.870334 10.185336 243.697 9.66 243.523666 9.13466404 243.437 8.53333672 243.437 7.856 243.437 7.28533048 243.518333 6.75866908 243.681 6.276 243.843667 5.79333092 244.078332 5.37733508 244.385 5.028 244.691668 4.67866492 245.067664 4.40533432 245.513 4.208 245.958336 4.01066568 246.463664 3.912 247.029 3.912zM247.037 4.48C246.626331 4.48 246.258335 4.54399936 245.933 4.672 245.607665 4.80000064 245.326335 4.9839988 245.089 5.224 244.851665 5.4640012 244.659667 5.75199832 244.513 6.088 244.366333 6.42400168 244.269 6.79999792 244.221 7.216L249.469 7.216C249.469 6.7893312 249.410334 6.40666836 249.293 6.068 249.175666 5.72933164 249.010334 5.44266784 248.797 5.208 248.583666 4.97333216 248.327668 4.79333396 248.029 4.668 247.730332 4.54266604 247.399668 4.48 247.037 4.48zM255.293 12L255.293 4.04 255.693 4.04C255.783667 4.04 255.849 4.05866648 255.889 4.096 255.929 4.13333352 255.951667 4.19733288 255.957 4.288L256.021 5.968C256.277001 5.32266344 256.618331 4.81733516 257.045 4.452 257.471669 4.08666484 257.996997 3.904 258.621 3.904 258.861001 3.904 259.082332 3.92933308 259.285 3.98 259.487668 4.03066692 259.679666 4.10399952 259.861 4.2L259.757 4.728C259.741 4.81333376 259.687667 4.856 259.597 4.856 259.565 4.856 259.519667 4.84533344 259.461 4.824 259.402333 4.80266656 259.329 4.7786668 259.241 4.752 259.153 4.7253332 259.045001 4.70133344 258.917 4.68 258.788999 4.65866656 258.642334 4.648 258.477 4.648 257.87433 4.648 257.379669 4.8346648 256.993 5.208 256.606331 5.5813352 256.293001 6.11999648 256.053 6.824L256.053 12 255.293 12zM264.645 3.912C265.093002 3.912 265.507665 3.98933256 265.889 4.144 266.270335 4.29866744 266.600999 4.52399852 266.881 4.82 267.161001 5.11600148 267.379666 5.47999784 267.537 5.912 267.694334 6.34400216 267.773 6.8399972 267.773 7.4 267.773 7.51733392 267.755667 7.59733312 267.721 7.64 267.686333 7.68266688 267.631667 7.704 267.557 7.704L261.805 7.704 261.805 7.856C261.805 8.45333632 261.874333 8.9786644 262.013 9.432 262.151667 9.8853356 262.348999 10.2653318 262.605 10.572 262.861001 10.8786682 263.170332 11.1093326 263.533 11.264 263.895668 11.4186674 264.300998 11.496 264.749 11.496 265.149002 11.496 265.495665 11.4520004 265.789 11.364 266.082335 11.2759996 266.328999 11.1773339 266.529 11.068 266.729001 10.9586661 266.887666 10.8600004 267.005 10.772 267.122334 10.6839996 267.207666 10.64 267.261 10.64 267.330334 10.64 267.383666 10.6666664 267.421 10.72L267.629 10.976C267.500999 11.1360008 267.331668 11.2853326 267.121 11.424 266.910332 11.5626674 266.675668 11.6813328 266.417 11.78 266.158332 11.8786672 265.881001 11.957333 265.585 12.016 265.288999 12.074667 264.991668 12.104 264.693 12.104 264.148997 12.104 263.653002 12.0093343 263.205 11.82 262.756998 11.6306657 262.373002 11.3546685 262.053 10.992 261.732998 10.6293315 261.486334 10.185336 261.313 9.66 261.139666 9.13466404 261.053 8.53333672 261.053 7.856 261.053 7.28533048 261.134333 6.75866908 261.297 6.276 261.459667 5.79333092 261.694332 5.37733508 262.001 5.028 262.307668 4.67866492 262.683664 4.40533432 263.129 4.208 263.574336 4.01066568 264.079664 3.912 264.645 3.912zM264.653 4.48C264.242331 4.48 263.874335 4.54399936 263.549 4.672 263.223665 4.80000064 262.942335 4.9839988 262.705 5.224 262.467665 5.4640012 262.275667 5.75199832 262.129 6.088 261.982333 6.42400168 261.885 6.79999792 261.837 7.216L267.085 7.216C267.085 6.7893312 267.026334 6.40666836 266.909 6.068 266.791666 5.72933164 266.626334 5.44266784 266.413 5.208 266.199666 4.97333216 265.943668 4.79333396 265.645 4.668 265.346332 4.54266604 265.015668 4.48 264.653 4.48zM269.821 14.816L269.821 4.04 270.237 4.04C270.306334 4.04 270.362333 4.05466652 270.405 4.084 270.447667 4.11333348 270.471667 4.16533296 270.477 4.24L270.549 5.472C270.901002 4.9919976 271.312998 4.61066808 271.785 4.328 272.257002 4.04533192 272.78633 3.904 273.373 3.904 274.354338 3.904 275.116997 4.24266328 275.661 4.92 276.205003 5.59733672 276.477 6.61332656 276.477 7.968 276.477 8.54933624 276.401001 9.09199748 276.249 9.596 276.096999 10.1000025 275.874335 10.5373315 275.581 10.908 275.287665 11.2786685 274.926335 11.5706656 274.497 11.784 274.067665 11.9973344 273.573003 12.104 273.013 12.104 272.468997 12.104 271.999669 12.0053343 271.605 11.808 271.210331 11.6106657 270.869001 11.3173353 270.581 10.928L270.581 14.816 269.821 14.816zM273.157 4.52C272.628997 4.52 272.150335 4.65733196 271.721 4.932 271.291665 5.20666804 270.911668 5.58933088 270.581 6.08L270.581 10.256C270.885002 10.714669 271.222331 11.0373324 271.593 11.224 271.963669 11.4106676 272.386331 11.504 272.861 11.504 273.330336 11.504 273.740998 11.4186675 274.093 11.248 274.445002 11.0773325 274.739665 10.8360016 274.977 10.524 275.214335 10.2119984 275.392999 9.83866884 275.513 9.404 275.633001 8.96933116 275.693 8.49066928 275.693 7.968 275.693 6.78399408 275.475669 5.91333612 275.041 5.356 274.606331 4.79866388 273.978337 4.52 273.157 4.52zM281.413 3.912C281.98367 3.912 282.494331 4.00933236 282.945 4.204 283.395669 4.39866764 283.775665 4.67466488 284.085 5.032 284.394335 5.38933512 284.630333 5.81999748 284.793 6.324 284.955667 6.82800252 285.037 7.39199688 285.037 8.016 285.037 8.64000312 284.955667 9.20266416 284.793 9.704 284.630333 10.2053358 284.394335 10.6346649 284.085 10.992 283.775665 11.3493351 283.395669 11.623999 282.945 11.816 282.494331 12.008001 281.98367 12.104 281.413 12.104 280.84233 12.104 280.331669 12.008001 279.881 11.816 279.430331 11.623999 279.049002 11.3493351 278.737 10.992 278.424998 10.6346649 278.187667 10.2053358 278.025 9.704 277.862333 9.20266416 277.781 8.64000312 277.781 8.016 277.781 7.39199688 277.862333 6.82800252 278.025 6.324 278.187667 5.81999748 278.424998 5.38933512 278.737 5.032 279.049002 4.67466488 279.430331 4.39866764 279.881 4.204 280.331669 4.00933236 280.84233 3.912 281.413 3.912zM281.413 11.504C281.887669 11.504 282.302332 11.4226675 282.657 11.26 283.011668 11.0973325 283.307665 10.8640015 283.545 10.56 283.782335 10.2559985 283.959666 9.88933548 284.077 9.46 284.194334 9.03066452 284.253 8.549336 284.253 8.016 284.253 7.48799736 284.194334 7.00800216 284.077 6.576 283.959666 6.14399784 283.782335 5.7746682 283.545 5.468 283.307665 5.1613318 283.011668 4.92533416 282.657 4.76 282.302332 4.59466584 281.887669 4.512 281.413 4.512 280.938331 4.512 280.523668 4.59466584 280.169 4.76 279.814332 4.92533416 279.518335 5.1613318 279.281 5.468 279.043665 5.7746682 278.865001 6.14399784 278.745 6.576 278.624999 7.00800216 278.565 7.48799736 278.565 8.016 278.565 8.549336 278.624999 9.03066452 278.745 9.46 278.865001 9.88933548 279.043665 10.2559985 279.281 10.56 279.518335 10.8640015 279.814332 11.0973325 280.169 11.26 280.523668 11.4226675 280.938331 11.504 281.413 11.504zM291.421 5.024C291.383666 5.09866704 291.325 5.136 291.245 5.136 291.186333 5.136 291.110334 5.102667 291.017 5.036 290.923666 4.969333 290.801001 4.89466708 290.649 4.812 290.496999 4.72933292 290.310334 4.654667 290.089 4.588 289.867666 4.521333 289.597002 4.488 289.277 4.488 288.988999 4.488 288.726335 4.52933292 288.489 4.612 288.251665 4.69466708 288.049001 4.80533264 287.881 4.944 287.712999 5.08266736 287.582334 5.24399908 287.489 5.428 287.395666 5.61200092 287.349 5.80533232 287.349 6.008 287.349 6.25866792 287.412999 6.46666584 287.541 6.632 287.669001 6.79733416 287.836999 6.93866608 288.045 7.056 288.253001 7.17333392 288.488999 7.27466624 288.753 7.36 289.017001 7.44533376 289.287665 7.53066624 289.565 7.616 289.842335 7.70133376 290.112999 7.79599948 290.377 7.9 290.641001 8.00400052 290.876999 8.13333256 291.085 8.288 291.293001 8.44266744 291.460999 8.63199888 291.589 8.856 291.717001 9.08000112 291.781 9.3519984 291.781 9.672 291.781 10.0186684 291.718334 10.3413318 291.593 10.64 291.467666 10.9386682 291.286335 11.1973322 291.049 11.416 290.811665 11.6346678 290.519668 11.8079994 290.173 11.936 289.826332 12.0640006 289.431669 12.128 288.989 12.128 288.428997 12.128 287.946335 12.0386676 287.541 11.86 287.135665 11.6813324 286.773002 11.4480014 286.453 11.16L286.637 10.888C286.663667 10.8453331 286.693 10.8133334 286.725 10.792 286.757 10.7706666 286.802333 10.76 286.861 10.76 286.930334 10.76 287.015666 10.8026662 287.117 10.888 287.218334 10.9733338 287.350333 11.0653328 287.513 11.164 287.675667 11.2626672 287.878332 11.3546662 288.121 11.44 288.363668 11.5253338 288.663665 11.568 289.021 11.568 289.357002 11.568 289.652999 11.5213338 289.909 11.428 290.165001 11.3346662 290.378332 11.2080008 290.549 11.048 290.719668 10.8879992 290.849 10.7000011 290.937 10.484 291.025 10.2679989 291.069 10.0400012 291.069 9.8 291.069 9.533332 291.005001 9.31200088 290.877 9.136 290.748999 8.95999912 290.581001 8.81066728 290.373 8.688 290.164999 8.56533272 289.929001 8.46133376 289.665 8.376 289.400999 8.29066624 289.129001 8.20533376 288.849 8.12 288.568999 8.03466624 288.297001 7.94133384 288.033 7.84 287.768999 7.73866616 287.533001 7.61066744 287.325 7.456 287.116999 7.30133256 286.949001 7.11333444 286.821 6.892 286.692999 6.67066556 286.629 6.39466832 286.629 6.064 286.629 5.78133192 286.690333 5.50933464 286.813 5.248 286.935667 4.98666536 287.110332 4.75733432 287.337 4.56 287.563668 4.36266568 287.839665 4.20533392 288.165 4.088 288.490335 3.97066608 288.855665 3.912 289.261 3.912 289.746336 3.912 290.176998 3.98133264 290.553 4.12 290.929002 4.25866736 291.274332 4.47199856 291.589 4.76L291.421 5.024zM294.901 4.04L294.901 12 294.141 12 294.141 4.04 294.901 4.04zM295.237 1.296C295.237 1.39200048 295.217 1.48133292 295.177 1.564 295.137 1.64666708 295.085 1.71999968 295.021 1.784 294.957 1.84800032 294.882334 1.89866648 294.797 1.936 294.711666 1.97333352 294.621 1.992 294.525 1.992 294.429 1.992 294.338334 1.97333352 294.253 1.936 294.167666 1.89866648 294.093 1.84800032 294.029 1.784 293.965 1.71999968 293.914334 1.64666708 293.877 1.564 293.839666 1.48133292 293.821 1.39200048 293.821 1.296 293.821 1.19999952 293.839666 1.10800044 293.877 1.02 293.914334.93199956 293.965.85600032 294.029.792 294.093.72799968 294.167666.67733352 294.253.64 294.338334.60266648 294.429.584 294.525.584 294.621.584 294.711666.60266648 294.797.64 294.882334.67733352 294.957.72799968 295.021.792 295.085.85600032 295.137.93199956 295.177 1.02 295.217 1.10800044 295.237 1.19999952 295.237 1.296zM299.893 12.128C299.354331 12.128 298.934335 11.9786682 298.633 11.68 298.331665 11.3813318 298.181 10.9200031 298.181 10.296L298.181 4.856 297.037 4.856C296.978333 4.856 296.930334 4.84000016 296.893 4.808 296.855666 4.77599984 296.837 4.73066696 296.837 4.672L296.837 4.376 298.197 4.28 298.389 1.432C298.394333 1.38399976 298.414333 1.34133352 298.449 1.304 298.483667 1.26666648 298.530333 1.248 298.589 1.248L298.949 1.248 298.949 4.288 301.453 4.288 301.453 4.856 298.949 4.856 298.949 10.256C298.949 10.4746678 298.977 10.6626659 299.033 10.82 299.089 10.9773341 299.166333 11.1066662 299.265 11.208 299.363667 11.3093338 299.479666 11.3839998 299.613 11.432 299.746334 11.4800002 299.890333 11.504 300.045 11.504 300.237001 11.504 300.402333 11.4760003 300.541 11.42 300.679667 11.3639997 300.799666 11.302667 300.901 11.236 301.002334 11.169333 301.085 11.1080003 301.149 11.052 301.213 10.9959997 301.263666 10.968 301.301 10.968 301.343667 10.968 301.386333 10.9946664 301.429 11.048L301.637 11.384C301.434332 11.6080011 301.177002 11.7879993 300.865 11.924 300.552998 12.0600007 300.229002 12.128 299.893 12.128zM306.453 3.912C307.02367 3.912 307.534331 4.00933236 307.985 4.204 308.435669 4.39866764 308.815665 4.67466488 309.125 5.032 309.434335 5.38933512 309.670333 5.81999748 309.833 6.324 309.995667 6.82800252 310.077 7.39199688 310.077 8.016 310.077 8.64000312 309.995667 9.20266416 309.833 9.704 309.670333 10.2053358 309.434335 10.6346649 309.125 10.992 308.815665 11.3493351 308.435669 11.623999 307.985 11.816 307.534331 12.008001 307.02367 12.104 306.453 12.104 305.88233 12.104 305.371669 12.008001 304.921 11.816 304.470331 11.623999 304.089002 11.3493351 303.777 10.992 303.464998 10.6346649 303.227667 10.2053358 303.065 9.704 302.902333 9.20266416 302.821 8.64000312 302.821 8.016 302.821 7.39199688 302.902333 6.82800252 303.065 6.324 303.227667 5.81999748 303.464998 5.38933512 303.777 5.032 304.089002 4.67466488 304.470331 4.39866764 304.921 4.204 305.371669 4.00933236 305.88233 3.912 306.453 3.912zM306.453 11.504C306.927669 11.504 307.342332 11.4226675 307.697 11.26 308.051668 11.0973325 308.347665 10.8640015 308.585 10.56 308.822335 10.2559985 308.999666 9.88933548 309.117 9.46 309.234334 9.03066452 309.293 8.549336 309.293 8.016 309.293 7.48799736 309.234334 7.00800216 309.117 6.576 308.999666 6.14399784 308.822335 5.7746682 308.585 5.468 308.347665 5.1613318 308.051668 4.92533416 307.697 4.76 307.342332 4.59466584 306.927669 4.512 306.453 4.512 305.978331 4.512 305.563668 4.59466584 305.209 4.76 304.854332 4.92533416 304.558335 5.1613318 304.321 5.468 304.083665 5.7746682 303.905001 6.14399784 303.785 6.576 303.664999 7.00800216 303.605 7.48799736 303.605 8.016 303.605 8.549336 303.664999 9.03066452 303.785 9.46 303.905001 9.88933548 304.083665 10.2559985 304.321 10.56 304.558335 10.8640015 304.854332 11.0973325 305.209 11.26 305.563668 11.4226675 305.978331 11.504 306.453 11.504zM312.077 12L312.077 4.04 312.477 4.04C312.567667 4.04 312.633 4.05866648 312.673 4.096 312.713 4.13333352 312.735667 4.19733288 312.741 4.288L312.805 5.968C313.061001 5.32266344 313.402331 4.81733516 313.829 4.452 314.255669 4.08666484 314.780997 3.904 315.405 3.904 315.645001 3.904 315.866332 3.92933308 316.069 3.98 316.271668 4.03066692 316.463666 4.10399952 316.645 4.2L316.541 4.728C316.525 4.81333376 316.471667 4.856 316.381 4.856 316.349 4.856 316.303667 4.84533344 316.245 4.824 316.186333 4.80266656 316.113 4.7786668 316.025 4.752 315.937 4.7253332 315.829001 4.70133344 315.701 4.68 315.572999 4.65866656 315.426334 4.648 315.261 4.648 314.65833 4.648 314.163669 4.8346648 313.777 5.208 313.390331 5.5813352 313.077001 6.11999648 312.837 6.824L312.837 12 312.077 12zM319.413 4.04L319.413 12 318.653 12 318.653 4.04 319.413 4.04zM319.749 1.296C319.749 1.39200048 319.729 1.48133292 319.689 1.564 319.649 1.64666708 319.597 1.71999968 319.533 1.784 319.469 1.84800032 319.394334 1.89866648 319.309 1.936 319.223666 1.97333352 319.133 1.992 319.037 1.992 318.941 1.992 318.850334 1.97333352 318.765 1.936 318.679666 1.89866648 318.605 1.84800032 318.541 1.784 318.477 1.71999968 318.426334 1.64666708 318.389 1.564 318.351666 1.48133292 318.333 1.39200048 318.333 1.296 318.333 1.19999952 318.351666 1.10800044 318.389 1.02 318.426334.93199956 318.477.85600032 318.541.792 318.605.72799968 318.679666.67733352 318.765.64 318.850334.60266648 318.941.584 319.037.584 319.133.584 319.223666.60266648 319.309.64 319.394334.67733352 319.469.72799968 319.533.792 319.597.85600032 319.649.93199956 319.689 1.02 319.729 1.10800044 319.749 1.19999952 319.749 1.296zM325.229 3.912C325.677002 3.912 326.091665 3.98933256 326.473 4.144 326.854335 4.29866744 327.184999 4.52399852 327.465 4.82 327.745001 5.11600148 327.963666 5.47999784 328.121 5.912 328.278334 6.34400216 328.357 6.8399972 328.357 7.4 328.357 7.51733392 328.339667 7.59733312 328.305 7.64 328.270333 7.68266688 328.215667 7.704 328.141 7.704L322.389 7.704 322.389 7.856C322.389 8.45333632 322.458333 8.9786644 322.597 9.432 322.735667 9.8853356 322.932999 10.2653318 323.189 10.572 323.445001 10.8786682 323.754332 11.1093326 324.117 11.264 324.479668 11.4186674 324.884998 11.496 325.333 11.496 325.733002 11.496 326.079665 11.4520004 326.373 11.364 326.666335 11.2759996 326.912999 11.1773339 327.113 11.068 327.313001 10.9586661 327.471666 10.8600004 327.589 10.772 327.706334 10.6839996 327.791666 10.64 327.845 10.64 327.914334 10.64 327.967666 10.6666664 328.005 10.72L328.213 10.976C328.084999 11.1360008 327.915668 11.2853326 327.705 11.424 327.494332 11.5626674 327.259668 11.6813328 327.001 11.78 326.742332 11.8786672 326.465001 11.957333 326.169 12.016 325.872999 12.074667 325.575668 12.104 325.277 12.104 324.732997 12.104 324.237002 12.0093343 323.789 11.82 323.340998 11.6306657 322.957002 11.3546685 322.637 10.992 322.316998 10.6293315 322.070334 10.185336 321.897 9.66 321.723666 9.13466404 321.637 8.53333672 321.637 7.856 321.637 7.28533048 321.718333 6.75866908 321.881 6.276 322.043667 5.79333092 322.278332 5.37733508 322.585 5.028 322.891668 4.67866492 323.267664 4.40533432 323.713 4.208 324.158336 4.01066568 324.663664 3.912 325.229 3.912zM325.237 4.48C324.826331 4.48 324.458335 4.54399936 324.133 4.672 323.807665 4.80000064 323.526335 4.9839988 323.289 5.224 323.051665 5.4640012 322.859667 5.75199832 322.713 6.088 322.566333 6.42400168 322.469 6.79999792 322.421 7.216L327.669 7.216C327.669 6.7893312 327.610334 6.40666836 327.493 6.068 327.375666 5.72933164 327.210334 5.44266784 326.997 5.208 326.783666 4.97333216 326.527668 4.79333396 326.229 4.668 325.930332 4.54266604 325.599668 4.48 325.237 4.48zM334.789 5.024C334.751666 5.09866704 334.693 5.136 334.613 5.136 334.554333 5.136 334.478334 5.102667 334.385 5.036 334.291666 4.969333 334.169001 4.89466708 334.017 4.812 333.864999 4.72933292 333.678334 4.654667 333.457 4.588 333.235666 4.521333 332.965002 4.488 332.645 4.488 332.356999 4.488 332.094335 4.52933292 331.857 4.612 331.619665 4.69466708 331.417001 4.80533264 331.249 4.944 331.080999 5.08266736 330.950334 5.24399908 330.857 5.428 330.763666 5.61200092 330.717 5.80533232 330.717 6.008 330.717 6.25866792 330.780999 6.46666584 330.909 6.632 331.037001 6.79733416 331.204999 6.93866608 331.413 7.056 331.621001 7.17333392 331.856999 7.27466624 332.121 7.36 332.385001 7.44533376 332.655665 7.53066624 332.933 7.616 333.210335 7.70133376 333.480999 7.79599948 333.745 7.9 334.009001 8.00400052 334.244999 8.13333256 334.453 8.288 334.661001 8.44266744 334.828999 8.63199888 334.957 8.856 335.085001 9.08000112 335.149 9.3519984 335.149 9.672 335.149 10.0186684 335.086334 10.3413318 334.961 10.64 334.835666 10.9386682 334.654335 11.1973322 334.417 11.416 334.179665 11.6346678 333.887668 11.8079994 333.541 11.936 333.194332 12.0640006 332.799669 12.128 332.357 12.128 331.796997 12.128 331.314335 12.0386676 330.909 11.86 330.503665 11.6813324 330.141002 11.4480014 329.821 11.16L330.005 10.888C330.031667 10.8453331 330.061 10.8133334 330.093 10.792 330.125 10.7706666 330.170333 10.76 330.229 10.76 330.298334 10.76 330.383666 10.8026662 330.485 10.888 330.586334 10.9733338 330.718333 11.0653328 330.881 11.164 331.043667 11.2626672 331.246332 11.3546662 331.489 11.44 331.731668 11.5253338 332.031665 11.568 332.389 11.568 332.725002 11.568 333.020999 11.5213338 333.277 11.428 333.533001 11.3346662 333.746332 11.2080008 333.917 11.048 334.087668 10.8879992 334.217 10.7000011 334.305 10.484 334.393 10.2679989 334.437 10.0400012 334.437 9.8 334.437 9.533332 334.373001 9.31200088 334.245 9.136 334.116999 8.95999912 333.949001 8.81066728 333.741 8.688 333.532999 8.56533272 333.297001 8.46133376 333.033 8.376 332.768999 8.29066624 332.497001 8.20533376 332.217 8.12 331.936999 8.03466624 331.665001 7.94133384 331.401 7.84 331.136999 7.73866616 330.901001 7.61066744 330.693 7.456 330.484999 7.30133256 330.317001 7.11333444 330.189 6.892 330.060999 6.67066556 329.997 6.39466832 329.997 6.064 329.997 5.78133192 330.058333 5.50933464 330.181 5.248 330.303667 4.98666536 330.478332 4.75733432 330.705 4.56 330.931668 4.36266568 331.207665 4.20533392 331.533 4.088 331.858335 3.97066608 332.223665 3.912 332.629 3.912 333.114336 3.912 333.544998 3.98133264 333.921 4.12 334.297002 4.25866736 334.642332 4.47199856 334.957 4.76L334.789 5.024zM336.829 11.384C336.829 11.2826662 336.847666 11.1866671 336.885 11.096 336.922334 11.0053329 336.974333 10.926667 337.041 10.86 337.107667 10.793333 337.185 10.7400002 337.273 10.7 337.361 10.6599998 337.458333 10.64 337.565 10.64 337.666334 10.64 337.762333 10.6599998 337.853 10.7 337.943667 10.7400002 338.022333 10.793333 338.089 10.86 338.155667 10.926667 338.209 11.0053329 338.249 11.096 338.289 11.1866671 338.309 11.2826662 338.309 11.384 338.309 11.4906672 338.289 11.5879996 338.249 11.676 338.209 11.7640004 338.155667 11.841333 338.089 11.908 338.022333 11.974667 337.943667 12.0266665 337.853 12.064 337.762333 12.1013335 337.666334 12.12 337.565 12.12 337.356999 12.12 337.182334 12.049334 337.041 11.908 336.899666 11.766666 336.829 11.592001 336.829 11.384zM127.525 29.096C127.578334 29.096 127.623666 29.1146665 127.661 29.152L127.981 29.496C127.746332 29.7466679 127.490335 29.971999 127.213 30.172 126.935665 30.372001 126.633002 30.542666 126.305 30.684 125.976998 30.825334 125.617002 30.9346663 125.225 31.012 124.832998 31.0893337 124.402336 31.128 123.933 31.128 123.148996 31.128 122.430337 30.990668 121.777 30.716 121.123663 30.441332 120.563669 30.0520025 120.097 29.548 119.630331 29.0439975 119.266335 28.4346702 119.005 27.72 118.743665 27.0053298 118.613 26.210671 118.613 25.336 118.613 24.477329 118.747665 23.6933369 119.017 22.984 119.286335 22.2746631 119.664998 21.6653359 120.153 21.156 120.641002 20.6466641 121.224997 20.2520014 121.905 19.972 122.585003 19.6919986 123.335663 19.552 124.157 19.552 124.567669 19.552 124.943665 19.5826664 125.285 19.644 125.626335 19.7053336 125.944999 19.7933328 126.241 19.908 126.537001 20.0226672 126.815665 20.1653325 127.077 20.336 127.338335 20.5066675 127.594332 20.7039989 127.845 20.928L127.597 21.288C127.554333 21.3520003 127.487667 21.384 127.397 21.384 127.349 21.384 127.287667 21.3560003 127.213 21.3 127.138333 21.2439997 127.043667 21.1746671 126.929 21.092 126.814333 21.0093329 126.675667 20.9186672 126.513 20.82 126.350333 20.7213328 126.157001 20.6306671 125.933 20.548 125.708999 20.4653329 125.450335 20.3960003 125.157 20.34 124.863665 20.2839997 124.530335 20.256 124.157 20.256 123.468997 20.256 122.837003 20.3746655 122.261 20.612 121.684997 20.8493345 121.189002 21.1879978 120.773 21.628 120.356998 22.0680022 120.033001 22.6013302 119.801 23.228 119.568999 23.8546698 119.453 24.5573294 119.453 25.336 119.453 26.136004 119.567666 26.8506635 119.797 27.48 120.026334 28.1093365 120.343665 28.6413312 120.749 29.076 121.154335 29.5106688 121.632997 29.8439988 122.185 30.076 122.737003 30.3080012 123.335663 30.424 123.981 30.424 124.386335 30.424 124.747665 30.3973336 125.065 30.344 125.382335 30.2906664 125.674332 30.2106672 125.941 30.104 126.207668 29.9973328 126.455666 29.8666674 126.685 29.712 126.914334 29.5573326 127.140999 29.376001 127.365 29.168 127.391667 29.1466666 127.417 29.1293334 127.441 29.116 127.465 29.1026666 127.493 29.096 127.525 29.096zM131.157 19.36L131.157 31 130.397 31 130.397 19.36 131.157 19.36zM134.957 23.04L134.957 31 134.197 31 134.197 23.04 134.957 23.04zM135.293 20.296C135.293 20.3920005 135.273 20.4813329 135.233 20.564 135.193 20.6466671 135.141 20.7199997 135.077 20.784 135.013 20.8480003 134.938334 20.8986665 134.853 20.936 134.767666 20.9733335 134.677 20.992 134.581 20.992 134.485 20.992 134.394334 20.9733335 134.309 20.936 134.223666 20.8986665 134.149 20.8480003 134.085 20.784 134.021 20.7199997 133.970334 20.6466671 133.933 20.564 133.895666 20.4813329 133.877 20.3920005 133.877 20.296 133.877 20.1999995 133.895666 20.1080004 133.933 20.02 133.970334 19.9319996 134.021 19.8560003 134.085 19.792 134.149 19.7279997 134.223666 19.6773335 134.309 19.64 134.394334 19.6026665 134.485 19.584 134.581 19.584 134.677 19.584 134.767666 19.6026665 134.853 19.64 134.938334 19.6773335 135.013 19.7279997 135.077 19.792 135.141 19.8560003 135.193 19.9319996 135.233 20.02 135.273 20.1080004 135.293 20.1999995 135.293 20.296zM143.013 24.104C142.986333 24.1306668 142.961 24.1533332 142.937 24.172 142.913 24.1906668 142.879667 24.2 142.837 24.2 142.783666 24.2 142.710334 24.1640004 142.617 24.092 142.523666 24.0199996 142.399667 23.9413338 142.245 23.856 142.090333 23.7706662 141.897001 23.6920004 141.665 23.62 141.432999 23.5479996 141.151668 23.512 140.821 23.512 140.362331 23.512 139.955668 23.5933325 139.601 23.756 139.246332 23.9186675 138.947668 24.1519985 138.705 24.456 138.462332 24.7600015 138.277001 25.1279978 138.149 25.56 138.020999 25.9920022 137.957 26.4773306 137.957 27.016 137.957 27.5760028 138.022333 28.0719978 138.153 28.504 138.283667 28.9360022 138.468999 29.2999985 138.709 29.596 138.949001 29.8920015 139.239665 30.1173326 139.581 30.272 139.922335 30.4266674 140.300998 30.504 140.717 30.504 141.101002 30.504 141.422332 30.4586671 141.681 30.368 141.939668 30.2773329 142.152999 30.1786672 142.321 30.072 142.489001 29.9653328 142.622333 29.8666671 142.721 29.776 142.819667 29.6853329 142.898333 29.64 142.957 29.64 143.026334 29.64 143.079666 29.6666664 143.117 29.72L143.325 29.976C143.202333 30.1360008 143.047668 30.2853326 142.861 30.424 142.674332 30.5626674 142.463668 30.6826662 142.229 30.784 141.994332 30.8853338 141.739668 30.9639997 141.465 31.02 141.190332 31.0760003 140.903668 31.104 140.605 31.104 140.098331 31.104 139.635669 31.0120009 139.217 30.828 138.798331 30.6439991 138.438335 30.3773351 138.137 30.028 137.835665 29.6786649 137.601001 29.2506692 137.433 28.744 137.264999 28.2373308 137.181 27.6613366 137.181 27.016 137.181 26.407997 137.260999 25.8533358 137.421 25.352 137.581001 24.8506642 137.814332 24.4186685 138.121 24.056 138.427668 23.6933315 138.803664 23.412001 139.249 23.212 139.694336 23.011999 140.204997 22.912 140.781 22.912 141.298336 22.912 141.758331 22.9946658 142.161 23.16 142.563669 23.3253342 142.914332 23.5493319 143.213 23.832L143.013 24.104zM145.901 19.36L145.901 26.456 146.269 26.456C146.343667 26.456 146.414333 26.4453334 146.481 26.424 146.547667 26.4026666 146.621 26.3520004 146.701 26.272L149.893 23.24C149.951667 23.181333 150.011666 23.1333335 150.073 23.096 150.134334 23.0586665 150.213 23.04 150.309 23.04L150.981 23.04 147.469 26.376C147.415666 26.4293336 147.365 26.4786664 147.317 26.524 147.269 26.5693336 147.215667 26.6079998 147.157 26.64 147.242334 26.6826669 147.314333 26.733333 147.373 26.792 147.431667 26.850667 147.493 26.9146663 147.557 26.984L151.245 31 150.581 31C150.506333 31 150.439667 30.9853335 150.381 30.956 150.322333 30.9266665 150.263667 30.8800003 150.205 30.816L146.861 27.232C146.770333 27.1359995 146.687667 27.0706668 146.613 27.036 146.538333 27.0013332 146.421001 26.984 146.261 26.984L145.901 26.984 145.901 31 145.133 31 145.133 19.36 145.901 19.36zM156.085 22.544C155.972999 22.3413323 155.890334 22.140001 155.837 21.94 155.783666 21.739999 155.757 21.5386677 155.757 21.336 155.757 20.9199979 155.858332 20.5200019 156.061 20.136 156.263668 19.7519981 156.527665 19.4026682 156.853 19.088L157.069 19.232C157.111667 19.2640002 157.133 19.3013331 157.133 19.344 157.133 19.3813335 157.117 19.4159998 157.085 19.448 156.882332 19.7200014 156.714334 19.989332 156.581 20.256 156.447666 20.522668 156.381 20.7999986 156.381 21.088 156.381 21.4026682 156.474332 21.722665 156.661 22.048 156.687667 22.0906669 156.701 22.1333331 156.701 22.176 156.701 22.250667 156.661 22.3039998 156.581 22.336L156.085 22.544zM158.237 22.544C158.124999 22.3413323 158.042334 22.140001 157.989 21.94 157.935666 21.739999 157.909 21.5386677 157.909 21.336 157.909 20.9199979 158.010332 20.5200019 158.213 20.136 158.415668 19.7519981 158.679665 19.4026682 159.005 19.088L159.221 19.232C159.263667 19.2640002 159.285 19.3013331 159.285 19.344 159.285 19.3813335 159.269 19.4159998 159.237 19.448 159.034332 19.7200014 158.866334 19.989332 158.733 20.256 158.599666 20.522668 158.533 20.7999986 158.533 21.088 158.533 21.4026682 158.626332 21.722665 158.813 22.048 158.839667 22.0906669 158.853 22.1333331 158.853 22.176 158.853 22.250667 158.813 22.3039998 158.733 22.336L158.237 22.544z"/>
          <text fill="#2279CF" font-family="Lato-Bold, Lato" font-size="16" font-weight="bold">
            <tspan x="160.037" y="31">+</tspan>
          </text>
          <path fill="#8EA6BB" d="M171.237,19.184 C171.354334,19.3866677 171.439666,19.587999 171.493,19.788 C171.546334,19.988001 171.573,20.1893323 171.573,20.392 C171.573,20.8080021 171.471668,21.2079981 171.269,21.592 C171.066332,21.9760019 170.802335,22.3253318 170.477,22.64 L170.253,22.496 C170.215666,22.4639998 170.197,22.4266669 170.197,22.384 C170.197,22.3413331 170.213,22.3040002 170.245,22.272 C170.447668,22.005332 170.615666,21.7373347 170.749,21.468 C170.882334,21.1986653 170.949,20.9200014 170.949,20.632 C170.949,20.3226651 170.855668,20.005335 170.669,19.68 C170.642333,19.6373331 170.629,19.5946669 170.629,19.552 C170.629,19.477333 170.669,19.4240002 170.749,19.392 L171.237,19.184 Z M173.389,19.184 C173.506334,19.3866677 173.591666,19.587999 173.645,19.788 C173.698334,19.988001 173.725,20.1893323 173.725,20.392 C173.725,20.8080021 173.623668,21.2079981 173.421,21.592 C173.218332,21.9760019 172.954335,22.3253318 172.629,22.64 L172.405,22.496 C172.367666,22.4639998 172.349,22.4266669 172.349,22.384 C172.349,22.3413331 172.365,22.3040002 172.397,22.272 C172.599668,22.005332 172.767666,21.7373347 172.901,21.468 C173.034334,21.1986653 173.101,20.9200014 173.101,20.632 C173.101,20.3226651 173.007668,20.005335 172.821,19.68 C172.794333,19.6373331 172.781,19.5946669 172.781,19.552 C172.781,19.477333 172.821,19.4240002 172.901,19.392 L173.389,19.184 Z M181.197,31.128 C180.658331,31.128 180.238335,30.9786682 179.937,30.68 C179.635665,30.3813318 179.485,29.9200031 179.485,29.296 L179.485,23.856 L178.341,23.856 C178.282333,23.856 178.234334,23.8400002 178.197,23.808 C178.159666,23.7759998 178.141,23.730667 178.141,23.672 L178.141,23.376 L179.501,23.28 L179.693,20.432 C179.698333,20.3839998 179.718333,20.3413335 179.753,20.304 C179.787667,20.2666665 179.834333,20.248 179.893,20.248 L180.253,20.248 L180.253,23.288 L182.757,23.288 L182.757,23.856 L180.253,23.856 L180.253,29.256 C180.253,29.4746678 180.281,29.6626659 180.337,29.82 C180.393,29.9773341 180.470333,30.1066662 180.569,30.208 C180.667667,30.3093338 180.783666,30.3839998 180.917,30.432 C181.050334,30.4800002 181.194333,30.504 181.349,30.504 C181.541001,30.504 181.706333,30.4760003 181.845,30.42 C181.983667,30.3639997 182.103666,30.302667 182.205,30.236 C182.306334,30.169333 182.389,30.1080003 182.453,30.052 C182.517,29.9959997 182.567666,29.968 182.605,29.968 C182.647667,29.968 182.690333,29.9946664 182.733,30.048 L182.941,30.384 C182.738332,30.6080011 182.481002,30.7879993 182.169,30.924 C181.856998,31.0600007 181.533002,31.128 181.197,31.128 Z M187.757,22.912 C188.32767,22.912 188.838331,23.0093324 189.289,23.204 C189.739669,23.3986676 190.119665,23.6746649 190.429,24.032 C190.738335,24.3893351 190.974333,24.8199975 191.137,25.324 C191.299667,25.8280025 191.381,26.3919969 191.381,27.016 C191.381,27.6400031 191.299667,28.2026642 191.137,28.704 C190.974333,29.2053358 190.738335,29.6346649 190.429,29.992 C190.119665,30.3493351 189.739669,30.623999 189.289,30.816 C188.838331,31.008001 188.32767,31.104 187.757,31.104 C187.18633,31.104 186.675669,31.008001 186.225,30.816 C185.774331,30.623999 185.393002,30.3493351 185.081,29.992 C184.768998,29.6346649 184.531667,29.2053358 184.369,28.704 C184.206333,28.2026642 184.125,27.6400031 184.125,27.016 C184.125,26.3919969 184.206333,25.8280025 184.369,25.324 C184.531667,24.8199975 184.768998,24.3893351 185.081,24.032 C185.393002,23.6746649 185.774331,23.3986676 186.225,23.204 C186.675669,23.0093324 187.18633,22.912 187.757,22.912 Z M187.757,30.504 C188.231669,30.504 188.646332,30.4226675 189.001,30.26 C189.355668,30.0973325 189.651665,29.8640015 189.889,29.56 C190.126335,29.2559985 190.303666,28.8893355 190.421,28.46 C190.538334,28.0306645 190.597,27.549336 190.597,27.016 C190.597,26.4879974 190.538334,26.0080022 190.421,25.576 C190.303666,25.1439978 190.126335,24.7746682 189.889,24.468 C189.651665,24.1613318 189.355668,23.9253342 189.001,23.76 C188.646332,23.5946658 188.231669,23.512 187.757,23.512 C187.282331,23.512 186.867668,23.5946658 186.513,23.76 C186.158332,23.9253342 185.862335,24.1613318 185.625,24.468 C185.387665,24.7746682 185.209001,25.1439978 185.089,25.576 C184.968999,26.0080022 184.909,26.4879974 184.909,27.016 C184.909,27.549336 184.968999,28.0306645 185.089,28.46 C185.209001,28.8893355 185.387665,29.2559985 185.625,29.56 C185.862335,29.8640015 186.158332,30.0973325 186.513,30.26 C186.867668,30.4226675 187.282331,30.504 187.757,30.504 Z M201.549,31 C201.388999,31 201.290334,30.9253341 201.253,30.776 L201.141,29.76 C200.922332,29.9733344 200.705001,30.1653325 200.489,30.336 C200.272999,30.5066675 200.047668,30.6506661 199.813,30.768 C199.578332,30.8853339 199.325001,30.9746664 199.053,31.036 C198.780999,31.0973336 198.482335,31.128 198.157,31.128 C197.884999,31.128 197.621001,31.0880004 197.365,31.008 C197.108999,30.9279996 196.882334,30.8053342 196.685,30.64 C196.487666,30.4746658 196.329001,30.262668 196.209,30.004 C196.088999,29.745332 196.029,29.4346685 196.029,29.072 C196.029,28.7359983 196.124999,28.4240014 196.317,28.136 C196.509001,27.8479986 196.808998,27.5973344 197.217,27.384 C197.625002,27.1706656 198.15033,27.0000006 198.793,26.872 C199.43567,26.7439994 200.207662,26.6693334 201.109,26.648 L201.109,25.816 C201.109,25.0799963 200.950335,24.5133353 200.633,24.116 C200.315665,23.7186647 199.845003,23.52 199.221,23.52 C198.836998,23.52 198.510335,23.5733328 198.241,23.68 C197.971665,23.7866672 197.743668,23.9039994 197.557,24.032 C197.370332,24.1600006 197.218334,24.2773328 197.101,24.384 C196.983666,24.4906672 196.885,24.544 196.805,24.544 C196.698333,24.544 196.618334,24.4960005 196.565,24.4 L196.429,24.168 C196.845002,23.7519979 197.282331,23.4373344 197.741,23.224 C198.199669,23.0106656 198.719664,22.904 199.301,22.904 C199.727669,22.904 200.100998,22.9719993 200.421,23.108 C200.741002,23.2440007 201.006332,23.4386654 201.217,23.692 C201.427668,23.9453346 201.586333,24.2519982 201.693,24.612 C201.799667,24.9720018 201.853,25.3733311 201.853,25.816 L201.853,31 L201.549,31 Z M198.349,30.576 C198.658335,30.576 198.942332,30.542667 199.201,30.476 C199.459668,30.409333 199.699666,30.3160006 199.921,30.196 C200.142334,30.0759994 200.348999,29.9333342 200.541,29.768 C200.733001,29.6026658 200.922332,29.424001 201.109,29.232 L201.109,27.16 C200.351663,27.1813334 199.699669,27.2386662 199.153,27.332 C198.606331,27.4253338 198.155668,27.5519992 197.801,27.712 C197.446332,27.8720008 197.185001,28.0626656 197.017,28.284 C196.848999,28.5053344 196.765,28.7573319 196.765,29.04 C196.765,29.306668 196.809,29.5373324 196.897,29.732 C196.985,29.9266676 197.100999,30.086666 197.245,30.212 C197.389001,30.337334 197.556999,30.429333 197.749,30.488 C197.941001,30.546667 198.140999,30.576 198.349,30.576 Z M209.893,31 C209.759666,31 209.682333,30.9306674 209.661,30.792 L209.581,29.536 C209.228998,30.0160024 208.817002,30.3973319 208.345,30.68 C207.872998,30.9626681 207.34367,31.104 206.757,31.104 C205.780995,31.104 205.019669,30.7653367 204.473,30.088 C203.926331,29.4106633 203.653,28.3946734 203.653,27.04 C203.653,26.4586638 203.728999,25.9160025 203.881,25.412 C204.033001,24.9079975 204.256999,24.4706685 204.553,24.1 C204.849001,23.7293315 205.211665,23.4373344 205.641,23.224 C206.070335,23.0106656 206.564997,22.904 207.125,22.904 C207.663669,22.904 208.130331,23.003999 208.525,23.204 C208.919669,23.404001 209.260999,23.6959981 209.549,24.08 L209.549,19.36 L210.317,19.36 L210.317,31 L209.893,31 Z M206.973,30.488 C207.501003,30.488 207.978331,30.3520014 208.405,30.08 C208.831669,29.8079986 209.212998,29.4293358 209.549,28.944 L209.549,24.744 C209.239665,24.2906644 208.899669,23.9706676 208.529,23.784 C208.158331,23.5973324 207.738336,23.504 207.269,23.504 C206.799664,23.504 206.389002,23.5893325 206.037,23.76 C205.684998,23.9306675 205.390335,24.1719984 205.153,24.484 C204.915665,24.7960016 204.737001,25.1693312 204.617,25.604 C204.496999,26.0386688 204.437,26.5173307 204.437,27.04 C204.437,28.2240059 204.655664,29.0946639 205.093,29.652 C205.530336,30.2093361 206.156996,30.488 206.973,30.488 Z M218.629,31 C218.495666,31 218.418333,30.9306674 218.397,30.792 L218.317,29.536 C217.964998,30.0160024 217.553002,30.3973319 217.081,30.68 C216.608998,30.9626681 216.07967,31.104 215.493,31.104 C214.516995,31.104 213.755669,30.7653367 213.209,30.088 C212.662331,29.4106633 212.389,28.3946734 212.389,27.04 C212.389,26.4586638 212.464999,25.9160025 212.617,25.412 C212.769001,24.9079975 212.992999,24.4706685 213.289,24.1 C213.585001,23.7293315 213.947665,23.4373344 214.377,23.224 C214.806335,23.0106656 215.300997,22.904 215.861,22.904 C216.399669,22.904 216.866331,23.003999 217.261,23.204 C217.655669,23.404001 217.996999,23.6959981 218.285,24.08 L218.285,19.36 L219.053,19.36 L219.053,31 L218.629,31 Z M215.709,30.488 C216.237003,30.488 216.714331,30.3520014 217.141,30.08 C217.567669,29.8079986 217.948998,29.4293358 218.285,28.944 L218.285,24.744 C217.975665,24.2906644 217.635669,23.9706676 217.265,23.784 C216.894331,23.5973324 216.474336,23.504 216.005,23.504 C215.535664,23.504 215.125002,23.5893325 214.773,23.76 C214.420998,23.9306675 214.126335,24.1719984 213.889,24.484 C213.651665,24.7960016 213.473001,25.1693312 213.353,25.604 C213.232999,26.0386688 213.173,26.5173307 213.173,27.04 C213.173,28.2240059 213.391664,29.0946639 213.829,29.652 C214.266336,30.2093361 214.892996,30.488 215.709,30.488 Z"/>
        </g>
      </g>
      <g transform="translate(146 21)">
        <path fill="#29292B" fill-rule="nonzero" d="M17.0460325,54.3722589 C12.9876553,55.2473859 12.3291498,55.1895557 7.4486719,58.5256269 C-12.2960422,72.0222094 11.9940186,83.5471872 25.1517161,86.4850428 C41.2221227,90.0732491 60.5381187,91.8107604 76.3180894,85.6123775 C82.4317914,83.2109114 93.8563401,78.3635282 95.0220536,70.4772523 C95.0232389,70.4692334 95.5084281,65.2353893 94.3743234,64.2510884 C90.7096244,61.070459 86.8692625,58.0598915 82.7751229,55.4574743 C81.4726268,54.6295498 79.8311561,54.5332556 78.3591727,54.0711462"/>
        <path fill="#29292B" fill-rule="nonzero" d="M19.5938283,28.6969583 L3.12417657,40.0701363 L18.9386506,49.0229507 L18.4494581,66.1441691 L48.9092929,83.9857645 L79.3139711,66.5066814 C79.3139711,66.5066814 78.6587934,40.0701363 79.3139711,40.0701363 C79.9691488,40.0701363 96.7367491,25.9574601 96.7367491,25.9574601 C96.7367491,25.9574601 78.8046748,30.5090034 79.0593229,29.9848582 C79.3139711,29.4607129 90.7648895,20.1159514 90.7648895,20.1159514 L61.0834326,1.09851481 L48.560827,9.82566278 L34.7964251,2.80314886 L7.30576701,19.7580867 C7.30576701,19.7580867 12.4224419,21.7865031 15.1323311,24.2755476 C17.8422203,26.7645922 19.5938283,28.6969583 19.5938283,28.6969583 Z"/>
        <path fill="#252527" fill-rule="nonzero" d="M48.8020726,10.6302129 L49.0613601,47.9152742 L19.1932987,28.4759394 C19.1932987,28.4759394 37.9341644,15.9997327 41.3626356,14.0053986 C44.7911067,12.0110646 48.8020726,10.6302129 48.8020726,10.6302129 Z" opacity=".539"/>
        <path fill="#252527" fill-rule="nonzero" d="M19.0819546,48.628938 L19.0133955,55.2249061 L35.6835697,67.9061235 L49.682516,53.4603698 L67.3346835,60.143093 L79.4794408,47.085937 L78.9175654,41.004819 L69.0960857,48.936712 L49.0953819,48.936712 C49.0953819,48.936712 42.2910188,52.264389 39.483188,54.5525543 C36.6753572,56.8407195 33.5742172,60.143093 33.5742172,60.143093 L19.0819546,48.628938 Z"/>
        <path stroke="#B0D1F1" stroke-width="1.125" d="M0.372319345,16.0709375 C2.09018518,16.877125 3.81229608,18.2391013 5.64524076,19.2151151 C7.47818545,20.1911289 9.70213419,20.930975 11.5509877,21.7986345 M11.6799571,21.9566916 L20.2691866,10.6852512 M11.9976766,21.0924783 C11.7182952,16.8510686 11.4389139,12.6096589 11.1595325,8.36824918 M19.5746517,10.9356012 L19.488232,2.00645073 M11.5929019,8.36824918 C13.0127475,7.2164011 13.4788327,6.25892311 14.703108,5.21465449 C15.9273833,4.17038588 18.0659218,2.90596558 19.576721,1.68033146 M11.1595325,8.67739352 L0.227439244,5.44433804 M1.15327393,16.3010572 L0.285264196,6.2333199 M0.864149162,5.58911115 C1.6834419,4.84564748 2.50273463,4.1021838 3.32202737,3.35872012 M19.7773568,1.69098443 L17.4058983,0.465786632" stroke-linecap="round" stroke-linejoin="round" transform="translate(53.523 47.25)"/>
        <g stroke="#81BFF1" stroke-width="1.125" transform="translate(2.486)">
          <path d="M5.20049601,19.2766115 C15.1504624,14.9371114 24.5114256,9.00520449 32.9524145,2.1036833 M4.33714324,19.5932766 C9.94214457,21.2257557 15.2524139,23.194085 17.1140742,29.0876149 M0.176490135,40.4145502 C7.44407194,33.9828066 2.08868754,38.4994695 17.2318042,28.1376195 M46.5732922,48.5303367 C41.6463945,51.7163976 33.8989249,55.2417341 30.5188982,60.8725013 M1.1381668,40.0896768 C11.1318723,45.6218889 22.6241407,50.8171706 30.4796549,59.4606845" stroke-linecap="round" stroke-linejoin="round"/>
          <path d="M45.9842114,48.1488697 C50.9686333,52.6829294 66.6444119,48.1488697 66.6444119,48.1488697 L94.6969455,25.6476205 M75.9147803,28.9977563 L94.3056946,25.5221355 M46.416319,48.1488697 C56.5385372,40.946574 66.0330657,36.4351764 76.1774924,29.3449401 M46.062698,85.5166533 C48.0405892,73.3852527 47.3214712,61.0273028 46.8674014,48.8055286 M76.4840239,66.0324584 C76.5192241,60.6667193 76.6403536,45.4746052 76.6755538,40.1088662 M46.3179951,84.6971256 C55.6505325,77.7103942 66.4080297,71.7241159 76.6802404,66.2514887" stroke-linecap="round" stroke-linejoin="round"/>
          <path d="M15.8186138,65.7827551 C21.7727757,70.7805687 13.7330593,64.245845 30.3420877,73.9667996 C35.752709,77.1335354 41.2891087,80.6978967 46.416319,84.3519476 M15.7595333,66.2437125 L16.3680201,48.0996202 M46.5732922,47.0152689 C46.4751121,35.5450495 46.4554345,24.0738861 46.2787518,12.6046107 C46.2656264,11.7525839 46.2451845,10.8802525 46.0040486,10.0630813 C45.9559799,9.90018403 45.7553639,10.2940639 45.6310216,10.4095553" stroke-linecap="round" stroke-linejoin="round"/>
          <path d="M45.6310216,9.87213175 C49.7984309,11.7800429 52.6442487,14.0405192 56.4315956,16.6239659 C59.4588246,18.6889167 63.0685796,21.0252568 65.7089328,23.5677914 C68.7196272,26.4669471 72.0305651,27.9642029 75.6793204,30.0505707 M45.7685888,8.77698011 C56.2600306,1.18500311 51.6854001,3.68796963 58.839629,0.178203667 M58.1724927,0.802461703 C68.5590807,7.04738956 78.1073617,13.7723805 88.3773336,20.0633062 M76.025179,29.193026 C83.5761459,21.8090431 79.2469566,25.1293089 89.2212803,19.5111942 M17.1925609,28.0983063 C36.9859954,14.2083389 27.455299,20.1602881 45.5331289,9.84448295 M32.4224142,2.74781391 C36.6464583,5.85747987 42.1657329,6.69087935 45.7879948,10.4609648" stroke-linecap="round" stroke-linejoin="round"/>
          <path d="M17.4256122,28.6459473 C17.4256122,28.6459473 27.7437905,34.9314873 32.5399644,38.9131256 C37.3361383,42.8947639 46.4796021,48.1241081 46.4796021,48.1241081"/>
        </g>
      </g>
      <path fill="#E3EEF7" d="M170.592414,30 L164,35.1846957 C164.612788,37.7888099 165.711524,39.4403256 167.296207,40.139243 C168.88089,40.8381603 170.846566,41.7123952 173.193234,42.7619478 C177.12082,47.6209528 179.29264,50.6893646 179.708696,51.9671831 C180.124752,53.2450016 181.114767,55.4850669 182.678742,58.687379 C190.361184,61.8369781 194.661997,63.2795246 195.581179,63.0150186 C196.959952,62.6182594 203.74651,60.6768224 205.35049,59.6821007 C206.95447,58.687379 212.523217,50.738783 214.398292,49.2830582 C215.648343,48.312575 216.273368,46.5916382 216.273368,44.1202478 C221.220855,41.9618405 224.183841,39.7634278 225.162325,37.5250098 C226.630051,34.1673828 225.162325,33.1006514 225.162325,32.4412688 C225.162325,32.0016804 224.208315,31.1879241 222.300294,30 L170.592414,30 Z" opacity=".5" style="mix-blend-mode:multiply"/>
      <path fill="#2D2D30" fill-rule="nonzero" stroke="#81BFF1" stroke-width="1.125" d="M174.520787,14.5507779 C174.841024,14.5507779 175.112004,14.5630687 175.550886,14.5914357 C176.08943,10.7791425 177.462522,6.50943281 180.343609,3.89824154 C183.515025,1.00305058 189.969654,0 194.418728,0 C197.670499,0 200.082082,1.75958285 202.788824,3.38908437 C205.209605,4.83040181 206.15943,6.11892002 207.579327,8.51915166 C208.073292,8.36138327 208.574056,8.23003684 209.084377,8.12308684 C209.99515,7.95104527 212.739382,7.68592324 213.618093,7.68592324 C217.169054,7.68592324 218.630845,9.23387939 221.120818,11.6222162 C223.61348,14.0604542 225.42472,17.5019284 225.42472,20.9748133 C225.42472,22.5517065 224.532926,23.7310143 224.099121,25.31328 C223.579558,27.2083419 223.007817,29.2892087 221.466499,30.8370198 C218.638271,33.6771624 215.146012,32.9911462 211.752862,33.6771624 C203.841608,34.4644744 197.93219,34.8581304 194.024606,34.8581304 C189.658129,34.8581304 183.156457,34.4644744 174.51959,33.6771624 C171.464356,32.9233332 169.411302,31.6706788 167.596376,29.9126309 C165.756135,28.1300613 164,26.2188416 164,23.6412302 C164,21.0641082 165.330384,18.8918275 167.171098,17.1087998 C168.16645,16.1446414 169.27238,15.585592 170.549663,15.267777 C171.023652,15.1498386 171.971609,15.3666589 172.484908,15.267777 C173.110551,15.1472533 173.870376,14.5507779 174.520787,14.5507779 Z"/>
      <path fill="#3A444F" d="M172.935031,32.2463875 C184.763962,34.090988 192.194887,34.8434375 195.227808,34.5037359 C199.777189,33.9941834 215.007139,32.8422672 217.390641,32.2463875 C219.774142,31.6505077 222.050182,30.964759 222.404042,29.547663 C222.757903,28.1305671 223.739001,25.8577241 224.035758,24.9156497 C224.332516,23.9735752 225.300125,21.3567511 225.419277,20.3580106 C225.53843,19.35927 223.668409,15.1048833 223.036225,14.6112681 C222.404042,14.117653 222.270951,20.2189359 220.245807,22.4010901 C218.220662,24.5832444 208.388549,27.10128 204.096358,28.3244715 C199.804167,29.547663 177.138196,28.3244715 176.77849,28.3244715 C176.418784,28.3244715 169.690034,26.8695006 168.494012,25.7262409 C167.696664,24.9640678 166.484155,23.4877971 164.856485,21.2974287 C164.771355,24.3727468 165.356327,26.7150944 166.611401,28.3244715 C167.866475,29.9338486 169.974352,31.2411539 172.935031,32.2463875 Z"/>
    </g>
  </g>
</svg>
