<svg xmlns="http://www.w3.org/2000/svg" width="390" height="164" viewBox="0 0 390 164">
  <g fill="none" fill-rule="evenodd">
    <rect width="390" height="164"/>
    <g transform="translate(4 4)">
      <g transform="translate(0 90)">
        <text fill="#163244" font-family="SegoeUI, Segoe UI" font-size="20">
          <tspan x="96.804" y="22">The repo list is empty</tspan>
        </text>
        <text font-family="Lato-Light, Lato" font-size="16" font-weight="300">
          <tspan x="47.165" y="45" fill="#6189AA">Here you will have your list of repositories.</tspan> <tspan x="144.941" y="64" fill="#6189AA">Click </tspan> <tspan x="182.037" y="64" fill="#2279CF" font-family="Lato-Bold, Lato" font-weight="bold">+</tspan> <tspan x="191.317" y="64" fill="#6189AA"> to add</tspan>
        </text>
      </g>
      <g transform="translate(142)">
        <path fill="#EFF6FD" d="M17.0460325,54.3722589 C12.9876553,55.2473859 12.3291498,55.1895557 7.4486719,58.5256269 C-12.2960422,72.0222094 11.9940186,83.5471872 25.1517161,86.4850428 C41.2221227,90.0732491 60.5381187,91.8107604 76.3180894,85.6123775 C82.4317914,83.2109114 93.8563401,78.3635282 95.0220536,70.4772523 C95.0232389,70.4692334 95.5084281,65.2353893 94.3743234,64.2510884 C90.7096244,61.070459 86.8692625,58.0598915 82.7751229,55.4574743 C81.4726268,54.6295498 79.8311561,54.5332556 78.3591727,54.0711462"/>
        <path fill="#FFFFFF" d="M19.5938283,28.6969583 L3.12417657,40.0701363 L18.9386506,49.0229507 L18.4494581,66.1441691 L48.9092929,83.9857645 L79.3139711,66.5066814 C79.3139711,66.5066814 78.6587934,40.0701363 79.3139711,40.0701363 C79.9691488,40.0701363 96.7367491,25.9574601 96.7367491,25.9574601 C96.7367491,25.9574601 78.8046748,30.5090034 79.0593229,29.9848582 C79.3139711,29.4607129 90.7648895,20.1159514 90.7648895,20.1159514 L61.0834326,1.09851481 L48.560827,9.82566278 L34.7964251,2.80314886 L7.30576701,19.7580867 C7.30576701,19.7580867 12.4224419,21.7865031 15.1323311,24.2755476 C17.8422203,26.7645922 19.5938283,28.6969583 19.5938283,28.6969583 Z"/>
        <path fill="#DFEDFB" d="M48.8020726,10.6302129 L49.0613601,47.9152742 L19.1932987,28.4759394 C19.1932987,28.4759394 37.9341644,15.9997327 41.3626356,14.0053986 C44.7911067,12.0110646 48.8020726,10.6302129 48.8020726,10.6302129 Z" opacity=".539"/>
        <path fill="#EEF5FB" d="M19.0819546,48.628938 L19.0133955,55.2249061 L35.6835697,67.9061235 L49.682516,53.4603698 L67.3346835,60.143093 L79.4794408,47.085937 L78.9175654,41.004819 L69.0960857,48.936712 L49.0953819,48.936712 C49.0953819,48.936712 42.2910188,52.264389 39.483188,54.5525543 C36.6753572,56.8407195 33.5742172,60.143093 33.5742172,60.143093 L19.0819546,48.628938 Z"/>
        <g stroke="#B0D1F1" stroke-width="1.125" transform="translate(53.523 47.25)" stroke-linecap="round" stroke-linejoin="round">
          <path d="M.372319345 16.0709375C2.09018518 16.877125 3.81229608 18.2391013 5.64524076 19.2151151 7.47818545 20.1911289 9.70213419 20.930975 11.5509877 21.7986345M11.6799571 21.9566916L20.2691866 10.6852512M11.9976766 21.0924783C11.7182952 16.8510686 11.4389139 12.6096589 11.1595325 8.36824918M19.5746517 10.9356012L19.488232 2.00645073M11.5929019 8.36824918C13.0127475 7.2164011 13.4788327 6.25892311 14.703108 5.21465449 15.9273833 4.17038588 18.0659218 2.90596558 19.576721 1.68033146M11.1595325 8.67739352L.227439244 5.44433804M1.15327393 16.3010572L.285264196 6.2333199M.864149162 5.58911115C1.6834419 4.84564748 2.50273463 4.1021838 3.32202737 3.35872012M19.7773568 1.69098443L17.4058983.465786632"/>
        </g>
        <g stroke="#81BFF1" stroke-width="1.125" transform="translate(2.486)">
          <path d="M5.20049601 19.2766115C15.1504624 14.9371114 24.5114256 9.00520449 32.9524145 2.1036833M4.33714324 19.5932766C9.94214457 21.2257557 15.2524139 23.194085 17.1140742 29.0876149M.176490135 40.4145502C7.44407194 33.9828066 2.08868754 38.4994695 17.2318042 28.1376195M46.5732922 48.5303367C41.6463945 51.7163976 33.8989249 55.2417341 30.5188982 60.8725013M1.1381668 40.0896768C11.1318723 45.6218889 22.6241407 50.8171706 30.4796549 59.4606845" stroke-linecap="round" stroke-linejoin="round"/>
          <path d="M45.9842114 48.1488697C50.9686333 52.6829294 66.6444119 48.1488697 66.6444119 48.1488697L94.6969455 25.6476205M75.9147803 28.9977563L94.3056946 25.5221355M46.416319 48.1488697C56.5385372 40.946574 66.0330657 36.4351764 76.1774924 29.3449401M46.062698 85.5166533C48.0405892 73.3852527 47.3214712 61.0273028 46.8674014 48.8055286M76.4840239 66.0324584C76.5192241 60.6667193 76.6403536 45.4746052 76.6755538 40.1088662M46.3179951 84.6971256C55.6505325 77.7103942 66.4080297 71.7241159 76.6802404 66.2514887" stroke-linecap="round" stroke-linejoin="round"/>
          <path d="M15.8186138 65.7827551C21.7727757 70.7805687 13.7330593 64.245845 30.3420877 73.9667996 35.752709 77.1335354 41.2891087 80.6978967 46.416319 84.3519476M15.7595333 66.2437125L16.3680201 48.0996202M46.5732922 47.0152689C46.4751121 35.5450495 46.4554345 24.0738861 46.2787518 12.6046107 46.2656264 11.7525839 46.2451845 10.8802525 46.0040486 10.0630813 45.9559799 9.90018403 45.7553639 10.2940639 45.6310216 10.4095553" stroke-linecap="round" stroke-linejoin="round"/>
          <path d="M45.6310216 9.87213175C49.7984309 11.7800429 52.6442487 14.0405192 56.4315956 16.6239659 59.4588246 18.6889167 63.0685796 21.0252568 65.7089328 23.5677914 68.7196272 26.4669471 72.0305651 27.9642029 75.6793204 30.0505707M45.7685888 8.77698011C56.2600306 1.18500311 51.6854001 3.68796963 58.839629.178203667M58.1724927.802461703C68.5590807 7.04738956 78.1073617 13.7723805 88.3773336 20.0633062M76.025179 29.193026C83.5761459 21.8090431 79.2469566 25.1293089 89.2212803 19.5111942M17.1925609 28.0983063C36.9859954 14.2083389 27.455299 20.1602881 45.5331289 9.84448295M32.4224142 2.74781391C36.6464583 5.85747987 42.1657329 6.69087935 45.7879948 10.4609648" stroke-linecap="round" stroke-linejoin="round"/>
          <path d="M17.4256122,28.6459473 C17.4256122,28.6459473 27.7437905,34.9314873 32.5399644,38.9131256 C37.3361383,42.8947639 46.4796021,48.1241081 46.4796021,48.1241081"/>
        </g>
      </g>
    </g>
  </g>
</svg>
