<svg xmlns="http://www.w3.org/2000/svg" width="268" height="146" viewBox="0 0 268 146" xmlns:xlink="http://www.w3.org/1999/xlink">
  <defs>
    <path id="a" d="M8.22140969,11.2705701 C8.47165647,11.2705701 8.68341223,11.2800902 9.02637472,11.3020624 C9.44721633,8.34918123 10.5202114,5.04199977 12.771621,3.019454 C15.2499057,0.776931104 20.2938388,0 23.7705425,0 C26.3116204,0 28.1961387,1.36291695 30.3113067,2.62507705 C32.2030123,3.74147573 32.945248,4.73952098 34.0548182,6.59866412 C34.4408249,6.47646175 34.8321439,6.37472497 35.2309312,6.2918849 C35.9426498,6.15862697 38.0871142,5.95327187 38.7737779,5.95327187 C41.5486562,5.95327187 42.6909646,7.15226951 44.6367402,9.00219933 C46.5846167,10.8907809 48,13.5564375 48,16.2464238 C48,17.4678351 47.3031124,18.3812895 46.9641181,19.6068622 C46.5581084,21.0747169 46.1113245,22.6864902 44.9068703,23.8853755 C42.6967674,26.0852597 39.9677617,25.5538934 37.3162038,26.0852597 C31.1339993,26.6950866 26.5161176,27 23.4625587,27 C20.0503998,27 14.9697049,26.6950866 8.22047396,26.0852597 C5.83297869,25.5013676 4.22863094,24.5311013 2.81036729,23.1693732 C1.37232141,21.7886515 0,20.3082814 0,18.3117456 C0,16.3155887 1.03962112,14.6330091 2.47803655,13.2519326 C3.25584855,12.5051261 4.12007139,12.0721042 5.11819745,11.8259348 C5.48859348,11.7345835 6.22936838,11.9025256 6.63048357,11.8259348 C7.11938867,11.732581 7.71314961,11.2705701 8.22140969,11.2705701 Z"/>
  </defs>
  <g fill="none" fill-rule="evenodd">
    <rect width="268" height="146"/>
    <g transform="translate(3 -4)">
      <g transform="translate(0 106)">
        <path fill="#FFFFFF" d="M12.1425781,15 L10.1308594,15 L2.92382812,3.83789062 C2.74153555,3.55794131 2.59179746,3.26497549 2.47460938,2.95898438 L2.41601562,2.95898438 C2.46809922,3.25846504 2.49414062,3.89973467 2.49414062,4.8828125 L2.49414062,15 L0.853515625,15 L0.853515625,0.99609375 L2.98242188,0.99609375 L9.99414062,11.9824219 C10.2871108,12.4381533 10.475911,12.7506502 10.5605469,12.9199219 L10.5996094,12.9199219 C10.5345049,12.516274 10.5019531,11.8294319 10.5019531,10.859375 L10.5019531,0.99609375 L12.1425781,0.99609375 L12.1425781,15 Z M19.7792969,15.234375 C18.3014249,15.234375 17.1214237,14.7672573 16.2392578,13.8330078 C15.3570919,12.8987583 14.9160156,11.660164 14.9160156,10.1171875 C14.9160156,8.4374916 15.3749954,7.12565576 16.2929688,6.18164062 C17.2109421,5.23762549 18.4511641,4.765625 20.0136719,4.765625 C21.5045647,4.765625 22.6682901,5.22460479 23.5048828,6.14257812 C24.3414755,7.06055146 24.7597656,8.3333252 24.7597656,9.9609375 C24.7597656,11.5559976 24.3089238,12.8336541 23.4072266,13.7939453 C22.5055293,14.7542366 21.2962315,15.234375 19.7792969,15.234375 Z M19.8964844,6.11328125 C18.8678334,6.11328125 18.0540395,6.46321265 17.4550781,7.16308594 C16.8561168,7.86295923 16.5566406,8.82811885 16.5566406,10.0585938 C16.5566406,11.2434955 16.859372,12.177731 17.4648438,12.8613281 C18.0703155,13.5449253 18.8808543,13.8867188 19.8964844,13.8867188 C20.9316458,13.8867188 21.7275363,13.5514356 22.2841797,12.8808594 C22.8408231,12.2102831 23.1191406,11.2565166 23.1191406,10.0195312 C23.1191406,8.769525 22.8408231,7.80599297 22.2841797,7.12890625 C21.7275363,6.45181953 20.9316458,6.11328125 19.8964844,6.11328125 Z M43.0507812,15 L41.0976562,15 L38.7539062,11.0742188 C38.5390614,10.7096336 38.3307302,10.3987643 38.1289062,10.1416016 C37.9270823,9.88443882 37.7203787,9.67447998 37.5087891,9.51171875 C37.2971995,9.34895752 37.0693372,9.2301436 36.8251953,9.15527344 C36.5810535,9.08040327 36.3059911,9.04296875 36,9.04296875 L34.6523438,9.04296875 L34.6523438,15 L33.0117188,15 L33.0117188,0.99609375 L37.1914062,0.99609375 C37.8033885,0.99609375 38.3681615,1.07259038 38.8857422,1.22558594 C39.4033229,1.37858149 39.8525372,1.61132656 40.2333984,1.92382812 C40.6142597,2.23632969 40.9121083,2.62532319 41.1269531,3.09082031 C41.3417979,3.55631743 41.4492188,4.10155938 41.4492188,4.7265625 C41.4492188,5.21484619 41.3759773,5.66243286 41.2294922,6.06933594 C41.0830071,6.47623901 40.8746758,6.83919111 40.6044922,7.15820312 C40.3343085,7.47721514 40.008791,7.74902231 39.6279297,7.97363281 C39.2470684,8.19824331 38.8190128,8.37239521 38.34375,8.49609375 L38.34375,8.53515625 C38.5781262,8.63932344 38.7815747,8.75813735 38.9541016,8.89160156 C39.1266285,9.02506577 39.2910148,9.1829418 39.4472656,9.36523438 C39.6035164,9.54752695 39.7581373,9.75423062 39.9111328,9.98535156 C40.0641284,10.2164725 40.2350251,10.4850245 40.4238281,10.7910156 L43.0507812,15 Z M34.6523438,2.48046875 L34.6523438,7.55859375 L36.8789062,7.55859375 C37.2890646,7.55859375 37.6682925,7.49674541 38.0166016,7.37304688 C38.3649106,7.24934834 38.6660144,7.07194126 38.9199219,6.84082031 C39.1738294,6.60969937 39.3723951,6.32649907 39.515625,5.99121094 C39.6588549,5.6559228 39.7304688,5.27995 39.7304688,4.86328125 C39.7304688,4.11457959 39.4879582,3.53027554 39.0029297,3.11035156 C38.5179012,2.69042759 37.8164108,2.48046875 36.8984375,2.48046875 L34.6523438,2.48046875 Z M52.2402344,10.4003906 L45.1796875,10.4003906 C45.2057293,11.5136774 45.5052055,12.3730438 46.078125,12.9785156 C46.6510445,13.5839874 47.4387971,13.8867188 48.4414062,13.8867188 C49.567714,13.8867188 50.6028599,13.5156287 51.546875,12.7734375 L51.546875,14.2773438 C50.6679644,14.9153678 49.5058666,15.234375 48.0605469,15.234375 C46.6477794,15.234375 45.5377645,14.780278 44.7304688,13.8720703 C43.923173,12.9638626 43.5195312,11.6862062 43.5195312,10.0390625 C43.5195312,8.48306514 43.9606076,7.21517417 44.8427734,6.23535156 C45.7249393,5.25552896 46.820306,4.765625 48.1289062,4.765625 C49.4375065,4.765625 50.4498662,5.18879785 51.1660156,6.03515625 C51.882165,6.88151465 52.2402344,8.05663311 52.2402344,9.56054688 L52.2402344,10.4003906 Z M50.5996094,9.04296875 C50.5930989,8.11848496 50.3701194,7.39909111 49.9306641,6.88476562 C49.4912087,6.37044014 48.8808633,6.11328125 48.0996094,6.11328125 C47.3443973,6.11328125 46.7031276,6.38346084 46.1757812,6.92382812 C45.6484349,7.46419541 45.3229173,8.17056855 45.1992188,9.04296875 L50.5996094,9.04296875 Z M68.8613281,15 L67.2597656,15 L67.2597656,9.2578125 C67.2597656,8.15103613 67.0888689,7.35026289 66.7470703,6.85546875 C66.4052717,6.36067461 65.8307332,6.11328125 65.0234375,6.11328125 C64.3398403,6.11328125 63.7587915,6.42577812 63.2802734,7.05078125 C62.8017554,7.67578437 62.5625,8.4244748 62.5625,9.296875 L62.5625,15 L60.9609375,15 L60.9609375,9.0625 C60.9609375,7.09634434 60.2024815,6.11328125 58.6855469,6.11328125 C57.9824184,6.11328125 57.4029971,6.40787466 56.9472656,6.99707031 C56.4915342,7.58626597 56.2636719,8.35285986 56.2636719,9.296875 L56.2636719,15 L54.6621094,15 L54.6621094,5 L56.2636719,5 L56.2636719,6.58203125 L56.3027344,6.58203125 C57.0123733,5.3710877 58.0475192,4.765625 59.4082031,4.765625 C60.0918003,4.765625 60.6874975,4.95605278 61.1953125,5.33691406 C61.7031275,5.71777534 62.0514313,6.21744482 62.2402344,6.8359375 C62.9824256,5.45572227 64.0891854,4.765625 65.5605469,4.765625 C67.7610787,4.765625 68.8613281,6.1230333 68.8613281,8.83789062 L68.8613281,15 Z M76.0683594,15.234375 C74.5904874,15.234375 73.4104862,14.7672573 72.5283203,13.8330078 C71.6461544,12.8987583 71.2050781,11.660164 71.2050781,10.1171875 C71.2050781,8.4374916 71.6640579,7.12565576 72.5820312,6.18164062 C73.5000046,5.23762549 74.7402266,4.765625 76.3027344,4.765625 C77.7936272,4.765625 78.9573526,5.22460479 79.7939453,6.14257812 C80.630538,7.06055146 81.0488281,8.3333252 81.0488281,9.9609375 C81.0488281,11.5559976 80.5979863,12.8336541 79.6962891,13.7939453 C78.7945918,14.7542366 77.585294,15.234375 76.0683594,15.234375 Z M76.1855469,6.11328125 C75.1568959,6.11328125 74.343102,6.46321265 73.7441406,7.16308594 C73.1451793,7.86295923 72.8457031,8.82811885 72.8457031,10.0585938 C72.8457031,11.2434955 73.1484345,12.177731 73.7539062,12.8613281 C74.359378,13.5449253 75.1699168,13.8867188 76.1855469,13.8867188 C77.2207083,13.8867188 78.0165988,13.5514356 78.5732422,12.8808594 C79.1298856,12.2102831 79.4082031,11.2565166 79.4082031,10.0195312 C79.4082031,8.769525 79.1298856,7.80599297 78.5732422,7.12890625 C78.0165988,6.45181953 77.2207083,6.11328125 76.1855469,6.11328125 Z M88.2460938,14.9023438 C87.8684877,15.1106781 87.3704458,15.2148438 86.7519531,15.2148438 C85.0006423,15.2148438 84.125,14.238291 84.125,12.2851562 L84.125,6.3671875 L82.40625,6.3671875 L82.40625,5 L84.125,5 L84.125,2.55859375 L85.7265625,2.04101562 L85.7265625,5 L88.2460938,5 L88.2460938,6.3671875 L85.7265625,6.3671875 L85.7265625,12.0019531 C85.7265625,12.6725294 85.8404937,13.1510402 86.0683594,13.4375 C86.2962251,13.7239598 86.6738255,13.8671875 87.2011719,13.8671875 C87.6048197,13.8671875 87.9531235,13.7565115 88.2460938,13.5351562 L88.2460938,14.9023438 Z M98.265625,10.4003906 L91.2050781,10.4003906 C91.2311199,11.5136774 91.5305961,12.3730438 92.1035156,12.9785156 C92.6764352,13.5839874 93.4641877,13.8867188 94.4667969,13.8867188 C95.5931046,13.8867188 96.6282505,13.5156287 97.5722656,12.7734375 L97.5722656,14.2773438 C96.693355,14.9153678 95.5312572,15.234375 94.0859375,15.234375 C92.67317,15.234375 91.5631551,14.780278 90.7558594,13.8720703 C89.9485637,12.9638626 89.5449219,11.6862062 89.5449219,10.0390625 C89.5449219,8.48306514 89.9859982,7.21517417 90.8681641,6.23535156 C91.7503299,5.25552896 92.8456966,4.765625 94.1542969,4.765625 C95.4628972,4.765625 96.4752568,5.18879785 97.1914062,6.03515625 C97.9075557,6.88151465 98.265625,8.05663311 98.265625,9.56054688 L98.265625,10.4003906 Z M96.625,9.04296875 C96.6184896,8.11848496 96.39551,7.39909111 95.9560547,6.88476562 C95.5165994,6.37044014 94.9062539,6.11328125 94.125,6.11328125 C93.3697879,6.11328125 92.7285183,6.38346084 92.2011719,6.92382812 C91.6738255,7.46419541 91.3483079,8.17056855 91.2246094,9.04296875 L96.625,9.04296875 Z M105.804688,10.0585938 L100.472656,10.0585938 L100.472656,8.79882812 L105.804688,8.79882812 L105.804688,10.0585938 Z M113.324219,14.9023438 C112.946613,15.1106781 112.448571,15.2148438 111.830078,15.2148438 C110.078767,15.2148438 109.203125,14.238291 109.203125,12.2851562 L109.203125,6.3671875 L107.484375,6.3671875 L107.484375,5 L109.203125,5 L109.203125,2.55859375 L110.804688,2.04101562 L110.804688,5 L113.324219,5 L113.324219,6.3671875 L110.804688,6.3671875 L110.804688,12.0019531 C110.804688,12.6725294 110.918619,13.1510402 111.146484,13.4375 C111.37435,13.7239598 111.75195,13.8671875 112.279297,13.8671875 C112.682945,13.8671875 113.031249,13.7565115 113.324219,13.5351562 L113.324219,14.9023438 Z M120.677734,6.62109375 C120.397785,6.40624893 119.994143,6.29882812 119.466797,6.29882812 C118.7832,6.29882812 118.211916,6.62109053 117.75293,7.265625 C117.293943,7.91015947 117.064453,8.78905693 117.064453,9.90234375 L117.064453,15 L115.462891,15 L115.462891,5 L117.064453,5 L117.064453,7.06054688 L117.103516,7.06054688 C117.331381,6.35741836 117.679685,5.80892124 118.148438,5.41503906 C118.61719,5.02115688 119.141273,4.82421875 119.720703,4.82421875 C120.137372,4.82421875 120.456379,4.86979121 120.677734,4.9609375 L120.677734,6.62109375 Z M129.574219,15 L127.972656,15 L127.972656,13.4375 L127.933594,13.4375 C127.236976,14.6354227 126.211595,15.234375 124.857422,15.234375 C123.861323,15.234375 123.081709,14.9707058 122.518555,14.4433594 C121.955401,13.916013 121.673828,13.2161502 121.673828,12.34375 C121.673828,10.4752511 122.774078,9.38802236 124.974609,9.08203125 L127.972656,8.66210938 C127.972656,6.96288213 127.285814,6.11328125 125.912109,6.11328125 C124.707676,6.11328125 123.620448,6.5234334 122.650391,7.34375 L122.650391,5.703125 C123.633468,5.07812188 124.76627,4.765625 126.048828,4.765625 C128.3991,4.765625 129.574219,6.00910215 129.574219,8.49609375 L129.574219,15 Z M127.972656,9.94140625 L125.560547,10.2734375 C124.818356,10.3776047 124.258465,10.5615221 123.880859,10.8251953 C123.503253,11.0888685 123.314453,11.5559862 123.314453,12.2265625 C123.314453,12.7148462 123.488605,13.1136052 123.836914,13.4228516 C124.185223,13.7320979 124.649086,13.8867188 125.228516,13.8867188 C126.02279,13.8867188 126.678708,13.6084012 127.196289,13.0517578 C127.71387,12.4951144 127.972656,11.7903688 127.972656,10.9375 L127.972656,9.94140625 Z M139.408203,14.5410156 C138.63997,15.0032575 137.728521,15.234375 136.673828,15.234375 C135.24804,15.234375 134.097335,14.7705125 133.22168,13.8427734 C132.346024,12.9150344 131.908203,11.712247 131.908203,10.234375 C131.908203,8.58723135 132.380204,7.26400239 133.324219,6.26464844 C134.268234,5.26529448 135.527987,4.765625 137.103516,4.765625 C137.982426,4.765625 138.757158,4.92838379 139.427734,5.25390625 L139.427734,6.89453125 C138.685543,6.37369531 137.89128,6.11328125 137.044922,6.11328125 C136.022781,6.11328125 135.184574,6.47948853 134.530273,7.21191406 C133.875973,7.9443396 133.548828,8.90624404 133.548828,10.0976562 C133.548828,11.2695371 133.856442,12.194007 134.47168,12.8710938 C135.086917,13.5481805 135.912104,13.8867188 136.947266,13.8867188 C137.819666,13.8867188 138.63997,13.5970081 139.408203,13.0175781 L139.408203,14.5410156 Z M150.130859,15 L147.884766,15 L143.470703,10.1953125 L143.431641,10.1953125 L143.431641,15 L141.830078,15 L141.830078,0.1953125 L143.431641,0.1953125 L143.431641,9.58007812 L143.470703,9.58007812 L147.669922,5 L149.769531,5 L145.130859,9.82421875 L150.130859,15 Z M152.591797,2.4609375 C152.305337,2.4609375 152.061199,2.36328223 151.859375,2.16796875 C151.657551,1.97265527 151.556641,1.72526191 151.556641,1.42578125 C151.556641,1.12630059 151.657551,0.877279639 151.859375,0.678710938 C152.061199,0.480142236 152.305337,0.380859375 152.591797,0.380859375 C152.884767,0.380859375 153.133788,0.480142236 153.338867,0.678710938 C153.543946,0.877279639 153.646484,1.12630059 153.646484,1.42578125 C153.646484,1.71224102 153.543946,1.9563792 153.338867,2.15820312 C153.133788,2.36002705 152.884767,2.4609375 152.591797,2.4609375 Z M153.373047,15 L151.771484,15 L151.771484,5 L153.373047,5 L153.373047,15 Z M164.916016,15 L163.314453,15 L163.314453,9.296875 C163.314453,7.17446855 162.539721,6.11328125 160.990234,6.11328125 C160.189449,6.11328125 159.527021,6.41438501 159.00293,7.01660156 C158.478839,7.61881812 158.216797,8.37890166 158.216797,9.296875 L158.216797,15 L156.615234,15 L156.615234,5 L158.216797,5 L158.216797,6.66015625 L158.255859,6.66015625 C159.011071,5.3971291 160.104811,4.765625 161.537109,4.765625 C162.630865,4.765625 163.467445,5.11881157 164.046875,5.82519531 C164.626305,6.53157905 164.916016,7.55207666 164.916016,8.88671875 L164.916016,15 Z M176.46875,14.1992188 C176.46875,17.8711121 174.710955,19.7070312 171.195312,19.7070312 C169.958327,19.7070312 168.877609,19.4726586 167.953125,19.0039062 L167.953125,17.4023438 C169.079433,18.0273469 170.153641,18.3398438 171.175781,18.3398438 C173.636731,18.3398438 174.867188,17.0312631 174.867188,14.4140625 L174.867188,13.3203125 L174.828125,13.3203125 C174.066402,14.5963605 172.920581,15.234375 171.390625,15.234375 C170.147129,15.234375 169.146163,14.7900435 168.387695,13.9013672 C167.629228,13.0126909 167.25,11.8196689 167.25,10.3222656 C167.25,8.62303838 167.658525,7.27214043 168.475586,6.26953125 C169.292647,5.26692207 170.4108,4.765625 171.830078,4.765625 C173.177741,4.765625 174.17708,5.30598418 174.828125,6.38671875 L174.867188,6.38671875 L174.867188,5 L176.46875,5 L176.46875,14.1992188 Z M174.867188,10.4785156 L174.867188,9.00390625 C174.867188,8.20963145 174.598635,7.52929971 174.061523,6.96289062 C173.524411,6.39648154 172.855473,6.11328125 172.054688,6.11328125 C171.065099,6.11328125 170.290367,6.47297817 169.730469,7.19238281 C169.17057,7.91178745 168.890625,8.91926436 168.890625,10.2148438 C168.890625,11.3281306 169.159177,12.2184211 169.696289,12.8857422 C170.233401,13.5530632 170.944657,13.8867188 171.830078,13.8867188 C172.72852,13.8867188 173.459307,13.5677115 174.022461,12.9296875 C174.585615,12.2916635 174.867188,11.4746144 174.867188,10.4785156 Z M185.404297,15 L185.404297,0.99609375 L189.388672,0.99609375 C190.599615,0.99609375 191.559892,1.29231475 192.269531,1.88476562 C192.97917,2.4772165 193.333984,3.24869316 193.333984,4.19921875 C193.333984,4.99349355 193.119143,5.68359082 192.689453,6.26953125 C192.259763,6.85547168 191.667321,7.27213418 190.912109,7.51953125 L190.912109,7.55859375 C191.856125,7.66927139 192.611325,8.02571313 193.177734,8.62792969 C193.744143,9.23014624 194.027344,10.013016 194.027344,10.9765625 C194.027344,12.1744852 193.597661,13.1445275 192.738281,13.8867188 C191.878902,14.62891 190.794928,15 189.486328,15 L185.404297,15 Z M187.044922,2.48046875 L187.044922,7.00195312 L188.724609,7.00195312 C189.623051,7.00195312 190.329425,6.78548394 190.84375,6.35253906 C191.358075,5.91959419 191.615234,5.30924873 191.615234,4.52148438 C191.615234,3.16080049 190.720061,2.48046875 188.929688,2.48046875 L187.044922,2.48046875 Z M187.044922,8.4765625 L187.044922,13.515625 L189.271484,13.515625 C190.235031,13.515625 190.982094,13.2877627 191.512695,12.8320312 C192.043297,12.3762998 192.308594,11.7513061 192.308594,10.9570312 C192.308594,9.30337715 191.182303,8.4765625 188.929688,8.4765625 L187.044922,8.4765625 Z M201.869141,6.62109375 C201.589191,6.40624893 201.18555,6.29882812 200.658203,6.29882812 C199.974606,6.29882812 199.403323,6.62109053 198.944336,7.265625 C198.485349,7.91015947 198.255859,8.78905693 198.255859,9.90234375 L198.255859,15 L196.654297,15 L196.654297,5 L198.255859,5 L198.255859,7.06054688 L198.294922,7.06054688 C198.522788,6.35741836 198.871091,5.80892124 199.339844,5.41503906 C199.808596,5.02115688 200.332679,4.82421875 200.912109,4.82421875 C201.328778,4.82421875 201.647785,4.86979121 201.869141,4.9609375 L201.869141,6.62109375 Z M210.765625,15 L209.164062,15 L209.164062,13.4375 L209.125,13.4375 C208.428382,14.6354227 207.403002,15.234375 206.048828,15.234375 C205.052729,15.234375 204.273115,14.9707058 203.709961,14.4433594 C203.146807,13.916013 202.865234,13.2161502 202.865234,12.34375 C202.865234,10.4752511 203.965484,9.38802236 206.166016,9.08203125 L209.164062,8.66210938 C209.164062,6.96288213 208.47722,6.11328125 207.103516,6.11328125 C205.899083,6.11328125 204.811854,6.5234334 203.841797,7.34375 L203.841797,5.703125 C204.824875,5.07812188 205.957676,4.765625 207.240234,4.765625 C209.590507,4.765625 210.765625,6.00910215 210.765625,8.49609375 L210.765625,15 Z M209.164062,9.94140625 L206.751953,10.2734375 C206.009762,10.3776047 205.449872,10.5615221 205.072266,10.8251953 C204.69466,11.0888685 204.505859,11.5559862 204.505859,12.2265625 C204.505859,12.7148462 204.680011,13.1136052 205.02832,13.4228516 C205.376629,13.7320979 205.840492,13.8867188 206.419922,13.8867188 C207.214197,13.8867188 207.870115,13.6084012 208.387695,13.0517578 C208.905276,12.4951144 209.164062,11.7903688 209.164062,10.9375 L209.164062,9.94140625 Z M222.083984,15 L220.482422,15 L220.482422,9.296875 C220.482422,7.17446855 219.70769,6.11328125 218.158203,6.11328125 C217.357418,6.11328125 216.69499,6.41438501 216.170898,7.01660156 C215.646807,7.61881812 215.384766,8.37890166 215.384766,9.296875 L215.384766,15 L213.783203,15 L213.783203,5 L215.384766,5 L215.384766,6.66015625 L215.423828,6.66015625 C216.17904,5.3971291 217.272779,4.765625 218.705078,4.765625 C219.798834,4.765625 220.635414,5.11881157 221.214844,5.82519531 C221.794274,6.53157905 222.083984,7.55207666 222.083984,8.88671875 L222.083984,15 Z M231.917969,14.5410156 C231.149736,15.0032575 230.238287,15.234375 229.183594,15.234375 C227.757805,15.234375 226.607101,14.7705125 225.731445,13.8427734 C224.85579,12.9150344 224.417969,11.712247 224.417969,10.234375 C224.417969,8.58723135 224.889969,7.26400239 225.833984,6.26464844 C226.778,5.26529448 228.037753,4.765625 229.613281,4.765625 C230.492192,4.765625 231.266924,4.92838379 231.9375,5.25390625 L231.9375,6.89453125 C231.195309,6.37369531 230.401046,6.11328125 229.554688,6.11328125 C228.532547,6.11328125 227.694339,6.47948853 227.040039,7.21191406 C226.385739,7.9443396 226.058594,8.90624404 226.058594,10.0976562 C226.058594,11.2695371 226.366208,12.194007 226.981445,12.8710938 C227.596683,13.5481805 228.42187,13.8867188 229.457031,13.8867188 C230.329431,13.8867188 231.149736,13.5970081 231.917969,13.0175781 L231.917969,14.5410156 Z M242.640625,15 L241.039062,15 L241.039062,9.23828125 C241.039062,7.1549375 240.264331,6.11328125 238.714844,6.11328125 C237.93359,6.11328125 237.276044,6.41438501 236.742188,7.01660156 C236.208331,7.61881812 235.941406,8.39192236 235.941406,9.3359375 L235.941406,15 L234.339844,15 L234.339844,0.1953125 L235.941406,0.1953125 L235.941406,6.66015625 L235.980469,6.66015625 C236.748702,5.3971291 237.842441,4.765625 239.261719,4.765625 C241.514334,4.765625 242.640625,6.1230333 242.640625,8.83789062 L242.640625,15 Z M253.695312,10.4003906 L246.634766,10.4003906 C246.660807,11.5136774 246.960284,12.3730438 247.533203,12.9785156 C248.106123,13.5839874 248.893875,13.8867188 249.896484,13.8867188 C251.022792,13.8867188 252.057938,13.5156287 253.001953,12.7734375 L253.001953,14.2773438 C252.123042,14.9153678 250.960945,15.234375 249.515625,15.234375 C248.102858,15.234375 246.992843,14.780278 246.185547,13.8720703 C245.378251,12.9638626 244.974609,11.6862062 244.974609,10.0390625 C244.974609,8.48306514 245.415686,7.21517417 246.297852,6.23535156 C247.180017,5.25552896 248.275384,4.765625 249.583984,4.765625 C250.892585,4.765625 251.904944,5.18879785 252.621094,6.03515625 C253.337243,6.88151465 253.695312,8.05663311 253.695312,9.56054688 L253.695312,10.4003906 Z M252.054688,9.04296875 C252.048177,8.11848496 251.825198,7.39909111 251.385742,6.88476562 C250.946287,6.37044014 250.335941,6.11328125 249.554688,6.11328125 C248.799475,6.11328125 248.158206,6.38346084 247.630859,6.92382812 C247.103513,7.46419541 246.777995,8.17056855 246.654297,9.04296875 L252.054688,9.04296875 Z M255.511719,14.6386719 L255.511719,12.9199219 C256.384119,13.5644563 257.344396,13.8867188 258.392578,13.8867188 C259.798835,13.8867188 260.501953,13.4179734 260.501953,12.4804688 C260.501953,12.2135403 260.441732,11.9873056 260.321289,11.8017578 C260.200846,11.61621 260.038087,11.4518236 259.833008,11.3085938 C259.627929,11.1653639 259.387046,11.0367844 259.110352,10.9228516 C258.833657,10.8089187 258.535809,10.6901048 258.216797,10.5664062 C257.774086,10.3906241 257.385093,10.213217 257.049805,10.0341797 C256.714517,9.85514233 256.434571,9.65332144 256.209961,9.42871094 C255.98535,9.20410044 255.816081,8.94856914 255.702148,8.66210938 C255.588216,8.37564961 255.53125,8.0403665 255.53125,7.65625 C255.53125,7.18749766 255.638671,6.77246274 255.853516,6.41113281 C256.06836,6.04980288 256.354816,5.74707153 256.712891,5.50292969 C257.070965,5.25878784 257.47949,5.07487041 257.938477,4.95117188 C258.397463,4.82747334 258.871091,4.765625 259.359375,4.765625 C260.225265,4.765625 260.999997,4.91536309 261.683594,5.21484375 L261.683594,6.8359375 C260.947913,6.35416426 260.101567,6.11328125 259.144531,6.11328125 C258.845051,6.11328125 258.574871,6.1474606 258.333984,6.21582031 C258.093098,6.28418003 257.886394,6.38020771 257.713867,6.50390625 C257.54134,6.62760479 257.407878,6.77571528 257.313477,6.94824219 C257.219075,7.12076909 257.171875,7.31119688 257.171875,7.51953125 C257.171875,7.77994922 257.219075,7.998046 257.313477,8.17382812 C257.407878,8.34961025 257.546223,8.50585869 257.728516,8.64257812 C257.910808,8.77929756 258.13216,8.90299424 258.392578,9.01367188 C258.652996,9.12434951 258.949217,9.24479102 259.28125,9.375 C259.723961,9.54427168 260.121092,9.71842358 260.472656,9.89746094 C260.824221,10.0764983 261.123697,10.2783192 261.371094,10.5029297 C261.618491,10.7275402 261.808919,10.9863267 261.942383,11.2792969 C262.075847,11.5722671 262.142578,11.9205709 262.142578,12.3242188 C262.142578,12.8190129 262.03353,13.2486961 261.81543,13.6132812 C261.59733,13.9778664 261.305991,14.2805978 260.941406,14.5214844 C260.576821,14.762371 260.156903,14.9414057 259.681641,15.0585938 C259.206378,15.1757818 258.708336,15.234375 258.1875,15.234375 C257.158849,15.234375 256.266931,15.0358093 255.511719,14.6386719 Z"/>
        <path fill="#8EA6BB" d="M9.124,4.68 L9.124,5.376 L5.148,5.376 L5.148,16 L4.332,16 L4.332,5.376 L0.332,5.376 L0.332,4.68 L9.124,4.68 Z M10.7,16 L10.7,4.36 L11.46,4.36 L11.46,9.4 C11.8280018,8.9466644 12.2479976,8.58533468 12.72,8.316 C13.1920024,8.04666532 13.7213304,7.912 14.308,7.912 C14.7453355,7.912 15.130665,7.98133264 15.464,8.12 C15.797335,8.25866736 16.0733322,8.45866536 16.292,8.72 C16.5106678,8.98133464 16.6759994,9.29599816 16.788,9.664 C16.9000006,10.0320018 16.956,10.4479977 16.956,10.912 L16.956,16 L16.196,16 L16.196,10.912 C16.196,10.1653296 16.025335,9.58000212 15.684,9.156 C15.342665,8.73199788 14.8200035,8.52 14.116,8.52 C13.5933307,8.52 13.1080022,8.65466532 12.66,8.924 C12.2119978,9.19333468 11.8120018,9.56266432 11.46,10.032 L11.46,16 L10.7,16 Z M22.356,7.912 C22.8040022,7.912 23.2186648,7.98933256 23.6,8.144 C23.9813352,8.29866744 24.3119986,8.52399852 24.592,8.82 C24.8720014,9.11600148 25.0906659,9.47999784 25.248,9.912 C25.4053341,10.3440022 25.484,10.8399972 25.484,11.4 C25.484,11.5173339 25.4666668,11.5973331 25.432,11.64 C25.3973332,11.6826669 25.342667,11.704 25.268,11.704 L19.516,11.704 L19.516,11.856 C19.516,12.4533363 19.5853326,12.9786644 19.724,13.432 C19.8626674,13.8853356 20.0599987,14.2653318 20.316,14.572 C20.5720013,14.8786682 20.8813315,15.1093326 21.244,15.264 C21.6066685,15.4186674 22.0119978,15.496 22.46,15.496 C22.860002,15.496 23.2066652,15.4520004 23.5,15.364 C23.7933348,15.2759996 24.039999,15.1773339 24.24,15.068 C24.440001,14.9586661 24.5986661,14.8600004 24.716,14.772 C24.8333339,14.6839996 24.9186664,14.64 24.972,14.64 C25.0413337,14.64 25.0946665,14.6666664 25.132,14.72 L25.34,14.976 C25.2119994,15.1360008 25.0426677,15.2853326 24.832,15.424 C24.6213323,15.5626674 24.386668,15.6813328 24.128,15.78 C23.869332,15.8786672 23.5920015,15.957333 23.296,16.016 C22.9999985,16.074667 22.7026682,16.104 22.404,16.104 C21.8599973,16.104 21.3640022,16.0093343 20.916,15.82 C20.4679978,15.6306657 20.0840016,15.3546685 19.764,14.992 C19.4439984,14.6293315 19.1973342,14.185336 19.024,13.66 C18.8506658,13.134664 18.764,12.5333367 18.764,11.856 C18.764,11.2853305 18.8453325,10.7586691 19.008,10.276 C19.1706675,9.79333092 19.4053318,9.37733508 19.712,9.028 C20.0186682,8.67866492 20.3946644,8.40533432 20.84,8.208 C21.2853356,8.01066568 21.7906638,7.912 22.356,7.912 Z M22.364,8.48 C21.9533313,8.48 21.585335,8.54399936 21.26,8.672 C20.934665,8.80000064 20.6533345,8.9839988 20.416,9.224 C20.1786655,9.4640012 19.9866674,9.75199832 19.84,10.088 C19.6933326,10.4240017 19.5960002,10.7999979 19.548,11.216 L24.796,11.216 C24.796,10.7893312 24.7373339,10.4066684 24.62,10.068 C24.5026661,9.72933164 24.3373344,9.44266784 24.124,9.208 C23.9106656,8.97333216 23.6546682,8.79333396 23.356,8.668 C23.0573318,8.54266604 22.7266685,8.48 22.364,8.48 Z M30.62,16 L30.62,8.04 L31.02,8.04 C31.1106671,8.04 31.1759998,8.05866648 31.216,8.096 C31.2560002,8.13333352 31.2786666,8.19733288 31.284,8.288 L31.348,9.968 C31.6040013,9.32266344 31.9453312,8.81733516 32.372,8.452 C32.7986688,8.08666484 33.3239969,7.904 33.948,7.904 C34.1880012,7.904 34.4093323,7.92933308 34.612,7.98 C34.8146677,8.03066692 35.0066658,8.10399952 35.188,8.2 L35.084,8.728 C35.0679999,8.81333376 35.0146671,8.856 34.924,8.856 C34.8919998,8.856 34.846667,8.84533344 34.788,8.824 C34.729333,8.80266656 34.6560004,8.7786668 34.568,8.752 C34.4799996,8.7253332 34.3720006,8.70133344 34.244,8.68 C34.1159994,8.65866656 33.9693342,8.648 33.804,8.648 C33.2013303,8.648 32.7066686,8.8346648 32.32,9.208 C31.9333314,9.5813352 31.6200012,10.1199965 31.38,10.824 L31.38,16 L30.62,16 Z M39.972,7.912 C40.4200022,7.912 40.8346648,7.98933256 41.216,8.144 C41.5973352,8.29866744 41.9279986,8.52399852 42.208,8.82 C42.4880014,9.11600148 42.7066659,9.47999784 42.864,9.912 C43.0213341,10.3440022 43.1,10.8399972 43.1,11.4 C43.1,11.5173339 43.0826668,11.5973331 43.048,11.64 C43.0133332,11.6826669 42.958667,11.704 42.884,11.704 L37.132,11.704 L37.132,11.856 C37.132,12.4533363 37.2013326,12.9786644 37.34,13.432 C37.4786674,13.8853356 37.6759987,14.2653318 37.932,14.572 C38.1880013,14.8786682 38.4973315,15.1093326 38.86,15.264 C39.2226685,15.4186674 39.6279978,15.496 40.076,15.496 C40.476002,15.496 40.8226652,15.4520004 41.116,15.364 C41.4093348,15.2759996 41.655999,15.1773339 41.856,15.068 C42.056001,14.9586661 42.2146661,14.8600004 42.332,14.772 C42.4493339,14.6839996 42.5346664,14.64 42.588,14.64 C42.6573337,14.64 42.7106665,14.6666664 42.748,14.72 L42.956,14.976 C42.8279994,15.1360008 42.6586677,15.2853326 42.448,15.424 C42.2373323,15.5626674 42.002668,15.6813328 41.744,15.78 C41.485332,15.8786672 41.2080015,15.957333 40.912,16.016 C40.6159985,16.074667 40.3186682,16.104 40.02,16.104 C39.4759973,16.104 38.9800022,16.0093343 38.532,15.82 C38.0839978,15.6306657 37.7000016,15.3546685 37.38,14.992 C37.0599984,14.6293315 36.8133342,14.185336 36.64,13.66 C36.4666658,13.134664 36.38,12.5333367 36.38,11.856 C36.38,11.2853305 36.4613325,10.7586691 36.624,10.276 C36.7866675,9.79333092 37.0213318,9.37733508 37.328,9.028 C37.6346682,8.67866492 38.0106644,8.40533432 38.456,8.208 C38.9013356,8.01066568 39.4066638,7.912 39.972,7.912 Z M39.98,8.48 C39.5693313,8.48 39.201335,8.54399936 38.876,8.672 C38.550665,8.80000064 38.2693345,8.9839988 38.032,9.224 C37.7946655,9.4640012 37.6026674,9.75199832 37.456,10.088 C37.3093326,10.4240017 37.2120002,10.7999979 37.164,11.216 L42.412,11.216 C42.412,10.7893312 42.3533339,10.4066684 42.236,10.068 C42.1186661,9.72933164 41.9533344,9.44266784 41.74,9.208 C41.5266656,8.97333216 41.2706682,8.79333396 40.972,8.668 C40.6733318,8.54266604 40.3426685,8.48 39.98,8.48 Z M45.148,16 L45.148,8.04 L45.564,8.04 C45.7026674,8.04 45.7826666,8.106666 45.804,8.24 L45.876,9.392 C46.0306674,9.17333224 46.1959991,8.97333424 46.372,8.792 C46.5480009,8.61066576 46.735999,8.45466732 46.936,8.324 C47.136001,8.19333268 47.3493322,8.09200036 47.576,8.02 C47.8026678,7.94799964 48.0413321,7.912 48.292,7.912 C48.8733362,7.912 49.3373316,8.08133164 49.684,8.42 C50.0306684,8.75866836 50.2653327,9.22933032 50.388,9.832 C50.4840005,9.50133168 50.6186658,9.2160012 50.792,8.976 C50.9653342,8.7359988 51.1639989,8.53733412 51.388,8.38 C51.6120011,8.22266588 51.8559987,8.10533372 52.12,8.028 C52.3840013,7.95066628 52.6546653,7.912 52.932,7.912 C53.3266686,7.912 53.6813318,7.97733268 53.996,8.108 C54.3106682,8.23866732 54.5786656,8.43199872 54.8,8.688 C55.0213344,8.94400128 55.1906661,9.2586648 55.308,9.632 C55.4253339,10.0053352 55.484,10.4319976 55.484,10.912 L55.484,16 L54.716,16 L54.716,10.912 C54.716,10.1333294 54.5480017,9.54000204 54.212,9.132 C53.8759983,8.72399796 53.3960031,8.52 52.772,8.52 C52.4946653,8.52 52.2293346,8.57066616 51.976,8.672 C51.7226654,8.77333384 51.4986676,8.923999 51.304,9.124 C51.1093324,9.324001 50.9546672,9.57333184 50.84,9.872 C50.7253328,10.1706682 50.668,10.5173314 50.668,10.912 L50.668,16 L49.908,16 L49.908,10.912 C49.908,10.1386628 49.7533349,9.54666872 49.444,9.136 C49.1346651,8.72533128 48.684003,8.52 48.092,8.52 C47.6599978,8.52 47.2600018,8.64933204 46.892,8.908 C46.5239982,9.16666796 46.1960014,9.52533104 45.908,9.984 L45.908,16 L45.148,16 Z M60.908,7.912 C61.4786695,7.912 61.9893311,8.00933236 62.44,8.204 C62.8906689,8.39866764 63.2706651,8.67466488 63.58,9.032 C63.8893349,9.38933512 64.1253325,9.81999748 64.288,10.324 C64.4506675,10.8280025 64.532,11.3919969 64.532,12.016 C64.532,12.6400031 64.4506675,13.2026642 64.288,13.704 C64.1253325,14.2053358 63.8893349,14.6346649 63.58,14.992 C63.2706651,15.3493351 62.8906689,15.623999 62.44,15.816 C61.9893311,16.008001 61.4786695,16.104 60.908,16.104 C60.3373305,16.104 59.8266689,16.008001 59.376,15.816 C58.9253311,15.623999 58.5440016,15.3493351 58.232,14.992 C57.9199984,14.6346649 57.6826675,14.2053358 57.52,13.704 C57.3573325,13.2026642 57.276,12.6400031 57.276,12.016 C57.276,11.3919969 57.3573325,10.8280025 57.52,10.324 C57.6826675,9.81999748 57.9199984,9.38933512 58.232,9.032 C58.5440016,8.67466488 58.9253311,8.39866764 59.376,8.204 C59.8266689,8.00933236 60.3373305,7.912 60.908,7.912 Z M60.908,15.504 C61.382669,15.504 61.7973316,15.4226675 62.152,15.26 C62.5066684,15.0973325 62.8026655,14.8640015 63.04,14.56 C63.2773345,14.2559985 63.4546661,13.8893355 63.572,13.46 C63.6893339,13.0306645 63.748,12.549336 63.748,12.016 C63.748,11.4879974 63.6893339,11.0080022 63.572,10.576 C63.4546661,10.1439978 63.2773345,9.7746682 63.04,9.468 C62.8026655,9.1613318 62.5066684,8.92533416 62.152,8.76 C61.7973316,8.59466584 61.382669,8.512 60.908,8.512 C60.433331,8.512 60.0186684,8.59466584 59.664,8.76 C59.3093316,8.92533416 59.0133345,9.1613318 58.776,9.468 C58.5386655,9.7746682 58.3600006,10.1439978 58.24,10.576 C58.1199994,11.0080022 58.06,11.4879974 58.06,12.016 C58.06,12.549336 58.1199994,13.0306645 58.24,13.46 C58.3600006,13.8893355 58.5386655,14.2559985 58.776,14.56 C59.0133345,14.8640015 59.3093316,15.0973325 59.664,15.26 C60.0186684,15.4226675 60.433331,15.504 60.908,15.504 Z M68.708,16.128 C68.1693306,16.128 67.7493348,15.9786682 67.448,15.68 C67.1466652,15.3813318 66.996,14.9200031 66.996,14.296 L66.996,8.856 L65.852,8.856 C65.793333,8.856 65.7453335,8.84000016 65.708,8.808 C65.6706665,8.77599984 65.652,8.73066696 65.652,8.672 L65.652,8.376 L67.012,8.28 L67.204,5.432 C67.2093334,5.38399976 67.2293332,5.34133352 67.264,5.304 C67.2986668,5.26666648 67.345333,5.248 67.404,5.248 L67.764,5.248 L67.764,8.288 L70.268,8.288 L70.268,8.856 L67.764,8.856 L67.764,14.256 C67.764,14.4746678 67.7919997,14.6626659 67.848,14.82 C67.9040003,14.9773341 67.9813328,15.1066662 68.08,15.208 C68.1786672,15.3093338 68.294666,15.3839998 68.428,15.432 C68.561334,15.4800002 68.7053326,15.504 68.86,15.504 C69.052001,15.504 69.2173326,15.4760003 69.356,15.42 C69.4946674,15.3639997 69.6146662,15.302667 69.716,15.236 C69.8173338,15.169333 69.8999997,15.1080003 69.964,15.052 C70.0280003,14.9959997 70.0786665,14.968 70.116,14.968 C70.1586669,14.968 70.2013331,14.9946664 70.244,15.048 L70.452,15.384 C70.2493323,15.6080011 69.9920016,15.7879993 69.68,15.924 C69.3679984,16.0600007 69.0440017,16.128 68.708,16.128 Z M75.236,7.912 C75.6840022,7.912 76.0986648,7.98933256 76.48,8.144 C76.8613352,8.29866744 77.1919986,8.52399852 77.472,8.82 C77.7520014,9.11600148 77.9706659,9.47999784 78.128,9.912 C78.2853341,10.3440022 78.364,10.8399972 78.364,11.4 C78.364,11.5173339 78.3466668,11.5973331 78.312,11.64 C78.2773332,11.6826669 78.222667,11.704 78.148,11.704 L72.396,11.704 L72.396,11.856 C72.396,12.4533363 72.4653326,12.9786644 72.604,13.432 C72.7426674,13.8853356 72.9399987,14.2653318 73.196,14.572 C73.4520013,14.8786682 73.7613315,15.1093326 74.124,15.264 C74.4866685,15.4186674 74.8919978,15.496 75.34,15.496 C75.740002,15.496 76.0866652,15.4520004 76.38,15.364 C76.6733348,15.2759996 76.919999,15.1773339 77.12,15.068 C77.320001,14.9586661 77.4786661,14.8600004 77.596,14.772 C77.7133339,14.6839996 77.7986664,14.64 77.852,14.64 C77.9213337,14.64 77.9746665,14.6666664 78.012,14.72 L78.22,14.976 C78.0919994,15.1360008 77.9226677,15.2853326 77.712,15.424 C77.5013323,15.5626674 77.266668,15.6813328 77.008,15.78 C76.749332,15.8786672 76.4720015,15.957333 76.176,16.016 C75.8799985,16.074667 75.5826682,16.104 75.284,16.104 C74.7399973,16.104 74.2440022,16.0093343 73.796,15.82 C73.3479978,15.6306657 72.9640016,15.3546685 72.644,14.992 C72.3239984,14.6293315 72.0773342,14.185336 71.904,13.66 C71.7306658,13.134664 71.644,12.5333367 71.644,11.856 C71.644,11.2853305 71.7253325,10.7586691 71.888,10.276 C72.0506675,9.79333092 72.2853318,9.37733508 72.592,9.028 C72.8986682,8.67866492 73.2746644,8.40533432 73.72,8.208 C74.1653356,8.01066568 74.6706638,7.912 75.236,7.912 Z M75.244,8.48 C74.8333313,8.48 74.465335,8.54399936 74.14,8.672 C73.814665,8.80000064 73.5333345,8.9839988 73.296,9.224 C73.0586655,9.4640012 72.8666674,9.75199832 72.72,10.088 C72.5733326,10.4240017 72.4760002,10.7999979 72.428,11.216 L77.676,11.216 C77.676,10.7893312 77.6173339,10.4066684 77.5,10.068 C77.3826661,9.72933164 77.2173344,9.44266784 77.004,9.208 C76.7906656,8.97333216 76.5346682,8.79333396 76.236,8.668 C75.9373318,8.54266604 75.6066685,8.48 75.244,8.48 Z M83.5,16 L83.5,8.04 L83.9,8.04 C83.9906671,8.04 84.0559998,8.05866648 84.096,8.096 C84.1360002,8.13333352 84.1586666,8.19733288 84.164,8.288 L84.228,9.968 C84.4840013,9.32266344 84.8253312,8.81733516 85.252,8.452 C85.6786688,8.08666484 86.2039969,7.904 86.828,7.904 C87.0680012,7.904 87.2893323,7.92933308 87.492,7.98 C87.6946677,8.03066692 87.8866658,8.10399952 88.068,8.2 L87.964,8.728 C87.9479999,8.81333376 87.8946671,8.856 87.804,8.856 C87.7719998,8.856 87.726667,8.84533344 87.668,8.824 C87.609333,8.80266656 87.5360004,8.7786668 87.448,8.752 C87.3599996,8.7253332 87.2520006,8.70133344 87.124,8.68 C86.9959994,8.65866656 86.8493342,8.648 86.684,8.648 C86.0813303,8.648 85.5866686,8.8346648 85.2,9.208 C84.8133314,9.5813352 84.5000012,10.1199965 84.26,10.824 L84.26,16 L83.5,16 Z M92.852,7.912 C93.3000022,7.912 93.7146648,7.98933256 94.096,8.144 C94.4773352,8.29866744 94.8079986,8.52399852 95.088,8.82 C95.3680014,9.11600148 95.5866659,9.47999784 95.744,9.912 C95.9013341,10.3440022 95.98,10.8399972 95.98,11.4 C95.98,11.5173339 95.9626668,11.5973331 95.928,11.64 C95.8933332,11.6826669 95.838667,11.704 95.764,11.704 L90.012,11.704 L90.012,11.856 C90.012,12.4533363 90.0813326,12.9786644 90.22,13.432 C90.3586674,13.8853356 90.5559987,14.2653318 90.812,14.572 C91.0680013,14.8786682 91.3773315,15.1093326 91.74,15.264 C92.1026685,15.4186674 92.5079978,15.496 92.956,15.496 C93.356002,15.496 93.7026652,15.4520004 93.996,15.364 C94.2893348,15.2759996 94.535999,15.1773339 94.736,15.068 C94.936001,14.9586661 95.0946661,14.8600004 95.212,14.772 C95.3293339,14.6839996 95.4146664,14.64 95.468,14.64 C95.5373337,14.64 95.5906665,14.6666664 95.628,14.72 L95.836,14.976 C95.7079994,15.1360008 95.5386677,15.2853326 95.328,15.424 C95.1173323,15.5626674 94.882668,15.6813328 94.624,15.78 C94.365332,15.8786672 94.0880015,15.957333 93.792,16.016 C93.4959985,16.074667 93.1986682,16.104 92.9,16.104 C92.3559973,16.104 91.8600022,16.0093343 91.412,15.82 C90.9639978,15.6306657 90.5800016,15.3546685 90.26,14.992 C89.9399984,14.6293315 89.6933342,14.185336 89.52,13.66 C89.3466658,13.134664 89.26,12.5333367 89.26,11.856 C89.26,11.2853305 89.3413325,10.7586691 89.504,10.276 C89.6666675,9.79333092 89.9013318,9.37733508 90.208,9.028 C90.5146682,8.67866492 90.8906644,8.40533432 91.336,8.208 C91.7813356,8.01066568 92.2866638,7.912 92.852,7.912 Z M92.86,8.48 C92.4493313,8.48 92.081335,8.54399936 91.756,8.672 C91.430665,8.80000064 91.1493345,8.9839988 90.912,9.224 C90.6746655,9.4640012 90.4826674,9.75199832 90.336,10.088 C90.1893326,10.4240017 90.0920002,10.7999979 90.044,11.216 L95.292,11.216 C95.292,10.7893312 95.2333339,10.4066684 95.116,10.068 C94.9986661,9.72933164 94.8333344,9.44266784 94.62,9.208 C94.4066656,8.97333216 94.1506682,8.79333396 93.852,8.668 C93.5533318,8.54266604 93.2226685,8.48 92.86,8.48 Z M98.028,18.816 L98.028,8.04 L98.444,8.04 C98.5133337,8.04 98.5693331,8.05466652 98.612,8.084 C98.6546669,8.11333348 98.6786666,8.16533296 98.684,8.24 L98.756,9.472 C99.1080018,8.9919976 99.5199976,8.61066808 99.992,8.328 C100.464002,8.04533192 100.99333,7.904 101.58,7.904 C102.561338,7.904 103.323997,8.24266328 103.868,8.92 C104.412003,9.59733672 104.684,10.6133266 104.684,11.968 C104.684,12.5493362 104.608001,13.0919975 104.456,13.596 C104.303999,14.1000025 104.081335,14.5373315 103.788,14.908 C103.494665,15.2786685 103.133335,15.5706656 102.704,15.784 C102.274665,15.9973344 101.780003,16.104 101.22,16.104 C100.675997,16.104 100.206669,16.0053343 99.812,15.808 C99.4173314,15.6106657 99.0760014,15.3173353 98.788,14.928 L98.788,18.816 L98.028,18.816 Z M101.364,8.52 C100.835997,8.52 100.357335,8.65733196 99.928,8.932 C99.4986645,9.20666804 99.1186683,9.58933088 98.788,10.08 L98.788,14.256 C99.0920015,14.714669 99.4293315,15.0373324 99.8,15.224 C100.170669,15.4106676 100.593331,15.504 101.068,15.504 C101.537336,15.504 101.947998,15.4186675 102.3,15.248 C102.652002,15.0773325 102.946665,14.8360016 103.184,14.524 C103.421335,14.2119984 103.599999,13.8386688 103.72,13.404 C103.840001,12.9693312 103.9,12.4906693 103.9,11.968 C103.9,10.7839941 103.682669,9.91333612 103.248,9.356 C102.813331,8.79866388 102.185337,8.52 101.364,8.52 Z M109.62,7.912 C110.19067,7.912 110.701331,8.00933236 111.152,8.204 C111.602669,8.39866764 111.982665,8.67466488 112.292,9.032 C112.601335,9.38933512 112.837333,9.81999748 113,10.324 C113.162667,10.8280025 113.244,11.3919969 113.244,12.016 C113.244,12.6400031 113.162667,13.2026642 113,13.704 C112.837333,14.2053358 112.601335,14.6346649 112.292,14.992 C111.982665,15.3493351 111.602669,15.623999 111.152,15.816 C110.701331,16.008001 110.19067,16.104 109.62,16.104 C109.04933,16.104 108.538669,16.008001 108.088,15.816 C107.637331,15.623999 107.256002,15.3493351 106.944,14.992 C106.631998,14.6346649 106.394667,14.2053358 106.232,13.704 C106.069333,13.2026642 105.988,12.6400031 105.988,12.016 C105.988,11.3919969 106.069333,10.8280025 106.232,10.324 C106.394667,9.81999748 106.631998,9.38933512 106.944,9.032 C107.256002,8.67466488 107.637331,8.39866764 108.088,8.204 C108.538669,8.00933236 109.04933,7.912 109.62,7.912 Z M109.62,15.504 C110.094669,15.504 110.509332,15.4226675 110.864,15.26 C111.218668,15.0973325 111.514665,14.8640015 111.752,14.56 C111.989335,14.2559985 112.166666,13.8893355 112.284,13.46 C112.401334,13.0306645 112.46,12.549336 112.46,12.016 C112.46,11.4879974 112.401334,11.0080022 112.284,10.576 C112.166666,10.1439978 111.989335,9.7746682 111.752,9.468 C111.514665,9.1613318 111.218668,8.92533416 110.864,8.76 C110.509332,8.59466584 110.094669,8.512 109.62,8.512 C109.145331,8.512 108.730668,8.59466584 108.376,8.76 C108.021332,8.92533416 107.725335,9.1613318 107.488,9.468 C107.250665,9.7746682 107.072001,10.1439978 106.952,10.576 C106.831999,11.0080022 106.772,11.4879974 106.772,12.016 C106.772,12.549336 106.831999,13.0306645 106.952,13.46 C107.072001,13.8893355 107.250665,14.2559985 107.488,14.56 C107.725335,14.8640015 108.021332,15.0973325 108.376,15.26 C108.730668,15.4226675 109.145331,15.504 109.62,15.504 Z M119.628,9.024 C119.590666,9.09866704 119.532,9.136 119.452,9.136 C119.393333,9.136 119.317334,9.102667 119.224,9.036 C119.130666,8.969333 119.008001,8.89466708 118.856,8.812 C118.703999,8.72933292 118.517334,8.654667 118.296,8.588 C118.074666,8.521333 117.804002,8.488 117.484,8.488 C117.195999,8.488 116.933335,8.52933292 116.696,8.612 C116.458665,8.69466708 116.256001,8.80533264 116.088,8.944 C115.919999,9.08266736 115.789334,9.24399908 115.696,9.428 C115.602666,9.61200092 115.556,9.80533232 115.556,10.008 C115.556,10.2586679 115.619999,10.4666658 115.748,10.632 C115.876001,10.7973342 116.043999,10.9386661 116.252,11.056 C116.460001,11.1733339 116.695999,11.2746662 116.96,11.36 C117.224001,11.4453338 117.494665,11.5306662 117.772,11.616 C118.049335,11.7013338 118.319999,11.7959995 118.584,11.9 C118.848001,12.0040005 119.083999,12.1333326 119.292,12.288 C119.500001,12.4426674 119.667999,12.6319989 119.796,12.856 C119.924001,13.0800011 119.988,13.3519984 119.988,13.672 C119.988,14.0186684 119.925334,14.3413318 119.8,14.64 C119.674666,14.9386682 119.493335,15.1973322 119.256,15.416 C119.018665,15.6346678 118.726668,15.8079994 118.38,15.936 C118.033332,16.0640006 117.638669,16.128 117.196,16.128 C116.635997,16.128 116.153335,16.0386676 115.748,15.86 C115.342665,15.6813324 114.980002,15.4480014 114.66,15.16 L114.844,14.888 C114.870667,14.8453331 114.9,14.8133334 114.932,14.792 C114.964,14.7706666 115.009333,14.76 115.068,14.76 C115.137334,14.76 115.222666,14.8026662 115.324,14.888 C115.425334,14.9733338 115.557333,15.0653328 115.72,15.164 C115.882667,15.2626672 116.085332,15.3546662 116.328,15.44 C116.570668,15.5253338 116.870665,15.568 117.228,15.568 C117.564002,15.568 117.859999,15.5213338 118.116,15.428 C118.372001,15.3346662 118.585332,15.2080008 118.756,15.048 C118.926668,14.8879992 119.056,14.7000011 119.144,14.484 C119.232,14.2679989 119.276,14.0400012 119.276,13.8 C119.276,13.533332 119.212001,13.3120009 119.084,13.136 C118.955999,12.9599991 118.788001,12.8106673 118.58,12.688 C118.371999,12.5653327 118.136001,12.4613338 117.872,12.376 C117.607999,12.2906662 117.336001,12.2053338 117.056,12.12 C116.775999,12.0346662 116.504001,11.9413338 116.24,11.84 C115.975999,11.7386662 115.740001,11.6106674 115.532,11.456 C115.323999,11.3013326 115.156001,11.1133344 115.028,10.892 C114.899999,10.6706656 114.836,10.3946683 114.836,10.064 C114.836,9.78133192 114.897333,9.50933464 115.02,9.248 C115.142667,8.98666536 115.317332,8.75733432 115.544,8.56 C115.770668,8.36266568 116.046665,8.20533392 116.372,8.088 C116.697335,7.97066608 117.062665,7.912 117.468,7.912 C117.953336,7.912 118.383998,7.98133264 118.76,8.12 C119.136002,8.25866736 119.481332,8.47199856 119.796,8.76 L119.628,9.024 Z M123.108,8.04 L123.108,16 L122.348,16 L122.348,8.04 L123.108,8.04 Z M123.444,5.296 C123.444,5.39200048 123.424,5.48133292 123.384,5.564 C123.344,5.64666708 123.292,5.71999968 123.228,5.784 C123.164,5.84800032 123.089334,5.89866648 123.004,5.936 C122.918666,5.97333352 122.828,5.992 122.732,5.992 C122.636,5.992 122.545334,5.97333352 122.46,5.936 C122.374666,5.89866648 122.3,5.84800032 122.236,5.784 C122.172,5.71999968 122.121334,5.64666708 122.084,5.564 C122.046666,5.48133292 122.028,5.39200048 122.028,5.296 C122.028,5.19999952 122.046666,5.10800044 122.084,5.02 C122.121334,4.93199956 122.172,4.85600032 122.236,4.792 C122.3,4.72799968 122.374666,4.67733352 122.46,4.64 C122.545334,4.60266648 122.636,4.584 122.732,4.584 C122.828,4.584 122.918666,4.60266648 123.004,4.64 C123.089334,4.67733352 123.164,4.72799968 123.228,4.792 C123.292,4.85600032 123.344,4.93199956 123.384,5.02 C123.424,5.10800044 123.444,5.19999952 123.444,5.296 Z M128.1,16.128 C127.561331,16.128 127.141335,15.9786682 126.84,15.68 C126.538665,15.3813318 126.388,14.9200031 126.388,14.296 L126.388,8.856 L125.244,8.856 C125.185333,8.856 125.137334,8.84000016 125.1,8.808 C125.062666,8.77599984 125.044,8.73066696 125.044,8.672 L125.044,8.376 L126.404,8.28 L126.596,5.432 C126.601333,5.38399976 126.621333,5.34133352 126.656,5.304 C126.690667,5.26666648 126.737333,5.248 126.796,5.248 L127.156,5.248 L127.156,8.288 L129.66,8.288 L129.66,8.856 L127.156,8.856 L127.156,14.256 C127.156,14.4746678 127.184,14.6626659 127.24,14.82 C127.296,14.9773341 127.373333,15.1066662 127.472,15.208 C127.570667,15.3093338 127.686666,15.3839998 127.82,15.432 C127.953334,15.4800002 128.097333,15.504 128.252,15.504 C128.444001,15.504 128.609333,15.4760003 128.748,15.42 C128.886667,15.3639997 129.006666,15.302667 129.108,15.236 C129.209334,15.169333 129.292,15.1080003 129.356,15.052 C129.42,14.9959997 129.470666,14.968 129.508,14.968 C129.550667,14.968 129.593333,14.9946664 129.636,15.048 L129.844,15.384 C129.641332,15.6080011 129.384002,15.7879993 129.072,15.924 C128.759998,16.0600007 128.436002,16.128 128.1,16.128 Z M134.66,7.912 C135.23067,7.912 135.741331,8.00933236 136.192,8.204 C136.642669,8.39866764 137.022665,8.67466488 137.332,9.032 C137.641335,9.38933512 137.877333,9.81999748 138.04,10.324 C138.202667,10.8280025 138.284,11.3919969 138.284,12.016 C138.284,12.6400031 138.202667,13.2026642 138.04,13.704 C137.877333,14.2053358 137.641335,14.6346649 137.332,14.992 C137.022665,15.3493351 136.642669,15.623999 136.192,15.816 C135.741331,16.008001 135.23067,16.104 134.66,16.104 C134.08933,16.104 133.578669,16.008001 133.128,15.816 C132.677331,15.623999 132.296002,15.3493351 131.984,14.992 C131.671998,14.6346649 131.434667,14.2053358 131.272,13.704 C131.109333,13.2026642 131.028,12.6400031 131.028,12.016 C131.028,11.3919969 131.109333,10.8280025 131.272,10.324 C131.434667,9.81999748 131.671998,9.38933512 131.984,9.032 C132.296002,8.67466488 132.677331,8.39866764 133.128,8.204 C133.578669,8.00933236 134.08933,7.912 134.66,7.912 Z M134.66,15.504 C135.134669,15.504 135.549332,15.4226675 135.904,15.26 C136.258668,15.0973325 136.554665,14.8640015 136.792,14.56 C137.029335,14.2559985 137.206666,13.8893355 137.324,13.46 C137.441334,13.0306645 137.5,12.549336 137.5,12.016 C137.5,11.4879974 137.441334,11.0080022 137.324,10.576 C137.206666,10.1439978 137.029335,9.7746682 136.792,9.468 C136.554665,9.1613318 136.258668,8.92533416 135.904,8.76 C135.549332,8.59466584 135.134669,8.512 134.66,8.512 C134.185331,8.512 133.770668,8.59466584 133.416,8.76 C133.061332,8.92533416 132.765335,9.1613318 132.528,9.468 C132.290665,9.7746682 132.112001,10.1439978 131.992,10.576 C131.871999,11.0080022 131.812,11.4879974 131.812,12.016 C131.812,12.549336 131.871999,13.0306645 131.992,13.46 C132.112001,13.8893355 132.290665,14.2559985 132.528,14.56 C132.765335,14.8640015 133.061332,15.0973325 133.416,15.26 C133.770668,15.4226675 134.185331,15.504 134.66,15.504 Z M140.284,16 L140.284,8.04 L140.684,8.04 C140.774667,8.04 140.84,8.05866648 140.88,8.096 C140.92,8.13333352 140.942667,8.19733288 140.948,8.288 L141.012,9.968 C141.268001,9.32266344 141.609331,8.81733516 142.036,8.452 C142.462669,8.08666484 142.987997,7.904 143.612,7.904 C143.852001,7.904 144.073332,7.92933308 144.276,7.98 C144.478668,8.03066692 144.670666,8.10399952 144.852,8.2 L144.748,8.728 C144.732,8.81333376 144.678667,8.856 144.588,8.856 C144.556,8.856 144.510667,8.84533344 144.452,8.824 C144.393333,8.80266656 144.32,8.7786668 144.232,8.752 C144.144,8.7253332 144.036001,8.70133344 143.908,8.68 C143.779999,8.65866656 143.633334,8.648 143.468,8.648 C142.86533,8.648 142.370669,8.8346648 141.984,9.208 C141.597331,9.5813352 141.284001,10.1199965 141.044,10.824 L141.044,16 L140.284,16 Z M148.372,18.56 C148.34,18.634667 148.298667,18.6959998 148.248,18.744 C148.197333,18.7920002 148.124,18.816 148.028,18.816 L147.484,18.816 L148.884,15.704 L145.516,8.04 L146.148,8.04 C146.228,8.04 146.290666,8.0599998 146.336,8.1 C146.381334,8.1400002 146.414667,8.18399976 146.436,8.232 L149.116,14.424 C149.148,14.5040004 149.176,14.5853329 149.2,14.668 C149.224,14.7506671 149.246667,14.8346662 149.268,14.92 C149.294667,14.8346662 149.322667,14.7506671 149.352,14.668 C149.381333,14.5853329 149.412,14.5040004 149.444,14.424 L152.092,8.232 C152.118667,8.17333304 152.156,8.12666684 152.204,8.092 C152.252,8.05733316 152.305333,8.04 152.364,8.04 L152.948,8.04 L148.372,18.56 Z M158.5,8.04 L158.5,16 L157.74,16 L157.74,8.04 L158.5,8.04 Z M158.836,5.296 C158.836,5.39200048 158.816,5.48133292 158.776,5.564 C158.736,5.64666708 158.684,5.71999968 158.62,5.784 C158.556,5.84800032 158.481334,5.89866648 158.396,5.936 C158.310666,5.97333352 158.22,5.992 158.124,5.992 C158.028,5.992 157.937334,5.97333352 157.852,5.936 C157.766666,5.89866648 157.692,5.84800032 157.628,5.784 C157.564,5.71999968 157.513334,5.64666708 157.476,5.564 C157.438666,5.48133292 157.42,5.39200048 157.42,5.296 C157.42,5.19999952 157.438666,5.10800044 157.476,5.02 C157.513334,4.93199956 157.564,4.85600032 157.628,4.792 C157.692,4.72799968 157.766666,4.67733352 157.852,4.64 C157.937334,4.60266648 158.028,4.584 158.124,4.584 C158.22,4.584 158.310666,4.60266648 158.396,4.64 C158.481334,4.67733352 158.556,4.72799968 158.62,4.792 C158.684,4.85600032 158.736,4.93199956 158.776,5.02 C158.816,5.10800044 158.836,5.19999952 158.836,5.296 Z M165.7,9.024 C165.662666,9.09866704 165.604,9.136 165.524,9.136 C165.465333,9.136 165.389334,9.102667 165.296,9.036 C165.202666,8.969333 165.080001,8.89466708 164.928,8.812 C164.775999,8.72933292 164.589334,8.654667 164.368,8.588 C164.146666,8.521333 163.876002,8.488 163.556,8.488 C163.267999,8.488 163.005335,8.52933292 162.768,8.612 C162.530665,8.69466708 162.328001,8.80533264 162.16,8.944 C161.991999,9.08266736 161.861334,9.24399908 161.768,9.428 C161.674666,9.61200092 161.628,9.80533232 161.628,10.008 C161.628,10.2586679 161.691999,10.4666658 161.82,10.632 C161.948001,10.7973342 162.115999,10.9386661 162.324,11.056 C162.532001,11.1733339 162.767999,11.2746662 163.032,11.36 C163.296001,11.4453338 163.566665,11.5306662 163.844,11.616 C164.121335,11.7013338 164.391999,11.7959995 164.656,11.9 C164.920001,12.0040005 165.155999,12.1333326 165.364,12.288 C165.572001,12.4426674 165.739999,12.6319989 165.868,12.856 C165.996001,13.0800011 166.06,13.3519984 166.06,13.672 C166.06,14.0186684 165.997334,14.3413318 165.872,14.64 C165.746666,14.9386682 165.565335,15.1973322 165.328,15.416 C165.090665,15.6346678 164.798668,15.8079994 164.452,15.936 C164.105332,16.0640006 163.710669,16.128 163.268,16.128 C162.707997,16.128 162.225335,16.0386676 161.82,15.86 C161.414665,15.6813324 161.052002,15.4480014 160.732,15.16 L160.916,14.888 C160.942667,14.8453331 160.972,14.8133334 161.004,14.792 C161.036,14.7706666 161.081333,14.76 161.14,14.76 C161.209334,14.76 161.294666,14.8026662 161.396,14.888 C161.497334,14.9733338 161.629333,15.0653328 161.792,15.164 C161.954667,15.2626672 162.157332,15.3546662 162.4,15.44 C162.642668,15.5253338 162.942665,15.568 163.3,15.568 C163.636002,15.568 163.931999,15.5213338 164.188,15.428 C164.444001,15.3346662 164.657332,15.2080008 164.828,15.048 C164.998668,14.8879992 165.128,14.7000011 165.216,14.484 C165.304,14.2679989 165.348,14.0400012 165.348,13.8 C165.348,13.533332 165.284001,13.3120009 165.156,13.136 C165.027999,12.9599991 164.860001,12.8106673 164.652,12.688 C164.443999,12.5653327 164.208001,12.4613338 163.944,12.376 C163.679999,12.2906662 163.408001,12.2053338 163.128,12.12 C162.847999,12.0346662 162.576001,11.9413338 162.312,11.84 C162.047999,11.7386662 161.812001,11.6106674 161.604,11.456 C161.395999,11.3013326 161.228001,11.1133344 161.1,10.892 C160.971999,10.6706656 160.908,10.3946683 160.908,10.064 C160.908,9.78133192 160.969333,9.50933464 161.092,9.248 C161.214667,8.98666536 161.389332,8.75733432 161.616,8.56 C161.842668,8.36266568 162.118665,8.20533392 162.444,8.088 C162.769335,7.97066608 163.134665,7.912 163.54,7.912 C164.025336,7.912 164.455998,7.98133264 164.832,8.12 C165.208002,8.25866736 165.553332,8.47199856 165.868,8.76 L165.7,9.024 Z M174.284,7.912 C174.732002,7.912 175.146665,7.98933256 175.528,8.144 C175.909335,8.29866744 176.239999,8.52399852 176.52,8.82 C176.800001,9.11600148 177.018666,9.47999784 177.176,9.912 C177.333334,10.3440022 177.412,10.8399972 177.412,11.4 C177.412,11.5173339 177.394667,11.5973331 177.36,11.64 C177.325333,11.6826669 177.270667,11.704 177.196,11.704 L171.444,11.704 L171.444,11.856 C171.444,12.4533363 171.513333,12.9786644 171.652,13.432 C171.790667,13.8853356 171.987999,14.2653318 172.244,14.572 C172.500001,14.8786682 172.809332,15.1093326 173.172,15.264 C173.534668,15.4186674 173.939998,15.496 174.388,15.496 C174.788002,15.496 175.134665,15.4520004 175.428,15.364 C175.721335,15.2759996 175.967999,15.1773339 176.168,15.068 C176.368001,14.9586661 176.526666,14.8600004 176.644,14.772 C176.761334,14.6839996 176.846666,14.64 176.9,14.64 C176.969334,14.64 177.022666,14.6666664 177.06,14.72 L177.268,14.976 C177.139999,15.1360008 176.970668,15.2853326 176.76,15.424 C176.549332,15.5626674 176.314668,15.6813328 176.056,15.78 C175.797332,15.8786672 175.520001,15.957333 175.224,16.016 C174.927999,16.074667 174.630668,16.104 174.332,16.104 C173.787997,16.104 173.292002,16.0093343 172.844,15.82 C172.395998,15.6306657 172.012002,15.3546685 171.692,14.992 C171.371998,14.6293315 171.125334,14.185336 170.952,13.66 C170.778666,13.134664 170.692,12.5333367 170.692,11.856 C170.692,11.2853305 170.773333,10.7586691 170.936,10.276 C171.098667,9.79333092 171.333332,9.37733508 171.64,9.028 C171.946668,8.67866492 172.322664,8.40533432 172.768,8.208 C173.213336,8.01066568 173.718664,7.912 174.284,7.912 Z M174.292,8.48 C173.881331,8.48 173.513335,8.54399936 173.188,8.672 C172.862665,8.80000064 172.581335,8.9839988 172.344,9.224 C172.106665,9.4640012 171.914667,9.75199832 171.768,10.088 C171.621333,10.4240017 171.524,10.7999979 171.476,11.216 L176.724,11.216 C176.724,10.7893312 176.665334,10.4066684 176.548,10.068 C176.430666,9.72933164 176.265334,9.44266784 176.052,9.208 C175.838666,8.97333216 175.582668,8.79333396 175.284,8.668 C174.985332,8.54266604 174.654668,8.48 174.292,8.48 Z M179.46,16 L179.46,8.04 L179.876,8.04 C180.014667,8.04 180.094667,8.106666 180.116,8.24 L180.188,9.392 C180.342667,9.17333224 180.507999,8.97333424 180.684,8.792 C180.860001,8.61066576 181.047999,8.45466732 181.248,8.324 C181.448001,8.19333268 181.661332,8.09200036 181.888,8.02 C182.114668,7.94799964 182.353332,7.912 182.604,7.912 C183.185336,7.912 183.649332,8.08133164 183.996,8.42 C184.342668,8.75866836 184.577333,9.22933032 184.7,9.832 C184.796,9.50133168 184.930666,9.2160012 185.104,8.976 C185.277334,8.7359988 185.475999,8.53733412 185.7,8.38 C185.924001,8.22266588 186.167999,8.10533372 186.432,8.028 C186.696001,7.95066628 186.966665,7.912 187.244,7.912 C187.638669,7.912 187.993332,7.97733268 188.308,8.108 C188.622668,8.23866732 188.890666,8.43199872 189.112,8.688 C189.333334,8.94400128 189.502666,9.2586648 189.62,9.632 C189.737334,10.0053352 189.796,10.4319976 189.796,10.912 L189.796,16 L189.028,16 L189.028,10.912 C189.028,10.1333294 188.860002,9.54000204 188.524,9.132 C188.187998,8.72399796 187.708003,8.52 187.084,8.52 C186.806665,8.52 186.541335,8.57066616 186.288,8.672 C186.034665,8.77333384 185.810668,8.923999 185.616,9.124 C185.421332,9.324001 185.266667,9.57333184 185.152,9.872 C185.037333,10.1706682 184.98,10.5173314 184.98,10.912 L184.98,16 L184.22,16 L184.22,10.912 C184.22,10.1386628 184.065335,9.54666872 183.756,9.136 C183.446665,8.72533128 182.996003,8.52 182.404,8.52 C181.971998,8.52 181.572002,8.64933204 181.204,8.908 C180.835998,9.16666796 180.508001,9.52533104 180.22,9.984 L180.22,16 L179.46,16 Z M192.188,18.816 L192.188,8.04 L192.604,8.04 C192.673334,8.04 192.729333,8.05466652 192.772,8.084 C192.814667,8.11333348 192.838667,8.16533296 192.844,8.24 L192.916,9.472 C193.268002,8.9919976 193.679998,8.61066808 194.152,8.328 C194.624002,8.04533192 195.15333,7.904 195.74,7.904 C196.721338,7.904 197.483997,8.24266328 198.028,8.92 C198.572003,9.59733672 198.844,10.6133266 198.844,11.968 C198.844,12.5493362 198.768001,13.0919975 198.616,13.596 C198.463999,14.1000025 198.241335,14.5373315 197.948,14.908 C197.654665,15.2786685 197.293335,15.5706656 196.864,15.784 C196.434665,15.9973344 195.940003,16.104 195.38,16.104 C194.835997,16.104 194.366669,16.0053343 193.972,15.808 C193.577331,15.6106657 193.236001,15.3173353 192.948,14.928 L192.948,18.816 L192.188,18.816 Z M195.524,8.52 C194.995997,8.52 194.517335,8.65733196 194.088,8.932 C193.658665,9.20666804 193.278668,9.58933088 192.948,10.08 L192.948,14.256 C193.252002,14.714669 193.589331,15.0373324 193.96,15.224 C194.330669,15.4106676 194.753331,15.504 195.228,15.504 C195.697336,15.504 196.107998,15.4186675 196.46,15.248 C196.812002,15.0773325 197.106665,14.8360016 197.344,14.524 C197.581335,14.2119984 197.759999,13.8386688 197.88,13.404 C198.000001,12.9693312 198.06,12.4906693 198.06,11.968 C198.06,10.7839941 197.842669,9.91333612 197.408,9.356 C196.973331,8.79866388 196.345337,8.52 195.524,8.52 Z M202.924,16.128 C202.385331,16.128 201.965335,15.9786682 201.664,15.68 C201.362665,15.3813318 201.212,14.9200031 201.212,14.296 L201.212,8.856 L200.068,8.856 C200.009333,8.856 199.961334,8.84000016 199.924,8.808 C199.886666,8.77599984 199.868,8.73066696 199.868,8.672 L199.868,8.376 L201.228,8.28 L201.42,5.432 C201.425333,5.38399976 201.445333,5.34133352 201.48,5.304 C201.514667,5.26666648 201.561333,5.248 201.62,5.248 L201.98,5.248 L201.98,8.288 L204.484,8.288 L204.484,8.856 L201.98,8.856 L201.98,14.256 C201.98,14.4746678 202.008,14.6626659 202.064,14.82 C202.12,14.9773341 202.197333,15.1066662 202.296,15.208 C202.394667,15.3093338 202.510666,15.3839998 202.644,15.432 C202.777334,15.4800002 202.921333,15.504 203.076,15.504 C203.268001,15.504 203.433333,15.4760003 203.572,15.42 C203.710667,15.3639997 203.830666,15.302667 203.932,15.236 C204.033334,15.169333 204.116,15.1080003 204.18,15.052 C204.244,14.9959997 204.294666,14.968 204.332,14.968 C204.374667,14.968 204.417333,14.9946664 204.46,15.048 L204.668,15.384 C204.465332,15.6080011 204.208002,15.7879993 203.896,15.924 C203.583998,16.0600007 203.260002,16.128 202.924,16.128 Z M208.188,18.56 C208.156,18.634667 208.114667,18.6959998 208.064,18.744 C208.013333,18.7920002 207.94,18.816 207.844,18.816 L207.3,18.816 L208.7,15.704 L205.332,8.04 L205.964,8.04 C206.044,8.04 206.106666,8.0599998 206.152,8.1 C206.197334,8.1400002 206.230667,8.18399976 206.252,8.232 L208.932,14.424 C208.964,14.5040004 208.992,14.5853329 209.016,14.668 C209.04,14.7506671 209.062667,14.8346662 209.084,14.92 C209.110667,14.8346662 209.138667,14.7506671 209.168,14.668 C209.197333,14.5853329 209.228,14.5040004 209.26,14.424 L211.908,8.232 C211.934667,8.17333304 211.972,8.12666684 212.02,8.092 C212.068,8.05733316 212.121333,8.04 212.18,8.04 L212.764,8.04 L208.188,18.56 Z" transform="translate(26 22)"/>
      </g>
      <g transform="translate(84)">
        <path fill="#29292B" fill-rule="nonzero" d="M17.8271661,68.8157074 C13.7196785,69.316138 13.0532044,69.2830685 8.11366786,71.1907597 C-4.34032345,76.0005974 1.22848179,79.8839216 9.87903202,82.9023206 C15.1091342,84.7272375 21.0132441,86.546007 26.0309366,87.1790067 C30.2574319,87.712194 34.9063272,87.479117 39.4560048,87.8083259 C41.242562,87.9375989 43.538584,88.8943586 45.3425383,89.0018374 C56.6236791,89.6739628 67.6253173,88.9417338 77.8164743,86.6799838 C84.0041582,85.306735 95.5669554,82.5348187 96.7467752,78.0251492 C96.7479748,78.0205637 97.2390353,75.0276545 96.0912068,74.4647942 C92.3821613,72.6459905 88.4953271,70.9244346 84.3516444,69.4362745 C83.0333867,68.9628361 81.3720526,68.9077714 79.8822567,68.6435198 C71.6354473,68.0798528 65.4100351,67.6411964 61.2060203,67.3275504 C57.3842841,67.0424249 52.2312886,66.2085458 48.7135265,66.0499052 C42.4342777,65.7667298 32.1388242,66.6886639 17.8271661,68.8157074 Z"/>
        <g transform="translate(13)">
          <rect width="42" height="8" x="18" y="15" fill="#3A444F" stroke="#81BFF1" stroke-width="1.25"/>
          <path fill="#3A444F" stroke="#81BFF1" stroke-width="1.25" d="M14,25.0364749 C20.7681021,26.3812466 25.3924991,29.1694163 27.8731909,33.4009839 C31.5942287,39.7483352 30.2069096,45.6608675 33.4217336,49.6188734 C35.5649496,52.2575439 38.8118094,54.7179195 43.162313,57 L47,49.6188734 C42.1559992,51.2463255 38.6242413,50.1847141 36.4047264,46.4340392 C33.0754541,40.8080269 35.5316912,37.5720799 32.569974,33.4009839 C30.5954959,30.6202532 26.3995465,26.4865919 19.9821258,21 L14,25.0364749 Z"/>
          <g fill="#2D2D30" stroke="#81BFF1" stroke-width="1.25" transform="translate(39 46)">
            <path d="M12.4880197,23 C16.2067205,23 18.6401495,22.2345355 21.1132994,19.7392118 C21.9182803,18.9270136 23.8747104,17.0587774 24.3734135,16.1209574 C25.1842016,14.5962555 24.9760395,13.312158 24.9760395,11.5 C24.9760395,7.916499 23.0188552,5.05981533 20.2287948,2.95074507 C18.0738476,1.32177132 15.493586,0 12.4880197,0 C7.42109352,0 3.09026182,2.24998789 1.13213055,6.24308933 C0.424914251,7.68527376 0,9.81476953 0,11.5 C0,13.4987441 0.33379789,15.2354244 1.13213055,16.798336 C1.95695795,18.413117 3.27448099,19.8377134 5.03040852,20.8771411 C6.97542087,22.0284984 10.0040409,23 12.4880197,23 Z"/>
            <path d="M12.9558635,18.4 C15.1595381,18.4 16.6015701,17.9407213 18.0671404,16.4435271 C18.5441661,15.9562081 19.7035321,14.8352665 19.9990598,14.2725744 C20.4795269,13.3577533 20.3561715,12.5872948 20.3561715,11.5 C20.3561715,9.3498994 19.1963586,7.6358892 17.5429895,6.37044704 C16.2659838,5.39306279 14.7369398,4.6 12.9558635,4.6 C9.9532406,4.6 7.38682182,5.94999273 6.22644773,8.3458536 C5.80735659,9.21116426 5.55555556,10.4888617 5.55555556,11.5 C5.55555556,12.6992465 5.75336171,13.7412546 6.22644773,14.6790016 C6.71523434,15.6478702 7.49598873,16.502628 8.53653838,17.1262847 C9.68913829,17.817099 11.4838761,18.4 12.9558635,18.4 Z"/>
          </g>
          <g transform="rotate(-59 43.802 -29.571)">
            <path fill="#2D2D30" stroke="#81BFF1" stroke-width="1.25" d="M12.5357143,25 C16.2686176,25 18.7113404,24.1679734 21.1939358,21.455665 C22.0019912,20.5728408 23.9658933,18.5421494 24.466501,17.5227798 C25.2803857,15.8654952 25.0714286,14.469737 25.0714286,12.5 C25.0714286,8.60489022 23.1067693,5.49979927 20.3060531,3.20733159 C18.1428757,1.43670796 15.5527594,0 12.5357143,0 C7.44943634,0 3.10206423,2.44563901 1.13645441,6.78596667 C0.426537094,8.35355844 0,10.6682278 0,12.5 C0,14.672548 0.335072739,16.5602439 1.13645441,18.2590609 C1.96443202,20.0142576 3.28698697,21.5627319 5.04962078,22.6925447 C7.00206157,23.94402 10.0422486,25 12.5357143,25 Z"/>
            <path fill="#FFFFFF" stroke="#81BFF1" stroke-width="1.25" d="M12.5406138,19.9074074 C14.7527046,19.9074074 16.2002441,19.4143546 17.6714117,17.8070608 C18.1502593,17.2839057 19.3140532,16.080533 19.6107096,15.4764621 C20.0930117,14.4943675 19.9691852,13.6672515 19.9691852,12.5 C19.9691852,10.1917868 18.8049427,8.3517329 17.145259,6.99323354 C15.8633761,5.94397509 14.3284924,5.09259259 12.5406138,5.09259259 C9.52652314,5.09259259 6.95030263,6.54186015 5.78549681,9.11390617 C5.36480507,10.0428494 5.11204235,11.4145053 5.11204235,12.5 C5.11204235,13.7874358 5.31060397,14.9060704 5.78549681,15.9127768 C6.27615021,16.9528934 7.05988648,17.8705078 8.10441022,18.5400265 C9.26141217,19.2816415 11.0630045,19.9074074 12.5406138,19.9074074 Z"/>
            <path fill="#3A444F" d="M12.5444053,15.9664539 C13.5796003,15.9664539 14.2570072,15.7357194 14.9454714,14.983552 C15.1695583,14.7387305 15.7141804,14.1755866 15.8530071,13.8928988 C16.0787106,13.4333067 16.0207634,13.0462402 16.0207634,12.5 C16.0207634,11.4198225 15.4759313,10.5587301 14.699247,9.92299144 C14.0993626,9.43196861 13.3810811,9.03354606 12.5444053,9.03354606 C11.1338974,9.03354606 9.92830022,9.71176165 9.38320455,10.9154053 C9.18633289,11.3501241 9.0680472,11.9920197 9.0680472,12.5 C9.0680472,13.102483 9.16096834,13.6259719 9.38320455,14.0970816 C9.61281625,14.5838262 9.97958231,15.0132434 10.4683894,15.3265589 C11.0098331,15.6736134 11.8529266,15.9664539 12.5444053,15.9664539 Z"/>
          </g>
          <g fill="#2D2D30" stroke="#81BFF1" stroke-width="1.25" transform="translate(0 7)">
            <path d="M12.4880197,23 C16.2067205,23 18.6401495,22.2345355 21.1132994,19.7392118 C21.9182803,18.9270136 23.8747104,17.0587774 24.3734135,16.1209574 C25.1842016,14.5962555 24.9760395,13.312158 24.9760395,11.5 C24.9760395,7.916499 23.0188552,5.05981533 20.2287948,2.95074507 C18.0738476,1.32177132 15.493586,0 12.4880197,0 C7.42109352,0 3.09026182,2.24998789 1.13213055,6.24308933 C0.424914251,7.68527376 0,9.81476953 0,11.5 C0,13.4987441 0.33379789,15.2354244 1.13213055,16.798336 C1.95695795,18.413117 3.27448099,19.8377134 5.03040852,20.8771411 C6.97542087,22.0284984 10.0040409,23 12.4880197,23 Z"/>
            <path d="M12.9558635,18.4 C15.1595381,18.4 16.6015701,17.9407213 18.0671404,16.4435271 C18.5441661,15.9562081 19.7035321,14.8352665 19.9990598,14.2725744 C20.4795269,13.3577533 20.3561715,12.5872948 20.3561715,11.5 C20.3561715,9.3498994 19.1963586,7.6358892 17.5429895,6.37044704 C16.2659838,5.39306279 14.7369398,4.6 12.9558635,4.6 C9.9532406,4.6 7.38682182,5.94999273 6.22644773,8.3458536 C5.80735659,9.21116426 5.55555556,10.4888617 5.55555556,11.5 C5.55555556,12.6992465 5.75336171,13.7412546 6.22644773,14.6790016 C6.71523434,15.6478702 7.49598873,16.502628 8.53653838,17.1262847 C9.68913829,17.817099 11.4838761,18.4 12.9558635,18.4 Z"/>
          </g>
        </g>
        <g transform="translate(0 35)">
          <g fill-rule="nonzero">
            <use fill="#2D2D30" fill-rule="evenodd" xlink:href="#a"/>
            <path stroke="#81BFF1" stroke-width="1.125" d="M8.54770161,10.7136168 C9.10893859,7.31007778 10.369868,4.42091604 12.3942077,2.60236234 C14.6896611,0.52527779 19.2864184,-0.5625 23.7705425,-0.5625 C25.5285552,-0.5625 26.9667593,-0.0284911815 28.9791963,1.16183671 C29.1577566,1.2674526 29.3417736,1.37828135 29.5752691,1.52038657 C29.6554626,1.56919232 30.056673,1.81411595 30.1696791,1.88281413 C30.3302482,1.98042668 30.4676004,2.06330602 30.597196,2.14064586 C32.3043772,3.1481466 33.1294442,4.0104629 34.3113444,5.93594019 C34.5769764,5.86237506 34.847779,5.79700804 35.127411,5.73899268 C35.8741037,5.59918638 38.0531251,5.39077187 38.7737779,5.39077187 C40.6210748,5.39077187 41.8880277,5.87180272 43.2402216,6.96667393 C43.7048952,7.34292007 43.8258998,7.45514962 45.0282935,8.59835256 C47.2013005,10.7052115 48.5625,13.5280473 48.5625,16.2464238 C48.5625,16.865463 48.4241993,17.4100296 48.1350177,18.1251916 C48.1015958,18.2078458 48.0660915,18.2932799 48.0224381,18.3965689 C47.9657038,18.5302857 47.9657038,18.5302857 47.9094105,18.662618 C47.7043554,19.1458978 47.595889,19.4327861 47.5062612,19.7568194 C46.8527271,22.1195539 46.3938875,23.1988919 45.3036952,24.2840436 C43.8529662,25.728065 42.5483542,26.1055594 39.5989562,26.3658267 C38.9955326,26.4190753 38.742932,26.4433156 38.418891,26.4821919 C38.0556013,26.5257769 37.7325587,26.5755067 37.3714221,26.6450428 C31.1723801,27.2565306 26.5385061,27.5625 23.4625587,27.5625 C20.0300133,27.5625 14.9345053,27.2566976 8.08684566,26.6316567 C5.73403743,26.0562478 4.01026774,25.1012437 2.42078911,23.5751257 C0.339607743,21.5769055 -0.5625,20.2099482 -0.5625,18.3117456 C-0.5625,16.2991341 0.386359078,14.4804294 2.08845837,12.8461801 C2.91016787,12.057226 3.84754377,11.559963 4.98350326,11.2797996 C5.22584083,11.2200315 5.42127745,11.2233518 5.92947891,11.2613104 L5.9412596,11.2621901 C6.28135238,11.2875759 6.43324411,11.2909341 6.52498325,11.273417 C6.63893143,11.2516592 6.75928292,11.2022291 7.08666622,11.0477218 C7.17605619,11.0055858 7.21655468,10.9867063 7.27007687,10.9624792 C7.64411583,10.7931679 7.92006364,10.7080701 8.22140969,10.7080701 C8.33184934,10.7080701 8.43506459,10.709731 8.54770161,10.7136168 Z"/>
          </g>
          <path fill="#3A444F" d="M7.27427897,25.2475547 C16.4521141,26.6310051 22.2176236,27.1953422 24.5708073,26.940566 C28.1005829,26.5584016 39.9172027,25.6944645 41.7665149,25.2475547 C43.615827,24.8006449 45.3817614,24.2863333 45.656315,23.2235114 C45.9308686,22.1606894 46.6920833,20.4560571 46.9223316,19.7495013 C47.1525798,19.0429455 47.9033287,17.0803274 47.9957769,16.331272 C48.088225,15.5822166 46.6373122,12.3914265 46.1468136,12.0212152 C45.656315,11.6510039 45.5530522,16.226966 43.9817822,17.8635817 C42.4105123,19.5001974 34.7819688,21.3887241 31.4517417,22.3061177 C28.1215146,23.2235114 10.5354316,22.3061177 10.2563428,22.3061177 C9.97725399,22.3061177 4.75654913,21.2148896 3.82857887,20.3574448 C3.20993204,19.7858149 2.26917021,18.6786119 1.00629339,17.0358356 C0.940242371,19.3423242 1.39411053,21.0990849 2.36789787,22.3061177 C3.34168521,23.5131505 4.97714557,24.4936295 7.27427897,25.2475547 Z"/>
        </g>
      </g>
    </g>
  </g>
</svg>
