<svg xmlns="http://www.w3.org/2000/svg" width="440" height="172" viewBox="0 0 440 172">
  <g fill="none" fill-rule="evenodd">
    <rect width="440" height="172"/>
    <path fill="#000000" d="M12.024413,15 L10.0126942,15 L2.80566296,3.83789062 C2.62337038,3.55794131 2.4736323,3.26497549 2.35644421,2.95898438 L2.29785046,2.95898438 C2.34993405,3.25846504 2.37597546,3.89973467 2.37597546,4.8828125 L2.37597546,15 L0.73535046,15 L0.73535046,0.99609375 L2.86425671,0.99609375 L9.87597546,11.9824219 C10.1689457,12.4381533 10.3577459,12.7506502 10.4423817,12.9199219 L10.4814442,12.9199219 C10.4163397,12.516274 10.383788,11.8294319 10.383788,10.859375 L10.383788,0.99609375 L12.024413,0.99609375 L12.024413,15 Z M20.1611318,15.234375 C18.6832598,15.234375 17.5032586,14.7672573 16.6210927,13.8330078 C15.7389268,12.8987583 15.2978505,11.660164 15.2978505,10.1171875 C15.2978505,8.4374916 15.7568303,7.12565576 16.6748036,6.18164062 C17.592777,5.23762549 18.832999,4.765625 20.3955068,4.765625 C21.8863996,4.765625 23.050125,5.22460479 23.8867177,6.14257812 C24.7233104,7.06055146 25.1416005,8.3333252 25.1416005,9.9609375 C25.1416005,11.5559976 24.6907587,12.8336541 23.7890615,13.7939453 C22.8873642,14.7542366 21.6780664,15.234375 20.1611318,15.234375 Z M20.2783193,6.11328125 C19.2496683,6.11328125 18.4358743,6.46321265 17.836913,7.16308594 C17.2379517,7.86295923 16.9384755,8.82811885 16.9384755,10.0585938 C16.9384755,11.2434955 17.2412069,12.177731 17.8466786,12.8613281 C18.4521504,13.5449253 19.2626892,13.8867188 20.2783193,13.8867188 C21.3134807,13.8867188 22.1093712,13.5514356 22.6660146,12.8808594 C23.222658,12.2102831 23.5009755,11.2565166 23.5009755,10.0195312 C23.5009755,8.769525 23.222658,7.80599297 22.6660146,7.12890625 C22.1093712,6.45181953 21.3134807,6.11328125 20.2783193,6.11328125 Z M40.9951163,14.5410156 C40.2268833,15.0032575 39.315434,15.234375 38.2607413,15.234375 C36.8349529,15.234375 35.6842482,14.7705125 34.8085928,13.8427734 C33.9329374,12.9150344 33.4951163,11.712247 33.4951163,10.234375 C33.4951163,8.58723135 33.9671168,7.26400239 34.9111319,6.26464844 C35.855147,5.26529448 37.1149001,4.765625 38.6904288,4.765625 C39.5693394,4.765625 40.3440712,4.92838379 41.0146475,5.25390625 L41.0146475,6.89453125 C40.2724563,6.37369531 39.4781934,6.11328125 38.631835,6.11328125 C37.6096945,6.11328125 36.7714867,6.47948853 36.1171866,7.21191406 C35.4628864,7.9443396 35.1357413,8.90624404 35.1357413,10.0976562 C35.1357413,11.2695371 35.4433554,12.194007 36.0585928,12.8710938 C36.6738303,13.5481805 37.4990173,13.8867188 38.5341788,13.8867188 C39.406579,13.8867188 40.2268833,13.5970081 40.9951163,13.0175781 L40.9951163,14.5410156 Z M52.2177726,15 L50.6162101,15 L50.6162101,9.23828125 C50.6162101,7.1549375 49.8414782,6.11328125 48.2919913,6.11328125 C47.5107374,6.11328125 46.8531919,6.41438501 46.3193351,7.01660156 C45.7854782,7.61881812 45.5185538,8.39192236 45.5185538,9.3359375 L45.5185538,15 L43.9169913,15 L43.9169913,0.1953125 L45.5185538,0.1953125 L45.5185538,6.66015625 L45.5576163,6.66015625 C46.3258493,5.3971291 47.4195884,4.765625 48.8388663,4.765625 C51.0914818,4.765625 52.2177726,6.1230333 52.2177726,8.83789062 L52.2177726,15 Z M62.8935539,15 L61.2919914,15 L61.2919914,13.4375 L61.2529289,13.4375 C60.5563108,14.6354227 59.5309304,15.234375 58.176757,15.234375 C57.1806583,15.234375 56.4010437,14.9707058 55.8378898,14.4433594 C55.274736,13.916013 54.9931633,13.2161502 54.9931633,12.34375 C54.9931633,10.4752511 56.0934127,9.38802236 58.2939445,9.08203125 L61.2919914,8.66210938 C61.2919914,6.96288213 60.6051493,6.11328125 59.2314445,6.11328125 C58.0270114,6.11328125 56.9397827,6.5234334 55.9697258,7.34375 L55.9697258,5.703125 C56.9528036,5.07812188 58.0856048,4.765625 59.3681633,4.765625 C61.7184354,4.765625 62.8935539,6.00910215 62.8935539,8.49609375 L62.8935539,15 Z M61.2919914,9.94140625 L58.879882,10.2734375 C58.1376908,10.3776047 57.5778006,10.5615221 57.2001945,10.8251953 C56.8225885,11.0888685 56.6337883,11.5559862 56.6337883,12.2265625 C56.6337883,12.7148462 56.8079402,13.1136052 57.1562492,13.4228516 C57.5045582,13.7320979 57.9684208,13.8867188 58.5478508,13.8867188 C59.3421256,13.8867188 59.9980435,13.6084012 60.5156242,13.0517578 C61.0332049,12.4951144 61.2919914,11.7903688 61.2919914,10.9375 L61.2919914,9.94140625 Z M74.7119133,15 L73.1103508,15 L73.1103508,9.296875 C73.1103508,7.17446855 72.335619,6.11328125 70.7861321,6.11328125 C69.9853468,6.11328125 69.3229185,6.41438501 68.7988274,7.01660156 C68.2747362,7.61881812 68.0126946,8.37890166 68.0126946,9.296875 L68.0126946,15 L66.4111321,15 L66.4111321,5 L68.0126946,5 L68.0126946,6.66015625 L68.0517571,6.66015625 C68.8069692,5.3971291 69.9007082,4.765625 71.3330071,4.765625 C72.4267625,4.765625 73.2633427,5.11881157 73.8427727,5.82519531 C74.4222027,6.53157905 74.7119133,7.55207666 74.7119133,8.88671875 L74.7119133,15 Z M86.7646478,14.1992188 C86.7646478,17.8711121 85.0068528,19.7070312 81.4912103,19.7070312 C80.2542249,19.7070312 79.1735065,19.4726586 78.2490228,19.0039062 L78.2490228,17.4023438 C79.3753305,18.0273469 80.4495385,18.3398438 81.471679,18.3398438 C83.9326288,18.3398438 85.1630853,17.0312631 85.1630853,14.4140625 L85.1630853,13.3203125 L85.1240228,13.3203125 C84.3623002,14.5963605 83.2164783,15.234375 81.6865228,15.234375 C80.443027,15.234375 79.4420604,14.7900435 78.6835931,13.9013672 C77.9251257,13.0126909 77.5458978,11.8196689 77.5458978,10.3222656 C77.5458978,8.62303838 77.9544223,7.27214043 78.7714837,6.26953125 C79.5885451,5.26692207 80.7066979,4.765625 82.1259759,4.765625 C83.4736389,4.765625 84.4729778,5.30598418 85.1240228,6.38671875 L85.1630853,6.38671875 L85.1630853,5 L86.7646478,5 L86.7646478,14.1992188 Z M85.1630853,10.4785156 L85.1630853,9.00390625 C85.1630853,8.20963145 84.8945333,7.52929971 84.3574212,6.96289062 C83.8203091,6.39648154 83.1513705,6.11328125 82.3505853,6.11328125 C81.360997,6.11328125 80.5862651,6.47297817 80.0263665,7.19238281 C79.4664679,7.91178745 79.1865228,8.91926436 79.1865228,10.2148438 C79.1865228,11.3281306 79.4550748,12.2184211 79.9921868,12.8857422 C80.5292989,13.5530632 81.2405548,13.8867188 82.1259759,13.8867188 C83.0244179,13.8867188 83.7552048,13.5677115 84.3183587,12.9296875 C84.8815125,12.2916635 85.1630853,11.4746144 85.1630853,10.4785156 Z M98.5439447,10.4003906 L91.4833978,10.4003906 C91.5094396,11.5136774 91.8089158,12.3730438 92.3818353,12.9785156 C92.9547548,13.5839874 93.7425074,13.8867188 94.7451166,13.8867188 C95.8714243,13.8867188 96.9065702,13.5156287 97.8505853,12.7734375 L97.8505853,14.2773438 C96.9716747,14.9153678 95.8095769,15.234375 94.3642572,15.234375 C92.9514897,15.234375 91.8414748,14.780278 91.0341791,13.8720703 C90.2268834,12.9638626 89.8232416,11.6862062 89.8232416,10.0390625 C89.8232416,8.48306514 90.2643179,7.21517417 91.1464837,6.23535156 C92.0286496,5.25552896 93.1240163,4.765625 94.4326166,4.765625 C95.7412169,4.765625 96.7535765,5.18879785 97.4697259,6.03515625 C98.1858754,6.88151465 98.5439447,8.05663311 98.5439447,9.56054688 L98.5439447,10.4003906 Z M96.9033197,9.04296875 C96.8968092,8.11848496 96.6738297,7.39909111 96.2343744,6.88476562 C95.7949191,6.37044014 95.1845736,6.11328125 94.4033197,6.11328125 C93.6481076,6.11328125 93.0068379,6.38346084 92.4794916,6.92382812 C91.9521452,7.46419541 91.6266276,8.17056855 91.5029291,9.04296875 L96.9033197,9.04296875 Z M100.860351,14.6386719 L100.860351,12.9199219 C101.732751,13.5644563 102.693028,13.8867188 103.74121,13.8867188 C105.147467,13.8867188 105.850585,13.4179734 105.850585,12.4804688 C105.850585,12.2135403 105.790365,11.9873056 105.669921,11.8017578 C105.549478,11.61621 105.386719,11.4518236 105.18164,11.3085938 C104.976561,11.1653639 104.735678,11.0367844 104.458984,10.9228516 C104.18229,10.8089187 103.884441,10.6901048 103.565429,10.5664062 C103.122719,10.3906241 102.733725,10.213217 102.398437,10.0341797 C102.063149,9.85514233 101.783204,9.65332144 101.558593,9.42871094 C101.333983,9.20410044 101.164714,8.94856914 101.050781,8.66210938 C100.936848,8.37564961 100.879882,8.0403665 100.879882,7.65625 C100.879882,7.18749766 100.987303,6.77246274 101.202148,6.41113281 C101.416993,6.04980288 101.703448,5.74707153 102.061523,5.50292969 C102.419598,5.25878784 102.828122,5.07487041 103.287109,4.95117188 C103.746095,4.82747334 104.219724,4.765625 104.708007,4.765625 C105.573897,4.765625 106.348629,4.91536309 107.032226,5.21484375 L107.032226,6.8359375 C106.296545,6.35416426 105.4502,6.11328125 104.493163,6.11328125 C104.193683,6.11328125 103.923503,6.1474606 103.682617,6.21582031 C103.44173,6.28418003 103.235026,6.38020771 103.062499,6.50390625 C102.889973,6.62760479 102.75651,6.77571528 102.662109,6.94824219 C102.567707,7.12076909 102.520507,7.31119688 102.520507,7.51953125 C102.520507,7.77994922 102.567707,7.998046 102.662109,8.17382812 C102.75651,8.34961025 102.894855,8.50585869 103.077148,8.64257812 C103.25944,8.77929756 103.480792,8.90299424 103.74121,9.01367188 C104.001628,9.12434951 104.297849,9.24479102 104.629882,9.375 C105.072593,9.54427168 105.469724,9.71842358 105.821288,9.89746094 C106.172853,10.0764983 106.472329,10.2783192 106.719726,10.5029297 C106.967123,10.7275402 107.157551,10.9863267 107.291015,11.2792969 C107.424479,11.5722671 107.49121,11.9205709 107.49121,12.3242188 C107.49121,12.8190129 107.382162,13.2486961 107.164062,13.6132812 C106.945962,13.9778664 106.654624,14.2805978 106.290038,14.5214844 C105.925453,14.762371 105.505536,14.9414057 105.030273,15.0585938 C104.55501,15.1757818 104.056968,15.234375 103.536132,15.234375 C102.507481,15.234375 101.615563,15.0358093 100.860351,14.6386719 Z M124.96582,15 L123.364257,15 L123.364257,13.3007813 L123.325195,13.3007813 C122.583004,14.5898502 121.437182,15.234375 119.887695,15.234375 C118.631178,15.234375 117.626956,14.7867883 116.875,13.8916016 C116.123043,12.9964148 115.74707,11.7773515 115.74707,10.234375 C115.74707,8.5807209 116.163732,7.25586436 116.99707,6.25976563 C117.830407,5.26366689 118.940422,4.765625 120.327148,4.765625 C121.700853,4.765625 122.700192,5.30598418 123.325195,6.38671875 L123.364257,6.38671875 L123.364257,0.1953125 L124.96582,0.1953125 L124.96582,15 Z M123.364257,10.4785156 L123.364257,9.00390625 C123.364257,8.19661055 123.097333,7.51302363 122.563476,6.953125 C122.029619,6.39322637 121.352543,6.11328125 120.532226,6.11328125 C119.555659,6.11328125 118.787437,6.47135059 118.227539,7.1875 C117.66764,7.90364941 117.387695,8.89322285 117.387695,10.15625 C117.387695,11.3085995 117.656247,12.2184211 118.193359,12.8857422 C118.730471,13.5530632 119.451492,13.8867188 120.356445,13.8867188 C121.248376,13.8867188 121.972653,13.5644563 122.529296,12.9199219 C123.08594,12.2753874 123.364257,11.4615935 123.364257,10.4785156 Z M136.745117,10.4003906 L129.68457,10.4003906 C129.710612,11.5136774 130.010088,12.3730438 130.583007,12.9785156 C131.155927,13.5839874 131.943679,13.8867188 132.946289,13.8867188 C134.072596,13.8867188 135.107742,13.5156287 136.051757,12.7734375 L136.051757,14.2773438 C135.172847,14.9153678 134.010749,15.234375 132.565429,15.234375 C131.152662,15.234375 130.042647,14.780278 129.235351,13.8720703 C128.428055,12.9638626 128.024414,11.6862062 128.024414,10.0390625 C128.024414,8.48306514 128.46549,7.21517417 129.347656,6.23535156 C130.229822,5.25552896 131.325188,4.765625 132.633789,4.765625 C133.942389,4.765625 134.954749,5.18879785 135.670898,6.03515625 C136.387047,6.88151465 136.745117,8.05663311 136.745117,9.56054688 L136.745117,10.4003906 Z M135.104492,9.04296875 C135.097981,8.11848496 134.875002,7.39909111 134.435546,6.88476562 C133.996091,6.37044014 133.385746,6.11328125 132.604492,6.11328125 C131.84928,6.11328125 131.20801,6.38346084 130.680664,6.92382812 C130.153317,7.46419541 129.8278,8.17056855 129.704101,9.04296875 L135.104492,9.04296875 Z M144.305664,14.9023438 C143.928058,15.1106781 143.430016,15.2148438 142.811523,15.2148438 C141.060212,15.2148438 140.18457,14.238291 140.18457,12.2851562 L140.18457,6.3671875 L138.46582,6.3671875 L138.46582,5 L140.18457,5 L140.18457,2.55859375 L141.786132,2.04101562 L141.786132,5 L144.305664,5 L144.305664,6.3671875 L141.786132,6.3671875 L141.786132,12.0019531 C141.786132,12.6725294 141.900064,13.1510402 142.127929,13.4375 C142.355795,13.7239598 142.733395,13.8671875 143.260742,13.8671875 C143.66439,13.8671875 144.012694,13.7565115 144.305664,13.5351562 L144.305664,14.9023438 Z M154.825195,10.4003906 L147.764648,10.4003906 C147.79069,11.5136774 148.090166,12.3730438 148.663086,12.9785156 C149.236005,13.5839874 150.023758,13.8867188 151.026367,13.8867188 C152.152675,13.8867188 153.187821,13.5156287 154.131836,12.7734375 L154.131836,14.2773438 C153.252925,14.9153678 152.090827,15.234375 150.645508,15.234375 C149.23274,15.234375 148.122725,14.780278 147.315429,13.8720703 C146.508134,12.9638626 146.104492,11.6862062 146.104492,10.0390625 C146.104492,8.48306514 146.545568,7.21517417 147.427734,6.23535156 C148.3099,5.25552896 149.405267,4.765625 150.713867,4.765625 C152.022467,4.765625 153.034827,5.18879785 153.750976,6.03515625 C154.467126,6.88151465 154.825195,8.05663311 154.825195,9.56054688 L154.825195,10.4003906 Z M153.18457,9.04296875 C153.17806,8.11848496 152.95508,7.39909111 152.515625,6.88476562 C152.076169,6.37044014 151.465824,6.11328125 150.68457,6.11328125 C149.929358,6.11328125 149.288088,6.38346084 148.760742,6.92382812 C148.233396,7.46419541 147.907878,8.17056855 147.784179,9.04296875 L153.18457,9.04296875 Z M164.563476,14.5410156 C163.795243,15.0032575 162.883794,15.234375 161.829101,15.234375 C160.403313,15.234375 159.252608,14.7705125 158.376953,13.8427734 C157.501297,12.9150344 157.063476,11.712247 157.063476,10.234375 C157.063476,8.58723135 157.535477,7.26400239 158.479492,6.26464844 C159.423507,5.26529448 160.68326,4.765625 162.258789,4.765625 C163.137699,4.765625 163.912431,4.92838379 164.583008,5.25390625 L164.583008,6.89453125 C163.840816,6.37369531 163.046554,6.11328125 162.200195,6.11328125 C161.178055,6.11328125 160.339847,6.47948853 159.685547,7.21191406 C159.031247,7.9443396 158.704101,8.90624404 158.704101,10.0976562 C158.704101,11.2695371 159.011715,12.194007 159.626953,12.8710938 C160.24219,13.5481805 161.067377,13.8867188 162.102539,13.8867188 C162.974939,13.8867188 163.795243,13.5970081 164.563476,13.0175781 L164.563476,14.5410156 Z M172.124023,14.9023438 C171.746417,15.1106781 171.248375,15.2148438 170.629883,15.2148438 C168.878572,15.2148438 168.00293,14.238291 168.00293,12.2851562 L168.00293,6.3671875 L166.28418,6.3671875 L166.28418,5 L168.00293,5 L168.00293,2.55859375 L169.604492,2.04101562 L169.604492,5 L172.124023,5 L172.124023,6.3671875 L169.604492,6.3671875 L169.604492,12.0019531 C169.604492,12.6725294 169.718423,13.1510402 169.946289,13.4375 C170.174155,13.7239598 170.551755,13.8671875 171.079101,13.8671875 C171.482749,13.8671875 171.831053,13.7565115 172.124023,13.5351562 L172.124023,14.9023438 Z M182.643555,10.4003906 L175.583008,10.4003906 C175.60905,11.5136774 175.908526,12.3730438 176.481445,12.9785156 C177.054365,13.5839874 177.842117,13.8867188 178.844726,13.8867188 C179.971034,13.8867188 181.00618,13.5156287 181.950195,12.7734375 L181.950195,14.2773438 C181.071285,14.9153678 179.909187,15.234375 178.463867,15.234375 C177.0511,15.234375 175.941085,14.780278 175.133789,13.8720703 C174.326493,12.9638626 173.922851,11.6862062 173.922851,10.0390625 C173.922851,8.48306514 174.363928,7.21517417 175.246094,6.23535156 C176.12826,5.25552896 177.223626,4.765625 178.532226,4.765625 C179.840827,4.765625 180.853186,5.18879785 181.569336,6.03515625 C182.285485,6.88151465 182.643555,8.05663311 182.643555,9.56054688 L182.643555,10.4003906 Z M181.00293,9.04296875 C180.996419,8.11848496 180.77344,7.39909111 180.333984,6.88476562 C179.894529,6.37044014 179.284184,6.11328125 178.50293,6.11328125 C177.747717,6.11328125 177.106448,6.38346084 176.579101,6.92382812 C176.051755,7.46419541 175.726238,8.17056855 175.602539,9.04296875 L181.00293,9.04296875 Z M194.100586,15 L192.499023,15 L192.499023,13.3007813 L192.459961,13.3007813 C191.71777,14.5898502 190.571948,15.234375 189.022461,15.234375 C187.765944,15.234375 186.761722,14.7867883 186.009766,13.8916016 C185.257809,12.9964148 184.881836,11.7773515 184.881836,10.234375 C184.881836,8.5807209 185.298498,7.25586436 186.131836,6.25976563 C186.965173,5.26366689 188.075188,4.765625 189.461914,4.765625 C190.835619,4.765625 191.834958,5.30598418 192.459961,6.38671875 L192.499023,6.38671875 L192.499023,0.1953125 L194.100586,0.1953125 L194.100586,15 Z M192.499023,10.4785156 L192.499023,9.00390625 C192.499023,8.19661055 192.232099,7.51302363 191.698242,6.953125 C191.164385,6.39322637 190.487309,6.11328125 189.666992,6.11328125 C188.690425,6.11328125 187.922203,6.47135059 187.362305,7.1875 C186.802406,7.90364941 186.522461,8.89322285 186.522461,10.15625 C186.522461,11.3085995 186.791013,12.2184211 187.328125,12.8857422 C187.865237,13.5530632 188.586258,13.8867188 189.491211,13.8867188 C190.383142,13.8867188 191.107419,13.5644563 191.664062,12.9199219 C192.220706,12.2753874 192.499023,11.4615935 192.499023,10.4785156 Z M204.641602,2.4609375 C204.355142,2.4609375 204.111004,2.36328223 203.90918,2.16796875 C203.707356,1.97265527 203.606445,1.72526191 203.606445,1.42578125 C203.606445,1.12630059 203.707356,0.877279639 203.90918,0.678710938 C204.111004,0.480142236 204.355142,0.380859375 204.641602,0.380859375 C204.934572,0.380859375 205.183593,0.480142236 205.388672,0.678710938 C205.593751,0.877279639 205.696289,1.12630059 205.696289,1.42578125 C205.696289,1.71224102 205.593751,1.9563792 205.388672,2.15820312 C205.183593,2.36002705 204.934572,2.4609375 204.641602,2.4609375 Z M205.422852,15 L203.821289,15 L203.821289,5 L205.422852,5 L205.422852,15 Z M217.46582,15 L215.864258,15 L215.864258,9.296875 C215.864258,7.17446855 215.089526,6.11328125 213.540039,6.11328125 C212.739254,6.11328125 212.076826,6.41438501 211.552735,7.01660156 C211.028643,7.61881812 210.766602,8.37890166 210.766602,9.296875 L210.766602,15 L209.165039,15 L209.165039,5 L210.766602,5 L210.766602,6.66015625 L210.805664,6.66015625 C211.560876,5.3971291 212.654615,4.765625 214.086914,4.765625 C215.18067,4.765625 216.01725,5.11881157 216.59668,5.82519531 C217.17611,6.53157905 217.46582,7.55207666 217.46582,8.88671875 L217.46582,15 Z M231.600586,14.9023438 C231.22298,15.1106781 230.724938,15.2148438 230.106446,15.2148438 C228.355135,15.2148438 227.479492,14.238291 227.479492,12.2851562 L227.479492,6.3671875 L225.760742,6.3671875 L225.760742,5 L227.479492,5 L227.479492,2.55859375 L229.081055,2.04101562 L229.081055,5 L231.600586,5 L231.600586,6.3671875 L229.081055,6.3671875 L229.081055,12.0019531 C229.081055,12.6725294 229.194986,13.1510402 229.422852,13.4375 C229.650718,13.7239598 230.028318,13.8671875 230.555664,13.8671875 C230.959312,13.8671875 231.307616,13.7565115 231.600586,13.5351562 L231.600586,14.9023438 Z M242.540039,15 L240.938477,15 L240.938477,9.23828125 C240.938477,7.1549375 240.163745,6.11328125 238.614258,6.11328125 C237.833004,6.11328125 237.175459,6.41438501 236.641602,7.01660156 C236.107745,7.61881812 235.840821,8.39192236 235.840821,9.3359375 L235.840821,15 L234.239258,15 L234.239258,0.1953125 L235.840821,0.1953125 L235.840821,6.66015625 L235.879883,6.66015625 C236.648116,5.3971291 237.741855,4.765625 239.161133,4.765625 C241.413749,4.765625 242.540039,6.1230333 242.540039,8.83789062 L242.540039,15 Z M254.094727,10.4003906 L247.03418,10.4003906 C247.060222,11.5136774 247.359698,12.3730438 247.932618,12.9785156 C248.505537,13.5839874 249.29329,13.8867188 250.295899,13.8867188 C251.422207,13.8867188 252.457352,13.5156287 253.401368,12.7734375 L253.401368,14.2773438 C252.522457,14.9153678 251.360359,15.234375 249.915039,15.234375 C248.502272,15.234375 247.392257,14.780278 246.584961,13.8720703 C245.777666,12.9638626 245.374024,11.6862062 245.374024,10.0390625 C245.374024,8.48306514 245.8151,7.21517417 246.697266,6.23535156 C247.579432,5.25552896 248.674799,4.765625 249.983399,4.765625 C251.291999,4.765625 252.304359,5.18879785 253.020508,6.03515625 C253.736658,6.88151465 254.094727,8.05663311 254.094727,9.56054688 L254.094727,10.4003906 Z M252.454102,9.04296875 C252.447592,8.11848496 252.224612,7.39909111 251.785157,6.88476562 C251.345701,6.37044014 250.735356,6.11328125 249.954102,6.11328125 C249.19889,6.11328125 248.55762,6.38346084 248.030274,6.92382812 C247.502927,7.46419541 247.17741,8.17056855 247.053711,9.04296875 L252.454102,9.04296875 Z M268.209961,6.62109375 C267.930012,6.40624893 267.52637,6.29882812 266.999024,6.29882812 C266.315427,6.29882812 265.744143,6.62109053 265.285157,7.265625 C264.82617,7.91015947 264.59668,8.78905693 264.59668,9.90234375 L264.59668,15 L262.995118,15 L262.995118,5 L264.59668,5 L264.59668,7.06054688 L264.635743,7.06054688 C264.863608,6.35741836 265.211912,5.80892124 265.680665,5.41503906 C266.149417,5.02115688 266.6735,4.82421875 267.25293,4.82421875 C267.669599,4.82421875 267.988606,4.86979121 268.209961,4.9609375 L268.209961,6.62109375 Z M278.22168,10.4003906 L271.161133,10.4003906 C271.187175,11.5136774 271.486651,12.3730438 272.059571,12.9785156 C272.63249,13.5839874 273.420243,13.8867188 274.422852,13.8867188 C275.54916,13.8867188 276.584306,13.5156287 277.528321,12.7734375 L277.528321,14.2773438 C276.64941,14.9153678 275.487312,15.234375 274.041993,15.234375 C272.629225,15.234375 271.51921,14.780278 270.711915,13.8720703 C269.904619,12.9638626 269.500977,11.6862062 269.500977,10.0390625 C269.500977,8.48306514 269.942053,7.21517417 270.824219,6.23535156 C271.706385,5.25552896 272.801752,4.765625 274.110352,4.765625 C275.418952,4.765625 276.431312,5.18879785 277.147462,6.03515625 C277.863611,6.88151465 278.22168,8.05663311 278.22168,9.56054688 L278.22168,10.4003906 Z M276.581055,9.04296875 C276.574545,8.11848496 276.351565,7.39909111 275.91211,6.88476562 C275.472655,6.37044014 274.862309,6.11328125 274.081055,6.11328125 C273.325843,6.11328125 272.684574,6.38346084 272.157227,6.92382812 C271.629881,7.46419541 271.304363,8.17056855 271.180665,9.04296875 L276.581055,9.04296875 Z M282.78418,13.5546875 L282.745118,13.5546875 L282.745118,19.5996094 L281.143555,19.5996094 L281.143555,5 L282.745118,5 L282.745118,6.7578125 L282.78418,6.7578125 C283.571945,5.42968086 284.724277,4.765625 286.241212,4.765625 C287.530281,4.765625 288.53613,5.21321167 289.25879,6.10839844 C289.98145,7.00358521 290.342774,8.20311748 290.342774,9.70703125 C290.342774,11.3802167 289.935877,12.7197215 289.122071,13.7255859 C288.308265,14.7314503 287.194995,15.234375 285.782227,15.234375 C284.486648,15.234375 283.487309,14.6744848 282.78418,13.5546875 Z M282.745118,9.52148438 L282.745118,10.9179688 C282.745118,11.7447958 283.01367,12.4462862 283.550782,13.0224609 C284.087894,13.5986357 284.769853,13.8867188 285.59668,13.8867188 C286.566737,13.8867188 287.326821,13.5156287 287.876954,12.7734375 C288.427087,12.0312463 288.702149,10.9993556 288.702149,9.67773438 C288.702149,8.56444756 288.44499,7.69206045 287.930665,7.06054688 C287.416339,6.4290333 286.719732,6.11328125 285.840821,6.11328125 C284.909827,6.11328125 284.161136,6.43717124 283.594727,7.08496094 C283.028318,7.73275063 282.745118,8.54491699 282.745118,9.52148438 Z M297.581055,15.234375 C296.103183,15.234375 294.923182,14.7672573 294.041016,13.8330078 C293.15885,12.8987583 292.717774,11.660164 292.717774,10.1171875 C292.717774,8.4374916 293.176754,7.12565576 294.094727,6.18164062 C295.012701,5.23762549 296.252923,4.765625 297.81543,4.765625 C299.306323,4.765625 300.470049,5.22460479 301.306641,6.14257812 C302.143234,7.06055146 302.561524,8.3333252 302.561524,9.9609375 C302.561524,11.5559976 302.110682,12.8336541 301.208985,13.7939453 C300.307288,14.7542366 299.09799,15.234375 297.581055,15.234375 Z M297.698243,6.11328125 C296.669592,6.11328125 295.855798,6.46321265 295.256837,7.16308594 C294.657875,7.86295923 294.358399,8.82811885 294.358399,10.0585938 C294.358399,11.2434955 294.66113,12.177731 295.266602,12.8613281 C295.872074,13.5449253 296.682613,13.8867188 297.698243,13.8867188 C298.733404,13.8867188 299.529295,13.5514356 300.085938,12.8808594 C300.642582,12.2102831 300.920899,11.2565166 300.920899,10.0195312 C300.920899,8.769525 300.642582,7.80599297 300.085938,7.12890625 C299.529295,6.45181953 298.733404,6.11328125 297.698243,6.11328125 Z M305.014649,14.6386719 L305.014649,12.9199219 C305.887049,13.5644563 306.847326,13.8867188 307.895509,13.8867188 C309.301766,13.8867188 310.004884,13.4179734 310.004884,12.4804688 C310.004884,12.2135403 309.944663,11.9873056 309.824219,11.8017578 C309.703776,11.61621 309.541017,11.4518236 309.335938,11.3085938 C309.130859,11.1653639 308.889976,11.0367844 308.613282,10.9228516 C308.336588,10.8089187 308.038739,10.6901048 307.719727,10.5664062 C307.277017,10.3906241 306.888023,10.213217 306.552735,10.0341797 C306.217447,9.85514233 305.937502,9.65332144 305.712891,9.42871094 C305.488281,9.20410044 305.319012,8.94856914 305.205079,8.66210938 C305.091146,8.37564961 305.03418,8.0403665 305.03418,7.65625 C305.03418,7.18749766 305.141601,6.77246274 305.356446,6.41113281 C305.571291,6.04980288 305.857746,5.74707153 306.215821,5.50292969 C306.573896,5.25878784 306.98242,5.07487041 307.441407,4.95117188 C307.900394,4.82747334 308.374022,4.765625 308.862305,4.765625 C309.728195,4.765625 310.502927,4.91536309 311.186524,5.21484375 L311.186524,6.8359375 C310.450843,6.35416426 309.604498,6.11328125 308.647462,6.11328125 C308.347981,6.11328125 308.077801,6.1474606 307.836915,6.21582031 C307.596028,6.28418003 307.389325,6.38020771 307.216798,6.50390625 C307.044271,6.62760479 306.910809,6.77571528 306.816407,6.94824219 C306.722005,7.12076909 306.674805,7.31119688 306.674805,7.51953125 C306.674805,7.77994922 306.722005,7.998046 306.816407,8.17382812 C306.910809,8.34961025 307.049153,8.50585869 307.231446,8.64257812 C307.413739,8.77929756 307.635091,8.90299424 307.895509,9.01367188 C308.155927,9.12434951 308.452148,9.24479102 308.78418,9.375 C309.226891,9.54427168 309.624022,9.71842358 309.975587,9.89746094 C310.327151,10.0764983 310.626627,10.2783192 310.874024,10.5029297 C311.121421,10.7275402 311.311849,10.9863267 311.445313,11.2792969 C311.578777,11.5722671 311.645509,11.9205709 311.645509,12.3242188 C311.645509,12.8190129 311.53646,13.2486961 311.31836,13.6132812 C311.10026,13.9778664 310.808922,14.2805978 310.444337,14.5214844 C310.079752,14.762371 309.659834,14.9414057 309.184571,15.0585938 C308.709308,15.1757818 308.211266,15.234375 307.69043,15.234375 C306.661779,15.234375 305.769861,15.0358093 305.014649,14.6386719 Z M315.426759,2.4609375 C315.140299,2.4609375 314.896161,2.36328223 314.694337,2.16796875 C314.492513,1.97265527 314.391602,1.72526191 314.391602,1.42578125 C314.391602,1.12630059 314.492513,0.877279639 314.694337,0.678710938 C314.896161,0.480142236 315.140299,0.380859375 315.426759,0.380859375 C315.719729,0.380859375 315.96875,0.480142236 316.173829,0.678710938 C316.378908,0.877279639 316.481446,1.12630059 316.481446,1.42578125 C316.481446,1.71224102 316.378908,1.9563792 316.173829,2.15820312 C315.96875,2.36002705 315.719729,2.4609375 315.426759,2.4609375 Z M316.208009,15 L314.606446,15 L314.606446,5 L316.208009,5 L316.208009,15 Z M324.588868,14.9023438 C324.211262,15.1106781 323.71322,15.2148438 323.094727,15.2148438 C321.343417,15.2148438 320.467774,14.238291 320.467774,12.2851562 L320.467774,6.3671875 L318.749024,6.3671875 L318.749024,5 L320.467774,5 L320.467774,2.55859375 L322.069337,2.04101562 L322.069337,5 L324.588868,5 L324.588868,6.3671875 L322.069337,6.3671875 L322.069337,12.0019531 C322.069337,12.6725294 322.183268,13.1510402 322.411134,13.4375 C322.638999,13.7239598 323.0166,13.8671875 323.543946,13.8671875 C323.947594,13.8671875 324.295898,13.7565115 324.588868,13.5351562 L324.588868,14.9023438 Z M331.250977,15.234375 C329.773106,15.234375 328.593104,14.7672573 327.710938,13.8330078 C326.828773,12.8987583 326.387696,11.660164 326.387696,10.1171875 C326.387696,8.4374916 326.846676,7.12565576 327.764649,6.18164062 C328.682623,5.23762549 329.922845,4.765625 331.485352,4.765625 C332.976245,4.765625 334.139971,5.22460479 334.976563,6.14257812 C335.813156,7.06055146 336.231446,8.3333252 336.231446,9.9609375 C336.231446,11.5559976 335.780604,12.8336541 334.878907,13.7939453 C333.97721,14.7542366 332.767912,15.234375 331.250977,15.234375 Z M331.368165,6.11328125 C330.339514,6.11328125 329.52572,6.46321265 328.926759,7.16308594 C328.327797,7.86295923 328.028321,8.82811885 328.028321,10.0585938 C328.028321,11.2434955 328.331053,12.177731 328.936524,12.8613281 C329.541996,13.5449253 330.352535,13.8867188 331.368165,13.8867188 C332.403326,13.8867188 333.199217,13.5514356 333.75586,12.8808594 C334.312504,12.2102831 334.590821,11.2565166 334.590821,10.0195312 C334.590821,8.769525 334.312504,7.80599297 333.75586,7.12890625 C333.199217,6.45181953 332.403326,6.11328125 331.368165,6.11328125 Z M344.504884,6.62109375 C344.224934,6.40624893 343.821293,6.29882812 343.293946,6.29882812 C342.610349,6.29882812 342.039066,6.62109053 341.580079,7.265625 C341.121092,7.91015947 340.891603,8.78905693 340.891603,9.90234375 L340.891603,15 L339.29004,15 L339.29004,5 L340.891603,5 L340.891603,7.06054688 L340.930665,7.06054688 C341.158531,6.35741836 341.506835,5.80892124 341.975587,5.41503906 C342.444339,5.02115688 342.968423,4.82421875 343.547853,4.82421875 C343.964521,4.82421875 344.283529,4.86979121 344.504884,4.9609375 L344.504884,6.62109375 Z M355.502931,5 L350.903321,16.6015625 C350.083005,18.6718854 348.930673,19.7070312 347.44629,19.7070312 C347.029621,19.7070312 346.681318,19.664714 346.401368,19.5800781 L346.401368,18.1445312 C346.746422,18.2617193 347.062174,18.3203125 347.348634,18.3203125 C348.15593,18.3203125 348.761392,17.8385465 349.16504,16.875 L349.965821,14.9804688 L346.059571,5 L347.836915,5 L350.541993,12.6953125 C350.574545,12.7929692 350.642904,13.0468729 350.747071,13.4570312 L350.805665,13.4570312 C350.838217,13.3007805 350.903321,13.0533871 351.000978,12.7148438 L353.842774,5 L355.502931,5 Z" transform="translate(43 139)" opacity=".8"/>
    <g transform="translate(147 1)">
      <path fill="#EEF6FD" d="M8.5717401,41.5416416 C8.5717401,41.5416416 19.5924916,71.6726222 20.4785079,76.9196282 C21.3645242,82.1666342 25.8895083,94.3698924 26.7529658,94.5166536 C27.6164233,94.6634149 68.3918427,27.6876095 68.3918427,27.6876095 C68.3918427,27.6876095 83.52413,22.2233658 83.671929,21.1433732 C83.819728,20.0633806 82.008412,0.0926173795 82.008412,0.0926173795 C82.008412,0.0926173795 68.8659665,3.25282522 65.02747,5.99753214 C61.1889736,8.74223905 26.0268058,27.7061967 26.0268058,27.7061967 L8.5717401,41.5416416 Z"/>
      <path fill="#DFEDFB" d="M22.8961591,68.4798555 C17.4449639,69.6561502 16.5604622,69.5784182 10.0050247,74.0625707 C-16.5159922,92.20389 16.1103153,107.695093 33.7836793,111.643987 C55.3693818,116.467045 81.3145462,118.802507 102.510137,110.471002 C110.722035,107.243091 126.067441,100.727521 127.633223,90.1272487 C127.634815,90.1164702 128.286519,83.081442 126.763194,81.7584021 C121.840786,77.4831856 116.682428,73.4365562 111.183197,69.9385387 C109.433689,68.8256909 107.228873,68.6962578 105.251711,68.0751174" opacity=".5"/>
      <polygon fill="#FFFFFF" points="112.812 7.189 67.242 27.523 67.611 19.094 65.589 18.481 40.713 30.562 30.061 66.988 27.946 94.716 75.192 75.359 104.773 46.599"/>
      <path fill="#DCE6EF" d="M106.277658,39.5162172 L100.149992,42.9527192 C100.149992,42.9527192 87.6653044,29.5616656 85.6269881,30.8747711 C83.5886717,32.1878766 79.4171174,49.9378618 78.4688098,52.4003868 C77.5205022,54.8629119 54.0112844,68.4221733 54.5585596,70.3439014 C55.1058349,72.2656295 67.6640981,78.8433657 67.6640981,78.8433657 L79.1623279,74.1498274 L104.766179,49.4088214 L106.277658,39.5162172 Z"/>
      <path stroke="#81BFF1" stroke-width="1.637" d="M8.34269278 41.9390267C10.835043 49.6100302 12.6206188 56.7931648 16.4229148 68.702631 20.2252108 80.6120973 24.0976608 88.0264047 26.3256666 94.5941159M27.3739316 95.2519806C30.7712262 58.0740982 27.6693623 78.0197777 38.0705128 35.6458333" stroke-linecap="round" stroke-linejoin="round"/>
      <path stroke="#81BFF1" stroke-width="1.637" d="M37.5953158 36.4857427C41.1322375 29.4788497 39.0870664 29.9471276 46.2829171 27.0575354 49.8570477 25.6222944 48.5932324 25.4464439 56.1354788 22.2796432 63.6777251 19.1128425 64.9021392 17.6325562 67.4831579 18.4940827M67.8290598 18.5568515C67.6018519 23.3469288 67.2759074 23.0533288 67.0486995 27.843406M67.4748218 27.7248058C67.4748218 27.7248058 74.796904 25.526056 78.232906 23.8879842 89.1816801 18.6682904 102.648901 11.9674622 113.313431 6.19384135M8.34779022 41.6462524C30.5435251 24.3715118 54.0577946 11.8483872 79.5940171.0319102113M79.8632479.544600939C81.1923077 6.24621366 82.8564389 14.6386159 84.1854987 20.3402287M105.328491 46.3277315C105.328491 46.3277315 109.036093 28.7817279 113.138941 6.31954523L105.328491 46.3277315z" stroke-linecap="round" stroke-linejoin="round"/>
      <path fill="#FFFFFF" d="M93.1621209,27.7846042 L85.8929521,54.7319837 L84.9397076,56.0438947 L67.0430953,69.1037495 L80.667547,77.2871054 L77.3060724,108.022716 C77.3060724,108.022716 94.070247,83.7960065 94.3950349,83.7960065 C94.7198228,83.7960065 108.241238,90.1261844 108.566026,89.6817658 C108.890814,89.2373472 105.046478,67.3292608 105.046478,67.3292608 L119.278267,40.4025889 C119.278267,40.4025889 101.725001,49.1937948 101.725001,48.9096217 C101.725001,48.6254487 93.1621209,27.7846042 93.1621209,27.7846042 Z"/>
      <path stroke="#81BFF1" stroke-width="1.637" d="M95.8831984 85.8839919C94.8017885 85.356333 93.4303677 85.7793605 92.8272004 86.8104431 92.8272004 86.8104431 89.281492 92.9537284 87.3459097 95.7582431 85.4103275 98.5627579 78.2142469 107.965932 78.2142469 107.965932 77.1172626 109.404361 76.3358099 109.110783 76.4809064 107.309982 76.4809064 107.309982 77.2474948 95.6102873 78.8398557 89.9985072 80.4322166 84.386727 80.9763023 79.5922998 80.9763023 79.5922998 81.1409758 78.4065426 80.338891 77.14664 79.1984984 76.7747014 79.1984984 76.7747014 76.4597781 75.9321741 75.0548126 75.2735864 73.6498471 74.6149987 68.4953444 71.7120041 68.4953444 71.7120041 66.9189477 70.8311113 66.7934132 69.2245814 68.2292967 68.1177863 68.2292967 68.1177863 72.6733892 64.6519235 75.0548126 62.9971585 77.4362359 61.3423935 83.3471267 57.6809464 83.3471267 57.6809464 84.3701624 57.0433809 85.5096736 55.5984958 85.8818707 54.4616275 85.8818707 54.4616275 88.3097175 47.3852837 89.1802029 42.5589576 90.0506883 37.7326314 92.5108212 28.7607375 92.5108212 28.7607375 92.9787244 27.0130361 93.9579013 26.924222 94.7006706 28.5783679 94.7006706 28.5783679 97.7648445 35.3066102 98.9947298 38.5343312 100.224615 41.7620523 101.208514 46.6862787 101.208514 46.6862787 101.461492 47.8562629 102.53153 48.3647952 103.609348 47.8166056L110.519338 44.3021126 118.204594 40.1027842C119.7899 39.2365515 120.473901 39.8602335 119.711047 41.5107612 119.711047 41.5107612 115.589632 50.8308191 112.583321 54.9091682 109.577009 58.9875172 106.20558 65.6601823 106.20558 65.6601823 105.649281 66.7268727 105.489673 68.5216185 105.847111 69.6755736 105.847111 69.6755736 107.278848 74.1742375 107.791338 76.4470828 108.303828 78.7199281 109.912825 87.825909 109.912825 87.825909 110.230534 89.6072273 109.071468 90.6547254 107.340458 90.163068 107.340458 90.163068 103.283077 89.0553637 101.2427 88.3011145 99.2023225 87.5468652 95.8831984 85.8839919 95.8831984 85.8839919zM75.0391282 75.4188095L27.6631557 95.2144372" stroke-linecap="round" stroke-linejoin="round"/>
    </g>
  </g>
</svg>
