<svg xmlns="http://www.w3.org/2000/svg" width="308" height="240" viewBox="0 0 308 240">
  <g fill="none" fill-rule="evenodd">
    <rect width="308" height="241"/>
    <g transform="translate(0 5)">
      <text fill="#000000" transform="translate(0 177)" font-family="SegoeUI, Segoe UI" letter-spacing=".5" font-size="20" opacity=".8">
        <tspan x="42.256" y="22">No commits were found </tspan> <tspan x="4.222" y="49">according to your search criteria</tspan>
      </text>
      <g transform="translate(90)">
        <g transform="translate(0 15)">
          <path fill="#DFEDFB" d="M22.6120839,90.4014836 C17.2285223,91.5683195 16.3549947,91.4912126 9.88089129,95.9393076 C-16.3110764,113.934751 15.9104328,129.301388 33.3645214,133.218529 C54.6824077,138.002804 80.3056676,140.319486 101.238282,132.054975 C109.348295,128.85302 124.503308,122.389843 126.049663,111.874808 C126.051235,111.864116 126.694854,104.885657 125.190429,103.573256 C120.329094,99.332417 115.234736,95.318327 109.803734,91.8484374 C108.075933,90.7445381 105.898472,90.6161458 103.945841,90" opacity=".5"/>
          <g transform="translate(4)">
            <path fill="#FFFFFF" d="M31.3390625,95.2226563 C36.14375,95.2226563 41.1544271,95.2226563 46.3710937,95.2226563 C51.5877604,95.2226563 57.3513021,94.4192708 63.6617187,92.8125 C63.0768229,97.8489583 63.9760417,101.834375 66.359375,104.76875 C69.934375,109.170313 75.3304687,109.364844 79.871875,109.170313 C84.4132812,108.975781 90.90625,104.125 92.3039062,98.46875 C93.7015625,92.8125 96.1039062,79.275 95.4351562,68.7070313 C94.7664062,58.1390625 95.3515625,37.16875 96.9570312,32.3867188 C98.5625,27.6046875 100.475,20.1398437 102.561719,18.1210938 C103.952865,16.7752604 105.902344,16.1023438 108.410156,16.1023438 C88.6226562,16.1023438 78.025,16.1023438 76.6171875,16.1023438 C75.209375,16.1023438 69.7208333,16.1023438 60.1515625,16.1023438 C54.1510417,5.78307292 45.8744792,0.484375 35.321875,0.20625 C19.4929687,-0.2109375 -0.2984375,15.3796875 0.48984375,32.3867188 C1.278125,49.39375 12.821875,63.2140625 28.1289062,63.5789063 C33.2742188,63.5789063 33.0630432,62.422483 33.303125,64.7890625 C34.6681213,78.244358 33.303125,75.7289063 33.303125,81.715625 C33.303125,85.7067708 32.6484375,90.2091146 31.3390625,95.2226563 Z"/>
            <path fill="#EEF6FD" d="M98,32.4119894 C101.61875,32.4119894 105.720052,32.4119894 110.303906,32.4119894 C114.88776,32.4119894 119.466406,32.7609477 124.039844,33.4588644 C120.636719,22.7463644 116.6125,17.2773539 111.967187,17.0518331 C104.999219,16.7135519 102.064844,17.9658956 100.489844,22.7416769 C99.4398437,25.925531 98.6098958,29.1489685 98,32.4119894 Z"/>
            <path fill="#EEF5FB" d="M33.4867188,64.528125 L33.4867188,72.778125 C44.3976563,74.2109375 53.4322917,71.4609375 60.590625,64.528125 C62.9018977,62.2896681 64.6535475,59.8878853 65.9785323,57.4522596 C66.7050908,56.1166786 69.8540832,60.38519 71.1017877,60.38519 C73.8845549,60.38519 82.3365008,63.1405687 82.295647,60.38519 C82.2509823,57.3727815 89.8690549,40.2757728 89.562237,33.7334159 C89.555276,33.5849859 93.7149666,32.1284321 95.1291983,31.300992 C97.7509788,29.7670379 98.0775952,26.5199901 97.8484613,25.839633 C97.3212569,24.2742281 87.4148744,25.3132855 85.9910191,26.6166672 C82.7971959,29.5402586 77.6825897,40.5036069 76.2384905,40.3977865 C72.6534127,40.1350797 69.9156206,36.5356273 69.9,35.7382812 C69.8416667,32.7606771 67.515625,26.29375 62.921875,16.3375 C65.9332095,30.6626792 64.8678729,41.6931384 59.7258654,49.4288775 C54.5838579,57.1646165 45.8374756,62.197699 33.4867188,64.528125 Z"/>
            <path fill="#EEF6FD" d="M3.75859375 95.6375C4.19244792 100.936979 5.49635417 104.451823 7.6703125 106.182031 10.93125 108.777344 19.5757812 112.504687 27.1984375 113.070312 34.8210937 113.635938 43.484375 114.201563 56.9695312 113.635938 65.9596354 113.258854 73.5973958 112.08724 79.8828125 110.121094 72.5572917 110.279891 68.1346354 108.490814 66.6148437 104.753864 65.0950521 101.016913 64.3351562 97.4145833 64.3351562 93.946875 52.5867187 95.0739583 42.7736979 95.6375 34.8960937 95.6375 27.0184896 95.6375 16.6393229 95.6375 3.75859375 95.6375zM32.8991668.499787626C10.4221454 2.54605606 2.0550589 17.2713162.855102384 32.1845253-.297723351 46.5119872 10.2499795 60.9682243 26.1595606 63.5654588 69.4847471 70.6382827 82.1154519 6.21211458 36.4688341.499787626L32.8991668.499787626z"/>
            <path fill="#DEECF9" d="M9.13698731,53.4341771 C5.66013939,38.0870873 7.00899574,26.689605 13.1835564,19.2417301 C22.4453973,8.06991778 35.2919487,3.16618524 38.9036249,2.49720757 C42.5153011,1.8282299 25.3565402,-1.70886043 17.2467638,4.52307391 C9.13698731,10.7550083 2.27681065,20.5739481 1.39210776,28.9872316 C0.507404872,37.400515 2.67096816,46.018049 4.24874568,48.0267032 C5.30059736,49.365806 6.93001124,51.1682973 9.13698731,53.4341771 Z"/>
            <path stroke="#81BFF1" stroke-width="1.5" d="M32.8991668.499787626C10.4221454 2.54605606 2.0550589 17.2713162.855102384 32.1845253-.297723351 46.5119872 10.2499795 60.9682243 26.1595606 63.5654588 69.4847471 70.6382827 82.1154519 6.21211458 36.4688341.499787626L32.8991668.499787626zM3 95.3813275C48.9317014 95.8597633 28.4731707 97.2744782 64.4760537 93" stroke-linecap="round" stroke-linejoin="round"/>
            <path stroke="#81BFF1" stroke-width="1.5" d="M33.2973458 65.5486072C33.1170133 69.6962562 33.6039792 74.7315452 33.2973458 79.1889914 32.9295592 84.535407 31.7635675 89.3152774 31.5472704 94.2901114M63.8393818 94.5025751C62.931358 113.496878 85.6088321 113.983082 90.4135715 102.038539 95.1157996 90.3488392 94.7260926 80.086371 94.7603512 70.539188 94.8181667 54.4271413 92.4986689 39.3943624 98.9613451 22.6501561 99.8133271 20.442748 101.941661 18.8375443 104.437833 15.4131298 105.548578 13.8893357 103.471206 7.35188083 106.974298 8.21459222 107.775256 8.41184539 104.469422 14.4674942 105.422018 14.6665924 121.132349 17.9501455 121.342611 28.3774506 122.935657 32.6283424" stroke-linecap="round" stroke-linejoin="round"/>
            <path stroke="#81BFF1" stroke-width="1.5" d="M62.6463941 16.7616052C64.1193299 16.7278138 68.2125839 17.7949099 69.5021881 15.6253698 70.8034023 13.436298 67.2883513 8.00689308 70.6652657 8.00689308 74.2990606 8.00689308 77.8856384 7.96032639 81.8780879 7.67912109 84.9641248 7.46175829 93.9725112 7.57101562 108.903247 8.00689308M3.55011858 96.0890939C5.40105717 99.7909711 6.13858577 104.306386 9.10293434 107.194725 19.2758659 117.106813 58.2079979 113.021427 66.21916 112.747541 71.00521 112.583916 76.9404705 109.795312 80.4978291 111.161022M98.7412458 31.835083C106.464717 31.0698434 112.016435 30.9368801 123.330738 33.4200525" stroke-linecap="round" stroke-linejoin="round"/>
            <g fill-rule="nonzero" transform="translate(20 18)">
              <path fill="#DEECF9" d="M14.3931376,11.8393224 L14.7334055,11.7258998 L17.9141074,12.9486545 L18.0534406,13.0149737 C18.1104197,13.0477095 18.1667054,13.0805367 18.2222981,13.1134565 C20.2151895,11.3670513 21.0941706,10.6104407 22.2264182,9.66657331 C22.8756358,9.12537075 23.1672964,8.83985357 23.7446811,8.18749234 C24.4376641,7.40452178 24.8523664,6.99856618 25.6427372,6.33969515 C26.3851161,5.72083121 27.4886214,5.82095987 28.1074854,6.56333876 C28.7263493,7.30571766 28.6262206,8.409223 27.8838417,9.02808693 C27.2346241,9.56928949 26.9429636,9.85480667 26.3655789,10.5071679 C25.6725959,11.2901385 25.2578935,11.6960941 24.4675228,12.3549651 C23.4314927,13.2186234 22.6090283,13.9248333 20.8889415,15.4305208 C22.3039104,17.5123601 21.5635707,19.8254303 18.9006235,22.0184456 C16.8473785,23.7093533 13.3082217,23.4412395 10.6471748,21.7367769 C7.69306272,19.8445991 6.81343538,16.7852657 9.1865585,14.0855105 C9.26256793,13.9990393 9.33801998,13.9165663 9.41312665,13.837906 C5.11165337,9.40526957 3.15869455,7.23745891 0.635561825,4.09581407 C0.030360428,3.34225567 0.150627538,2.24076322 0.904185934,1.63556183 C1.65774433,1.03036043 2.75923678,1.15062754 3.36443817,1.90418593 C5.95705133,5.1323434 7.92180191,7.29253067 12.7448548,12.2437344 C13.5700992,12.0918782 13.8209564,12.0300495 14.3931376,11.8393224 Z"/>
              <path fill="#81BFF1" d="M11.400585,11.3234306 C11.3035679,11.2238043 11.2042408,11.1218394 11.1024756,11.0174005 C6.42604093,6.21810849 4.32290121,3.93972615 1.58475922,0.5303654 C1.32538719,0.207411802 0.853318998,0.155868755 0.5303654,0.415240782 C0.207411802,0.67461281 0.155868755,1.146681 0.415240782,1.4696346 C3.15977501,4.88695455 5.2706009,7.17880374 9.86570018,11.89745 C9.57371149,12.0953576 9.27190723,12.3654448 8.93763911,12.745721 C4.70796792,17.5575559 13.7219565,22.1642469 17.2649162,19.2465154 C19.8725154,17.0990808 20.2842609,15.1228698 18.5001528,13.3178824 C18.5053063,13.3133627 18.5104668,13.3088369 18.5156341,13.3043051 C20.6457115,11.4361774 21.6006708,10.6093218 22.8272072,9.58685315 C23.6098586,8.93441711 23.9873335,8.55555417 24.616751,7.84440345 C25.199954,7.18546838 25.5266013,6.85761988 26.2435262,6.25997499 C26.5616885,5.99474759 26.6046008,5.52181673 26.3393734,5.20365435 C26.074146,4.88549197 25.6012152,4.84257968 25.2830528,5.10780708 C24.5004013,5.76024313 24.1229265,6.13910607 23.493509,6.85025679 C22.910306,7.50919185 22.5836587,7.83704036 21.8667338,8.43468525 C20.6274103,9.46781351 19.6660253,10.3002328 17.5265854,12.1765716 C17.4564932,12.2380441 17.3876735,12.2983891 17.3200746,12.3576507 C17.0836356,12.1976779 16.828704,12.0391471 16.5552797,11.8820583 L13.7093654,10.7880057 C12.7338223,11.1131868 12.0151721,11.206167 11.400585,11.3234306 Z"/>
            </g>
          </g>
        </g>
        <g stroke="#81BFF1" transform="translate(73)" stroke-linecap="round" stroke-linejoin="round">
          <path fill="#FFFFFF" fill-opacity=".559" stroke-width="5" d="M21.2017813,38.7871266 C27.0653087,38.7871266 29.8388835,36.7642524 33.3940323,32.4647632 C36.3310464,28.9128275 37.9912953,25.3329771 37.9912953,20.2698367 C37.9912953,9.07794863 33.3940323,-0.250463869 18.6035402,0.00513076922 C3.81304813,0.260725407 0,10.0519038 0,21.2437918 C0,32.4356798 10.4942199,38.7871266 21.2017813,38.7871266 Z"/>
          <path stroke-width="1.5" d="M26.7055323 8.41176471C23.8182602 16.3121904 21.7928309 21.1075717 20.6292444 22.7979086 19.465658 24.4882455 18.0178146 27.38028 16.2857143 31.474012M29.3794598 14.5294118C27.9718489 18.8427657 26.885572 21.8172556 26.1206289 23.4528815 25.3556859 25.0885074 24.4039116 26.6825166 23.2653061 28.2349092"/>
          <path fill="#FFFFFF" stroke-width="1.5" d="M11.6560985,13.5063741 C13.3693083,13.5063741 15.5102041,12.3952239 15.5102041,10.7058824 C15.5102041,9.01654077 14.6709474,7.81344695 12.9577375,7.81344695 C11.2445277,7.81344695 9.30612245,9.01654077 9.30612245,10.7058824 C9.30612245,12.3952239 9.94288862,13.5063741 11.6560985,13.5063741 Z"/>
          <path fill="#BADBF6" stroke-width="1.5" d="M9.56701173,41 C13.1137669,42.0940148 14.9466405,42.7311176 15.0656326,42.9113082 C15.2441206,43.1815943 15.9017497,43.7240969 15.9985299,44.3426657 C16.0953101,44.9612346 11.3875895,63.9689054 9.56701173,63.9994091 C7.74643397,64.0299128 1.72980127,62.8746332 2.00943249,61.6224367 C2.28906372,60.3702402 4.7775833,49.1618654 6.14678471,46.3323569 C7.05958564,44.446018 8.19966132,42.6685657 9.56701173,41 Z"/>
          <path stroke-width="1.5" d="M10.7394884,39 C10.7394884,39.2874476 10.4929923,40.0048601 10,41.1522373 L14.8920872,43 L16,40.2721971"/>
        </g>
      </g>
    </g>
  </g>
</svg>
