<svg xmlns="http://www.w3.org/2000/svg" width="440" height="50" viewBox="0 0 440 50">
  <g fill="none" fill-rule="evenodd">
    <rect width="440" height="50"/>
    <path fill="#8CA3B7" d="M112.664,24.168 C112.664,25.3626726 112.825332,26.5079945 113.148,27.604 C113.470668,28.7000055 113.951997,29.7573282 114.592,30.776 C114.629334,30.834667 114.648,30.8906664 114.648,30.944 C114.648,31.0240004 114.610667,31.0826665 114.536,31.12 L114.2,31.328 C113.789331,30.6986635 113.444001,30.0893363 113.164,29.5 C112.883999,28.9106637 112.658668,28.3240029 112.488,27.74 C112.317332,27.1559971 112.193334,26.5706696 112.116,25.984 C112.038666,25.3973304 112,24.7920031 112,24.168 C112,23.5439969 112.038666,22.9373363 112.116,22.348 C112.193334,21.7586637 112.317332,21.1720029 112.488,20.588 C112.658668,20.0039971 112.883999,19.4173363 113.164,18.828 C113.444001,18.2386637 113.789331,17.6293365 114.2,17 L114.536,17.208 C114.605334,17.2453335 114.64,17.301333 114.64,17.376 C114.64,17.4293336 114.621334,17.485333 114.584,17.544 C113.94933,18.5680051 113.470668,19.6279945 113.148,20.724 C112.825332,21.8200055 112.664,22.967994 112.664,24.168 Z M118.176,24.088 L118.176,29.208 L117.36,29.208 L117.36,17.888 L120.248,17.888 C121.554673,17.888 122.530663,18.1399975 123.176,18.644 C123.821337,19.1480025 124.144,19.8879951 124.144,20.864 C124.144,21.2960022 124.069334,21.6906649 123.92,22.048 C123.770666,22.4053351 123.556001,22.7186653 123.276,22.988 C122.995999,23.2573347 122.658669,23.4786658 122.264,23.652 C121.869331,23.8253342 121.424002,23.9386664 120.928,23.992 C121.056001,24.0720004 121.170666,24.178666 121.272,24.312 L125.168,29.208 L124.456,29.208 C124.370666,29.208 124.297334,29.1920002 124.236,29.16 C124.174666,29.1279998 124.114667,29.074667 124.056,29 L120.432,24.408 C120.341333,24.2906661 120.244001,24.2080002 120.14,24.16 C120.035999,24.1119998 119.874668,24.088 119.656,24.088 L118.176,24.088 Z M118.176,23.48 L120.144,23.48 C120.645336,23.48 121.094665,23.4200006 121.492,23.3 C121.889335,23.1799994 122.225332,23.0080011 122.5,22.784 C122.774668,22.5599989 122.983999,22.2906682 123.128,21.976 C123.272001,21.6613318 123.344,21.3066686 123.344,20.912 C123.344,20.1066626 123.080003,19.5093353 122.552,19.12 C122.023997,18.7306647 121.256005,18.536 120.248,18.536 L118.176,18.536 L118.176,23.48 Z M129.832,21.12 C130.280002,21.12 130.694665,21.1973326 131.076,21.352 C131.457335,21.5066674 131.787999,21.7319985 132.068,22.028 C132.348001,22.3240015 132.566666,22.6879978 132.724,23.12 C132.881334,23.5520022 132.96,24.0479972 132.96,24.608 C132.96,24.7253339 132.942667,24.8053331 132.908,24.848 C132.873333,24.8906669 132.818667,24.912 132.744,24.912 L126.992,24.912 L126.992,25.064 C126.992,25.6613363 127.061333,26.1866644 127.2,26.64 C127.338667,27.0933356 127.535999,27.4733318 127.792,27.78 C128.048001,28.0866682 128.357332,28.3173326 128.72,28.472 C129.082668,28.6266674 129.487998,28.704 129.936,28.704 C130.336002,28.704 130.682665,28.6600004 130.976,28.572 C131.269335,28.4839996 131.515999,28.3853339 131.716,28.276 C131.916001,28.1666661 132.074666,28.0680004 132.192,27.98 C132.309334,27.8919996 132.394666,27.848 132.448,27.848 C132.517334,27.848 132.570666,27.8746664 132.608,27.928 L132.816,28.184 C132.687999,28.3440008 132.518668,28.4933326 132.308,28.632 C132.097332,28.7706674 131.862668,28.8893328 131.604,28.988 C131.345332,29.0866672 131.068001,29.165333 130.772,29.224 C130.475999,29.282667 130.178668,29.312 129.88,29.312 C129.335997,29.312 128.840002,29.2173343 128.392,29.028 C127.943998,28.8386657 127.560002,28.5626685 127.24,28.2 C126.919998,27.8373315 126.673334,27.393336 126.5,26.868 C126.326666,26.342664 126.24,25.7413367 126.24,25.064 C126.24,24.4933305 126.321333,23.9666691 126.484,23.484 C126.646667,23.0013309 126.881332,22.5853351 127.188,22.236 C127.494668,21.8866649 127.870664,21.6133343 128.316,21.416 C128.761336,21.2186657 129.266664,21.12 129.832,21.12 Z M129.84,21.688 C129.429331,21.688 129.061335,21.7519994 128.736,21.88 C128.410665,22.0080006 128.129335,22.1919988 127.892,22.432 C127.654665,22.6720012 127.462667,22.9599983 127.316,23.296 C127.169333,23.6320017 127.072,24.0079979 127.024,24.424 L132.272,24.424 C132.272,23.9973312 132.213334,23.6146684 132.096,23.276 C131.978666,22.9373316 131.813334,22.6506678 131.6,22.416 C131.386666,22.1813322 131.130668,22.001334 130.832,21.876 C130.533332,21.750666 130.202668,21.688 129.84,21.688 Z M135.008,29.208 L135.008,21.248 L135.424,21.248 C135.562667,21.248 135.642667,21.314666 135.664,21.448 L135.736,22.6 C135.890667,22.3813322 136.055999,22.1813342 136.232,22 C136.408001,21.8186658 136.595999,21.6626673 136.796,21.532 C136.996001,21.4013327 137.209332,21.3000004 137.436,21.228 C137.662668,21.1559996 137.901332,21.12 138.152,21.12 C138.733336,21.12 139.197332,21.2893316 139.544,21.628 C139.890668,21.9666684 140.125333,22.4373303 140.248,23.04 C140.344,22.7093317 140.478666,22.4240012 140.652,22.184 C140.825334,21.9439988 141.023999,21.7453341 141.248,21.588 C141.472001,21.4306659 141.715999,21.3133337 141.98,21.236 C142.244001,21.1586663 142.514665,21.12 142.792,21.12 C143.186669,21.12 143.541332,21.1853327 143.856,21.316 C144.170668,21.4466673 144.438666,21.6399987 144.66,21.896 C144.881334,22.1520013 145.050666,22.4666648 145.168,22.84 C145.285334,23.2133352 145.344,23.6399976 145.344,24.12 L145.344,29.208 L144.576,29.208 L144.576,24.12 C144.576,23.3413294 144.408002,22.748002 144.072,22.34 C143.735998,21.931998 143.256003,21.728 142.632,21.728 C142.354665,21.728 142.089335,21.7786662 141.836,21.88 C141.582665,21.9813338 141.358668,22.131999 141.164,22.332 C140.969332,22.532001 140.814667,22.7813318 140.7,23.08 C140.585333,23.3786682 140.528,23.7253314 140.528,24.12 L140.528,29.208 L139.768,29.208 L139.768,24.12 C139.768,23.3466628 139.613335,22.7546687 139.304,22.344 C138.994665,21.9333313 138.544003,21.728 137.952,21.728 C137.519998,21.728 137.120002,21.857332 136.752,22.116 C136.383998,22.374668 136.056001,22.733331 135.768,23.192 L135.768,29.208 L135.008,29.208 Z M150.736,21.12 C151.184002,21.12 151.598665,21.1973326 151.98,21.352 C152.361335,21.5066674 152.691999,21.7319985 152.972,22.028 C153.252001,22.3240015 153.470666,22.6879978 153.628,23.12 C153.785334,23.5520022 153.864,24.0479972 153.864,24.608 C153.864,24.7253339 153.846667,24.8053331 153.812,24.848 C153.777333,24.8906669 153.722667,24.912 153.648,24.912 L147.896,24.912 L147.896,25.064 C147.896,25.6613363 147.965333,26.1866644 148.104,26.64 C148.242667,27.0933356 148.439999,27.4733318 148.696,27.78 C148.952001,28.0866682 149.261332,28.3173326 149.624,28.472 C149.986668,28.6266674 150.391998,28.704 150.84,28.704 C151.240002,28.704 151.586665,28.6600004 151.88,28.572 C152.173335,28.4839996 152.419999,28.3853339 152.62,28.276 C152.820001,28.1666661 152.978666,28.0680004 153.096,27.98 C153.213334,27.8919996 153.298666,27.848 153.352,27.848 C153.421334,27.848 153.474666,27.8746664 153.512,27.928 L153.72,28.184 C153.591999,28.3440008 153.422668,28.4933326 153.212,28.632 C153.001332,28.7706674 152.766668,28.8893328 152.508,28.988 C152.249332,29.0866672 151.972001,29.165333 151.676,29.224 C151.379999,29.282667 151.082668,29.312 150.784,29.312 C150.239997,29.312 149.744002,29.2173343 149.296,29.028 C148.847998,28.8386657 148.464002,28.5626685 148.144,28.2 C147.823998,27.8373315 147.577334,27.393336 147.404,26.868 C147.230666,26.342664 147.144,25.7413367 147.144,25.064 C147.144,24.4933305 147.225333,23.9666691 147.388,23.484 C147.550667,23.0013309 147.785332,22.5853351 148.092,22.236 C148.398668,21.8866649 148.774664,21.6133343 149.22,21.416 C149.665336,21.2186657 150.170664,21.12 150.736,21.12 Z M150.744,21.688 C150.333331,21.688 149.965335,21.7519994 149.64,21.88 C149.314665,22.0080006 149.033335,22.1919988 148.796,22.432 C148.558665,22.6720012 148.366667,22.9599983 148.22,23.296 C148.073333,23.6320017 147.976,24.0079979 147.928,24.424 L153.176,24.424 C153.176,23.9973312 153.117334,23.6146684 153,23.276 C152.882666,22.9373316 152.717334,22.6506678 152.504,22.416 C152.290666,22.1813322 152.034668,22.001334 151.736,21.876 C151.437332,21.750666 151.106668,21.688 150.744,21.688 Z M155.912,29.208 L155.912,21.248 L156.328,21.248 C156.466667,21.248 156.546667,21.314666 156.568,21.448 L156.64,22.6 C156.794667,22.3813322 156.959999,22.1813342 157.136,22 C157.312001,21.8186658 157.499999,21.6626673 157.7,21.532 C157.900001,21.4013327 158.113332,21.3000004 158.34,21.228 C158.566668,21.1559996 158.805332,21.12 159.056,21.12 C159.637336,21.12 160.101332,21.2893316 160.448,21.628 C160.794668,21.9666684 161.029333,22.4373303 161.152,23.04 C161.248,22.7093317 161.382666,22.4240012 161.556,22.184 C161.729334,21.9439988 161.927999,21.7453341 162.152,21.588 C162.376001,21.4306659 162.619999,21.3133337 162.884,21.236 C163.148001,21.1586663 163.418665,21.12 163.696,21.12 C164.090669,21.12 164.445332,21.1853327 164.76,21.316 C165.074668,21.4466673 165.342666,21.6399987 165.564,21.896 C165.785334,22.1520013 165.954666,22.4666648 166.072,22.84 C166.189334,23.2133352 166.248,23.6399976 166.248,24.12 L166.248,29.208 L165.48,29.208 L165.48,24.12 C165.48,23.3413294 165.312002,22.748002 164.976,22.34 C164.639998,21.931998 164.160003,21.728 163.536,21.728 C163.258665,21.728 162.993335,21.7786662 162.74,21.88 C162.486665,21.9813338 162.262668,22.131999 162.068,22.332 C161.873332,22.532001 161.718667,22.7813318 161.604,23.08 C161.489333,23.3786682 161.432,23.7253314 161.432,24.12 L161.432,29.208 L160.672,29.208 L160.672,24.12 C160.672,23.3466628 160.517335,22.7546687 160.208,22.344 C159.898665,21.9333313 159.448003,21.728 158.856,21.728 C158.423998,21.728 158.024002,21.857332 157.656,22.116 C157.287998,22.374668 156.960001,22.733331 156.672,23.192 L156.672,29.208 L155.912,29.208 Z M168.72,29.208 L168.72,17.568 L169.488,17.568 L169.488,22.64 C169.840002,22.1706643 170.247998,21.8000014 170.712,21.528 C171.176002,21.2559986 171.698664,21.12 172.28,21.12 C173.256005,21.12 174.017331,21.45733 174.564,22.132 C175.110669,22.80667 175.384,23.8213266 175.384,25.176 C175.384,25.7573362 175.308001,26.2999975 175.156,26.804 C175.003999,27.3080025 174.780001,27.7453315 174.484,28.116 C174.187999,28.4866685 173.825335,28.7786656 173.396,28.992 C172.966665,29.2053344 172.472003,29.312 171.912,29.312 C171.357331,29.312 170.880002,29.2040011 170.48,28.988 C170.079998,28.7719989 169.736001,28.4533354 169.448,28.032 L169.4,29.008 C169.384,29.141334 169.312001,29.208 169.184,29.208 L168.72,29.208 Z M172.064,21.728 C171.535997,21.728 171.058669,21.8639986 170.632,22.136 C170.205331,22.4080014 169.824002,22.7866642 169.488,23.272 L169.488,27.472 C169.792002,27.930669 170.127998,28.2519991 170.496,28.436 C170.864002,28.6200009 171.287998,28.712 171.768,28.712 C172.237336,28.712 172.647998,28.6266675 173,28.456 C173.352002,28.2853325 173.646665,28.0440016 173.884,27.732 C174.121335,27.4199984 174.299999,27.0466688 174.42,26.612 C174.540001,26.1773312 174.6,25.6986693 174.6,25.176 C174.6,23.9919941 174.381336,23.1213361 173.944,22.564 C173.506664,22.0066639 172.880004,21.728 172.064,21.728 Z M180.376,21.12 C180.824002,21.12 181.238665,21.1973326 181.62,21.352 C182.001335,21.5066674 182.331999,21.7319985 182.612,22.028 C182.892001,22.3240015 183.110666,22.6879978 183.268,23.12 C183.425334,23.5520022 183.504,24.0479972 183.504,24.608 C183.504,24.7253339 183.486667,24.8053331 183.452,24.848 C183.417333,24.8906669 183.362667,24.912 183.288,24.912 L177.536,24.912 L177.536,25.064 C177.536,25.6613363 177.605333,26.1866644 177.744,26.64 C177.882667,27.0933356 178.079999,27.4733318 178.336,27.78 C178.592001,28.0866682 178.901332,28.3173326 179.264,28.472 C179.626668,28.6266674 180.031998,28.704 180.48,28.704 C180.880002,28.704 181.226665,28.6600004 181.52,28.572 C181.813335,28.4839996 182.059999,28.3853339 182.26,28.276 C182.460001,28.1666661 182.618666,28.0680004 182.736,27.98 C182.853334,27.8919996 182.938666,27.848 182.992,27.848 C183.061334,27.848 183.114666,27.8746664 183.152,27.928 L183.36,28.184 C183.231999,28.3440008 183.062668,28.4933326 182.852,28.632 C182.641332,28.7706674 182.406668,28.8893328 182.148,28.988 C181.889332,29.0866672 181.612001,29.165333 181.316,29.224 C181.019999,29.282667 180.722668,29.312 180.424,29.312 C179.879997,29.312 179.384002,29.2173343 178.936,29.028 C178.487998,28.8386657 178.104002,28.5626685 177.784,28.2 C177.463998,27.8373315 177.217334,27.393336 177.044,26.868 C176.870666,26.342664 176.784,25.7413367 176.784,25.064 C176.784,24.4933305 176.865333,23.9666691 177.028,23.484 C177.190667,23.0013309 177.425332,22.5853351 177.732,22.236 C178.038668,21.8866649 178.414664,21.6133343 178.86,21.416 C179.305336,21.2186657 179.810664,21.12 180.376,21.12 Z M180.384,21.688 C179.973331,21.688 179.605335,21.7519994 179.28,21.88 C178.954665,22.0080006 178.673335,22.1919988 178.436,22.432 C178.198665,22.6720012 178.006667,22.9599983 177.86,23.296 C177.713333,23.6320017 177.616,24.0079979 177.568,24.424 L182.816,24.424 C182.816,23.9973312 182.757334,23.6146684 182.64,23.276 C182.522666,22.9373316 182.357334,22.6506678 182.144,22.416 C181.930666,22.1813322 181.674668,22.001334 181.376,21.876 C181.077332,21.750666 180.746668,21.688 180.384,21.688 Z M185.552,29.208 L185.552,21.248 L185.952,21.248 C186.042667,21.248 186.108,21.2666665 186.148,21.304 C186.188,21.3413335 186.210667,21.4053329 186.216,21.496 L186.28,23.176 C186.536001,22.5306634 186.877331,22.0253352 187.304,21.66 C187.730669,21.2946648 188.255997,21.112 188.88,21.112 C189.120001,21.112 189.341332,21.1373331 189.544,21.188 C189.746668,21.2386669 189.938666,21.3119995 190.12,21.408 L190.016,21.936 C190,22.0213338 189.946667,22.064 189.856,22.064 C189.824,22.064 189.778667,22.0533334 189.72,22.032 C189.661333,22.0106666 189.588,21.9866668 189.5,21.96 C189.412,21.9333332 189.304001,21.9093334 189.176,21.888 C189.047999,21.8666666 188.901334,21.856 188.736,21.856 C188.13333,21.856 187.638669,22.0426648 187.252,22.416 C186.865331,22.7893352 186.552001,23.3279965 186.312,24.032 L186.312,29.208 L185.552,29.208 Z M196.728,31.768 C196.696,31.842667 196.654667,31.9039998 196.604,31.952 C196.553333,32.0000002 196.48,32.024 196.384,32.024 L195.84,32.024 L197.24,28.912 L193.872,21.248 L194.504,21.248 C194.584,21.248 194.646666,21.2679998 194.692,21.308 C194.737334,21.3480002 194.770667,21.3919998 194.792,21.44 L197.472,27.632 C197.504,27.7120004 197.532,27.7933329 197.556,27.876 C197.58,27.9586671 197.602667,28.0426662 197.624,28.128 C197.650667,28.0426662 197.678667,27.9586671 197.708,27.876 C197.737333,27.7933329 197.768,27.7120004 197.8,27.632 L200.448,21.44 C200.474667,21.381333 200.512,21.3346668 200.56,21.3 C200.608,21.2653332 200.661333,21.248 200.72,21.248 L201.304,21.248 L196.728,31.768 Z M205.672,21.12 C206.24267,21.12 206.753331,21.2173324 207.204,21.412 C207.654669,21.6066676 208.034665,21.8826649 208.344,22.24 C208.653335,22.5973351 208.889333,23.0279975 209.052,23.532 C209.214667,24.0360025 209.296,24.5999969 209.296,25.224 C209.296,25.8480031 209.214667,26.4106642 209.052,26.912 C208.889333,27.4133358 208.653335,27.8426649 208.344,28.2 C208.034665,28.5573351 207.654669,28.831999 207.204,29.024 C206.753331,29.216001 206.24267,29.312 205.672,29.312 C205.10133,29.312 204.590669,29.216001 204.14,29.024 C203.689331,28.831999 203.308002,28.5573351 202.996,28.2 C202.683998,27.8426649 202.446667,27.4133358 202.284,26.912 C202.121333,26.4106642 202.04,25.8480031 202.04,25.224 C202.04,24.5999969 202.121333,24.0360025 202.284,23.532 C202.446667,23.0279975 202.683998,22.5973351 202.996,22.24 C203.308002,21.8826649 203.689331,21.6066676 204.14,21.412 C204.590669,21.2173324 205.10133,21.12 205.672,21.12 Z M205.672,28.712 C206.146669,28.712 206.561332,28.6306675 206.916,28.468 C207.270668,28.3053325 207.566665,28.0720015 207.804,27.768 C208.041335,27.4639985 208.218666,27.0973355 208.336,26.668 C208.453334,26.2386645 208.512,25.757336 208.512,25.224 C208.512,24.6959974 208.453334,24.2160022 208.336,23.784 C208.218666,23.3519978 208.041335,22.9826682 207.804,22.676 C207.566665,22.3693318 207.270668,22.1333342 206.916,21.968 C206.561332,21.8026658 206.146669,21.72 205.672,21.72 C205.197331,21.72 204.782668,21.8026658 204.428,21.968 C204.073332,22.1333342 203.777335,22.3693318 203.54,22.676 C203.302665,22.9826682 203.124001,23.3519978 203.004,23.784 C202.883999,24.2160022 202.824,24.6959974 202.824,25.224 C202.824,25.757336 202.883999,26.2386645 203.004,26.668 C203.124001,27.0973355 203.302665,27.4639985 203.54,27.768 C203.777335,28.0720015 204.073332,28.3053325 204.428,28.468 C204.782668,28.6306675 205.197331,28.712 205.672,28.712 Z M211.864,21.248 L211.864,26.336 C211.864,27.0826704 212.034665,27.6679979 212.376,28.092 C212.717335,28.5160021 213.23733,28.728 213.936,28.728 C214.453336,28.728 214.935998,28.5960013 215.384,28.332 C215.832002,28.0679987 216.234665,27.7013357 216.592,27.232 L216.592,21.248 L217.36,21.248 L217.36,29.208 L216.936,29.208 C216.786666,29.208 216.709333,29.1386674 216.704,29 L216.632,27.816 C216.263998,28.274669 215.838669,28.6426653 215.356,28.92 C214.873331,29.1973347 214.336003,29.336 213.744,29.336 C213.301331,29.336 212.914668,29.2666674 212.584,29.128 C212.253332,28.9893326 211.978668,28.7893346 211.76,28.528 C211.541332,28.2666654 211.376001,27.9520018 211.264,27.584 C211.151999,27.2159982 211.096,26.8000023 211.096,26.336 L211.096,21.248 L211.864,21.248 Z M223.04,29.208 L223.04,17.568 L223.8,17.568 L223.8,22.608 C224.168002,22.1546644 224.587998,21.7933347 225.06,21.524 C225.532002,21.2546653 226.06133,21.12 226.648,21.12 C227.085336,21.12 227.470665,21.1893326 227.804,21.328 C228.137335,21.4666674 228.413332,21.6666654 228.632,21.928 C228.850668,22.1893346 229.015999,22.5039982 229.128,22.872 C229.240001,23.2400018 229.296,23.6559977 229.296,24.12 L229.296,29.208 L228.536,29.208 L228.536,24.12 C228.536,23.3733296 228.365335,22.7880021 228.024,22.364 C227.682665,21.9399979 227.160004,21.728 226.456,21.728 C225.933331,21.728 225.448002,21.8626653 225,22.132 C224.551998,22.4013347 224.152002,22.7706643 223.8,23.24 L223.8,29.208 L223.04,29.208 Z M236.776,29.208 C236.615999,29.208 236.517334,29.1333341 236.48,28.984 L236.368,27.968 C236.149332,28.1813344 235.932001,28.3733325 235.716,28.544 C235.499999,28.7146675 235.274668,28.8586661 235.04,28.976 C234.805332,29.0933339 234.552001,29.1826664 234.28,29.244 C234.007999,29.3053336 233.709335,29.336 233.384,29.336 C233.111999,29.336 232.848001,29.2960004 232.592,29.216 C232.335999,29.1359996 232.109334,29.0133342 231.912,28.848 C231.714666,28.6826658 231.556001,28.470668 231.436,28.212 C231.315999,27.953332 231.256,27.6426685 231.256,27.28 C231.256,26.9439983 231.351999,26.6320014 231.544,26.344 C231.736001,26.0559986 232.035998,25.8053344 232.444,25.592 C232.852002,25.3786656 233.37733,25.2080006 234.02,25.08 C234.66267,24.9519994 235.434662,24.8773334 236.336,24.856 L236.336,24.024 C236.336,23.2879963 236.177335,22.7213353 235.86,22.324 C235.542665,21.9266647 235.072003,21.728 234.448,21.728 C234.063998,21.728 233.737335,21.7813328 233.468,21.888 C233.198665,21.9946672 232.970668,22.1119994 232.784,22.24 C232.597332,22.3680006 232.445334,22.4853328 232.328,22.592 C232.210666,22.6986672 232.112,22.752 232.032,22.752 C231.925333,22.752 231.845334,22.7040005 231.792,22.608 L231.656,22.376 C232.072002,21.9599979 232.509331,21.6453344 232.968,21.432 C233.426669,21.2186656 233.946664,21.112 234.528,21.112 C234.954669,21.112 235.327998,21.1799993 235.648,21.316 C235.968002,21.4520007 236.233332,21.6466654 236.444,21.9 C236.654668,22.1533346 236.813333,22.4599982 236.92,22.82 C237.026667,23.1800018 237.08,23.5813311 237.08,24.024 L237.08,29.208 L236.776,29.208 Z M233.576,28.784 C233.885335,28.784 234.169332,28.750667 234.428,28.684 C234.686668,28.617333 234.926666,28.5240006 235.148,28.404 C235.369334,28.2839994 235.575999,28.1413342 235.768,27.976 C235.960001,27.8106658 236.149332,27.632001 236.336,27.44 L236.336,25.368 C235.578663,25.3893334 234.926669,25.4466662 234.38,25.54 C233.833331,25.6333338 233.382668,25.7599992 233.028,25.92 C232.673332,26.0800008 232.412001,26.2706656 232.244,26.492 C232.075999,26.7133344 231.992,26.9653319 231.992,27.248 C231.992,27.514668 232.036,27.7453324 232.124,27.94 C232.212,28.1346676 232.327999,28.294666 232.472,28.42 C232.616001,28.545334 232.783999,28.637333 232.976,28.696 C233.168001,28.754667 233.367999,28.784 233.576,28.784 Z M242.216,29.208 L241.544,29.208 L238.184,21.248 L238.784,21.248 C238.858667,21.248 238.918666,21.2679998 238.964,21.308 C239.009334,21.3480002 239.042667,21.3919998 239.064,21.44 L241.688,27.72 C241.741334,27.8426673 241.781333,27.9599994 241.808,28.072 L241.888,28.408 C241.914667,28.2959994 241.942667,28.1826672 241.972,28.068 C242.001333,27.9533328 242.04,27.8373339 242.088,27.72 L244.728,21.44 C244.754667,21.381333 244.790666,21.3346668 244.836,21.3 C244.881334,21.2653332 244.936,21.248 245,21.248 L245.576,21.248 L242.216,29.208 Z M249.928,21.12 C250.376002,21.12 250.790665,21.1973326 251.172,21.352 C251.553335,21.5066674 251.883999,21.7319985 252.164,22.028 C252.444001,22.3240015 252.662666,22.6879978 252.82,23.12 C252.977334,23.5520022 253.056,24.0479972 253.056,24.608 C253.056,24.7253339 253.038667,24.8053331 253.004,24.848 C252.969333,24.8906669 252.914667,24.912 252.84,24.912 L247.088,24.912 L247.088,25.064 C247.088,25.6613363 247.157333,26.1866644 247.296,26.64 C247.434667,27.0933356 247.631999,27.4733318 247.888,27.78 C248.144001,28.0866682 248.453332,28.3173326 248.816,28.472 C249.178668,28.6266674 249.583998,28.704 250.032,28.704 C250.432002,28.704 250.778665,28.6600004 251.072,28.572 C251.365335,28.4839996 251.611999,28.3853339 251.812,28.276 C252.012001,28.1666661 252.170666,28.0680004 252.288,27.98 C252.405334,27.8919996 252.490666,27.848 252.544,27.848 C252.613334,27.848 252.666666,27.8746664 252.704,27.928 L252.912,28.184 C252.783999,28.3440008 252.614668,28.4933326 252.404,28.632 C252.193332,28.7706674 251.958668,28.8893328 251.7,28.988 C251.441332,29.0866672 251.164001,29.165333 250.868,29.224 C250.571999,29.282667 250.274668,29.312 249.976,29.312 C249.431997,29.312 248.936002,29.2173343 248.488,29.028 C248.039998,28.8386657 247.656002,28.5626685 247.336,28.2 C247.015998,27.8373315 246.769334,27.393336 246.596,26.868 C246.422666,26.342664 246.336,25.7413367 246.336,25.064 C246.336,24.4933305 246.417333,23.9666691 246.58,23.484 C246.742667,23.0013309 246.977332,22.5853351 247.284,22.236 C247.590668,21.8866649 247.966664,21.6133343 248.412,21.416 C248.857336,21.2186657 249.362664,21.12 249.928,21.12 Z M249.936,21.688 C249.525331,21.688 249.157335,21.7519994 248.832,21.88 C248.506665,22.0080006 248.225335,22.1919988 247.988,22.432 C247.750665,22.6720012 247.558667,22.9599983 247.412,23.296 C247.265333,23.6320017 247.168,24.0079979 247.12,24.424 L252.368,24.424 C252.368,23.9973312 252.309334,23.6146684 252.192,23.276 C252.074666,22.9373316 251.909334,22.6506678 251.696,22.416 C251.482666,22.1813322 251.226668,22.001334 250.928,21.876 C250.629332,21.750666 250.298668,21.688 249.936,21.688 Z M263.272,29.208 C263.111999,29.208 263.013334,29.1333341 262.976,28.984 L262.864,27.968 C262.645332,28.1813344 262.428001,28.3733325 262.212,28.544 C261.995999,28.7146675 261.770668,28.8586661 261.536,28.976 C261.301332,29.0933339 261.048001,29.1826664 260.776,29.244 C260.503999,29.3053336 260.205335,29.336 259.88,29.336 C259.607999,29.336 259.344001,29.2960004 259.088,29.216 C258.831999,29.1359996 258.605334,29.0133342 258.408,28.848 C258.210666,28.6826658 258.052001,28.470668 257.932,28.212 C257.811999,27.953332 257.752,27.6426685 257.752,27.28 C257.752,26.9439983 257.847999,26.6320014 258.04,26.344 C258.232001,26.0559986 258.531998,25.8053344 258.94,25.592 C259.348002,25.3786656 259.87333,25.2080006 260.516,25.08 C261.15867,24.9519994 261.930662,24.8773334 262.832,24.856 L262.832,24.024 C262.832,23.2879963 262.673335,22.7213353 262.356,22.324 C262.038665,21.9266647 261.568003,21.728 260.944,21.728 C260.559998,21.728 260.233335,21.7813328 259.964,21.888 C259.694665,21.9946672 259.466668,22.1119994 259.28,22.24 C259.093332,22.3680006 258.941334,22.4853328 258.824,22.592 C258.706666,22.6986672 258.608,22.752 258.528,22.752 C258.421333,22.752 258.341334,22.7040005 258.288,22.608 L258.152,22.376 C258.568002,21.9599979 259.005331,21.6453344 259.464,21.432 C259.922669,21.2186656 260.442664,21.112 261.024,21.112 C261.450669,21.112 261.823998,21.1799993 262.144,21.316 C262.464002,21.4520007 262.729332,21.6466654 262.94,21.9 C263.150668,22.1533346 263.309333,22.4599982 263.416,22.82 C263.522667,23.1800018 263.576,23.5813311 263.576,24.024 L263.576,29.208 L263.272,29.208 Z M260.072,28.784 C260.381335,28.784 260.665332,28.750667 260.924,28.684 C261.182668,28.617333 261.422666,28.5240006 261.644,28.404 C261.865334,28.2839994 262.071999,28.1413342 262.264,27.976 C262.456001,27.8106658 262.645332,27.632001 262.832,27.44 L262.832,25.368 C262.074663,25.3893334 261.422669,25.4466662 260.876,25.54 C260.329331,25.6333338 259.878668,25.7599992 259.524,25.92 C259.169332,26.0800008 258.908001,26.2706656 258.74,26.492 C258.571999,26.7133344 258.488,26.9653319 258.488,27.248 C258.488,27.514668 258.532,27.7453324 258.62,27.94 C258.708,28.1346676 258.823999,28.294666 258.968,28.42 C259.112001,28.545334 259.279999,28.637333 259.472,28.696 C259.664001,28.754667 259.863999,28.784 260.072,28.784 Z M269.36,29.208 L269.36,22.08 L268.24,22.008 C268.085333,21.9973333 268.008,21.9306673 268.008,21.808 L268.008,21.496 L269.36,21.496 L269.36,20.488 C269.36,20.0346644 269.418666,19.6360017 269.536,19.292 C269.653334,18.9479983 269.818666,18.6613345 270.032,18.432 C270.245334,18.2026655 270.502665,18.0306672 270.804,17.916 C271.105335,17.8013328 271.437332,17.744 271.8,17.744 C271.965334,17.744 272.131999,17.7586665 272.3,17.788 C272.468001,17.8173335 272.615999,17.8586664 272.744,17.912 L272.72,18.28 C272.714667,18.354667 272.664,18.392 272.568,18.392 C272.504,18.392 272.417334,18.3840001 272.308,18.368 C272.198666,18.3519999 272.064001,18.344 271.904,18.344 C271.642665,18.344 271.401334,18.3826663 271.18,18.46 C270.958666,18.5373337 270.768001,18.6613325 270.608,18.832 C270.447999,19.0026675 270.324,19.225332 270.236,19.5 C270.148,19.774668 270.104,20.111998 270.104,20.512 L270.104,21.496 L272.688,21.496 L272.688,22.064 L270.12,22.064 L270.12,29.208 L269.36,29.208 Z M275.2,21.248 L275.2,29.208 L274.44,29.208 L274.44,21.248 L275.2,21.248 Z M275.536,18.504 C275.536,18.6000005 275.516,18.6893329 275.476,18.772 C275.436,18.8546671 275.384,18.9279997 275.32,18.992 C275.256,19.0560003 275.181334,19.1066665 275.096,19.144 C275.010666,19.1813335 274.92,19.2 274.824,19.2 C274.728,19.2 274.637334,19.1813335 274.552,19.144 C274.466666,19.1066665 274.392,19.0560003 274.328,18.992 C274.264,18.9279997 274.213334,18.8546671 274.176,18.772 C274.138666,18.6893329 274.12,18.6000005 274.12,18.504 C274.12,18.4079995 274.138666,18.3160004 274.176,18.228 C274.213334,18.1399996 274.264,18.0640003 274.328,18 C274.392,17.9359997 274.466666,17.8853335 274.552,17.848 C274.637334,17.8106665 274.728,17.792 274.824,17.792 C274.92,17.792 275.010666,17.8106665 275.096,17.848 C275.181334,17.8853335 275.256,17.9359997 275.32,18 C275.384,18.0640003 275.436,18.1399996 275.476,18.228 C275.516,18.3160004 275.536,18.4079995 275.536,18.504 Z M279,17.568 L279,29.208 L278.24,29.208 L278.24,17.568 L279,17.568 Z M283.992,29.336 C283.453331,29.336 283.033335,29.1866682 282.732,28.888 C282.430665,28.5893318 282.28,28.1280031 282.28,27.504 L282.28,22.064 L281.136,22.064 C281.077333,22.064 281.029334,22.0480002 280.992,22.016 C280.954666,21.9839998 280.936,21.938667 280.936,21.88 L280.936,21.584 L282.296,21.488 L282.488,18.64 C282.493333,18.5919998 282.513333,18.5493335 282.548,18.512 C282.582667,18.4746665 282.629333,18.456 282.688,18.456 L283.048,18.456 L283.048,21.496 L285.552,21.496 L285.552,22.064 L283.048,22.064 L283.048,27.464 C283.048,27.6826678 283.076,27.8706659 283.132,28.028 C283.188,28.1853341 283.265333,28.3146662 283.364,28.416 C283.462667,28.5173338 283.578666,28.5919998 283.712,28.64 C283.845334,28.6880002 283.989333,28.712 284.144,28.712 C284.336001,28.712 284.501333,28.6840003 284.64,28.628 C284.778667,28.5719997 284.898666,28.510667 285,28.444 C285.101334,28.377333 285.184,28.3160003 285.248,28.26 C285.312,28.2039997 285.362666,28.176 285.4,28.176 C285.442667,28.176 285.485333,28.2026664 285.528,28.256 L285.736,28.592 C285.533332,28.8160011 285.276002,28.9959993 284.964,29.132 C284.651998,29.2680007 284.328002,29.336 283.992,29.336 Z M290.52,21.12 C290.968002,21.12 291.382665,21.1973326 291.764,21.352 C292.145335,21.5066674 292.475999,21.7319985 292.756,22.028 C293.036001,22.3240015 293.254666,22.6879978 293.412,23.12 C293.569334,23.5520022 293.648,24.0479972 293.648,24.608 C293.648,24.7253339 293.630667,24.8053331 293.596,24.848 C293.561333,24.8906669 293.506667,24.912 293.432,24.912 L287.68,24.912 L287.68,25.064 C287.68,25.6613363 287.749333,26.1866644 287.888,26.64 C288.026667,27.0933356 288.223999,27.4733318 288.48,27.78 C288.736001,28.0866682 289.045332,28.3173326 289.408,28.472 C289.770668,28.6266674 290.175998,28.704 290.624,28.704 C291.024002,28.704 291.370665,28.6600004 291.664,28.572 C291.957335,28.4839996 292.203999,28.3853339 292.404,28.276 C292.604001,28.1666661 292.762666,28.0680004 292.88,27.98 C292.997334,27.8919996 293.082666,27.848 293.136,27.848 C293.205334,27.848 293.258666,27.8746664 293.296,27.928 L293.504,28.184 C293.375999,28.3440008 293.206668,28.4933326 292.996,28.632 C292.785332,28.7706674 292.550668,28.8893328 292.292,28.988 C292.033332,29.0866672 291.756001,29.165333 291.46,29.224 C291.163999,29.282667 290.866668,29.312 290.568,29.312 C290.023997,29.312 289.528002,29.2173343 289.08,29.028 C288.631998,28.8386657 288.248002,28.5626685 287.928,28.2 C287.607998,27.8373315 287.361334,27.393336 287.188,26.868 C287.014666,26.342664 286.928,25.7413367 286.928,25.064 C286.928,24.4933305 287.009333,23.9666691 287.172,23.484 C287.334667,23.0013309 287.569332,22.5853351 287.876,22.236 C288.182668,21.8866649 288.558664,21.6133343 289.004,21.416 C289.449336,21.2186657 289.954664,21.12 290.52,21.12 Z M290.528,21.688 C290.117331,21.688 289.749335,21.7519994 289.424,21.88 C289.098665,22.0080006 288.817335,22.1919988 288.58,22.432 C288.342665,22.6720012 288.150667,22.9599983 288.004,23.296 C287.857333,23.6320017 287.76,24.0079979 287.712,24.424 L292.96,24.424 C292.96,23.9973312 292.901334,23.6146684 292.784,23.276 C292.666666,22.9373316 292.501334,22.6506678 292.288,22.416 C292.074666,22.1813322 291.818668,22.001334 291.52,21.876 C291.221332,21.750666 290.890668,21.688 290.528,21.688 Z M295.696,29.208 L295.696,21.248 L296.096,21.248 C296.186667,21.248 296.252,21.2666665 296.292,21.304 C296.332,21.3413335 296.354667,21.4053329 296.36,21.496 L296.424,23.176 C296.680001,22.5306634 297.021331,22.0253352 297.448,21.66 C297.874669,21.2946648 298.399997,21.112 299.024,21.112 C299.264001,21.112 299.485332,21.1373331 299.688,21.188 C299.890668,21.2386669 300.082666,21.3119995 300.264,21.408 L300.16,21.936 C300.144,22.0213338 300.090667,22.064 300,22.064 C299.968,22.064 299.922667,22.0533334 299.864,22.032 C299.805333,22.0106666 299.732,21.9866668 299.644,21.96 C299.556,21.9333332 299.448001,21.9093334 299.32,21.888 C299.191999,21.8666666 299.045334,21.856 298.88,21.856 C298.27733,21.856 297.782669,22.0426648 297.396,22.416 C297.009331,22.7893352 296.696001,23.3279965 296.456,24.032 L296.456,29.208 L295.696,29.208 Z M309.52,22.232 C309.482666,22.306667 309.424,22.344 309.344,22.344 C309.285333,22.344 309.209334,22.310667 309.116,22.244 C309.022666,22.177333 308.900001,22.1026671 308.748,22.02 C308.595999,21.9373329 308.409334,21.862667 308.188,21.796 C307.966666,21.729333 307.696002,21.696 307.376,21.696 C307.087999,21.696 306.825335,21.7373329 306.588,21.82 C306.350665,21.9026671 306.148001,22.0133326 305.98,22.152 C305.811999,22.2906674 305.681334,22.4519991 305.588,22.636 C305.494666,22.8200009 305.448,23.0133323 305.448,23.216 C305.448,23.4666679 305.511999,23.6746658 305.64,23.84 C305.768001,24.0053342 305.935999,24.1466661 306.144,24.264 C306.352001,24.3813339 306.587999,24.4826662 306.852,24.568 C307.116001,24.6533338 307.386665,24.7386662 307.664,24.824 C307.941335,24.9093338 308.211999,25.0039995 308.476,25.108 C308.740001,25.2120005 308.975999,25.3413326 309.184,25.496 C309.392001,25.6506674 309.559999,25.8399989 309.688,26.064 C309.816001,26.2880011 309.88,26.5599984 309.88,26.88 C309.88,27.2266684 309.817334,27.5493318 309.692,27.848 C309.566666,28.1466682 309.385335,28.4053322 309.148,28.624 C308.910665,28.8426678 308.618668,29.0159994 308.272,29.144 C307.925332,29.2720006 307.530669,29.336 307.088,29.336 C306.527997,29.336 306.045335,29.2466676 305.64,29.068 C305.234665,28.8893324 304.872002,28.6560014 304.552,28.368 L304.736,28.096 C304.762667,28.0533331 304.792,28.0213334 304.824,28 C304.856,27.9786666 304.901333,27.968 304.96,27.968 C305.029334,27.968 305.114666,28.0106662 305.216,28.096 C305.317334,28.1813338 305.449333,28.2733328 305.612,28.372 C305.774667,28.4706672 305.977332,28.5626662 306.22,28.648 C306.462668,28.7333338 306.762665,28.776 307.12,28.776 C307.456002,28.776 307.751999,28.7293338 308.008,28.636 C308.264001,28.5426662 308.477332,28.4160008 308.648,28.256 C308.818668,28.0959992 308.948,27.9080011 309.036,27.692 C309.124,27.4759989 309.168,27.2480012 309.168,27.008 C309.168,26.741332 309.104001,26.5200009 308.976,26.344 C308.847999,26.1679991 308.680001,26.0186673 308.472,25.896 C308.263999,25.7733327 308.028001,25.6693338 307.764,25.584 C307.499999,25.4986662 307.228001,25.4133338 306.948,25.328 C306.667999,25.2426662 306.396001,25.1493338 306.132,25.048 C305.867999,24.9466662 305.632001,24.8186674 305.424,24.664 C305.215999,24.5093326 305.048001,24.3213344 304.92,24.1 C304.791999,23.8786656 304.728,23.6026683 304.728,23.272 C304.728,22.9893319 304.789333,22.7173346 304.912,22.456 C305.034667,22.1946654 305.209332,21.9653343 305.436,21.768 C305.662668,21.5706657 305.938665,21.4133339 306.264,21.296 C306.589335,21.1786661 306.954665,21.12 307.36,21.12 C307.845336,21.12 308.275998,21.1893326 308.652,21.328 C309.028002,21.4666674 309.373332,21.6799986 309.688,21.968 L309.52,22.232 Z M315.016,21.12 C315.464002,21.12 315.878665,21.1973326 316.26,21.352 C316.641335,21.5066674 316.971999,21.7319985 317.252,22.028 C317.532001,22.3240015 317.750666,22.6879978 317.908,23.12 C318.065334,23.5520022 318.144,24.0479972 318.144,24.608 C318.144,24.7253339 318.126667,24.8053331 318.092,24.848 C318.057333,24.8906669 318.002667,24.912 317.928,24.912 L312.176,24.912 L312.176,25.064 C312.176,25.6613363 312.245333,26.1866644 312.384,26.64 C312.522667,27.0933356 312.719999,27.4733318 312.976,27.78 C313.232001,28.0866682 313.541332,28.3173326 313.904,28.472 C314.266668,28.6266674 314.671998,28.704 315.12,28.704 C315.520002,28.704 315.866665,28.6600004 316.16,28.572 C316.453335,28.4839996 316.699999,28.3853339 316.9,28.276 C317.100001,28.1666661 317.258666,28.0680004 317.376,27.98 C317.493334,27.8919996 317.578666,27.848 317.632,27.848 C317.701334,27.848 317.754666,27.8746664 317.792,27.928 L318,28.184 C317.871999,28.3440008 317.702668,28.4933326 317.492,28.632 C317.281332,28.7706674 317.046668,28.8893328 316.788,28.988 C316.529332,29.0866672 316.252001,29.165333 315.956,29.224 C315.659999,29.282667 315.362668,29.312 315.064,29.312 C314.519997,29.312 314.024002,29.2173343 313.576,29.028 C313.127998,28.8386657 312.744002,28.5626685 312.424,28.2 C312.103998,27.8373315 311.857334,27.393336 311.684,26.868 C311.510666,26.342664 311.424,25.7413367 311.424,25.064 C311.424,24.4933305 311.505333,23.9666691 311.668,23.484 C311.830667,23.0013309 312.065332,22.5853351 312.372,22.236 C312.678668,21.8866649 313.054664,21.6133343 313.5,21.416 C313.945336,21.2186657 314.450664,21.12 315.016,21.12 Z M315.024,21.688 C314.613331,21.688 314.245335,21.7519994 313.92,21.88 C313.594665,22.0080006 313.313335,22.1919988 313.076,22.432 C312.838665,22.6720012 312.646667,22.9599983 312.5,23.296 C312.353333,23.6320017 312.256,24.0079979 312.208,24.424 L317.456,24.424 C317.456,23.9973312 317.397334,23.6146684 317.28,23.276 C317.162666,22.9373316 316.997334,22.6506678 316.784,22.416 C316.570666,22.1813322 316.314668,22.001334 316.016,21.876 C315.717332,21.750666 315.386668,21.688 315.024,21.688 Z M322.368,29.336 C321.829331,29.336 321.409335,29.1866682 321.108,28.888 C320.806665,28.5893318 320.656,28.1280031 320.656,27.504 L320.656,22.064 L319.512,22.064 C319.453333,22.064 319.405334,22.0480002 319.368,22.016 C319.330666,21.9839998 319.312,21.938667 319.312,21.88 L319.312,21.584 L320.672,21.488 L320.864,18.64 C320.869333,18.5919998 320.889333,18.5493335 320.924,18.512 C320.958667,18.4746665 321.005333,18.456 321.064,18.456 L321.424,18.456 L321.424,21.496 L323.928,21.496 L323.928,22.064 L321.424,22.064 L321.424,27.464 C321.424,27.6826678 321.452,27.8706659 321.508,28.028 C321.564,28.1853341 321.641333,28.3146662 321.74,28.416 C321.838667,28.5173338 321.954666,28.5919998 322.088,28.64 C322.221334,28.6880002 322.365333,28.712 322.52,28.712 C322.712001,28.712 322.877333,28.6840003 323.016,28.628 C323.154667,28.5719997 323.274666,28.510667 323.376,28.444 C323.477334,28.377333 323.56,28.3160003 323.624,28.26 C323.688,28.2039997 323.738666,28.176 323.776,28.176 C323.818667,28.176 323.861333,28.2026664 323.904,28.256 L324.112,28.592 C323.909332,28.8160011 323.652002,28.9959993 323.34,29.132 C323.027998,29.2680007 322.704002,29.336 322.368,29.336 Z M327.368,24.168 C327.368,22.967994 327.206668,21.8200055 326.884,20.724 C326.561332,19.6279945 326.08267,18.5680051 325.448,17.544 C325.410666,17.485333 325.392,17.4293336 325.392,17.376 C325.392,17.301333 325.426666,17.2453335 325.496,17.208 L325.832,17 C326.237335,17.6293365 326.581332,18.2386637 326.864,18.828 C327.146668,19.4173363 327.373332,20.0039971 327.544,20.588 C327.714668,21.1720029 327.838666,21.7586637 327.916,22.348 C327.993334,22.9373363 328.032,23.5439969 328.032,24.168 C328.032,24.7920031 327.993334,25.3973304 327.916,25.984 C327.838666,26.5706696 327.714668,27.1559971 327.544,27.74 C327.373332,28.3240029 327.146668,28.9106637 326.864,29.5 C326.581332,30.0893363 326.237335,30.6986635 325.832,31.328 L325.496,31.12 C325.421333,31.0826665 325.384,31.0240004 325.384,30.944 C325.384,30.8906664 325.402666,30.834667 325.44,30.776 C326.080003,29.7573282 326.561332,28.7000055 326.884,27.604 C327.206668,26.5079945 327.368,25.3626726 327.368,24.168 Z"/>
  </g>
</svg>
