<svg xmlns="http://www.w3.org/2000/svg" width="440" height="32" viewBox="0 0 440 32">
  <g fill="none" fill-rule="evenodd">
    <rect width="440" height="32"/>
    <path fill="#8CA3B7" fill-rule="nonzero" d="M113.112,15.96 C113.112,17.1546726 113.273332,18.2999945 113.596,19.396 C113.918668,20.4920055 114.399997,21.5493282 115.04,22.568 C115.077334,22.626667 115.096,22.6826664 115.096,22.736 C115.096,22.8160004 115.058667,22.8746665 114.984,22.912 L114.648,23.12 C114.237331,22.4906635 113.892001,21.8813363 113.612,21.292 C113.331999,20.7026637 113.106668,20.1160029 112.936,19.532 C112.765332,18.9479971 112.641334,18.3626696 112.564,17.776 C112.486666,17.1893304 112.448,16.5840031 112.448,15.96 C112.448,15.3359969 112.486666,14.7293363 112.564,14.14 C112.641334,13.5506637 112.765332,12.9640029 112.936,12.38 C113.106668,11.7959971 113.331999,11.2093363 113.612,10.62 C113.892001,10.0306637 114.237331,9.42133648 114.648,8.792 L114.984,9 C115.053334,9.03733352 115.088,9.09333296 115.088,9.168 C115.088,9.2213336 115.069334,9.27733304 115.032,9.336 C114.39733,10.3600051 113.918668,11.4199945 113.596,12.516 C113.273332,13.6120055 113.112,14.759994 113.112,15.96 Z M118.624,15.88 L118.624,21 L117.808,21 L117.808,9.68 L120.696,9.68 C122.002673,9.68 122.978663,9.93199748 123.624,10.436 C124.269337,10.9400025 124.592,11.6799951 124.592,12.656 C124.592,13.0880022 124.517334,13.4826649 124.368,13.84 C124.218666,14.1973351 124.004001,14.5106653 123.724,14.78 C123.443999,15.0493347 123.106669,15.2706658 122.712,15.444 C122.317331,15.6173342 121.872002,15.7306664 121.376,15.784 C121.504001,15.8640004 121.618666,15.970666 121.72,16.104 L125.616,21 L124.904,21 C124.818666,21 124.745334,20.9840002 124.684,20.952 C124.622666,20.9199998 124.562667,20.866667 124.504,20.792 L120.88,16.2 C120.789333,16.0826661 120.692001,16.0000002 120.588,15.952 C120.483999,15.9039998 120.322668,15.88 120.104,15.88 L118.624,15.88 Z M118.624,15.272 L120.592,15.272 C121.093336,15.272 121.542665,15.2120006 121.94,15.092 C122.337335,14.9719994 122.673332,14.8000011 122.948,14.576 C123.222668,14.3519989 123.431999,14.0826682 123.576,13.768 C123.720001,13.4533318 123.792,13.0986686 123.792,12.704 C123.792,11.8986626 123.528003,11.3013353 123,10.912 C122.471997,10.5226647 121.704005,10.328 120.696,10.328 L118.624,10.328 L118.624,15.272 Z M130.28,12.912 C130.728002,12.912 131.142665,12.9893326 131.524,13.144 C131.905335,13.2986674 132.235999,13.5239985 132.516,13.82 C132.796001,14.1160015 133.014666,14.4799978 133.172,14.912 C133.329334,15.3440022 133.408,15.8399972 133.408,16.4 C133.408,16.5173339 133.390667,16.5973331 133.356,16.64 C133.321333,16.6826669 133.266667,16.704 133.192,16.704 L127.44,16.704 L127.44,16.856 C127.44,17.4533363 127.509333,17.9786644 127.648,18.432 C127.786667,18.8853356 127.983999,19.2653318 128.24,19.572 C128.496001,19.8786682 128.805332,20.1093326 129.168,20.264 C129.530668,20.4186674 129.935998,20.496 130.384,20.496 C130.784002,20.496 131.130665,20.4520004 131.424,20.364 C131.717335,20.2759996 131.963999,20.1773339 132.164,20.068 C132.364001,19.9586661 132.522666,19.8600004 132.64,19.772 C132.757334,19.6839996 132.842666,19.64 132.896,19.64 C132.965334,19.64 133.018666,19.6666664 133.056,19.72 L133.264,19.976 C133.135999,20.1360008 132.966668,20.2853326 132.756,20.424 C132.545332,20.5626674 132.310668,20.6813328 132.052,20.78 C131.793332,20.8786672 131.516001,20.957333 131.22,21.016 C130.923999,21.074667 130.626668,21.104 130.328,21.104 C129.783997,21.104 129.288002,21.0093343 128.84,20.82 C128.391998,20.6306657 128.008002,20.3546685 127.688,19.992 C127.367998,19.6293315 127.121334,19.185336 126.948,18.66 C126.774666,18.134664 126.688,17.5333367 126.688,16.856 C126.688,16.2853305 126.769333,15.7586691 126.932,15.276 C127.094667,14.7933309 127.329332,14.3773351 127.636,14.028 C127.942668,13.6786649 128.318664,13.4053343 128.764,13.208 C129.209336,13.0106657 129.714664,12.912 130.28,12.912 Z M130.288,13.48 C129.877331,13.48 129.509335,13.5439994 129.184,13.672 C128.858665,13.8000006 128.577335,13.9839988 128.34,14.224 C128.102665,14.4640012 127.910667,14.7519983 127.764,15.088 C127.617333,15.4240017 127.52,15.7999979 127.472,16.216 L132.72,16.216 C132.72,15.7893312 132.661334,15.4066684 132.544,15.068 C132.426666,14.7293316 132.261334,14.4426678 132.048,14.208 C131.834666,13.9733322 131.578668,13.793334 131.28,13.668 C130.981332,13.542666 130.650668,13.48 130.288,13.48 Z M135.456,21 L135.456,13.04 L135.872,13.04 C136.010667,13.04 136.090667,13.106666 136.112,13.24 L136.184,14.392 C136.338667,14.1733322 136.503999,13.9733342 136.68,13.792 C136.856001,13.6106658 137.043999,13.4546673 137.244,13.324 C137.444001,13.1933327 137.657332,13.0920004 137.884,13.02 C138.110668,12.9479996 138.349332,12.912 138.6,12.912 C139.181336,12.912 139.645332,13.0813316 139.992,13.42 C140.338668,13.7586684 140.573333,14.2293303 140.696,14.832 C140.792,14.5013317 140.926666,14.2160012 141.1,13.976 C141.273334,13.7359988 141.471999,13.5373341 141.696,13.38 C141.920001,13.2226659 142.163999,13.1053337 142.428,13.028 C142.692001,12.9506663 142.962665,12.912 143.24,12.912 C143.634669,12.912 143.989332,12.9773327 144.304,13.108 C144.618668,13.2386673 144.886666,13.4319987 145.108,13.688 C145.329334,13.9440013 145.498666,14.2586648 145.616,14.632 C145.733334,15.0053352 145.792,15.4319976 145.792,15.912 L145.792,21 L145.024,21 L145.024,15.912 C145.024,15.1333294 144.856002,14.540002 144.52,14.132 C144.183998,13.723998 143.704003,13.52 143.08,13.52 C142.802665,13.52 142.537335,13.5706662 142.284,13.672 C142.030665,13.7733338 141.806668,13.923999 141.612,14.124 C141.417332,14.324001 141.262667,14.5733318 141.148,14.872 C141.033333,15.1706682 140.976,15.5173314 140.976,15.912 L140.976,21 L140.216,21 L140.216,15.912 C140.216,15.1386628 140.061335,14.5466687 139.752,14.136 C139.442665,13.7253313 138.992003,13.52 138.4,13.52 C137.967998,13.52 137.568002,13.649332 137.2,13.908 C136.831998,14.166668 136.504001,14.525331 136.216,14.984 L136.216,21 L135.456,21 Z M151.184,12.912 C151.632002,12.912 152.046665,12.9893326 152.428,13.144 C152.809335,13.2986674 153.139999,13.5239985 153.42,13.82 C153.700001,14.1160015 153.918666,14.4799978 154.076,14.912 C154.233334,15.3440022 154.312,15.8399972 154.312,16.4 C154.312,16.5173339 154.294667,16.5973331 154.26,16.64 C154.225333,16.6826669 154.170667,16.704 154.096,16.704 L148.344,16.704 L148.344,16.856 C148.344,17.4533363 148.413333,17.9786644 148.552,18.432 C148.690667,18.8853356 148.887999,19.2653318 149.144,19.572 C149.400001,19.8786682 149.709332,20.1093326 150.072,20.264 C150.434668,20.4186674 150.839998,20.496 151.288,20.496 C151.688002,20.496 152.034665,20.4520004 152.328,20.364 C152.621335,20.2759996 152.867999,20.1773339 153.068,20.068 C153.268001,19.9586661 153.426666,19.8600004 153.544,19.772 C153.661334,19.6839996 153.746666,19.64 153.8,19.64 C153.869334,19.64 153.922666,19.6666664 153.96,19.72 L154.168,19.976 C154.039999,20.1360008 153.870668,20.2853326 153.66,20.424 C153.449332,20.5626674 153.214668,20.6813328 152.956,20.78 C152.697332,20.8786672 152.420001,20.957333 152.124,21.016 C151.827999,21.074667 151.530668,21.104 151.232,21.104 C150.687997,21.104 150.192002,21.0093343 149.744,20.82 C149.295998,20.6306657 148.912002,20.3546685 148.592,19.992 C148.271998,19.6293315 148.025334,19.185336 147.852,18.66 C147.678666,18.134664 147.592,17.5333367 147.592,16.856 C147.592,16.2853305 147.673333,15.7586691 147.836,15.276 C147.998667,14.7933309 148.233332,14.3773351 148.54,14.028 C148.846668,13.6786649 149.222664,13.4053343 149.668,13.208 C150.113336,13.0106657 150.618664,12.912 151.184,12.912 Z M151.192,13.48 C150.781331,13.48 150.413335,13.5439994 150.088,13.672 C149.762665,13.8000006 149.481335,13.9839988 149.244,14.224 C149.006665,14.4640012 148.814667,14.7519983 148.668,15.088 C148.521333,15.4240017 148.424,15.7999979 148.376,16.216 L153.624,16.216 C153.624,15.7893312 153.565334,15.4066684 153.448,15.068 C153.330666,14.7293316 153.165334,14.4426678 152.952,14.208 C152.738666,13.9733322 152.482668,13.793334 152.184,13.668 C151.885332,13.542666 151.554668,13.48 151.192,13.48 Z M156.36,21 L156.36,13.04 L156.776,13.04 C156.914667,13.04 156.994667,13.106666 157.016,13.24 L157.088,14.392 C157.242667,14.1733322 157.407999,13.9733342 157.584,13.792 C157.760001,13.6106658 157.947999,13.4546673 158.148,13.324 C158.348001,13.1933327 158.561332,13.0920004 158.788,13.02 C159.014668,12.9479996 159.253332,12.912 159.504,12.912 C160.085336,12.912 160.549332,13.0813316 160.896,13.42 C161.242668,13.7586684 161.477333,14.2293303 161.6,14.832 C161.696,14.5013317 161.830666,14.2160012 162.004,13.976 C162.177334,13.7359988 162.375999,13.5373341 162.6,13.38 C162.824001,13.2226659 163.067999,13.1053337 163.332,13.028 C163.596001,12.9506663 163.866665,12.912 164.144,12.912 C164.538669,12.912 164.893332,12.9773327 165.208,13.108 C165.522668,13.2386673 165.790666,13.4319987 166.012,13.688 C166.233334,13.9440013 166.402666,14.2586648 166.52,14.632 C166.637334,15.0053352 166.696,15.4319976 166.696,15.912 L166.696,21 L165.928,21 L165.928,15.912 C165.928,15.1333294 165.760002,14.540002 165.424,14.132 C165.087998,13.723998 164.608003,13.52 163.984,13.52 C163.706665,13.52 163.441335,13.5706662 163.188,13.672 C162.934665,13.7733338 162.710668,13.923999 162.516,14.124 C162.321332,14.324001 162.166667,14.5733318 162.052,14.872 C161.937333,15.1706682 161.88,15.5173314 161.88,15.912 L161.88,21 L161.12,21 L161.12,15.912 C161.12,15.1386628 160.965335,14.5466687 160.656,14.136 C160.346665,13.7253313 159.896003,13.52 159.304,13.52 C158.871998,13.52 158.472002,13.649332 158.104,13.908 C157.735998,14.166668 157.408001,14.525331 157.12,14.984 L157.12,21 L156.36,21 Z M169.168,21 L169.168,9.36 L169.936,9.36 L169.936,14.432 C170.288002,13.9626643 170.695998,13.5920014 171.16,13.32 C171.624002,13.0479986 172.146664,12.912 172.728,12.912 C173.704005,12.912 174.465331,13.24933 175.012,13.924 C175.558669,14.59867 175.832,15.6133266 175.832,16.968 C175.832,17.5493362 175.756001,18.0919975 175.604,18.596 C175.451999,19.1000025 175.228001,19.5373315 174.932,19.908 C174.635999,20.2786685 174.273335,20.5706656 173.844,20.784 C173.414665,20.9973344 172.920003,21.104 172.36,21.104 C171.805331,21.104 171.328002,20.9960011 170.928,20.78 C170.527998,20.5639989 170.184001,20.2453354 169.896,19.824 L169.848,20.8 C169.832,20.933334 169.760001,21 169.632,21 L169.168,21 Z M172.512,13.52 C171.983997,13.52 171.506669,13.6559986 171.08,13.928 C170.653331,14.2000014 170.272002,14.5786642 169.936,15.064 L169.936,19.264 C170.240002,19.722669 170.575998,20.0439991 170.944,20.228 C171.312002,20.4120009 171.735998,20.504 172.216,20.504 C172.685336,20.504 173.095998,20.4186675 173.448,20.248 C173.800002,20.0773325 174.094665,19.8360016 174.332,19.524 C174.569335,19.2119984 174.747999,18.8386688 174.868,18.404 C174.988001,17.9693312 175.048,17.4906693 175.048,16.968 C175.048,15.7839941 174.829336,14.9133361 174.392,14.356 C173.954664,13.7986639 173.328004,13.52 172.512,13.52 Z M180.824,12.912 C181.272002,12.912 181.686665,12.9893326 182.068,13.144 C182.449335,13.2986674 182.779999,13.5239985 183.06,13.82 C183.340001,14.1160015 183.558666,14.4799978 183.716,14.912 C183.873334,15.3440022 183.952,15.8399972 183.952,16.4 C183.952,16.5173339 183.934667,16.5973331 183.9,16.64 C183.865333,16.6826669 183.810667,16.704 183.736,16.704 L177.984,16.704 L177.984,16.856 C177.984,17.4533363 178.053333,17.9786644 178.192,18.432 C178.330667,18.8853356 178.527999,19.2653318 178.784,19.572 C179.040001,19.8786682 179.349332,20.1093326 179.712,20.264 C180.074668,20.4186674 180.479998,20.496 180.928,20.496 C181.328002,20.496 181.674665,20.4520004 181.968,20.364 C182.261335,20.2759996 182.507999,20.1773339 182.708,20.068 C182.908001,19.9586661 183.066666,19.8600004 183.184,19.772 C183.301334,19.6839996 183.386666,19.64 183.44,19.64 C183.509334,19.64 183.562666,19.6666664 183.6,19.72 L183.808,19.976 C183.679999,20.1360008 183.510668,20.2853326 183.3,20.424 C183.089332,20.5626674 182.854668,20.6813328 182.596,20.78 C182.337332,20.8786672 182.060001,20.957333 181.764,21.016 C181.467999,21.074667 181.170668,21.104 180.872,21.104 C180.327997,21.104 179.832002,21.0093343 179.384,20.82 C178.935998,20.6306657 178.552002,20.3546685 178.232,19.992 C177.911998,19.6293315 177.665334,19.185336 177.492,18.66 C177.318666,18.134664 177.232,17.5333367 177.232,16.856 C177.232,16.2853305 177.313333,15.7586691 177.476,15.276 C177.638667,14.7933309 177.873332,14.3773351 178.18,14.028 C178.486668,13.6786649 178.862664,13.4053343 179.308,13.208 C179.753336,13.0106657 180.258664,12.912 180.824,12.912 Z M180.832,13.48 C180.421331,13.48 180.053335,13.5439994 179.728,13.672 C179.402665,13.8000006 179.121335,13.9839988 178.884,14.224 C178.646665,14.4640012 178.454667,14.7519983 178.308,15.088 C178.161333,15.4240017 178.064,15.7999979 178.016,16.216 L183.264,16.216 C183.264,15.7893312 183.205334,15.4066684 183.088,15.068 C182.970666,14.7293316 182.805334,14.4426678 182.592,14.208 C182.378666,13.9733322 182.122668,13.793334 181.824,13.668 C181.525332,13.542666 181.194668,13.48 180.832,13.48 Z M186,21 L186,13.04 L186.4,13.04 C186.490667,13.04 186.556,13.0586665 186.596,13.096 C186.636,13.1333335 186.658667,13.1973329 186.664,13.288 L186.728,14.968 C186.984001,14.3226634 187.325331,13.8173352 187.752,13.452 C188.178669,13.0866648 188.703997,12.904 189.328,12.904 C189.568001,12.904 189.789332,12.9293331 189.992,12.98 C190.194668,13.0306669 190.386666,13.1039995 190.568,13.2 L190.464,13.728 C190.448,13.8133338 190.394667,13.856 190.304,13.856 C190.272,13.856 190.226667,13.8453334 190.168,13.824 C190.109333,13.8026666 190.036,13.7786668 189.948,13.752 C189.86,13.7253332 189.752001,13.7013334 189.624,13.68 C189.495999,13.6586666 189.349334,13.648 189.184,13.648 C188.58133,13.648 188.086669,13.8346648 187.7,14.208 C187.313331,14.5813352 187.000001,15.1199965 186.76,15.824 L186.76,21 L186,21 Z M197.176,23.56 C197.144,23.634667 197.102667,23.6959998 197.052,23.744 C197.001333,23.7920002 196.928,23.816 196.832,23.816 L196.288,23.816 L197.688,20.704 L194.32,13.04 L194.952,13.04 C195.032,13.04 195.094666,13.0599998 195.14,13.1 C195.185334,13.1400002 195.218667,13.1839998 195.24,13.232 L197.92,19.424 C197.952,19.5040004 197.98,19.5853329 198.004,19.668 C198.028,19.7506671 198.050667,19.8346662 198.072,19.92 C198.098667,19.8346662 198.126667,19.7506671 198.156,19.668 C198.185333,19.5853329 198.216,19.5040004 198.248,19.424 L200.896,13.232 C200.922667,13.173333 200.96,13.1266668 201.008,13.092 C201.056,13.0573332 201.109333,13.04 201.168,13.04 L201.752,13.04 L197.176,23.56 Z M206.264,12.912 C206.83467,12.912 207.345331,13.0093324 207.796,13.204 C208.246669,13.3986676 208.626665,13.6746649 208.936,14.032 C209.245335,14.3893351 209.481333,14.8199975 209.644,15.324 C209.806667,15.8280025 209.888,16.3919969 209.888,17.016 C209.888,17.6400031 209.806667,18.2026642 209.644,18.704 C209.481333,19.2053358 209.245335,19.6346649 208.936,19.992 C208.626665,20.3493351 208.246669,20.623999 207.796,20.816 C207.345331,21.008001 206.83467,21.104 206.264,21.104 C205.69333,21.104 205.182669,21.008001 204.732,20.816 C204.281331,20.623999 203.900002,20.3493351 203.588,19.992 C203.275998,19.6346649 203.038667,19.2053358 202.876,18.704 C202.713333,18.2026642 202.632,17.6400031 202.632,17.016 C202.632,16.3919969 202.713333,15.8280025 202.876,15.324 C203.038667,14.8199975 203.275998,14.3893351 203.588,14.032 C203.900002,13.6746649 204.281331,13.3986676 204.732,13.204 C205.182669,13.0093324 205.69333,12.912 206.264,12.912 Z M206.264,20.504 C206.738669,20.504 207.153332,20.4226675 207.508,20.26 C207.862668,20.0973325 208.158665,19.8640015 208.396,19.56 C208.633335,19.2559985 208.810666,18.8893355 208.928,18.46 C209.045334,18.0306645 209.104,17.549336 209.104,17.016 C209.104,16.4879974 209.045334,16.0080022 208.928,15.576 C208.810666,15.1439978 208.633335,14.7746682 208.396,14.468 C208.158665,14.1613318 207.862668,13.9253342 207.508,13.76 C207.153332,13.5946658 206.738669,13.512 206.264,13.512 C205.789331,13.512 205.374668,13.5946658 205.02,13.76 C204.665332,13.9253342 204.369335,14.1613318 204.132,14.468 C203.894665,14.7746682 203.716001,15.1439978 203.596,15.576 C203.475999,16.0080022 203.416,16.4879974 203.416,17.016 C203.416,17.549336 203.475999,18.0306645 203.596,18.46 C203.716001,18.8893355 203.894665,19.2559985 204.132,19.56 C204.369335,19.8640015 204.665332,20.0973325 205.02,20.26 C205.374668,20.4226675 205.789331,20.504 206.264,20.504 Z M212.456,13.04 L212.456,18.128 C212.456,18.8746704 212.626665,19.4599979 212.968,19.884 C213.309335,20.3080021 213.82933,20.52 214.528,20.52 C215.045336,20.52 215.527998,20.3880013 215.976,20.124 C216.424002,19.8599987 216.826665,19.4933357 217.184,19.024 L217.184,13.04 L217.952,13.04 L217.952,21 L217.528,21 C217.378666,21 217.301333,20.9306674 217.296,20.792 L217.224,19.608 C216.855998,20.066669 216.430669,20.4346653 215.948,20.712 C215.465331,20.9893347 214.928003,21.128 214.336,21.128 C213.893331,21.128 213.506668,21.0586674 213.176,20.92 C212.845332,20.7813326 212.570668,20.5813346 212.352,20.32 C212.133332,20.0586654 211.968001,19.7440018 211.856,19.376 C211.743999,19.0079982 211.688,18.5920023 211.688,18.128 L211.688,13.04 L212.456,13.04 Z M223.632,21 L223.632,9.36 L224.392,9.36 L224.392,14.4 C224.760002,13.9466644 225.179998,13.5853347 225.652,13.316 C226.124002,13.0466653 226.65333,12.912 227.24,12.912 C227.677336,12.912 228.062665,12.9813326 228.396,13.12 C228.729335,13.2586674 229.005332,13.4586654 229.224,13.72 C229.442668,13.9813346 229.607999,14.2959982 229.72,14.664 C229.832001,15.0320018 229.888,15.4479977 229.888,15.912 L229.888,21 L229.128,21 L229.128,15.912 C229.128,15.1653296 228.957335,14.5800021 228.616,14.156 C228.274665,13.7319979 227.752004,13.52 227.048,13.52 C226.525331,13.52 226.040002,13.6546653 225.592,13.924 C225.143998,14.1933347 224.744002,14.5626643 224.392,15.032 L224.392,21 L223.632,21 Z M237.368,21 C237.207999,21 237.109334,20.9253341 237.072,20.776 L236.96,19.76 C236.741332,19.9733344 236.524001,20.1653325 236.308,20.336 C236.091999,20.5066675 235.866668,20.6506661 235.632,20.768 C235.397332,20.8853339 235.144001,20.9746664 234.872,21.036 C234.599999,21.0973336 234.301335,21.128 233.976,21.128 C233.703999,21.128 233.440001,21.0880004 233.184,21.008 C232.927999,20.9279996 232.701334,20.8053342 232.504,20.64 C232.306666,20.4746658 232.148001,20.262668 232.028,20.004 C231.907999,19.745332 231.848,19.4346685 231.848,19.072 C231.848,18.7359983 231.943999,18.4240014 232.136,18.136 C232.328001,17.8479986 232.627998,17.5973344 233.036,17.384 C233.444002,17.1706656 233.96933,17.0000006 234.612,16.872 C235.25467,16.7439994 236.026662,16.6693334 236.928,16.648 L236.928,15.816 C236.928,15.0799963 236.769335,14.5133353 236.452,14.116 C236.134665,13.7186647 235.664003,13.52 235.04,13.52 C234.655998,13.52 234.329335,13.5733328 234.06,13.68 C233.790665,13.7866672 233.562668,13.9039994 233.376,14.032 C233.189332,14.1600006 233.037334,14.2773328 232.92,14.384 C232.802666,14.4906672 232.704,14.544 232.624,14.544 C232.517333,14.544 232.437334,14.4960005 232.384,14.4 L232.248,14.168 C232.664002,13.7519979 233.101331,13.4373344 233.56,13.224 C234.018669,13.0106656 234.538664,12.904 235.12,12.904 C235.546669,12.904 235.919998,12.9719993 236.24,13.108 C236.560002,13.2440007 236.825332,13.4386654 237.036,13.692 C237.246668,13.9453346 237.405333,14.2519982 237.512,14.612 C237.618667,14.9720018 237.672,15.3733311 237.672,15.816 L237.672,21 L237.368,21 Z M234.168,20.576 C234.477335,20.576 234.761332,20.542667 235.02,20.476 C235.278668,20.409333 235.518666,20.3160006 235.74,20.196 C235.961334,20.0759994 236.167999,19.9333342 236.36,19.768 C236.552001,19.6026658 236.741332,19.424001 236.928,19.232 L236.928,17.16 C236.170663,17.1813334 235.518669,17.2386662 234.972,17.332 C234.425331,17.4253338 233.974668,17.5519992 233.62,17.712 C233.265332,17.8720008 233.004001,18.0626656 232.836,18.284 C232.667999,18.5053344 232.584,18.7573319 232.584,19.04 C232.584,19.306668 232.628,19.5373324 232.716,19.732 C232.804,19.9266676 232.919999,20.086666 233.064,20.212 C233.208001,20.337334 233.375999,20.429333 233.568,20.488 C233.760001,20.546667 233.959999,20.576 234.168,20.576 Z M243.008,21 L242.336,21 L238.976,13.04 L239.576,13.04 C239.650667,13.04 239.710666,13.0599998 239.756,13.1 C239.801334,13.1400002 239.834667,13.1839998 239.856,13.232 L242.48,19.512 C242.533334,19.6346673 242.573333,19.7519994 242.6,19.864 L242.68,20.2 C242.706667,20.0879994 242.734667,19.9746672 242.764,19.86 C242.793333,19.7453328 242.832,19.6293339 242.88,19.512 L245.52,13.232 C245.546667,13.173333 245.582666,13.1266668 245.628,13.092 C245.673334,13.0573332 245.728,13.04 245.792,13.04 L246.368,13.04 L243.008,21 Z M250.864,12.912 C251.312002,12.912 251.726665,12.9893326 252.108,13.144 C252.489335,13.2986674 252.819999,13.5239985 253.1,13.82 C253.380001,14.1160015 253.598666,14.4799978 253.756,14.912 C253.913334,15.3440022 253.992,15.8399972 253.992,16.4 C253.992,16.5173339 253.974667,16.5973331 253.94,16.64 C253.905333,16.6826669 253.850667,16.704 253.776,16.704 L248.024,16.704 L248.024,16.856 C248.024,17.4533363 248.093333,17.9786644 248.232,18.432 C248.370667,18.8853356 248.567999,19.2653318 248.824,19.572 C249.080001,19.8786682 249.389332,20.1093326 249.752,20.264 C250.114668,20.4186674 250.519998,20.496 250.968,20.496 C251.368002,20.496 251.714665,20.4520004 252.008,20.364 C252.301335,20.2759996 252.547999,20.1773339 252.748,20.068 C252.948001,19.9586661 253.106666,19.8600004 253.224,19.772 C253.341334,19.6839996 253.426666,19.64 253.48,19.64 C253.549334,19.64 253.602666,19.6666664 253.64,19.72 L253.848,19.976 C253.719999,20.1360008 253.550668,20.2853326 253.34,20.424 C253.129332,20.5626674 252.894668,20.6813328 252.636,20.78 C252.377332,20.8786672 252.100001,20.957333 251.804,21.016 C251.507999,21.074667 251.210668,21.104 250.912,21.104 C250.367997,21.104 249.872002,21.0093343 249.424,20.82 C248.975998,20.6306657 248.592002,20.3546685 248.272,19.992 C247.951998,19.6293315 247.705334,19.185336 247.532,18.66 C247.358666,18.134664 247.272,17.5333367 247.272,16.856 C247.272,16.2853305 247.353333,15.7586691 247.516,15.276 C247.678667,14.7933309 247.913332,14.3773351 248.22,14.028 C248.526668,13.6786649 248.902664,13.4053343 249.348,13.208 C249.793336,13.0106657 250.298664,12.912 250.864,12.912 Z M250.872,13.48 C250.461331,13.48 250.093335,13.5439994 249.768,13.672 C249.442665,13.8000006 249.161335,13.9839988 248.924,14.224 C248.686665,14.4640012 248.494667,14.7519983 248.348,15.088 C248.201333,15.4240017 248.104,15.7999979 248.056,16.216 L253.304,16.216 C253.304,15.7893312 253.245334,15.4066684 253.128,15.068 C253.010666,14.7293316 252.845334,14.4426678 252.632,14.208 C252.418666,13.9733322 252.162668,13.793334 251.864,13.668 C251.565332,13.542666 251.234668,13.48 250.872,13.48 Z M264.208,21 C264.047999,21 263.949334,20.9253341 263.912,20.776 L263.8,19.76 C263.581332,19.9733344 263.364001,20.1653325 263.148,20.336 C262.931999,20.5066675 262.706668,20.6506661 262.472,20.768 C262.237332,20.8853339 261.984001,20.9746664 261.712,21.036 C261.439999,21.0973336 261.141335,21.128 260.816,21.128 C260.543999,21.128 260.280001,21.0880004 260.024,21.008 C259.767999,20.9279996 259.541334,20.8053342 259.344,20.64 C259.146666,20.4746658 258.988001,20.262668 258.868,20.004 C258.747999,19.745332 258.688,19.4346685 258.688,19.072 C258.688,18.7359983 258.783999,18.4240014 258.976,18.136 C259.168001,17.8479986 259.467998,17.5973344 259.876,17.384 C260.284002,17.1706656 260.80933,17.0000006 261.452,16.872 C262.09467,16.7439994 262.866662,16.6693334 263.768,16.648 L263.768,15.816 C263.768,15.0799963 263.609335,14.5133353 263.292,14.116 C262.974665,13.7186647 262.504003,13.52 261.88,13.52 C261.495998,13.52 261.169335,13.5733328 260.9,13.68 C260.630665,13.7866672 260.402668,13.9039994 260.216,14.032 C260.029332,14.1600006 259.877334,14.2773328 259.76,14.384 C259.642666,14.4906672 259.544,14.544 259.464,14.544 C259.357333,14.544 259.277334,14.4960005 259.224,14.4 L259.088,14.168 C259.504002,13.7519979 259.941331,13.4373344 260.4,13.224 C260.858669,13.0106656 261.378664,12.904 261.96,12.904 C262.386669,12.904 262.759998,12.9719993 263.08,13.108 C263.400002,13.2440007 263.665332,13.4386654 263.876,13.692 C264.086668,13.9453346 264.245333,14.2519982 264.352,14.612 C264.458667,14.9720018 264.512,15.3733311 264.512,15.816 L264.512,21 L264.208,21 Z M261.008,20.576 C261.317335,20.576 261.601332,20.542667 261.86,20.476 C262.118668,20.409333 262.358666,20.3160006 262.58,20.196 C262.801334,20.0759994 263.007999,19.9333342 263.2,19.768 C263.392001,19.6026658 263.581332,19.424001 263.768,19.232 L263.768,17.16 C263.010663,17.1813334 262.358669,17.2386662 261.812,17.332 C261.265331,17.4253338 260.814668,17.5519992 260.46,17.712 C260.105332,17.8720008 259.844001,18.0626656 259.676,18.284 C259.507999,18.5053344 259.424,18.7573319 259.424,19.04 C259.424,19.306668 259.468,19.5373324 259.556,19.732 C259.644,19.9266676 259.759999,20.086666 259.904,20.212 C260.048001,20.337334 260.215999,20.429333 260.408,20.488 C260.600001,20.546667 260.799999,20.576 261.008,20.576 Z M270.296,21 L270.296,13.872 L269.176,13.8 C269.021333,13.7893333 268.944,13.7226673 268.944,13.6 L268.944,13.288 L270.296,13.288 L270.296,12.608 C270.296,12.1173309 270.367999,11.676002 270.512,11.284 C270.656001,10.891998 270.865332,10.558668 271.14,10.284 C271.414668,10.009332 271.749331,9.7986674 272.144,9.652 C272.538669,9.5053326 272.989331,9.432 273.496,9.432 C273.672001,9.432 273.854666,9.44666652 274.044,9.476 C274.233334,9.50533348 274.391999,9.5466664 274.52,9.6 L274.488,9.984 C274.482667,10.0373336 274.445334,10.064 274.376,10.064 C274.317333,10.064 274.230667,10.0546668 274.116,10.036 C274.001333,10.0173332 273.856001,10.008 273.68,10.008 C272.837329,10.008 272.186669,10.2239978 271.728,10.656 C271.269331,11.0880022 271.04,11.7466622 271.04,12.632 L271.04,13.288 L275.704,13.288 L275.704,21 L274.936,21 L274.936,13.856 L271.056,13.856 L271.056,21 L270.296,21 Z M279.512,9.36 L279.512,21 L278.752,21 L278.752,9.36 L279.512,9.36 Z M284.504,21.128 C283.965331,21.128 283.545335,20.9786682 283.244,20.68 C282.942665,20.3813318 282.792,19.9200031 282.792,19.296 L282.792,13.856 L281.648,13.856 C281.589333,13.856 281.541334,13.8400002 281.504,13.808 C281.466666,13.7759998 281.448,13.730667 281.448,13.672 L281.448,13.376 L282.808,13.28 L283,10.432 C283.005333,10.3839998 283.025333,10.3413335 283.06,10.304 C283.094667,10.2666665 283.141333,10.248 283.2,10.248 L283.56,10.248 L283.56,13.288 L286.064,13.288 L286.064,13.856 L283.56,13.856 L283.56,19.256 C283.56,19.4746678 283.588,19.6626659 283.644,19.82 C283.7,19.9773341 283.777333,20.1066662 283.876,20.208 C283.974667,20.3093338 284.090666,20.3839998 284.224,20.432 C284.357334,20.4800002 284.501333,20.504 284.656,20.504 C284.848001,20.504 285.013333,20.4760003 285.152,20.42 C285.290667,20.3639997 285.410666,20.302667 285.512,20.236 C285.613334,20.169333 285.696,20.1080003 285.76,20.052 C285.824,19.9959997 285.874666,19.968 285.912,19.968 C285.954667,19.968 285.997333,19.9946664 286.04,20.048 L286.248,20.384 C286.045332,20.6080011 285.788002,20.7879993 285.476,20.924 C285.163998,21.0600007 284.840002,21.128 284.504,21.128 Z M291.032,12.912 C291.480002,12.912 291.894665,12.9893326 292.276,13.144 C292.657335,13.2986674 292.987999,13.5239985 293.268,13.82 C293.548001,14.1160015 293.766666,14.4799978 293.924,14.912 C294.081334,15.3440022 294.16,15.8399972 294.16,16.4 C294.16,16.5173339 294.142667,16.5973331 294.108,16.64 C294.073333,16.6826669 294.018667,16.704 293.944,16.704 L288.192,16.704 L288.192,16.856 C288.192,17.4533363 288.261333,17.9786644 288.4,18.432 C288.538667,18.8853356 288.735999,19.2653318 288.992,19.572 C289.248001,19.8786682 289.557332,20.1093326 289.92,20.264 C290.282668,20.4186674 290.687998,20.496 291.136,20.496 C291.536002,20.496 291.882665,20.4520004 292.176,20.364 C292.469335,20.2759996 292.715999,20.1773339 292.916,20.068 C293.116001,19.9586661 293.274666,19.8600004 293.392,19.772 C293.509334,19.6839996 293.594666,19.64 293.648,19.64 C293.717334,19.64 293.770666,19.6666664 293.808,19.72 L294.016,19.976 C293.887999,20.1360008 293.718668,20.2853326 293.508,20.424 C293.297332,20.5626674 293.062668,20.6813328 292.804,20.78 C292.545332,20.8786672 292.268001,20.957333 291.972,21.016 C291.675999,21.074667 291.378668,21.104 291.08,21.104 C290.535997,21.104 290.040002,21.0093343 289.592,20.82 C289.143998,20.6306657 288.760002,20.3546685 288.44,19.992 C288.119998,19.6293315 287.873334,19.185336 287.7,18.66 C287.526666,18.134664 287.44,17.5333367 287.44,16.856 C287.44,16.2853305 287.521333,15.7586691 287.684,15.276 C287.846667,14.7933309 288.081332,14.3773351 288.388,14.028 C288.694668,13.6786649 289.070664,13.4053343 289.516,13.208 C289.961336,13.0106657 290.466664,12.912 291.032,12.912 Z M291.04,13.48 C290.629331,13.48 290.261335,13.5439994 289.936,13.672 C289.610665,13.8000006 289.329335,13.9839988 289.092,14.224 C288.854665,14.4640012 288.662667,14.7519983 288.516,15.088 C288.369333,15.4240017 288.272,15.7999979 288.224,16.216 L293.472,16.216 C293.472,15.7893312 293.413334,15.4066684 293.296,15.068 C293.178666,14.7293316 293.013334,14.4426678 292.8,14.208 C292.586666,13.9733322 292.330668,13.793334 292.032,13.668 C291.733332,13.542666 291.402668,13.48 291.04,13.48 Z M296.208,21 L296.208,13.04 L296.608,13.04 C296.698667,13.04 296.764,13.0586665 296.804,13.096 C296.844,13.1333335 296.866667,13.1973329 296.872,13.288 L296.936,14.968 C297.192001,14.3226634 297.533331,13.8173352 297.96,13.452 C298.386669,13.0866648 298.911997,12.904 299.536,12.904 C299.776001,12.904 299.997332,12.9293331 300.2,12.98 C300.402668,13.0306669 300.594666,13.1039995 300.776,13.2 L300.672,13.728 C300.656,13.8133338 300.602667,13.856 300.512,13.856 C300.48,13.856 300.434667,13.8453334 300.376,13.824 C300.317333,13.8026666 300.244,13.7786668 300.156,13.752 C300.068,13.7253332 299.960001,13.7013334 299.832,13.68 C299.703999,13.6586666 299.557334,13.648 299.392,13.648 C298.78933,13.648 298.294669,13.8346648 297.908,14.208 C297.521331,14.5813352 297.208001,15.1199965 296.968,15.824 L296.968,21 L296.208,21 Z M310.032,14.024 C309.994666,14.098667 309.936,14.136 309.856,14.136 C309.797333,14.136 309.721334,14.102667 309.628,14.036 C309.534666,13.969333 309.412001,13.8946671 309.26,13.812 C309.107999,13.7293329 308.921334,13.654667 308.7,13.588 C308.478666,13.521333 308.208002,13.488 307.888,13.488 C307.599999,13.488 307.337335,13.5293329 307.1,13.612 C306.862665,13.6946671 306.660001,13.8053326 306.492,13.944 C306.323999,14.0826674 306.193334,14.2439991 306.1,14.428 C306.006666,14.6120009 305.96,14.8053323 305.96,15.008 C305.96,15.2586679 306.023999,15.4666658 306.152,15.632 C306.280001,15.7973342 306.447999,15.9386661 306.656,16.056 C306.864001,16.1733339 307.099999,16.2746662 307.364,16.36 C307.628001,16.4453338 307.898665,16.5306662 308.176,16.616 C308.453335,16.7013338 308.723999,16.7959995 308.988,16.9 C309.252001,17.0040005 309.487999,17.1333326 309.696,17.288 C309.904001,17.4426674 310.071999,17.6319989 310.2,17.856 C310.328001,18.0800011 310.392,18.3519984 310.392,18.672 C310.392,19.0186684 310.329334,19.3413318 310.204,19.64 C310.078666,19.9386682 309.897335,20.1973322 309.66,20.416 C309.422665,20.6346678 309.130668,20.8079994 308.784,20.936 C308.437332,21.0640006 308.042669,21.128 307.6,21.128 C307.039997,21.128 306.557335,21.0386676 306.152,20.86 C305.746665,20.6813324 305.384002,20.4480014 305.064,20.16 L305.248,19.888 C305.274667,19.8453331 305.304,19.8133334 305.336,19.792 C305.368,19.7706666 305.413333,19.76 305.472,19.76 C305.541334,19.76 305.626666,19.8026662 305.728,19.888 C305.829334,19.9733338 305.961333,20.0653328 306.124,20.164 C306.286667,20.2626672 306.489332,20.3546662 306.732,20.44 C306.974668,20.5253338 307.274665,20.568 307.632,20.568 C307.968002,20.568 308.263999,20.5213338 308.52,20.428 C308.776001,20.3346662 308.989332,20.2080008 309.16,20.048 C309.330668,19.8879992 309.46,19.7000011 309.548,19.484 C309.636,19.2679989 309.68,19.0400012 309.68,18.8 C309.68,18.533332 309.616001,18.3120009 309.488,18.136 C309.359999,17.9599991 309.192001,17.8106673 308.984,17.688 C308.775999,17.5653327 308.540001,17.4613338 308.276,17.376 C308.011999,17.2906662 307.740001,17.2053338 307.46,17.12 C307.179999,17.0346662 306.908001,16.9413338 306.644,16.84 C306.379999,16.7386662 306.144001,16.6106674 305.936,16.456 C305.727999,16.3013326 305.560001,16.1133344 305.432,15.892 C305.303999,15.6706656 305.24,15.3946683 305.24,15.064 C305.24,14.7813319 305.301333,14.5093346 305.424,14.248 C305.546667,13.9866654 305.721332,13.7573343 305.948,13.56 C306.174668,13.3626657 306.450665,13.2053339 306.776,13.088 C307.101335,12.9706661 307.466665,12.912 307.872,12.912 C308.357336,12.912 308.787998,12.9813326 309.164,13.12 C309.540002,13.2586674 309.885332,13.4719986 310.2,13.76 L310.032,14.024 Z M315.528,12.912 C315.976002,12.912 316.390665,12.9893326 316.772,13.144 C317.153335,13.2986674 317.483999,13.5239985 317.764,13.82 C318.044001,14.1160015 318.262666,14.4799978 318.42,14.912 C318.577334,15.3440022 318.656,15.8399972 318.656,16.4 C318.656,16.5173339 318.638667,16.5973331 318.604,16.64 C318.569333,16.6826669 318.514667,16.704 318.44,16.704 L312.688,16.704 L312.688,16.856 C312.688,17.4533363 312.757333,17.9786644 312.896,18.432 C313.034667,18.8853356 313.231999,19.2653318 313.488,19.572 C313.744001,19.8786682 314.053332,20.1093326 314.416,20.264 C314.778668,20.4186674 315.183998,20.496 315.632,20.496 C316.032002,20.496 316.378665,20.4520004 316.672,20.364 C316.965335,20.2759996 317.211999,20.1773339 317.412,20.068 C317.612001,19.9586661 317.770666,19.8600004 317.888,19.772 C318.005334,19.6839996 318.090666,19.64 318.144,19.64 C318.213334,19.64 318.266666,19.6666664 318.304,19.72 L318.512,19.976 C318.383999,20.1360008 318.214668,20.2853326 318.004,20.424 C317.793332,20.5626674 317.558668,20.6813328 317.3,20.78 C317.041332,20.8786672 316.764001,20.957333 316.468,21.016 C316.171999,21.074667 315.874668,21.104 315.576,21.104 C315.031997,21.104 314.536002,21.0093343 314.088,20.82 C313.639998,20.6306657 313.256002,20.3546685 312.936,19.992 C312.615998,19.6293315 312.369334,19.185336 312.196,18.66 C312.022666,18.134664 311.936,17.5333367 311.936,16.856 C311.936,16.2853305 312.017333,15.7586691 312.18,15.276 C312.342667,14.7933309 312.577332,14.3773351 312.884,14.028 C313.190668,13.6786649 313.566664,13.4053343 314.012,13.208 C314.457336,13.0106657 314.962664,12.912 315.528,12.912 Z M315.536,13.48 C315.125331,13.48 314.757335,13.5439994 314.432,13.672 C314.106665,13.8000006 313.825335,13.9839988 313.588,14.224 C313.350665,14.4640012 313.158667,14.7519983 313.012,15.088 C312.865333,15.4240017 312.768,15.7999979 312.72,16.216 L317.968,16.216 C317.968,15.7893312 317.909334,15.4066684 317.792,15.068 C317.674666,14.7293316 317.509334,14.4426678 317.296,14.208 C317.082666,13.9733322 316.826668,13.793334 316.528,13.668 C316.229332,13.542666 315.898668,13.48 315.536,13.48 Z M322.88,21.128 C322.341331,21.128 321.921335,20.9786682 321.62,20.68 C321.318665,20.3813318 321.168,19.9200031 321.168,19.296 L321.168,13.856 L320.024,13.856 C319.965333,13.856 319.917334,13.8400002 319.88,13.808 C319.842666,13.7759998 319.824,13.730667 319.824,13.672 L319.824,13.376 L321.184,13.28 L321.376,10.432 C321.381333,10.3839998 321.401333,10.3413335 321.436,10.304 C321.470667,10.2666665 321.517333,10.248 321.576,10.248 L321.936,10.248 L321.936,13.288 L324.44,13.288 L324.44,13.856 L321.936,13.856 L321.936,19.256 C321.936,19.4746678 321.964,19.6626659 322.02,19.82 C322.076,19.9773341 322.153333,20.1066662 322.252,20.208 C322.350667,20.3093338 322.466666,20.3839998 322.6,20.432 C322.733334,20.4800002 322.877333,20.504 323.032,20.504 C323.224001,20.504 323.389333,20.4760003 323.528,20.42 C323.666667,20.3639997 323.786666,20.302667 323.888,20.236 C323.989334,20.169333 324.072,20.1080003 324.136,20.052 C324.2,19.9959997 324.250666,19.968 324.288,19.968 C324.330667,19.968 324.373333,19.9946664 324.416,20.048 L324.624,20.384 C324.421332,20.6080011 324.164002,20.7879993 323.852,20.924 C323.539998,21.0600007 323.216002,21.128 322.88,21.128 Z M327.88,15.96 C327.88,14.759994 327.718668,13.6120055 327.396,12.516 C327.073332,11.4199945 326.59467,10.3600051 325.96,9.336 C325.922666,9.27733304 325.904,9.2213336 325.904,9.168 C325.904,9.09333296 325.938666,9.03733352 326.008,9 L326.344,8.792 C326.749335,9.42133648 327.093332,10.0306637 327.376,10.62 C327.658668,11.2093363 327.885332,11.7959971 328.056,12.38 C328.226668,12.9640029 328.350666,13.5506637 328.428,14.14 C328.505334,14.7293363 328.544,15.3359969 328.544,15.96 C328.544,16.5840031 328.505334,17.1893304 328.428,17.776 C328.350666,18.3626696 328.226668,18.9479971 328.056,19.532 C327.885332,20.1160029 327.658668,20.7026637 327.376,21.292 C327.093332,21.8813363 326.749335,22.4906635 326.344,23.12 L326.008,22.912 C325.933333,22.8746665 325.896,22.8160004 325.896,22.736 C325.896,22.6826664 325.914666,22.626667 325.952,22.568 C326.592003,21.5493282 327.073332,20.4920055 327.396,19.396 C327.718668,18.2999945 327.88,17.1546726 327.88,15.96 Z"/>
  </g>
</svg>
