<svg xmlns="http://www.w3.org/2000/svg" width="390" height="164" viewBox="0 0 390 164">
  <g fill="none" fill-rule="evenodd">
    <rect width="390" height="164"/>
    <rect width="390" height="164"/>
    <g transform="translate(52 4)">
      <g transform="translate(0 90)">
        <path fill="#D5D5D5" d="M10.9211875,9.48046875 L6.87821875,9.48046875 L6.87821875,22 L5.23759375,22 L5.23759375,9.48046875 L1.20439063,9.48046875 L1.20439063,7.99609375 L10.9211875,7.99609375 L10.9211875,9.48046875 Z M21.2043906,22 L19.6028281,22 L19.6028281,16.2382812 C19.6028281,14.1549375 18.8280963,13.1132812 17.2786094,13.1132812 C16.4973555,13.1132812 15.83981,13.414385 15.3059531,14.0166016 C14.7720963,14.6188181 14.5051719,15.3919224 14.5051719,16.3359375 L14.5051719,22 L12.9036094,22 L12.9036094,7.1953125 L14.5051719,7.1953125 L14.5051719,13.6601562 L14.5442344,13.6601562 C15.3124674,12.3971291 16.4062064,11.765625 17.8254844,11.765625 C20.0780998,11.765625 21.2043906,13.1230333 21.2043906,15.8378906 L21.2043906,22 Z M32.2590781,17.4003906 L25.1985313,17.4003906 C25.224573,18.5136774 25.5240492,19.3730438 26.0969688,19.9785156 C26.6698883,20.5839874 27.4576408,20.8867188 28.46025,20.8867188 C29.5865577,20.8867188 30.6217036,20.5156287 31.5657188,19.7734375 L31.5657188,21.2773438 C30.6868081,21.9153678 29.5247104,22.234375 28.0793906,22.234375 C26.6666231,22.234375 25.5566082,21.780278 24.7493125,20.8720703 C23.9420168,19.9638626 23.538375,18.6862062 23.538375,17.0390625 C23.538375,15.4830651 23.9794513,14.2151742 24.8616172,13.2353516 C25.7437831,12.255529 26.8391497,11.765625 28.14775,11.765625 C29.4563503,11.765625 30.46871,12.1887979 31.1848594,13.0351562 C31.9010088,13.8815146 32.2590781,15.0566331 32.2590781,16.5605469 L32.2590781,17.4003906 Z M30.6184531,16.0429688 C30.6119427,15.118485 30.3889631,14.3990911 29.9495078,13.8847656 C29.5100525,13.3704401 28.899707,13.1132812 28.1184531,13.1132812 C27.363241,13.1132812 26.7219714,13.3834608 26.194625,13.9238281 C25.6672786,14.4641954 25.341761,15.1705686 25.2180625,16.0429688 L30.6184531,16.0429688 Z M45.3743125,13.6210938 C45.0943632,13.4062489 44.6907214,13.2988281 44.163375,13.2988281 C43.4797778,13.2988281 42.9084945,13.6210905 42.4495078,14.265625 C41.9905211,14.9101595 41.7610313,15.7890569 41.7610313,16.9023438 L41.7610313,22 L40.1594688,22 L40.1594688,12 L41.7610313,12 L41.7610313,14.0605469 L41.8000938,14.0605469 C42.0279595,13.3574184 42.3762633,12.8089212 42.8450156,12.4150391 C43.313768,12.0211569 43.8378513,11.8242188 44.4172813,11.8242188 C44.83395,11.8242188 45.1529572,11.8697912 45.3743125,11.9609375 L45.3743125,13.6210938 Z M54.8860313,17.4003906 L47.8254844,17.4003906 C47.8515262,18.5136774 48.1510023,19.3730438 48.7239219,19.9785156 C49.2968414,20.5839874 50.0845939,20.8867188 51.0872031,20.8867188 C52.2135108,20.8867188 53.2486567,20.5156287 54.1926719,19.7734375 L54.1926719,21.2773438 C53.3137612,21.9153678 52.1516635,22.234375 50.7063438,22.234375 C49.2935763,22.234375 48.1835613,21.780278 47.3762656,20.8720703 C46.5689699,19.9638626 46.1653281,18.6862062 46.1653281,17.0390625 C46.1653281,15.4830651 46.6064044,14.2151742 47.4885703,13.2353516 C48.3707362,12.255529 49.4661028,11.765625 50.7747031,11.765625 C52.0833034,11.765625 53.0956631,12.1887979 53.8118125,13.0351562 C54.5279619,13.8815146 54.8860313,15.0566331 54.8860313,16.5605469 L54.8860313,17.4003906 Z M53.2454063,16.0429688 C53.2388958,15.118485 53.0159163,14.3990911 52.5764609,13.8847656 C52.1370056,13.3704401 51.5266602,13.1132812 50.7454063,13.1132812 C49.9901941,13.1132812 49.3489245,13.3834608 48.8215781,13.9238281 C48.2942317,14.4641954 47.9687142,15.1705686 47.8450156,16.0429688 L53.2454063,16.0429688 Z M58.9485313,20.5546875 L58.9094688,20.5546875 L58.9094688,26.5996094 L57.3079063,26.5996094 L57.3079063,12 L58.9094688,12 L58.9094688,13.7578125 L58.9485313,13.7578125 C59.7362956,12.4296809 60.8886278,11.765625 62.4055625,11.765625 C63.6946314,11.765625 64.7004808,12.2132117 65.4231406,13.1083984 C66.1458005,14.0035852 66.507125,15.2031175 66.507125,16.7070312 C66.507125,18.3802167 66.100228,19.7197215 65.2864219,20.7255859 C64.4726157,21.7314503 63.3593456,22.234375 61.9465781,22.234375 C60.6509987,22.234375 59.6516598,21.6744848 58.9485313,20.5546875 Z M58.9094688,16.5214844 L58.9094688,17.9179688 C58.9094688,18.7447958 59.1780208,19.4462862 59.7151328,20.0224609 C60.2522449,20.5986357 60.9342042,20.8867188 61.7610313,20.8867188 C62.7310882,20.8867188 63.4911717,20.5156287 64.0413047,19.7734375 C64.5914376,19.0312463 64.8665,17.9993556 64.8665,16.6777344 C64.8665,15.5644476 64.6093411,14.6920604 64.0950156,14.0605469 C63.5806901,13.4290333 62.8840825,13.1132812 62.0051719,13.1132812 C61.0741776,13.1132812 60.3254872,13.4371712 59.7590781,14.0849609 C59.192669,14.7327506 58.9094688,15.544917 58.9094688,16.5214844 Z M73.2454063,22.234375 C71.7675343,22.234375 70.5875331,21.7672573 69.7053672,20.8330078 C68.8232013,19.8987583 68.382125,18.660164 68.382125,17.1171875 C68.382125,15.4374916 68.8411048,14.1256558 69.7590781,13.1816406 C70.6770515,12.2376255 71.9172734,11.765625 73.4797813,11.765625 C74.9706741,11.765625 76.1343995,12.2246048 76.9709922,13.1425781 C77.8075849,14.0605515 78.225875,15.3333252 78.225875,16.9609375 C78.225875,18.5559976 77.7750332,19.8336541 76.8733359,20.7939453 C75.9716387,21.7542366 74.7623409,22.234375 73.2454063,22.234375 Z M73.3625938,13.1132812 C72.3339428,13.1132812 71.5201488,13.4632126 70.9211875,14.1630859 C70.3222262,14.8629592 70.02275,15.8281188 70.02275,17.0585938 C70.02275,18.2434955 70.3254813,19.177731 70.9309531,19.8613281 C71.5364249,20.5449253 72.3469637,20.8867188 73.3625938,20.8867188 C74.3977552,20.8867188 75.1936457,20.5514356 75.7502891,19.8808594 C76.3069325,19.2102831 76.58525,18.2565166 76.58525,17.0195312 C76.58525,15.769525 76.3069325,14.805993 75.7502891,14.1289062 C75.1936457,13.4518195 74.3977552,13.1132812 73.3625938,13.1132812 Z M87.8645469,22 L86.2629844,22 L86.2629844,7.1953125 L87.8645469,7.1953125 L87.8645469,22 Z M91.9270469,9.4609375 C91.6405871,9.4609375 91.3964489,9.36328223 91.194625,9.16796875 C90.9928011,8.97265527 90.8918906,8.72526191 90.8918906,8.42578125 C90.8918906,8.12630059 90.9928011,7.87727964 91.194625,7.67871094 C91.3964489,7.48014224 91.6405871,7.38085938 91.9270469,7.38085938 C92.2200171,7.38085938 92.469038,7.48014224 92.6741172,7.67871094 C92.8791963,7.87727964 92.9817344,8.12630059 92.9817344,8.42578125 C92.9817344,8.71224102 92.8791963,8.9563792 92.6741172,9.15820312 C92.469038,9.36002705 92.2200171,9.4609375 91.9270469,9.4609375 Z M92.7082969,22 L91.1067344,22 L91.1067344,12 L92.7082969,12 L92.7082969,22 Z M95.3450156,21.6386719 L95.3450156,19.9199219 C96.2174158,20.5644563 97.1776927,20.8867188 98.225875,20.8867188 C99.632132,20.8867188 100.33525,20.4179734 100.33525,19.4804688 C100.33525,19.2135403 100.275029,18.9873056 100.154586,18.8017578 C100.034143,18.61621 99.8713838,18.4518236 99.6663047,18.3085938 C99.4612255,18.1653639 99.2203425,18.0367844 98.9436484,17.9228516 C98.6669543,17.8089187 98.3691058,17.6901048 98.0500938,17.5664062 C97.6073832,17.3906241 97.2183897,17.213217 96.8831016,17.0341797 C96.5478134,16.8551423 96.2678683,16.6533214 96.0432578,16.4287109 C95.8186473,16.2041004 95.6493782,15.9485691 95.5354453,15.6621094 C95.4215125,15.3756496 95.3645469,15.0403665 95.3645469,14.65625 C95.3645469,14.1874977 95.4719677,13.7724627 95.6868125,13.4111328 C95.9016573,13.0498029 96.1881128,12.7470715 96.5461875,12.5029297 C96.9042622,12.2587878 97.3127868,12.0748704 97.7717734,11.9511719 C98.2307601,11.8274733 98.7043882,11.765625 99.1926719,11.765625 C100.058562,11.765625 100.833293,11.9153631 101.516891,12.2148438 L101.516891,13.8359375 C100.78121,13.3541643 99.9348642,13.1132812 98.9778281,13.1132812 C98.6783475,13.1132812 98.4081679,13.1474606 98.1672813,13.2158203 C97.9263946,13.28418 97.719691,13.3802077 97.5471641,13.5039062 C97.3746372,13.6276048 97.241175,13.7757153 97.1467734,13.9482422 C97.0523719,14.1207691 97.0051719,14.3111969 97.0051719,14.5195312 C97.0051719,14.7799492 97.0523719,14.998046 97.1467734,15.1738281 C97.241175,15.3496103 97.3795199,15.5058587 97.5618125,15.6425781 C97.7441051,15.7792976 97.965457,15.9029942 98.225875,16.0136719 C98.486293,16.1243495 98.782514,16.244791 99.1145469,16.375 C99.5572574,16.5442717 99.9543889,16.7184236 100.305953,16.8974609 C100.657517,17.0764983 100.956994,17.2783192 101.204391,17.5029297 C101.451788,17.7275402 101.642215,17.9863267 101.77568,18.2792969 C101.909144,18.5722671 101.975875,18.9205709 101.975875,19.3242188 C101.975875,19.8190129 101.866827,20.2486961 101.648727,20.6132812 C101.430627,20.9778664 101.139288,21.2805978 100.774703,21.5214844 C100.410118,21.762371 99.9902003,21.9414057 99.5149375,22.0585938 C99.0396747,22.1757818 98.5416328,22.234375 98.0207969,22.234375 C96.9921459,22.234375 96.1002277,22.0358093 95.3450156,21.6386719 Z M109.075484,21.9023438 C108.697878,22.1106781 108.199836,22.2148438 107.581344,22.2148438 C105.830033,22.2148438 104.954391,21.238291 104.954391,19.2851562 L104.954391,13.3671875 L103.235641,13.3671875 L103.235641,12 L104.954391,12 L104.954391,9.55859375 L106.555953,9.04101562 L106.555953,12 L109.075484,12 L109.075484,13.3671875 L106.555953,13.3671875 L106.555953,19.0019531 C106.555953,19.6725294 106.669884,20.1510402 106.89775,20.4375 C107.125616,20.7239598 107.503216,20.8671875 108.030563,20.8671875 C108.43421,20.8671875 108.782514,20.7565115 109.075484,20.5351562 L109.075484,21.9023438 Z M117.512984,9.4609375 C117.226525,9.4609375 116.982386,9.36328223 116.780563,9.16796875 C116.578739,8.97265527 116.477828,8.72526191 116.477828,8.42578125 C116.477828,8.12630059 116.578739,7.87727964 116.780563,7.67871094 C116.982386,7.48014224 117.226525,7.38085938 117.512984,7.38085938 C117.805955,7.38085938 118.054976,7.48014224 118.260055,7.67871094 C118.465134,7.87727964 118.567672,8.12630059 118.567672,8.42578125 C118.567672,8.71224102 118.465134,8.9563792 118.260055,9.15820312 C118.054976,9.36002705 117.805955,9.4609375 117.512984,9.4609375 Z M118.294234,22 L116.692672,22 L116.692672,12 L118.294234,12 L118.294234,22 Z M120.930953,21.6386719 L120.930953,19.9199219 C121.803353,20.5644563 122.76363,20.8867188 123.811813,20.8867188 C125.21807,20.8867188 125.921188,20.4179734 125.921188,19.4804688 C125.921188,19.2135403 125.860967,18.9873056 125.740523,18.8017578 C125.62008,18.61621 125.457321,18.4518236 125.252242,18.3085938 C125.047163,18.1653639 124.80628,18.0367844 124.529586,17.9228516 C124.252892,17.8089187 123.955043,17.6901048 123.636031,17.5664062 C123.193321,17.3906241 122.804327,17.213217 122.469039,17.0341797 C122.133751,16.8551423 121.853806,16.6533214 121.629195,16.4287109 C121.404585,16.2041004 121.235316,15.9485691 121.121383,15.6621094 C121.00745,15.3756496 120.950484,15.0403665 120.950484,14.65625 C120.950484,14.1874977 121.057905,13.7724627 121.27275,13.4111328 C121.487595,13.0498029 121.77405,12.7470715 122.132125,12.5029297 C122.4902,12.2587878 122.898724,12.0748704 123.357711,11.9511719 C123.816698,11.8274733 124.290326,11.765625 124.778609,11.765625 C125.644499,11.765625 126.419231,11.9153631 127.102828,12.2148438 L127.102828,13.8359375 C126.367147,13.3541643 125.520802,13.1132812 124.563766,13.1132812 C124.264285,13.1132812 123.994105,13.1474606 123.753219,13.2158203 C123.512332,13.28418 123.305628,13.3802077 123.133102,13.5039062 C122.960575,13.6276048 122.827112,13.7757153 122.732711,13.9482422 C122.638309,14.1207691 122.591109,14.3111969 122.591109,14.5195312 C122.591109,14.7799492 122.638309,14.998046 122.732711,15.1738281 C122.827112,15.3496103 122.965457,15.5058587 123.14775,15.6425781 C123.330043,15.7792976 123.551395,15.9029942 123.811813,16.0136719 C124.07223,16.1243495 124.368451,16.244791 124.700484,16.375 C125.143195,16.5442717 125.540326,16.7184236 125.891891,16.8974609 C126.243455,17.0764983 126.542931,17.2783192 126.790328,17.5029297 C127.037725,17.7275402 127.228153,17.9863267 127.361617,18.2792969 C127.495081,18.5722671 127.561813,18.9205709 127.561813,19.3242188 C127.561813,19.8190129 127.452764,20.2486961 127.234664,20.6132812 C127.016564,20.9778664 126.725226,21.2805978 126.360641,21.5214844 C125.996055,21.762371 125.576138,21.9414057 125.100875,22.0585938 C124.625612,22.1757818 124.12757,22.234375 123.606734,22.234375 C122.578083,22.234375 121.686165,22.0358093 120.930953,21.6386719 Z M143.538375,17.4003906 L136.477828,17.4003906 C136.50387,18.5136774 136.803346,19.3730438 137.376266,19.9785156 C137.949185,20.5839874 138.736938,20.8867188 139.739547,20.8867188 C140.865855,20.8867188 141.901,20.5156287 142.845016,19.7734375 L142.845016,21.2773438 C141.966105,21.9153678 140.804007,22.234375 139.358688,22.234375 C137.94592,22.234375 136.835905,21.780278 136.028609,20.8720703 C135.221314,19.9638626 134.817672,18.6862062 134.817672,17.0390625 C134.817672,15.4830651 135.258748,14.2151742 136.140914,13.2353516 C137.02308,12.255529 138.118447,11.765625 139.427047,11.765625 C140.735647,11.765625 141.748007,12.1887979 142.464156,13.0351562 C143.180306,13.8815146 143.538375,15.0566331 143.538375,16.5605469 L143.538375,17.4003906 Z M141.89775,16.0429688 C141.89124,15.118485 141.66826,14.3990911 141.228805,13.8847656 C140.789349,13.3704401 140.179004,13.1132812 139.39775,13.1132812 C138.642538,13.1132812 138.001268,13.3834608 137.473922,13.9238281 C136.946575,14.4641954 136.621058,15.1705686 136.497359,16.0429688 L141.89775,16.0429688 Z M160.159469,22 L158.557906,22 L158.557906,16.2578125 C158.557906,15.1510361 158.38701,14.3502629 158.045211,13.8554688 C157.703412,13.3606746 157.128874,13.1132812 156.321578,13.1132812 C155.637981,13.1132812 155.056932,13.4257781 154.578414,14.0507812 C154.099896,14.6757844 153.860641,15.4244748 153.860641,16.296875 L153.860641,22 L152.259078,22 L152.259078,16.0625 C152.259078,14.0963443 151.500622,13.1132812 149.983688,13.1132812 C149.280559,13.1132812 148.701138,13.4078747 148.245406,13.9970703 C147.789675,14.586266 147.561813,15.3528599 147.561813,16.296875 L147.561813,22 L145.96025,22 L145.96025,12 L147.561813,12 L147.561813,13.5820312 L147.600875,13.5820312 C148.310514,12.3710877 149.34566,11.765625 150.706344,11.765625 C151.389941,11.765625 151.985638,11.9560528 152.493453,12.3369141 C153.001268,12.7177753 153.349572,13.2174448 153.538375,13.8359375 C154.280566,12.4557223 155.387326,11.765625 156.858688,11.765625 C159.059219,11.765625 160.159469,13.1230333 160.159469,15.8378906 L160.159469,22 Z M164.827438,20.5546875 L164.788375,20.5546875 L164.788375,26.5996094 L163.186813,26.5996094 L163.186813,12 L164.788375,12 L164.788375,13.7578125 L164.827438,13.7578125 C165.615202,12.4296809 166.767534,11.765625 168.284469,11.765625 C169.573538,11.765625 170.579387,12.2132117 171.302047,13.1083984 C172.024707,14.0035852 172.386031,15.2031175 172.386031,16.7070312 C172.386031,18.3802167 171.979134,19.7197215 171.165328,20.7255859 C170.351522,21.7314503 169.238252,22.234375 167.825484,22.234375 C166.529905,22.234375 165.530566,21.6744848 164.827438,20.5546875 Z M164.788375,16.5214844 L164.788375,17.9179688 C164.788375,18.7447958 165.056927,19.4462862 165.594039,20.0224609 C166.131151,20.5986357 166.81311,20.8867188 167.639938,20.8867188 C168.609994,20.8867188 169.370078,20.5156287 169.920211,19.7734375 C170.470344,19.0312463 170.745406,17.9993556 170.745406,16.6777344 C170.745406,15.5644476 170.488247,14.6920604 169.973922,14.0605469 C169.459596,13.4290333 168.762989,13.1132812 167.884078,13.1132812 C166.953084,13.1132812 166.204393,13.4371712 165.637984,14.0849609 C165.071575,14.7327506 164.788375,15.544917 164.788375,16.5214844 Z M179.583297,21.9023438 C179.205691,22.1106781 178.707649,22.2148438 178.089156,22.2148438 C176.337845,22.2148438 175.462203,21.238291 175.462203,19.2851562 L175.462203,13.3671875 L173.743453,13.3671875 L173.743453,12 L175.462203,12 L175.462203,9.55859375 L177.063766,9.04101562 L177.063766,12 L179.583297,12 L179.583297,13.3671875 L177.063766,13.3671875 L177.063766,19.0019531 C177.063766,19.6725294 177.177697,20.1510402 177.405563,20.4375 C177.633428,20.7239598 178.011029,20.8671875 178.538375,20.8671875 C178.942023,20.8671875 179.290327,20.7565115 179.583297,20.5351562 L179.583297,21.9023438 Z M189.680953,12 L185.081344,23.6015625 C184.261027,25.6718854 183.108695,26.7070312 181.624313,26.7070312 C181.207644,26.7070312 180.85934,26.664714 180.579391,26.5800781 L180.579391,25.1445312 C180.924444,25.2617193 181.240196,25.3203125 181.526656,25.3203125 C182.333952,25.3203125 182.939415,24.8385465 183.343063,23.875 L184.143844,21.9804688 L180.237594,12 L182.014938,12 L184.720016,19.6953125 C184.752568,19.7929692 184.820927,20.0468729 184.925094,20.4570312 L184.983688,20.4570312 C185.01624,20.3007805 185.081343,20.0533871 185.179,19.7148438 L188.020797,12 L189.680953,12 Z" transform="translate(48)"/>
        <g transform="translate(0 33)">
          <path fill="#8CA3B7" d="M9.581 12L8.757 12 8.757 6.576 1.669 6.576 1.669 12 .845 12 .845.68 1.669.68 1.669 5.96 8.757 5.96 8.757.68 9.581.68 9.581 12zM15.557 3.912C16.0050022 3.912 16.4196648 3.98933256 16.801 4.144 17.1823352 4.29866744 17.5129986 4.52399852 17.793 4.82 18.0730014 5.11600148 18.2916659 5.47999784 18.449 5.912 18.6063341 6.34400216 18.685 6.8399972 18.685 7.4 18.685 7.51733392 18.6676668 7.59733312 18.633 7.64 18.5983332 7.68266688 18.543667 7.704 18.469 7.704L12.717 7.704 12.717 7.856C12.717 8.45333632 12.7863326 8.9786644 12.925 9.432 13.0636674 9.8853356 13.2609987 10.2653318 13.517 10.572 13.7730013 10.8786682 14.0823315 11.1093326 14.445 11.264 14.8076685 11.4186674 15.2129978 11.496 15.661 11.496 16.061002 11.496 16.4076652 11.4520004 16.701 11.364 16.9943348 11.2759996 17.240999 11.1773339 17.441 11.068 17.641001 10.9586661 17.7996661 10.8600004 17.917 10.772 18.0343339 10.6839996 18.1196664 10.64 18.173 10.64 18.2423337 10.64 18.2956665 10.6666664 18.333 10.72L18.541 10.976C18.4129994 11.1360008 18.2436677 11.2853326 18.033 11.424 17.8223323 11.5626674 17.587668 11.6813328 17.329 11.78 17.070332 11.8786672 16.7930015 11.957333 16.497 12.016 16.2009985 12.074667 15.9036682 12.104 15.605 12.104 15.0609973 12.104 14.5650022 12.0093343 14.117 11.82 13.6689978 11.6306657 13.2850016 11.3546685 12.965 10.992 12.6449984 10.6293315 12.3983342 10.185336 12.225 9.66 12.0516658 9.13466404 11.965 8.53333672 11.965 7.856 11.965 7.28533048 12.0463325 6.75866908 12.209 6.276 12.3716675 5.79333092 12.6063318 5.37733508 12.913 5.028 13.2196682 4.67866492 13.5956644 4.40533432 14.041 4.208 14.4863356 4.01066568 14.9916638 3.912 15.557 3.912zM15.565 4.48C15.1543313 4.48 14.786335 4.54399936 14.461 4.672 14.135665 4.80000064 13.8543345 4.9839988 13.617 5.224 13.3796655 5.4640012 13.1876674 5.75199832 13.041 6.088 12.8943326 6.42400168 12.7970002 6.79999792 12.749 7.216L17.997 7.216C17.997 6.7893312 17.9383339 6.40666836 17.821 6.068 17.7036661 5.72933164 17.5383344 5.44266784 17.325 5.208 17.1116656 4.97333216 16.8556682 4.79333396 16.557 4.668 16.2583318 4.54266604 15.9276685 4.48 15.565 4.48zM20.733 12L20.733 4.04 21.133 4.04C21.2236671 4.04 21.2889998 4.05866648 21.329 4.096 21.3690002 4.13333352 21.3916666 4.19733288 21.397 4.288L21.461 5.968C21.7170013 5.32266344 22.0583312 4.81733516 22.485 4.452 22.9116688 4.08666484 23.4369969 3.904 24.061 3.904 24.3010012 3.904 24.5223323 3.92933308 24.725 3.98 24.9276677 4.03066692 25.1196658 4.10399952 25.301 4.2L25.197 4.728C25.1809999 4.81333376 25.1276671 4.856 25.037 4.856 25.0049998 4.856 24.959667 4.84533344 24.901 4.824 24.842333 4.80266656 24.7690004 4.7786668 24.681 4.752 24.5929996 4.7253332 24.4850006 4.70133344 24.357 4.68 24.2289994 4.65866656 24.0823342 4.648 23.917 4.648 23.3143303 4.648 22.8196686 4.8346648 22.433 5.208 22.0463314 5.5813352 21.7330012 6.11999648 21.493 6.824L21.493 12 20.733 12zM30.085 3.912C30.5330022 3.912 30.9476648 3.98933256 31.329 4.144 31.7103352 4.29866744 32.0409986 4.52399852 32.321 4.82 32.6010014 5.11600148 32.8196659 5.47999784 32.977 5.912 33.1343341 6.34400216 33.213 6.8399972 33.213 7.4 33.213 7.51733392 33.1956668 7.59733312 33.161 7.64 33.1263332 7.68266688 33.071667 7.704 32.997 7.704L27.245 7.704 27.245 7.856C27.245 8.45333632 27.3143326 8.9786644 27.453 9.432 27.5916674 9.8853356 27.7889987 10.2653318 28.045 10.572 28.3010013 10.8786682 28.6103315 11.1093326 28.973 11.264 29.3356685 11.4186674 29.7409978 11.496 30.189 11.496 30.589002 11.496 30.9356652 11.4520004 31.229 11.364 31.5223348 11.2759996 31.768999 11.1773339 31.969 11.068 32.169001 10.9586661 32.3276661 10.8600004 32.445 10.772 32.5623339 10.6839996 32.6476664 10.64 32.701 10.64 32.7703337 10.64 32.8236665 10.6666664 32.861 10.72L33.069 10.976C32.9409994 11.1360008 32.7716677 11.2853326 32.561 11.424 32.3503323 11.5626674 32.115668 11.6813328 31.857 11.78 31.598332 11.8786672 31.3210015 11.957333 31.025 12.016 30.7289985 12.074667 30.4316682 12.104 30.133 12.104 29.5889973 12.104 29.0930022 12.0093343 28.645 11.82 28.1969978 11.6306657 27.8130016 11.3546685 27.493 10.992 27.1729984 10.6293315 26.9263342 10.185336 26.753 9.66 26.5796658 9.13466404 26.493 8.53333672 26.493 7.856 26.493 7.28533048 26.5743325 6.75866908 26.737 6.276 26.8996675 5.79333092 27.1343318 5.37733508 27.441 5.028 27.7476682 4.67866492 28.1236644 4.40533432 28.569 4.208 29.0143356 4.01066568 29.5196638 3.912 30.085 3.912zM30.093 4.48C29.6823313 4.48 29.314335 4.54399936 28.989 4.672 28.663665 4.80000064 28.3823345 4.9839988 28.145 5.224 27.9076655 5.4640012 27.7156674 5.75199832 27.569 6.088 27.4223326 6.42400168 27.3250002 6.79999792 27.277 7.216L32.525 7.216C32.525 6.7893312 32.4663339 6.40666836 32.349 6.068 32.2316661 5.72933164 32.0663344 5.44266784 31.853 5.208 31.6396656 4.97333216 31.3836682 4.79333396 31.085 4.668 30.7863318 4.54266604 30.4556685 4.48 30.093 4.48zM40.085 14.56C40.0529998 14.634667 40.0116669 14.6959998 39.961 14.744 39.9103331 14.7920002 39.8370005 14.816 39.741 14.816L39.197 14.816 40.597 11.704 37.229 4.04 37.861 4.04C37.9410004 4.04 38.0036664 4.0599998 38.049 4.1 38.0943336 4.1400002 38.1276666 4.18399976 38.149 4.232L40.829 10.424C40.8610002 10.5040004 40.8889999 10.5853329 40.913 10.668 40.9370001 10.7506671 40.9596666 10.8346662 40.981 10.92 41.0076668 10.8346662 41.0356665 10.7506671 41.065 10.668 41.0943335 10.5853329 41.1249998 10.5040004 41.157 10.424L43.805 4.232C43.8316668 4.17333304 43.8689998 4.12666684 43.917 4.092 43.9650002 4.05733316 44.018333 4.04 44.077 4.04L44.661 4.04 40.085 14.56zM49.029 3.912C49.5996695 3.912 50.1103311 4.00933236 50.561 4.204 51.0116689 4.39866764 51.3916651 4.67466488 51.701 5.032 52.0103349 5.38933512 52.2463325 5.81999748 52.409 6.324 52.5716675 6.82800252 52.653 7.39199688 52.653 8.016 52.653 8.64000312 52.5716675 9.20266416 52.409 9.704 52.2463325 10.2053358 52.0103349 10.6346649 51.701 10.992 51.3916651 11.3493351 51.0116689 11.623999 50.561 11.816 50.1103311 12.008001 49.5996695 12.104 49.029 12.104 48.4583305 12.104 47.9476689 12.008001 47.497 11.816 47.0463311 11.623999 46.6650016 11.3493351 46.353 10.992 46.0409984 10.6346649 45.8036675 10.2053358 45.641 9.704 45.4783325 9.20266416 45.397 8.64000312 45.397 8.016 45.397 7.39199688 45.4783325 6.82800252 45.641 6.324 45.8036675 5.81999748 46.0409984 5.38933512 46.353 5.032 46.6650016 4.67466488 47.0463311 4.39866764 47.497 4.204 47.9476689 4.00933236 48.4583305 3.912 49.029 3.912zM49.029 11.504C49.503669 11.504 49.9183316 11.4226675 50.273 11.26 50.6276684 11.0973325 50.9236655 10.8640015 51.161 10.56 51.3983345 10.2559985 51.5756661 9.88933548 51.693 9.46 51.8103339 9.03066452 51.869 8.549336 51.869 8.016 51.869 7.48799736 51.8103339 7.00800216 51.693 6.576 51.5756661 6.14399784 51.3983345 5.7746682 51.161 5.468 50.9236655 5.1613318 50.6276684 4.92533416 50.273 4.76 49.9183316 4.59466584 49.503669 4.512 49.029 4.512 48.554331 4.512 48.1396684 4.59466584 47.785 4.76 47.4303316 4.92533416 47.1343345 5.1613318 46.897 5.468 46.6596655 5.7746682 46.4810006 6.14399784 46.361 6.576 46.2409994 7.00800216 46.181 7.48799736 46.181 8.016 46.181 8.549336 46.2409994 9.03066452 46.361 9.46 46.4810006 9.88933548 46.6596655 10.2559985 46.897 10.56 47.1343345 10.8640015 47.4303316 11.0973325 47.785 11.26 48.1396684 11.4226675 48.554331 11.504 49.029 11.504zM55.221 4.04L55.221 9.128C55.221 9.8746704 55.391665 10.4599979 55.733 10.884 56.074335 11.3080021 56.5943298 11.52 57.293 11.52 57.8103359 11.52 58.2929978 11.3880013 58.741 11.124 59.1890022 10.8599987 59.5916649 10.4933357 59.949 10.024L59.949 4.04 60.717 4.04 60.717 12 60.293 12C60.1436659 12 60.0663334 11.9306674 60.061 11.792L59.989 10.608C59.6209982 11.066669 59.1956691 11.4346653 58.713 11.712 58.2303309 11.9893347 57.693003 12.128 57.101 12.128 56.6583311 12.128 56.2716683 12.0586674 55.941 11.92 55.6103317 11.7813326 55.3356678 11.5813346 55.117 11.32 54.8983322 11.0586654 54.7330006 10.7440018 54.621 10.376 54.5089994 10.0079982 54.453 9.59200232 54.453 9.128L54.453 4.04 55.221 4.04zM65.277 4.04L65.861 4.04C65.935667 4.04 65.9969998 4.0599998 66.045 4.1 66.0930002 4.1400002 66.1249999 4.18399976 66.141 4.232L68.149 10.512C68.1863335 10.6346673 68.2156666 10.7519994 68.237 10.864L68.301 11.2C68.3276668 11.0879994 68.3569998 10.9760006 68.389 10.864 68.4210002 10.7519994 68.4583331 10.6346673 68.501 10.512L70.637 4.176C70.6743335 4.05866608 70.7489994 4 70.861 4L71.173 4C71.2903339 4 71.3676665 4.05866608 71.405 4.176L73.509 10.512C73.5890004 10.7520012 73.6529998 10.9839989 73.701 11.208 73.7223334 11.0959994 73.7449999 10.9826672 73.769 10.868 73.7930001 10.7533328 73.8263331 10.6346673 73.869 10.512L75.885 4.232C75.9276669 4.10399936 76.0183326 4.04 76.157 4.04L76.717 4.04 74.053 12 73.493 12C73.4076662 12 73.3463335 11.9440006 73.309 11.832L71.125 5.368C71.0983332 5.2879996 71.0743334 5.2080004 71.053 5.128 71.0316666 5.0479996 71.0130001 4.9680004 70.997 4.888 70.9809999 4.9680004 70.9636668 5.0479996 70.945 5.128 70.9263332 5.2080004 70.9036668 5.2879996 70.877 5.368L68.669 11.832C68.6369998 11.9440006 68.5730005 12 68.477 12L67.941 12 65.277 4.04zM79.173 4.04L79.173 12 78.413 12 78.413 4.04 79.173 4.04zM79.509 1.296C79.509 1.39200048 79.4890002 1.48133292 79.449 1.564 79.4089998 1.64666708 79.3570003 1.71999968 79.293 1.784 79.2289997 1.84800032 79.1543338 1.89866648 79.069 1.936 78.9836662 1.97333352 78.8930005 1.992 78.797 1.992 78.7009995 1.992 78.6103338 1.97333352 78.525 1.936 78.4396662 1.89866648 78.3650003 1.84800032 78.301 1.784 78.2369997 1.71999968 78.1863335 1.64666708 78.149 1.564 78.1116665 1.48133292 78.093 1.39200048 78.093 1.296 78.093 1.19999952 78.1116665 1.10800044 78.149 1.02 78.1863335.93199956 78.2369997.85600032 78.301.792 78.3650003.72799968 78.4396662.67733352 78.525.64 78.6103338.60266648 78.7009995.584 78.797.584 78.8930005.584 78.9836662.60266648 79.069.64 79.1543338.67733352 79.2289997.72799968 79.293.792 79.3570003.85600032 79.4089998.93199956 79.449 1.02 79.4890002 1.10800044 79.509 1.19999952 79.509 1.296zM82.973.36L82.973 12 82.213 12 82.213.36 82.973.36zM86.773.36L86.773 12 86.013 12 86.013.36 86.773.36zM92.677 12L92.677.36 93.437.36 93.437 5.4C93.8050018 4.9466644 94.2249976 4.58533468 94.697 4.316 95.1690024 4.04666532 95.6983304 3.912 96.285 3.912 96.7223355 3.912 97.107665 3.98133264 97.441 4.12 97.774335 4.25866736 98.0503322 4.45866536 98.269 4.72 98.4876678 4.98133464 98.6529994 5.29599816 98.765 5.664 98.8770006 6.03200184 98.933 6.44799768 98.933 6.912L98.933 12 98.173 12 98.173 6.912C98.173 6.1653296 98.002335 5.58000212 97.661 5.156 97.319665 4.73199788 96.7970035 4.52 96.093 4.52 95.5703307 4.52 95.0850022 4.65466532 94.637 4.924 94.1889978 5.19333468 93.7890018 5.56266432 93.437 6.032L93.437 12 92.677 12zM106.413 12C106.252999 12 106.154334 11.9253341 106.117 11.776L106.005 10.76C105.786332 10.9733344 105.569001 11.1653325 105.353 11.336 105.136999 11.5066675 104.911668 11.6506661 104.677 11.768 104.442332 11.8853339 104.189001 11.9746664 103.917 12.036 103.644999 12.0973336 103.346335 12.128 103.021 12.128 102.748999 12.128 102.485001 12.0880004 102.229 12.008 101.972999 11.9279996 101.746334 11.8053342 101.549 11.64 101.351666 11.4746658 101.193001 11.262668 101.073 11.004 100.952999 10.745332 100.893 10.4346685 100.893 10.072 100.893 9.73599832 100.988999 9.42400144 101.181 9.136 101.373001 8.84799856 101.672998 8.5973344 102.081 8.384 102.489002 8.1706656 103.01433 8.00000064 103.657 7.872 104.29967 7.74399936 105.071662 7.66933344 105.973 7.648L105.973 6.816C105.973 6.07999632 105.814335 5.51333532 105.497 5.116 105.179665 4.71866468 104.709003 4.52 104.085 4.52 103.700998 4.52 103.374335 4.5733328 103.105 4.68 102.835665 4.7866672 102.607668 4.90399936 102.421 5.032 102.234332 5.16000064 102.082334 5.2773328 101.965 5.384 101.847666 5.4906672 101.749 5.544 101.669 5.544 101.562333 5.544 101.482334 5.49600048 101.429 5.4L101.293 5.168C101.709002 4.75199792 102.146331 4.4373344 102.605 4.224 103.063669 4.0106656 103.583664 3.904 104.165 3.904 104.591669 3.904 104.964998 3.97199932 105.285 4.108 105.605002 4.24400068 105.870332 4.4386654 106.081 4.692 106.291668 4.9453346 106.450333 5.2519982 106.557 5.612 106.663667 5.9720018 106.717 6.37333112 106.717 6.816L106.717 12 106.413 12zM103.213 11.576C103.522335 11.576 103.806332 11.542667 104.065 11.476 104.323668 11.409333 104.563666 11.3160006 104.785 11.196 105.006334 11.0759994 105.212999 10.9333342 105.405 10.768 105.597001 10.6026658 105.786332 10.424001 105.973 10.232L105.973 8.16C105.215663 8.18133344 104.563669 8.2386662 104.017 8.332 103.470331 8.4253338 103.019668 8.5519992 102.665 8.712 102.310332 8.8720008 102.049001 9.06266556 101.881 9.284 101.712999 9.50533444 101.629 9.75733192 101.629 10.04 101.629 10.306668 101.673 10.5373324 101.761 10.732 101.849 10.9266676 101.964999 11.086666 102.109 11.212 102.253001 11.337334 102.420999 11.429333 102.613 11.488 102.805001 11.546667 103.004999 11.576 103.213 11.576zM111.853 12L111.181 12 107.821 4.04 108.421 4.04C108.495667 4.04 108.555666 4.0599998 108.601 4.1 108.646334 4.1400002 108.679667 4.18399976 108.701 4.232L111.325 10.512C111.378334 10.6346673 111.418333 10.7519994 111.445 10.864L111.525 11.2C111.551667 11.0879994 111.579667 10.9746672 111.609 10.86 111.638333 10.7453328 111.677 10.6293339 111.725 10.512L114.365 4.232C114.391667 4.17333304 114.427666 4.12666684 114.473 4.092 114.518334 4.05733316 114.573 4.04 114.637 4.04L115.213 4.04 111.853 12zM119.565 3.912C120.013002 3.912 120.427665 3.98933256 120.809 4.144 121.190335 4.29866744 121.520999 4.52399852 121.801 4.82 122.081001 5.11600148 122.299666 5.47999784 122.457 5.912 122.614334 6.34400216 122.693 6.8399972 122.693 7.4 122.693 7.51733392 122.675667 7.59733312 122.641 7.64 122.606333 7.68266688 122.551667 7.704 122.477 7.704L116.725 7.704 116.725 7.856C116.725 8.45333632 116.794333 8.9786644 116.933 9.432 117.071667 9.8853356 117.268999 10.2653318 117.525 10.572 117.781001 10.8786682 118.090332 11.1093326 118.453 11.264 118.815668 11.4186674 119.220998 11.496 119.669 11.496 120.069002 11.496 120.415665 11.4520004 120.709 11.364 121.002335 11.2759996 121.248999 11.1773339 121.449 11.068 121.649001 10.9586661 121.807666 10.8600004 121.925 10.772 122.042334 10.6839996 122.127666 10.64 122.181 10.64 122.250334 10.64 122.303666 10.6666664 122.341 10.72L122.549 10.976C122.420999 11.1360008 122.251668 11.2853326 122.041 11.424 121.830332 11.5626674 121.595668 11.6813328 121.337 11.78 121.078332 11.8786672 120.801001 11.957333 120.505 12.016 120.208999 12.074667 119.911668 12.104 119.613 12.104 119.068997 12.104 118.573002 12.0093343 118.125 11.82 117.676998 11.6306657 117.293002 11.3546685 116.973 10.992 116.652998 10.6293315 116.406334 10.185336 116.233 9.66 116.059666 9.13466404 115.973 8.53333672 115.973 7.856 115.973 7.28533048 116.054333 6.75866908 116.217 6.276 116.379667 5.79333092 116.614332 5.37733508 116.921 5.028 117.227668 4.67866492 117.603664 4.40533432 118.049 4.208 118.494336 4.01066568 118.999664 3.912 119.565 3.912zM119.573 4.48C119.162331 4.48 118.794335 4.54399936 118.469 4.672 118.143665 4.80000064 117.862335 4.9839988 117.625 5.224 117.387665 5.4640012 117.195667 5.75199832 117.049 6.088 116.902333 6.42400168 116.805 6.79999792 116.757 7.216L122.005 7.216C122.005 6.7893312 121.946334 6.40666836 121.829 6.068 121.711666 5.72933164 121.546334 5.44266784 121.333 5.208 121.119666 4.97333216 120.863668 4.79333396 120.565 4.668 120.266332 4.54266604 119.935668 4.48 119.573 4.48zM129.565 14.56C129.533 14.634667 129.491667 14.6959998 129.441 14.744 129.390333 14.7920002 129.317 14.816 129.221 14.816L128.677 14.816 130.077 11.704 126.709 4.04 127.341 4.04C127.421 4.04 127.483666 4.0599998 127.529 4.1 127.574334 4.1400002 127.607667 4.18399976 127.629 4.232L130.309 10.424C130.341 10.5040004 130.369 10.5853329 130.393 10.668 130.417 10.7506671 130.439667 10.8346662 130.461 10.92 130.487667 10.8346662 130.515667 10.7506671 130.545 10.668 130.574333 10.5853329 130.605 10.5040004 130.637 10.424L133.285 4.232C133.311667 4.17333304 133.349 4.12666684 133.397 4.092 133.445 4.05733316 133.498333 4.04 133.557 4.04L134.141 4.04 129.565 14.56zM138.509 3.912C139.07967 3.912 139.590331 4.00933236 140.041 4.204 140.491669 4.39866764 140.871665 4.67466488 141.181 5.032 141.490335 5.38933512 141.726333 5.81999748 141.889 6.324 142.051667 6.82800252 142.133 7.39199688 142.133 8.016 142.133 8.64000312 142.051667 9.20266416 141.889 9.704 141.726333 10.2053358 141.490335 10.6346649 141.181 10.992 140.871665 11.3493351 140.491669 11.623999 140.041 11.816 139.590331 12.008001 139.07967 12.104 138.509 12.104 137.93833 12.104 137.427669 12.008001 136.977 11.816 136.526331 11.623999 136.145002 11.3493351 135.833 10.992 135.520998 10.6346649 135.283667 10.2053358 135.121 9.704 134.958333 9.20266416 134.877 8.64000312 134.877 8.016 134.877 7.39199688 134.958333 6.82800252 135.121 6.324 135.283667 5.81999748 135.520998 5.38933512 135.833 5.032 136.145002 4.67466488 136.526331 4.39866764 136.977 4.204 137.427669 4.00933236 137.93833 3.912 138.509 3.912zM138.509 11.504C138.983669 11.504 139.398332 11.4226675 139.753 11.26 140.107668 11.0973325 140.403665 10.8640015 140.641 10.56 140.878335 10.2559985 141.055666 9.88933548 141.173 9.46 141.290334 9.03066452 141.349 8.549336 141.349 8.016 141.349 7.48799736 141.290334 7.00800216 141.173 6.576 141.055666 6.14399784 140.878335 5.7746682 140.641 5.468 140.403665 5.1613318 140.107668 4.92533416 139.753 4.76 139.398332 4.59466584 138.983669 4.512 138.509 4.512 138.034331 4.512 137.619668 4.59466584 137.265 4.76 136.910332 4.92533416 136.614335 5.1613318 136.377 5.468 136.139665 5.7746682 135.961001 6.14399784 135.841 6.576 135.720999 7.00800216 135.661 7.48799736 135.661 8.016 135.661 8.549336 135.720999 9.03066452 135.841 9.46 135.961001 9.88933548 136.139665 10.2559985 136.377 10.56 136.614335 10.8640015 136.910332 11.0973325 137.265 11.26 137.619668 11.4226675 138.034331 11.504 138.509 11.504zM144.701 4.04L144.701 9.128C144.701 9.8746704 144.871665 10.4599979 145.213 10.884 145.554335 11.3080021 146.07433 11.52 146.773 11.52 147.290336 11.52 147.772998 11.3880013 148.221 11.124 148.669002 10.8599987 149.071665 10.4933357 149.429 10.024L149.429 4.04 150.197 4.04 150.197 12 149.773 12C149.623666 12 149.546333 11.9306674 149.541 11.792L149.469 10.608C149.100998 11.066669 148.675669 11.4346653 148.193 11.712 147.710331 11.9893347 147.173003 12.128 146.581 12.128 146.138331 12.128 145.751668 12.0586674 145.421 11.92 145.090332 11.7813326 144.815668 11.5813346 144.597 11.32 144.378332 11.0586654 144.213001 10.7440018 144.101 10.376 143.988999 10.0079982 143.933 9.59200232 143.933 9.128L143.933 4.04 144.701 4.04zM152.789 12L152.789 4.04 153.189 4.04C153.279667 4.04 153.345 4.05866648 153.385 4.096 153.425 4.13333352 153.447667 4.19733288 153.453 4.288L153.517 5.968C153.773001 5.32266344 154.114331 4.81733516 154.541 4.452 154.967669 4.08666484 155.492997 3.904 156.117 3.904 156.357001 3.904 156.578332 3.92933308 156.781 3.98 156.983668 4.03066692 157.175666 4.10399952 157.357 4.2L157.253 4.728C157.237 4.81333376 157.183667 4.856 157.093 4.856 157.061 4.856 157.015667 4.84533344 156.957 4.824 156.898333 4.80266656 156.825 4.7786668 156.737 4.752 156.649 4.7253332 156.541001 4.70133344 156.413 4.68 156.284999 4.65866656 156.138334 4.648 155.973 4.648 155.37033 4.648 154.875669 4.8346648 154.489 5.208 154.102331 5.5813352 153.789001 6.11999648 153.549 6.824L153.549 12 152.789 12zM163.213.36L163.213 12 162.453 12 162.453.36 163.213.36zM167.013 4.04L167.013 12 166.253 12 166.253 4.04 167.013 4.04zM167.349 1.296C167.349 1.39200048 167.329 1.48133292 167.289 1.564 167.249 1.64666708 167.197 1.71999968 167.133 1.784 167.069 1.84800032 166.994334 1.89866648 166.909 1.936 166.823666 1.97333352 166.733 1.992 166.637 1.992 166.541 1.992 166.450334 1.97333352 166.365 1.936 166.279666 1.89866648 166.205 1.84800032 166.141 1.784 166.077 1.71999968 166.026334 1.64666708 165.989 1.564 165.951666 1.48133292 165.933 1.39200048 165.933 1.296 165.933 1.19999952 165.951666 1.10800044 165.989 1.02 166.026334.93199956 166.077.85600032 166.141.792 166.205.72799968 166.279666.67733352 166.365.64 166.450334.60266648 166.541.584 166.637.584 166.733.584 166.823666.60266648 166.909.64 166.994334.67733352 167.069.72799968 167.133.792 167.197.85600032 167.249.93199956 167.289 1.02 167.329 1.10800044 167.349 1.19999952 167.349 1.296zM174.213 5.024C174.175666 5.09866704 174.117 5.136 174.037 5.136 173.978333 5.136 173.902334 5.102667 173.809 5.036 173.715666 4.969333 173.593001 4.89466708 173.441 4.812 173.288999 4.72933292 173.102334 4.654667 172.881 4.588 172.659666 4.521333 172.389002 4.488 172.069 4.488 171.780999 4.488 171.518335 4.52933292 171.281 4.612 171.043665 4.69466708 170.841001 4.80533264 170.673 4.944 170.504999 5.08266736 170.374334 5.24399908 170.281 5.428 170.187666 5.61200092 170.141 5.80533232 170.141 6.008 170.141 6.25866792 170.204999 6.46666584 170.333 6.632 170.461001 6.79733416 170.628999 6.93866608 170.837 7.056 171.045001 7.17333392 171.280999 7.27466624 171.545 7.36 171.809001 7.44533376 172.079665 7.53066624 172.357 7.616 172.634335 7.70133376 172.904999 7.79599948 173.169 7.9 173.433001 8.00400052 173.668999 8.13333256 173.877 8.288 174.085001 8.44266744 174.252999 8.63199888 174.381 8.856 174.509001 9.08000112 174.573 9.3519984 174.573 9.672 174.573 10.0186684 174.510334 10.3413318 174.385 10.64 174.259666 10.9386682 174.078335 11.1973322 173.841 11.416 173.603665 11.6346678 173.311668 11.8079994 172.965 11.936 172.618332 12.0640006 172.223669 12.128 171.781 12.128 171.220997 12.128 170.738335 12.0386676 170.333 11.86 169.927665 11.6813324 169.565002 11.4480014 169.245 11.16L169.429 10.888C169.455667 10.8453331 169.485 10.8133334 169.517 10.792 169.549 10.7706666 169.594333 10.76 169.653 10.76 169.722334 10.76 169.807666 10.8026662 169.909 10.888 170.010334 10.9733338 170.142333 11.0653328 170.305 11.164 170.467667 11.2626672 170.670332 11.3546662 170.913 11.44 171.155668 11.5253338 171.455665 11.568 171.813 11.568 172.149002 11.568 172.444999 11.5213338 172.701 11.428 172.957001 11.3346662 173.170332 11.2080008 173.341 11.048 173.511668 10.8879992 173.641 10.7000011 173.729 10.484 173.817 10.2679989 173.861 10.0400012 173.861 9.8 173.861 9.533332 173.797001 9.31200088 173.669 9.136 173.540999 8.95999912 173.373001 8.81066728 173.165 8.688 172.956999 8.56533272 172.721001 8.46133376 172.457 8.376 172.192999 8.29066624 171.921001 8.20533376 171.641 8.12 171.360999 8.03466624 171.089001 7.94133384 170.825 7.84 170.560999 7.73866616 170.325001 7.61066744 170.117 7.456 169.908999 7.30133256 169.741001 7.11333444 169.613 6.892 169.484999 6.67066556 169.421 6.39466832 169.421 6.064 169.421 5.78133192 169.482333 5.50933464 169.605 5.248 169.727667 4.98666536 169.902332 4.75733432 170.129 4.56 170.355668 4.36266568 170.631665 4.20533392 170.957 4.088 171.282335 3.97066608 171.647665 3.912 172.053 3.912 172.538336 3.912 172.968998 3.98133264 173.345 4.12 173.721002 4.25866736 174.066332 4.47199856 174.381 4.76L174.213 5.024zM178.885 12.128C178.346331 12.128 177.926335 11.9786682 177.625 11.68 177.323665 11.3813318 177.173 10.9200031 177.173 10.296L177.173 4.856 176.029 4.856C175.970333 4.856 175.922334 4.84000016 175.885 4.808 175.847666 4.77599984 175.829 4.73066696 175.829 4.672L175.829 4.376 177.189 4.28 177.381 1.432C177.386333 1.38399976 177.406333 1.34133352 177.441 1.304 177.475667 1.26666648 177.522333 1.248 177.581 1.248L177.941 1.248 177.941 4.288 180.445 4.288 180.445 4.856 177.941 4.856 177.941 10.256C177.941 10.4746678 177.969 10.6626659 178.025 10.82 178.081 10.9773341 178.158333 11.1066662 178.257 11.208 178.355667 11.3093338 178.471666 11.3839998 178.605 11.432 178.738334 11.4800002 178.882333 11.504 179.037 11.504 179.229001 11.504 179.394333 11.4760003 179.533 11.42 179.671667 11.3639997 179.791666 11.302667 179.893 11.236 179.994334 11.169333 180.077 11.1080003 180.141 11.052 180.205 10.9959997 180.255666 10.968 180.293 10.968 180.335667 10.968 180.378333 10.9946664 180.421 11.048L180.629 11.384C180.426332 11.6080011 180.169002 11.7879993 179.857 11.924 179.544998 12.0600007 179.221002 12.128 178.885 12.128zM188.533 3.912C189.10367 3.912 189.614331 4.00933236 190.065 4.204 190.515669 4.39866764 190.895665 4.67466488 191.205 5.032 191.514335 5.38933512 191.750333 5.81999748 191.913 6.324 192.075667 6.82800252 192.157 7.39199688 192.157 8.016 192.157 8.64000312 192.075667 9.20266416 191.913 9.704 191.750333 10.2053358 191.514335 10.6346649 191.205 10.992 190.895665 11.3493351 190.515669 11.623999 190.065 11.816 189.614331 12.008001 189.10367 12.104 188.533 12.104 187.96233 12.104 187.451669 12.008001 187.001 11.816 186.550331 11.623999 186.169002 11.3493351 185.857 10.992 185.544998 10.6346649 185.307667 10.2053358 185.145 9.704 184.982333 9.20266416 184.901 8.64000312 184.901 8.016 184.901 7.39199688 184.982333 6.82800252 185.145 6.324 185.307667 5.81999748 185.544998 5.38933512 185.857 5.032 186.169002 4.67466488 186.550331 4.39866764 187.001 4.204 187.451669 4.00933236 187.96233 3.912 188.533 3.912zM188.533 11.504C189.007669 11.504 189.422332 11.4226675 189.777 11.26 190.131668 11.0973325 190.427665 10.8640015 190.665 10.56 190.902335 10.2559985 191.079666 9.88933548 191.197 9.46 191.314334 9.03066452 191.373 8.549336 191.373 8.016 191.373 7.48799736 191.314334 7.00800216 191.197 6.576 191.079666 6.14399784 190.902335 5.7746682 190.665 5.468 190.427665 5.1613318 190.131668 4.92533416 189.777 4.76 189.422332 4.59466584 189.007669 4.512 188.533 4.512 188.058331 4.512 187.643668 4.59466584 187.289 4.76 186.934332 4.92533416 186.638335 5.1613318 186.401 5.468 186.163665 5.7746682 185.985001 6.14399784 185.865 6.576 185.744999 7.00800216 185.685 7.48799736 185.685 8.016 185.685 8.549336 185.744999 9.03066452 185.865 9.46 185.985001 9.88933548 186.163665 10.2559985 186.401 10.56 186.638335 10.8640015 186.934332 11.0973325 187.289 11.26 187.643668 11.4226675 188.058331 11.504 188.533 11.504zM194.453 12L194.453 4.872 193.333 4.8C193.178333 4.78933328 193.101 4.72266728 193.101 4.6L193.101 4.288 194.453 4.288 194.453 3.28C194.453 2.8266644 194.511666 2.42800172 194.629 2.084 194.746334 1.73999828 194.911666 1.45333448 195.125 1.224 195.338334.99466552 195.595665.82266724 195.897.708 196.198335.59333276 196.530332.536 196.893.536 197.058334.536 197.224999.55066652 197.393.58 197.561001.60933348 197.708999.6506664 197.837.704L197.813 1.072C197.807667 1.14666704 197.757 1.184 197.661 1.184 197.597 1.184 197.510334 1.17600008 197.401 1.16 197.291666 1.14399992 197.157001 1.136 196.997 1.136 196.735665 1.136 196.494334 1.17466628 196.273 1.252 196.051666 1.32933372 195.861001 1.45333248 195.701 1.624 195.540999 1.79466752 195.417 2.01733196 195.329 2.292 195.241 2.56666804 195.197 2.903998 195.197 3.304L195.197 4.288 197.781 4.288 197.781 4.856 195.213 4.856 195.213 12 194.453 12zM202.397 12L202.397 4.04 202.797 4.04C202.887667 4.04 202.953 4.05866648 202.993 4.096 203.033 4.13333352 203.055667 4.19733288 203.061 4.288L203.125 5.968C203.381001 5.32266344 203.722331 4.81733516 204.149 4.452 204.575669 4.08666484 205.100997 3.904 205.725 3.904 205.965001 3.904 206.186332 3.92933308 206.389 3.98 206.591668 4.03066692 206.783666 4.10399952 206.965 4.2L206.861 4.728C206.845 4.81333376 206.791667 4.856 206.701 4.856 206.669 4.856 206.623667 4.84533344 206.565 4.824 206.506333 4.80266656 206.433 4.7786668 206.345 4.752 206.257 4.7253332 206.149001 4.70133344 206.021 4.68 205.892999 4.65866656 205.746334 4.648 205.581 4.648 204.97833 4.648 204.483669 4.8346648 204.097 5.208 203.710331 5.5813352 203.397001 6.11999648 203.157 6.824L203.157 12 202.397 12zM211.749 3.912C212.197002 3.912 212.611665 3.98933256 212.993 4.144 213.374335 4.29866744 213.704999 4.52399852 213.985 4.82 214.265001 5.11600148 214.483666 5.47999784 214.641 5.912 214.798334 6.34400216 214.877 6.8399972 214.877 7.4 214.877 7.51733392 214.859667 7.59733312 214.825 7.64 214.790333 7.68266688 214.735667 7.704 214.661 7.704L208.909 7.704 208.909 7.856C208.909 8.45333632 208.978333 8.9786644 209.117 9.432 209.255667 9.8853356 209.452999 10.2653318 209.709 10.572 209.965001 10.8786682 210.274332 11.1093326 210.637 11.264 210.999668 11.4186674 211.404998 11.496 211.853 11.496 212.253002 11.496 212.599665 11.4520004 212.893 11.364 213.186335 11.2759996 213.432999 11.1773339 213.633 11.068 213.833001 10.9586661 213.991666 10.8600004 214.109 10.772 214.226334 10.6839996 214.311666 10.64 214.365 10.64 214.434334 10.64 214.487666 10.6666664 214.525 10.72L214.733 10.976C214.604999 11.1360008 214.435668 11.2853326 214.225 11.424 214.014332 11.5626674 213.779668 11.6813328 213.521 11.78 213.262332 11.8786672 212.985001 11.957333 212.689 12.016 212.392999 12.074667 212.095668 12.104 211.797 12.104 211.252997 12.104 210.757002 12.0093343 210.309 11.82 209.860998 11.6306657 209.477002 11.3546685 209.157 10.992 208.836998 10.6293315 208.590334 10.185336 208.417 9.66 208.243666 9.13466404 208.157 8.53333672 208.157 7.856 208.157 7.28533048 208.238333 6.75866908 208.401 6.276 208.563667 5.79333092 208.798332 5.37733508 209.105 5.028 209.411668 4.67866492 209.787664 4.40533432 210.233 4.208 210.678336 4.01066568 211.183664 3.912 211.749 3.912zM211.757 4.48C211.346331 4.48 210.978335 4.54399936 210.653 4.672 210.327665 4.80000064 210.046335 4.9839988 209.809 5.224 209.571665 5.4640012 209.379667 5.75199832 209.233 6.088 209.086333 6.42400168 208.989 6.79999792 208.941 7.216L214.189 7.216C214.189 6.7893312 214.130334 6.40666836 214.013 6.068 213.895666 5.72933164 213.730334 5.44266784 213.517 5.208 213.303666 4.97333216 213.047668 4.79333396 212.749 4.668 212.450332 4.54266604 212.119668 4.48 211.757 4.48zM216.925 14.816L216.925 4.04 217.341 4.04C217.410334 4.04 217.466333 4.05466652 217.509 4.084 217.551667 4.11333348 217.575667 4.16533296 217.581 4.24L217.653 5.472C218.005002 4.9919976 218.416998 4.61066808 218.889 4.328 219.361002 4.04533192 219.89033 3.904 220.477 3.904 221.458338 3.904 222.220997 4.24266328 222.765 4.92 223.309003 5.59733672 223.581 6.61332656 223.581 7.968 223.581 8.54933624 223.505001 9.09199748 223.353 9.596 223.200999 10.1000025 222.978335 10.5373315 222.685 10.908 222.391665 11.2786685 222.030335 11.5706656 221.601 11.784 221.171665 11.9973344 220.677003 12.104 220.117 12.104 219.572997 12.104 219.103669 12.0053343 218.709 11.808 218.314331 11.6106657 217.973001 11.3173353 217.685 10.928L217.685 14.816 216.925 14.816zM220.261 4.52C219.732997 4.52 219.254335 4.65733196 218.825 4.932 218.395665 5.20666804 218.015668 5.58933088 217.685 6.08L217.685 10.256C217.989002 10.714669 218.326331 11.0373324 218.697 11.224 219.067669 11.4106676 219.490331 11.504 219.965 11.504 220.434336 11.504 220.844998 11.4186675 221.197 11.248 221.549002 11.0773325 221.843665 10.8360016 222.081 10.524 222.318335 10.2119984 222.496999 9.83866884 222.617 9.404 222.737001 8.96933116 222.797 8.49066928 222.797 7.968 222.797 6.78399408 222.579669 5.91333612 222.145 5.356 221.710331 4.79866388 221.082337 4.52 220.261 4.52zM228.517 3.912C229.08767 3.912 229.598331 4.00933236 230.049 4.204 230.499669 4.39866764 230.879665 4.67466488 231.189 5.032 231.498335 5.38933512 231.734333 5.81999748 231.897 6.324 232.059667 6.82800252 232.141 7.39199688 232.141 8.016 232.141 8.64000312 232.059667 9.20266416 231.897 9.704 231.734333 10.2053358 231.498335 10.6346649 231.189 10.992 230.879665 11.3493351 230.499669 11.623999 230.049 11.816 229.598331 12.008001 229.08767 12.104 228.517 12.104 227.94633 12.104 227.435669 12.008001 226.985 11.816 226.534331 11.623999 226.153002 11.3493351 225.841 10.992 225.528998 10.6346649 225.291667 10.2053358 225.129 9.704 224.966333 9.20266416 224.885 8.64000312 224.885 8.016 224.885 7.39199688 224.966333 6.82800252 225.129 6.324 225.291667 5.81999748 225.528998 5.38933512 225.841 5.032 226.153002 4.67466488 226.534331 4.39866764 226.985 4.204 227.435669 4.00933236 227.94633 3.912 228.517 3.912zM228.517 11.504C228.991669 11.504 229.406332 11.4226675 229.761 11.26 230.115668 11.0973325 230.411665 10.8640015 230.649 10.56 230.886335 10.2559985 231.063666 9.88933548 231.181 9.46 231.298334 9.03066452 231.357 8.549336 231.357 8.016 231.357 7.48799736 231.298334 7.00800216 231.181 6.576 231.063666 6.14399784 230.886335 5.7746682 230.649 5.468 230.411665 5.1613318 230.115668 4.92533416 229.761 4.76 229.406332 4.59466584 228.991669 4.512 228.517 4.512 228.042331 4.512 227.627668 4.59466584 227.273 4.76 226.918332 4.92533416 226.622335 5.1613318 226.385 5.468 226.147665 5.7746682 225.969001 6.14399784 225.849 6.576 225.728999 7.00800216 225.669 7.48799736 225.669 8.016 225.669 8.549336 225.728999 9.03066452 225.849 9.46 225.969001 9.88933548 226.147665 10.2559985 226.385 10.56 226.622335 10.8640015 226.918332 11.0973325 227.273 11.26 227.627668 11.4226675 228.042331 11.504 228.517 11.504zM238.525 5.024C238.487666 5.09866704 238.429 5.136 238.349 5.136 238.290333 5.136 238.214334 5.102667 238.121 5.036 238.027666 4.969333 237.905001 4.89466708 237.753 4.812 237.600999 4.72933292 237.414334 4.654667 237.193 4.588 236.971666 4.521333 236.701002 4.488 236.381 4.488 236.092999 4.488 235.830335 4.52933292 235.593 4.612 235.355665 4.69466708 235.153001 4.80533264 234.985 4.944 234.816999 5.08266736 234.686334 5.24399908 234.593 5.428 234.499666 5.61200092 234.453 5.80533232 234.453 6.008 234.453 6.25866792 234.516999 6.46666584 234.645 6.632 234.773001 6.79733416 234.940999 6.93866608 235.149 7.056 235.357001 7.17333392 235.592999 7.27466624 235.857 7.36 236.121001 7.44533376 236.391665 7.53066624 236.669 7.616 236.946335 7.70133376 237.216999 7.79599948 237.481 7.9 237.745001 8.00400052 237.980999 8.13333256 238.189 8.288 238.397001 8.44266744 238.564999 8.63199888 238.693 8.856 238.821001 9.08000112 238.885 9.3519984 238.885 9.672 238.885 10.0186684 238.822334 10.3413318 238.697 10.64 238.571666 10.9386682 238.390335 11.1973322 238.153 11.416 237.915665 11.6346678 237.623668 11.8079994 237.277 11.936 236.930332 12.0640006 236.535669 12.128 236.093 12.128 235.532997 12.128 235.050335 12.0386676 234.645 11.86 234.239665 11.6813324 233.877002 11.4480014 233.557 11.16L233.741 10.888C233.767667 10.8453331 233.797 10.8133334 233.829 10.792 233.861 10.7706666 233.906333 10.76 233.965 10.76 234.034334 10.76 234.119666 10.8026662 234.221 10.888 234.322334 10.9733338 234.454333 11.0653328 234.617 11.164 234.779667 11.2626672 234.982332 11.3546662 235.225 11.44 235.467668 11.5253338 235.767665 11.568 236.125 11.568 236.461002 11.568 236.756999 11.5213338 237.013 11.428 237.269001 11.3346662 237.482332 11.2080008 237.653 11.048 237.823668 10.8879992 237.953 10.7000011 238.041 10.484 238.129 10.2679989 238.173 10.0400012 238.173 9.8 238.173 9.533332 238.109001 9.31200088 237.981 9.136 237.852999 8.95999912 237.685001 8.81066728 237.477 8.688 237.268999 8.56533272 237.033001 8.46133376 236.769 8.376 236.504999 8.29066624 236.233001 8.20533376 235.953 8.12 235.672999 8.03466624 235.401001 7.94133384 235.137 7.84 234.872999 7.73866616 234.637001 7.61066744 234.429 7.456 234.220999 7.30133256 234.053001 7.11333444 233.925 6.892 233.796999 6.67066556 233.733 6.39466832 233.733 6.064 233.733 5.78133192 233.794333 5.50933464 233.917 5.248 234.039667 4.98666536 234.214332 4.75733432 234.441 4.56 234.667668 4.36266568 234.943665 4.20533392 235.269 4.088 235.594335 3.97066608 235.959665 3.912 236.365 3.912 236.850336 3.912 237.280998 3.98133264 237.657 4.12 238.033002 4.25866736 238.378332 4.47199856 238.693 4.76L238.525 5.024zM242.005 4.04L242.005 12 241.245 12 241.245 4.04 242.005 4.04zM242.341 1.296C242.341 1.39200048 242.321 1.48133292 242.281 1.564 242.241 1.64666708 242.189 1.71999968 242.125 1.784 242.061 1.84800032 241.986334 1.89866648 241.901 1.936 241.815666 1.97333352 241.725 1.992 241.629 1.992 241.533 1.992 241.442334 1.97333352 241.357 1.936 241.271666 1.89866648 241.197 1.84800032 241.133 1.784 241.069 1.71999968 241.018334 1.64666708 240.981 1.564 240.943666 1.48133292 240.925 1.39200048 240.925 1.296 240.925 1.19999952 240.943666 1.10800044 240.981 1.02 241.018334.93199956 241.069.85600032 241.133.792 241.197.72799968 241.271666.67733352 241.357.64 241.442334.60266648 241.533.584 241.629.584 241.725.584 241.815666.60266648 241.901.64 241.986334.67733352 242.061.72799968 242.125.792 242.189.85600032 242.241.93199956 242.281 1.02 242.321 1.10800044 242.341 1.19999952 242.341 1.296zM246.997 12.128C246.458331 12.128 246.038335 11.9786682 245.737 11.68 245.435665 11.3813318 245.285 10.9200031 245.285 10.296L245.285 4.856 244.141 4.856C244.082333 4.856 244.034334 4.84000016 243.997 4.808 243.959666 4.77599984 243.941 4.73066696 243.941 4.672L243.941 4.376 245.301 4.28 245.493 1.432C245.498333 1.38399976 245.518333 1.34133352 245.553 1.304 245.587667 1.26666648 245.634333 1.248 245.693 1.248L246.053 1.248 246.053 4.288 248.557 4.288 248.557 4.856 246.053 4.856 246.053 10.256C246.053 10.4746678 246.081 10.6626659 246.137 10.82 246.193 10.9773341 246.270333 11.1066662 246.369 11.208 246.467667 11.3093338 246.583666 11.3839998 246.717 11.432 246.850334 11.4800002 246.994333 11.504 247.149 11.504 247.341001 11.504 247.506333 11.4760003 247.645 11.42 247.783667 11.3639997 247.903666 11.302667 248.005 11.236 248.106334 11.169333 248.189 11.1080003 248.253 11.052 248.317 10.9959997 248.367666 10.968 248.405 10.968 248.447667 10.968 248.490333 10.9946664 248.533 11.048L248.741 11.384C248.538332 11.6080011 248.281002 11.7879993 247.969 11.924 247.656998 12.0600007 247.333002 12.128 246.997 12.128zM253.557 3.912C254.12767 3.912 254.638331 4.00933236 255.089 4.204 255.539669 4.39866764 255.919665 4.67466488 256.229 5.032 256.538335 5.38933512 256.774333 5.81999748 256.937 6.324 257.099667 6.82800252 257.181 7.39199688 257.181 8.016 257.181 8.64000312 257.099667 9.20266416 256.937 9.704 256.774333 10.2053358 256.538335 10.6346649 256.229 10.992 255.919665 11.3493351 255.539669 11.623999 255.089 11.816 254.638331 12.008001 254.12767 12.104 253.557 12.104 252.98633 12.104 252.475669 12.008001 252.025 11.816 251.574331 11.623999 251.193002 11.3493351 250.881 10.992 250.568998 10.6346649 250.331667 10.2053358 250.169 9.704 250.006333 9.20266416 249.925 8.64000312 249.925 8.016 249.925 7.39199688 250.006333 6.82800252 250.169 6.324 250.331667 5.81999748 250.568998 5.38933512 250.881 5.032 251.193002 4.67466488 251.574331 4.39866764 252.025 4.204 252.475669 4.00933236 252.98633 3.912 253.557 3.912zM253.557 11.504C254.031669 11.504 254.446332 11.4226675 254.801 11.26 255.155668 11.0973325 255.451665 10.8640015 255.689 10.56 255.926335 10.2559985 256.103666 9.88933548 256.221 9.46 256.338334 9.03066452 256.397 8.549336 256.397 8.016 256.397 7.48799736 256.338334 7.00800216 256.221 6.576 256.103666 6.14399784 255.926335 5.7746682 255.689 5.468 255.451665 5.1613318 255.155668 4.92533416 254.801 4.76 254.446332 4.59466584 254.031669 4.512 253.557 4.512 253.082331 4.512 252.667668 4.59466584 252.313 4.76 251.958332 4.92533416 251.662335 5.1613318 251.425 5.468 251.187665 5.7746682 251.009001 6.14399784 250.889 6.576 250.768999 7.00800216 250.709 7.48799736 250.709 8.016 250.709 8.549336 250.768999 9.03066452 250.889 9.46 251.009001 9.88933548 251.187665 10.2559985 251.425 10.56 251.662335 10.8640015 251.958332 11.0973325 252.313 11.26 252.667668 11.4226675 253.082331 11.504 253.557 11.504zM259.181 12L259.181 4.04 259.581 4.04C259.671667 4.04 259.737 4.05866648 259.777 4.096 259.817 4.13333352 259.839667 4.19733288 259.845 4.288L259.909 5.968C260.165001 5.32266344 260.506331 4.81733516 260.933 4.452 261.359669 4.08666484 261.884997 3.904 262.509 3.904 262.749001 3.904 262.970332 3.92933308 263.173 3.98 263.375668 4.03066692 263.567666 4.10399952 263.749 4.2L263.645 4.728C263.629 4.81333376 263.575667 4.856 263.485 4.856 263.453 4.856 263.407667 4.84533344 263.349 4.824 263.290333 4.80266656 263.217 4.7786668 263.129 4.752 263.041 4.7253332 262.933001 4.70133344 262.805 4.68 262.676999 4.65866656 262.530334 4.648 262.365 4.648 261.76233 4.648 261.267669 4.8346648 260.881 5.208 260.494331 5.5813352 260.181001 6.11999648 259.941 6.824L259.941 12 259.181 12zM266.517 4.04L266.517 12 265.757 12 265.757 4.04 266.517 4.04zM266.853 1.296C266.853 1.39200048 266.833 1.48133292 266.793 1.564 266.753 1.64666708 266.701 1.71999968 266.637 1.784 266.573 1.84800032 266.498334 1.89866648 266.413 1.936 266.327666 1.97333352 266.237 1.992 266.141 1.992 266.045 1.992 265.954334 1.97333352 265.869 1.936 265.783666 1.89866648 265.709 1.84800032 265.645 1.784 265.581 1.71999968 265.530334 1.64666708 265.493 1.564 265.455666 1.48133292 265.437 1.39200048 265.437 1.296 265.437 1.19999952 265.455666 1.10800044 265.493 1.02 265.530334.93199956 265.581.85600032 265.645.792 265.709.72799968 265.783666.67733352 265.869.64 265.954334.60266648 266.045.584 266.141.584 266.237.584 266.327666.60266648 266.413.64 266.498334.67733352 266.573.72799968 266.637.792 266.701.85600032 266.753.93199956 266.793 1.02 266.833 1.10800044 266.853 1.19999952 266.853 1.296zM272.333 3.912C272.781002 3.912 273.195665 3.98933256 273.577 4.144 273.958335 4.29866744 274.288999 4.52399852 274.569 4.82 274.849001 5.11600148 275.067666 5.47999784 275.225 5.912 275.382334 6.34400216 275.461 6.8399972 275.461 7.4 275.461 7.51733392 275.443667 7.59733312 275.409 7.64 275.374333 7.68266688 275.319667 7.704 275.245 7.704L269.493 7.704 269.493 7.856C269.493 8.45333632 269.562333 8.9786644 269.701 9.432 269.839667 9.8853356 270.036999 10.2653318 270.293 10.572 270.549001 10.8786682 270.858332 11.1093326 271.221 11.264 271.583668 11.4186674 271.988998 11.496 272.437 11.496 272.837002 11.496 273.183665 11.4520004 273.477 11.364 273.770335 11.2759996 274.016999 11.1773339 274.217 11.068 274.417001 10.9586661 274.575666 10.8600004 274.693 10.772 274.810334 10.6839996 274.895666 10.64 274.949 10.64 275.018334 10.64 275.071666 10.6666664 275.109 10.72L275.317 10.976C275.188999 11.1360008 275.019668 11.2853326 274.809 11.424 274.598332 11.5626674 274.363668 11.6813328 274.105 11.78 273.846332 11.8786672 273.569001 11.957333 273.273 12.016 272.976999 12.074667 272.679668 12.104 272.381 12.104 271.836997 12.104 271.341002 12.0093343 270.893 11.82 270.444998 11.6306657 270.061002 11.3546685 269.741 10.992 269.420998 10.6293315 269.174334 10.185336 269.001 9.66 268.827666 9.13466404 268.741 8.53333672 268.741 7.856 268.741 7.28533048 268.822333 6.75866908 268.985 6.276 269.147667 5.79333092 269.382332 5.37733508 269.689 5.028 269.995668 4.67866492 270.371664 4.40533432 270.817 4.208 271.262336 4.01066568 271.767664 3.912 272.333 3.912zM272.341 4.48C271.930331 4.48 271.562335 4.54399936 271.237 4.672 270.911665 4.80000064 270.630335 4.9839988 270.393 5.224 270.155665 5.4640012 269.963667 5.75199832 269.817 6.088 269.670333 6.42400168 269.573 6.79999792 269.525 7.216L274.773 7.216C274.773 6.7893312 274.714334 6.40666836 274.597 6.068 274.479666 5.72933164 274.314334 5.44266784 274.101 5.208 273.887666 4.97333216 273.631668 4.79333396 273.333 4.668 273.034332 4.54266604 272.703668 4.48 272.341 4.48zM281.893 5.024C281.855666 5.09866704 281.797 5.136 281.717 5.136 281.658333 5.136 281.582334 5.102667 281.489 5.036 281.395666 4.969333 281.273001 4.89466708 281.121 4.812 280.968999 4.72933292 280.782334 4.654667 280.561 4.588 280.339666 4.521333 280.069002 4.488 279.749 4.488 279.460999 4.488 279.198335 4.52933292 278.961 4.612 278.723665 4.69466708 278.521001 4.80533264 278.353 4.944 278.184999 5.08266736 278.054334 5.24399908 277.961 5.428 277.867666 5.61200092 277.821 5.80533232 277.821 6.008 277.821 6.25866792 277.884999 6.46666584 278.013 6.632 278.141001 6.79733416 278.308999 6.93866608 278.517 7.056 278.725001 7.17333392 278.960999 7.27466624 279.225 7.36 279.489001 7.44533376 279.759665 7.53066624 280.037 7.616 280.314335 7.70133376 280.584999 7.79599948 280.849 7.9 281.113001 8.00400052 281.348999 8.13333256 281.557 8.288 281.765001 8.44266744 281.932999 8.63199888 282.061 8.856 282.189001 9.08000112 282.253 9.3519984 282.253 9.672 282.253 10.0186684 282.190334 10.3413318 282.065 10.64 281.939666 10.9386682 281.758335 11.1973322 281.521 11.416 281.283665 11.6346678 280.991668 11.8079994 280.645 11.936 280.298332 12.0640006 279.903669 12.128 279.461 12.128 278.900997 12.128 278.418335 12.0386676 278.013 11.86 277.607665 11.6813324 277.245002 11.4480014 276.925 11.16L277.109 10.888C277.135667 10.8453331 277.165 10.8133334 277.197 10.792 277.229 10.7706666 277.274333 10.76 277.333 10.76 277.402334 10.76 277.487666 10.8026662 277.589 10.888 277.690334 10.9733338 277.822333 11.0653328 277.985 11.164 278.147667 11.2626672 278.350332 11.3546662 278.593 11.44 278.835668 11.5253338 279.135665 11.568 279.493 11.568 279.829002 11.568 280.124999 11.5213338 280.381 11.428 280.637001 11.3346662 280.850332 11.2080008 281.021 11.048 281.191668 10.8879992 281.321 10.7000011 281.409 10.484 281.497 10.2679989 281.541 10.0400012 281.541 9.8 281.541 9.533332 281.477001 9.31200088 281.349 9.136 281.220999 8.95999912 281.053001 8.81066728 280.845 8.688 280.636999 8.56533272 280.401001 8.46133376 280.137 8.376 279.872999 8.29066624 279.601001 8.20533376 279.321 8.12 279.040999 8.03466624 278.769001 7.94133384 278.505 7.84 278.240999 7.73866616 278.005001 7.61066744 277.797 7.456 277.588999 7.30133256 277.421001 7.11333444 277.293 6.892 277.164999 6.67066556 277.101 6.39466832 277.101 6.064 277.101 5.78133192 277.162333 5.50933464 277.285 5.248 277.407667 4.98666536 277.582332 4.75733432 277.809 4.56 278.035668 4.36266568 278.311665 4.20533392 278.637 4.088 278.962335 3.97066608 279.327665 3.912 279.733 3.912 280.218336 3.912 280.648998 3.98133264 281.025 4.12 281.401002 4.25866736 281.746332 4.47199856 282.061 4.76L281.893 5.024zM283.933 11.384C283.933 11.2826662 283.951666 11.1866671 283.989 11.096 284.026334 11.0053329 284.078333 10.926667 284.145 10.86 284.211667 10.793333 284.289 10.7400002 284.377 10.7 284.465 10.6599998 284.562333 10.64 284.669 10.64 284.770334 10.64 284.866333 10.6599998 284.957 10.7 285.047667 10.7400002 285.126333 10.793333 285.193 10.86 285.259667 10.926667 285.313 11.0053329 285.353 11.096 285.393 11.1866671 285.413 11.2826662 285.413 11.384 285.413 11.4906672 285.393 11.5879996 285.353 11.676 285.313 11.7640004 285.259667 11.841333 285.193 11.908 285.126333 11.974667 285.047667 12.0266665 284.957 12.064 284.866333 12.1013335 284.770334 12.12 284.669 12.12 284.460999 12.12 284.286334 12.049334 284.145 11.908 284.003666 11.766666 283.933 11.592001 283.933 11.384zM101.525 29.096C101.578334 29.096 101.623666 29.1146665 101.661 29.152L101.981 29.496C101.746332 29.7466679 101.490335 29.971999 101.213 30.172 100.935665 30.372001 100.633002 30.542666 100.305 30.684 99.9769984 30.825334 99.617002 30.9346663 99.225 31.012 98.832998 31.0893337 98.4023357 31.128 97.933 31.128 97.1489961 31.128 96.4303366 30.990668 95.777 30.716 95.1236634 30.441332 94.563669 30.0520025 94.097 29.548 93.630331 29.0439975 93.2663346 28.4346702 93.005 27.72 92.7436654 27.0053298 92.613 26.210671 92.613 25.336 92.613 24.477329 92.7476653 23.6933369 93.017 22.984 93.2863347 22.2746631 93.6649976 21.6653359 94.153 21.156 94.6410024 20.6466641 95.2249966 20.2520014 95.905 19.972 96.5850034 19.6919986 97.3356626 19.552 98.157 19.552 98.5676687 19.552 98.943665 19.5826664 99.285 19.644 99.626335 19.7053336 99.9449985 19.7933328 100.241 19.908 100.537001 20.0226672 100.815665 20.1653325 101.077 20.336 101.338335 20.5066675 101.594332 20.7039989 101.845 20.928L101.597 21.288C101.554333 21.3520003 101.487667 21.384 101.397 21.384 101.349 21.384 101.287667 21.3560003 101.213 21.3 101.138333 21.2439997 101.043667 21.1746671 100.929 21.092 100.814333 21.0093329 100.675667 20.9186672 100.513 20.82 100.350333 20.7213328 100.157001 20.6306671 99.933 20.548 99.7089989 20.4653329 99.4503348 20.3960003 99.157 20.34 98.8636652 20.2839997 98.5303352 20.256 98.157 20.256 97.4689966 20.256 96.8370029 20.3746655 96.261 20.612 95.6849971 20.8493345 95.1890021 21.1879978 94.773 21.628 94.3569979 22.0680022 94.0330012 22.6013302 93.801 23.228 93.5689988 23.8546698 93.453 24.5573294 93.453 25.336 93.453 26.136004 93.5676655 26.8506635 93.797 27.48 94.0263345 28.1093365 94.3436646 28.6413312 94.749 29.076 95.1543354 29.5106688 95.6329972 29.8439988 96.185 30.076 96.7370028 30.3080012 97.3356634 30.424 97.981 30.424 98.3863354 30.424 98.7476651 30.3973336 99.065 30.344 99.3823349 30.2906664 99.674332 30.2106672 99.941 30.104 100.207668 29.9973328 100.455666 29.8666674 100.685 29.712 100.914334 29.5573326 101.140999 29.376001 101.365 29.168 101.391667 29.1466666 101.417 29.1293334 101.441 29.116 101.465 29.1026666 101.493 29.096 101.525 29.096zM105.157 19.36L105.157 31 104.397 31 104.397 19.36 105.157 19.36zM108.957 23.04L108.957 31 108.197 31 108.197 23.04 108.957 23.04zM109.293 20.296C109.293 20.3920005 109.273 20.4813329 109.233 20.564 109.193 20.6466671 109.141 20.7199997 109.077 20.784 109.013 20.8480003 108.938334 20.8986665 108.853 20.936 108.767666 20.9733335 108.677 20.992 108.581 20.992 108.485 20.992 108.394334 20.9733335 108.309 20.936 108.223666 20.8986665 108.149 20.8480003 108.085 20.784 108.021 20.7199997 107.970334 20.6466671 107.933 20.564 107.895666 20.4813329 107.877 20.3920005 107.877 20.296 107.877 20.1999995 107.895666 20.1080004 107.933 20.02 107.970334 19.9319996 108.021 19.8560003 108.085 19.792 108.149 19.7279997 108.223666 19.6773335 108.309 19.64 108.394334 19.6026665 108.485 19.584 108.581 19.584 108.677 19.584 108.767666 19.6026665 108.853 19.64 108.938334 19.6773335 109.013 19.7279997 109.077 19.792 109.141 19.8560003 109.193 19.9319996 109.233 20.02 109.273 20.1080004 109.293 20.1999995 109.293 20.296zM117.013 24.104C116.986333 24.1306668 116.961 24.1533332 116.937 24.172 116.913 24.1906668 116.879667 24.2 116.837 24.2 116.783666 24.2 116.710334 24.1640004 116.617 24.092 116.523666 24.0199996 116.399667 23.9413338 116.245 23.856 116.090333 23.7706662 115.897001 23.6920004 115.665 23.62 115.432999 23.5479996 115.151668 23.512 114.821 23.512 114.362331 23.512 113.955668 23.5933325 113.601 23.756 113.246332 23.9186675 112.947668 24.1519985 112.705 24.456 112.462332 24.7600015 112.277001 25.1279978 112.149 25.56 112.020999 25.9920022 111.957 26.4773306 111.957 27.016 111.957 27.5760028 112.022333 28.0719978 112.153 28.504 112.283667 28.9360022 112.468999 29.2999985 112.709 29.596 112.949001 29.8920015 113.239665 30.1173326 113.581 30.272 113.922335 30.4266674 114.300998 30.504 114.717 30.504 115.101002 30.504 115.422332 30.4586671 115.681 30.368 115.939668 30.2773329 116.152999 30.1786672 116.321 30.072 116.489001 29.9653328 116.622333 29.8666671 116.721 29.776 116.819667 29.6853329 116.898333 29.64 116.957 29.64 117.026334 29.64 117.079666 29.6666664 117.117 29.72L117.325 29.976C117.202333 30.1360008 117.047668 30.2853326 116.861 30.424 116.674332 30.5626674 116.463668 30.6826662 116.229 30.784 115.994332 30.8853338 115.739668 30.9639997 115.465 31.02 115.190332 31.0760003 114.903668 31.104 114.605 31.104 114.098331 31.104 113.635669 31.0120009 113.217 30.828 112.798331 30.6439991 112.438335 30.3773351 112.137 30.028 111.835665 29.6786649 111.601001 29.2506692 111.433 28.744 111.264999 28.2373308 111.181 27.6613366 111.181 27.016 111.181 26.407997 111.260999 25.8533358 111.421 25.352 111.581001 24.8506642 111.814332 24.4186685 112.121 24.056 112.427668 23.6933315 112.803664 23.412001 113.249 23.212 113.694336 23.011999 114.204997 22.912 114.781 22.912 115.298336 22.912 115.758331 22.9946658 116.161 23.16 116.563669 23.3253342 116.914332 23.5493319 117.213 23.832L117.013 24.104zM119.901 19.36L119.901 26.456 120.269 26.456C120.343667 26.456 120.414333 26.4453334 120.481 26.424 120.547667 26.4026666 120.621 26.3520004 120.701 26.272L123.893 23.24C123.951667 23.181333 124.011666 23.1333335 124.073 23.096 124.134334 23.0586665 124.213 23.04 124.309 23.04L124.981 23.04 121.469 26.376C121.415666 26.4293336 121.365 26.4786664 121.317 26.524 121.269 26.5693336 121.215667 26.6079998 121.157 26.64 121.242334 26.6826669 121.314333 26.733333 121.373 26.792 121.431667 26.850667 121.493 26.9146663 121.557 26.984L125.245 31 124.581 31C124.506333 31 124.439667 30.9853335 124.381 30.956 124.322333 30.9266665 124.263667 30.8800003 124.205 30.816L120.861 27.232C120.770333 27.1359995 120.687667 27.0706668 120.613 27.036 120.538333 27.0013332 120.421001 26.984 120.261 26.984L119.901 26.984 119.901 31 119.133 31 119.133 19.36 119.901 19.36zM130.085 22.544C129.972999 22.3413323 129.890334 22.140001 129.837 21.94 129.783666 21.739999 129.757 21.5386677 129.757 21.336 129.757 20.9199979 129.858332 20.5200019 130.061 20.136 130.263668 19.7519981 130.527665 19.4026682 130.853 19.088L131.069 19.232C131.111667 19.2640002 131.133 19.3013331 131.133 19.344 131.133 19.3813335 131.117 19.4159998 131.085 19.448 130.882332 19.7200014 130.714334 19.989332 130.581 20.256 130.447666 20.522668 130.381 20.7999986 130.381 21.088 130.381 21.4026682 130.474332 21.722665 130.661 22.048 130.687667 22.0906669 130.701 22.1333331 130.701 22.176 130.701 22.250667 130.661 22.3039998 130.581 22.336L130.085 22.544zM132.237 22.544C132.124999 22.3413323 132.042334 22.140001 131.989 21.94 131.935666 21.739999 131.909 21.5386677 131.909 21.336 131.909 20.9199979 132.010332 20.5200019 132.213 20.136 132.415668 19.7519981 132.679665 19.4026682 133.005 19.088L133.221 19.232C133.263667 19.2640002 133.285 19.3013331 133.285 19.344 133.285 19.3813335 133.269 19.4159998 133.237 19.448 133.034332 19.7200014 132.866334 19.989332 132.733 20.256 132.599666 20.522668 132.533 20.7999986 132.533 21.088 132.533 21.4026682 132.626332 21.722665 132.813 22.048 132.839667 22.0906669 132.853 22.1333331 132.853 22.176 132.853 22.250667 132.813 22.3039998 132.733 22.336L132.237 22.544z"/>
          <polygon fill="#0685B9" points="139.461 21.616 139.461 24.896 142.573 24.896 142.573 26.36 139.461 26.36 139.461 29.656 137.861 29.656 137.861 26.36 134.765 26.36 134.765 24.896 137.861 24.896 137.861 21.616"/>
          <path fill="#8CA3B7" d="M145.237,19.184 C145.354334,19.3866677 145.439666,19.587999 145.493,19.788 C145.546334,19.988001 145.573,20.1893323 145.573,20.392 C145.573,20.8080021 145.471668,21.2079981 145.269,21.592 C145.066332,21.9760019 144.802335,22.3253318 144.477,22.64 L144.253,22.496 C144.215666,22.4639998 144.197,22.4266669 144.197,22.384 C144.197,22.3413331 144.213,22.3040002 144.245,22.272 C144.447668,22.005332 144.615666,21.7373347 144.749,21.468 C144.882334,21.1986653 144.949,20.9200014 144.949,20.632 C144.949,20.3226651 144.855668,20.005335 144.669,19.68 C144.642333,19.6373331 144.629,19.5946669 144.629,19.552 C144.629,19.477333 144.669,19.4240002 144.749,19.392 L145.237,19.184 Z M147.389,19.184 C147.506334,19.3866677 147.591666,19.587999 147.645,19.788 C147.698334,19.988001 147.725,20.1893323 147.725,20.392 C147.725,20.8080021 147.623668,21.2079981 147.421,21.592 C147.218332,21.9760019 146.954335,22.3253318 146.629,22.64 L146.405,22.496 C146.367666,22.4639998 146.349,22.4266669 146.349,22.384 C146.349,22.3413331 146.365,22.3040002 146.397,22.272 C146.599668,22.005332 146.767666,21.7373347 146.901,21.468 C147.034334,21.1986653 147.101,20.9200014 147.101,20.632 C147.101,20.3226651 147.007668,20.005335 146.821,19.68 C146.794333,19.6373331 146.781,19.5946669 146.781,19.552 C146.781,19.477333 146.821,19.4240002 146.901,19.392 L147.389,19.184 Z M155.197,31.128 C154.658331,31.128 154.238335,30.9786682 153.937,30.68 C153.635665,30.3813318 153.485,29.9200031 153.485,29.296 L153.485,23.856 L152.341,23.856 C152.282333,23.856 152.234334,23.8400002 152.197,23.808 C152.159666,23.7759998 152.141,23.730667 152.141,23.672 L152.141,23.376 L153.501,23.28 L153.693,20.432 C153.698333,20.3839998 153.718333,20.3413335 153.753,20.304 C153.787667,20.2666665 153.834333,20.248 153.893,20.248 L154.253,20.248 L154.253,23.288 L156.757,23.288 L156.757,23.856 L154.253,23.856 L154.253,29.256 C154.253,29.4746678 154.281,29.6626659 154.337,29.82 C154.393,29.9773341 154.470333,30.1066662 154.569,30.208 C154.667667,30.3093338 154.783666,30.3839998 154.917,30.432 C155.050334,30.4800002 155.194333,30.504 155.349,30.504 C155.541001,30.504 155.706333,30.4760003 155.845,30.42 C155.983667,30.3639997 156.103666,30.302667 156.205,30.236 C156.306334,30.169333 156.389,30.1080003 156.453,30.052 C156.517,29.9959997 156.567666,29.968 156.605,29.968 C156.647667,29.968 156.690333,29.9946664 156.733,30.048 L156.941,30.384 C156.738332,30.6080011 156.481002,30.7879993 156.169,30.924 C155.856998,31.0600007 155.533002,31.128 155.197,31.128 Z M161.757,22.912 C162.32767,22.912 162.838331,23.0093324 163.289,23.204 C163.739669,23.3986676 164.119665,23.6746649 164.429,24.032 C164.738335,24.3893351 164.974333,24.8199975 165.137,25.324 C165.299667,25.8280025 165.381,26.3919969 165.381,27.016 C165.381,27.6400031 165.299667,28.2026642 165.137,28.704 C164.974333,29.2053358 164.738335,29.6346649 164.429,29.992 C164.119665,30.3493351 163.739669,30.623999 163.289,30.816 C162.838331,31.008001 162.32767,31.104 161.757,31.104 C161.18633,31.104 160.675669,31.008001 160.225,30.816 C159.774331,30.623999 159.393002,30.3493351 159.081,29.992 C158.768998,29.6346649 158.531667,29.2053358 158.369,28.704 C158.206333,28.2026642 158.125,27.6400031 158.125,27.016 C158.125,26.3919969 158.206333,25.8280025 158.369,25.324 C158.531667,24.8199975 158.768998,24.3893351 159.081,24.032 C159.393002,23.6746649 159.774331,23.3986676 160.225,23.204 C160.675669,23.0093324 161.18633,22.912 161.757,22.912 Z M161.757,30.504 C162.231669,30.504 162.646332,30.4226675 163.001,30.26 C163.355668,30.0973325 163.651665,29.8640015 163.889,29.56 C164.126335,29.2559985 164.303666,28.8893355 164.421,28.46 C164.538334,28.0306645 164.597,27.549336 164.597,27.016 C164.597,26.4879974 164.538334,26.0080022 164.421,25.576 C164.303666,25.1439978 164.126335,24.7746682 163.889,24.468 C163.651665,24.1613318 163.355668,23.9253342 163.001,23.76 C162.646332,23.5946658 162.231669,23.512 161.757,23.512 C161.282331,23.512 160.867668,23.5946658 160.513,23.76 C160.158332,23.9253342 159.862335,24.1613318 159.625,24.468 C159.387665,24.7746682 159.209001,25.1439978 159.089,25.576 C158.968999,26.0080022 158.909,26.4879974 158.909,27.016 C158.909,27.549336 158.968999,28.0306645 159.089,28.46 C159.209001,28.8893355 159.387665,29.2559985 159.625,29.56 C159.862335,29.8640015 160.158332,30.0973325 160.513,30.26 C160.867668,30.4226675 161.282331,30.504 161.757,30.504 Z M175.549,31 C175.388999,31 175.290334,30.9253341 175.253,30.776 L175.141,29.76 C174.922332,29.9733344 174.705001,30.1653325 174.489,30.336 C174.272999,30.5066675 174.047668,30.6506661 173.813,30.768 C173.578332,30.8853339 173.325001,30.9746664 173.053,31.036 C172.780999,31.0973336 172.482335,31.128 172.157,31.128 C171.884999,31.128 171.621001,31.0880004 171.365,31.008 C171.108999,30.9279996 170.882334,30.8053342 170.685,30.64 C170.487666,30.4746658 170.329001,30.262668 170.209,30.004 C170.088999,29.745332 170.029,29.4346685 170.029,29.072 C170.029,28.7359983 170.124999,28.4240014 170.317,28.136 C170.509001,27.8479986 170.808998,27.5973344 171.217,27.384 C171.625002,27.1706656 172.15033,27.0000006 172.793,26.872 C173.43567,26.7439994 174.207662,26.6693334 175.109,26.648 L175.109,25.816 C175.109,25.0799963 174.950335,24.5133353 174.633,24.116 C174.315665,23.7186647 173.845003,23.52 173.221,23.52 C172.836998,23.52 172.510335,23.5733328 172.241,23.68 C171.971665,23.7866672 171.743668,23.9039994 171.557,24.032 C171.370332,24.1600006 171.218334,24.2773328 171.101,24.384 C170.983666,24.4906672 170.885,24.544 170.805,24.544 C170.698333,24.544 170.618334,24.4960005 170.565,24.4 L170.429,24.168 C170.845002,23.7519979 171.282331,23.4373344 171.741,23.224 C172.199669,23.0106656 172.719664,22.904 173.301,22.904 C173.727669,22.904 174.100998,22.9719993 174.421,23.108 C174.741002,23.2440007 175.006332,23.4386654 175.217,23.692 C175.427668,23.9453346 175.586333,24.2519982 175.693,24.612 C175.799667,24.9720018 175.853,25.3733311 175.853,25.816 L175.853,31 L175.549,31 Z M172.349,30.576 C172.658335,30.576 172.942332,30.542667 173.201,30.476 C173.459668,30.409333 173.699666,30.3160006 173.921,30.196 C174.142334,30.0759994 174.348999,29.9333342 174.541,29.768 C174.733001,29.6026658 174.922332,29.424001 175.109,29.232 L175.109,27.16 C174.351663,27.1813334 173.699669,27.2386662 173.153,27.332 C172.606331,27.4253338 172.155668,27.5519992 171.801,27.712 C171.446332,27.8720008 171.185001,28.0626656 171.017,28.284 C170.848999,28.5053344 170.765,28.7573319 170.765,29.04 C170.765,29.306668 170.809,29.5373324 170.897,29.732 C170.985,29.9266676 171.100999,30.086666 171.245,30.212 C171.389001,30.337334 171.556999,30.429333 171.749,30.488 C171.941001,30.546667 172.140999,30.576 172.349,30.576 Z M183.893,31 C183.759666,31 183.682333,30.9306674 183.661,30.792 L183.581,29.536 C183.228998,30.0160024 182.817002,30.3973319 182.345,30.68 C181.872998,30.9626681 181.34367,31.104 180.757,31.104 C179.780995,31.104 179.019669,30.7653367 178.473,30.088 C177.926331,29.4106633 177.653,28.3946734 177.653,27.04 C177.653,26.4586638 177.728999,25.9160025 177.881,25.412 C178.033001,24.9079975 178.256999,24.4706685 178.553,24.1 C178.849001,23.7293315 179.211665,23.4373344 179.641,23.224 C180.070335,23.0106656 180.564997,22.904 181.125,22.904 C181.663669,22.904 182.130331,23.003999 182.525,23.204 C182.919669,23.404001 183.260999,23.6959981 183.549,24.08 L183.549,19.36 L184.317,19.36 L184.317,31 L183.893,31 Z M180.973,30.488 C181.501003,30.488 181.978331,30.3520014 182.405,30.08 C182.831669,29.8079986 183.212998,29.4293358 183.549,28.944 L183.549,24.744 C183.239665,24.2906644 182.899669,23.9706676 182.529,23.784 C182.158331,23.5973324 181.738336,23.504 181.269,23.504 C180.799664,23.504 180.389002,23.5893325 180.037,23.76 C179.684998,23.9306675 179.390335,24.1719984 179.153,24.484 C178.915665,24.7960016 178.737001,25.1693312 178.617,25.604 C178.496999,26.0386688 178.437,26.5173307 178.437,27.04 C178.437,28.2240059 178.655664,29.0946639 179.093,29.652 C179.530336,30.2093361 180.156996,30.488 180.973,30.488 Z M192.629,31 C192.495666,31 192.418333,30.9306674 192.397,30.792 L192.317,29.536 C191.964998,30.0160024 191.553002,30.3973319 191.081,30.68 C190.608998,30.9626681 190.07967,31.104 189.493,31.104 C188.516995,31.104 187.755669,30.7653367 187.209,30.088 C186.662331,29.4106633 186.389,28.3946734 186.389,27.04 C186.389,26.4586638 186.464999,25.9160025 186.617,25.412 C186.769001,24.9079975 186.992999,24.4706685 187.289,24.1 C187.585001,23.7293315 187.947665,23.4373344 188.377,23.224 C188.806335,23.0106656 189.300997,22.904 189.861,22.904 C190.399669,22.904 190.866331,23.003999 191.261,23.204 C191.655669,23.404001 191.996999,23.6959981 192.285,24.08 L192.285,19.36 L193.053,19.36 L193.053,31 L192.629,31 Z M189.709,30.488 C190.237003,30.488 190.714331,30.3520014 191.141,30.08 C191.567669,29.8079986 191.948998,29.4293358 192.285,28.944 L192.285,24.744 C191.975665,24.2906644 191.635669,23.9706676 191.265,23.784 C190.894331,23.5973324 190.474336,23.504 190.005,23.504 C189.535664,23.504 189.125002,23.5893325 188.773,23.76 C188.420998,23.9306675 188.126335,24.1719984 187.889,24.484 C187.651665,24.7960016 187.473001,25.1693312 187.353,25.604 C187.232999,26.0386688 187.173,26.5173307 187.173,27.04 C187.173,28.2240059 187.391664,29.0946639 187.829,29.652 C188.266336,30.2093361 188.892996,30.488 189.709,30.488 Z"/>
        </g>
      </g>
      <g transform="translate(94)">
        <path fill="#29292B" fill-rule="nonzero" d="M18.4350331,54.5632904 C14.3766559,55.4384174 12.3291498,55.1895557 7.4486719,58.5256269 C-12.2960422,72.0222094 11.9940186,83.5471872 25.1517161,86.4850428 C41.2221227,90.0732491 60.5381187,91.8107604 76.3180894,85.6123775 C82.4317914,83.2109114 93.8563401,78.3635282 95.0220536,70.4772523 C95.0232389,70.4692334 95.5084281,65.2353893 94.3743234,64.2510884 C90.7096244,61.070459 86.8692625,58.0598915 82.7751229,55.4574743 C81.4726268,54.6295498 80.7732676,54.5816146 79.3012842,54.1195052 L79.3012842,66.2585639 L49,83.9437039 L18.4350331,66.2585639 L18.4350331,54.5632904 Z" opacity=".5"/>
        <path d="M19.5938283,28.6969583 L3.12417657,40.0701363 L18.9386506,49.0229507 L18.4494581,66.1441691 L48.9092929,83.9857645 L79.3139711,66.5066814 C79.3139711,66.5066814 78.6587934,40.0701363 79.3139711,40.0701363 C79.9691488,40.0701363 96.7367491,25.9574601 96.7367491,25.9574601 C96.7367491,25.9574601 78.8046748,30.5090034 79.0593229,29.9848582 C79.3139711,29.4607129 90.7648895,20.1159514 90.7648895,20.1159514 L61.0834326,1.09851481 L48.560827,9.82566278 L34.7964251,2.80314886 L7.30576701,19.7580867 C7.30576701,19.7580867 12.4224419,21.7865031 15.1323311,24.2755476 C17.8422203,26.7645922 19.5938283,28.6969583 19.5938283,28.6969583 Z"/>
        <path d="M48.8020726,10.6302129 L49.0613601,47.9152742 L19.1932987,28.4759394 C19.1932987,28.4759394 37.9341644,15.9997327 41.3626356,14.0053986 C44.7911067,12.0110646 48.8020726,10.6302129 48.8020726,10.6302129 Z" opacity=".5"/>
        <path fill="#29292B" fill-rule="nonzero" d="M19.0819546,48.628938 L19.0133955,55.2249061 L35.6835697,67.9061235 L49.682516,53.4603698 L67.3346835,60.143093 L79.4794408,47.085937 L78.9175654,41.004819 L69.0960857,48.936712 L49.0953819,48.936712 C49.0953819,48.936712 42.2910188,52.264389 39.483188,54.5525543 C36.6753572,56.8407195 33.5742172,60.143093 33.5742172,60.143093 L19.0819546,48.628938 Z" opacity=".5"/>
        <path stroke="#B0D1F1" stroke-width="1.125" d="M0.372319345,16.0709375 C2.09018518,16.877125 3.81229608,18.2391013 5.64524076,19.2151151 C7.47818545,20.1911289 9.70213419,20.930975 11.5509877,21.7986345 M11.6799571,21.9566916 L20.2691866,10.6852512 M11.9976766,21.0924783 C11.7182952,16.8510686 11.4389139,12.6096589 11.1595325,8.36824918 M19.5746517,10.9356012 L19.488232,2.00645073 M11.5929019,8.36824918 C13.0127475,7.2164011 13.4788327,6.25892311 14.703108,5.21465449 C15.9273833,4.17038588 18.0659218,2.90596558 19.576721,1.68033146 M11.1595325,8.67739352 L0.227439244,5.44433804 M1.15327393,16.3010572 L0.285264196,6.2333199 M0.864149162,5.58911115 C1.6834419,4.84564748 2.50273463,4.1021838 3.32202737,3.35872012 M19.7773568,1.69098443 L17.4058983,0.465786632" stroke-linecap="round" stroke-linejoin="round" transform="translate(53.523 47.25)"/>
        <g stroke="#81BFF1" stroke-width="1.125" transform="translate(2.486)">
          <path d="M5.20049601,19.2766115 C15.1504624,14.9371114 24.5114256,9.00520449 32.9524145,2.1036833 M4.33714324,19.5932766 C9.94214457,21.2257557 15.2524139,23.194085 17.1140742,29.0876149 M0.176490135,40.4145502 C7.44407194,33.9828066 2.08868754,38.4994695 17.2318042,28.1376195 M46.5732922,48.5303367 C41.6463945,51.7163976 33.8989249,55.2417341 30.5188982,60.8725013 M1.1381668,40.0896768 C11.1318723,45.6218889 22.6241407,50.8171706 30.4796549,59.4606845" stroke-linecap="round" stroke-linejoin="round"/>
          <path d="M45.9842114,48.1488697 C50.9686333,52.6829294 66.6444119,48.1488697 66.6444119,48.1488697 L94.6969455,25.6476205 M75.9147803,28.9977563 L94.3056946,25.5221355 M46.416319,48.1488697 C56.5385372,40.946574 66.0330657,36.4351764 76.1774924,29.3449401 M46.062698,85.5166533 C48.0405892,73.3852527 47.3214712,61.0273028 46.8674014,48.8055286 M76.4840239,66.0324584 C76.5192241,60.6667193 76.6403536,45.4746052 76.6755538,40.1088662 M46.3179951,84.6971256 C55.6505325,77.7103942 66.4080297,71.7241159 76.6802404,66.2514887" stroke-linecap="round" stroke-linejoin="round"/>
          <path d="M15.8186138,65.7827551 C21.7727757,70.7805687 13.7330593,64.245845 30.3420877,73.9667996 C35.752709,77.1335354 41.2891087,80.6978967 46.416319,84.3519476 M15.7595333,66.2437125 L16.3680201,48.0996202 M46.5732922,47.0152689 C46.4751121,35.5450495 46.4554345,24.0738861 46.2787518,12.6046107 C46.2656264,11.7525839 46.2451845,10.8802525 46.0040486,10.0630813 C45.9559799,9.90018403 45.7553639,10.2940639 45.6310216,10.4095553" stroke-linecap="round" stroke-linejoin="round"/>
          <path d="M45.6310216,9.87213175 C49.7984309,11.7800429 52.6442487,14.0405192 56.4315956,16.6239659 C59.4588246,18.6889167 63.0685796,21.0252568 65.7089328,23.5677914 C68.7196272,26.4669471 72.0305651,27.9642029 75.6793204,30.0505707 M45.7685888,8.77698011 C56.2600306,1.18500311 51.6854001,3.68796963 58.839629,0.178203667 M58.1724927,0.802461703 C68.5590807,7.04738956 78.1073617,13.7723805 88.3773336,20.0633062 M76.025179,29.193026 C83.5761459,21.8090431 79.2469566,25.1293089 89.2212803,19.5111942 M17.1925609,28.0983063 C36.9859954,14.2083389 27.455299,20.1602881 45.5331289,9.84448295 M32.4224142,2.74781391 C36.6464583,5.85747987 42.1657329,6.69087935 45.7879948,10.4609648" stroke-linecap="round" stroke-linejoin="round"/>
          <path d="M17.4256122,28.6459473 C17.4256122,28.6459473 27.7437905,34.9314873 32.5399644,38.9131256 C37.3361383,42.8947639 46.4796021,48.1241081 46.4796021,48.1241081"/>
        </g>
      </g>
    </g>
  </g>
</svg>
