<svg xmlns="http://www.w3.org/2000/svg" width="268" height="146" viewBox="0 0 268 146">
  <g fill="none" fill-rule="evenodd">
    <rect width="268" height="146"/>
    <path fill="#FFFFFF" d="M11.2890625,14.8046875 L9.27734375,14.8046875 L2.0703125,3.64257812 C1.88801992,3.36262881 1.73828184,3.06966299 1.62109375,2.76367188 L1.5625,2.76367188 C1.61458359,3.06315254 1.640625,3.70442217 1.640625,4.6875 L1.640625,14.8046875 L0,14.8046875 L0,0.80078125 L2.12890625,0.80078125 L9.140625,11.7871094 C9.43359521,12.2428408 9.62239541,12.5553377 9.70703125,12.7246094 L9.74609375,12.7246094 C9.68098926,12.3209615 9.6484375,11.6341194 9.6484375,10.6640625 L9.6484375,0.80078125 L11.2890625,0.80078125 L11.2890625,14.8046875 Z M18.9257812,15.0390625 C17.4479093,15.0390625 16.2679081,14.5719448 15.3857422,13.6376953 C14.5035763,12.7034458 14.0625,11.4648515 14.0625,9.921875 C14.0625,8.2421791 14.5214798,6.93034326 15.4394531,5.98632812 C16.3574265,5.04231299 17.5976484,4.5703125 19.1601562,4.5703125 C20.6510491,4.5703125 21.8147745,5.02929229 22.6513672,5.94726562 C23.4879599,6.86523896 23.90625,8.1380127 23.90625,9.765625 C23.90625,11.3606851 23.4554082,12.6383416 22.5537109,13.5986328 C21.6520137,14.5589241 20.4427159,15.0390625 18.9257812,15.0390625 Z M19.0429688,5.91796875 C18.0143178,5.91796875 17.2005238,6.26790015 16.6015625,6.96777344 C16.0026012,7.66764673 15.703125,8.63280635 15.703125,9.86328125 C15.703125,11.048183 16.0058563,11.9824185 16.6113281,12.6660156 C17.2167999,13.3496128 18.0273387,13.6914062 19.0429688,13.6914062 C20.0781302,13.6914062 20.8740207,13.3561231 21.4306641,12.6855469 C21.9873075,12.0149706 22.265625,11.0612041 22.265625,9.82421875 C22.265625,8.5742125 21.9873075,7.61068047 21.4306641,6.93359375 C20.8740207,6.25650703 20.0781302,5.91796875 19.0429688,5.91796875 Z M37.1582031,6.42578125 C36.8782538,6.21093643 36.474612,6.10351562 35.9472656,6.10351562 C35.2636685,6.10351562 34.6923851,6.42577803 34.2333984,7.0703125 C33.7744118,7.71484697 33.5449219,8.59374443 33.5449219,9.70703125 L33.5449219,14.8046875 L31.9433594,14.8046875 L31.9433594,4.8046875 L33.5449219,4.8046875 L33.5449219,6.86523438 L33.5839844,6.86523438 C33.8118501,6.16210586 34.1601539,5.61360874 34.6289062,5.21972656 C35.0976586,4.82584438 35.6217419,4.62890625 36.2011719,4.62890625 C36.6178406,4.62890625 36.9368479,4.67447871 37.1582031,4.765625 L37.1582031,6.42578125 Z M46.6699219,10.2050781 L39.609375,10.2050781 C39.6354168,11.3183649 39.934893,12.1777313 40.5078125,12.7832031 C41.080732,13.3886749 41.8684846,13.6914062 42.8710938,13.6914062 C43.9974015,13.6914062 45.0325474,13.3203162 45.9765625,12.578125 L45.9765625,14.0820312 C45.0976519,14.7200553 43.9355541,15.0390625 42.4902344,15.0390625 C41.0774669,15.0390625 39.967452,14.5849655 39.1601562,13.6767578 C38.3528605,12.7685501 37.9492188,11.4908937 37.9492188,9.84375 C37.9492188,8.28775264 38.3902951,7.01986167 39.2724609,6.04003906 C40.1546268,5.06021646 41.2499935,4.5703125 42.5585938,4.5703125 C43.867194,4.5703125 44.8795537,4.99348535 45.5957031,5.83984375 C46.3118525,6.68620215 46.6699219,7.86132061 46.6699219,9.36523438 L46.6699219,10.2050781 Z M45.0292969,8.84765625 C45.0227864,7.92317246 44.7998069,7.20377861 44.3603516,6.68945312 C43.9208962,6.17512764 43.3105508,5.91796875 42.5292969,5.91796875 C41.7740848,5.91796875 41.1328151,6.18814834 40.6054688,6.72851562 C40.0781224,7.26888291 39.7526048,7.97525605 39.6289062,8.84765625 L45.0292969,8.84765625 Z M63.2910156,14.8046875 L61.6894531,14.8046875 L61.6894531,9.0625 C61.6894531,7.95572363 61.5185564,7.15495039 61.1767578,6.66015625 C60.8349592,6.16536211 60.2604207,5.91796875 59.453125,5.91796875 C58.7695278,5.91796875 58.188479,6.23046562 57.7099609,6.85546875 C57.2314429,7.48047188 56.9921875,8.2291623 56.9921875,9.1015625 L56.9921875,14.8046875 L55.390625,14.8046875 L55.390625,8.8671875 C55.390625,6.90103184 54.632169,5.91796875 53.1152344,5.91796875 C52.4121059,5.91796875 51.8326846,6.21256216 51.3769531,6.80175781 C50.9212217,7.39095347 50.6933594,8.15754736 50.6933594,9.1015625 L50.6933594,14.8046875 L49.0917969,14.8046875 L49.0917969,4.8046875 L50.6933594,4.8046875 L50.6933594,6.38671875 L50.7324219,6.38671875 C51.4420608,5.1757752 52.4772067,4.5703125 53.8378906,4.5703125 C54.5214878,4.5703125 55.117185,4.76074028 55.625,5.14160156 C56.132815,5.52246284 56.4811188,6.02213232 56.6699219,6.640625 C57.4121131,5.26040977 58.5188729,4.5703125 59.9902344,4.5703125 C62.1907662,4.5703125 63.2910156,5.9277208 63.2910156,8.64257812 L63.2910156,14.8046875 Z M70.4980469,15.0390625 C69.0201749,15.0390625 67.8401737,14.5719448 66.9580078,13.6376953 C66.0758419,12.7034458 65.6347656,11.4648515 65.6347656,9.921875 C65.6347656,8.2421791 66.0937454,6.93034326 67.0117188,5.98632812 C67.9296921,5.04231299 69.1699141,4.5703125 70.7324219,4.5703125 C72.2233147,4.5703125 73.3870401,5.02929229 74.2236328,5.94726562 C75.0602255,6.86523896 75.4785156,8.1380127 75.4785156,9.765625 C75.4785156,11.3606851 75.0276738,12.6383416 74.1259766,13.5986328 C73.2242793,14.5589241 72.0149815,15.0390625 70.4980469,15.0390625 Z M70.6152344,5.91796875 C69.5865834,5.91796875 68.7727895,6.26790015 68.1738281,6.96777344 C67.5748668,7.66764673 67.2753906,8.63280635 67.2753906,9.86328125 C67.2753906,11.048183 67.578122,11.9824185 68.1835938,12.6660156 C68.7890655,13.3496128 69.5996043,13.6914062 70.6152344,13.6914062 C71.6503958,13.6914062 72.4462863,13.3561231 73.0029297,12.6855469 C73.5595731,12.0149706 73.8378906,11.0612041 73.8378906,9.82421875 C73.8378906,8.5742125 73.5595731,7.61068047 73.0029297,6.93359375 C72.4462863,6.25650703 71.6503958,5.91796875 70.6152344,5.91796875 Z M82.6757812,14.7070312 C82.2981752,14.9153656 81.8001333,15.0195312 81.1816406,15.0195312 C79.4303298,15.0195312 78.5546875,14.0429785 78.5546875,12.0898438 L78.5546875,6.171875 L76.8359375,6.171875 L76.8359375,4.8046875 L78.5546875,4.8046875 L78.5546875,2.36328125 L80.15625,1.84570312 L80.15625,4.8046875 L82.6757812,4.8046875 L82.6757812,6.171875 L80.15625,6.171875 L80.15625,11.8066406 C80.15625,12.4772169 80.2701812,12.9557277 80.4980469,13.2421875 C80.7259126,13.5286473 81.103513,13.671875 81.6308594,13.671875 C82.0345072,13.671875 82.382811,13.561199 82.6757812,13.3398438 L82.6757812,14.7070312 Z M92.6953125,10.2050781 L85.6347656,10.2050781 C85.6608074,11.3183649 85.9602836,12.1777313 86.5332031,12.7832031 C87.1061227,13.3886749 87.8938752,13.6914062 88.8964844,13.6914062 C90.0227921,13.6914062 91.057938,13.3203162 92.0019531,12.578125 L92.0019531,14.0820312 C91.1230425,14.7200553 89.9609447,15.0390625 88.515625,15.0390625 C87.1028575,15.0390625 85.9928426,14.5849655 85.1855469,13.6767578 C84.3782512,12.7685501 83.9746094,11.4908937 83.9746094,9.84375 C83.9746094,8.28775264 84.4156857,7.01986167 85.2978516,6.04003906 C86.1800174,5.06021646 87.2753841,4.5703125 88.5839844,4.5703125 C89.8925847,4.5703125 90.9049443,4.99348535 91.6210938,5.83984375 C92.3372432,6.68620215 92.6953125,7.86132061 92.6953125,9.36523438 L92.6953125,10.2050781 Z M91.0546875,8.84765625 C91.0481771,7.92317246 90.8251975,7.20377861 90.3857422,6.68945312 C89.9462869,6.17512764 89.3359414,5.91796875 88.5546875,5.91796875 C87.7994754,5.91796875 87.1582058,6.18814834 86.6308594,6.72851562 C86.103513,7.26888291 85.7779954,7.97525605 85.6542969,8.84765625 L91.0546875,8.84765625 Z M100.234375,9.86328125 L94.9023438,9.86328125 L94.9023438,8.60351562 L100.234375,8.60351562 L100.234375,9.86328125 Z M107.753906,14.7070312 C107.3763,14.9153656 106.878258,15.0195312 106.259766,15.0195312 C104.508455,15.0195312 103.632812,14.0429785 103.632812,12.0898438 L103.632812,6.171875 L101.914062,6.171875 L101.914062,4.8046875 L103.632812,4.8046875 L103.632812,2.36328125 L105.234375,1.84570312 L105.234375,4.8046875 L107.753906,4.8046875 L107.753906,6.171875 L105.234375,6.171875 L105.234375,11.8066406 C105.234375,12.4772169 105.348306,12.9557277 105.576172,13.2421875 C105.804038,13.5286473 106.181638,13.671875 106.708984,13.671875 C107.112632,13.671875 107.460936,13.561199 107.753906,13.3398438 L107.753906,14.7070312 Z M115.107422,6.42578125 C114.827473,6.21093643 114.423831,6.10351562 113.896484,6.10351562 C113.212887,6.10351562 112.641604,6.42577803 112.182617,7.0703125 C111.723631,7.71484697 111.494141,8.59374443 111.494141,9.70703125 L111.494141,14.8046875 L109.892578,14.8046875 L109.892578,4.8046875 L111.494141,4.8046875 L111.494141,6.86523438 L111.533203,6.86523438 C111.761069,6.16210586 112.109373,5.61360874 112.578125,5.21972656 C113.046877,4.82584438 113.570961,4.62890625 114.150391,4.62890625 C114.567059,4.62890625 114.886067,4.67447871 115.107422,4.765625 L115.107422,6.42578125 Z M124.003906,14.8046875 L122.402344,14.8046875 L122.402344,13.2421875 L122.363281,13.2421875 C121.666663,14.4401102 120.641283,15.0390625 119.287109,15.0390625 C118.291011,15.0390625 117.511396,14.7753933 116.948242,14.2480469 C116.385088,13.7207005 116.103516,13.0208377 116.103516,12.1484375 C116.103516,10.2799386 117.203765,9.19270986 119.404297,8.88671875 L122.402344,8.46679688 C122.402344,6.76756963 121.715502,5.91796875 120.341797,5.91796875 C119.137364,5.91796875 118.050135,6.3281209 117.080078,7.1484375 L117.080078,5.5078125 C118.063156,4.88280937 119.195957,4.5703125 120.478516,4.5703125 C122.828788,4.5703125 124.003906,5.81378965 124.003906,8.30078125 L124.003906,14.8046875 Z M122.402344,9.74609375 L119.990234,10.078125 C119.248043,10.1822922 118.688153,10.3662096 118.310547,10.6298828 C117.932941,10.893556 117.744141,11.3606737 117.744141,12.03125 C117.744141,12.5195337 117.918293,12.9182927 118.266602,13.2275391 C118.614911,13.5367854 119.078773,13.6914062 119.658203,13.6914062 C120.452478,13.6914062 121.108396,13.4130887 121.625977,12.8564453 C122.143557,12.2998019 122.402344,11.5950563 122.402344,10.7421875 L122.402344,9.74609375 Z M133.837891,14.3457031 C133.069658,14.807945 132.158208,15.0390625 131.103516,15.0390625 C129.677727,15.0390625 128.527023,14.5752 127.651367,13.6474609 C126.775712,12.7197219 126.337891,11.5169345 126.337891,10.0390625 C126.337891,8.39191885 126.809891,7.06868989 127.753906,6.06933594 C128.697921,5.06998198 129.957674,4.5703125 131.533203,4.5703125 C132.412114,4.5703125 133.186846,4.73307129 133.857422,5.05859375 L133.857422,6.69921875 C133.115231,6.17838281 132.320968,5.91796875 131.474609,5.91796875 C130.452469,5.91796875 129.614261,6.28417603 128.959961,7.01660156 C128.305661,7.7490271 127.978516,8.71093154 127.978516,9.90234375 C127.978516,11.0742246 128.28613,11.9986945 128.901367,12.6757812 C129.516605,13.352868 130.341792,13.6914062 131.376953,13.6914062 C132.249353,13.6914062 133.069658,13.4016956 133.837891,12.8222656 L133.837891,14.3457031 Z M144.560547,14.8046875 L142.314453,14.8046875 L137.900391,10 L137.861328,10 L137.861328,14.8046875 L136.259766,14.8046875 L136.259766,0 L137.861328,0 L137.861328,9.38476562 L137.900391,9.38476562 L142.099609,4.8046875 L144.199219,4.8046875 L139.560547,9.62890625 L144.560547,14.8046875 Z M147.021484,2.265625 C146.735025,2.265625 146.490886,2.16796973 146.289062,1.97265625 C146.087239,1.77734277 145.986328,1.52994941 145.986328,1.23046875 C145.986328,0.930988086 146.087239,0.681967139 146.289062,0.483398438 C146.490886,0.284829736 146.735025,0.185546875 147.021484,0.185546875 C147.314455,0.185546875 147.563476,0.284829736 147.768555,0.483398438 C147.973634,0.681967139 148.076172,0.930988086 148.076172,1.23046875 C148.076172,1.51692852 147.973634,1.7610667 147.768555,1.96289062 C147.563476,2.16471455 147.314455,2.265625 147.021484,2.265625 Z M147.802734,14.8046875 L146.201172,14.8046875 L146.201172,4.8046875 L147.802734,4.8046875 L147.802734,14.8046875 Z M159.345703,14.8046875 L157.744141,14.8046875 L157.744141,9.1015625 C157.744141,6.97915605 156.969409,5.91796875 155.419922,5.91796875 C154.619137,5.91796875 153.956708,6.21907251 153.432617,6.82128906 C152.908526,7.42350562 152.646484,8.18358916 152.646484,9.1015625 L152.646484,14.8046875 L151.044922,14.8046875 L151.044922,4.8046875 L152.646484,4.8046875 L152.646484,6.46484375 L152.685547,6.46484375 C153.440759,5.2018166 154.534498,4.5703125 155.966797,4.5703125 C157.060552,4.5703125 157.897133,4.92349907 158.476562,5.62988281 C159.055992,6.33626655 159.345703,7.35676416 159.345703,8.69140625 L159.345703,14.8046875 Z M170.898438,14.0039062 C170.898438,17.6757996 169.140643,19.5117188 165.625,19.5117188 C164.388015,19.5117188 163.307296,19.2773461 162.382812,18.8085938 L162.382812,17.2070312 C163.50912,17.8320344 164.583328,18.1445312 165.605469,18.1445312 C168.066419,18.1445312 169.296875,16.8359506 169.296875,14.21875 L169.296875,13.125 L169.257812,13.125 C168.49609,14.401048 167.350268,15.0390625 165.820312,15.0390625 C164.576817,15.0390625 163.57585,14.594731 162.817383,13.7060547 C162.058915,12.8173784 161.679688,11.6243564 161.679688,10.1269531 C161.679688,8.42772588 162.088212,7.07682793 162.905273,6.07421875 C163.722335,5.07160957 164.840488,4.5703125 166.259766,4.5703125 C167.607429,4.5703125 168.606768,5.11067168 169.257812,6.19140625 L169.296875,6.19140625 L169.296875,4.8046875 L170.898438,4.8046875 L170.898438,14.0039062 Z M169.296875,10.2832031 L169.296875,8.80859375 C169.296875,8.01431895 169.028323,7.33398721 168.491211,6.76757812 C167.954099,6.20116904 167.28516,5.91796875 166.484375,5.91796875 C165.494787,5.91796875 164.720055,6.27766567 164.160156,6.99707031 C163.600258,7.71647495 163.320312,8.72395186 163.320312,10.0195312 C163.320312,11.1328181 163.588865,12.0231086 164.125977,12.6904297 C164.663089,13.3577507 165.374345,13.6914062 166.259766,13.6914062 C167.158208,13.6914062 167.888995,13.372399 168.452148,12.734375 C169.015302,12.096351 169.296875,11.2793019 169.296875,10.2832031 Z M181.259766,13.359375 L181.220703,13.359375 L181.220703,14.8046875 L179.619141,14.8046875 L179.619141,0 L181.220703,0 L181.220703,6.5625 L181.259766,6.5625 C182.04753,5.23436836 183.199862,4.5703125 184.716797,4.5703125 C185.999355,4.5703125 187.003577,5.01789917 187.729492,5.91308594 C188.455407,6.80827271 188.818359,8.00780498 188.818359,9.51171875 C188.818359,11.1849042 188.411462,12.524409 187.597656,13.5302734 C186.78385,14.5361378 185.67058,15.0390625 184.257812,15.0390625 C182.936191,15.0390625 181.936852,14.4791723 181.259766,13.359375 Z M181.220703,9.32617188 L181.220703,10.7226562 C181.220703,11.5494833 181.489255,12.2509737 182.026367,12.8271484 C182.563479,13.4033232 183.245439,13.6914062 184.072266,13.6914062 C185.042323,13.6914062 185.802406,13.3203162 186.352539,12.578125 C186.902672,11.8359338 187.177734,10.8040431 187.177734,9.48242188 C187.177734,8.36913506 186.920575,7.49674795 186.40625,6.86523438 C185.891925,6.2337208 185.195317,5.91796875 184.316406,5.91796875 C183.385412,5.91796875 182.636722,6.24185874 182.070312,6.88964844 C181.503903,7.53743813 181.220703,8.34960449 181.220703,9.32617188 Z M196.591797,6.42578125 C196.311848,6.21093643 195.908206,6.10351562 195.380859,6.10351562 C194.697262,6.10351562 194.125979,6.42577803 193.666992,7.0703125 C193.208006,7.71484697 192.978516,8.59374443 192.978516,9.70703125 L192.978516,14.8046875 L191.376953,14.8046875 L191.376953,4.8046875 L192.978516,4.8046875 L192.978516,6.86523438 L193.017578,6.86523438 C193.245444,6.16210586 193.593748,5.61360874 194.0625,5.21972656 C194.531252,4.82584438 195.055336,4.62890625 195.634766,4.62890625 C196.051434,4.62890625 196.370442,4.67447871 196.591797,4.765625 L196.591797,6.42578125 Z M205.488281,14.8046875 L203.886719,14.8046875 L203.886719,13.2421875 L203.847656,13.2421875 C203.151038,14.4401102 202.125658,15.0390625 200.771484,15.0390625 C199.775386,15.0390625 198.995771,14.7753933 198.432617,14.2480469 C197.869463,13.7207005 197.587891,13.0208377 197.587891,12.1484375 C197.587891,10.2799386 198.68814,9.19270986 200.888672,8.88671875 L203.886719,8.46679688 C203.886719,6.76756963 203.199877,5.91796875 201.826172,5.91796875 C200.621739,5.91796875 199.53451,6.3281209 198.564453,7.1484375 L198.564453,5.5078125 C199.547531,4.88280937 200.680332,4.5703125 201.962891,4.5703125 C204.313163,4.5703125 205.488281,5.81378965 205.488281,8.30078125 L205.488281,14.8046875 Z M203.886719,9.74609375 L201.474609,10.078125 C200.732418,10.1822922 200.172528,10.3662096 199.794922,10.6298828 C199.417316,10.893556 199.228516,11.3606737 199.228516,12.03125 C199.228516,12.5195337 199.402668,12.9182927 199.750977,13.2275391 C200.099286,13.5367854 200.563148,13.6914062 201.142578,13.6914062 C201.936853,13.6914062 202.592771,13.4130887 203.110352,12.8564453 C203.627932,12.2998019 203.886719,11.5950563 203.886719,10.7421875 L203.886719,9.74609375 Z M216.806641,14.8046875 L215.205078,14.8046875 L215.205078,9.1015625 C215.205078,6.97915605 214.430346,5.91796875 212.880859,5.91796875 C212.080074,5.91796875 211.417646,6.21907251 210.893555,6.82128906 C210.369464,7.42350562 210.107422,8.18358916 210.107422,9.1015625 L210.107422,14.8046875 L208.505859,14.8046875 L208.505859,4.8046875 L210.107422,4.8046875 L210.107422,6.46484375 L210.146484,6.46484375 C210.901696,5.2018166 211.995436,4.5703125 213.427734,4.5703125 C214.52149,4.5703125 215.35807,4.92349907 215.9375,5.62988281 C216.51693,6.33626655 216.806641,7.35676416 216.806641,8.69140625 L216.806641,14.8046875 Z M226.640625,14.3457031 C225.872392,14.807945 224.960943,15.0390625 223.90625,15.0390625 C222.480462,15.0390625 221.329757,14.5752 220.454102,13.6474609 C219.578446,12.7197219 219.140625,11.5169345 219.140625,10.0390625 C219.140625,8.39191885 219.612625,7.06868989 220.556641,6.06933594 C221.500656,5.06998198 222.760409,4.5703125 224.335938,4.5703125 C225.214848,4.5703125 225.98958,4.73307129 226.660156,5.05859375 L226.660156,6.69921875 C225.917965,6.17838281 225.123702,5.91796875 224.277344,5.91796875 C223.255203,5.91796875 222.416995,6.28417603 221.762695,7.01660156 C221.108395,7.7490271 220.78125,8.71093154 220.78125,9.90234375 C220.78125,11.0742246 221.088864,11.9986945 221.704102,12.6757812 C222.319339,13.352868 223.144526,13.6914062 224.179688,13.6914062 C225.052088,13.6914062 225.872392,13.4016956 226.640625,12.8222656 L226.640625,14.3457031 Z M237.363281,14.8046875 L235.761719,14.8046875 L235.761719,9.04296875 C235.761719,6.959625 234.986987,5.91796875 233.4375,5.91796875 C232.656246,5.91796875 231.998701,6.21907251 231.464844,6.82128906 C230.930987,7.42350562 230.664062,8.19660986 230.664062,9.140625 L230.664062,14.8046875 L229.0625,14.8046875 L229.0625,0 L230.664062,0 L230.664062,6.46484375 L230.703125,6.46484375 C231.471358,5.2018166 232.565097,4.5703125 233.984375,4.5703125 C236.23699,4.5703125 237.363281,5.9277208 237.363281,8.64257812 L237.363281,14.8046875 Z M248.417969,10.2050781 L241.357422,10.2050781 C241.383464,11.3183649 241.68294,12.1777313 242.255859,12.7832031 C242.828779,13.3886749 243.616531,13.6914062 244.619141,13.6914062 C245.745448,13.6914062 246.780594,13.3203162 247.724609,12.578125 L247.724609,14.0820312 C246.845699,14.7200553 245.683601,15.0390625 244.238281,15.0390625 C242.825514,15.0390625 241.715499,14.5849655 240.908203,13.6767578 C240.100907,12.7685501 239.697266,11.4908937 239.697266,9.84375 C239.697266,8.28775264 240.138342,7.01986167 241.020508,6.04003906 C241.902674,5.06021646 242.99804,4.5703125 244.306641,4.5703125 C245.615241,4.5703125 246.627601,4.99348535 247.34375,5.83984375 C248.059899,6.68620215 248.417969,7.86132061 248.417969,9.36523438 L248.417969,10.2050781 Z M246.777344,8.84765625 C246.770833,7.92317246 246.547854,7.20377861 246.108398,6.68945312 C245.668943,6.17512764 245.058598,5.91796875 244.277344,5.91796875 C243.522132,5.91796875 242.880862,6.18814834 242.353516,6.72851562 C241.826169,7.26888291 241.500652,7.97525605 241.376953,8.84765625 L246.777344,8.84765625 Z M250.234375,14.4433594 L250.234375,12.7246094 C251.106775,13.3691438 252.067052,13.6914062 253.115234,13.6914062 C254.521491,13.6914062 255.224609,13.2226609 255.224609,12.2851562 C255.224609,12.0182278 255.164389,11.7919931 255.043945,11.6064453 C254.923502,11.4208975 254.760743,11.2565111 254.555664,11.1132812 C254.350585,10.9700514 254.109702,10.8414719 253.833008,10.7275391 C253.556314,10.6136062 253.258465,10.4947923 252.939453,10.3710938 C252.496743,10.1953116 252.107749,10.0179045 251.772461,9.83886719 C251.437173,9.65982983 251.157228,9.45800894 250.932617,9.23339844 C250.708007,9.00878794 250.538738,8.75325664 250.424805,8.46679688 C250.310872,8.18033711 250.253906,7.845054 250.253906,7.4609375 C250.253906,6.99218516 250.361327,6.57715024 250.576172,6.21582031 C250.791017,5.85449038 251.077472,5.55175903 251.435547,5.30761719 C251.793622,5.06347534 252.202146,4.87955791 252.661133,4.75585938 C253.120119,4.63216084 253.593748,4.5703125 254.082031,4.5703125 C254.947921,4.5703125 255.722653,4.72005059 256.40625,5.01953125 L256.40625,6.640625 C255.670569,6.15885176 254.824224,5.91796875 253.867188,5.91796875 C253.567707,5.91796875 253.297527,5.9521481 253.056641,6.02050781 C252.815754,6.08886753 252.60905,6.18489521 252.436523,6.30859375 C252.263997,6.43229229 252.130534,6.58040278 252.036133,6.75292969 C251.941731,6.92545659 251.894531,7.11588438 251.894531,7.32421875 C251.894531,7.58463672 251.941731,7.8027335 252.036133,7.97851562 C252.130534,8.15429775 252.268879,8.31054619 252.451172,8.44726562 C252.633464,8.58398506 252.854816,8.70768174 253.115234,8.81835938 C253.375652,8.92903701 253.671873,9.04947852 254.003906,9.1796875 C254.446617,9.34895918 254.843748,9.52311108 255.195312,9.70214844 C255.546877,9.88118579 255.846353,10.0830067 256.09375,10.3076172 C256.341147,10.5322277 256.531575,10.7910142 256.665039,11.0839844 C256.798503,11.3769546 256.865234,11.7252584 256.865234,12.1289062 C256.865234,12.6237004 256.756186,13.0533836 256.538086,13.4179688 C256.319986,13.7825539 256.028648,14.0852853 255.664062,14.3261719 C255.299477,14.5670585 254.87956,14.7460932 254.404297,14.8632812 C253.929034,14.9804693 253.430992,15.0390625 252.910156,15.0390625 C251.881505,15.0390625 250.989587,14.8404968 250.234375,14.4433594 Z" transform="translate(5 102)"/>
    <path fill="#8EA6BB" d="M9.124,4.68 L9.124,5.376 L5.148,5.376 L5.148,16 L4.332,16 L4.332,5.376 L0.332,5.376 L0.332,4.68 L9.124,4.68 Z M10.7,16 L10.7,4.36 L11.46,4.36 L11.46,9.4 C11.8280018,8.9466644 12.2479976,8.58533468 12.72,8.316 C13.1920024,8.04666532 13.7213304,7.912 14.308,7.912 C14.7453355,7.912 15.130665,7.98133264 15.464,8.12 C15.797335,8.25866736 16.0733322,8.45866536 16.292,8.72 C16.5106678,8.98133464 16.6759994,9.29599816 16.788,9.664 C16.9000006,10.0320018 16.956,10.4479977 16.956,10.912 L16.956,16 L16.196,16 L16.196,10.912 C16.196,10.1653296 16.025335,9.58000212 15.684,9.156 C15.342665,8.73199788 14.8200035,8.52 14.116,8.52 C13.5933307,8.52 13.1080022,8.65466532 12.66,8.924 C12.2119978,9.19333468 11.8120018,9.56266432 11.46,10.032 L11.46,16 L10.7,16 Z M22.356,7.912 C22.8040022,7.912 23.2186648,7.98933256 23.6,8.144 C23.9813352,8.29866744 24.3119986,8.52399852 24.592,8.82 C24.8720014,9.11600148 25.0906659,9.47999784 25.248,9.912 C25.4053341,10.3440022 25.484,10.8399972 25.484,11.4 C25.484,11.5173339 25.4666668,11.5973331 25.432,11.64 C25.3973332,11.6826669 25.342667,11.704 25.268,11.704 L19.516,11.704 L19.516,11.856 C19.516,12.4533363 19.5853326,12.9786644 19.724,13.432 C19.8626674,13.8853356 20.0599987,14.2653318 20.316,14.572 C20.5720013,14.8786682 20.8813315,15.1093326 21.244,15.264 C21.6066685,15.4186674 22.0119978,15.496 22.46,15.496 C22.860002,15.496 23.2066652,15.4520004 23.5,15.364 C23.7933348,15.2759996 24.039999,15.1773339 24.24,15.068 C24.440001,14.9586661 24.5986661,14.8600004 24.716,14.772 C24.8333339,14.6839996 24.9186664,14.64 24.972,14.64 C25.0413337,14.64 25.0946665,14.6666664 25.132,14.72 L25.34,14.976 C25.2119994,15.1360008 25.0426677,15.2853326 24.832,15.424 C24.6213323,15.5626674 24.386668,15.6813328 24.128,15.78 C23.869332,15.8786672 23.5920015,15.957333 23.296,16.016 C22.9999985,16.074667 22.7026682,16.104 22.404,16.104 C21.8599973,16.104 21.3640022,16.0093343 20.916,15.82 C20.4679978,15.6306657 20.0840016,15.3546685 19.764,14.992 C19.4439984,14.6293315 19.1973342,14.185336 19.024,13.66 C18.8506658,13.134664 18.764,12.5333367 18.764,11.856 C18.764,11.2853305 18.8453325,10.7586691 19.008,10.276 C19.1706675,9.79333092 19.4053318,9.37733508 19.712,9.028 C20.0186682,8.67866492 20.3946644,8.40533432 20.84,8.208 C21.2853356,8.01066568 21.7906638,7.912 22.356,7.912 Z M22.364,8.48 C21.9533313,8.48 21.585335,8.54399936 21.26,8.672 C20.934665,8.80000064 20.6533345,8.9839988 20.416,9.224 C20.1786655,9.4640012 19.9866674,9.75199832 19.84,10.088 C19.6933326,10.4240017 19.5960002,10.7999979 19.548,11.216 L24.796,11.216 C24.796,10.7893312 24.7373339,10.4066684 24.62,10.068 C24.5026661,9.72933164 24.3373344,9.44266784 24.124,9.208 C23.9106656,8.97333216 23.6546682,8.79333396 23.356,8.668 C23.0573318,8.54266604 22.7266685,8.48 22.364,8.48 Z M30.62,16 L30.62,8.04 L31.02,8.04 C31.1106671,8.04 31.1759998,8.05866648 31.216,8.096 C31.2560002,8.13333352 31.2786666,8.19733288 31.284,8.288 L31.348,9.968 C31.6040013,9.32266344 31.9453312,8.81733516 32.372,8.452 C32.7986688,8.08666484 33.3239969,7.904 33.948,7.904 C34.1880012,7.904 34.4093323,7.92933308 34.612,7.98 C34.8146677,8.03066692 35.0066658,8.10399952 35.188,8.2 L35.084,8.728 C35.0679999,8.81333376 35.0146671,8.856 34.924,8.856 C34.8919998,8.856 34.846667,8.84533344 34.788,8.824 C34.729333,8.80266656 34.6560004,8.7786668 34.568,8.752 C34.4799996,8.7253332 34.3720006,8.70133344 34.244,8.68 C34.1159994,8.65866656 33.9693342,8.648 33.804,8.648 C33.2013303,8.648 32.7066686,8.8346648 32.32,9.208 C31.9333314,9.5813352 31.6200012,10.1199965 31.38,10.824 L31.38,16 L30.62,16 Z M39.972,7.912 C40.4200022,7.912 40.8346648,7.98933256 41.216,8.144 C41.5973352,8.29866744 41.9279986,8.52399852 42.208,8.82 C42.4880014,9.11600148 42.7066659,9.47999784 42.864,9.912 C43.0213341,10.3440022 43.1,10.8399972 43.1,11.4 C43.1,11.5173339 43.0826668,11.5973331 43.048,11.64 C43.0133332,11.6826669 42.958667,11.704 42.884,11.704 L37.132,11.704 L37.132,11.856 C37.132,12.4533363 37.2013326,12.9786644 37.34,13.432 C37.4786674,13.8853356 37.6759987,14.2653318 37.932,14.572 C38.1880013,14.8786682 38.4973315,15.1093326 38.86,15.264 C39.2226685,15.4186674 39.6279978,15.496 40.076,15.496 C40.476002,15.496 40.8226652,15.4520004 41.116,15.364 C41.4093348,15.2759996 41.655999,15.1773339 41.856,15.068 C42.056001,14.9586661 42.2146661,14.8600004 42.332,14.772 C42.4493339,14.6839996 42.5346664,14.64 42.588,14.64 C42.6573337,14.64 42.7106665,14.6666664 42.748,14.72 L42.956,14.976 C42.8279994,15.1360008 42.6586677,15.2853326 42.448,15.424 C42.2373323,15.5626674 42.002668,15.6813328 41.744,15.78 C41.485332,15.8786672 41.2080015,15.957333 40.912,16.016 C40.6159985,16.074667 40.3186682,16.104 40.02,16.104 C39.4759973,16.104 38.9800022,16.0093343 38.532,15.82 C38.0839978,15.6306657 37.7000016,15.3546685 37.38,14.992 C37.0599984,14.6293315 36.8133342,14.185336 36.64,13.66 C36.4666658,13.134664 36.38,12.5333367 36.38,11.856 C36.38,11.2853305 36.4613325,10.7586691 36.624,10.276 C36.7866675,9.79333092 37.0213318,9.37733508 37.328,9.028 C37.6346682,8.67866492 38.0106644,8.40533432 38.456,8.208 C38.9013356,8.01066568 39.4066638,7.912 39.972,7.912 Z M39.98,8.48 C39.5693313,8.48 39.201335,8.54399936 38.876,8.672 C38.550665,8.80000064 38.2693345,8.9839988 38.032,9.224 C37.7946655,9.4640012 37.6026674,9.75199832 37.456,10.088 C37.3093326,10.4240017 37.2120002,10.7999979 37.164,11.216 L42.412,11.216 C42.412,10.7893312 42.3533339,10.4066684 42.236,10.068 C42.1186661,9.72933164 41.9533344,9.44266784 41.74,9.208 C41.5266656,8.97333216 41.2706682,8.79333396 40.972,8.668 C40.6733318,8.54266604 40.3426685,8.48 39.98,8.48 Z M45.148,16 L45.148,8.04 L45.564,8.04 C45.7026674,8.04 45.7826666,8.106666 45.804,8.24 L45.876,9.392 C46.0306674,9.17333224 46.1959991,8.97333424 46.372,8.792 C46.5480009,8.61066576 46.735999,8.45466732 46.936,8.324 C47.136001,8.19333268 47.3493322,8.09200036 47.576,8.02 C47.8026678,7.94799964 48.0413321,7.912 48.292,7.912 C48.8733362,7.912 49.3373316,8.08133164 49.684,8.42 C50.0306684,8.75866836 50.2653327,9.22933032 50.388,9.832 C50.4840005,9.50133168 50.6186658,9.2160012 50.792,8.976 C50.9653342,8.7359988 51.1639989,8.53733412 51.388,8.38 C51.6120011,8.22266588 51.8559987,8.10533372 52.12,8.028 C52.3840013,7.95066628 52.6546653,7.912 52.932,7.912 C53.3266686,7.912 53.6813318,7.97733268 53.996,8.108 C54.3106682,8.23866732 54.5786656,8.43199872 54.8,8.688 C55.0213344,8.94400128 55.1906661,9.2586648 55.308,9.632 C55.4253339,10.0053352 55.484,10.4319976 55.484,10.912 L55.484,16 L54.716,16 L54.716,10.912 C54.716,10.1333294 54.5480017,9.54000204 54.212,9.132 C53.8759983,8.72399796 53.3960031,8.52 52.772,8.52 C52.4946653,8.52 52.2293346,8.57066616 51.976,8.672 C51.7226654,8.77333384 51.4986676,8.923999 51.304,9.124 C51.1093324,9.324001 50.9546672,9.57333184 50.84,9.872 C50.7253328,10.1706682 50.668,10.5173314 50.668,10.912 L50.668,16 L49.908,16 L49.908,10.912 C49.908,10.1386628 49.7533349,9.54666872 49.444,9.136 C49.1346651,8.72533128 48.684003,8.52 48.092,8.52 C47.6599978,8.52 47.2600018,8.64933204 46.892,8.908 C46.5239982,9.16666796 46.1960014,9.52533104 45.908,9.984 L45.908,16 L45.148,16 Z M60.908,7.912 C61.4786695,7.912 61.9893311,8.00933236 62.44,8.204 C62.8906689,8.39866764 63.2706651,8.67466488 63.58,9.032 C63.8893349,9.38933512 64.1253325,9.81999748 64.288,10.324 C64.4506675,10.8280025 64.532,11.3919969 64.532,12.016 C64.532,12.6400031 64.4506675,13.2026642 64.288,13.704 C64.1253325,14.2053358 63.8893349,14.6346649 63.58,14.992 C63.2706651,15.3493351 62.8906689,15.623999 62.44,15.816 C61.9893311,16.008001 61.4786695,16.104 60.908,16.104 C60.3373305,16.104 59.8266689,16.008001 59.376,15.816 C58.9253311,15.623999 58.5440016,15.3493351 58.232,14.992 C57.9199984,14.6346649 57.6826675,14.2053358 57.52,13.704 C57.3573325,13.2026642 57.276,12.6400031 57.276,12.016 C57.276,11.3919969 57.3573325,10.8280025 57.52,10.324 C57.6826675,9.81999748 57.9199984,9.38933512 58.232,9.032 C58.5440016,8.67466488 58.9253311,8.39866764 59.376,8.204 C59.8266689,8.00933236 60.3373305,7.912 60.908,7.912 Z M60.908,15.504 C61.382669,15.504 61.7973316,15.4226675 62.152,15.26 C62.5066684,15.0973325 62.8026655,14.8640015 63.04,14.56 C63.2773345,14.2559985 63.4546661,13.8893355 63.572,13.46 C63.6893339,13.0306645 63.748,12.549336 63.748,12.016 C63.748,11.4879974 63.6893339,11.0080022 63.572,10.576 C63.4546661,10.1439978 63.2773345,9.7746682 63.04,9.468 C62.8026655,9.1613318 62.5066684,8.92533416 62.152,8.76 C61.7973316,8.59466584 61.382669,8.512 60.908,8.512 C60.433331,8.512 60.0186684,8.59466584 59.664,8.76 C59.3093316,8.92533416 59.0133345,9.1613318 58.776,9.468 C58.5386655,9.7746682 58.3600006,10.1439978 58.24,10.576 C58.1199994,11.0080022 58.06,11.4879974 58.06,12.016 C58.06,12.549336 58.1199994,13.0306645 58.24,13.46 C58.3600006,13.8893355 58.5386655,14.2559985 58.776,14.56 C59.0133345,14.8640015 59.3093316,15.0973325 59.664,15.26 C60.0186684,15.4226675 60.433331,15.504 60.908,15.504 Z M68.708,16.128 C68.1693306,16.128 67.7493348,15.9786682 67.448,15.68 C67.1466652,15.3813318 66.996,14.9200031 66.996,14.296 L66.996,8.856 L65.852,8.856 C65.793333,8.856 65.7453335,8.84000016 65.708,8.808 C65.6706665,8.77599984 65.652,8.73066696 65.652,8.672 L65.652,8.376 L67.012,8.28 L67.204,5.432 C67.2093334,5.38399976 67.2293332,5.34133352 67.264,5.304 C67.2986668,5.26666648 67.345333,5.248 67.404,5.248 L67.764,5.248 L67.764,8.288 L70.268,8.288 L70.268,8.856 L67.764,8.856 L67.764,14.256 C67.764,14.4746678 67.7919997,14.6626659 67.848,14.82 C67.9040003,14.9773341 67.9813328,15.1066662 68.08,15.208 C68.1786672,15.3093338 68.294666,15.3839998 68.428,15.432 C68.561334,15.4800002 68.7053326,15.504 68.86,15.504 C69.052001,15.504 69.2173326,15.4760003 69.356,15.42 C69.4946674,15.3639997 69.6146662,15.302667 69.716,15.236 C69.8173338,15.169333 69.8999997,15.1080003 69.964,15.052 C70.0280003,14.9959997 70.0786665,14.968 70.116,14.968 C70.1586669,14.968 70.2013331,14.9946664 70.244,15.048 L70.452,15.384 C70.2493323,15.6080011 69.9920016,15.7879993 69.68,15.924 C69.3679984,16.0600007 69.0440017,16.128 68.708,16.128 Z M75.236,7.912 C75.6840022,7.912 76.0986648,7.98933256 76.48,8.144 C76.8613352,8.29866744 77.1919986,8.52399852 77.472,8.82 C77.7520014,9.11600148 77.9706659,9.47999784 78.128,9.912 C78.2853341,10.3440022 78.364,10.8399972 78.364,11.4 C78.364,11.5173339 78.3466668,11.5973331 78.312,11.64 C78.2773332,11.6826669 78.222667,11.704 78.148,11.704 L72.396,11.704 L72.396,11.856 C72.396,12.4533363 72.4653326,12.9786644 72.604,13.432 C72.7426674,13.8853356 72.9399987,14.2653318 73.196,14.572 C73.4520013,14.8786682 73.7613315,15.1093326 74.124,15.264 C74.4866685,15.4186674 74.8919978,15.496 75.34,15.496 C75.740002,15.496 76.0866652,15.4520004 76.38,15.364 C76.6733348,15.2759996 76.919999,15.1773339 77.12,15.068 C77.320001,14.9586661 77.4786661,14.8600004 77.596,14.772 C77.7133339,14.6839996 77.7986664,14.64 77.852,14.64 C77.9213337,14.64 77.9746665,14.6666664 78.012,14.72 L78.22,14.976 C78.0919994,15.1360008 77.9226677,15.2853326 77.712,15.424 C77.5013323,15.5626674 77.266668,15.6813328 77.008,15.78 C76.749332,15.8786672 76.4720015,15.957333 76.176,16.016 C75.8799985,16.074667 75.5826682,16.104 75.284,16.104 C74.7399973,16.104 74.2440022,16.0093343 73.796,15.82 C73.3479978,15.6306657 72.9640016,15.3546685 72.644,14.992 C72.3239984,14.6293315 72.0773342,14.185336 71.904,13.66 C71.7306658,13.134664 71.644,12.5333367 71.644,11.856 C71.644,11.2853305 71.7253325,10.7586691 71.888,10.276 C72.0506675,9.79333092 72.2853318,9.37733508 72.592,9.028 C72.8986682,8.67866492 73.2746644,8.40533432 73.72,8.208 C74.1653356,8.01066568 74.6706638,7.912 75.236,7.912 Z M75.244,8.48 C74.8333313,8.48 74.465335,8.54399936 74.14,8.672 C73.814665,8.80000064 73.5333345,8.9839988 73.296,9.224 C73.0586655,9.4640012 72.8666674,9.75199832 72.72,10.088 C72.5733326,10.4240017 72.4760002,10.7999979 72.428,11.216 L77.676,11.216 C77.676,10.7893312 77.6173339,10.4066684 77.5,10.068 C77.3826661,9.72933164 77.2173344,9.44266784 77.004,9.208 C76.7906656,8.97333216 76.5346682,8.79333396 76.236,8.668 C75.9373318,8.54266604 75.6066685,8.48 75.244,8.48 Z M83.5,16 L83.5,8.04 L83.9,8.04 C83.9906671,8.04 84.0559998,8.05866648 84.096,8.096 C84.1360002,8.13333352 84.1586666,8.19733288 84.164,8.288 L84.228,9.968 C84.4840013,9.32266344 84.8253312,8.81733516 85.252,8.452 C85.6786688,8.08666484 86.2039969,7.904 86.828,7.904 C87.0680012,7.904 87.2893323,7.92933308 87.492,7.98 C87.6946677,8.03066692 87.8866658,8.10399952 88.068,8.2 L87.964,8.728 C87.9479999,8.81333376 87.8946671,8.856 87.804,8.856 C87.7719998,8.856 87.726667,8.84533344 87.668,8.824 C87.609333,8.80266656 87.5360004,8.7786668 87.448,8.752 C87.3599996,8.7253332 87.2520006,8.70133344 87.124,8.68 C86.9959994,8.65866656 86.8493342,8.648 86.684,8.648 C86.0813303,8.648 85.5866686,8.8346648 85.2,9.208 C84.8133314,9.5813352 84.5000012,10.1199965 84.26,10.824 L84.26,16 L83.5,16 Z M92.852,7.912 C93.3000022,7.912 93.7146648,7.98933256 94.096,8.144 C94.4773352,8.29866744 94.8079986,8.52399852 95.088,8.82 C95.3680014,9.11600148 95.5866659,9.47999784 95.744,9.912 C95.9013341,10.3440022 95.98,10.8399972 95.98,11.4 C95.98,11.5173339 95.9626668,11.5973331 95.928,11.64 C95.8933332,11.6826669 95.838667,11.704 95.764,11.704 L90.012,11.704 L90.012,11.856 C90.012,12.4533363 90.0813326,12.9786644 90.22,13.432 C90.3586674,13.8853356 90.5559987,14.2653318 90.812,14.572 C91.0680013,14.8786682 91.3773315,15.1093326 91.74,15.264 C92.1026685,15.4186674 92.5079978,15.496 92.956,15.496 C93.356002,15.496 93.7026652,15.4520004 93.996,15.364 C94.2893348,15.2759996 94.535999,15.1773339 94.736,15.068 C94.936001,14.9586661 95.0946661,14.8600004 95.212,14.772 C95.3293339,14.6839996 95.4146664,14.64 95.468,14.64 C95.5373337,14.64 95.5906665,14.6666664 95.628,14.72 L95.836,14.976 C95.7079994,15.1360008 95.5386677,15.2853326 95.328,15.424 C95.1173323,15.5626674 94.882668,15.6813328 94.624,15.78 C94.365332,15.8786672 94.0880015,15.957333 93.792,16.016 C93.4959985,16.074667 93.1986682,16.104 92.9,16.104 C92.3559973,16.104 91.8600022,16.0093343 91.412,15.82 C90.9639978,15.6306657 90.5800016,15.3546685 90.26,14.992 C89.9399984,14.6293315 89.6933342,14.185336 89.52,13.66 C89.3466658,13.134664 89.26,12.5333367 89.26,11.856 C89.26,11.2853305 89.3413325,10.7586691 89.504,10.276 C89.6666675,9.79333092 89.9013318,9.37733508 90.208,9.028 C90.5146682,8.67866492 90.8906644,8.40533432 91.336,8.208 C91.7813356,8.01066568 92.2866638,7.912 92.852,7.912 Z M92.86,8.48 C92.4493313,8.48 92.081335,8.54399936 91.756,8.672 C91.430665,8.80000064 91.1493345,8.9839988 90.912,9.224 C90.6746655,9.4640012 90.4826674,9.75199832 90.336,10.088 C90.1893326,10.4240017 90.0920002,10.7999979 90.044,11.216 L95.292,11.216 C95.292,10.7893312 95.2333339,10.4066684 95.116,10.068 C94.9986661,9.72933164 94.8333344,9.44266784 94.62,9.208 C94.4066656,8.97333216 94.1506682,8.79333396 93.852,8.668 C93.5533318,8.54266604 93.2226685,8.48 92.86,8.48 Z M98.028,18.816 L98.028,8.04 L98.444,8.04 C98.5133337,8.04 98.5693331,8.05466652 98.612,8.084 C98.6546669,8.11333348 98.6786666,8.16533296 98.684,8.24 L98.756,9.472 C99.1080018,8.9919976 99.5199976,8.61066808 99.992,8.328 C100.464002,8.04533192 100.99333,7.904 101.58,7.904 C102.561338,7.904 103.323997,8.24266328 103.868,8.92 C104.412003,9.59733672 104.684,10.6133266 104.684,11.968 C104.684,12.5493362 104.608001,13.0919975 104.456,13.596 C104.303999,14.1000025 104.081335,14.5373315 103.788,14.908 C103.494665,15.2786685 103.133335,15.5706656 102.704,15.784 C102.274665,15.9973344 101.780003,16.104 101.22,16.104 C100.675997,16.104 100.206669,16.0053343 99.812,15.808 C99.4173314,15.6106657 99.0760014,15.3173353 98.788,14.928 L98.788,18.816 L98.028,18.816 Z M101.364,8.52 C100.835997,8.52 100.357335,8.65733196 99.928,8.932 C99.4986645,9.20666804 99.1186683,9.58933088 98.788,10.08 L98.788,14.256 C99.0920015,14.714669 99.4293315,15.0373324 99.8,15.224 C100.170669,15.4106676 100.593331,15.504 101.068,15.504 C101.537336,15.504 101.947998,15.4186675 102.3,15.248 C102.652002,15.0773325 102.946665,14.8360016 103.184,14.524 C103.421335,14.2119984 103.599999,13.8386688 103.72,13.404 C103.840001,12.9693312 103.9,12.4906693 103.9,11.968 C103.9,10.7839941 103.682669,9.91333612 103.248,9.356 C102.813331,8.79866388 102.185337,8.52 101.364,8.52 Z M109.62,7.912 C110.19067,7.912 110.701331,8.00933236 111.152,8.204 C111.602669,8.39866764 111.982665,8.67466488 112.292,9.032 C112.601335,9.38933512 112.837333,9.81999748 113,10.324 C113.162667,10.8280025 113.244,11.3919969 113.244,12.016 C113.244,12.6400031 113.162667,13.2026642 113,13.704 C112.837333,14.2053358 112.601335,14.6346649 112.292,14.992 C111.982665,15.3493351 111.602669,15.623999 111.152,15.816 C110.701331,16.008001 110.19067,16.104 109.62,16.104 C109.04933,16.104 108.538669,16.008001 108.088,15.816 C107.637331,15.623999 107.256002,15.3493351 106.944,14.992 C106.631998,14.6346649 106.394667,14.2053358 106.232,13.704 C106.069333,13.2026642 105.988,12.6400031 105.988,12.016 C105.988,11.3919969 106.069333,10.8280025 106.232,10.324 C106.394667,9.81999748 106.631998,9.38933512 106.944,9.032 C107.256002,8.67466488 107.637331,8.39866764 108.088,8.204 C108.538669,8.00933236 109.04933,7.912 109.62,7.912 Z M109.62,15.504 C110.094669,15.504 110.509332,15.4226675 110.864,15.26 C111.218668,15.0973325 111.514665,14.8640015 111.752,14.56 C111.989335,14.2559985 112.166666,13.8893355 112.284,13.46 C112.401334,13.0306645 112.46,12.549336 112.46,12.016 C112.46,11.4879974 112.401334,11.0080022 112.284,10.576 C112.166666,10.1439978 111.989335,9.7746682 111.752,9.468 C111.514665,9.1613318 111.218668,8.92533416 110.864,8.76 C110.509332,8.59466584 110.094669,8.512 109.62,8.512 C109.145331,8.512 108.730668,8.59466584 108.376,8.76 C108.021332,8.92533416 107.725335,9.1613318 107.488,9.468 C107.250665,9.7746682 107.072001,10.1439978 106.952,10.576 C106.831999,11.0080022 106.772,11.4879974 106.772,12.016 C106.772,12.549336 106.831999,13.0306645 106.952,13.46 C107.072001,13.8893355 107.250665,14.2559985 107.488,14.56 C107.725335,14.8640015 108.021332,15.0973325 108.376,15.26 C108.730668,15.4226675 109.145331,15.504 109.62,15.504 Z M119.628,9.024 C119.590666,9.09866704 119.532,9.136 119.452,9.136 C119.393333,9.136 119.317334,9.102667 119.224,9.036 C119.130666,8.969333 119.008001,8.89466708 118.856,8.812 C118.703999,8.72933292 118.517334,8.654667 118.296,8.588 C118.074666,8.521333 117.804002,8.488 117.484,8.488 C117.195999,8.488 116.933335,8.52933292 116.696,8.612 C116.458665,8.69466708 116.256001,8.80533264 116.088,8.944 C115.919999,9.08266736 115.789334,9.24399908 115.696,9.428 C115.602666,9.61200092 115.556,9.80533232 115.556,10.008 C115.556,10.2586679 115.619999,10.4666658 115.748,10.632 C115.876001,10.7973342 116.043999,10.9386661 116.252,11.056 C116.460001,11.1733339 116.695999,11.2746662 116.96,11.36 C117.224001,11.4453338 117.494665,11.5306662 117.772,11.616 C118.049335,11.7013338 118.319999,11.7959995 118.584,11.9 C118.848001,12.0040005 119.083999,12.1333326 119.292,12.288 C119.500001,12.4426674 119.667999,12.6319989 119.796,12.856 C119.924001,13.0800011 119.988,13.3519984 119.988,13.672 C119.988,14.0186684 119.925334,14.3413318 119.8,14.64 C119.674666,14.9386682 119.493335,15.1973322 119.256,15.416 C119.018665,15.6346678 118.726668,15.8079994 118.38,15.936 C118.033332,16.0640006 117.638669,16.128 117.196,16.128 C116.635997,16.128 116.153335,16.0386676 115.748,15.86 C115.342665,15.6813324 114.980002,15.4480014 114.66,15.16 L114.844,14.888 C114.870667,14.8453331 114.9,14.8133334 114.932,14.792 C114.964,14.7706666 115.009333,14.76 115.068,14.76 C115.137334,14.76 115.222666,14.8026662 115.324,14.888 C115.425334,14.9733338 115.557333,15.0653328 115.72,15.164 C115.882667,15.2626672 116.085332,15.3546662 116.328,15.44 C116.570668,15.5253338 116.870665,15.568 117.228,15.568 C117.564002,15.568 117.859999,15.5213338 118.116,15.428 C118.372001,15.3346662 118.585332,15.2080008 118.756,15.048 C118.926668,14.8879992 119.056,14.7000011 119.144,14.484 C119.232,14.2679989 119.276,14.0400012 119.276,13.8 C119.276,13.533332 119.212001,13.3120009 119.084,13.136 C118.955999,12.9599991 118.788001,12.8106673 118.58,12.688 C118.371999,12.5653327 118.136001,12.4613338 117.872,12.376 C117.607999,12.2906662 117.336001,12.2053338 117.056,12.12 C116.775999,12.0346662 116.504001,11.9413338 116.24,11.84 C115.975999,11.7386662 115.740001,11.6106674 115.532,11.456 C115.323999,11.3013326 115.156001,11.1133344 115.028,10.892 C114.899999,10.6706656 114.836,10.3946683 114.836,10.064 C114.836,9.78133192 114.897333,9.50933464 115.02,9.248 C115.142667,8.98666536 115.317332,8.75733432 115.544,8.56 C115.770668,8.36266568 116.046665,8.20533392 116.372,8.088 C116.697335,7.97066608 117.062665,7.912 117.468,7.912 C117.953336,7.912 118.383998,7.98133264 118.76,8.12 C119.136002,8.25866736 119.481332,8.47199856 119.796,8.76 L119.628,9.024 Z M123.108,8.04 L123.108,16 L122.348,16 L122.348,8.04 L123.108,8.04 Z M123.444,5.296 C123.444,5.39200048 123.424,5.48133292 123.384,5.564 C123.344,5.64666708 123.292,5.71999968 123.228,5.784 C123.164,5.84800032 123.089334,5.89866648 123.004,5.936 C122.918666,5.97333352 122.828,5.992 122.732,5.992 C122.636,5.992 122.545334,5.97333352 122.46,5.936 C122.374666,5.89866648 122.3,5.84800032 122.236,5.784 C122.172,5.71999968 122.121334,5.64666708 122.084,5.564 C122.046666,5.48133292 122.028,5.39200048 122.028,5.296 C122.028,5.19999952 122.046666,5.10800044 122.084,5.02 C122.121334,4.93199956 122.172,4.85600032 122.236,4.792 C122.3,4.72799968 122.374666,4.67733352 122.46,4.64 C122.545334,4.60266648 122.636,4.584 122.732,4.584 C122.828,4.584 122.918666,4.60266648 123.004,4.64 C123.089334,4.67733352 123.164,4.72799968 123.228,4.792 C123.292,4.85600032 123.344,4.93199956 123.384,5.02 C123.424,5.10800044 123.444,5.19999952 123.444,5.296 Z M128.1,16.128 C127.561331,16.128 127.141335,15.9786682 126.84,15.68 C126.538665,15.3813318 126.388,14.9200031 126.388,14.296 L126.388,8.856 L125.244,8.856 C125.185333,8.856 125.137334,8.84000016 125.1,8.808 C125.062666,8.77599984 125.044,8.73066696 125.044,8.672 L125.044,8.376 L126.404,8.28 L126.596,5.432 C126.601333,5.38399976 126.621333,5.34133352 126.656,5.304 C126.690667,5.26666648 126.737333,5.248 126.796,5.248 L127.156,5.248 L127.156,8.288 L129.66,8.288 L129.66,8.856 L127.156,8.856 L127.156,14.256 C127.156,14.4746678 127.184,14.6626659 127.24,14.82 C127.296,14.9773341 127.373333,15.1066662 127.472,15.208 C127.570667,15.3093338 127.686666,15.3839998 127.82,15.432 C127.953334,15.4800002 128.097333,15.504 128.252,15.504 C128.444001,15.504 128.609333,15.4760003 128.748,15.42 C128.886667,15.3639997 129.006666,15.302667 129.108,15.236 C129.209334,15.169333 129.292,15.1080003 129.356,15.052 C129.42,14.9959997 129.470666,14.968 129.508,14.968 C129.550667,14.968 129.593333,14.9946664 129.636,15.048 L129.844,15.384 C129.641332,15.6080011 129.384002,15.7879993 129.072,15.924 C128.759998,16.0600007 128.436002,16.128 128.1,16.128 Z M134.66,7.912 C135.23067,7.912 135.741331,8.00933236 136.192,8.204 C136.642669,8.39866764 137.022665,8.67466488 137.332,9.032 C137.641335,9.38933512 137.877333,9.81999748 138.04,10.324 C138.202667,10.8280025 138.284,11.3919969 138.284,12.016 C138.284,12.6400031 138.202667,13.2026642 138.04,13.704 C137.877333,14.2053358 137.641335,14.6346649 137.332,14.992 C137.022665,15.3493351 136.642669,15.623999 136.192,15.816 C135.741331,16.008001 135.23067,16.104 134.66,16.104 C134.08933,16.104 133.578669,16.008001 133.128,15.816 C132.677331,15.623999 132.296002,15.3493351 131.984,14.992 C131.671998,14.6346649 131.434667,14.2053358 131.272,13.704 C131.109333,13.2026642 131.028,12.6400031 131.028,12.016 C131.028,11.3919969 131.109333,10.8280025 131.272,10.324 C131.434667,9.81999748 131.671998,9.38933512 131.984,9.032 C132.296002,8.67466488 132.677331,8.39866764 133.128,8.204 C133.578669,8.00933236 134.08933,7.912 134.66,7.912 Z M134.66,15.504 C135.134669,15.504 135.549332,15.4226675 135.904,15.26 C136.258668,15.0973325 136.554665,14.8640015 136.792,14.56 C137.029335,14.2559985 137.206666,13.8893355 137.324,13.46 C137.441334,13.0306645 137.5,12.549336 137.5,12.016 C137.5,11.4879974 137.441334,11.0080022 137.324,10.576 C137.206666,10.1439978 137.029335,9.7746682 136.792,9.468 C136.554665,9.1613318 136.258668,8.92533416 135.904,8.76 C135.549332,8.59466584 135.134669,8.512 134.66,8.512 C134.185331,8.512 133.770668,8.59466584 133.416,8.76 C133.061332,8.92533416 132.765335,9.1613318 132.528,9.468 C132.290665,9.7746682 132.112001,10.1439978 131.992,10.576 C131.871999,11.0080022 131.812,11.4879974 131.812,12.016 C131.812,12.549336 131.871999,13.0306645 131.992,13.46 C132.112001,13.8893355 132.290665,14.2559985 132.528,14.56 C132.765335,14.8640015 133.061332,15.0973325 133.416,15.26 C133.770668,15.4226675 134.185331,15.504 134.66,15.504 Z M140.284,16 L140.284,8.04 L140.684,8.04 C140.774667,8.04 140.84,8.05866648 140.88,8.096 C140.92,8.13333352 140.942667,8.19733288 140.948,8.288 L141.012,9.968 C141.268001,9.32266344 141.609331,8.81733516 142.036,8.452 C142.462669,8.08666484 142.987997,7.904 143.612,7.904 C143.852001,7.904 144.073332,7.92933308 144.276,7.98 C144.478668,8.03066692 144.670666,8.10399952 144.852,8.2 L144.748,8.728 C144.732,8.81333376 144.678667,8.856 144.588,8.856 C144.556,8.856 144.510667,8.84533344 144.452,8.824 C144.393333,8.80266656 144.32,8.7786668 144.232,8.752 C144.144,8.7253332 144.036001,8.70133344 143.908,8.68 C143.779999,8.65866656 143.633334,8.648 143.468,8.648 C142.86533,8.648 142.370669,8.8346648 141.984,9.208 C141.597331,9.5813352 141.284001,10.1199965 141.044,10.824 L141.044,16 L140.284,16 Z M148.372,18.56 C148.34,18.634667 148.298667,18.6959998 148.248,18.744 C148.197333,18.7920002 148.124,18.816 148.028,18.816 L147.484,18.816 L148.884,15.704 L145.516,8.04 L146.148,8.04 C146.228,8.04 146.290666,8.0599998 146.336,8.1 C146.381334,8.1400002 146.414667,8.18399976 146.436,8.232 L149.116,14.424 C149.148,14.5040004 149.176,14.5853329 149.2,14.668 C149.224,14.7506671 149.246667,14.8346662 149.268,14.92 C149.294667,14.8346662 149.322667,14.7506671 149.352,14.668 C149.381333,14.5853329 149.412,14.5040004 149.444,14.424 L152.092,8.232 C152.118667,8.17333304 152.156,8.12666684 152.204,8.092 C152.252,8.05733316 152.305333,8.04 152.364,8.04 L152.948,8.04 L148.372,18.56 Z M158.5,8.04 L158.5,16 L157.74,16 L157.74,8.04 L158.5,8.04 Z M158.836,5.296 C158.836,5.39200048 158.816,5.48133292 158.776,5.564 C158.736,5.64666708 158.684,5.71999968 158.62,5.784 C158.556,5.84800032 158.481334,5.89866648 158.396,5.936 C158.310666,5.97333352 158.22,5.992 158.124,5.992 C158.028,5.992 157.937334,5.97333352 157.852,5.936 C157.766666,5.89866648 157.692,5.84800032 157.628,5.784 C157.564,5.71999968 157.513334,5.64666708 157.476,5.564 C157.438666,5.48133292 157.42,5.39200048 157.42,5.296 C157.42,5.19999952 157.438666,5.10800044 157.476,5.02 C157.513334,4.93199956 157.564,4.85600032 157.628,4.792 C157.692,4.72799968 157.766666,4.67733352 157.852,4.64 C157.937334,4.60266648 158.028,4.584 158.124,4.584 C158.22,4.584 158.310666,4.60266648 158.396,4.64 C158.481334,4.67733352 158.556,4.72799968 158.62,4.792 C158.684,4.85600032 158.736,4.93199956 158.776,5.02 C158.816,5.10800044 158.836,5.19999952 158.836,5.296 Z M165.7,9.024 C165.662666,9.09866704 165.604,9.136 165.524,9.136 C165.465333,9.136 165.389334,9.102667 165.296,9.036 C165.202666,8.969333 165.080001,8.89466708 164.928,8.812 C164.775999,8.72933292 164.589334,8.654667 164.368,8.588 C164.146666,8.521333 163.876002,8.488 163.556,8.488 C163.267999,8.488 163.005335,8.52933292 162.768,8.612 C162.530665,8.69466708 162.328001,8.80533264 162.16,8.944 C161.991999,9.08266736 161.861334,9.24399908 161.768,9.428 C161.674666,9.61200092 161.628,9.80533232 161.628,10.008 C161.628,10.2586679 161.691999,10.4666658 161.82,10.632 C161.948001,10.7973342 162.115999,10.9386661 162.324,11.056 C162.532001,11.1733339 162.767999,11.2746662 163.032,11.36 C163.296001,11.4453338 163.566665,11.5306662 163.844,11.616 C164.121335,11.7013338 164.391999,11.7959995 164.656,11.9 C164.920001,12.0040005 165.155999,12.1333326 165.364,12.288 C165.572001,12.4426674 165.739999,12.6319989 165.868,12.856 C165.996001,13.0800011 166.06,13.3519984 166.06,13.672 C166.06,14.0186684 165.997334,14.3413318 165.872,14.64 C165.746666,14.9386682 165.565335,15.1973322 165.328,15.416 C165.090665,15.6346678 164.798668,15.8079994 164.452,15.936 C164.105332,16.0640006 163.710669,16.128 163.268,16.128 C162.707997,16.128 162.225335,16.0386676 161.82,15.86 C161.414665,15.6813324 161.052002,15.4480014 160.732,15.16 L160.916,14.888 C160.942667,14.8453331 160.972,14.8133334 161.004,14.792 C161.036,14.7706666 161.081333,14.76 161.14,14.76 C161.209334,14.76 161.294666,14.8026662 161.396,14.888 C161.497334,14.9733338 161.629333,15.0653328 161.792,15.164 C161.954667,15.2626672 162.157332,15.3546662 162.4,15.44 C162.642668,15.5253338 162.942665,15.568 163.3,15.568 C163.636002,15.568 163.931999,15.5213338 164.188,15.428 C164.444001,15.3346662 164.657332,15.2080008 164.828,15.048 C164.998668,14.8879992 165.128,14.7000011 165.216,14.484 C165.304,14.2679989 165.348,14.0400012 165.348,13.8 C165.348,13.533332 165.284001,13.3120009 165.156,13.136 C165.027999,12.9599991 164.860001,12.8106673 164.652,12.688 C164.443999,12.5653327 164.208001,12.4613338 163.944,12.376 C163.679999,12.2906662 163.408001,12.2053338 163.128,12.12 C162.847999,12.0346662 162.576001,11.9413338 162.312,11.84 C162.047999,11.7386662 161.812001,11.6106674 161.604,11.456 C161.395999,11.3013326 161.228001,11.1133344 161.1,10.892 C160.971999,10.6706656 160.908,10.3946683 160.908,10.064 C160.908,9.78133192 160.969333,9.50933464 161.092,9.248 C161.214667,8.98666536 161.389332,8.75733432 161.616,8.56 C161.842668,8.36266568 162.118665,8.20533392 162.444,8.088 C162.769335,7.97066608 163.134665,7.912 163.54,7.912 C164.025336,7.912 164.455998,7.98133264 164.832,8.12 C165.208002,8.25866736 165.553332,8.47199856 165.868,8.76 L165.7,9.024 Z M174.284,7.912 C174.732002,7.912 175.146665,7.98933256 175.528,8.144 C175.909335,8.29866744 176.239999,8.52399852 176.52,8.82 C176.800001,9.11600148 177.018666,9.47999784 177.176,9.912 C177.333334,10.3440022 177.412,10.8399972 177.412,11.4 C177.412,11.5173339 177.394667,11.5973331 177.36,11.64 C177.325333,11.6826669 177.270667,11.704 177.196,11.704 L171.444,11.704 L171.444,11.856 C171.444,12.4533363 171.513333,12.9786644 171.652,13.432 C171.790667,13.8853356 171.987999,14.2653318 172.244,14.572 C172.500001,14.8786682 172.809332,15.1093326 173.172,15.264 C173.534668,15.4186674 173.939998,15.496 174.388,15.496 C174.788002,15.496 175.134665,15.4520004 175.428,15.364 C175.721335,15.2759996 175.967999,15.1773339 176.168,15.068 C176.368001,14.9586661 176.526666,14.8600004 176.644,14.772 C176.761334,14.6839996 176.846666,14.64 176.9,14.64 C176.969334,14.64 177.022666,14.6666664 177.06,14.72 L177.268,14.976 C177.139999,15.1360008 176.970668,15.2853326 176.76,15.424 C176.549332,15.5626674 176.314668,15.6813328 176.056,15.78 C175.797332,15.8786672 175.520001,15.957333 175.224,16.016 C174.927999,16.074667 174.630668,16.104 174.332,16.104 C173.787997,16.104 173.292002,16.0093343 172.844,15.82 C172.395998,15.6306657 172.012002,15.3546685 171.692,14.992 C171.371998,14.6293315 171.125334,14.185336 170.952,13.66 C170.778666,13.134664 170.692,12.5333367 170.692,11.856 C170.692,11.2853305 170.773333,10.7586691 170.936,10.276 C171.098667,9.79333092 171.333332,9.37733508 171.64,9.028 C171.946668,8.67866492 172.322664,8.40533432 172.768,8.208 C173.213336,8.01066568 173.718664,7.912 174.284,7.912 Z M174.292,8.48 C173.881331,8.48 173.513335,8.54399936 173.188,8.672 C172.862665,8.80000064 172.581335,8.9839988 172.344,9.224 C172.106665,9.4640012 171.914667,9.75199832 171.768,10.088 C171.621333,10.4240017 171.524,10.7999979 171.476,11.216 L176.724,11.216 C176.724,10.7893312 176.665334,10.4066684 176.548,10.068 C176.430666,9.72933164 176.265334,9.44266784 176.052,9.208 C175.838666,8.97333216 175.582668,8.79333396 175.284,8.668 C174.985332,8.54266604 174.654668,8.48 174.292,8.48 Z M179.46,16 L179.46,8.04 L179.876,8.04 C180.014667,8.04 180.094667,8.106666 180.116,8.24 L180.188,9.392 C180.342667,9.17333224 180.507999,8.97333424 180.684,8.792 C180.860001,8.61066576 181.047999,8.45466732 181.248,8.324 C181.448001,8.19333268 181.661332,8.09200036 181.888,8.02 C182.114668,7.94799964 182.353332,7.912 182.604,7.912 C183.185336,7.912 183.649332,8.08133164 183.996,8.42 C184.342668,8.75866836 184.577333,9.22933032 184.7,9.832 C184.796,9.50133168 184.930666,9.2160012 185.104,8.976 C185.277334,8.7359988 185.475999,8.53733412 185.7,8.38 C185.924001,8.22266588 186.167999,8.10533372 186.432,8.028 C186.696001,7.95066628 186.966665,7.912 187.244,7.912 C187.638669,7.912 187.993332,7.97733268 188.308,8.108 C188.622668,8.23866732 188.890666,8.43199872 189.112,8.688 C189.333334,8.94400128 189.502666,9.2586648 189.62,9.632 C189.737334,10.0053352 189.796,10.4319976 189.796,10.912 L189.796,16 L189.028,16 L189.028,10.912 C189.028,10.1333294 188.860002,9.54000204 188.524,9.132 C188.187998,8.72399796 187.708003,8.52 187.084,8.52 C186.806665,8.52 186.541335,8.57066616 186.288,8.672 C186.034665,8.77333384 185.810668,8.923999 185.616,9.124 C185.421332,9.324001 185.266667,9.57333184 185.152,9.872 C185.037333,10.1706682 184.98,10.5173314 184.98,10.912 L184.98,16 L184.22,16 L184.22,10.912 C184.22,10.1386628 184.065335,9.54666872 183.756,9.136 C183.446665,8.72533128 182.996003,8.52 182.404,8.52 C181.971998,8.52 181.572002,8.64933204 181.204,8.908 C180.835998,9.16666796 180.508001,9.52533104 180.22,9.984 L180.22,16 L179.46,16 Z M192.188,18.816 L192.188,8.04 L192.604,8.04 C192.673334,8.04 192.729333,8.05466652 192.772,8.084 C192.814667,8.11333348 192.838667,8.16533296 192.844,8.24 L192.916,9.472 C193.268002,8.9919976 193.679998,8.61066808 194.152,8.328 C194.624002,8.04533192 195.15333,7.904 195.74,7.904 C196.721338,7.904 197.483997,8.24266328 198.028,8.92 C198.572003,9.59733672 198.844,10.6133266 198.844,11.968 C198.844,12.5493362 198.768001,13.0919975 198.616,13.596 C198.463999,14.1000025 198.241335,14.5373315 197.948,14.908 C197.654665,15.2786685 197.293335,15.5706656 196.864,15.784 C196.434665,15.9973344 195.940003,16.104 195.38,16.104 C194.835997,16.104 194.366669,16.0053343 193.972,15.808 C193.577331,15.6106657 193.236001,15.3173353 192.948,14.928 L192.948,18.816 L192.188,18.816 Z M195.524,8.52 C194.995997,8.52 194.517335,8.65733196 194.088,8.932 C193.658665,9.20666804 193.278668,9.58933088 192.948,10.08 L192.948,14.256 C193.252002,14.714669 193.589331,15.0373324 193.96,15.224 C194.330669,15.4106676 194.753331,15.504 195.228,15.504 C195.697336,15.504 196.107998,15.4186675 196.46,15.248 C196.812002,15.0773325 197.106665,14.8360016 197.344,14.524 C197.581335,14.2119984 197.759999,13.8386688 197.88,13.404 C198.000001,12.9693312 198.06,12.4906693 198.06,11.968 C198.06,10.7839941 197.842669,9.91333612 197.408,9.356 C196.973331,8.79866388 196.345337,8.52 195.524,8.52 Z M202.924,16.128 C202.385331,16.128 201.965335,15.9786682 201.664,15.68 C201.362665,15.3813318 201.212,14.9200031 201.212,14.296 L201.212,8.856 L200.068,8.856 C200.009333,8.856 199.961334,8.84000016 199.924,8.808 C199.886666,8.77599984 199.868,8.73066696 199.868,8.672 L199.868,8.376 L201.228,8.28 L201.42,5.432 C201.425333,5.38399976 201.445333,5.34133352 201.48,5.304 C201.514667,5.26666648 201.561333,5.248 201.62,5.248 L201.98,5.248 L201.98,8.288 L204.484,8.288 L204.484,8.856 L201.98,8.856 L201.98,14.256 C201.98,14.4746678 202.008,14.6626659 202.064,14.82 C202.12,14.9773341 202.197333,15.1066662 202.296,15.208 C202.394667,15.3093338 202.510666,15.3839998 202.644,15.432 C202.777334,15.4800002 202.921333,15.504 203.076,15.504 C203.268001,15.504 203.433333,15.4760003 203.572,15.42 C203.710667,15.3639997 203.830666,15.302667 203.932,15.236 C204.033334,15.169333 204.116,15.1080003 204.18,15.052 C204.244,14.9959997 204.294666,14.968 204.332,14.968 C204.374667,14.968 204.417333,14.9946664 204.46,15.048 L204.668,15.384 C204.465332,15.6080011 204.208002,15.7879993 203.896,15.924 C203.583998,16.0600007 203.260002,16.128 202.924,16.128 Z M208.188,18.56 C208.156,18.634667 208.114667,18.6959998 208.064,18.744 C208.013333,18.7920002 207.94,18.816 207.844,18.816 L207.3,18.816 L208.7,15.704 L205.332,8.04 L205.964,8.04 C206.044,8.04 206.106666,8.0599998 206.152,8.1 C206.197334,8.1400002 206.230667,8.18399976 206.252,8.232 L208.932,14.424 C208.964,14.5040004 208.992,14.5853329 209.016,14.668 C209.04,14.7506671 209.062667,14.8346662 209.084,14.92 C209.110667,14.8346662 209.138667,14.7506671 209.168,14.668 C209.197333,14.5853329 209.228,14.5040004 209.26,14.424 L211.908,8.232 C211.934667,8.17333304 211.972,8.12666684 212.02,8.092 C212.068,8.05733316 212.121333,8.04 212.18,8.04 L212.764,8.04 L208.188,18.56 Z" transform="translate(29 124)"/>
    <g transform="translate(87 -4)">
      <path fill="#29292B" fill-rule="nonzero" d="M17.8271661,68.8157074 C13.7196785,69.316138 13.0532044,69.2830685 8.11366786,71.1907597 C-4.34032345,76.0005974 1.22848179,79.8839216 9.87903202,82.9023206 C15.1091342,84.7272375 21.0132441,86.546007 26.0309366,87.1790067 C30.2574319,87.712194 34.9063272,87.479117 39.4560048,87.8083259 C41.242562,87.9375989 43.538584,88.8943586 45.3425383,89.0018374 C56.6236791,89.6739628 67.6253173,88.9417338 77.8164743,86.6799838 C84.0041582,85.306735 95.5669554,82.5348187 96.7467752,78.0251492 C96.7479748,78.0205637 97.2390353,75.0276545 96.0912068,74.4647942 C92.3821613,72.6459905 88.4953271,70.9244346 84.3516444,69.4362745 C83.0333867,68.9628361 81.3720526,68.9077714 79.8822567,68.6435198 C71.6354473,68.0798528 65.4100351,67.6411964 61.2060203,67.3275504 C57.3842841,67.0424249 52.2312886,66.2085458 48.7135265,66.0499052 C42.4342777,65.7667298 32.1388242,66.6886639 17.8271661,68.8157074 Z" opacity=".5"/>
      <g transform="translate(13)">
        <path fill="#3A444F" fill-opacity=".5" stroke="#81BFF1" stroke-width="1.25" d="M24.3227722 15L51.6000061 15C51.2353487 16.7815894 51.05302 18.1149227 51.05302 19 51.05302 19.8850773 51.2353487 21.2184106 51.6000061 23L24.3227722 23C24.6966028 21.2915736 24.8835181 20.0110139 24.8835181 19.158321 24.8835181 18.3056281 24.6966028 16.9195211 24.3227722 15zM20.7095188 27.1581729C24.451655 29.5568535 26.8395457 31.6377905 27.8731909 33.4009839 31.5942287 39.7483352 30.2069096 45.6608675 33.4217336 49.6188734 34.4133696 50.8397492 36.4324224 52.5851824 39.478892 54.8551731L41.4427359 50.2198561C38.9226404 49.1130587 37.2433039 47.8511198 36.4047264 46.4340392 33.0754541 40.8080269 35.5316912 37.5720799 32.569974 33.4009839 31.5256957 31.9302881 28.5611371 28.8727421 23.6762981 24.2283458L20.7095188 27.1581729z"/>
        <g stroke="#81BFF1" stroke-width="1.25" transform="translate(39 46)">
          <path d="M12.4880197,23 C16.2067205,23 18.6401495,22.2345355 21.1132994,19.7392118 C21.9182803,18.9270136 23.8747104,17.0587774 24.3734135,16.1209574 C25.1842016,14.5962555 24.9760395,13.312158 24.9760395,11.5 C24.9760395,7.916499 23.0188552,5.05981533 20.2287948,2.95074507 C18.0738476,1.32177132 15.493586,0 12.4880197,0 C7.42109352,0 3.09026182,2.24998789 1.13213055,6.24308933 C0.424914251,7.68527376 0,9.81476953 0,11.5 C0,13.4987441 0.33379789,15.2354244 1.13213055,16.798336 C1.95695795,18.413117 3.27448099,19.8377134 5.03040852,20.8771411 C6.97542087,22.0284984 10.0040409,23 12.4880197,23 Z"/>
          <path fill="#2D2D30" d="M12.9558635,18.4 C15.1595381,18.4 16.6015701,17.9407213 18.0671404,16.4435271 C18.5441661,15.9562081 19.7035321,14.8352665 19.9990598,14.2725744 C20.4795269,13.3577533 20.3561715,12.5872948 20.3561715,11.5 C20.3561715,9.3498994 19.1963586,7.6358892 17.5429895,6.37044704 C16.2659838,5.39306279 14.7369398,4.6 12.9558635,4.6 C9.9532406,4.6 7.38682182,5.94999273 6.22644773,8.3458536 C5.80735659,9.21116426 5.55555556,10.4888617 5.55555556,11.5 C5.55555556,12.6992465 5.75336171,13.7412546 6.22644773,14.6790016 C6.71523434,15.6478702 7.49598873,16.502628 8.53653838,17.1262847 C9.68913829,17.817099 11.4838761,18.4 12.9558635,18.4 Z" opacity=".5"/>
        </g>
        <g transform="rotate(-59 43.802 -29.571)">
          <path stroke="#81BFF1" stroke-width="1.25" d="M12.5357143,25 C16.2686176,25 18.7113404,24.1679734 21.1939358,21.455665 C22.0019912,20.5728408 23.9658933,18.5421494 24.466501,17.5227798 C25.2803857,15.8654952 25.0714286,14.469737 25.0714286,12.5 C25.0714286,8.60489022 23.1067693,5.49979927 20.3060531,3.20733159 C18.1428757,1.43670796 15.5527594,0 12.5357143,0 C7.44943634,0 3.10206423,2.44563901 1.13645441,6.78596667 C0.426537094,8.35355844 0,10.6682278 0,12.5 C0,14.672548 0.335072739,16.5602439 1.13645441,18.2590609 C1.96443202,20.0142576 3.28698697,21.5627319 5.04962078,22.6925447 C7.00206157,23.94402 10.0422486,25 12.5357143,25 Z"/>
          <path stroke="#81BFF1" stroke-width="1.25" d="M12.5406138,19.9074074 C14.7527046,19.9074074 16.2002441,19.4143546 17.6714117,17.8070608 C18.1502593,17.2839057 19.3140532,16.080533 19.6107096,15.4764621 C20.0930117,14.4943675 19.9691852,13.6672515 19.9691852,12.5 C19.9691852,10.1917868 18.8049427,8.3517329 17.145259,6.99323354 C15.8633761,5.94397509 14.3284924,5.09259259 12.5406138,5.09259259 C9.52652314,5.09259259 6.95030263,6.54186015 5.78549681,9.11390617 C5.36480507,10.0428494 5.11204235,11.4145053 5.11204235,12.5 C5.11204235,13.7874358 5.31060397,14.9060704 5.78549681,15.9127768 C6.27615021,16.9528934 7.05988648,17.8705078 8.10441022,18.5400265 C9.26141217,19.2816415 11.0630045,19.9074074 12.5406138,19.9074074 Z"/>
          <path fill="#586472" d="M12.5444053,15.9664539 C13.5796003,15.9664539 14.2570072,15.7357194 14.9454714,14.983552 C15.1695583,14.7387305 15.7141804,14.1755866 15.8530071,13.8928988 C16.0787106,13.4333067 16.0207634,13.0462402 16.0207634,12.5 C16.0207634,11.4198225 15.4759313,10.5587301 14.699247,9.92299144 C14.0993626,9.43196861 13.3810811,9.03354606 12.5444053,9.03354606 C11.1338974,9.03354606 9.92830022,9.71176165 9.38320455,10.9154053 C9.18633289,11.3501241 9.0680472,11.9920197 9.0680472,12.5 C9.0680472,13.102483 9.16096834,13.6259719 9.38320455,14.0970816 C9.61281625,14.5838262 9.97958231,15.0132434 10.4683894,15.3265589 C11.0098331,15.6736134 11.8529266,15.9664539 12.5444053,15.9664539 Z" opacity=".5"/>
        </g>
        <g stroke="#81BFF1" stroke-width="1.25" transform="translate(0 7)">
          <path d="M12.4880197,23 C16.2067205,23 18.6401495,22.2345355 21.1132994,19.7392118 C21.9182803,18.9270136 23.8747104,17.0587774 24.3734135,16.1209574 C25.1842016,14.5962555 24.9760395,13.312158 24.9760395,11.5 C24.9760395,7.916499 23.0188552,5.05981533 20.2287948,2.95074507 C18.0738476,1.32177132 15.493586,0 12.4880197,0 C7.42109352,0 3.09026182,2.24998789 1.13213055,6.24308933 C0.424914251,7.68527376 0,9.81476953 0,11.5 C0,13.4987441 0.33379789,15.2354244 1.13213055,16.798336 C1.95695795,18.413117 3.27448099,19.8377134 5.03040852,20.8771411 C6.97542087,22.0284984 10.0040409,23 12.4880197,23 Z"/>
          <path d="M12.9558635,18.4 C15.1595381,18.4 16.6015701,17.9407213 18.0671404,16.4435271 C18.5441661,15.9562081 19.7035321,14.8352665 19.9990598,14.2725744 C20.4795269,13.3577533 20.3561715,12.5872948 20.3561715,11.5 C20.3561715,9.3498994 19.1963586,7.6358892 17.5429895,6.37044704 C16.2659838,5.39306279 14.7369398,4.6 12.9558635,4.6 C9.9532406,4.6 7.38682182,5.94999273 6.22644773,8.3458536 C5.80735659,9.21116426 5.55555556,10.4888617 5.55555556,11.5 C5.55555556,12.6992465 5.75336171,13.7412546 6.22644773,14.6790016 C6.71523434,15.6478702 7.49598873,16.502628 8.53653838,17.1262847 C9.68913829,17.817099 11.4838761,18.4 12.9558635,18.4 Z"/>
        </g>
      </g>
      <g transform="translate(0 35)">
        <path stroke="#81BFF1" stroke-width="1.125" d="M8.54770161,10.7136168 C9.10893859,7.31007778 10.369868,4.42091604 12.3942077,2.60236234 C14.6896611,0.52527779 19.2864184,-0.5625 23.7705425,-0.5625 C25.5285552,-0.5625 26.9667593,-0.0284911815 28.9791963,1.16183671 C29.1577566,1.2674526 29.3417736,1.37828135 29.5752691,1.52038657 C29.6554626,1.56919232 30.056673,1.81411595 30.1696791,1.88281413 C30.3302482,1.98042668 30.4676004,2.06330602 30.597196,2.14064586 C32.3043772,3.1481466 33.1294442,4.0104629 34.3113444,5.93594019 C34.5769764,5.86237506 34.847779,5.79700804 35.127411,5.73899268 C35.8741037,5.59918638 38.0531251,5.39077187 38.7737779,5.39077187 C40.6210748,5.39077187 41.8880277,5.87180272 43.2402216,6.96667393 C43.7048952,7.34292007 43.8258998,7.45514962 45.0282935,8.59835256 C47.2013005,10.7052115 48.5625,13.5280473 48.5625,16.2464238 C48.5625,16.865463 48.4241993,17.4100296 48.1350177,18.1251916 C48.1015958,18.2078458 48.0660915,18.2932799 48.0224381,18.3965689 C47.9657038,18.5302857 47.9657038,18.5302857 47.9094105,18.662618 C47.7043554,19.1458978 47.595889,19.4327861 47.5062612,19.7568194 C46.8527271,22.1195539 46.3938875,23.1988919 45.3036952,24.2840436 C43.8529662,25.728065 42.5483542,26.1055594 39.5989562,26.3658267 C38.9955326,26.4190753 38.742932,26.4433156 38.418891,26.4821919 C38.0556013,26.5257769 37.7325587,26.5755067 37.3714221,26.6450428 C31.1723801,27.2565306 26.5385061,27.5625 23.4625587,27.5625 C20.0300133,27.5625 14.9345053,27.2566976 8.08684566,26.6316567 C5.73403743,26.0562478 4.01026774,25.1012437 2.42078911,23.5751257 C0.339607743,21.5769055 -0.5625,20.2099482 -0.5625,18.3117456 C-0.5625,16.2991341 0.386359078,14.4804294 2.08845837,12.8461801 C2.91016787,12.057226 3.84754377,11.559963 4.98350326,11.2797996 C5.22584083,11.2200315 5.42127745,11.2233518 5.92947891,11.2613104 L5.9412596,11.2621901 C6.28135238,11.2875759 6.43324411,11.2909341 6.52498325,11.273417 C6.63893143,11.2516592 6.75928292,11.2022291 7.08666622,11.0477218 C7.17605619,11.0055858 7.21655468,10.9867063 7.27007687,10.9624792 C7.64411583,10.7931679 7.92006364,10.7080701 8.22140969,10.7080701 C8.33184934,10.7080701 8.43506459,10.709731 8.54770161,10.7136168 Z"/>
        <path fill="#3A444F" d="M7.27427897,25.2475547 C16.4521141,26.6310051 22.2176236,27.1953422 24.5708073,26.940566 C28.1005829,26.5584016 39.9172027,25.6944645 41.7665149,25.2475547 C43.615827,24.8006449 45.3817614,24.2863333 45.656315,23.2235114 C45.9308686,22.1606894 46.6920833,20.4560571 46.9223316,19.7495013 C47.1525798,19.0429455 47.9033287,17.0803274 47.9957769,16.331272 C48.088225,15.5822166 46.6373122,12.3914265 46.1468136,12.0212152 C45.656315,11.6510039 45.5530522,16.226966 43.9817822,17.8635817 C42.4105123,19.5001974 34.7819688,21.3887241 31.4517417,22.3061177 C28.1215146,23.2235114 10.5354316,22.3061177 10.2563428,22.3061177 C9.97725399,22.3061177 4.75654913,21.2148896 3.82857887,20.3574448 C3.20993204,19.7858149 2.26917021,18.6786119 1.00629339,17.0358356 C0.940242371,19.3423242 1.39411053,21.0990849 2.36789787,22.3061177 C3.34168521,23.5131505 4.97714557,24.4936295 7.27427897,25.2475547 Z" opacity=".5"/>
      </g>
    </g>
    <path fill="#8EA6BB" d="M242,139.744 C242,139.642666 242.018666,139.546667 242.056,139.456 C242.093334,139.365333 242.145333,139.286667 242.212,139.22 C242.278667,139.153333 242.356,139.1 242.444,139.06 C242.532,139.02 242.629333,139 242.736,139 C242.837334,139 242.933333,139.02 243.024,139.06 C243.114667,139.1 243.193333,139.153333 243.26,139.22 C243.326667,139.286667 243.38,139.365333 243.42,139.456 C243.46,139.546667 243.48,139.642666 243.48,139.744 C243.48,139.850667 243.46,139.948 243.42,140.036 C243.38,140.124 243.326667,140.201333 243.26,140.268 C243.193333,140.334667 243.114667,140.386666 243.024,140.424 C242.933333,140.461334 242.837334,140.48 242.736,140.48 C242.527999,140.48 242.353334,140.409334 242.212,140.268 C242.070666,140.126666 242,139.952001 242,139.744 Z"/>
  </g>
</svg>
