<svg xmlns="http://www.w3.org/2000/svg" width="390" height="164" viewBox="0 0 390 164">
  <g fill="none" fill-rule="evenodd">
    <rect width="390" height="164"/>
    <g transform="translate(1 3)">
      <g transform="translate(0 62)">
        <text fill="#163244" font-family="SegoeUI, Segoe UI" font-size="20">
          <tspan x="92.441" y="48">No remote servers yet?</tspan>
        </text>
        <text font-family="Lato-Light, Lato" font-size="16" font-weight="300">
          <tspan x="2.112" y="73" fill="#6189AA">Click “</tspan> <tspan x="44.528" y="73" fill="#00B190" font-family="Lato-Bold, Lato" font-weight="bold">+</tspan> <tspan x="53.808" y="73" fill="#6189AA">” to add a remote Git server (GitHub, GitLab, etc.)</tspan> <tspan x="86.004" y="92" fill="#6189AA">and then choose a repo to clone.</tspan>
        </text>
      </g>
      <path fill="#D5E5F3" fill-rule="nonzero" stroke="#81BFF1" stroke-width=".972" d="M36.4182186,9.7057669 C34.6728444,6.72989744 32.3053558,4.37389744 29.3151296,2.63723543 C26.3244584,0.900484848 23.0595369,0.0323310023 19.5180509,0.0323310023 C15.97701,0.0323310023 12.7110204,0.900750583 9.72097225,2.63723543 C6.73047903,4.37380886 4.3630794,6.72989744 2.61770522,9.7057669 C0.872598078,12.6815478 0,15.9311235 0,19.4544056 C0,23.6866667 1.2408464,27.4924242 3.72316228,30.8726527 C6.20521112,34.2531469 9.41165078,36.592317 13.3422142,37.8904289 C13.7997429,37.9749324 14.1384388,37.9154965 14.3586579,37.713627 C14.578966,37.5114918 14.6889865,37.2583357 14.6889865,36.9552214 C14.6889865,36.9046434 14.6846249,36.4496177 14.6761686,35.5896131 C14.6674453,34.7296084 14.6633507,33.979352 14.6633507,33.3391981 L14.0787999,33.4398228 C13.7061009,33.5077622 13.2359322,33.5365501 12.668294,33.5284009 C12.1009228,33.5205175 11.5119213,33.4613473 10.9020907,33.3513333 C10.291993,33.2422937 9.72453278,32.9894033 9.19926488,32.5931935 C8.67426401,32.1969837 8.30156503,31.678359 8.08125693,31.0381166 L7.82712376,30.4561585 C7.65773131,30.0687179 7.39104725,29.638317 7.02671553,29.1665501 C6.6623838,28.6943403 6.29395745,28.3742191 5.92125847,28.205655 L5.74332074,28.0788998 C5.62475493,27.994662 5.5147344,27.8930629 5.41299212,27.7751655 C5.31133885,27.6572681 5.23523242,27.5392821 5.18440578,27.4211189 C5.13349013,27.3028671 5.17568247,27.2058741 5.31142786,27.1297855 C5.44717325,27.053697 5.6924941,27.0167599 6.04845858,27.0167599 L6.5565469,27.092317 C6.8954208,27.1599021 7.31458477,27.3617716 7.81457287,27.6991655 C8.31429394,28.0362937 8.72509065,28.4745781 9.04705201,29.0138415 C9.43693058,29.7052821 9.90665414,30.2321445 10.4575579,30.5946946 C11.0080166,30.9572448 11.563015,31.1382098 12.1220189,31.1382098 C12.6810229,31.1382098 13.1638314,31.0960466 13.5706225,31.0121632 C13.9769686,30.9278368 14.3582128,30.8010816 14.7141773,30.6326061 C14.8666572,29.5025268 15.2818156,28.634373 15.9592963,28.0275245 C14.9936793,27.9265455 14.1255319,27.7744569 13.354409,27.5722331 C12.5837313,27.3697436 11.7873286,27.0411189 10.9657352,26.5854732 C10.1436967,26.1304476 9.46176531,25.5654079 8.91976289,24.8913287 C8.37767146,24.2168951 7.93278263,23.3314685 7.5857195,22.2358462 C7.23847834,21.1397809 7.06481325,19.8754172 7.06481325,18.4424009 C7.06481325,16.4020047 7.7341938,14.665697 9.07268786,13.2325035 C8.44567768,11.6985082 8.50487157,9.97885315 9.25044757,8.07371562 C9.74180138,7.9218042 10.4704648,8.0358042 11.4360819,8.41500699 C12.401877,8.79438695 13.1089992,9.11937995 13.5581607,9.3888345 C14.0073221,9.65820047 14.3672032,9.8864662 14.6383379,10.0715944 C16.2143197,9.6333986 17.840683,9.41425641 19.5178729,9.41425641 C21.1950628,9.41425641 22.8217822,9.6333986 24.3978529,10.0715944 L25.363559,9.46492308 C26.0239492,9.06012121 26.8037954,8.68915618 27.7012282,8.35193939 C28.5991951,8.01489977 29.2858442,7.92206993 29.7604635,8.07398135 C30.522596,9.97920746 30.5905132,11.6987739 29.963325,13.2327692 C31.30173,14.6659627 31.9713776,16.4027133 31.9713776,18.4426667 C31.9713776,19.875683 31.7970894,21.1440326 31.4503824,22.2485128 C31.1032302,23.3531702 30.6545138,24.237711 30.1040551,24.9039953 C29.5529733,25.5701911 28.8666802,26.1308019 28.0450868,26.5857389 C27.2233154,27.0410303 26.4266457,27.369655 25.6559679,27.5721445 C24.8849341,27.774634 24.0167867,27.9268112 23.0511697,28.0279674 C23.931868,28.786373 24.3723061,29.9835058 24.3723061,31.6188345 L24.3723061,36.9545128 C24.3723061,37.257627 24.478232,37.5106946 24.6902619,37.7129184 C24.9020247,37.9147879 25.2364479,37.9742238 25.6939766,37.8896317 C29.6250742,36.591697 32.8315138,34.2524382 35.3134737,30.8719441 C37.7951664,27.4917156 39.0364579,23.685958 39.0364579,19.453697 C39.0355678,15.9308578 38.1625246,12.6815478 36.4182186,9.7057669 Z" transform="translate(175.898 .813)"/>
      <g transform="translate(147 39.25)">
        <g fill="#EFF6FD" transform="translate(0 19.375)">
          <ellipse cx="20.276" cy="25.313" rx="20.276" ry="5.063"/>
          <ellipse cx="77.724" cy="25.313" rx="20.276" ry="5.063"/>
          <ellipse cx="48.437" cy="6.188" rx="24.782" ry="6.188"/>
        </g>
        <path fill="#D5E5F3" fill-rule="nonzero" stroke="#81BFF1" stroke-width=".972" d="M88.5492264,24.0022251 C88.8492851,24.0859972 89.0208974,24.2467075 89.0636879,24.4850171 C89.1062532,24.7227389 89.0703692,25.0375457 88.9564865,25.4290702 C88.842754,25.8203742 88.7851745,26.0794064 88.7851745,26.2053586 C88.6705411,26.5690325 88.5601116,27.1039248 88.4524598,27.8100357 C88.3453335,28.5164405 88.2451137,29.1040946 88.1521008,29.5726306 C88.0593881,30.0408727 87.8556454,30.5307192 87.5416985,31.0412148 C87.2270008,31.5511959 86.812684,31.9465416 86.2982975,32.2266638 C85.0697606,32.8978696 83.7158552,33.3980039 82.2368814,33.7264788 C80.7579076,34.0548068 79.3151181,34.2089769 77.9072366,34.1878869 C76.4998055,34.1670173 75.0603942,34.0377584 73.5887023,33.7998897 C72.9313056,33.6874586 72.34913,33.5619474 71.8418752,33.4218863 C71.3346956,33.2821191 70.7880286,33.0934114 70.2021745,32.8558366 C69.6163204,32.6179678 69.0949523,32.3133753 68.6377699,31.9432348 C68.1804374,31.5725799 67.8089861,31.1420352 67.5230407,30.6527032 C67.1657778,29.3098507 66.7585927,27.2678683 66.3013352,24.5265357 L66.4300069,24.1907859 L66.8158719,24.0022251 C70.0021853,26.071911 73.6209828,27.1072316 77.6717389,27.1072316 C81.7224198,27.1072316 85.3487245,26.071911 88.5492264,24.0022251 Z M92.4289707,3.84011147 C92.6571114,4.11971931 92.7757987,4.47670614 92.7824049,4.91041061 C92.7885607,5.34404159 92.7495238,5.721751 92.6637177,6.04339187 C92.2922664,8.3791645 91.4994415,12.9598097 90.2847928,19.7857683 C90.2134003,20.2052168 90.0204678,20.5967412 89.7062206,20.9603416 C89.3922737,21.3239421 89.0809542,21.6036234 88.7736886,21.7998265 C88.466423,21.9956622 88.0774051,22.2125145 87.6060343,22.4498688 C84.0054791,24.2124638 79.6467818,24.8273806 74.5315941,24.2962359 C70.9880928,23.918453 68.1732306,22.9464759 66.0870075,21.3797901 C65.8726048,21.2126133 65.6905576,21.0267715 65.5404156,20.8241017 C65.3904237,20.621138 65.2688838,20.3767292 65.176021,20.0895524 C65.0832332,19.8028901 65.0189724,19.5649479 64.9832386,19.3758727 C64.9474298,19.1872385 64.9046393,18.9108639 64.8545669,18.5470431 C64.8045696,18.1831487 64.7653826,17.9387398 64.7367805,17.8127142 C64.6081088,17.1135844 64.419005,16.0644487 64.1687934,14.6656012 C63.9186568,13.2668272 63.7186676,12.1374466 63.5687509,11.2773861 C63.418759,10.4172522 63.2510504,9.38567925 63.0650245,8.18288788 C62.8789985,6.97994954 62.7218749,5.87511278 62.5935786,4.86793667 C62.6364441,4.50426277 62.7612872,4.16520611 62.9686333,3.85047276 C63.1759794,3.53573941 63.4008921,3.27347387 63.6436717,3.0638231 C63.8866015,2.85402536 64.2082807,2.64422763 64.6084091,2.43442989 C65.0086877,2.22455867 65.3371233,2.06722874 65.5943916,1.96236661 C65.851735,1.857431 66.1945092,1.72817208 66.6233147,1.5743694 C68.4095541,0.930793712 70.6456189,0.48334768 73.3315841,0.231737365 C78.7466805,-0.285959678 83.5765234,0.0637522065 87.8205872,1.28072605 C90.0351066,1.92422825 91.5713596,2.77738122 92.4289707,3.84011147 Z M81.3684601,19.3861605 C82.240635,18.3232098 82.5974474,17.1485629 82.4400986,15.861779 C82.2402596,14.3651238 81.4324956,13.2181805 80.0180079,12.4209491 C78.603445,11.6236443 77.1963893,11.5327441 75.79609,12.1482488 C74.8959136,12.5399203 74.1780097,13.1587317 73.6420778,14.0049037 C73.1061459,14.8510756 72.8596128,15.7566964 72.9025534,16.7218395 C72.9596073,17.9947349 73.513331,19.0788491 74.5635743,19.9738881 C75.6138176,20.8690741 76.7959606,21.2605986 78.1102286,21.1487554 C79.4105334,21.0363979 80.4965104,20.4491847 81.3684601,19.3861605 Z M85.9552231,5.46624601 C86.6126949,5.22176368 87.1487769,4.89615465 87.5631688,4.49044771 C87.2778239,4.11295875 86.8773201,3.80167917 86.3629336,3.55697638 C85.8486222,3.31242056 85.4344555,3.15832394 85.1200582,3.09549484 C84.8056608,3.03251878 84.2984812,2.94514592 83.5981438,2.8332293 C79.4401113,2.17576508 75.396487,2.1897271 71.4669707,2.87511537 C70.8526647,2.97306997 70.3809936,3.05691558 70.0524078,3.12694613 C69.7238221,3.19697669 69.3307503,3.35077938 68.873643,3.58842767 C68.4163856,3.82614945 68.0591227,4.12692078 67.8018544,4.49044771 C68.2303596,4.88226611 68.7733482,5.20023277 69.4307449,5.44508253 C70.0881416,5.69000577 70.6132633,5.84380846 71.0060347,5.90656407 C71.3989563,5.9696871 72.0241476,6.0502994 72.8814584,6.148254 C76.1390143,6.55374048 79.3396663,6.56064801 82.4837148,6.169344 C83.3838912,6.05698647 84.0230457,5.97306738 84.4017789,5.91714581 C84.7799115,5.86129772 85.2978263,5.7109488 85.9552231,5.46624601 Z M79.4717162,14.8860542 C79.8642625,15.2988156 80.0610236,15.7708789 80.0610986,16.302391 C80.175657,17.1835415 79.8147907,17.8901667 78.9790253,18.4213114 C78.1425842,18.95275 77.3464562,18.9950035 76.5892151,18.5471165 C76.031888,18.3093948 75.6498517,17.9038348 75.4425056,17.3304366 C75.2351595,16.7566711 75.2317813,16.1831259 75.4316953,15.6096543 C75.6319848,15.0361826 76.0034361,14.6306962 76.5464246,14.3929009 C77.0609612,14.1410701 77.5786508,14.0572245 78.1000189,14.1410701 C78.621387,14.2250627 79.0789448,14.4732927 79.4717162,14.8860542 Z"/>
        <path fill="#D5E5F3" fill-rule="nonzero" stroke="#81BFF1" stroke-width=".972" d="M20.2633393,36.0583762 L2.81891689,23.2402116 C2.33768972,22.8865564 2.13634682,22.2597371 2.32018701,21.6875692 L4.33566402,15.4137718 L4.33552321,15.4139142 L20.263098,36.0580634 L13.6307387,15.4139142 L26.8957991,15.4139142 L20.2633393,36.0583762 L20.2631985,36.0583762 L20.2633393,36.0583762 Z M4.33566402,15.4139142 L8.33029045,2.97981606 C8.53572436,2.34013252 9.43067839,2.33999011 9.6362531,2.97981606 L13.6307387,15.4139142 L4.33566402,15.4139142 Z M36.1910146,15.4137718 L38.2064916,21.6875692 C38.390302,22.259768 38.1889,22.8865946 37.7076209,23.2402116 L20.2633393,36.0583762 L36.1910146,15.4139142 L36.1910146,15.4137718 Z M36.1910146,15.4139142 L26.8957991,15.4139142 L30.8904255,2.97981606 C31.0960002,2.33999011 31.9909542,2.34013252 32.1963882,2.97981606 L36.1910146,15.4139142 Z" stroke-linejoin="round"/>
      </g>
    </g>
  </g>
</svg>
