<svg xmlns="http://www.w3.org/2000/svg" width="210" height="320" viewBox="0 0 210 320" xmlns:xlink="http://www.w3.org/1999/xlink">
  <defs>
    <rect id="a" width="210" height="320"/>
    <path id="c" d="M113.230219,12.8755616 C111.500419,24.2397357 110.943104,30.8868643 111.928027,42.3861757 C112.91295,53.8854871 115.8698,62.9236869 120.861426,71.9742696 C129.568623,87.7621321 136.003092,108.359788 134.152216,105.749953 C131.298986,105.360524 126.381814,102.790755 123.496668,102.944106 C123.496668,102.944106 126.859414,105.958936 129.321593,118.178236 C131.784061,130.397824 130.882632,146.868844 130.882632,146.868844 C130.882632,146.868844 142.9474,156.017393 134.00471,158.639624 C125.062594,161.261566 122.29735,156.432476 122.29735,156.432476 C122.29735,156.432476 122.639232,167.353488 113.711781,166.731728 C104.78433,166.109968 105.126212,159.375243 105.126212,159.375243 C105.126212,159.375243 104.451362,167.423822 96.5406427,166.731728 C88.6302105,166.039635 88.7357366,160.110863 88.7357366,160.110863 C88.7357366,160.110863 84.4499966,168.661289 76.2477143,165.260489 C68.0457195,161.859689 77.346681,152.460937 76.2477143,140.983598 C75.1490352,129.50626 71.408178,127.9938 66.8817695,124.063481 C65.2529291,122.649055 44.5496972,103.825932 33.3372892,82.5937626 C22.1248811,61.3615936 18.564294,24.9227061 19.1674605,22.6610127"/>
  </defs>
  <g fill="none" fill-rule="evenodd">
    <mask id="b" fill="white">
      <use xlink:href="#a"/>
    </mask>
    <g transform="translate(-7 10)" mask="url(#b)">
      <path stroke="#D9EBFA" stroke-width="4" d="M155.708806,56.4792919 C155.235931,56.4792919 154.768509,56.5033947 154.304817,56.5412706 C153.593784,48.9890552 148.502925,42.7137152 141.596607,40.2804786 C141.608372,39.9814889 141.615832,39.6816384 141.615832,39.3800663 C141.615832,26.6153302 131.267977,16.2677622 118.503241,16.2677622 C115.519657,16.2677622 112.668638,16.8330306 110.050327,17.8625651 C104.52533,7.30954929 94.1326491,-1.05219269 80.734704,0.107685557 C62.5941931,1.67813414 47.6630593,14.9142744 47.6630593,33.1790433 C47.6630593,37.6977472 48.5703581,42.0041168 50.2110712,45.9274238 C38.5372745,49.3009571 30,60.0663073 30,72.8270262 C30,88.2898428 42.5348985,100.825028 57.9980021,100.825028 C58.8926756,100.825028 59.7770194,100.78084 60.6504595,100.698775 C64.7614241,103.84161 69.89848,105.710152 75.4731168,105.710152 C80.6032862,105.710152 85.3633053,104.127401 89.2937857,101.42559 C91.8607355,102.722551 94.7608207,103.455678 97.8336426,103.455678 C104.731926,103.455678 110.769394,99.7748342 114.092139,94.2704973 C117.850457,97.1998501 122.57633,98.9458695 127.71109,98.9458695 C135.800167,98.9458695 142.876639,94.6131016 146.749158,88.1420696 C149.354557,89.748924 152.422502,90.6780301 155.708806,90.6780301 C165.151944,90.6780301 172.808031,83.02223 172.808031,73.5785175 C172.808031,64.1348051 165.151944,56.4792919 155.708806,56.4792919 Z"/>
      <g transform="translate(0 31)">
        <g transform="translate(0 110)">
          <g stroke-linejoin="round" transform="scale(1 -1) rotate(-12 -776.421 0)">
            <use fill="#FFFFFF" xlink:href="#c"/>
            <path stroke="#297BCC" stroke-width="2.972" d="M126.772412,105.029645 C127.234466,105.171409 127.743577,105.338876 128.306658,105.532929 C128.50967,105.602892 128.719468,105.675957 128.990587,105.770941 C131.473232,106.640712 132.464585,106.964612 133.439161,107.141717 C133.776019,107.400141 134.178949,107.543541 134.718248,107.426731 C135.432938,107.271931 135.778714,106.779013 135.906347,106.234058 C135.954121,106.03008 135.964039,105.838558 135.954336,105.627315 C135.932211,105.145642 135.783557,104.418844 135.517632,103.413602 C134.999168,101.453723 134.053906,98.5365043 132.863242,95.2544 C129.899776,87.0855058 126.084816,78.3677919 122.16286,71.256513 C117.073186,62.0281548 114.342172,53.1562672 113.408844,42.2593428 C112.502145,31.6733218 112.823542,25.4238141 114.699534,13.0992135 L114.988874,11.1983475 L113.076434,11.3973007 L19.0136754,21.1827518 L17.9952568,21.288699 L17.7314125,22.2780359 C17.2498847,24.0836208 18.4052897,35.1587136 20.3598282,45.7823834 C23.0676162,60.5002534 26.9735896,73.7259772 32.0230497,83.2877939 C37.0235131,92.756829 44.185087,102.403377 52.5985104,111.754356 C55.625813,115.119008 58.6353166,118.240626 61.4904432,121.035059 C63.3961329,122.900238 65.1076226,124.491262 65.9072994,125.185672 C66.3084114,125.533961 66.707468,125.868247 67.2401609,126.30565 C67.3812082,126.421467 67.8583188,126.811904 67.872042,126.823149 C68.1172372,127.024057 68.3013561,127.175844 68.4779803,127.323067 C72.5163262,130.689167 74.042082,133.539433 74.7682389,141.125223 C75.0919589,144.506075 74.5649602,147.585639 73.1619038,152.326047 C71.4623081,158.068352 71.35772,158.477332 71.3484903,160.404344 C71.3345832,163.307942 72.7063866,165.401076 75.6784665,166.633392 C80.3844771,168.58458 84.4329159,167.330175 87.5852728,164.128038 C87.7880037,163.922106 87.9796782,163.716252 88.160379,163.512141 C88.3021771,163.778813 88.4617085,164.041793 88.6401085,164.299679 C90.1460344,166.47657 92.707154,167.888248 96.4111047,168.212311 C100.489871,168.569154 103.372629,166.936835 105.091183,164.0499 C106.705273,166.421116 109.50873,167.928842 113.608521,168.214375 C118.333493,168.54345 121.36166,166.128835 122.83142,162.104783 C123.136678,161.269018 123.360647,160.400035 123.515992,159.518898 C126.134548,161.072525 129.755236,161.434434 134.422888,160.065818 C138.70686,158.809646 139.751892,155.820796 137.95118,152.408012 C137.317747,151.207505 136.361718,149.977797 135.166399,148.731541 C134.426661,147.960279 133.638609,147.228271 132.850684,146.556122 C132.688759,146.41799 132.538648,146.292288 132.402313,146.179921 C132.418171,145.799503 132.433859,145.373147 132.448654,144.904341 C132.638368,138.893075 132.536795,132.224734 131.928646,125.91449 C131.64849,123.00754 131.26869,120.316907 130.778543,117.884634 C130.27632,115.392203 129.713984,113.159131 129.101243,111.170841 C128.325659,108.654136 127.497503,106.611697 126.651057,104.992676 L126.772412,105.029645 Z"/>
          </g>
          <path fill="#E6F9FF" d="M112.394978,27.2432187 C112.394978,27.2432187 112.179254,69.1672858 118.819879,82.6475554 C125.460505,96.1278249 134.431834,121.853587 134.431834,121.853587 L124.582813,118.679036 C124.582813,118.679036 130.264928,132.076093 130.264928,138.129808 C130.264928,144.183524 131.30305,160.777546 131.30305,160.777546 C131.30305,160.777546 137.519195,166.967873 137.519195,169.971443 C137.519195,172.975013 133.099027,175.209725 129.210847,175.209725 C125.322667,175.209725 121.091202,170.508393 121.091202,170.508393 C121.091202,170.508393 122.231718,172.640663 122.215012,172.939048 C122.198307,173.237433 119.797833,181.50328 113.931719,182.213207 C107.149683,183.033981 104.286294,176.742766 104.286294,176.742766 C104.286294,176.742766 102.907206,181.797249 96.5410125,182.213207 C90.1748192,182.629166 87.8493369,176.054131 87.8493369,176.054131 C87.8493369,176.054131 84.413751,181.349398 79.6386982,181.349398 C73.4830181,181.349398 71.8949081,177.49093 71.8949081,176.742766 C71.8949081,175.994602 78.6055694,178.231035 81.3604248,171.807502 C82.8438825,168.348504 87.8493369,172.939048 87.8493369,172.939048 C87.8493369,172.939048 90.0039542,178.907865 92.6325381,179.123967 C95.2611221,179.34007 95.398284,174.048577 98.0517411,171.807502 C102.588172,167.97609 104.286294,174.389641 104.286294,174.389641 C104.286294,174.389641 104.511295,176.480843 108.713401,175.331048 C112.915506,174.181253 107.846299,157.634089 107.846299,157.634089 L121.091202,169.971443 C121.091202,169.971443 127.112788,170.000529 128.211511,167.070599 C129.310234,164.14067 125.106044,161.304304 125.106044,161.304304 C125.106044,161.304304 117.452529,111.178784 89.9287201,91.8646538 C78.6674856,83.96237 58.9904853,79.3410812 46.1677706,69.4686825 C33.3450559,59.5962838 17.4579673,36.5899979 17.4579673,36.5899979 C17.4579673,36.5899979 19.9061873,11.4269421 22.5893606,11.1627772 C25.2725339,10.8986123 112.394978,27.2432187 112.394978,27.2432187 Z" style="mix-blend-mode:darken" transform="scale(1 -1) rotate(-12 -842.772 0)"/>
          <path fill="#BBE0EC" d="M55.1353521,27.4270345 C55.1353521,27.4270345 57.1471056,39.1557996 76.348975,43.4662867 C95.5508445,47.7767737 98.8372833,40.8296005 98.8372833,40.8296005 C98.8372833,40.8296005 93.234596,49.4859503 105.804684,55.6169951 C118.374772,61.7480399 137.216297,65.7949681 137.216297,65.7949681 C137.216297,65.7949681 130.174449,61.1345947 121.965522,55.6169951 C113.756594,50.0993954 112.380905,50.7952282 109.817582,47.5674785 C101.919251,37.6218588 105.484731,25.8231004 105.804684,22.6840963 C106.441798,16.4334716 100.72507,15.0986339 100.72507,15.0986339 L64.4024244,16.5770354 L55.1353521,27.4270345 Z" style="mix-blend-mode:darken" transform="matrix(-1 0 0 1 192.352 0)"/>
        </g>
        <g transform="translate(76)">
          <path fill="#297BCC" d="M123.651513,83.2692319 C123.651513,83.2692319 122.633801,78.2330951 122.560443,77.8674981 C122.761919,76.8487909 122.884871,75.8243954 122.887454,74.7912091 C122.887454,67.1162586 117.51786,62.1938859 116.905166,61.6581597 L114.850627,59.8606844 L112.862731,61.7305551 C108.003542,66.3049125 98.6054613,72.0851711 92.2486347,75.7732015 C92.3514391,74.5879848 92.4160148,73.3732928 92.4160148,72.1115437 C92.4160148,49.4512548 74.5533579,31.0152395 52.5960886,31.0152395 L52.5315129,31.0167909 C52.5315129,31.0167909 52.0169742,31.0307529 51.5189668,31.0441977 C46.2320295,27.186038 38.0934317,19.7210342 38.0934317,10.2987681 L38.1760886,8.64918631 L39.0129889,0.255452471 L34.3619926,5.13955894 L33.197048,6.3620076 C32.4190406,7.17955894 25.5957196,14.5856122 25.5957196,22.6194373 C25.5957196,23.9292776 25.7791144,25.2003346 26.1417712,26.3989962 C27.2886347,30.1925171 30.195572,33.197962 34.7726937,35.3915437 C21.4122509,42.2623878 12.7756458,56.3365779 12.7756458,72.1115437 C12.7756458,81.8900989 16.3453875,89.3395894 23.3019926,94.3498707 C21.0294465,100.380411 18.7930627,103.110753 17.5774908,104.245293 C16.3319557,103.418951 15.2543173,102.53676 14.3321771,101.539772 C13.0494465,100.152365 12.0255351,98.7566844 11.2893727,97.3904791 C10.4209594,95.7812319 9.90900369,93.9506616 9.40634686,91.6955437 L9.33402214,91.3883802 L7.5801476,83.2211407 L3.84302583,90.0687148 C3.30265683,91.0858707 0,97.5714677 0,104.08654 C0,107.00511 0.662804428,109.929886 2.53291513,112.371681 C3.20243542,113.24508 4.05948339,113.990753 5.00745387,114.659894 C7.43756458,122.400517 10.9339483,127.140867 15.4284133,128.696852 C20.4642804,130.439513 24.4736531,127.559209 24.9153506,127.224122 C24.9153506,127.224122 26.1004428,126.326935 26.7115867,125.863605 C27.9354244,126.101475 29.1267159,126.101992 30.2771956,125.822236 C30.3830996,125.79638 30.4817712,125.750357 30.5861255,125.720365 C30.6553506,130.170616 31.1177122,133.637323 34.2576384,135.291042 C36.024428,136.222357 38.8528413,135.977764 40.7327675,135.255878 C41.3754244,135.0087 41.9338745,134.683437 42.4318819,134.312669 C44.1805904,134.872183 46.5078967,134.648791 48.1481181,134.018951 C50.3917343,133.157445 51.3216236,131.728669 51.7070111,130.683072 C51.8630258,130.259042 51.9348339,129.841217 51.9348339,129.425977 C51.9348339,127.524563 50.4315129,125.662966 48.6146125,123.413019 C48.1191882,122.798692 47.2549077,121.725688 46.7160886,120.936061 C48.3113653,119.476776 49.7294465,117.635863 50.9083395,115.450038 C59.6994096,119.990266 69.6518081,121.177551 70.1059041,121.229262 C70.1059041,121.229262 73.1931365,121.582449 74.2123985,121.699316 C76.896679,123.42543 79.6744649,124.473612 82.5374908,124.773019 C91.459262,125.707437 97.6146125,119.28803 97.8723985,119.013962 C97.8723985,119.013962 99.1515129,117.653962 99.2915129,117.505034 C101.343469,117.450221 103.317934,117.149262 105.183395,116.527179 C112.602362,114.052289 115.640517,108.137582 115.962878,107.471544 C115.962878,107.471544 118.46738,102.286996 118.521624,102.1753 C118.973653,101.745065 119.401919,101.288973 119.803838,100.804958 C123.304354,96.5915437 124.038967,91.3790722 124.038967,87.747924 C124.038967,85.3154373 123.716089,83.5898403 123.651513,83.2692319 Z"/>
          <path fill="#FFFFFF" d="M47.6165314,77.0054753 C47.6165314,77.0054753 70.8808118,87.0343118 86.2513653,82.5840608 C86.2513653,82.5840608 106.563764,71.7950722 114.923985,63.9256882 C114.923985,63.9256882 127.64797,75.0642433 112.309963,88.3684563 C112.309963,88.3684563 116.774982,87.9128821 120.701181,83.8659772 C120.701181,83.8659772 124.895498,104.626403 102.824059,104.271665 C102.824059,104.271665 106.951734,107.324167 113.253284,106.160152 C113.253284,106.160152 105.858081,121.468167 85.0528413,110.702966 C85.0528413,110.702966 88.5311439,115.905612 95.681476,116.947589 C95.681476,116.947589 80.7138745,132.855452 65.2121033,107.376395 C65.2121033,107.376395 66.5154982,114.051772 70.4468635,118.235711 C70.4468635,118.235711 21.4680443,112.635407 47.6165314,77.0054753 Z"/>
          <path fill="#C6F1FF" d="M43.3746863,120.509445 C43.3746863,122.706646 49.535203,128.089247 48.9535055,129.666951 C48.1961624,131.722464 44.181107,132.055483 43.0399262,131.454601 C40.9197786,130.33816 40.9197786,127.131042 40.9197786,122.072669 C40.9197786,117.014297 40.759631,113.137521 43.0399262,113.137521 C45.3202214,113.137521 43.3746863,115.451072 43.3746863,120.509445 Z"/>
          <path fill="#C6F1FF" d="M35.9588192,121.746373 C35.9588192,123.943574 42.1193358,129.326692 41.5376384,130.904913 C40.7808118,132.958357 36.7657565,133.292928 35.624059,132.692046 C33.5039114,131.575087 33.5039114,128.367452 33.5039114,123.309597 C33.5039114,118.252259 33.3437638,114.374966 35.624059,114.374966 C37.9043542,114.374966 35.9588192,116.688517 35.9588192,121.746373 Z"/>
          <path fill="#FFFFFF" d="M54.8242066,91.7958631 L48.9535055,87.7753308 C48.5748339,88.4723954 48.1713653,89.1586008 47.762214,89.8380837 C46.7067897,91.589019 45.5604428,93.286692 44.3960148,94.965749 C42.8467159,97.2012167 41.2209594,99.3777338 39.3973432,101.397567 C37.4554244,103.549779 35.3838376,105.64511 33.1707011,107.518601 C31.0743173,109.293323 28.8410332,110.470266 26.1205904,110.914464 C25.9046494,110.949627 25.4484871,111.112 25.2423616,111.048395 C23.6202214,110.549901 21.9856827,109.927817 20.4472325,109.208 C19.0172694,108.538342 17.6343173,107.745612 16.3045756,106.895483 C14.8002214,105.933141 13.4219188,104.821871 12.2068635,103.507894 C10.8812546,102.074981 9.6698155,100.489004 8.74095941,98.7670266 C7.65453875,96.7539163 7.07490775,94.547924 6.58,92.3269354 C6.51542435,92.0368365 6.43483395,91.7451863 6.38730627,91.4519848 C6.38730627,91.4519848 -9.59594096,121.569521 27.0081181,113.147863 C28.0278967,114.736426 29.5131365,116.782631 29.6422878,116.924837 C38.6523985,126.834221 47.280738,119.418342 50.3374908,109.210586 C50.9868635,107.042342 55.6254613,92.3450342 54.8242066,91.7958631 Z"/>
          <path fill="#C6F1FF" d="M31.3894465,118.636471 C39.5972694,125.728639 47.1985978,119.008791 50.1773432,109.726662 C41.7680443,111.194221 34.9447232,114.456152 31.3894465,118.636471 Z"/>
          <path fill="#297BCC" stroke="#297BCC" d="M48.4446494,87.4986768 L47.2657565,89.5381597 C46.1550554,91.3811407 44.9513653,93.1491407 43.9202214,94.6353156 C42.1105535,97.2451711 40.5364576,99.270692 38.9675277,101.009217 C36.7972694,103.413262 34.7783764,105.397932 32.7961624,107.075954 C30.6383026,108.902905 28.4871587,109.940745 26.0270849,110.342023 L25.7414022,110.406662 C25.7414022,110.406662 25.398893,110.475437 25.3725461,110.480091 C23.7467897,109.979011 22.1726937,109.375027 20.6926199,108.683133 C19.3918081,108.073977 18.0584502,107.329338 16.6166052,106.406814 C15.0683395,105.416548 13.7654613,104.339924 12.6325461,103.114373 C11.2175646,101.584243 10.08,100.029293 9.25084871,98.491924 C8.25690037,96.6484259 7.6901845,94.6435894 7.14568266,92.2007605 L7.0795572,91.9184183 L6.62546125,89.8060228 L5.87586716,91.1794677 C5.59741697,91.7043346 -0.880811808,104.104122 4.37151292,110.95997 C7.78420664,115.414357 15.31631,116.361186 26.7394834,113.795285 C27.7318819,115.309384 29.0580074,117.143057 29.2135055,117.315255 C33.6671587,122.213323 37.662583,122.544791 40.2306273,121.960456 C44.7938007,120.922099 48.8791144,116.100563 50.8928413,109.377612 L51.2585978,108.178951 C56.2123247,92.044076 55.6972694,91.6908897 55.1517343,91.317019 L48.7654613,86.9438175 L48.4446494,87.4986768 Z M26.0250185,111.531376 L26.2135793,111.486905 C28.8901107,111.04943 31.2194834,109.929369 33.5447232,107.961247 C35.5667159,106.249612 37.6217712,104.229779 39.8271587,101.786433 C41.4301845,100.009643 43.0332103,97.947924 44.8723247,95.2966996 C45.9132841,93.7955285 47.1309225,92.0078783 48.258155,90.1380076 C48.258155,90.1380076 48.7856089,89.2247909 49.1420664,88.6073612 C52.4452399,90.8697186 53.7744649,91.7782814 54.337048,92.1366388 C54.3401476,92.1681825 54.3453137,92.194038 54.3453137,92.2364411 C54.3453137,93.1698251 53.5564576,96.7461597 50.1509963,107.837658 L49.7826568,109.044076 C47.8887823,115.367817 44.1304797,119.883741 39.9738745,120.829536 C36.7228782,121.569521 33.2983026,120.08438 30.0710701,116.533901 C29.9372694,116.3767 28.5176384,114.426677 27.4957934,112.833977 L27.275203,112.491133 L26.8784502,112.582144 C15.7078967,115.1527 8.44546125,114.369795 5.29158672,110.256183 C3.97579336,108.538342 3.49690037,106.379407 3.49690037,104.146525 C3.49690037,99.9294905 5.20066421,95.4647605 6.19616236,93.2122281 C6.71225092,95.4058099 7.28361624,97.2860228 8.23107011,99.0426464 C9.10671587,100.66689 10.301107,102.301475 11.782214,103.902449 C12.9828044,105.200913 14.3600738,106.340106 15.9925461,107.383635 C17.477786,108.333567 18.8545387,109.10251 20.201845,109.733384 C21.7428782,110.454236 23.3815498,111.083559 25.0723985,111.602738 C25.3730627,111.695817 25.7191882,111.607909 26.0250185,111.531376 Z M54.4971956,92.2741901 C54.4971956,92.2741901 54.4661993,92.2343726 54.440369,92.2012776 C54.5281919,92.255057 54.5948339,92.2948745 54.6433948,92.3202129 C54.5710701,92.2974601 54.4971956,92.2741901 54.4971956,92.2741901 Z" stroke-linecap="round" stroke-linejoin="round"/>
          <path fill="#FFFFFF" d="M52.5960886,33.9136426 C51.9317343,33.9136426 51.2715129,33.9327757 50.615941,33.9689734 C44.4543911,29.6371407 34.0876753,20.4589506 35.2944649,8.36063878 C35.2944649,8.36063878 15.6567528,28.986616 43.1308487,35.1826312 C27.3242804,39.5072243 15.6717343,54.4005171 15.6717343,72.1115437 C15.6717343,93.2075741 33.2848708,98.8657947 53.6773432,98.8657947 C74.0703321,98.8657947 89.5204428,93.2075741 89.5204428,72.1115437 C89.5204428,51.0155133 72.9890775,33.9136426 52.5960886,33.9136426 Z"/>
          <path fill="#297BCC" stroke="#297BCC" d="M34.8749815,7.96039544 C34.5526199,8.29910266 27.9121771,15.3685171 27.9121771,22.6194373 C27.9121771,23.6583118 28.0485609,24.7008061 28.3590406,25.72727 C29.6861993,30.1159848 33.9776384,33.3003498 41.0571956,35.2395133 C25.6794096,40.373384 15.0921033,55.2304791 15.0921033,72.1115437 C15.0921033,82.0679848 19.0095203,89.3985399 26.7358672,93.9005019 C33.0492989,97.5802586 42.1141697,99.4459924 53.6773432,99.4459924 C78.5260517,99.4459924 90.1000738,90.7600913 90.1000738,72.1115437 C90.1000738,50.7300684 73.2757934,33.333962 52.5960886,33.333962 C52.5960886,33.333962 51.1351292,33.3748137 50.7962362,33.3841217 C44.9823616,29.2684411 35.7769742,21.0531103 35.7769742,10.2987681 C35.7769742,9.68030418 35.8074539,9.05304943 35.8709963,8.41803802 L36.0383764,6.73846388 L34.8749815,7.96039544 Z M27.3185978,92.8978251 C19.9745387,88.6182205 16.2508487,81.6253384 16.2508487,72.1115437 C16.2508487,55.0525932 27.3671587,40.09673 43.2837638,35.7416274 L47.2001476,35.0093992 L43.2584502,34.6169125 C35.4261993,32.8504639 30.7865683,29.7472852 29.4687085,25.3932167 C29.1964576,24.4949962 29.0766052,23.5755741 29.0766052,22.6525323 C29.0766052,17.5465856 32.7512177,12.3485932 34.6321771,10.0210798 C34.6306273,10.1151939 34.6177122,10.2118935 34.6177122,10.3049734 C34.6177122,21.6658859 44.2880443,30.2292319 50.2832472,34.4431635 L50.4397786,34.5538251 L52.5960886,34.4938403 C72.6372694,34.4938403 88.9413284,51.3692167 88.9413284,72.1115437 C88.9413284,81.8518327 85.6686347,88.6549354 78.9367528,92.9092015 C73.2117343,96.5269049 64.9491513,98.285597 53.6773432,98.285597 C42.3213284,98.285597 33.4527675,96.4731255 27.3185978,92.8978251 Z" stroke-linecap="round" stroke-linejoin="round"/>
          <path fill="#FFFFFF" d="M49.4463469,74.9075589 C49.4463469,84.3820532 44.1754244,92.0621749 37.6723985,92.0621749 C31.1698893,92.0621749 25.8979336,84.3820532 25.8979336,74.9075589 C25.8979336,65.4335817 30.9999262,59.5860989 37.502952,59.5860989 C44.0054613,59.5860989 49.4463469,65.4335817 49.4463469,74.9075589 Z"/>
          <path fill="#297BCC" stroke="#297BCC" d="M25.2805904,74.9075589 C25.2805904,84.7078327 30.839262,92.6806388 37.6723985,92.6806388 C44.5055351,92.6806388 50.0647232,84.7078327 50.0647232,74.9075589 C50.0647232,65.6714525 44.7814022,58.967635 37.502952,58.967635 C30.3061255,58.967635 25.2805904,65.5225247 25.2805904,74.9075589 Z M26.51631,74.9075589 C26.51631,66.2500989 31.0340221,60.2050798 37.502952,60.2050798 C44.0653875,60.2050798 48.8284871,66.3881673 48.8284871,74.9075589 C48.8284871,84.0257643 43.8241328,91.4431939 37.6723985,91.4431939 C31.5211808,91.4431939 26.51631,84.0257643 26.51631,74.9075589 Z" stroke-linecap="round" stroke-linejoin="round"/>
          <path fill="#1655A9" d="M37.3329889,60.801308 C33.5969004,60.801308 29.604059,63.2684411 29.604059,70.1930646 C29.604059,76.3833916 33.1474539,81.4184943 37.502952,81.4184943 C41.857417,81.4184943 45.4008118,76.3833916 45.4008118,70.1930646 C45.4008118,63.7048821 41.3485609,60.801308 37.3329889,60.801308 Z"/>
          <path fill="#FFFFFF" d="M37.3242066,70.513673 C37.3242066,68.0594677 35.33631,66.0691103 32.8839852,66.0691103 C32.3730627,66.0691103 31.8874539,66.1647757 31.4312915,66.3245627 C31.0479705,67.4296274 30.8402952,68.722403 30.8402952,70.1930646 C30.8402952,71.8369582 31.1115129,73.3851863 31.5826568,74.7544943 C31.9949077,74.8822205 32.4293727,74.9582357 32.8839852,74.9582357 C35.33631,74.9582357 37.3242066,72.9678783 37.3242066,70.513673 Z"/>
          <path fill="#C6F1FF" d="M39.1922509,69.2767452 C42.5569004,69.2767452 45.8208118,69.4918631 48.9349077,69.8957262 C47.4630996,62.8666464 42.8084871,59.5860989 37.502952,59.5860989 C32.0775646,59.5860989 27.6812546,63.1008973 26.3163838,70.3756046 C30.3448708,69.6645779 34.678155,69.2767452 39.1922509,69.2767452 Z"/>
          <path fill="#297BCC" stroke="#297BCC" d="M25.7470849,70.2685627 L25.5926199,71.0918023 L26.4171218,70.9459772 C30.5158672,70.2235741 34.8145387,69.856943 39.1922509,69.856943 C42.4680443,69.856943 45.721107,70.06327 48.8605166,70.4702357 L49.6695203,70.5757262 L49.5021402,69.7767909 C48.0892251,63.0331559 43.604059,59.0059011 37.502952,59.0059011 C31.3749815,59.0059011 27.0897417,63.1107224 25.7470849,70.2685627 Z M37.502952,60.1662966 C42.7707749,60.1662966 46.6850923,63.5564715 48.1512177,69.237962 C45.2261993,68.8935665 42.22369,68.6970646 39.1922509,68.6970646 C35.0542435,68.6970646 30.9916605,69.0331863 27.0897417,69.6707833 C28.484059,63.6361065 32.2263469,60.1662966 37.502952,60.1662966 Z" stroke-linecap="round" stroke-linejoin="round"/>
          <path fill="#FFFFFF" d="M86.2162362,74.9075589 C86.2162362,84.3820532 80.9453137,92.0621749 74.4422878,92.0621749 C67.9397786,92.0621749 62.6688561,84.3820532 62.6688561,74.9075589 C62.6688561,65.4335817 67.7703321,59.5860989 74.2728413,59.5860989 C80.7753506,59.5860989 86.2162362,65.4335817 86.2162362,74.9075589 Z"/>
          <path fill="#297BCC" stroke="#297BCC" d="M62.0504797,74.9075589 C62.0504797,84.7078327 67.6096679,92.6806388 74.4422878,92.6806388 C81.2754244,92.6806388 86.8340959,84.7078327 86.8340959,74.9075589 C86.8340959,65.6714525 81.5512915,58.967635 74.2728413,58.967635 C67.0765314,58.967635 62.0504797,65.5225247 62.0504797,74.9075589 Z M63.2867159,74.9075589 C63.2867159,66.2500989 67.8039114,60.2050798 74.2728413,60.2050798 C80.8352768,60.2050798 85.5983764,66.3881673 85.5983764,74.9075589 C85.5983764,84.0257643 80.5940221,91.4431939 74.4422878,91.4431939 C68.2910701,91.4431939 63.2867159,84.0257643 63.2867159,74.9075589 Z" stroke-linecap="round" stroke-linejoin="round"/>
          <path fill="#1655A9" d="M74.1028782,60.801308 C70.3667897,60.801308 66.3744649,63.2684411 66.3744649,70.1930646 C66.3744649,76.3833916 69.9173432,81.4184943 74.2728413,81.4184943 C78.6278229,81.4184943 82.1707011,76.3833916 82.1707011,70.1930646 C82.1707011,63.7048821 78.1189668,60.801308 74.1028782,60.801308 Z"/>
          <path fill="#FFFFFF" d="M74.1788192,70.7360304 C74.1788192,68.281308 72.1904059,66.2914677 69.7385978,66.2914677 C69.1584502,66.2914677 68.6103321,66.4129886 68.1030258,66.6162129 C67.782214,67.6561217 67.6107011,68.8516806 67.6107011,70.1930646 C67.6107011,71.9238327 67.9061993,73.5522129 68.4248708,74.9727148 C68.840738,75.1030266 69.2798524,75.1811103 69.7385978,75.1811103 C72.1904059,75.1811103 74.1788192,73.1907529 74.1788192,70.7360304 Z"/>
          <path fill="#C6F1FF" stroke="#297BCC" d="M75.9626568,69.2767452 C79.3273063,69.2767452 82.5922509,69.4918631 85.704797,69.8957262 C84.2324723,62.8666464 79.5783764,59.5860989 74.2728413,59.5860989 C68.8474539,59.5860989 64.4511439,63.1008973 63.0867897,70.3756046 C67.1152768,69.6645779 71.4480443,69.2767452 75.9626568,69.2767452 Z" stroke-linecap="round" stroke-linejoin="round"/>
          <path fill="#297BCC" stroke="#297BCC" d="M62.5174908,70.2685627 L62.3630258,71.0918023 L63.1875277,70.9459772 C67.2857565,70.2235741 71.5839114,69.856943 75.9626568,69.856943 C79.2384502,69.856943 82.4909963,70.06327 85.6304059,70.4702357 L86.438893,70.5757262 L86.2720295,69.7767909 C84.8591144,63.0331559 80.3739483,59.0059011 74.2728413,59.0059011 C68.1443542,59.0059011 63.859631,63.1107224 62.5174908,70.2685627 Z M74.2728413,60.1662966 C79.5406642,60.1662966 83.4549815,63.5564715 84.921107,69.237962 C81.9966052,68.8935665 78.9940959,68.6970646 75.9626568,68.6970646 C71.8241328,68.6970646 67.7620664,69.0331863 63.859631,69.6707833 C65.2544649,63.6361065 68.9962362,60.1662966 74.2728413,60.1662966 Z" stroke-linecap="round" stroke-linejoin="round"/>
          <path fill="#297BCC" d="M55.8615498,93.7898403 C55.8615498,93.7898403 57.5518819,108.168091 61.2135793,104.220471 C61.2135793,104.220471 64.0301107,102.247179 65.4383764,96.0444411 L55.8615498,93.7898403 Z"/>
          <path fill="#297BCC" stroke="#297BCC" d="M55.2478229,93.8617186 C55.4565314,95.6338555 56.6374908,104.522464 59.4431734,105.439817 C59.9473801,105.604776 60.7248708,105.597019 61.5917343,104.709141 C61.857786,104.516259 64.6366052,102.368183 66.040738,96.1819924 L66.1771218,95.5836958 L55.1450185,92.9852167 L55.2478229,93.8617186 Z M59.8270111,104.263909 C58.4187454,103.803681 57.1468635,98.6051711 56.5894465,94.5965323 C57.9238376,94.9104183 63.6901845,96.2683498 64.6738007,96.5005323 C63.3084133,101.857278 60.8814022,103.697673 60.8560886,103.715772 L60.8054613,103.75197 L60.7605166,103.800061 C60.3968266,104.190996 60.0832472,104.347163 59.8270111,104.263909 Z" stroke-linecap="round" stroke-linejoin="round"/>
          <path fill="#C6F1FF" d="M55.0964576,92.3212471 C55.5949815,91.2213536 56.9376384,90.3841521 58.060738,89.9249582 C59.9928413,89.1353308 62.1507011,89.0262205 64.1628782,89.5774601 C66.2065683,90.1385247 67.9604428,91.0532928 69.0540959,92.9335057 C70.7108487,95.781749 71.7285609,98.3988441 75.3757934,98.960943 C74.9309963,98.8926844 74.1080443,99.2831027 73.676679,99.3741141 C72.2265683,99.6792091 70.7604428,99.8607148 69.2793358,99.912943 C65.7700369,100.036015 62.3237638,99.3239544 59.2184502,97.657308 C57.7285609,96.8578555 56,95.8427681 55.184797,94.2945399 C54.8045756,93.5731711 54.8304059,92.9097186 55.0964576,92.3212471 Z"/>
          <path fill="#297BCC" stroke="#297BCC" d="M57.8277491,89.352 C57.0657565,89.6633004 55.2204428,90.5506616 54.5338745,92.0657947 L54.5338745,92.0663118 C54.1645018,92.8823118 54.2006642,93.7526084 54.6382288,94.5830875 C55.5309225,96.2781749 57.3199262,97.3398023 58.9265683,98.2023422 C62.0504797,99.8788137 65.5406642,100.662753 69.3005166,100.531407 C70.7991882,100.478662 72.3143911,100.292502 73.8032472,99.9796502 C73.8042804,99.9796502 74.5445756,99.8545095 75.2822878,99.5732015 L76.9617712,99.0250646 L75.4367528,98.6455057 C73.1068635,97.9789506 71.498155,96.0180684 70.1627306,93.633673 L69.5882657,92.6222053 C68.224428,90.2776274 65.9322509,89.4212928 64.3266421,88.9807148 C62.1677491,88.3901749 59.8600738,88.5215209 57.8277491,89.352 Z M58.2947601,90.4979163 C60.0765314,89.7698251 62.1026568,89.6545095 63.999631,90.1742053 C66.2494465,90.7911179 67.6437638,91.7374297 68.5199262,93.244289 L69.0845756,94.2392091 C70.1198524,96.0868441 71.1122509,97.8574297 73.0242066,98.8564867 C71.7740221,99.092289 70.5104059,99.2515589 69.2576384,99.2955133 C65.7183764,99.4185856 62.4394834,98.684289 59.5103321,97.1122738 C58.0653875,96.3360913 56.461845,95.3928821 55.7313653,94.0059924 C55.5882657,93.7345095 55.5164576,93.4702662 55.5164576,93.2096426 C55.5164576,92.9971103 55.5645018,92.7876806 55.6595572,92.5766996 C56.0707749,91.6702053 57.2904797,90.9085019 58.2947601,90.4979163 Z" stroke-linecap="round" stroke-linejoin="round"/>
          <path fill="#FFFFFF" d="M17.7293727,107.619437 C17.7293727,107.619437 25.4112915,105.044745 30.0602214,79.9979924 C30.0602214,79.9979924 48.8589668,97.7881369 32.28369,106.917202 C32.28369,106.917202 38.5501107,106.917202 40.1670849,102.469536 C40.1670849,102.469536 43.4010332,117.918722 28.2412546,115.110297 C28.2412546,115.110297 31.475203,118.855209 34.7096679,117.217004 C34.7096679,117.217004 31.0712177,130.325232 19.3468635,117.684989 C19.3468635,117.684989 18.5383764,121.430418 23.1873063,124.94108 C23.1873063,124.94108 12.6764576,132.900441 7.01653137,111.364867 L17.7293727,107.619437 Z"/>
          <path fill="#297BCC" stroke="#297BCC" d="M29.5245018,79.8987072 C25.0212546,104.158418 17.6255351,107.078023 17.5511439,107.104913 L6.36199262,111.016335 L6.4895941,111.50397 C8.72391144,120.004228 11.9857565,125.051741 16.1857565,126.505856 C20.1476015,127.876715 23.38,125.479392 23.5163838,125.376487 L24.0913653,124.940563 L23.5153506,124.50619 C20.7458303,122.414996 20.0323985,120.292259 19.877417,119.007757 C23.584059,122.712852 26.897048,124.259011 29.7295941,123.569186 C33.74,122.592365 35.1751292,117.575361 35.2345387,117.362829 L35.5646494,116.172441 L34.4632472,116.729886 C32.7971956,117.574327 31.0789668,116.736608 29.9460517,115.905612 C33.6532103,116.278449 36.4852399,115.488304 38.3801476,113.545521 C42.1751292,109.656852 40.762214,102.654144 40.7002214,102.35784 L40.3081181,100.486418 L39.6551292,102.283376 C38.797048,104.642951 36.4423616,105.636319 34.6213284,106.058281 C37.5045018,103.950023 39.1798524,101.353095 39.5698893,98.2985247 C39.6318819,97.8170951 39.6608118,97.3341141 39.6608118,96.850616 C39.6608118,88.4351635 30.8309963,79.977308 30.4342435,79.6018859 L29.7073801,78.9141293 L29.5245018,79.8987072 Z M30.3898155,81.1082281 C32.4769004,83.2909506 38.5702583,90.2300532 38.5702583,96.8676806 C38.5702583,97.301019 38.5439114,97.7328061 38.4891513,98.1620076 C38.0588192,101.527878 35.8828782,104.313034 32.0212546,106.439392 L30.1635424,107.462753 L32.28369,107.462753 C32.521845,107.462753 37.4580074,107.419833 39.8405904,104.215817 C39.8767528,104.660015 39.9067159,105.14765 39.9067159,105.707681 C39.9067159,107.930738 39.4856827,110.854479 37.5980074,112.786403 C35.6757196,114.754525 32.561107,115.355407 28.3399262,114.573536 L26.8133579,114.291194 L27.8290037,115.467103 C27.9566052,115.614996 30.682214,118.698525 33.8025092,118.088335 C33.2073801,119.49384 31.8642066,121.92943 29.4681919,122.510662 C26.8123247,123.154464 23.5416974,121.406114 19.7461993,117.313703 L19.0353506,116.547346 L18.8147601,117.569673 C18.8049446,117.612076 18.7460517,117.905795 18.7460517,118.381019 C18.7460517,119.669658 19.2156458,122.293475 22.2620664,124.87127 C21.2453875,125.428715 19.0307011,126.342449 16.5277491,125.470601 C12.8329889,124.182479 9.78450185,119.41524 7.68450185,111.708745 C8.57409594,111.397962 17.9091513,108.134479 17.9091513,108.134479 L17.9024354,108.136548 C18.2242804,108.028989 25.718155,105.207118 30.3898155,81.1082281 Z" stroke-linecap="round" stroke-linejoin="round"/>
          <g transform="translate(78.007 10.86)">
            <path fill="#297BCC" d="M52.7696081,5.27046739 C46.9726195,1.87197894 39.284469,0 31.1216154,0 C22.9587618,0 15.2706113,1.87197894 9.47325838,5.27046739 C3.52580746,8.75738169 0.250610906,13.444668 0.250610906,18.4677578 C0.250610906,22.8059947 2.78296811,27.0106979 7.38135865,30.3078725 C11.5946677,33.3293875 17.38437,35.478458 23.7635348,36.4067505 C23.3591446,38.7190687 21.8629007,43.2602913 16.3566359,44.2745037 L12.7812433,44.9335806 L16.2404192,46.0390828 C16.3559073,46.0759567 19.1064895,46.9330073 22.8323443,46.1468406 C26.1581807,45.4448037 30.9234278,43.2373794 34.9247052,36.7923159 C50.3895348,35.6642597 61.9926199,27.8401825 61.9926199,18.4677578 C61.9926199,13.444668 58.7174234,8.75738169 52.7696081,5.27046739 Z"/>
            <path fill="#FFFFFF" d="M33.7609391,34.8688864 L33.974859,34.8549718 C47.8684993,33.9525627 58.3455045,27.014296 58.3455045,18.7164764 C58.3455045,9.76365518 46.0672466,2.48023984 30.9749114,2.48023984 C15.8825763,2.48023984 3.6039804,9.76365518 3.6039804,18.7164764 C3.6039804,26.3026179 12.6731021,32.976169 25.1676455,34.5841473 L25.5556077,34.6336966 L26.8350716,34.7725027 C27.7079864,34.9123269 28.7542676,35.0857496 30.8867075,35.0297521 C30.8867075,35.0297521 28.0878378,36.2213122 25.3859587,35.9582933 C25.0057694,38.0302029 23.6827103,42.2948409 19.1863374,43.9544048 C22.1443797,44.2679912 28.5535276,43.7612981 33.6527964,35.0541874 L33.7609391,34.8688864 Z"/>
          </g>
        </g>
      </g>
      <path fill="#D9EBFA" d="M127.298128,66.0375267 C127.298128,66.0375267 140.251572,74.0730091 146.969536,83.9950625 C153.6875,93.9171159 151.511558,91.1841093 151.511558,91.1841093 C151.511558,91.1841093 158.791563,90.7590064 160.426466,96.6765147 C162.061369,102.594023 163.47665,109.789668 161.139055,114.040226 C158.801461,118.290784 157.56951,122.190703 154.540534,122.4419 C151.511558,122.693097 144.293762,121.734024 144.293762,121.734024 L148.026374,127.483282 C148.026374,127.483282 157.895643,124.045698 160.945827,119.585416 C163.996011,115.125134 167.879906,112.458579 166.260085,99.1093101 C164.640264,85.7600409 160.689917,81.053746 152.49184,73.9264381 C144.293762,66.7991302 137.037792,63.2460802 132.16796,63.8276512 C127.298128,64.4092222 127.298128,66.0375267 127.298128,66.0375267 Z" style="mix-blend-mode:darken"/>
      <path fill="#D9EBFA" d="M121.729662,135.726636 L119.230836,136.486641 L121.293098,133.072416 L121.293098,129.677724 L116.960796,129.888328 L116.229688,135.359758 C116.229688,135.359758 117.908815,139.973919 116.361662,143.01048 C114.814509,146.047042 111,146.9051 111,146.9051 C111,146.9051 109.38812,151.438616 111,151.171643 C111.718123,151.052702 115.705758,152.485494 117.96818,151.171643 C118.943611,150.605184 121.096989,146.182298 121.729662,143.01048 C122.362335,139.838662 121.729662,135.726636 121.729662,135.726636 Z" style="mix-blend-mode:multiply"/>
    </g>
    <path fill="#D9EBFA" d="M182.524866 104C182.524866 104 185.196308 107.929988 183.860587 114.227741 182.524866 120.525494 174.780425 133.890923 174.780425 133.890923L189.395267 122.723839C189.395267 122.723839 192.330656 128.285005 183.55554 134.01285 174.780425 139.740696 163.49187 143.524097 163.49187 143.524097L176.294242 145.235189 184.170657 144.757526C184.170657 144.757526 177.92405 152.059924 167.818693 151.369459 157.713336 150.678994 154.787993 151.49641 154.787993 151.49641 154.787993 151.49641 157.764025 158.225247 153.802985 158.225247 149.841944 158.225247 139 154.817674 139 154.817674L141.153136 159.474659C141.153136 159.474659 150.937464 164.760918 155.569789 163.425197 160.202115 162.089476 166.27565 156.411863 166.27565 156.411863 166.27565 156.411863 175.212879 155.346026 178.321341 152.72025 181.429803 150.094474 186.335667 143.082053 186.335667 143.082053 186.335667 143.082053 191.373047 136.932257 191.373047 131.163312 191.373047 125.394368 190.072945 117.579601 190.072945 117.579601 190.072945 117.579601 190.044176 110.358032 187.107416 106.463206 184.170657 102.568381 182.524866 104 182.524866 104zM118.83419 75.6334245C118.83419 75.6334245 109.463545 69.7847244 106.905858 62.7408347 104.348171 55.6969449 102.843816 50 102.843816 50 102.843816 50 100.468989 61.1780394 103.687423 66.1468424 106.905858 71.1156454 118.83419 75.6334245 118.83419 75.6334245z" style="mix-blend-mode:darken" mask="url(#b)"/>
  </g>
</svg>
