<svg xmlns="http://www.w3.org/2000/svg" width="234" height="306" viewBox="0 0 234 306" xmlns:xlink="http://www.w3.org/1999/xlink">
  <defs>
    <rect id="a" width="234" height="289"/>
    <path id="c" d="M22.1671941,114.023674 C47.837426,132.72987 85.504333,124.6232 106.298586,95.9169187 C127.092838,67.2106373 123.140076,28.7752297 97.469844,10.069033 C71.7996121,-8.63716366 34.1327051,-0.530493292 13.3384525,28.1757881 C-7.45580006,56.8820694 -3.5030378,95.317477 22.1671941,114.023674 Z"/>
    <path id="e" d="M0.141081778,0.220530842 C0.141081778,0.220530842 1.78557658,7.07017223 2.11919033,12.9125197 C2.45280409,18.7548671 0.27115957,25.7863987 7.06383028,28.1104334 C17.7177908,31.7093976 21.6918988,20.243735 30.9697289,20.7934382 C40.247559,21.3431414 40.7482953,30.0157174 51.5037081,28.3483552 C60.0588829,27.0220857 55.2744907,20.0525062 55.2744907,15.3921268 C55.2744907,10.7317473 56.5630607,1.20978435 56.5630607,1.20978435 L0.141081778,0.220530842 Z"/>
    <path id="f" d="M17.2845831,58.5221084 C17.2845831,58.5221084 14.1651153,61.6655272 10.665742,66.2087968 C7.16624678,70.7520664 2.39206868,77.8295889 2.39206868,77.8295889 L8.01810802,75.9451128 C8.01810802,75.9451128 6.63515939,77.8517404 5.37059595,79.4000061 C4.10603251,80.9482718 3.38487047,82.5407175 3.38487047,82.5407175 L7.02530623,82.2266587 C7.02530623,82.2266587 4.42900094,87.0602357 3.38487047,92.2770335 C2.34086191,97.4939544 2.72296197,104.525943 2.72296197,104.525943 C2.72296197,104.525943 -2.39235076,108.431742 1.3992669,109.551254 C5.19088457,110.670642 6.36339774,108.608954 6.36339774,108.608954 C6.36339774,108.608954 6.2184338,113.271473 10.0038335,113.006024 C13.7892332,112.740575 13.6442693,109.865313 13.6442693,109.865313 C13.6442693,109.865313 13.9304176,113.3015 17.2845831,113.006024 C20.6387486,112.710548 20.5940037,110.179371 20.5940037,110.179371 C20.5940037,110.179371 22.4113564,113.829813 25.8891497,112.377906 C29.3670649,110.926 25.4231681,106.913381 25.8891497,102.01335 C26.3551313,97.113318 27.9413221,96.4676022 29.8604788,94.7896272 C31.7797574,93.1116523 32.839006,90.0784986 32.839006,90.0784986 L17.2845831,58.5221084 Z"/>
    <path id="g" d="M103.369811,58.5221084 C103.369811,58.5221084 109.577047,64.4324938 112.329655,69.4576813 C116.021663,76.1980089 120.102599,88.0852342 119.317794,86.9710145 C118.107973,86.8047553 116.023004,85.7076415 114.79965,85.7731114 C114.79965,85.7731114 116.225515,87.0602357 117.269523,92.2770335 C118.313654,97.4939544 117.931432,104.525943 117.931432,104.525943 C117.931432,104.525943 123.04711,108.431742 119.255249,109.551254 C115.463631,110.670642 114.291118,108.608954 114.291118,108.608954 C114.291118,108.608954 114.436082,113.271473 110.650682,113.006024 C106.865283,112.740575 107.010247,109.865313 107.010247,109.865313 C107.010247,109.865313 106.724098,113.3015 103.369811,113.006024 C100.015645,112.710548 100.06039,110.179371 100.06039,110.179371 C100.06039,110.179371 98.2431594,113.829813 94.7652441,112.377906 C91.2874508,110.926 95.2312258,106.913381 94.7652441,102.01335 C94.2993844,97.113318 92.7131937,96.4676022 90.7939151,94.7896272 C88.8747584,93.1116523 87.8153878,90.0784986 87.8153878,90.0784986 L103.369811,58.5221084 Z"/>
    <path id="h" d="M32.1918691,14.4951022 C33.0136159,13.6067046 35.3670548,10.997998 37.4540965,9.48443629 C39.9733478,7.65730796 41.8432484,6.53090495 41.8432484,6.53090495 L43.8915193,10.3704957 C43.8915193,10.3704957 46.6157196,8.53684498 47.1102307,6.23555182 C47.6047419,3.93413559 47.1102307,0.91919542 47.1102307,0.91919542 C47.1102307,0.91919542 50.0375512,1.47421318 51.7919928,4.16807989 C53.5463125,6.86182353 53.7152948,10.2287262 56.766365,11.8472614 C58.2523368,12.635485 60.0956587,13.578523 61.5956513,14.338442 C78.5471657,20.3717681 90.70914,36.6910132 90.70914,55.8548782 C90.70914,80.1433662 71.1730247,99.8624951 47.1102307,99.8624951 C23.0473149,99.8624951 3.51132155,80.1433662 3.51132155,55.8548782 C3.51132155,55.5910294 3.51363804,55.3276729 3.51827104,55.0649316 L1.17044052,55.8548782 L4.08349627,48.7139778 C4.22955749,47.8119201 4.40280707,46.9190922 4.60239156,46.0364786 L0,47.5849905 C0,47.5849905 2.74834064,41.8707688 5.26698232,38.1336902 C6.72040121,35.976874 8.93265571,32.3738119 10.5438402,30.7112198 C15.6609818,22.7761887 23.2437294,17.7881666 32.1918691,14.4951022 Z"/>
    <path id="i" d="M31.8255947,0.612796947 C48.5472882,0.690696336 62.0670954,6.5705619 62.0670954,13.8017911 C62.0670954,21.0813844 48.3656261,26.9915237 31.4893369,26.9915237 C14.6129258,26.9915237 0.91157842,21.0813844 0.91157842,13.8017911 C0.91157842,7.94543074 9.77888453,2.97549895 22.0331529,1.25592839 C22.6738472,2.16315477 23.6384852,3.29952595 24.905609,4.15629616 C27.3881621,5.83500953 32.8060825,7.9958869 32.8060825,7.9958869 C32.8060825,7.9958869 30.6710039,5.88226604 30.7578116,3.5655899 C30.8014592,2.39857583 31.3208422,1.35807135 31.8255947,0.612796947 Z"/>
    <path id="j" d="M43.944652,2.67888382 C51.8100122,0.51296084 56.2340335,-1.83448125 56.1812418,2.19179727 C56.1351557,5.6961622 43.5942513,16.8117774 28.0906694,16.8117774 C12.5869656,16.8117774 -0.0403806901,6.28699153 9.70444125e-05,2.78250354 C0.0398432536,-0.671405225 4.50678071,1.31250638 12.4588267,3.11662177 C13.5403869,5.2228588 14.9742985,7.61201953 15.7360602,7.65583024 C16.4550276,7.69705661 18.252995,5.98240861 19.7194594,4.43808092 C22.292234,4.77699864 25.0883676,4.99765204 28.0906694,4.99765204 C31.0532251,4.99765204 33.8191223,4.73946418 36.3697073,4.34049132 C37.8522652,5.90918565 39.7114368,7.69791806 40.4455225,7.65583024 C41.2606856,7.60906599 42.8454132,4.87643419 43.944652,2.67888382 Z"/>
  </defs>
  <g fill="none" fill-rule="evenodd">
    <rect width="234" height="306"/>
    <g transform="translate(0 9)">
      <mask id="b" fill="white">
        <use xlink:href="#a"/>
      </mask>
      <g transform="translate(-77 1)" mask="url(#b)">
        <g transform="rotate(36 43.731 141.431)">
          <path fill="#FFFFFF" stroke="#99E0D3" stroke-width="2.7" d="M0,6.83940174 L0,144.202985 C0,144.202985 3.22907548,155.651163 62.7637165,155.651163 C122.298358,155.651163 152.525879,134.607662 210.460044,135.610739 C268.394209,136.613816 275.673051,146.982465 275.673051,146.982465 L274.849803,6.83940174 C274.849803,6.83940174 264.592439,2.84217094e-13 213.666109,2.84217094e-13 C162.739779,2.84217094e-13 113.370462,18.1847312 67.0614805,18.1847312 C20.7524985,18.1847312 0,6.83940174 0,6.83940174 Z"/>
          <path stroke="#99E0D3" stroke-width="2.7" d="M253.718383,86.2868964 L253.478523,51.3710594 C238.217751,48.7408389 226.029497,37.1041342 222.556928,22.1169061 C216.722131,21.8316488 209.837287,21.655814 201.729729,21.655814 C158.798271,21.655814 117.179391,34.7646726 78.1404069,34.7646726 C69.1736857,34.7646726 61.3435568,34.3332077 54.6009473,33.6684812 C51.1927009,49.5899922 37.980671,61.864508 21.6068376,63.8349935 L21.6068376,98.2263089 C39.6530636,100.398056 53.8586202,115.086196 55.3313808,133.378446 C60.7970656,133.682269 67.145115,133.860337 74.5173444,133.860337 C124.705705,133.860337 150.187839,118.690672 199.026981,119.413762 C207.95744,119.545982 215.460091,119.90394 221.7585,120.40066 C223.515255,103.052268 236.741846,89.1018833 253.718383,86.2868964 Z"/>
          <ellipse cx="137.068" cy="76.472" fill="#FFFFFF" stroke="#99E0D3" stroke-width="4.05" rx="58.744" ry="65.644"/>
          <path fill="#99E0D3" d="M225.638037 83.9452546C226.576692 82.911594 227.046012 81.5695926 227.046012 79.9192101 227.046012 78.5467868 226.526764 77.4219377 225.488252 76.5446291 224.44974 75.6673205 223.051764 74.8377986 221.294281 74.0560385L221.294281 85.8084403C223.251477 85.5999709 224.699381 84.9789152 225.638037 83.9452546zM217.909148 53.0789134C216.311437 53.2526379 214.998338 53.7607743 213.969811 54.603338 212.941285 55.4459017 212.427029 56.5533786 212.427029 57.9258019 212.427029 59.367715 213.155974 60.6098264 214.613886 61.6521732 215.512598 62.2949538 216.611008 62.8074333 217.909148 63.1896271L217.909148 53.0789134zM208.952025 76.9224779C209.810795 79.4241103 211.019046 81.4957436 212.576814 83.1374399 214.134582 84.7791361 215.912009 85.6694607 217.909148 85.8084403L217.909148 72.3882919C214.653812 70.9811237 212.257281 69.6695236 210.719484 68.4534523 207.983404 66.3340137 206.615385 63.9019076 206.615385 61.1570609 206.615385 58.4122143 207.693823 56.1712022 209.850733 54.4339575 212.007643 52.6967128 214.713726 51.7238703 217.969062 51.515401L217.969062 47.372093 221.294281 47.372093 221.294281 51.4632839C223.590991 51.7238706 225.463281 52.0713143 226.911206 52.5056255 228.359132 52.9399367 229.762101 53.5219049 231.120155 54.2515477L231.120155 61.7042903 229.832007 61.7042903C229.033152 59.515362 228.204351 57.8736903 227.345582 56.7792261 225.807785 54.7987672 223.790705 53.6000863 221.294281 53.1831476L221.294281 64.6749639C225.30853 66.4122086 228.114468 67.9062167 229.712179 69.1570329 232.508174 71.3285888 233.90615 73.9170446 233.90615 76.9224779 233.90615 79.6499522 232.892617 81.964796 230.865521 83.867079 228.838425 85.769362 225.648044 86.9463276 221.294281 87.3980112L221.294281 92.7139535 217.969062 92.7139535 217.969062 87.3980112C216.311437 87.3285214 214.963388 87.19823 213.924876 87.0071331 212.227308 86.6944291 210.140329 86.0690304 207.663877 85.1309182L207.663877 76.7921852 208.952025 76.9224779zM40.0354233 87.2614464C40.3387435 85.7663775 40.4904013 83.8167562 40.4904013 81.4125238 40.4904013 78.1092298 40.1689527 75.6191694 39.5260458 73.9422679 38.883139 72.2653663 38.0111066 71.4269281 36.9099225 71.4269281 35.3801339 71.4269281 34.3317169 72.8260087 33.7646401 75.6242119 33.4679138 77.1091789 33.319553 79.038597 33.319553 81.4125238 33.319553 83.826858 33.4712108 85.7764793 33.7745309 87.2614464 34.3350138 90.0192423 35.3801339 91.3981196 36.9099225 91.3981196 38.4265233 91.3981196 39.4683465 90.0192423 40.0354233 87.2614464zM42.0036976 73.4119252C43.395014 75.4827975 44.0906617 78.1496371 44.0906617 81.4125238 44.0906617 84.6754106 43.395014 87.3422501 42.0036976 89.4131225 40.6453508 91.4334858 38.9474427 92.4436523 36.9099225 92.4436523 34.7471179 92.4436523 32.9832717 91.33752 31.618331 89.1252222 30.3457051 87.044248 29.7094017 84.5289334 29.7094017 81.579203 29.7094017 78.3264181 30.3753773 75.6545277 31.7073484 73.5634516 33.0525074 71.4420702 34.7866814 70.3813953 36.9099225 70.3813953 38.9540367 70.3813953 40.6519447 71.3915618 42.0036976 73.4119252zM45.1390892 91.034456C45.8907957 91.0041505 46.3754413 90.7844393 46.5930405 90.3753158 46.8106398 89.9661922 46.9194378 89.3626177 46.9194378 88.5645742L46.9194378 73.8665046C46.2996096 72.8058139 45.9171682 72.1820361 45.772102 71.9951525 45.6270359 71.8082689 45.4292213 71.6895743 45.1786525 71.6390652L45.1786525 70.8511275 49.4712707 70.8511275 56.4344117 83.9278636 56.53332 83.9278636 56.53332 74.6999003C56.53332 73.6493114 56.4080374 72.8992628 56.1574686 72.4497319 55.9068998 72.0002011 55.4057697 71.7299816 54.6540632 71.6390652L54.6540632 70.8511275 59.0159171 70.8511275 59.0159171 71.6390652C58.3829011 71.8006943 57.9592484 72.0178801 57.7449461 72.2906291 57.5306438 72.5633782 57.4234943 73.1745289 57.4234943 74.1240997L57.4234943 92.3981944 56.8597172 92.3981944 47.9480836 75.8060437 47.809612 75.8060437 47.809612 87.9887735C47.809612 88.9383443 47.8953317 89.610105 48.0667735 90.0040758 48.3371241 90.6404903 48.8910048 90.9839469 49.7284322 91.034456L49.7284322 91.8223937 45.1390892 91.8223937 45.1390892 91.034456zM59.7676199 91.8223937L59.7676199 91.034456C60.3478845 91.0041505 60.7599981 90.8829306 61.003973 90.6707924 61.3798263 90.3475343 61.5677501 89.7414344 61.5677501 88.8524745L61.5677501 73.8361993C61.5677501 72.9270358 61.3732324 72.3158851 60.9841914 72.0027288 60.7599982 71.8107943 60.3544784 71.6895743 59.7676199 71.6390652L59.7676199 70.8511275 71.4387937 70.8511275 71.4387937 77.1091715 70.9442525 77.1091715C70.6870897 75.1090118 70.2502493 73.7402362 69.6337181 73.0028036 69.0171869 72.265371 67.8945895 71.8966603 66.2658921 71.8966603 65.6460639 71.8966603 65.2520833 71.9951515 65.0839385 72.1921369 64.9157936 72.3891223 64.8317224 72.7805618 64.8317224 73.3664672L64.8317224 80.5488229C65.9856578 80.5690265 66.7670252 80.2482986 67.175848 79.5866296 67.5846708 78.9249607 67.8978772 77.7152863 68.1154764 75.9575702L68.6297993 75.9575702 68.6297993 86.4432033 68.1154764 86.4432033C67.9704103 84.6753854 67.6753369 83.4303552 67.2302476 82.7080753 66.7851582 81.9857955 65.9856578 81.6246609 64.8317224 81.6246609L64.8317224 89.1403749C64.8317224 89.7969929 64.9421689 90.2439916 65.1630651 90.4813843 65.3839613 90.718777 65.8372862 90.8374715 66.5230536 90.8374715 67.8154612 90.8374715 68.870472 90.4536083 69.6881177 89.6858702 70.5057633 88.9181322 71.2310832 87.4786449 71.8640992 85.3673652L72.4278763 85.3673652 71.6069378 91.8223937 59.7676199 91.8223937z"/>
        </g>
        <g transform="translate(97.23 81.21)">
          <mask id="d" fill="white">
            <use xlink:href="#c"/>
          </mask>
          <use fill="#FFFFFF" xlink:href="#c"/>
          <g transform="rotate(34 54.019 61.055)" mask="url(#d)">
            <g transform="translate(31.905 87.63)">
              <g stroke-linecap="round" stroke-linejoin="round">
                <use fill="#FFFFFF" xlink:href="#e"/>
                <path stroke="#99E0D3" stroke-width="2.7" d="M-1.17161581,0.535689584 C-1.15685472,0.597172409 -1.12816645,0.71954623 -1.08754276,0.897495633 C-1.01923856,1.19669765 -0.942967914,1.54089856 -0.860722779,1.92477105 C-0.625325478,3.02346884 -0.389792263,4.21743333 -0.170051091,5.46377594 C0.15422173,7.30300813 0.415137911,9.09377547 0.58971225,10.7720372 C0.670185743,11.5456651 0.731234011,12.2863297 0.771385949,12.9894829 C0.825556153,13.9381283 0.81692395,14.8530992 0.759207443,16.4965484 C0.753674542,16.6532594 0.753674542,16.6532594 0.748065272,16.8104357 C0.61549806,20.5247073 0.676065808,22.1179823 1.23461478,23.9738426 C2.01766713,26.5756481 3.74587122,28.4020602 6.62681381,29.3877418 C12.0911223,31.2336248 15.3707138,30.1134539 21.4723176,25.9038307 C21.4839234,25.8958236 21.4839234,25.8958236 21.495526,25.8878188 C25.8455471,22.8866635 27.865302,21.9618712 30.8898826,22.1410749 C33.9668048,22.3233798 35.7165571,23.2152036 38.9042939,25.7243633 C39.0704365,25.8552103 39.0704365,25.8552103 39.2376539,25.9868705 C43.5882036,29.4100091 46.409653,30.504189 51.710522,29.6824196 C55.0006019,29.1723736 56.9630147,27.7971107 57.6687324,25.5679564 C58.1811223,23.9494676 58.0238364,22.3833005 57.3553005,19.5330144 C57.3267443,19.4112661 57.3050438,19.3194656 57.2548671,19.1078244 C56.7749637,17.0843246 56.6244907,16.2691801 56.6244907,15.3921268 C56.6244907,13.999999 56.7446416,12.0437446 56.9609898,9.67875104 C57.0479515,8.72813529 57.148826,7.72977007 57.2608671,6.6992259 C57.4009593,5.41067041 57.5511257,4.13807449 57.701277,2.93801434 C57.7538097,2.51815481 57.8025701,2.13748891 57.8462979,1.80306279 C57.8724548,1.60301792 57.8910642,1.46325903 57.9008665,1.39082438 L58.1044271,-0.113398167 L56.5867267,-0.140008194 L0.164747857,-1.1292617 L-1.57868418,-1.15982951 L-1.17161581,0.535689584 Z"/>
              </g>
              <path fill="#C3EEEA" d="M1.44312259,4.06272271 C1.44312259,4.06272271 17.5453993,15.748691 28.502671,15.748691 C39.4599427,15.748691 43.3533694,17.224582 45.4409055,19.8091007 C47.5284416,22.3936193 46.3429033,28.7946972 46.3429033,28.7946972 C46.3429033,28.7946972 52.1387319,29.1557185 53.9865522,28.3218251 C55.8343724,27.4879317 57.2361817,26.1325631 57.2361817,23.4037855 C57.2361817,20.6750079 55.8343724,15.748691 55.8343724,15.748691 L56.9806567,1.47741977 C56.9806567,1.47741977 45.6082936,12.4592457 27.7005172,12.4592457 C9.79274084,12.4592457 1.44312259,4.06272271 1.44312259,4.06272271 Z" style="mix-blend-mode:darken"/>
            </g>
            <g stroke-linecap="round" stroke-linejoin="round">
              <use fill="#FFFFFF" xlink:href="#f"/>
              <path stroke="#99E0D3" stroke-width="2.7" d="M4.25844174,78.6281551 C4.24738683,78.6419087 4.23444747,78.6580769 4.21372157,78.6839747 C3.64027007,79.4033836 3.13623322,80.1677537 2.70241396,80.9320386 C2.44016155,81.3940641 2.25646684,81.7599584 2.15509816,81.9837973 L1.20404973,84.0838703 L3.5009034,83.8857217 L4.78328586,83.7750911 C4.42254029,84.5832013 4.06664003,85.4422005 3.72835321,86.3388837 C3.00528155,88.2555004 2.43099546,90.1640977 2.06112419,92.0120886 C1.84818193,93.0761632 1.68386079,94.2483842 1.56290716,95.5121286 C1.3017243,98.2410124 1.25822302,101.115795 1.33949987,103.709691 C1.34169096,103.779619 1.34388518,103.846325 1.34606263,103.909713 C1.04979635,104.167347 0.71813162,104.478466 0.383959948,104.829297 C-0.164858215,105.405476 -0.608278999,105.979794 -0.912466216,106.560308 C-1.87472681,108.396699 -1.25741488,110.174459 1.01698178,110.845996 C2.73074826,111.351947 4.1804749,111.347349 5.34897372,110.942974 C5.38287343,111.052702 5.4197563,111.162907 5.45980532,111.27331 C6.18370182,113.26888 7.73967303,114.518112 10.0982694,114.352717 C11.6089507,114.246781 12.7842893,113.771414 13.6148891,113.00624 C14.5008795,113.974824 15.776419,114.49411 17.403049,114.350816 C18.9735045,114.212471 20.1569187,113.641982 20.9379685,112.746557 C22.4137969,114.043946 24.2922255,114.507511 26.409243,113.6237 C27.9405107,112.98445 28.6936227,111.827478 28.6863629,110.30128 C28.6819639,109.376504 28.640211,109.212117 27.8885331,106.655113 C27.3171924,104.711567 27.1065193,103.472071 27.2330864,102.141155 C27.523236,99.0900853 28.0789125,98.0449139 29.6481003,96.7279006 C29.7211697,96.6665738 29.79782,96.6029465 29.9003682,96.5183389 C30.0320014,96.4098676 30.0320014,96.4098676 30.1688619,96.2969252 C30.3993672,96.1063428 30.5731709,95.9597406 30.7490739,95.8059435 C31.3983157,95.2383283 31.9841664,94.5306458 32.5169803,93.7147602 C32.9726714,93.0169708 33.3657099,92.2775084 33.6985605,91.5386596 C33.899425,91.0927884 34.0380138,90.7398106 34.1135231,90.52359 L34.3001174,89.989278 L34.0498979,89.4816394 L18.4954749,57.9252492 L17.6590177,56.2282674 L16.3263453,57.5711719 C16.2219804,57.6763381 16.0307678,57.8731414 15.7633756,58.1548274 C15.3213018,58.620533 14.8244827,59.157524 14.2835755,59.7590742 C12.7402601,61.4754165 11.1494513,63.3684362 9.59621752,65.3850144 C8.8892257,66.3028766 8.10206162,67.3600851 7.24813436,68.5349996 C7.05079175,68.8065224 6.85035751,69.0836849 6.64705084,69.3661367 C5.43272806,71.053183 4.1655227,72.8590975 2.92025345,74.6647932 C2.48452083,75.2966248 2.08258837,75.8833924 1.72386278,76.4101419 C1.50832735,76.7266322 1.35486433,76.9531222 1.27289207,77.0746427 L-0.9524101,80.3735616 L2.82084526,79.1096868 L4.25844174,78.6281551 Z"/>
            </g>
            <path fill="#E0FCF7" d="M20.9511598,75.1776868 C20.9511598,75.1776868 24.509358,82.1265057 26.7761776,84.3023468 C29.0429972,86.4781879 32.4814736,90.2497595 32.4814736,90.2497595 C32.4814736,90.2497595 33.0031542,92.5252771 30.5737611,94.6603721 C28.144368,96.7954671 25.5103597,99.6397631 26.1005109,103.186568 C26.690662,106.733373 28.6751864,112.133251 26.7761776,112.758277 C24.8771688,113.383303 22.7817562,112.422454 21.866458,111.739815 C20.9511598,111.057176 20.6688645,111.210677 20.6688645,111.210677 C20.6688645,111.210677 19.5648857,113.831765 17.1612413,113.618179 C14.7575968,113.404594 13.4068098,109.756333 13.4068098,109.756333 C13.4068098,109.756333 15.1469581,113.618179 9.81398692,113.618179 C4.48101577,113.618179 6.07634263,108.448668 6.07634263,108.448668 C6.07634263,108.448668 6.44927738,110.650842 2.48486081,110.125891 C-1.47955576,109.600939 2.25295229,108.499458 4.4511715,106.89103 C6.64939072,105.282602 6.07634263,107.909303 6.07634263,107.909303 C6.07634263,107.909303 7.71015929,113.858043 11.0204564,109.287279 C14.3307535,104.716516 13.4068098,109.63997 13.4068098,109.63997 C13.4068098,109.63997 15.6565263,113.956402 18.2738656,110.125891 C20.8912049,106.295379 21.5843507,109.454622 22.9014779,104.848609 C24.2186052,100.242595 22.2598295,92.6700771 20.6688645,91.1768751 C19.0778996,89.6836731 18.7582031,88.8325537 18.7582031,88.8325537 C18.7582031,88.8325537 19.1463121,91.5994973 19.5654322,92.1600877 C19.9845523,92.720678 17.4271678,90.505228 16.8454742,89.2608614 C16.2637806,88.0164948 16.4434572,84.4257221 18.5561609,80.3249601 C20.6688645,76.224198 20.9511598,75.1776868 20.9511598,75.1776868 Z" style="mix-blend-mode:darken"/>
            <g stroke-linecap="round" stroke-linejoin="round">
              <use fill="#FFFFFF" xlink:href="#g"/>
              <path stroke="#99E0D3" stroke-width="2.7" d="M99.7164443,112.746579 C100.497494,113.641991 101.680902,114.212472 103.251345,114.350816 C104.878024,114.494109 106.153599,113.97482 107.039611,113.006226 C107.870212,113.771409 109.045556,114.246781 110.556246,114.352717 C112.914843,114.518112 114.470814,113.26888 115.19471,111.27331 C115.234759,111.162907 115.271642,111.052702 115.305542,110.942974 C116.474039,111.34735 117.923758,111.35195 119.637495,110.846008 C121.912015,110.174477 122.529368,108.396682 121.56702,106.560269 C121.262809,105.979756 120.819358,105.405441 120.270503,104.829266 C119.936311,104.478439 119.604627,104.167323 119.308342,103.909692 C119.310522,103.846256 119.312719,103.779498 119.314912,103.709515 C119.396216,101.115632 119.352727,98.2409248 119.091533,95.5121197 C118.970571,94.2483686 118.806232,93.0761407 118.593271,92.0120947 C118.375786,90.9253443 118.131622,89.9490957 117.864737,89.0771261 C117.730116,88.6372904 117.591381,88.2288847 117.449379,87.8506107 C118.090489,88.0723528 118.443489,88.1809497 118.780839,88.2492996 C119.433475,88.5730046 120.294086,88.3589494 120.641261,87.5838553 C120.764185,87.309421 120.778376,87.1072252 120.761271,86.8624287 C120.754544,86.7661638 120.740773,86.6700357 120.720873,86.5645606 C120.665246,86.2697258 120.545379,85.8319105 120.365513,85.2523398 C120.009977,84.1067155 119.437102,82.466773 118.765953,80.6841343 C117.096438,76.249738 115.195179,71.8789906 113.51367,68.8091381 C113.144968,68.1360328 112.71087,67.4341888 112.21653,66.7057887 C111.44847,65.5740657 110.544242,64.391364 109.531195,63.1746817 C108.387139,61.8006561 107.164467,60.4539103 105.941962,59.1884679 C105.51406,58.7455376 105.116372,58.3440316 104.758829,57.9908775 C104.542625,57.7773273 104.386609,57.6261848 104.30074,57.5444225 L104.30074,57.5444225 L102.970814,56.2780978 L102.158919,57.9252492 L86.604496,89.4816394 L86.3542639,89.9893035 L86.5408867,90.5236357 C86.6164026,90.73985 86.7550008,91.0928214 86.9558738,91.538686 C87.2887391,92.2775251 87.6817831,93.0169778 88.137466,93.7147578 C88.6702706,94.5306328 89.2560937,95.2383059 89.90532,95.8059435 C90.0812609,95.9597641 90.255065,96.106358 90.4855913,96.2969477 C90.6224576,96.4098889 90.6224576,96.4098889 90.7540958,96.5183591 C90.8566403,96.6029596 90.9332985,96.6665905 91.0063726,96.7279187 C92.5755697,98.0448841 93.1312299,99.0900451 93.4213043,102.141122 C93.5478755,103.472081 93.3372094,104.711584 92.7658849,106.65514 C92.0142355,109.212132 91.9724841,109.376517 91.968085,110.301285 C91.960825,111.827469 92.7139089,112.984439 94.2451509,113.6237 C96.3622158,114.5075 98.2406442,114.043949 99.7164443,112.746579 Z"/>
            </g>
            <path fill="#E0FCF7" d="M103.998924,58.7281243 C103.998924,58.7281243 110.300989,65.1606922 113.116734,70.9158369 C115.932478,76.6709817 119.736483,87.6541065 119.736483,87.6541065 L115.560321,86.2987924 C115.560321,86.2987924 117.96964,92.0184112 117.96964,94.6029299 C117.96964,97.1874485 118.409822,104.271951 118.409822,104.271951 C118.409822,104.271951 121.04558,106.914793 121.04558,108.197111 C121.04558,109.479428 119.171349,110.433495 117.522691,110.433495 C115.874033,110.433495 114.079815,108.426351 114.079815,108.426351 C114.079815,108.426351 114.563414,109.336683 114.556331,109.464073 C114.549248,109.591463 113.531403,113.120409 111.044066,113.423499 C108.168361,113.773913 106.954232,111.087998 106.954232,111.087998 C106.954232,111.087998 106.369474,113.245913 103.670093,113.423499 C100.970713,113.601084 99.9846665,110.793998 99.9846665,110.793998 C99.9846665,110.793998 98.5279163,113.054712 96.503208,113.054712 C93.8930889,113.054712 93.2197017,111.407413 93.2197017,111.087998 C93.2197017,110.768584 96.0651429,111.723386 97.2332511,108.980981 C97.8622638,107.504227 99.9846665,109.464073 99.9846665,109.464073 C99.9846665,109.464073 100.898263,112.012346 102.01283,112.104606 C103.127397,112.196867 103.185556,109.937765 104.310669,108.980981 C106.234198,107.345233 106.954232,110.083376 106.954232,110.083376 C106.954232,110.083376 108.544575,112.91728 110.326343,112.426397 C112.108111,111.935514 110.420871,109.957336 111.20411,108.426351 C111.98735,106.895366 114.079815,108.197111 114.079815,108.197111 C114.079815,108.197111 116.633076,108.209528 117.098954,106.95865 C117.564833,105.707773 115.782181,104.49684 115.782181,104.49684 C115.782181,104.49684 114.316741,90.0902773 108.665074,87.4456456 C103.013406,84.8010138 88.0044098,90.1896175 88.0044098,90.1896175 C88.0044098,90.1896175 97.0391846,81.7039656 99.800923,74.2179986 C102.562661,66.7320316 103.998924,58.7281243 103.998924,58.7281243 Z" style="mix-blend-mode:darken"/>
            <g transform="translate(13.066)">
              <g stroke-linecap="round" stroke-linejoin="round">
                <use fill="#FFFFFF" xlink:href="#h"/>
                <path stroke="#99E0D3" stroke-width="2.7" d="M31.4188886,13.3419035 C21.6967894,16.9737895 14.4068285,22.2872721 9.47991811,29.8704678 C8.79092016,30.5997705 8.00637461,31.6263264 7.06192834,32.993198 C6.82576219,33.3349949 6.5799395,33.6976008 6.31566857,34.0931693 C5.93751612,34.6591991 4.46759952,36.9041824 4.14745154,37.3792693 C3.94982222,37.6725053 3.74779261,37.9819526 3.54163914,38.3067707 C3.0962011,39.0086085 2.63416371,39.7779315 2.1592501,40.6042456 C1.35418294,42.0050021 0.550013673,43.5018873 -0.216466958,44.9982696 C-0.484558052,45.5216576 -0.728921694,46.007852 -0.944843032,46.4446205 C-1.07497968,46.7078626 -1.16714444,46.8970285 -1.21659775,46.9998495 L-2.60458547,49.8856889 L0.430504161,48.8645084 L2.82414572,48.0591484 C2.80775393,48.1544709 2.79166208,48.2498672 2.77587064,48.3453361 L-0.0795516163,55.344957 L-1.1930189,58.0744478 L1.60094468,57.1343962 L2.17399637,56.9415883 C2.74675974,81.4717978 22.6589466,101.212495 47.1102307,101.212495 C71.9214849,101.212495 92.05914,80.8861035 92.05914,55.8548782 C92.05914,36.5076641 79.9176898,19.4654261 62.1298255,13.0956943 C60.3150875,12.1759563 58.6783348,11.333285 57.3989741,10.6546567 C56.1060935,9.96880797 55.5041434,9.0623756 54.5069201,6.6636893 C54.2391498,6.01960386 54.301508,6.16933053 54.2268888,5.99285779 C53.7693559,4.91080199 53.4007186,4.16450844 52.9232414,3.43134619 C52.3703992,2.58248154 51.6906642,1.86602711 50.915032,1.27229624 C49.6042588,0.268925561 48.2971399,-0.229818083 47.3617096,-0.407174965 L45.4656774,-0.766661233 L45.7780316,1.137703 C45.801384,1.28007754 45.8389979,1.55433355 45.877268,1.92480326 C45.9761989,2.8824926 46.0120456,3.86758853 45.9491532,4.76793516 C45.9188478,5.20177692 45.8661129,5.59938213 45.7903564,5.95194708 C45.6525951,6.59304319 45.2128805,7.30580417 44.5526253,8.01257378 C44.4705359,8.10044624 44.3866452,8.18654616 44.3014334,8.27068447 L43.0343619,5.89549269 L42.3649406,4.64062754 L41.146651,5.37450884 C41.0820208,5.41344121 40.9636491,5.4860236 40.7962813,5.59061491 C40.520789,5.76277528 40.205846,5.96363216 39.8561909,6.1915532 C38.8602048,6.84078214 37.7827137,7.57842152 36.6614995,8.39160056 C36.3356407,8.62791942 35.9981829,8.89263237 35.6493316,9.18402654 C35.1419144,9.60787027 34.6147596,10.0844004 34.0691025,10.6077471 C33.4987845,11.1547464 32.9293215,11.732181 32.342994,12.3505728 C32.1224368,12.5831915 31.9091652,12.8113362 31.6784431,13.0606486 C31.6218622,13.1217885 31.5166048,13.2359141 31.4188886,13.3419035 Z"/>
              </g>
              <path fill="#E6F9FF" d="M47.0089668,0 C47.0089668,0 50.3123982,3.65861629 50.4447788,7.87423837 C50.5771594,12.0898605 46.0391897,13.697625 45.4400153,13.3755432 C44.8408409,13.0534614 43.6802552,8.68095002 43.2811203,7.78094572 C42.8819854,6.88094141 41.7273789,5.55874011 41.7273789,5.55874011 C41.7273789,5.55874011 42.9158673,13.0263833 41.4417431,14.5590483 C39.9676188,16.0917133 42.5547053,16.6677584 46.285384,16.1588798 C50.0160628,15.6500012 54.787849,12.3719597 57.4625249,12.8737514 C60.1372007,13.3755432 62.4006785,14.2205716 62.4006785,14.2205716 C62.4006785,14.2205716 56.24991,11.4259172 55.1411437,9.60343144 C54.0323774,7.78094572 53.0051164,3.5609869 51.3915834,2.38975159 C49.7780504,1.21851628 47.0089668,0 47.0089668,0 Z" style="mix-blend-mode:darken"/>
              <path fill="#E0FCF7" d="M7.64091794,74.4347849 C7.64091794,74.4347849 19.5678072,99.9046562 45.9465583,99.9046562 C72.3253095,99.9046562 84.9308632,81.151006 88.3099876,71.0657937 C91.689112,60.9805814 91.4585364,52.3058442 86.673242,36.9337839 C81.8879475,21.5617236 61.3718352,14.3553008 61.3718352,14.3553008 C61.3718352,14.3553008 77.9441969,27.8841489 80.5552162,45.5678319 C80.669447,46.3414843 83.3403855,49.5333585 83.3986149,50.3221309 C83.4568443,51.1109032 80.8836253,49.0464631 80.8943327,49.619 C80.9264918,51.3385933 83.6804485,56.8848529 83.3986149,58.6578501 C83.1167813,60.4308472 80.1342879,56.9928563 79.838401,58.0689507 C78.2957452,63.6793497 74.9503947,69.4660216 69.0262618,75.1907034 C57.4522777,86.3750197 45.8576844,88.9964204 35.9116324,87.9302451 C35.3128239,87.8660553 35.7789173,91.646197 35.192424,91.5563383 C34.6059307,91.4664796 31.9961395,87.3262059 30.9619431,87.0841133 C17.1986891,83.8623059 7.64091794,74.4347849 7.64091794,74.4347849 Z" style="mix-blend-mode:multiply"/>
            </g>
            <g transform="translate(27.651 29.414)">
              <g stroke-linecap="round" stroke-linejoin="round">
                <use fill="#E0FDF7" xlink:href="#i"/>
                <path stroke="#99E0D3" stroke-width="2.7" d="M29.5931627,5.13271203 C29.3358324,5.01317693 29.0820805,4.89330415 28.8331194,4.77348656 C28.2182602,4.47757297 27.6526948,4.19141825 27.147476,3.9189269 C26.55316,3.59838071 26.0522872,3.30200947 25.6618224,3.03797543 C24.7070757,2.39242007 23.8565969,1.4976907 23.1358882,0.477163386 L22.6609231,-0.195389525 L21.8455532,-0.0809733807 C8.75704419,1.75566134 -0.43842158,7.12651499 -0.43842158,13.8017911 C-0.43842158,22.137343 13.9446891,28.3415237 31.4893369,28.3415237 C49.0339054,28.3415237 63.4170954,22.1373259 63.4170954,13.8017911 C63.4170954,5.52452742 49.2330605,-0.656123586 31.8318837,-0.737188404 L31.1116901,-0.740543485 L30.7078273,-0.144234102 C29.9450684,0.981990563 29.4576287,2.20838494 29.4087548,3.51513361 C29.3882845,4.06143452 29.4541467,4.6011866 29.5931627,5.13271203 Z"/>
              </g>
              <path fill="#55B6BB" d="M11.920962,24.400402 C11.920962,24.400402 -3.47984492,20.2183092 1.15341339,11.0962346 C5.7866717,1.97416007 21.8106141,0.990436388 21.8106141,0.990436388 C21.8106141,0.990436388 24.3598993,4.40185416 25.4155742,4.36524065 C25.718488,4.35473482 31.4010522,6.85409467 31.4010522,6.85409467 C31.4010522,6.85409467 30.660837,5.82785864 30.6842719,3.81303588 C30.7077068,1.79821313 30.9148274,3.73365212 30.921149,3.65875291 C31.0475106,2.16161321 30.8487223,0.939449109 31.8767962,0.517414676 C34.5837403,-0.593812542 35.4492145,0.517414676 35.4492145,0.517414676 C35.4492145,0.517414676 34.010673,2.94666177 35.416843,5.59810309 C36.8230131,8.24954441 37.9401865,8.1788565 37.3984868,8.78114367 C36.8567872,9.38343083 35.1906097,9.74562736 31.8767962,7.74129807 C28.5629826,5.73696878 23.4045091,3.10987064 23.4045091,3.10987064 C23.4045091,3.10987064 10.3322808,5.58872706 7.44540492,10.7921681 C2.03901237,20.5369048 11.920962,24.400402 11.920962,24.400402 Z" opacity=".196" style="mix-blend-mode:multiply"/>
            </g>
            <g transform="translate(39.806 38.3)">
              <path fill="#7CCBBC" d="M4.68176206,0 C7.26563142,0 9.36352412,2.11743584 9.36352412,4.72565013 C9.36352412,7.33374136 7.26563142,9.45130026 4.68176206,9.45130026 C2.09777078,9.45130026 0,7.33374136 0,4.72565013 C0,2.11743584 2.09777078,0 4.68176206,0 Z"/>
              <path fill="#297BCC" d="M6.63477727,0.430178776 C8.2446729,1.17789438 9.36352412,2.82090091 9.36352412,4.72565013 C9.36352412,7.33374136 7.26563142,9.45130026 4.68176206,9.45130026 C4.11286049,9.45130026 3.57611788,9.29468268 3.06295994,9.16073576 C2.71686593,9.07039666 6.35367853,8.55608913 7.2838784,6.09753739 C8.55609914,2.73501217 6.63477727,0.430178776 6.63477727,0.430178776 Z" opacity=".48" style="mix-blend-mode:multiply"/>
              <path fill="#FFFFFF" d="M3.55631892,1.53199237 C4.84819264,1.53199237 5.89719996,2.59071029 5.89719996,3.89481743 C5.89719996,5.19892458 4.84819264,6.2576425 3.55631892,6.2576425 C2.26432328,6.2576425 1.21543789,5.19892458 1.21543789,3.89481743 C1.21543789,2.59071029 2.26432328,1.53199237 3.55631892,1.53199237 Z"/>
              <g transform="translate(29.474)">
                <path fill="#7CCBBC" d="M4.68176206,0 C7.26563142,0 9.36352412,2.11743584 9.36352412,4.72565013 C9.36352412,7.33374136 7.26563142,9.45130026 4.68176206,9.45130026 C2.09777078,9.45130026 0,7.33374136 0,4.72565013 C0,2.11743584 2.09777078,0 4.68176206,0 Z"/>
                <path fill="#297BCC" d="M6.63354846,0.428965343 C8.2434441,1.17668095 9.36229532,2.81968748 9.36229532,4.7244367 C9.36229532,7.33252793 7.26440261,9.45008683 4.68053325,9.45008683 C4.11163168,9.45008683 3.57488907,9.29346925 3.06173113,9.15952233 C2.71563712,9.06918323 6.35244972,8.55487569 7.28264959,6.09632396 C8.55487033,2.73379874 6.63354846,0.428965343 6.63354846,0.428965343 Z" opacity=".48" style="mix-blend-mode:multiply"/>
                <path fill="#FFFFFF" d="M3.55631892,1.53199237 C4.84819264,1.53199237 5.89719996,2.59071029 5.89719996,3.89481743 C5.89719996,5.19892458 4.84819264,6.2576425 3.55631892,6.2576425 C2.26432328,6.2576425 1.21543789,5.19892458 1.21543789,3.89481743 C1.21543789,2.59071029 2.26432328,1.53199237 3.55631892,1.53199237 Z"/>
              </g>
            </g>
            <g transform="translate(32.513 60.054)">
              <mask id="k" fill="white">
                <use xlink:href="#j"/>
              </mask>
              <use fill="#7CCABC" xlink:href="#j"/>
              <path fill="#4EA09B" d="M1.23221331,8.3703867 C1.23221331,8.3703867 7.01976864,7.34717313 7.69234086,4.86836923 C8.36491307,2.38956533 7.20232094,0.201496293 7.20232094,0.201496293 C7.20232094,0.201496293 11.2026372,0.711932194 13.0058514,1.80043161 C14.8090655,2.88893102 16.7339578,4.5433593 16.7339578,4.5433593 C16.7339578,4.5433593 12.0771148,6.81331948 9.41230161,7.59185309 C6.74748844,8.3703867 1.23221331,8.3703867 1.23221331,8.3703867 Z" style="mix-blend-mode:multiply" transform="translate(27.38 7.966)" mask="url(#k)" opacity=".165"/>
              <path fill="#4A98AA" d="M17.5632966,15.3120884 C17.5632966,15.3120884 12.8125433,11.0423415 24.5212221,7.23956159 C29.0506036,5.76849545 41.175737,6.89111628 41.5866377,6.9802956 C46.4696187,8.04006713 49.8884196,9.5769959 49.8884196,9.5769959 C49.8884196,9.5769959 59.0499742,2.49425247 56.3021944,0.416794396 C53.5544145,-1.66066368 33.2977286,3.34123058 29.8927165,3.34123058 C26.4877044,3.34123058 0.547009384,-0.709640573 -0.142421514,1.46163973 C-0.831852411,3.63292003 2.56438652,8.49266878 8.01662009,11.0423415 C13.4688537,13.5920143 17.5632966,15.3120884 17.5632966,15.3120884 Z" opacity=".522" style="mix-blend-mode:multiply" mask="url(#k)"/>
            </g>
          </g>
        </g>
      </g>
    </g>
  </g>
</svg>
