<svg xmlns="http://www.w3.org/2000/svg" width="292" height="252" viewBox="0 0 292 252" xmlns:xlink="http://www.w3.org/1999/xlink">
  <defs>
    <rect id="a" width="292" height="252"/>
    <rect id="c" width="292" height="252"/>
    <path id="e" d="M0,10.196947 C2.25526242,4.34476728 10.5132777,0 20.3434426,0 C28.0834082,0 34.8486554,2.69343107 38.4766236,6.69534228 C31.7849978,9.93110275 23.662525,12.3191917 14.8987002,12.3191917 C9.65124152,12.3191917 4.62698702,11.5084931 0,10.196947 Z"/>
  </defs>
  <g fill="none" fill-rule="evenodd">
    <g opacity=".5">
      <mask id="b" fill="white">
        <use xlink:href="#a"/>
      </mask>
      <g transform="translate(-21)" opacity=".314" mask="url(#b)">
        <g transform="translate(115.131)">
          <path stroke="#81BFF1" stroke-width="2" d="M35.7787828,133.012119 C31.3877993,117.81624 33.1076728,126.184571 31.2980657,107.737176 M37.3580058,107.75112 C39.7964318,117.766145 39.2910341,122.391128 43.897497,124.11135 C48.5039599,125.831572 70.6711778,100.346273 81.6165752,89.2829502 M72.6110652,114.587926 C77.1067868,108.309592 81.6025084,102.031258 86.0982301,95.7529236 M73.8920739,113.904674 C107.971634,113.248931 95.3094923,121.315306 114.351693,95.6896397 M69.6242331,125.296847 C104.064751,126.886869 100.810747,129.420084 119.217838,97.3468196 M56.9051108,154.409582 C50.3585509,141.581227 61.8373694,137.38087 70.904304,125.745198 M17.2135344,153.297288 C30.6044536,142.128442 24.4555315,148.429382 35.6512446,134.382912 M34.9254022,74.5045527 C35.2889603,69.3377079 34.6516633,72.315346 38.2123242,66.1113925 M38.5958766,74.229965 C39.9615982,71.6406885 41.3273197,69.051412 42.6930413,66.4621355 M39.6758268,10.0615794 C47.5805949,0.844122111 49.881855,0.0426314951 73.9466352,0.872852534 C98.0114155,1.70307357 97.6663644,-0.105539219 104.405116,9.62214707" stroke-linecap="round" stroke-linejoin="round"/>
          <path stroke="#81BFF1" stroke-width="2" d="M38.7922728,10.1626926 C35.5953066,10.0899723 14.1015025,10.1626926 14.1015025,10.1626926 C14.1015025,10.1626926 4.04122015,14.7893029 2.79927488,26.0740783 C1.5573296,37.3588537 10.9424028,42.7474718 10.9424028,42.7474718 C10.9424028,42.7474718 5.40597417,50.2242737 10.2122402,58.9681027 C15.3463755,68.3084096 28.9418262,65.9003614 38.0860031,66.0312669 C47.23018,66.1621724 68.329927,69.4904301 72.0227908,50.2242737" stroke-linecap="round" stroke-linejoin="round"/>
          <path stroke="#81BFF1" stroke-width="2" d="M50.1542323,50.1242536 C53.4413379,50.0893721 63.0369918,50.1247667 72.9844741,50.1242536 C82.9319563,50.1237406 93.3332145,51.7841492 94.8561386,44.6532118 L50.1542323,50.1242536 Z M89.7602923,44.5903577 C109.669327,44.2902975 136.39584,44.7031004 156.294918,43.9230108 C157.212271,43.8870484 162.811905,43.9230108 162.173013,38.2366252 C161.534121,32.5502396 156.043778,33.7471238 155.138987,33.6586585 C147.446286,32.90651 142.046956,34.0489709 134.422059,32.6617374 C130.605298,31.9673361 134.422059,19.6738884 128.400607,13.9640009 C121.876282,7.77725906 115.705584,11.0032207 105.884077,9.80032486 L89.7602923,44.5903577 Z M12.1948608,73.9907857 C6.67989732,76.4575574 6.62974843,80.7022175 9.0061341,81.7038069 C11.3825198,82.7053963 27.6837562,81.0732036 30.2888423,83.5249369 C31.9422207,85.0809865 30.6778361,86.9532367 30.2888423,87.3672371 C22.5636534,95.5890418 6.6537822,81.32754 0.472598643,92.402126 C-0.267700782,93.7284916 0.106297552,97.2045178 1.30597785,97.9748276 L13.5868526,98.7684292 C20.5837621,103.261116 14.9957341,107.348991 23.2572052,107.273959 C36.5096348,107.153599 44.2746278,106.955657 57.4735381,105.589468 C59.302407,105.400166 62.7777109,104.603601 62.4580441,101.335064 C62.4055516,100.798336 61.4969894,99.1827555 61.9534292,99.0444408 C62.1798051,98.9758423 72.1116718,100.307536 71.3542716,93.3624277 C71.1910885,91.8660935 69.7534572,88.9336713 65.1560137,88.9336713 C59.0491502,88.9336713 54.7967569,89.8550299 48.73118,89.6737103 C47.7766228,89.6451755 46.884547,88.8506958 46.2515902,88.0329443 C45.8800795,87.5529694 45.8402933,86.7506444 45.9906813,86.13311 C47.890056,78.3337534 59.0605656,86.693623 60.8008428,76.8432699 C60.9495942,76.0013043 60.6386122,74.8055912 59.9526501,74.4559062 C57.9681731,73.4442732 55.7087743,73.2098648 53.5369682,73.140342 C40.797838,72.7325428 28.0488171,73.0645527 15.3047415,73.026658 L12.1948608,73.9907857 Z M101.273254,56.9780863 C93.4845883,57.6285147 79.3873935,53.9999861 73.8276493,64.5490026 C72.7855272,66.5263173 74.5687222,69.7645327 73.1753772,71.4350822 C71.6968556,73.2077539 62.666422,68.8554136 63.8457352,76.4858212 C64.0182965,77.6023297 65.1399556,78.447348 66.1074231,78.6944606 C70.8270241,79.8999512 75.7053011,80.0586685 80.50424,80.7407724 L101.273254,56.9780863 Z M80.3087973,82.2017209 C80.3087973,101.142129 99.5247824,94.8676474 119.911034,95.5623222 C140.297287,96.2569969 147.501907,97.5069742 152.249875,87.0261851 L80.3087973,82.2017209 Z" stroke-linecap="round" stroke-linejoin="round"/>
          <rect width="7.419" height="2.897" x="19.839" y="25.486" stroke="#81BFF1" stroke-width="2" rx="1.448"/>
          <rect width="7.419" height="2.897" x="55.804" y="16.671" stroke="#81BFF1" stroke-width="2" rx="1.448"/>
          <rect width="7.419" height="2.897" x="80.637" y="30.383" stroke="#81BFF1" stroke-width="2" rx="1.448"/>
          <rect width="7.419" height="2.897" x="101.189" y="79.355" stroke="#81BFF1" stroke-width="2" rx="1.448"/>
          <rect width="7.419" height="2.897" x="145.717" y="70.54" stroke="#81BFF1" stroke-width="2" rx="1.448"/>
          <rect width="7.419" height="2.897" x="122.597" y="62.704" stroke="#81BFF1" stroke-width="2" rx="1.448"/>
          <rect width="7.419" height="2.897" x="46.385" y="37.239" stroke="#81BFF1" stroke-width="2" rx="1.448"/>
          <rect width="7.419" height="2.897" x="28.402" y="52.91" stroke="#81BFF1" stroke-width="2" rx="1.448"/>
          <rect width="7.419" height="2.897" x="34.396" y="90.283" stroke="#81BFF1" stroke-width="2" rx="1.448"/>
          <rect width="7.419" height="2.897" x="108.04" y="20.589" stroke="#81BFF1" stroke-width="2" rx="1.448"/>
          <path stroke="#81BFF1" stroke-width="2" d="M153.454547,87.2890793 C162.554978,87.0502337 163.527179,88.0443577 172.606022,87.2890793 C186.178557,86.1599662 174.310575,84.8133379 184.909834,81.4403662 C189.035393,80.1275014 191.123645,81.6734035 195.333286,80.7752055 C195.747656,80.6867926 198.338994,79.6290742 197.700102,77.0312858 C197.06121,74.4334973 193.922658,73.026658 193.922658,73.026658 C193.922658,73.026658 183.39765,72.9386812 175.27532,71.8909112 C171.468408,71.3998245 177.177086,61.7202503 172.07847,59.4015229 C163.912308,55.6877493 154.229903,59.3819094 146.155312,57.3388144 C143.99738,56.7927981 143.315573,53.3419037 141.436015,52.0120637 C137.029065,48.8940229 136.63835,50.7926936 125.869409,50.1340917 C115.100468,49.4754897 105.188709,47.7070601 100.550259,56.8031879 L153.454547,87.2890793 Z M40.9743979,151.332653 C45.6239276,147.071872 55.7776306,133.6404 60.4271602,129.379619 L40.9743979,151.332653 Z M33.8955727,145.556973 C37.7522014,141.355016 41.6088301,137.153058 45.4654589,132.9511 L33.8955727,145.556973 Z M58.264209,118.218024 C62.9391048,113.270972 73.7930247,101.910748 78.4679205,96.9636959 L58.264209,118.218024 Z M70.2793964,121.607296 C77.0692985,122.908103 84.2150234,122.353826 90.5391363,121.928672 L70.2793964,121.607296 Z M97.5849298,121.886587 C105.101585,118.661542 103.443672,117.574316 107.452218,112.624553 L97.5849298,121.886587 Z M34.2760648,111.903849 C34.2760648,120.856463 35.6012365,122.835252 36.4829189,125.753619 L34.2760648,111.903849 Z" stroke-linecap="round" stroke-linejoin="round"/>
        </g>
        <g transform="translate(130.297 120.026)">
          <path stroke="#81BFF1" stroke-width="2" d="M0.0206959073,75.4660343 C12.483539,74.4007099 6.65691579,73.5371368 17.5676267,77.3713782 M8.08485131,73.8202723 C14.1009451,54.9167723 24.2421018,52.2762743 40.8729559,55.6299272"/>
          <path stroke="#81BFF1" stroke-width="2" d="M39.3401613,55.4841167 C43.7812953,44.0530538 46.8361262,36.3905843 58.5397701,33.9466697 C72.3471657,31.0634568 86.3426603,50.1574318 77.6360509,64.9951433 C67.8260766,81.7131978 45.5142573,73.6901072 50.1479335,61.8474682 C54.1629761,51.585918 72.1430257,52.4933609 65.6328701,63.6736952 M80.8317993,56.4825588 C90.7481869,52.9918361 95.8534681,55.7155511 95.0956381,68.4337855 M95.9005694,67.5419224 C109.449249,45.3478022 138.594312,72.5445041 127.493836,96.7622076 C118.42391,116.5499 83.2807392,113.951986 88.2143722,92.5403927 C92.768476,72.7759273 113.38491,84.2909124 106.735173,94.3337769 C102.012999,101.465509 97.3819854,93.4785299 97.3819854,93.4785299 M74.5080767,27.7215095 C80.2571741,22.5945108 85.8495526,19.1629499 90.5449165,15.1310531 C95.2402803,11.0991563 107.255313,0.0204814335 110.509191,0.372259826 C113.875591,0.736203143 120.594663,5.11352218 128.944111,17.7789095 C137.293559,30.4442969 137.73721,30.2944454 141.578376,35.1937474"/>
          <path stroke="#81BFF1" stroke-width="2" d="M97.342563,9.87140045 C99.3234418,9.81293027 98.1679079,12.203004 106.223472,19.071984 C106.223472,19.071984 112.512404,12.9473792 113.080179,12.9473792 C113.647953,12.9473792 117.615902,16.4647736 119.002546,16.9961294 C120.38919,17.5274851 124.152655,12.358113 124.152655,12.358113 M146.602888,43.8676656 C143.095319,44.4596255 138.48654,44.7451438 138.48654,44.7451438 C138.48654,44.7451438 136.44102,45.3650017 136.44102,48.5976784 C136.44102,51.8303551 138.48654,51.8303551 138.48654,51.8303551 C145.768289,54.5484435 150.536583,50.885394 157.962649,52.6441359 C163.281288,53.9037682 161.165197,61.6345328 156.5933,62.042972 C148.62442,62.754887 140.465408,62.1142425 132.480985,62.042972 M135.975377,73.692116 C147.355976,73.6879749 158.743853,73.100864 170.117175,73.6796927 C174.143853,73.8846246 171.841847,83.1668115 168.112566,83.1668115 C146.814662,83.1668115 145.387987,82.420474 145.387987,82.420474 C145.387987,82.420474 142.217201,82.4427051 141.340615,86.9307903 C140.464029,91.4188754 143.38825,92.7993212 143.883495,92.8181328 C155.898626,93.2745192 167.736864,93.2845519 179.751805,92.8181328"/>
        </g>
        <path stroke="#81BFF1" stroke-width="2" d="M11.7681064,26.3198197 C4.687203,25.9967174 6.201415,28.2536416 5.4786826,21.7263528 M7.0007534,6.14880451 C11.3651466,2.0509186 16.7094378,1.17498659 17.0724453,9.2401077 M17.9897198,7.81129688 C16.3580802,-0.04571452 20.8001315,-1.57709052 25.3091301,3.63489389 M24.9416705,3.96445824 C28.4262856,-0.34906565 33.9765913,1.98134767 30.0215016,7.34079005 M31.9609735,8.9608425 C37.4003398,10.7503522 41.3555344,14.8248805 35.0051152,18.8462013 M28.7495966,22.1916201 C31.6982577,23.6406445 36.7714796,26.0083898 35.10958,19.6557036 M22.3896132,23.2012712 C21.0751596,31.0267123 22.6773177,26.1295785 12.3596156,33.9013718 M11.8175898,34.2225529 C11.0771402,50.9911163 7.2493497,46.9229498 16.3008718,51.4012915 M34.6509428,40.7656367 C30.6641218,52.7692178 34.0059191,47.0552876 22.8899447,56.3987236 M22.8482504,56.7309077 L22.4106894,71.9836072 M24.9961938,58.0900332 C36.462892,64.616634 32.5625222,67.8892601 32.5446937,85.6691731 M33.5664329,87.3479079 C42.5735524,92.7518866 40.9028361,94.0444184 40.4684422,107.029554 M0.8286234,58.0994643 C14.679901,65.8351163 10.9012471,59.4464463 10.7124619,78.2893417 M12.4430042,80.2918774 C35.6525825,96.8140333 29.0219285,84.6082203 28.2281888,119.438255 M40.2135795,45.5461719 C46.5307494,45.7135948 50.052153,38.6104709 43.0213621,35.6708863 M42.498154,35.9461797 C46.276365,29.7913344 39.1267174,27.1769388 34.9554894,30.5530578 M34.9004467,31.8624306 C32.8611621,27.4654474 28.0944017,29.2150482 26.5871842,33.3281258 M26.4045151,35.4557701 C19.4579017,37.0997583 21.4182566,39.9545118 27.2476967,42.61824" transform="translate(12.16 118.251)"/>
        <g transform="matrix(-1 0 0 1 102.604 22.646)">
          <path stroke="#81BFF1" stroke-width="2" d="M62.5453681,14.3976655 C74.444439,9.42490552 85.4854025,9.74159292 92.1437116,22.9663019 M46.4846251,2.91606064 C39.8852908,-2.32050865 25.0487184,-0.620087842 24.3629505,10.9430391 M24.6225715,11.2841708 C14.3056267,6.66229726 1.58737498,23.9528848 11.2031219,33.1029577 C11.2947851,33.1901819 11.2345597,32.8324254 11.2502786,32.6971593"/>
          <path stroke="#81BFF1" stroke-width="2" d="M10.4719339,32.3690795 C-1.04268038,34.943955 -2.842207,50.797108 4.29285151,59.9165068 C10.8288033,68.2701804 16.1923301,70.0988885 25.4242354,72.010369 M24.4572639,72.3093784 C27.9276378,80.1620216 30.4376009,83.2048777 38.4664314,83.9802372 C42.6903449,84.3881486 45.68102,84.6555344 49.621323,83.0108298 C53.7105437,81.303966 55.7844791,76.7021995 59.5978152,75.2359922"/>
          <path stroke="#81BFF1" stroke-width="2" d="M28.9148676,61.9840618 C30.8136332,74.5170912 35.881138,73.8096162 47.4044398,75.5711912 C49.715728,75.9245194 59.9990146,76.3209143 62.0266444,75.7473932 C67.1147372,74.308211 71.7704287,71.2612334 76.8141566,69.6301593 C78.1592352,69.1951788 102.298077,60.2892462 101.365179,71.8513719 C101.016736,76.1698876 91.922507,79.2695391 90.7756491,71.8869683 M77.3416898,26.5164452 C81.8445026,28.1802428 84.2230892,31.6790549 84.5022534,37.2457804 M63.8191172,19.5775287 C70.1931516,21.4501654 78.7130069,27.2211873 80.3752648,35.3769717 C80.865699,37.7832625 79.7668469,39.7053463 78.6537861,41.7938083 C74.9871266,48.6736471 69.7908103,54.5705558 62.0266444,53.1472663 C58.7448523,52.5456639 57.1024457,51.5048505 54.1732401,48.8632447 C43.7200056,39.4363461 60.5358098,29.4101654 64.8570829,40.6126025 C66.5078663,44.8920816 60.6959763,45.0426934 59.0314166,43.5742194 C58.7417799,43.318702 58.8756355,41.910344 58.9371032,42.3230074 M63.2060801,18.5090447 C58.5814649,1.73423451 38.2193634,-2.45840806 33.5844174,15.9846698 M32.7822353,16.5915876 C25.5536741,14.2942849 15.381915,20.1356332 17.6179877,30.5815491 C18.1966952,33.2850073 20.845978,34.6166748 22.5704777,35.9055776 M20.7546856,35.9880425 C12.2993093,41.3663005 12.5556084,50.2402969 20.447908,57.2722907 C23.0914795,59.6276979 25.538956,59.8660197 28.7967168,60.8687093"/>
        </g>
      </g>
    </g>
    <mask id="d" fill="white">
      <use xlink:href="#c"/>
    </mask>
    <g transform="translate(20 64)" mask="url(#d)">
      <g transform="rotate(-44 108.95 -160.69)">
        <path fill="#244C66" fill-rule="nonzero" stroke="#264063" stroke-width="1.075" d="M0.857003327,13.7766803 C1.71791808,14.0588047 11.0775525,25.4304722 11.0775525,25.4304722 C11.0775525,25.4304722 12.2479464,18.1747489 12.2479464,18.1747489 L1.15100853,11.3158326 C1.15100853,11.3158326 -0.00391142217,13.494556 0.857003327,13.7766803 Z" stroke-linecap="round" stroke-linejoin="round"/>
        <polygon fill="#244C66" fill-rule="nonzero" stroke="#264063" stroke-width=".896" points="1.98 10.582 23.198 2.612 22.692 13.41 1.593 13.621" stroke-linecap="round" stroke-linejoin="round" transform="rotate(15 12.396 8.117)"/>
        <path fill="#244159" fill-rule="nonzero" d="M1.69801113,7.34552934 L0.257061429,13.5775079 C0.257061429,13.5775079 10.6934786,25.884892 11.2090768,25.884892 C11.7246749,25.884892 12.8489214,18.2444203 12.8489214,18.0329384 C12.8489214,17.8214564 11.7027416,17.3712045 11.7027416,17.3712045 L9.13737923,20.8434353 L2.07353539,13.6906533 L2.94704468,11.7518747 C2.94704468,11.7518747 20.6397204,16.2991525 21.1141105,16.2991525 C21.5885007,16.2991525 24.9643973,5.58661852 24.6900652,5.34352243 C24.4157331,5.10042635 22.238357,5.34202492 22.238357,5.34202492 L16.4358427,12.2701801 C16.4358427,12.2701801 11.4202676,11.6483799 7.18365614,10.3851455 C2.94704468,9.12191113 1.69801113,7.34552934 1.69801113,7.34552934 Z" style="mix-blend-mode:darken"/>
      </g>
      <ellipse cx="118.5" cy="172.5" fill="#252527" fill-rule="nonzero" rx="118.5" ry="10.5"/>
      <g transform="translate(9.42)">
        <g transform="translate(50.142 127.079)">
          <path fill="#FFFFFF" fill-rule="nonzero" d="M0.208292428,0.323198037 C0.208292428,0.323198037 2.6362163,10.3616608 3.12876197,18.9238882 C3.62130764,27.4861156 0.400338627,37.7911468 10.4290035,41.197126 C26.1584573,46.4715726 32.0258105,29.6681197 45.7235523,30.4737348 C59.421294,31.27935 60.1605786,43.9894069 76.039816,41.5458112 C88.6706331,39.6021026 81.6069805,29.3878651 81.6069805,22.5578659 C81.6069805,15.7278666 83.5094187,1.77299431 83.5094187,1.77299431 L0.208292428,0.323198037 Z" transform="translate(1 1)"/>
          <path stroke="#297BCC" stroke-width="1.5" d="M0.479311126,1.499511 C0.502155307,1.59396226 0.545557594,1.77774029 0.606579894,2.04308016 C0.708620486,2.48677758 0.822413094,2.99653723 0.945019511,3.56458753 C1.29555495,5.18866044 1.64616685,6.95292098 1.97335386,8.79504506 C2.45683918,11.5171578 2.84614598,14.1694842 3.10716927,16.6603789 C3.22788716,17.8123663 3.31958076,18.9166587 3.37999984,19.9669611 C3.46275909,21.4056166 3.44974425,22.7749878 3.36326424,25.2193684 C3.35507508,25.4496093 3.35507508,25.4496093 3.34678908,25.6800831 C3.15616002,30.9818845 3.24260777,33.2392392 4.01361091,35.7821844 C5.05600249,39.2202308 7.31771787,41.5929073 11.1878156,42.9072868 C15.4102094,44.3231582 19.1801844,44.2951815 22.8870065,43.0383905 C25.6661464,42.0961283 27.6724695,40.9128215 31.993542,37.9535311 C32.0106764,37.9417965 32.0106764,37.9417965 32.0278091,37.9300633 C38.6700604,33.3811337 41.8449812,31.9381039 46.6795181,32.222441 C51.5359348,32.508065 54.3205172,33.9168975 59.2091064,37.7365708 C59.4548863,37.9287145 59.4548863,37.9287145 59.7010966,38.1211458 C65.8788111,42.9462312 69.731378,44.4293075 77.1538879,43.2870855 C81.5818141,42.6056887 84.0722939,40.8731809 84.9561843,38.1017477 C85.6218485,36.0145619 85.4046561,33.8677716 84.4685073,29.905854 C84.4266404,29.7286671 84.3948477,29.5951619 84.3209289,29.2856687 C83.5883973,26.2196659 83.3569805,24.9752439 83.3569805,23.5578659 C83.3569805,21.4723803 83.5363596,18.5732564 83.8589092,15.07324 C83.9879763,13.6727205 84.1376031,12.202731 84.3037413,10.685836 C84.5113441,8.79035568 84.7338138,6.91887468 84.956275,5.15395421 C85.034125,4.53632237 85.106403,3.97620363 85.1712502,3.48390367 C85.2101135,3.1888654 85.2378313,2.98223147 85.2525449,2.87430313 L85.3665837,2.03779907 L84.52247,2.02310787 L1.22134366,0.573311602 L0.251214883,0.556427207 L0.479311126,1.499511 Z"/>
          <path fill="#D6E1EB" fill-rule="nonzero" d="M2.23338574,6.50320945 C2.23338574,6.50320945 26.0067063,23.6295305 42.1839671,23.6295305 C58.361228,23.6295305 64.1094637,25.7925163 67.1914915,29.5802466 C70.2735194,33.3679769 68.5231965,42.7490493 68.5231965,42.7490493 C68.5231965,42.7490493 77.0801287,43.2781425 79.8082413,42.0560336 C82.5363539,40.8339248 84.605978,38.8475701 84.605978,34.8484217 C84.605978,30.8492733 82.5363539,23.6295305 82.5363539,23.6295305 L84.2287222,2.71432973 C84.2287222,2.71432973 67.4386225,18.8086979 40.9996713,18.8086979 C14.5607202,18.8086979 2.23338574,6.50320945 2.23338574,6.50320945 Z" style="mix-blend-mode:multiply"/>
        </g>
        <g transform="translate(3 84)">
          <path fill="#FFFFFF" fill-rule="nonzero" d="M25.5564211,0.4197039 C25.5564211,0.4197039 20.9508545,5.0265279 15.7843973,11.6848973 C10.6177602,18.343267 3.5691876,28.7157 3.5691876,28.7157 L11.8754438,25.953914 C11.8754438,25.953914 9.8336654,28.748164 7.9666703,31.017218 C6.0996752,33.286272 5.03495517,35.620074 5.03495517,35.620074 L10.4096763,35.159807 C10.4096763,35.159807 6.5765042,42.243635 5.03495517,49.889091 C3.49358618,57.534727 4.05771679,67.840428 4.05771679,67.840428 C4.05771679,67.840428 -3.49450525,73.564555 2.10342003,75.205251 C7.7013453,76.845765 9.4324379,73.824267 9.4324379,73.824267 C9.4324379,73.824267 9.2184138,80.657401 14.807159,80.268374 C20.3959041,79.879347 20.18188,75.665518 20.18188,75.665518 C20.18188,75.665518 20.604348,80.701408 25.5564211,80.268374 C30.5084943,79.83534 30.442433,76.125786 30.442433,76.125786 C30.442433,76.125786 33.1255635,81.475675 38.2601601,79.347839 C43.3949366,77.220003 37.5721871,71.339328 38.2601601,64.158107 C38.948133,56.976887 41.289977,56.030561 44.1234103,53.571412 C46.9570236,51.112263 48.520893,46.667037 48.520893,46.667037 L25.5564211,0.4197039 Z" transform="translate(1 1)"/>
          <path stroke="#066F99" stroke-width="1.5" d="M10.8424603,28.420241 C10.3151481,29.113789 9.7849232,29.798528 9.2697303,30.447661 C9.1192937,30.637208 8.9715488,30.821914 8.8267815,31.001354 C8.6767788,31.187284 8.5302626,31.367201 8.3875175,31.540687 C8.3355573,31.603837 8.2838656,31.667436 8.2324431,31.731472 C7.4295273,32.731348 6.72021656,33.799111 6.1096712,34.86684 C5.89582342,35.24082 5.70929497,35.58866 5.55090865,35.901825 C5.45456448,36.092319 5.38817406,36.230824 5.35261062,36.308777 L4.81969836,37.476888 L6.09894767,37.367339 L10.1297471,37.022159 C10.0219021,37.242174 9.9096658,37.47486 9.7936273,37.719595 C9.0817393,39.221025 8.3701776,40.87037 7.7058338,42.618379 C6.66045185,45.368968 5.83144545,48.103863 5.29975094,50.740852 C4.99425502,52.2562 4.7573611,53.933716 4.58254622,55.746791 C4.20270105,59.686315 4.13920433,63.851662 4.25770916,67.605873 C4.26812514,67.935849 4.27924741,68.232074 4.29042774,68.491416 C4.1884866,68.57456 4.07179139,68.671667 3.9429445,68.781531 C3.45400853,69.198434 2.96500805,69.65245 2.50647523,70.130305 C1.76885909,70.899003 1.18004105,71.656035 0.79257205,72.390052 C-0.28397932,74.429459 0.32583364,76.172718 2.8924762,76.924975 C5.90658149,77.808281 8.1945147,77.522831 9.8038445,76.458849 C9.8992348,77.091218 10.0498513,77.715872 10.267607,78.311749 C11.1622532,80.759903 12.9896989,82.21631 15.8592397,82.016564 C18.4303552,81.837591 20.1546437,80.883057 21.1213712,79.388663 C21.1531621,79.33952 21.1838602,79.290342 21.2134923,79.24116 C21.2322341,79.276077 21.2513695,79.311022 21.2709048,79.345984 C22.3015516,81.190511 24.0699893,82.238662 26.6217555,82.015523 C28.8883604,81.81732 30.4424919,80.961143 31.3538221,79.644467 C31.5183605,79.406744 31.6543245,79.168681 31.7653742,78.934551 C31.9247802,79.124809 32.1000797,79.318961 32.2914108,79.513206 C34.2174367,81.468561 36.6768984,82.230223 39.5472897,81.0407 C41.3398473,80.29787 42.1551906,79.054499 42.1468323,77.310265 C42.1411787,76.130487 42.0750328,75.871976 41.0189474,72.30586 C40.1345476,69.319479 39.8013527,67.373531 40.0067418,65.229631 C40.4659964,60.435825 41.4443716,58.609123 44.008587,56.472802 C44.1196059,56.380309 44.2352097,56.285052 44.3890683,56.159043 C44.5843764,55.999283 44.696283,55.907749 44.7844743,55.835368 C45.1167476,55.562663 45.3654068,55.354462 45.6150085,55.137831 C46.4795497,54.38754 47.2741727,53.434723 48.0032212,52.326551 C48.6378231,51.361941 49.1888056,50.33294 49.6556512,49.30427 C49.8190554,48.944217 49.9605102,48.609366 50.079752,48.307896 C50.1522951,48.12449 50.201945,47.9911 50.2283869,47.91594 L50.3335002,47.61716 L50.1926358,47.333478 L27.2281639,1.0861448 L26.7639608,0.1513026 L26.0260187,0.8894462 C25.9881878,0.9272874 25.9163406,0.9999013 25.8124499,1.1060438 C25.6404109,1.2818117 25.44028,1.4886141 25.2140295,1.7252077 C24.5688518,2.3998799 23.8429099,3.1787541 23.0519785,4.0518961 C20.7933581,6.5452806 18.4646202,9.2960526 16.1918542,12.2251227 C15.1557504,13.5603746 14.0002407,15.100889 12.7458038,16.8141797 C12.4555847,17.210557 12.1607754,17.615226 11.8617043,18.027669 C10.0742861,20.492663 8.2079803,23.13282 6.37384352,25.772856 C5.73195798,26.696779 5.13990581,27.554745 4.61159944,28.324804 C4.42663292,28.594412 4.26282561,28.833804 4.12191722,29.040237 C3.97913881,29.249606 3.97913881,29.249606 3.94886256,29.294159 L2.70384157,31.126288 L4.80582117,30.427391 L10.8424607,28.420241 L10.8424603,28.420241 Z"/>
        </g>
        <path fill="#D6E1EB" fill-rule="nonzero" d="M34.9697365,109.825505 C34.9697365,109.825505 40.2230425,120.009317 43.5697635,123.198111 C46.9164846,126.386906 51.993034,131.914317 51.993034,131.914317 C51.993034,131.914317 52.7632405,135.249192 49.1764968,138.378271 C45.589753,141.507351 41.7009163,145.675797 42.5722126,150.873801 C43.4435088,156.071806 46.3734506,163.985575 43.5697635,164.901579 C40.7660765,165.817584 37.6724198,164.409414 36.3210782,163.408976 C34.9697365,162.408537 34.5529572,162.6335 34.5529572,162.6335 C34.5529572,162.6335 32.9230485,166.474824 29.3743199,166.161805 C25.8255913,165.848786 23.8312961,160.502093 23.8312961,160.502093 C23.8312961,160.502093 26.4004422,166.161805 18.5268704,166.161805 C10.6532986,166.161805 13.0086312,158.585649 13.0086312,158.585649 C13.0086312,158.585649 13.5592301,161.813036 7.70618543,161.043696 C1.85314072,160.274356 7.36379685,158.660085 10.6092367,156.30286 C13.8546765,153.945635 13.0086312,157.795186 13.0086312,157.795186 C13.0086312,157.795186 15.4207899,166.513336 20.3080959,159.814673 C25.1954019,153.11601 23.8312961,160.331557 23.8312961,160.331557 C23.8312961,160.331557 27.1527662,166.657486 31.0169928,161.043696 C34.8812195,155.429907 35.9045764,160.059922 37.8491764,153.309598 C39.7937765,146.559275 36.9018498,135.461403 34.5529572,133.273047 C32.2040646,131.084691 31.7320662,129.837337 31.7320662,129.837337 C31.7320662,129.837337 32.3050684,133.892419 32.9238552,134.71399 C33.5426421,135.535561 29.7669325,132.288717 28.9081229,130.465041 C28.0493134,128.641365 28.314587,123.378924 31.4337721,117.369069 C34.5529572,111.359215 34.9697365,109.825505 34.9697365,109.825505 Z" style="mix-blend-mode:multiply"/>
        <g fill-rule="nonzero" transform="translate(0 82.725)">
          <path fill="#FFFFFF" stroke="#066F99" stroke-width="1.5" d="M30.2097718,0.365898235 C30.2097718,0.365898235 11.0278335,12.2386024 5.88178421,27.8429963 C0.73573488,43.4473902 0.475620395,64.2637947 0.475620395,64.2637947 C0.475620395,64.2637947 9.70657549,59.2401402 20.5006341,61.1480356 C31.2946927,63.055931 46.6578789,70.4352347 46.6578789,70.4352347 C46.6578789,70.4352347 43.3149843,67.5796148 45.6663661,61.8911777 C48.017748,56.2027406 53.8711432,48.6020204 53.8711432,48.6020204 L30.2097718,0.365898235 Z" stroke-linecap="round" stroke-linejoin="round"/>
          <path fill="#244C66" stroke="#066F99" stroke-width="1.344" d="M7.12198459,68.0949058 C7.12198459,68.0949058 -0.266494138,67.0565922 0.332128639,64.5465233 C0.930751416,62.0364544 9.61071768,58.3774652 25.1619421,61.6628314 C40.7131664,64.9481976 47.6887563,70.4849281 47.6887563,71.7562753 C47.6887563,73.0276226 44.2127772,74.0191483 44.2127772,74.0191483 L43.4558779,69.3933193 C43.4558779,69.3933193 34.5087806,63.7543469 24.924157,62.3328516 C15.3395334,60.9113562 6.79619102,62.0230835 6.79619102,62.0230835 L7.12198459,68.0949058 Z" stroke-linecap="round" stroke-linejoin="round"/>
          <path fill="#D6E1EB" d="M6.16642918,61.5183947 L6.69775761,66.2304178 C6.69775761,66.2304178 17.9084704,65.847817 26.8289197,67.6857299 C35.749369,69.5236427 44.5794132,73.4328391 44.5794132,73.4328391 L45.5832274,72.9100571 L44.0874189,69.0338819 C44.0874189,69.0338819 33.3602943,63.3148724 25.5646752,61.7019161 C17.7690561,60.0889598 6.16642918,61.5183947 6.16642918,61.5183947 Z" style="mix-blend-mode:multiply"/>
          <path fill="#D6E1EB" d="M25.7560849,61.2964323 C25.7560849,61.2964323 23.7357903,44.6123381 25.1044214,39.7249247 C26.4730525,34.8375112 32.3880157,48.4245089 33.2023015,44.7187515 C34.0165874,41.012994 28.1027925,34.8041839 28.9895113,29.472407 C29.87623,24.1406301 37.0926486,13.4542734 37.0926486,14.2699142 C37.0926486,15.085555 52.8970376,47.0230099 52.8970376,47.0230099 C52.8970376,47.0230099 47.2145607,54.4286779 45.8067924,58.3180277 C44.3990242,62.2073774 43.3090261,67.0918674 43.3090261,67.0918674 C43.3090261,67.0918674 41.8895467,67.6779565 35.7923331,64.6995519 C29.6951195,61.7211472 25.7560849,61.2964323 25.7560849,61.2964323 Z" opacity=".7" style="mix-blend-mode:multiply"/>
        </g>
        <g transform="translate(132 84)">
          <path fill="#FFFFFF" fill-rule="nonzero" d="M23.652219,0.4197039 C23.652219,0.4197039 32.816551,9.081644 36.880488,16.446286 C42.33135,26.324545 48.356424,43.745817 47.197742,42.112877 C45.411568,41.869217 42.33333,40.261346 40.527176,40.357295 C40.527176,40.357295 42.632316,42.243635 44.173685,49.889091 C45.715234,57.534727 45.150923,67.840428 45.150923,67.840428 C45.150923,67.840428 52.703685,73.564555 47.1054,75.205251 C41.507475,76.845765 39.776382,73.824267 39.776382,73.824267 C39.776382,73.824267 39.990406,80.657401 34.401661,80.268374 C28.812916,79.879347 29.02694,75.665518 29.02694,75.665518 C29.02694,75.665518 28.604472,80.701408 23.652219,80.268374 C18.700146,79.83534 18.766207,76.125786 18.766207,76.125786 C18.766207,76.125786 16.083257,81.475675 10.94848,79.347839 C5.813883,77.220003 11.636453,71.339328 10.94848,64.158107 C10.260687,56.976887 7.918843,56.030561 5.08523,53.571412 C2.251796,51.112263 0.687747,46.667037 0.687747,46.667037 L23.652219,0.4197039 Z" transform="translate(1 1)"/>
          <path stroke="#066F99" stroke-width="1.5" d="M43.233643,42.37319 C43.624798,42.482914 44.074459,42.626965 44.597215,42.807026 C44.724643,42.850917 44.856246,42.896726 45.026236,42.956249 C46.619795,43.514242 47.225176,43.710633 47.84361,43.817198 C47.854003,43.824592 47.864693,43.831876 47.875711,43.839066 C48.257284,44.088045 48.802322,43.985005 49.01633,43.510728 C49.125885,43.267936 49.11343,43.091002 49.04747,42.743968 C48.976384,42.369962 48.809324,41.764261 48.556849,40.956701 C48.039936,39.303321 47.201877,36.921878 46.218949,34.330309 C43.772785,27.8808 40.986885,21.523442 38.537149,17.083938 C38.012782,16.1336829 37.392274,15.1378284 36.683404,14.1009965 C35.574123,12.4785014 34.263147,10.7763868 32.791778,9.0222408 C31.123993,7.0339283 29.338819,5.0820479 27.55374,3.2478522 C26.928952,2.6058722 26.348596,2.0242502 25.827405,1.5132402 C25.513755,1.2057173 25.288837,0.9894257 25.167398,0.8746441 L24.43108,0.1786906 L23.980476,1.0861448 L1.016004,47.333478 L0.875133,47.617174 L0.980262,47.915965 C1.006707,47.991123 1.056361,48.124513 1.12891,48.307917 C1.248161,48.609385 1.389625,48.944234 1.553038,49.304285 C2.019908,50.33295 2.570902,51.361945 3.205498,52.32655 C3.934539,53.434716 4.729131,54.387528 5.593632,55.137831 C5.843261,55.354472 6.091923,55.562663 6.424228,55.835381 C6.512389,55.907732 6.624336,55.999295 6.819653,56.159054 C6.973507,56.285053 7.089123,56.380316 7.20015,56.472812 C9.7644,58.609072 10.742759,60.435779 11.201896,65.229612 C11.407288,67.373541 11.074105,69.319497 10.189731,72.305888 C9.133685,75.871992 9.067541,76.130501 9.061888,77.310273 C9.053529,79.054497 9.868842,80.297864 11.66135,81.0407 C14.531837,82.230221 16.99131,81.468559 18.917291,79.513199 C19.108604,79.318967 19.283888,79.124828 19.443281,78.934582 C19.554328,79.168702 19.690287,79.406755 19.854818,79.644467 C20.766148,80.961143 22.32028,81.81732 24.586885,82.015523 C27.138727,82.238661 28.907214,81.190516 29.937891,79.345993 C29.957431,79.311023 29.976572,79.276069 29.995318,79.241144 C30.024953,79.290332 30.055655,79.339515 30.087449,79.388663 C31.054176,80.883057 32.778465,81.837591 35.34958,82.016564 C38.219121,82.21631 40.046567,80.759903 40.941213,78.311749 C41.158969,77.715872 41.309585,77.091218 41.404976,76.458849 C43.014305,77.522831 45.302238,77.808281 48.316323,76.924981 C50.883117,76.172728 51.492965,74.42945 50.416322,72.39003 C50.028823,71.656015 49.439964,70.898986 48.702298,70.130291 C48.243731,69.652436 47.754695,69.198419 47.265723,68.781516 C47.136868,68.671653 47.020166,68.574547 46.918219,68.491404 C46.929406,68.231989 46.940536,67.935677 46.950958,67.605601 C47.069502,63.851417 47.006023,59.686187 46.626163,55.746786 C46.451336,53.933708 46.214418,52.256187 45.90889,50.740855 C45.595648,49.187123 45.245078,47.795724 44.863298,46.557537 C44.318479,44.79058 43.733022,43.402341 43.138129,42.346764 L43.233643,42.37319 Z"/>
        </g>
        <path fill="#D6E1EB" fill-rule="nonzero" d="M157.581038,86.1669595 C157.581038,86.1669595 166.885375,95.5941819 171.042527,104.02861 C175.199678,112.463038 180.815892,128.55931 180.815892,128.55931 L174.650227,126.573035 C174.650227,126.573035 178.207333,134.955398 178.207333,138.743128 C178.207333,142.530858 178.857217,152.913521 178.857217,152.913521 C178.857217,152.913521 182.748635,156.786727 182.748635,158.666022 C182.748635,160.545316 179.981531,161.943546 177.54746,161.943546 C175.113389,161.943546 172.464416,159.001984 172.464416,159.001984 C172.464416,159.001984 173.178399,160.336117 173.167941,160.522813 C173.157483,160.709508 171.654743,165.881341 167.98245,166.325533 C163.736774,166.83908 161.94424,162.90275 161.94424,162.90275 C161.94424,162.90275 161.080906,166.065273 157.095555,166.325533 C153.110203,166.585792 151.654409,162.471879 151.654409,162.471879 C151.654409,162.471879 149.50367,165.785058 146.514401,165.785058 C142.660834,165.785058 141.666649,163.370866 141.666649,162.90275 C141.666649,162.434633 145.867644,163.83394 147.592233,159.814819 C148.520904,157.650569 151.654409,160.522813 151.654409,160.522813 C151.654409,160.522813 153.003238,164.257423 154.648779,164.392636 C156.29432,164.527848 156.380186,161.217031 158.041298,159.814819 C160.881186,157.417555 161.94424,161.43043 161.94424,161.43043 C161.94424,161.43043 164.292215,165.583646 166.922808,164.864234 C169.553402,164.144823 167.062369,161.245713 168.218739,159.001984 C169.37511,156.758255 172.464416,158.666022 172.464416,158.666022 C172.464416,158.666022 176.234037,158.68422 176.921858,156.851002 C177.609678,155.017783 174.977779,153.243106 174.977779,153.243106 C174.977779,153.243106 172.814212,132.129629 164.470118,128.253801 C156.126025,124.377972 133.966818,132.275217 133.966818,132.275217 C133.966818,132.275217 147.305714,119.839106 151.383131,108.868079 C155.460548,97.8970517 157.581038,86.1669595 157.581038,86.1669595 Z" style="mix-blend-mode:multiply"/>
        <g fill-rule="nonzero" transform="matrix(-1 0 0 1 184.83 82.725)">
          <path fill="#FFFFFF" stroke="#066F99" stroke-width="1.5" d="M28.863922,0.365898235 C28.863922,0.365898235 9.68198375,12.2386024 4.53593441,27.8429963 C-0.610114923,43.4473902 0.542064056,62.8839427 0.542064056,62.8839427 C0.542064056,62.8839427 12.780315,59.5762291 26.5288651,62.8839427 C40.2774152,66.1916563 45.3120291,70.4352347 45.3120291,70.4352347 C45.3120291,70.4352347 41.9691344,67.5796148 44.3205163,61.8911777 C46.6718982,56.2027406 52.5252934,48.6020204 52.5252934,48.6020204 L28.863922,0.365898235 Z" stroke-linecap="round" stroke-linejoin="round"/>
          <path fill="#244C66" stroke="#066F99" stroke-width="1.344" d="M5.77523777,65.8381777 C5.77523777,65.8381777 -0.386091772,65.8287806 0.212531004,63.3187117 C0.811153781,60.8086428 7.4656009,59.0474854 23.0168253,62.3328516 C38.5680496,65.6182178 45.2920516,69.070922 45.2920516,70.3422692 C45.2920516,71.6136165 43.3335598,72.9018028 43.3335598,72.9018028 L42.1100281,69.3933193 C42.1100281,69.3933193 33.1629308,63.7543469 23.5783072,62.3328516 C13.9936836,60.9113562 5.45034122,62.0230835 5.45034122,62.0230835 L5.77523777,65.8381777 Z" stroke-linecap="round" stroke-linejoin="round"/>
          <path fill="#D6E1EB" d="M4.82057938,61.5183947 L5.35190781,66.2304178 C5.35190781,66.2304178 16.5626206,65.847817 25.4830699,67.6857299 C34.4035192,69.5236427 43.2335634,73.4328391 43.2335634,73.4328391 L44.2373776,72.9100571 L42.7415691,69.0338819 C42.7415691,69.0338819 32.0144445,63.3148724 24.2188254,61.7019161 C16.4232063,60.0889598 4.82057938,61.5183947 4.82057938,61.5183947 Z" style="mix-blend-mode:multiply"/>
          <path fill="#D6E1EB" d="M18.6980599,60.9330844 C18.6980599,60.9330844 17.4136842,48.2876917 16.6379514,40.5867559 C15.8622185,32.8858201 19.7473083,30.9996141 19.7473083,31.7427535 C19.7473083,32.485893 21.4156013,36.7137775 22.2690243,36.0811442 C23.1224473,35.448511 23.3111233,24.1681105 23.9758703,21.9106271 C24.6406173,19.6531437 32.68943,34.4837745 36.2421463,38.6333107 C39.7948627,42.7828469 49.2882442,53.0020373 49.2882442,53.0020373 L48.7338989,44.1966244 L27.0858114,3.29472124 C27.0858114,3.29472124 9.7918751,17.6377215 5.91145833,27.9294133 C2.03104156,38.2211051 2.13121375,60.9330844 2.13121375,60.9330844 C2.13121375,60.9330844 7.01817,60.1259593 9.47588263,60.1259593 C11.9335953,60.1259593 18.6980599,60.9330844 18.6980599,60.9330844 Z" opacity=".7" style="mix-blend-mode:multiply"/>
        </g>
        <g fill-rule="nonzero" transform="translate(49.796 128.528)">
          <path fill="#FFFFFF" stroke="#066F99" stroke-width="1.5" d="M2.56631055,5.00933198 C2.56631055,5.00933198 1.62770092,7.66452856 2.26965155,12.195072 C2.91160218,16.7256154 0.287301739,21.6514754 0.287301739,21.6514754 L14.2570699,29.7000929 L17.8364122,16.7256154 L2.56631055,5.00933198 Z" stroke-linecap="round" stroke-linejoin="round"/>
          <path fill="#FFFFFF" stroke="#066F99" stroke-width="1.5" d="M18.4392889,13.4235983 C18.4392889,14.6110273 9.76610352,30.639579 9.76610352,30.639579 C9.76610352,30.639579 24.0065584,34.054054 47.0604891,31.7181713 C70.1144199,29.3822885 88.6995581,18.2213443 88.6995581,18.2213443 L86.145547,8.08273761 C86.145547,8.08273761 18.4392889,12.2361692 18.4392889,13.4235983 Z" stroke-linecap="round" stroke-linejoin="round"/>
          <polygon fill="#C8EAFA" points="70.05 19.078 72.046 25.325 88.75 18.398 86.487 10.978" opacity=".738" style="mix-blend-mode:multiply"/>
          <path fill="#244C66" stroke="#244159" stroke-width=".896" d="M4.35915293,3.10754535 L3.00673005,5.91879988 C3.00673005,5.91879988 2.65737056,7.94901029 2.69445627,8.77760636 C2.80787926,11.3117858 3.00673005,12.2521257 3.00673005,12.2521257 C3.00673005,12.2521257 22.7775281,22.950244 46.0153562,22.950244 C69.2531842,22.950244 86.3718355,10.4015248 86.3718355,10.0363322 C86.3718355,9.67113954 87.0796955,0 87.0796955,0 C87.0796955,0 82.8874743,14.4006855 44.6154016,11.475122 C27.293028,10.1509788 4.35915293,3.10754535 4.35915293,3.10754535 Z" stroke-linecap="round" stroke-linejoin="round"/>
          <path fill="#244C66" stroke="#244159" stroke-width=".896" d="M80.8896015,10.985268 L83.5359945,44.624709 C83.5359945,44.624709 90.3762672,44.8698956 90.3762672,43.9680744 C90.3762672,43.0662532 83.5299675,9.78909332 83.5299675,9.78909332 L80.8896015,10.985268 Z M83.9694874,9.69563335 L96.5608092,15.3064622 C96.5608092,15.3064622 99.5028758,5.15870922 98.6022959,5.15870922 C97.701716,5.15870922 84.5709508,7.20300984 84.5709508,7.20300984 L83.9694874,9.69563335 Z" stroke-linecap="round" stroke-linejoin="round"/>
          <path fill="#244159" d="M78.3523495,6.91077493 L77.7980151,13.8703373 L80.6201468,12.7636648 L82.2737289,11.0318233 L87.0269952,44.8418728 C87.0269952,44.8418728 88.2648476,45.0897846 89.4119628,44.8047151 C90.5590781,44.5196457 90.8712952,43.967505 90.8712952,43.967505 L84.2610807,11.1513845 L85.1408209,10.6987009 L86.5043142,6.8589813 L93.4019352,6.82066239 L96.5654163,15.5830644 C96.5654163,15.5830644 99.4539319,6.28187532 99.0412661,5.05059012 C98.6286003,3.81930491 86.2353899,6.53508529 86.2353899,6.53508529 L86.6903979,0.181130895 C86.6903979,0.181130895 85.2241642,2.59592646 82.8286961,4.35562137 C80.433228,6.11531627 78.3523495,6.91077493 78.3523495,6.91077493 Z" style="mix-blend-mode:darken"/>
        </g>
        <g transform="translate(21.328)">
          <path fill="#FFFFFF" fill-rule="nonzero" d="M47.5279139,19.8961124 C48.7411367,18.594125 52.215742,14.7709462 55.29704,12.5527523 C59.01645,9.87501215 61.7771619,8.22421701 61.7771619,8.22421701 L64.8012187,13.8513129 C64.8012187,13.8513129 68.8232144,11.1640139 69.5533081,7.79136348 C70.2834019,4.41853273 69.5533081,0 69.5533081,0 C69.5533081,0 73.8751894,0.813403919 76.4654381,4.7613888 C79.0555068,8.70919332 79.3049915,13.6435432 83.8095762,16.0155805 C86.0034575,17.1707583 88.7249287,18.5528236 90.9395103,19.6665196 C115.966641,28.5086351 133.922519,52.4252353 133.922519,80.510756 C133.922519,116.106646 105.079496,145.005932 69.5533081,145.005932 C34.02694,145.005932 5.1840975,116.106646 5.1840975,80.510756 C5.1840975,80.1240735 5.18751756,79.7381125 5.19435769,79.3530532 L1.7280325,80.510756 L6.02885339,70.0454399 C6.24449744,68.723433 6.50028225,67.4149529 6.7949478,66.1214423 L0,68.3908572 C0,68.3908572 4.05763631,60.016404 7.77614625,54.5395444 C9.92196661,51.3786315 13.188128,46.0981792 15.5668728,43.6615745 C23.1217949,32.0324235 34.3169254,24.7222488 47.5279139,19.8961124 Z" transform="translate(2 1)"/>
          <path stroke="#066F99" stroke-width="1.5" d="M49.1009678,20.2537789 C34.8006876,25.5075725 24.1422643,33.1959964 16.9779903,44.1914292 C15.9978547,45.2060926 14.8480805,46.69419 13.4504134,48.7021314 C13.1056813,49.1973865 12.7463065,49.7235944 12.3595216,50.2982911 C11.8060219,51.1206978 9.63401005,54.4136044 9.15562291,55.1182953 C8.87035974,55.5384492 8.57825983,55.9825688 8.27979123,56.4493839 C7.63251588,57.4617449 6.95953371,58.5740705 6.2669047,59.7703373 C5.08929108,61.80424 3.91108702,63.9812396 2.78786795,66.1579601 C2.39484011,66.9196207 2.03668413,67.6269838 1.72041185,68.2620423 C1.53032062,68.6437357 1.39619274,68.9170069 1.32505387,69.0638286 L0.54860227,70.6663275 L2.23758841,70.1022304 L7.78247813,68.2503169 C7.60525856,69.1089772 7.44523879,69.9722257 7.30257066,70.8396274 L3.03432743,81.2256713 L2.41151559,82.741178 L3.96562091,82.2221291 L6.43419395,81.3976612 C6.43412965,81.4353525 6.4340975,81.4730508 6.4340975,81.510756 C6.4340975,117.520532 35.6123978,146.755932 71.5533081,146.755932 C107.4941,146.755932 136.672519,117.52047 136.672519,81.510756 C136.672519,53.6342375 119.024124,29.0868129 93.1893518,19.9593568 C90.5461504,18.6234195 88.0824046,17.3647115 86.1590053,16.3519546 C83.9183157,15.1720458 82.9010464,13.6514713 81.3251001,9.88860068 C81.223794,9.64651164 81.223794,9.64651164 81.1216475,9.40270618 C81.0434965,9.2164388 80.9780139,9.06128834 80.9145456,8.91229011 C80.2651118,7.38767935 79.7491481,6.35080461 79.0925235,5.34997175 C78.3559921,4.2273712 77.4496928,3.27913302 76.4129533,2.49136144 C75.3878643,1.71244255 74.2922238,1.13044348 73.1957985,0.715166227 C72.5323262,0.463872365 72.0084392,0.322490926 71.6920272,0.262940284 L70.6385912,0.064677321 L70.8133415,1.12226796 C70.8224319,1.17728281 70.8391835,1.28717654 70.8610667,1.44556185 C70.8979765,1.7127055 70.9349875,2.01569134 70.9695797,2.34809574 C71.1223427,3.81603402 71.1777097,5.32638612 71.0792374,6.72572468 C71.0306487,7.41619296 70.9452341,8.0554601 70.8202849,8.63269094 C70.5622608,9.82462696 69.801656,11.048479 68.6875722,12.2322855 C68.1815208,12.7700071 67.6371235,13.2625833 67.0929939,13.6976846 C67.0787752,13.7090542 67.0647015,13.7202721 67.0507758,13.7313372 L64.437805,8.86918087 L64.066127,8.17757089 L63.3922561,8.5805187 C63.3025466,8.63416134 63.1335623,8.73701666 62.8923297,8.88665971 C62.492191,9.13487642 62.0338878,9.42501436 61.5244428,9.75465346 C60.0705628,10.6953942 58.496657,11.7649562 56.8588368,12.9440833 C56.4019475,13.2729931 55.9258008,13.6437534 55.4315241,14.053587 C54.7058873,14.6552547 53.9482548,15.3350961 53.1619445,16.0837144 C52.3354956,16.8705473 51.5081089,17.7033509 50.6550426,18.5964571 C50.3331864,18.9334201 50.0216273,19.2642574 49.6841577,19.6262388 C49.5589977,19.7604896 49.2694629,20.0723469 49.1009678,20.2537789 L49.1009678,20.2537789 Z"/>
          <path fill="#E6F9FF" fill-rule="nonzero" d="M70.5065694,2.34712293 C70.5065694,2.34712293 75.3837388,7.70899246 75.5791849,13.8871795 C75.774631,20.0653664 69.0747952,22.4216189 68.1901772,21.9495933 C67.3055591,21.4775678 65.5920763,15.0694523 65.0027955,13.7504548 C64.4135147,12.4314573 62.7088595,10.4937108 62.7088595,10.4937108 C62.7088595,10.4937108 64.4635378,21.4378835 62.2871482,23.6840742 C60.1107585,25.9302649 63.93032,26.7744853 69.4382754,26.0287004 C74.9462308,25.2829155 81.991272,20.4787957 85.94015,21.2141945 C89.889028,21.9495933 93.2308152,23.188021 93.2308152,23.188021 C93.2308152,23.188021 84.1498515,19.0923272 82.5128745,16.421391 C80.8758975,13.7504548 79.3592545,7.56591213 76.9770425,5.8494132 C74.5948305,4.13291428 70.5065694,2.34712293 70.5065694,2.34712293 Z" style="mix-blend-mode:multiply"/>
          <path fill="#D6E1EB" fill-rule="nonzero" d="M11.4865465,106.944295 C11.4865465,106.944295 29.0953459,144.271557 68.0408016,144.271557 C106.986257,144.271557 125.597034,116.787224 130.585956,102.006884 C135.574878,87.2265445 135.234458,74.5133204 128.169473,51.9848629 C121.104488,29.4564053 90.8146029,18.8950631 90.8146029,18.8950631 C90.8146029,18.8950631 115.281954,38.7222089 119.13685,64.6384551 C119.3055,65.7722782 123.24886,70.4501158 123.33483,71.6060978 C123.420799,72.7620797 119.621712,69.7365483 119.63752,70.5756274 C119.685,73.0957699 123.750928,81.2240671 123.33483,83.8224755 C122.918732,86.420884 118.515394,81.3823511 118.078548,82.9594166 C115.800979,91.1817129 110.86192,99.6623454 102.11556,108.052128 C85.0277879,124.443255 67.9095885,128.285038 53.2252873,126.722509 C52.3412094,126.628436 53.0293474,132.168407 52.1634517,132.036715 C51.297556,131.905023 47.4444733,125.837262 45.917591,125.482465 C25.5975918,120.760759 11.4865465,106.944295 11.4865465,106.944295 Z" style="mix-blend-mode:multiply"/>
        </g>
        <g transform="translate(44.862 42.76)">
          <path fill="#ADCADD" fill-rule="nonzero" d="M45.9871482,0.898081956 C70.6749725,1.01224707 90.6355479,9.62945902 90.6355479,20.2271562 C90.6355479,30.8957331 70.4067675,39.5573126 45.4906989,39.5573126 C20.5744503,39.5573126 0.3458498,30.8957331 0.3458498,20.2271562 C0.3458498,11.6443922 13.437496,4.36072982 31.5296363,1.84062051 C32.4755541,3.17020226 33.8997409,4.83560621 35.7705161,6.09124214 C39.435745,8.55147338 47.4347354,11.718338 47.4347354,11.718338 C47.4347354,11.718338 44.2825161,8.62072994 44.4106786,5.22553509 C44.4751198,3.51522259 45.2419342,1.99031569 45.9871482,0.898081956 Z" transform="translate(1)"/>
          <path stroke="#066F99" stroke-width="1.344" d="M46.3118134,10.1126477 C44.8374577,9.48483398 43.3689486,8.82864858 41.9944793,8.17201805 C41.0694557,7.73010293 40.2166767,7.30179963 39.4515044,6.89213428 C38.5382452,6.40318474 37.7625007,5.94754229 37.1451322,5.53314266 C35.588196,4.4881507 34.226252,3.06587343 33.0773395,1.45096245 L32.8408878,1.11860595 L32.436903,1.17487822 C13.6979356,3.78508605 0.673679991,11.3363442 0.673679991,20.2271562 C0.673679991,31.4228814 21.2411036,40.2294824 46.4906989,40.2294824 C71.7401766,40.2294824 92.3077177,31.4228553 92.3077177,20.2271562 C92.3077177,9.11275466 72.0299572,0.341711649 46.9902565,0.225919332 L46.6331634,0.224268009 L46.4319036,0.519247261 C45.4322284,1.98443572 44.8007249,3.56161793 44.7389853,5.20022701 C44.6767552,6.84878794 45.2781591,8.50978369 46.3118134,10.1126477 Z"/>
          <path fill="#5588BB" fill-rule="nonzero" d="M17.6000485,35.7599053 C17.6000485,35.7599053 -5.13762557,29.630857 1.70289374,16.2620394 C8.54341304,2.89322188 32.2010812,1.45152983 32.2010812,1.45152983 C32.2010812,1.45152983 35.964833,6.45111863 37.5234261,6.39745984 C37.9706466,6.38206307 46.3603558,10.0449893 46.3603558,10.0449893 C46.3603558,10.0449893 45.2675057,8.54099342 45.3021049,5.5881785 C45.3367042,2.63536359 45.6424959,5.47183796 45.6518292,5.36206975 C45.8383888,3.16794303 45.5448988,1.37680564 47.0627418,0.758294875 C51.0592605,-0.870259442 52.3370423,0.758294875 52.3370423,0.758294875 C52.3370423,0.758294875 50.2131868,4.31846762 52.2892492,8.20427615 C54.3653117,12.0900847 56.0147009,11.9864883 55.2149382,12.8691677 C54.4151755,13.7518471 51.9552395,14.2826627 47.0627418,11.3452264 C42.1702441,8.40779017 34.5542997,4.55765768 34.5542997,4.55765768 C34.5542997,4.55765768 15.2545274,8.19053514 10.9923584,15.816416 C3.01038763,30.0977734 17.6000485,35.7599053 17.6000485,35.7599053 Z" opacity=".196" style="mix-blend-mode:multiply"/>
        </g>
        <g fill-rule="nonzero" transform="translate(62.806 55.783)">
          <path fill="#0685B9" d="M6.91213,0 C10.7269417,0 13.82426,3.10319908 13.82426,6.92565643 C13.82426,10.7479334 10.7269417,13.8513129 6.91213,13.8513129 C3.09713825,13.8513129 0,10.7479334 0,6.92565643 C0,3.10319908 3.09713825,0 6.91213,0 Z"/>
          <path fill="#43759E" d="M9.79555185,0.630446674 C12.1723937,1.72625809 13.82426,4.13415932 13.82426,6.92565643 C13.82426,10.7479334 10.7269417,13.8513129 6.91213,13.8513129 C6.07220657,13.8513129 5.27976248,13.6217826 4.52213868,13.4254773 C4.01116721,13.2930812 9.38053908,12.53934 10.7538815,8.93621996 C12.6321818,4.00828544 9.79555185,0.630446674 9.79555185,0.630446674 Z" opacity=".286" style="mix-blend-mode:multiply"/>
          <path fill="#FFFFFF" d="M5.2505314,2.24520489 C7.15784727,2.24520489 8.7065964,3.79680443 8.7065964,5.70803311 C8.7065964,7.61926178 7.15784727,9.17086132 5.2505314,9.17086132 C3.34303553,9.17086132 1.7944664,7.61926178 1.7944664,5.70803311 C1.7944664,3.79680443 3.34303553,2.24520489 5.2505314,2.24520489 Z"/>
          <g transform="translate(43.516)">
            <path fill="#0685B9" d="M6.91213,0 C10.7269417,0 13.82426,3.10319908 13.82426,6.92565643 C13.82426,10.7479334 10.7269417,13.8513129 6.91213,13.8513129 C3.09713825,13.8513129 0,10.7479334 0,6.92565643 C0,3.10319908 3.09713825,0 6.91213,0 Z"/>
            <path fill="#43759E" d="M9.79373764,0.628668332 C12.1705795,1.72447975 13.8224458,4.13238098 13.8224458,6.92387809 C13.8224458,10.7461551 10.7251275,13.8495345 6.91031579,13.8495345 C6.07039236,13.8495345 5.27794827,13.6200043 4.52032447,13.4236989 C4.00935301,13.2913029 9.37872487,12.5375616 10.7520673,8.93444162 C12.6303676,4.0065071 9.79373764,0.628668332 9.79373764,0.628668332 Z" opacity=".286" style="mix-blend-mode:multiply"/>
            <path fill="#FFFFFF" d="M5.2505314,2.24520489 C7.15784727,2.24520489 8.7065964,3.79680443 8.7065964,5.70803311 C8.7065964,7.61926178 7.15784727,9.17086132 5.2505314,9.17086132 C3.34303553,9.17086132 1.7944664,7.61926178 1.7944664,5.70803311 C1.7944664,3.79680443 3.34303553,2.24520489 5.2505314,2.24520489 Z"/>
          </g>
        </g>
        <g transform="translate(52.04 87.665)">
          <path fill="#066F99" fill-rule="nonzero" d="M64.8796635,3.92602677 C76.4920419,0.751767574 83.0236447,-2.68851619 82.9457033,3.21217916 C82.877662,8.34798626 64.3623338,24.6384287 41.4729233,24.6384287 C18.5833328,24.6384287 -0.0596178481,9.21387367 0.000143275883,4.07788622 C0.0588243795,-0.983975068 6.65378841,1.92353814 18.3941492,4.56755177 C19.9909593,7.65433848 22.1079791,11.1557628 23.2326402,11.2199694 C24.2941202,11.2803885 26.9486301,8.76749347 29.1137108,6.50421059 C32.9121423,7.00091001 37.0403399,7.32428767 41.4729233,7.32428767 C45.8468255,7.32428767 49.9303823,6.94590154 53.6960532,6.36118857 C55.8848943,8.66018187 58.629766,11.281651 59.7135663,11.2199694 C60.917069,11.1514343 63.256753,7.14663737 64.8796635,3.92602677 Z"/>
          <g transform="translate(26.468 11.675)">
            <path fill="#82C2DC" fill-rule="nonzero" d="M0,10.196947 C2.25526242,4.34476728 10.5132777,0 20.3434426,0 C28.0834082,0 34.8486554,2.69343107 38.4766236,6.69534228 C31.7849978,9.93110275 23.662525,12.3191917 14.8987002,12.3191917 C9.65124152,12.3191917 4.62698702,11.5084931 0,10.196947 Z"/>
            <mask id="f" fill="white">
              <use xlink:href="#e"/>
            </mask>
            <path fill="#2268AC" fill-rule="nonzero" d="M15.7755827,12.2671846 C15.7755827,12.2671846 24.3203003,10.7676183 25.3132825,7.13481779 C26.3062648,3.50201729 24.5898196,0.295302035 24.5898196,0.295302035 C24.5898196,0.295302035 30.4958664,1.0433692 33.1581228,2.63861488 C35.8203791,4.23386056 38.6622804,6.65850087 38.6622804,6.65850087 C38.6622804,6.65850087 31.7869407,9.98523135 27.8526239,11.126208 C23.9183072,12.2671846 15.7755827,12.2671846 15.7755827,12.2671846 Z" opacity=".165" style="mix-blend-mode:multiply" mask="url(#f)"/>
          </g>
        </g>
      </g>
      <g transform="translate(51.59 24.8)">
        <path fill="#244C66" fill-rule="nonzero" stroke="#244159" stroke-width=".896" d="M8.51696251,7.5585289 C8.51696251,7.5585289 26.2574948,0.529687866 51.3912037,0.0209062143 C76.5249126,-0.487875438 94.7346769,8.45857715 94.7346769,8.45857715 C94.7346769,8.45857715 97.576095,11.0251286 98.8483149,12.4081146 C100.120535,13.7911007 102.447804,17.2123231 102.447804,17.2123231 C102.447804,17.2123231 73.0806123,8.45857715 52.4683396,7.5585289 C31.8560668,6.65848065 0,16.2487477 0,16.2487477 C0,16.2487477 3.29487771,12.1170731 4.59584905,10.8214852 C5.89682039,9.52589735 8.51696251,7.5585289 8.51696251,7.5585289 Z" stroke-linecap="round" stroke-linejoin="round"/>
        <path fill="#244159" fill-rule="nonzero" d="M54.7610162,0.179090171 L58.374658,8.09185875 C58.374658,8.09185875 73.5333304,10.3847918 81.2824937,12.1053379 C89.031657,13.825884 101.714526,17.4417339 101.714526,17.4417339 C101.714526,17.4417339 99.3683323,14.1282234 97.9564862,12.5698147 C96.5446402,11.0114059 93.795392,8.70051977 93.795392,8.70051977 C93.795392,8.70051977 82.1180922,4.11411526 77.0788159,3.01401216 C72.0395397,1.91390905 54.7610162,0.179090171 54.7610162,0.179090171 Z" style="mix-blend-mode:darken"/>
      </g>
    </g>
  </g>
</svg>
