<svg xmlns="http://www.w3.org/2000/svg" width="337" height="406" viewBox="0 0 337 406" xmlns:xlink="http://www.w3.org/1999/xlink">
  <defs>
    <rect id="a" width="337" height="406"/>
    <path id="c" d="M173.842274,76.7076424 C173.842274,76.7076424 174.594075,89.9993747 179.5857,99.0499574 C188.292898,114.83782 197.917339,142.681255 196.066462,140.071419 C193.213232,139.681991 188.296061,137.112222 185.410914,137.265572 C185.410914,137.265572 188.77366,140.280402 191.23584,152.499702 C193.698307,164.719291 192.796879,181.190311 192.796879,181.190311 C192.796879,181.190311 204.861646,190.33886 195.918956,192.96109 C186.976841,195.583033 184.211597,190.753943 184.211597,190.753943 C184.211597,190.753943 184.553478,201.674955 175.626028,201.053195 C166.698577,200.431435 167.040458,193.69671 167.040458,193.69671 C167.040458,193.69671 166.365609,201.745289 158.454889,201.053195 C150.544457,200.361101 150.649983,194.43233 150.649983,194.43233 C150.649983,194.43233 146.364243,202.982755 138.161961,199.581956 C129.959966,196.181156 139.260927,186.782404 138.161961,175.305065 C137.063282,163.827726 133.322424,162.315267 128.796016,158.384948 C127.167175,156.970522 106.463944,138.147398 95.2515355,116.915229 C84.0391275,95.6830603 80.4785403,59.2441728 81.0817068,56.9824794"/>
  </defs>
  <g fill="none" fill-rule="evenodd">
    <mask id="b" fill="white">
      <use xlink:href="#a"/>
    </mask>
    <g transform="translate(-87 103)" mask="url(#b)">
      <g transform="translate(199.172 38.259)">
        <g stroke-linejoin="round" transform="rotate(168 140.118 129.039)">
          <use fill="#FFFFFF" xlink:href="#c"/>
          <path stroke="#297BCC" stroke-width="2.972" d="M150.074625,197.833607 C150.216423,198.100279 150.375955,198.36326 150.554355,198.621146 C152.060281,200.798037 154.6214,202.209714 158.325351,202.533778 C162.404117,202.890621 165.286875,201.258302 167.005429,198.371367 C168.619519,200.742582 171.422976,202.250308 175.522767,202.535842 C180.247739,202.864917 183.275906,200.450301 184.745666,196.42625 C185.050924,195.590485 185.274893,194.721501 185.430239,193.840365 C188.048795,195.393992 191.669482,195.7559 196.337134,194.387285 C200.621106,193.131113 201.666138,190.142262 199.865426,186.729479 C199.231994,185.528972 198.275964,184.299263 197.080645,183.053007 C196.340907,182.281746 195.552855,181.549738 194.76493,180.877589 C194.603005,180.739457 194.452894,180.613754 194.31656,180.501387 C194.332417,180.12097 194.348105,179.694613 194.3629,179.225808 C194.552615,173.214542 194.451041,166.546201 193.842893,160.235957 C193.562736,157.329006 193.182937,154.638374 192.69279,152.206101 C192.190567,149.71367 191.62823,147.480597 191.01549,145.492308 C190.239905,142.975603 189.411749,140.933164 188.565303,139.314143 C189.059185,139.463496 189.608082,139.6432 190.220904,139.854395 C190.423917,139.924359 190.633715,139.997424 190.904833,140.092407 C193.418351,140.972995 194.403256,141.29405 195.38976,141.469723 C195.391258,141.470707 195.39276,141.471691 195.394265,141.472673 C196.141998,141.960832 197.216412,141.757605 197.636881,140.825284 C197.846881,140.359642 197.825109,140.050175 197.706966,139.42826 C197.590809,138.816804 197.321612,137.840274 196.915227,136.539733 C196.087627,133.891201 194.747094,130.079902 193.175095,125.933006 C189.263201,115.613524 184.808047,105.441588 180.887134,98.3322008 C179.805005,96.3701339 178.870377,94.085356 178.076983,91.5429544 C177.060441,88.2854849 176.324885,84.7805642 175.827828,81.273476 C175.653671,80.0446752 175.521943,78.9044121 175.426878,77.8828831 C175.393763,77.5270457 175.367622,77.2120702 175.347725,76.941717 C175.335999,76.7823845 175.329049,76.6751317 175.326141,76.6237126 L175.326141,76.6237126 L175.26202,75.4900762 L174.151404,75.2539082 L81.3908376,55.5287452 L80.0095501,55.2350199 L79.6456589,56.5995026 C79.164131,58.4050875 80.319536,69.4801803 82.2740746,80.1038501 C84.9818625,94.8217201 88.8878359,108.047444 93.937296,117.609261 C98.9377595,127.078296 106.099333,136.724844 114.512757,146.075823 C117.540059,149.440475 120.549563,152.562093 123.40469,155.356526 C125.310379,157.221704 127.021869,158.812729 127.821546,159.507139 C128.222658,159.855428 128.621714,160.189713 129.154407,160.627117 C129.295455,160.742933 129.772565,161.133371 129.786288,161.144615 C130.031484,161.345524 130.215602,161.497311 130.392227,161.644533 C134.430573,165.010633 135.956328,167.8609 136.682485,175.446689 C137.006205,178.827542 136.479207,181.907105 135.07615,186.647514 C133.376555,192.389819 133.271966,192.798799 133.262737,194.725811 C133.24883,197.629409 134.620633,199.722542 137.592713,200.954858 C142.298723,202.906047 146.347162,201.651642 149.499519,198.449505 C149.70225,198.243573 149.893925,198.037719 150.074625,197.833607 Z"/>
        </g>
        <path fill="#E6F9FF" d="M172.210288,74.1696227 C172.210288,74.1696227 173.898077,88.0147546 180.538702,101.495024 C187.179328,114.975294 196.150657,140.701055 196.150657,140.701055 L186.301636,137.526505 C186.301636,137.526505 191.983751,150.923562 191.983751,156.977277 C191.983751,163.030992 193.021873,179.625015 193.021873,179.625015 C193.021873,179.625015 199.238018,185.815342 199.238018,188.818912 C199.238018,191.822482 194.81785,194.057194 190.92967,194.057194 C187.04149,194.057194 182.810025,189.355862 182.810025,189.355862 C182.810025,189.355862 183.950541,191.488132 183.933835,191.786517 C183.91713,192.084901 181.516656,200.350749 175.650542,201.060676 C168.868506,201.88145 166.005117,195.590235 166.005117,195.590235 C166.005117,195.590235 164.626029,200.644718 158.259835,201.060676 C151.893642,201.476634 149.56816,194.9016 149.56816,194.9016 C149.56816,194.9016 146.132574,200.196867 141.357521,200.196867 C135.201841,200.196867 133.613731,196.338399 133.613731,195.590235 C133.613731,194.842071 140.324392,197.078503 143.079248,190.654971 C144.562705,187.195973 149.56816,191.786517 149.56816,191.786517 C149.56816,191.786517 151.722777,197.755333 154.351361,197.971436 C156.979945,198.187538 157.117107,192.896046 159.770564,190.654971 C164.306995,186.823559 166.005117,193.23711 166.005117,193.23711 C166.005117,193.23711 166.230118,195.328312 170.432224,194.178517 C174.634329,193.028722 169.565122,176.481557 169.565122,176.481557 L182.810025,188.818912 C182.810025,188.818912 188.831611,188.847998 189.930334,185.918068 C191.029057,182.988139 186.824867,180.151773 186.824867,180.151773 C186.824867,180.151773 179.171352,130.026253 151.647543,110.712123 C124.123734,91.397992 79.1767902,55.4374667 79.1767902,55.4374667 L172.210288,74.1696227 Z" style="mix-blend-mode:darken" transform="rotate(168 139.207 128.286)"/>
        <path fill="#BBE0EC" d="M82.1233253,71.4270345 L114.251422,89.7058792 L120.893918,85.4670949 L136.786066,93.5839964 C136.786066,93.5839964 132.155543,72.934721 132.792657,66.6840963 C133.429772,60.4334716 127.713044,59.0986339 127.713044,59.0986339 L91.3903975,60.5770354 L82.1233253,71.4270345 Z" style="mix-blend-mode:darken"/>
        <g stroke="#2279CF" stroke-width="1.8" transform="rotate(-3 162.359 -5.958)" stroke-linecap="round" stroke-linejoin="round">
          <polygon fill="#DCEEF5" points="0 0 115.077 78.569 127.545 43.958"/>
          <polygon fill="#8EA6BB" points="89.336 61.287 114.94 78.717 105.626 53.89"/>
          <polygon fill="#FFFFFF" points="0 0 105.74 53.745 70.599 69.653"/>
          <polygon fill="#FFFFFF" points="0 0 161.64 27.271 127.249 43.832"/>
        </g>
        <g transform="translate(71.54 28.315)">
          <polygon fill="#FF866A" points="3.518 44.706 9.186 41.719 5.273 38.685 0 41.513"/>
          <polygon fill="#6ED4FA" points="14.311 39.308 19.978 36.321 16.065 33.287 10.792 36.116"/>
          <polygon fill="#FF866A" points="25.103 33.91 30.771 30.923 26.858 27.889 21.585 30.718"/>
          <polygon fill="#6ED4FA" points="61.849 14.329 67.089 11.48 61.355 9.896 56.66 12.415"/>
          <polygon fill="#FF866A" points="70.667 9.542 75.594 6.838 70.349 5.398 65.654 7.917"/>
          <polygon fill="#6ED4FA" points="80.242 4.051 85.289 1.392 80.242 0 75.547 2.519"/>
        </g>
        <g fill="#C8EAFA" transform="rotate(164 105.855 77.218)">
          <path d="M40.4138154,103.266841 C40.4138154,103.266841 21.7659068,87.1476646 13.5453175,65.0286934 C5.32472817,42.9097222 2.0413805,14.2529256 2.0413805,14.2529256 C0.91395718,6.38125217 1.37077619,6.30127949 3.15320401,14.0468568 C3.15320401,14.0468568 7.90752395,38.1834862 17.2260084,62.5967647 C26.5444929,87.0100432 45.5423442,101.854655 45.5423442,101.854655 L40.4138154,103.266841 Z"/>
          <path d="M53.4391143,101.891791 C53.4391143,101.891791 40.0005568,85.1161919 31.7799675,62.9972207 C23.5593781,40.8782495 21.8749052,10.5959353 21.8749052,10.5959353 C21.1736508,2.67207256 21.3930616,2.64402872 22.5035046,10.5271918 C22.5035046,10.5271918 25.0911999,37.5709584 34.4096844,61.9842369 C43.7281688,86.3975154 58.5676431,100.479605 58.5676431,100.479605 L53.4391143,101.891791 Z" transform="rotate(-17 40.02 53.26)"/>
        </g>
      </g>
      <g opacity=".5" stroke-linecap="round" stroke-linejoin="round">
        <g stroke="#81BFF1" stroke-width="3.6" transform="translate(0 46.738)">
          <path d="M7.10542736e-14,104.554557 C18.1189782,84.991988 35.7440379,71.8985297 50.5420469,56.5144305 C65.3400559,41.1303312 103.206891,-1.14144355 113.461881,0.200801545 C124.071501,1.58946311 145.247469,18.2915549 171.561768,66.6175873 C197.876067,114.94362 199.274286,114.371847 211.380188,133.065616"/>
          <path d="M71.9656549,36.4457079 C78.2086349,36.2226092 74.5668297,45.3421708 99.9549189,71.5514404 C99.9549189,71.5514404 119.77525,48.1824077 121.564661,48.1824077 C123.354072,48.1824077 135.859544,61.6033725 140.22972,63.6308126 C144.599897,65.6582526 156.460913,45.9340046 156.460913,45.9340046"/>
        </g>
        <path stroke="#81BFF1" stroke-width="3.6" d="M113.088687,47.0020021 C113.088687,46.0153666 111.923891,38.4975168 112.149772,26.2871924 C112.375654,14.076868 112.149772,0.143794765 112.149772,0.143794765"/>
        <path stroke="#81BFF1" stroke-width="3.6" d="M112.312557,3.59183327 C112.312557,3.59183327 124.349014,12.996534 131.896706,15.8846363 C139.444398,18.7727387 151.416179,19.9427858 151.416179,19.9427858 C154.370274,20.3065543 154.659241,21.7883154 152.037799,23.2172726 C152.037799,23.2172726 142.879708,28.6467321 133.068177,31.8434588 C123.256646,35.0401854 112.851692,34.980487 112.672741,34.4161628 C112.312557,33.2803235 112.312557,3.59183327 112.312557,3.59183327 Z"/>
      </g>
    </g>
  </g>
</svg>
