<svg xmlns="http://www.w3.org/2000/svg" width="160" height="50" viewBox="0 0 160 50">
  <g fill="#297BCC" fill-rule="evenodd">
    <path d="M51.3211221 25.2985506C51.3211221 23.9393207 51.4972326 22.753788 51.8494589 21.7419169 52.2016851 20.7300458 52.6193186 19.9573101 53.1023717 19.4236865 53.5854249 18.8900629 54.1565261 18.4571295 54.8156923 18.1248733 55.4748586 17.7926172 56.0509915 17.5862187 56.5441083 17.5056717 57.037225 17.4251248 57.5303344 17.3848519 58.0234512 17.3848519 60.1871268 17.3848519 61.7796687 17.8781946 62.8011249 18.8648948 63.8225811 19.851595 64.3333015 21.0497129 64.3333015 22.4592846L64.3333015 33.4387865C64.3333015 33.9321365 64.2880159 34.4003087 64.1974434 34.8433169 64.106871 35.2863252 63.9156653 35.7796679 63.6238207 36.3233598 63.3319761 36.8670518 62.944533 37.3301898 62.4614798 37.7127878 61.9784267 38.0953859 61.2991434 38.4200859 60.4236095 38.6868977 59.5480757 38.9537095 58.5316666 39.0871134 57.3743517 39.0871134 55.7440473 39.0871134 54.2596875 38.8807149 52.9212277 38.4679118L52.9212277 35.160469C54.1590514 35.5732721 55.5025229 35.7796706 56.9516823 35.7796706 57.8171526 35.7796706 58.5215945 35.7142272 59.0650293 35.5833384 59.6084641 35.4524496 59.9782962 35.2460511 60.1745365 34.9641368 60.3707768 34.6822224 60.4940542 34.4431022 60.5443722 34.246769 60.5946903 34.0504358 60.6198489 33.781111 60.6198489 33.4387865L60.6198489 32.5930477C59.7946331 32.7541416 59.0147152 32.8397214 58.2800719 32.8497898 56.0358874 32.8497898 54.3150364 32.2003897 53.1174671 30.9015701 51.9198978 29.6027504 51.3211221 27.735096 51.3211221 25.2985506zM55.0345747 25.3589605C55.0345747 27.09072 55.3113198 28.2661845 55.8648182 28.8853892 56.4183166 29.5045939 57.2636469 29.8141916 58.4008346 29.8141916 59.1556051 29.8141916 59.8952692 29.7437141 60.6198489 29.6027569L60.6198489 22.4139772C60.6198489 21.2661831 59.7694868 20.6922947 58.0687372 20.6922947L58.0234512 20.6922947C57.0372176 20.6922947 56.2925219 21.0522335 55.7893415 21.7721219 55.2861611 22.4920103 55.0345747 23.6876112 55.0345747 25.3589605zM68.368082 33.0612245L68.368082 18.8346898C70.3506127 17.8479896 72.4085895 17.3546469 74.5420743 17.3546469 76.2327603 17.3546469 77.591327 17.7775121 78.6178149 18.6232551 80.6003456 17.7775121 82.5073706 17.3546469 84.3389471 17.3546469 86.2107781 17.3546469 87.6624317 17.8479896 88.6939515 18.8346898 89.7254712 19.82139 90.2412234 21.2108041 90.2412234 23.0029739L90.2412234 33.0612245 88.022209 33.0612245 88.022209 23.0029739C88.022209 22.570034 87.9819552 22.1849246 87.9014463 21.8476343 87.8209375 21.5103439 87.6574063 21.1504051 87.4108479 20.7678071 87.1642896 20.385209 86.766783 20.0907136 86.2183164 19.8843121 85.6698498 19.6779105 84.9930824 19.5747113 84.1879938 19.5747113 82.8897884 19.5747113 81.4658093 19.8314508 79.9160138 20.3449377 80.2481128 21.089997 80.4141599 21.9760002 80.4141599 23.0029739L80.4141599 33.0612245 78.1951455 33.0612245 78.1951455 23.0029739C78.1951455 22.5498973 78.1523758 22.1547197 78.0668352 21.8174293 77.9812945 21.4801389 77.8152475 21.1252342 77.5686891 20.7527046 77.3221307 20.3801749 76.9170766 20.0907136 76.3535146 19.8843121 75.7899526 19.6779105 75.0955741 19.5747113 74.2703583 19.5747113 73.0124073 19.5747113 71.7846656 19.7609733 70.5870964 20.133503L70.5870964 33.0612245 68.368082 33.0612245zM93.9244853 28.3341487C93.9244853 27.6293629 94.0527943 26.9975822 94.3094163 26.4387877 94.5660383 25.8799932 94.8805213 25.4269234 95.2528748 25.0795646 95.6252283 24.7322059 96.0982107 24.4351935 96.6718364 24.1885184 97.245462 23.9418434 97.7536665 23.7606154 98.1964653 23.6448292 98.639264 23.529043 99.1650796 23.440946 99.7739278 23.3805358 100.382776 23.3201256 100.815505 23.2848868 101.072127 23.2748185 101.328749 23.2647501 101.633168 23.259716 101.985395 23.259716L104.46103 23.4107408C104.46103 22.0313742 104.081134 21.0472059 103.321332 20.4582063 102.561529 19.8692067 101.436938 19.5747113 99.9475242 19.5747113 98.2769654 19.5747113 96.7724786 19.8213826 95.4340188 20.3147327L95.4340188 18.1550783C96.9536236 17.6214547 98.4983641 17.3546469 100.068287 17.3546469 102.231962 17.3546469 103.882369 17.9008478 105.019557 18.9932658 106.156745 20.0856839 106.72533 21.6840136 106.72533 23.7883027L106.72533 28.4247636C106.72533 29.4114638 106.496386 30.2546771 106.038492 30.9544288 105.580598 31.6541804 104.991886 32.1601084 104.272338 32.4722278 103.55279 32.7843473 102.878538 33.000814 102.249563 33.1216344 101.620587 33.2424548 100.999169 33.3028641 100.385289 33.3028641 99.9122994 33.3028641 99.4267376 33.2726595 98.928589 33.2122493 98.4304405 33.1518391 97.8668869 33.0134011 97.2379114 32.7969311 96.608936 32.5804612 96.0629935 32.3035852 95.6000675 31.9662948 95.1371416 31.6290044 94.7421509 31.14573 94.4150837 30.5164569 94.0880164 29.8871838 93.9244853 29.159755 93.9244853 28.3341487zM96.1434996 28.3341487C96.1434996 30.2672756 97.5423201 31.2338246 100.340003 31.2338246L100.385289 31.2338246C103.12259 31.2338246 104.49122 30.2974803 104.49122 28.4247636L104.49122 25.4495754C103.806895 25.3287549 102.89112 25.2683456 101.743869 25.2683456 98.0102708 25.2683456 96.1434996 26.2902698 96.1434996 28.3341487zM110.046304 21.840083C110.046304 20.6016736 110.496643 19.5445107 111.397336 18.6685626 112.298029 17.7926144 113.674207 17.3546469 115.525911 17.3546469 116.844243 17.3546469 118.162556 17.6717958 119.480889 18.3061031L119.480889 20.5412699C118.303446 19.836484 117.065641 19.4840964 115.767436 19.4840964 113.442743 19.4840964 112.280413 20.2694174 112.280413 21.840083 112.280413 22.3737066 112.56219 22.8041229 113.125752 23.1313449 113.689314 23.4585669 114.378661 23.7304088 115.193813 23.9468788 116.008965 24.1633487 116.824105 24.4226053 117.639258 24.7246564 118.45441 25.0267075 119.146272 25.5376696 119.714866 26.257558 120.28346 26.9774464 120.567753 27.8961713 120.567753 29.0137603 120.567753 30.3528534 120.067096 31.4024651 119.065767 32.162627 118.064438 32.9227889 116.678197 33.3028641 114.907002 33.3028641 113.196189 33.3028641 111.641385 32.9152377 110.242543 32.1399733L110.242543 29.7839867C111.721893 30.6901399 113.246507 31.1432097 114.81643 31.1432097 117.16125 31.1432097 118.333643 30.4334003 118.333643 29.0137603 118.333643 28.2485642 118.051866 27.6495052 117.488304 27.2165653 116.924742 26.7836255 116.235395 26.4589254 115.420243 26.2424555 114.605091 26.0259855 113.789951 25.7893824 112.974799 25.532639 112.159647 25.2758956 111.467784 24.8429622 110.89919 24.2338259 110.330596 23.6246895 110.046304 22.8267832 110.046304 21.840083zM122.650909 19.6653261L122.650909 17.6264916 125.337879 17.6264916 125.337879 13.2618753 127.571988 13.2618753 127.571988 17.6264916 131.557157 17.6264916 131.557157 19.6653261 127.571988 19.6653261 127.571988 29.0741702C127.571988 29.859503 127.73552 30.4107379 128.062587 30.7278916 128.389654 31.0450452 128.965787 31.2036196 129.791003 31.2036196 130.42501 31.2036196 131.013722 31.082801 131.557157 30.8411602L131.557157 32.9404047C130.903023 33.1820455 130.248898 33.3028641 129.594763 33.3028641L129.519287 33.3028641C129.106679 33.3028641 128.704141 33.2575572 128.31166 33.1669418 127.919179 33.0763265 127.476387 32.8976156 126.98327 32.6308039 126.490154 32.3639921 126.092647 31.9159564 125.790739 31.2866833 125.488831 30.6574102 125.337879 29.8796403 125.337879 28.9533504L125.337879 19.6653261 122.650909 19.6653261zM134.138459 25.5401902L134.138459 25.3136531C134.138459 20.0076225 136.397705 17.3546469 140.916265 17.3546469 141.862244 17.3546469 142.720154 17.5031532 143.49002 17.8001701 144.259886 18.0971869 144.871241 18.4470575 145.324103 18.8497923 145.776965 19.2525271 146.174472 19.7785915 146.516635 20.4280013 146.858797 21.0774111 147.102836 21.6286461 147.248758 22.0817227 147.394681 22.5347993 147.507895 23.0835172 147.588404 23.7278928 147.668912 24.3521317 147.709166 24.7447922 147.709166 24.9058861L147.709166 25.5703952 147.648785 26.6577736 136.40276 26.6577736C136.54365 28.2083025 137.016633 29.3334259 137.821721 30.0331776 138.62681 30.7329292 139.81933 31.0827998 141.399316 31.0827998 143.6435 31.0827998 145.409637 30.7002075 146.697779 29.9350115L146.697779 32.2305882C145.208365 32.9454424 143.401974 33.3028641 141.278553 33.3028641L141.187981 33.3028641C140.282257 33.3028641 139.452021 33.1946308 138.697251 32.9781609 137.94248 32.7616909 137.2003 32.3866498 136.470689 31.8530262 135.741077 31.3194026 135.169976 30.5164622 134.757368 29.4441809 134.34476 28.3718996 134.138459 27.0705824 134.138459 25.5401902zM136.40276 24.679349L145.429771 24.679349C145.429771 24.326956 145.387001 23.9342955 145.30146 23.5013557 145.215919 23.0684158 145.044841 22.5121467 144.788219 21.8325318 144.531597 21.1529169 144.068678 20.5865796 143.399448 20.133503 142.730218 19.6804264 141.902499 19.4538914 140.916265 19.4538914 139.386597 19.4538914 138.277101 19.8515861 137.587744 20.6469872 136.898387 21.4423884 136.503396 22.7864955 136.40276 24.679349zM151.407523 33.0612245L151.407523 18.8648948C153.732217 17.8781946 156.227954 17.3848519 158.89481 17.3848519L158.89481 19.5143014C157.204124 19.5545748 155.448051 19.8213826 153.626538 20.3147327L153.626538 33.0612245 151.407523 33.0612245zM20.5484379 6.09615385L20.5452222 6.08974359 6.84947931 13.9198718C6.24170861 14.2435897 5.74005661 14.7435897 5.40883765 15.3461538L.49522057 12.6730769C.916479626 11.8525641 1.58534897 11.1762821 2.40214134 10.7403846L20.0081973.673076923 20.0146288.682692308C20.7124396.25 21.5388791 0 22.4232015 0 23.2528568 0 24.0278448.221153846 24.6967141.602564103L42.3992417 10.7275641C43.3317999 11.2179487 44.071415 12.0192308 44.4765955 12.9903846L39.5372527 15.5865385C39.2156809 14.8685897 38.6529302 14.275641 37.9551194 13.9102564L24.1886307 6.03525641C23.6676844 5.73717949 23.0663451 5.56730769 22.4199858 5.56730769 21.7318222 5.56730769 21.0918943 5.75961538 20.5484379 6.09615385zM44.8206773 14.5160256C44.8206773 14.5833333 44.8271087 14.650641 44.8271087 14.7179487L44.8271087 35.2948718C44.8271087 37.0641026 43.7948633 38.5961538 42.2963387 39.3365385L24.8317743 49.3782051C24.3429852 49.6826923 23.7930974 49.8974359 23.2078367 50L23.2078367 44.4166667C23.5969386 44.3269231 23.9635304 44.1730769 24.2947494 43.9679487L37.8747265 36.1570513C39.0420321 35.5833333 39.8427459 34.3910256 39.8427459 33.0128205L39.8427459 17.1314103 44.8206773 14.5160256zM.0610986418 14.5160256L5.14514878 17.1314103 5.14514878 33.0128205C5.14514878 34.3910256 5.94586256 35.5833333 7.11316819 36.1570513L7.00383378 36.1570513 20.5870266 43.9679487 20.4583978 43.9679487C20.7896168 44.1730769 21.1562086 44.3269231 21.5453105 44.4166667L21.5453105 50C20.9568341 49.8974359 20.4069463 49.6826923 19.9213729 49.3782051L20.0500017 49.3814103 2.58222154 39.3365385 2.53077006 39.3365385C1.02902976 38.5961538 0 37.0641026 0 35.2948718L0 14.7179487C0 14.650641.0578829238 14.5833333.0610986418 14.5160256z"/>
    <path d="M28.862376,37.5321747 L35.1951643,33.9117727 L35.1951643,19.3877551 L22.4924963,27.2806495 L9.78982835,19.3877551 L9.78982835,33.9117727 L16.51256,37.755102 L16.5125597,30.583352 L22.6874678,34.4201757 L28.8623758,30.583352 L28.862376,37.5321747 Z"/>
  </g>
</svg>
