<?xml version="1.0" encoding="UTF-8"?>
<svg width="198px" height="24px" viewBox="0 0 198 24" version="1.1" xmlns="http://www.w3.org/2000/svg" xmlns:xlink="http://www.w3.org/1999/xlink">
    <title>buttonssosigninunity</title>
    <g id="buttonssosigninunity" stroke="none" stroke-width="1" fill="none" fill-rule="evenodd">
        <rect fill="#FFFFFF" x="0" y="0" width="198" height="24"></rect>
        <path d="M66.4396973,16.230957 C67.2811686,16.230957 68.019694,16.0429688 68.6552734,15.6669922 C69.2908529,15.2910156 69.6086426,14.6661784 69.6086426,13.7924805 C69.6086426,13.0906576 69.3579915,12.5553385 68.8566895,12.1865234 C68.5666504,11.9752604 68.1548665,11.8087565 67.6213379,11.6870117 L67.6213379,11.6870117 L66.5148926,11.4345703 C65.7701009,11.2626953 65.2920736,11.1194661 65.0808105,11.0048828 C64.7585449,10.8258464 64.5974121,10.5429688 64.5974121,10.15625 C64.5974121,9.80533854 64.7352702,9.49739583 65.0109863,9.23242188 C65.2867025,8.96744792 65.7396647,8.83496094 66.369873,8.83496094 C67.150472,8.83496094 67.7036947,9.04085286 68.029541,9.45263672 C68.2049967,9.67822266 68.3195801,10.0022786 68.373291,10.4248047 L68.373291,10.4248047 L69.3776855,10.4248047 C69.3776855,9.54752604 69.0885417,8.90926107 68.5102539,8.51000977 C67.9319661,8.11075846 67.229248,7.91113281 66.4020996,7.91113281 C65.5033366,7.91113281 64.8086751,8.13850911 64.3181152,8.59326172 C63.8275553,9.04801432 63.5822754,9.62988281 63.5822754,10.3388672 C63.5822754,10.9941406 63.8329264,11.4864909 64.3342285,11.815918 C64.6242676,12.0056966 65.1184082,12.179362 65.8166504,12.3369141 L65.8166504,12.3369141 L66.885498,12.5786133 C67.4655762,12.7111003 67.8916829,12.866862 68.1638184,13.0458984 C68.432373,13.2285156 68.5666504,13.534668 68.5666504,13.9643555 C68.5666504,14.5372721 68.2479655,14.9347331 67.6105957,15.1567383 C67.2811686,15.2713216 66.9159342,15.3286133 66.5148926,15.3286133 C65.6197103,15.3286133 64.994873,15.0672201 64.6403809,14.5444336 C64.4541829,14.2651367 64.3485514,13.9016927 64.3234863,13.4541016 L64.3234863,13.4541016 L63.3190918,13.4541016 C63.3083496,14.3063151 63.580485,14.9812826 64.135498,15.4790039 C64.6905111,15.980306 65.4585775,16.230957 66.4396973,16.230957 Z M71.8161621,9.20556641 L71.8161621,8.10986328 L70.833252,8.10986328 L70.833252,9.20556641 L71.8161621,9.20556641 Z M71.8161621,16 L71.8161621,10.2744141 L70.833252,10.2744141 L70.833252,16 L71.8161621,16 Z M75.3449707,18.4331055 C76.4585775,18.4331055 77.2159017,18.042806 77.6169434,17.262207 C77.8317871,16.839681 77.939209,16.2631836 77.939209,15.5327148 L77.939209,15.5327148 L77.939209,10.3012695 L77.0476074,10.3012695 L77.0476074,11.0263672 C76.8578288,10.7864583 76.6716309,10.6038411 76.4890137,10.4785156 C76.1524251,10.2565104 75.7585449,10.1455078 75.307373,10.1455078 C74.6413574,10.1455078 74.0729167,10.4158529 73.6020508,10.956543 C73.1311849,11.4972331 72.895752,12.2491862 72.895752,13.2124023 C72.895752,14.2329102 73.1293945,14.9642741 73.5966797,15.4064941 C74.0639648,15.8487142 74.6091309,16.0698242 75.2321777,16.0698242 C75.6797689,16.0698242 76.0396322,15.9982096 76.3117676,15.8549805 C76.583903,15.7117513 76.8166504,15.4933268 77.0100098,15.199707 C77.020752,15.9910482 76.9580892,16.5406901 76.8220215,16.8486328 C76.5928548,17.3714193 76.107666,17.6328125 75.3664551,17.6328125 C74.8973796,17.6328125 74.5536296,17.5253906 74.3352051,17.3105469 C74.1955566,17.1708984 74.1024577,16.972168 74.0559082,16.7143555 L74.0559082,16.7143555 L73.072998,16.7143555 C73.1231283,17.3051758 73.3594564,17.7393392 73.7819824,18.0168457 C74.2045085,18.2943522 74.7255046,18.4331055 75.3449707,18.4331055 Z M75.3449707,15.2802734 C74.9009603,15.2802734 74.5473633,15.111084 74.2841797,14.7727051 C74.0209961,14.4343262 73.8894043,13.9410807 73.8894043,13.2929688 C73.8894043,12.7415365 73.9556478,12.2957357 74.0881348,11.9555664 C74.3387858,11.3181966 74.8042806,10.9995117 75.4846191,10.9995117 C75.9393717,10.9995117 76.3135579,11.1713867 76.6071777,11.5151367 C76.9007975,11.8588867 77.0476074,12.3870443 77.0476074,13.0996094 C77.0476074,13.5722656 76.9688314,13.9858398 76.8112793,14.340332 C76.5284017,14.9669596 76.0396322,15.2802734 75.3449707,15.2802734 Z M80.3615723,16 L80.3615723,12.9868164 C80.3615723,12.6108398 80.3857422,12.321696 80.434082,12.1193848 C80.4824219,11.9170736 80.5871582,11.7210286 80.748291,11.53125 C80.9488118,11.2949219 81.1815592,11.1373698 81.4465332,11.0585938 C81.5933431,11.0120443 81.7813314,10.9887695 82.010498,10.9887695 C82.4616699,10.9887695 82.7731934,11.167806 82.9450684,11.5258789 C83.0489095,11.7407227 83.1008301,12.0236003 83.1008301,12.3745117 L83.1008301,12.3745117 L83.1008301,16 L84.0837402,16 L84.0837402,12.3100586 C84.0837402,11.7299805 84.0049642,11.2841797 83.8474121,10.9726562 C83.5609538,10.4033203 83.0095215,10.1186523 82.1931152,10.1186523 C81.8207194,10.1186523 81.4823405,10.1920573 81.1779785,10.3388672 C80.8736165,10.4856771 80.5853678,10.7273763 80.3132324,11.0639648 L80.3132324,11.0639648 L80.3132324,10.2475586 L79.3947754,10.2475586 L79.3947754,16 L80.3615723,16 Z M89.5515137,9.20556641 L89.5515137,8.10986328 L88.5686035,8.10986328 L88.5686035,9.20556641 L89.5515137,9.20556641 Z M89.5515137,16 L89.5515137,10.2744141 L88.5686035,10.2744141 L88.5686035,16 L89.5515137,16 Z M91.979248,16 L91.979248,12.9868164 C91.979248,12.6108398 92.003418,12.321696 92.0517578,12.1193848 C92.1000977,11.9170736 92.204834,11.7210286 92.3659668,11.53125 C92.5664876,11.2949219 92.799235,11.1373698 93.064209,11.0585938 C93.2110189,11.0120443 93.3990072,10.9887695 93.6281738,10.9887695 C94.0793457,10.9887695 94.3908691,11.167806 94.5627441,11.5258789 C94.6665853,11.7407227 94.7185059,12.0236003 94.7185059,12.3745117 L94.7185059,12.3745117 L94.7185059,16 L95.701416,16 L95.701416,12.3100586 C95.701416,11.7299805 95.62264,11.2841797 95.4650879,10.9726562 C95.1786296,10.4033203 94.6271973,10.1186523 93.810791,10.1186523 C93.4383952,10.1186523 93.1000163,10.1920573 92.7956543,10.3388672 C92.4912923,10.4856771 92.2030436,10.7273763 91.9309082,11.0639648 L91.9309082,11.0639648 L91.9309082,10.2475586 L91.0124512,10.2475586 L91.0124512,16 L91.979248,16 Z M102.238037,16 L103.371338,11.5473633 L104.542236,16 L105.546631,16 L107.217041,10.2475586 L106.250244,10.2475586 L105.073975,14.7539062 L103.946045,10.2475586 L102.861084,10.2475586 L101.738525,14.7807617 L100.63208,10.2475586 L99.5739746,10.2475586 L101.233643,16 L102.238037,16 Z M109.113037,9.20556641 L109.113037,8.10986328 L108.130127,8.10986328 L108.130127,9.20556641 L109.113037,9.20556641 Z M109.113037,16 L109.113037,10.2744141 L108.130127,10.2744141 L108.130127,16 L109.113037,16 Z M111.92749,16.0913086 C112.067139,16.0913086 112.19694,16.0841471 112.316895,16.0698242 C112.436849,16.0555013 112.552327,16.0322266 112.66333,16 L112.66333,16 L112.66333,15.2373047 C112.591715,15.2444661 112.529053,15.2489421 112.475342,15.2507324 C112.421631,15.2525228 112.371501,15.253418 112.324951,15.253418 C112.149495,15.253418 112.02417,15.233724 111.948975,15.1943359 C111.812907,15.1263021 111.744873,14.9920247 111.744873,14.7915039 L111.744873,14.7915039 L111.744873,11.0371094 L112.66333,11.0371094 L112.66333,10.2475586 L111.744873,10.2475586 L111.744873,8.64160156 L110.767334,8.64160156 L110.767334,10.2475586 L109.988525,10.2475586 L109.988525,11.0371094 L110.767334,11.0371094 L110.767334,14.8452148 C110.767334,15.2140299 110.8479,15.513916 111.009033,15.744873 C111.170166,15.9758301 111.476318,16.0913086 111.92749,16.0913086 Z M114.596924,16 L114.596924,12.9492188 C114.596924,12.1829427 114.759847,11.6619466 115.085693,11.3862305 C115.41154,11.1105143 115.774984,10.9726562 116.176025,10.9726562 C116.659424,10.9726562 116.988851,11.1302083 117.164307,11.4453125 C117.271729,11.6422526 117.325439,11.9519857 117.325439,12.3745117 L117.325439,12.3745117 L117.325439,16 L118.319092,16 L118.319092,12.3100586 C118.319092,11.7443034 118.238525,11.3020833 118.077393,10.9833984 C117.780192,10.3997396 117.214437,10.1079102 116.380127,10.1079102 C115.914632,10.1079102 115.526123,10.2099609 115.2146,10.4140625 C115.031982,10.5322266 114.82609,10.7363281 114.596924,11.0263672 L114.596924,11.0263672 L114.596924,8.08300781 L113.630127,8.08300781 L113.630127,16 L114.596924,16 Z M126.112549,16.2094727 C127.44458,16.2094727 128.350505,15.7332357 128.830322,14.7807617 C129.091715,14.2579753 129.222412,13.5113932 129.222412,12.5410156 L129.222412,12.5410156 L129.222412,8.10986328 L128.137451,8.10986328 L128.137451,12.9868164 C128.137451,13.5561523 128.049723,14.0091146 127.874268,14.3457031 C127.548421,14.9651693 126.932536,15.2749023 126.026611,15.2749023 C125.271077,15.2749023 124.733968,14.988444 124.415283,14.4155273 C124.200439,14.0359701 124.093018,13.5597331 124.093018,12.9868164 L124.093018,12.9868164 L124.093018,8.10986328 L123.008057,8.10986328 L123.008057,12.5410156 C123.008057,13.5113932 123.138753,14.2579753 123.400146,14.7807617 C123.876383,15.7332357 124.780518,16.2094727 126.112549,16.2094727 Z M131.7146,16 L131.7146,12.9868164 C131.7146,12.6108398 131.73877,12.321696 131.787109,12.1193848 C131.835449,11.9170736 131.940186,11.7210286 132.101318,11.53125 C132.301839,11.2949219 132.534587,11.1373698 132.799561,11.0585938 C132.94637,11.0120443 133.134359,10.9887695 133.363525,10.9887695 C133.814697,10.9887695 134.126221,11.167806 134.298096,11.5258789 C134.401937,11.7407227 134.453857,12.0236003 134.453857,12.3745117 L134.453857,12.3745117 L134.453857,16 L135.436768,16 L135.436768,12.3100586 C135.436768,11.7299805 135.357992,11.2841797 135.200439,10.9726562 C134.913981,10.4033203 134.362549,10.1186523 133.546143,10.1186523 C133.173747,10.1186523 132.835368,10.1920573 132.531006,10.3388672 C132.226644,10.4856771 131.938395,10.7273763 131.66626,11.0639648 L131.66626,11.0639648 L131.66626,10.2475586 L130.747803,10.2475586 L130.747803,16 L131.7146,16 Z M137.848389,9.20556641 L137.848389,8.10986328 L136.865479,8.10986328 L136.865479,9.20556641 L137.848389,9.20556641 Z M137.848389,16 L137.848389,10.2744141 L136.865479,10.2744141 L136.865479,16 L137.848389,16 Z M140.662842,16.0913086 C140.80249,16.0913086 140.932292,16.0841471 141.052246,16.0698242 C141.172201,16.0555013 141.287679,16.0322266 141.398682,16 L141.398682,16 L141.398682,15.2373047 C141.327067,15.2444661 141.264404,15.2489421 141.210693,15.2507324 C141.156982,15.2525228 141.106852,15.253418 141.060303,15.253418 C140.884847,15.253418 140.759521,15.233724 140.684326,15.1943359 C140.548258,15.1263021 140.480225,14.9920247 140.480225,14.7915039 L140.480225,14.7915039 L140.480225,11.0371094 L141.398682,11.0371094 L141.398682,10.2475586 L140.480225,10.2475586 L140.480225,8.64160156 L139.502686,8.64160156 L139.502686,10.2475586 L138.723877,10.2475586 L138.723877,11.0371094 L139.502686,11.0371094 L139.502686,14.8452148 C139.502686,15.2140299 139.583252,15.513916 139.744385,15.744873 C139.905518,15.9758301 140.21167,16.0913086 140.662842,16.0913086 Z M142.875732,18.3579102 C143.434326,18.3579102 143.828206,18.1967773 144.057373,17.8745117 C144.28654,17.5522461 144.68042,16.6570638 145.239014,15.1889648 C145.475342,14.565918 145.768962,13.7602539 146.119873,12.7719727 C146.588949,11.4578451 146.89152,10.6163737 147.027588,10.2475586 L147.027588,10.2475586 L145.95874,10.2475586 L144.406494,14.9311523 L142.86499,10.2475586 L141.769287,10.2475586 L143.89624,16.1665039 C143.84611,16.2954102 143.765544,16.4923503 143.654541,16.7573242 C143.543538,17.0222982 143.479085,17.1691081 143.461182,17.1977539 C143.40389,17.2836914 143.333171,17.3562012 143.249023,17.4152832 C143.164876,17.4743652 143.033285,17.5039062 142.854248,17.5039062 C142.796956,17.5039062 142.730713,17.4985352 142.655518,17.487793 C142.580322,17.4770508 142.458577,17.4484049 142.290283,17.4018555 L142.290283,17.4018555 L142.290283,18.2827148 C142.397705,18.3113607 142.488118,18.3310547 142.561523,18.3417969 C142.634928,18.3525391 142.739665,18.3579102 142.875732,18.3579102 Z M152.371826,16 L152.371826,8.10986328 L151.292236,8.10986328 L151.292236,16 L152.371826,16 Z M157.340088,16 C158.693604,16 159.647868,15.4020182 160.202881,14.2060547 C160.517985,13.5292969 160.675537,12.7719727 160.675537,11.934082 C160.675537,10.8491211 160.408773,9.9593099 159.875244,9.26464844 C159.277262,8.49479167 158.435791,8.10986328 157.35083,8.10986328 L157.35083,8.10986328 L154.155029,8.10986328 L154.155029,16 L157.340088,16 Z M157.135986,15.0869141 L155.229248,15.0869141 L155.229248,9.02832031 L157.125244,9.02832031 C157.9882,9.02832031 158.613932,9.29866536 159.002441,9.83935547 C159.390951,10.3800456 159.585205,11.1391602 159.585205,12.1166992 C159.585205,12.370931 159.55835,12.6466471 159.504639,12.9438477 C159.41154,13.441569 159.259359,13.8497721 159.048096,14.168457 C158.783122,14.565918 158.442952,14.8344727 158.027588,14.9741211 C157.79484,15.0493164 157.49764,15.0869141 157.135986,15.0869141 L157.135986,15.0869141 Z" id="SigninwithUnityID" fill="#000000" fill-rule="nonzero"></path>
        <path d="M17.3010828,16.7152318 L14.4109589,11.823416 L17.298701,6.96688742 L18.6849315,11.8464455 L17.3010828,16.7152318 Z M10.7474181,16.4634376 L7.06849315,12.9006623 L12.9268296,12.9006623 L15.8356164,17.6688742 L10.7474181,16.4634376 Z M10.7369611,7.55577998 L15.8356164,6.33112583 L12.9402882,11.0832767 L7.06849315,11.0993377 L10.7369611,7.55577998 Z M20,10.3420506 L18.2484829,4 L11.7168234,5.70508078 L10.7390107,7.35922623 L8.77766253,7.36488571 L4,12.0000928 L8.75276894,16.6354854 L10.7185045,16.6354854 L11.6889731,18.3055887 L18.2084242,20 L20,13.6097046 L19.0046377,11.9879388 L20,10.3420506 Z" id="Shape" fill="#000000"></path>
    </g>
</svg>