<svg xmlns="http://www.w3.org/2000/svg" width="16" height="16" viewBox="0 0 16 16">
  <g fill="none" fill-rule="evenodd">
    <rect width="16" height="16" fill="#00FFFF"/>
    <path fill="#005596" fill-rule="nonzero" d="M12.5,15 C10.5670034,15 9,13.4329966 9,11.5 C9,9.56700338 10.5670034,8 12.5,8 C14.4329966,8 16,9.56700338 16,11.5 C16,13.4329966 14.4329966,15 12.5,15 Z M12.5,14 C13.8807119,14 15,12.8807119 15,11.5 C15,10.1192881 13.8807119,9 12.5,9 C11.1192881,9 10,10.1192881 10,11.5 C10,12.8807119 11.1192881,14 12.5,14 Z M13,10 L13,11.293 L14.121,12.414 L13.414,13.121 L12.003,11.711 L12,10 L13,10 Z"/>
  </g>
</svg>
