<svg xmlns="http://www.w3.org/2000/svg" width="16" height="16" viewBox="0 0 16 16">
  <g fill="none" fill-rule="evenodd">
    <rect width="16" height="16" fill="#00FFFF"/>
    <path fill="#424242" fill-rule="nonzero" d="M6,5 L6,2 L14,2 L14,11 L6,11 L6,9 L7,9 L7,10 L13,10 L13,3 L7,3 L7,5 L6,5 Z M12,4 L12,5 L8,5 L8,4 L12,4 Z M12,6 L12,7 L8,7 L8,6 L12,6 Z M12,8 L12,9 L8,9 L8,8 L12,8 Z M3,8 L3,10.4821676 L2,10.4821676 L2,7 L5.00308539,7 L5,6 L7.0047429,7.48213354 L5,9 L5.00308539,8 L3,8 Z M7.0047429,13.4821676 L7.0047429,12 L8.0047429,12 L8.0047429,14.4821676 L4.00165751,14.4821676 L4.0047429,15.4821676 L2,14.0000341 L4.0047429,12.4821676 L4.00165751,13.4821676 L7.0047429,13.4821676 Z"/>
  </g>
</svg>
