<svg xmlns="http://www.w3.org/2000/svg" width="16" height="16" viewBox="0 0 16 16">
  <g fill="none" fill-rule="evenodd">
    <rect width="16" height="16" fill="#00FFFF"/>
    <path fill="#FF00FF" fill-rule="nonzero" d="M7.99934375,0 C4.1565625,0 1,1.02085424 1,2.31392542 C1,2.65421017 1.82342969,7.48621017 2.16653906,9.39178305 C2.30380469,10.2765017 4.56830469,11.5015051 7.99934375,11.5015051 C11.4304375,11.5015051 13.6263047,10.2765017 13.8321484,9.39178305 C14.1752578,7.48621017 14.9986875,2.65421017 14.9986875,2.31392542 C14.9301094,1.02085424 11.842125,0 7.99934375,0 Z M7.99934375,9.93621695 C6.76417187,9.93621695 5.80347656,8.98343051 5.80347656,7.75842712 C5.80347656,6.53342373 6.76417187,5.58063729 7.99934375,5.58063729 C9.23451562,5.58063729 10.1952109,6.53342373 10.1952109,7.75842712 C10.1952109,8.91536271 9.23451562,9.93621695 7.99934375,9.93621695 Z M7.99934375,2.99449492 C5.529,2.99449492 3.53897656,2.58608814 3.53897656,2.04170847 C3.53897656,1.49722034 5.529,1.08892203 7.99934375,1.08892203 C10.4696875,1.08892203 12.4597109,1.49722034 12.4597109,2.04170847 C12.4597109,2.58614237 10.4696875,2.99449492 7.99934375,2.99449492 Z M13.0638438,11.2292881 L13.0638438,11.2292881 C13.2011094,11.2292881 13.2697422,11.3653695 13.2011094,11.5015051 L13.2011094,11.5695729 C12.9266328,12.9987254 12.7207344,14.0195797 12.7207344,14.1557153 C12.5148906,15.1765695 10.4562344,15.9932746 7.98589063,15.9932746 C5.51554688,15.9932746 3.45689063,15.1765695 3.25104688,14.1557153 C3.25104688,14.0195797 3.04520313,12.9987254 2.77067188,11.5695729 L2.77067188,11.5015593 C2.77067188,11.2973559 2.90788281,11.2292881 3.04514844,11.2292881 C3.11378125,11.2292881 3.25104688,11.2973559 3.25104688,11.2973559 C3.25104688,11.2973559 4.96653906,12.6584949 8.05452344,12.6584949 C11.1424531,12.6584949 12.858,11.2973559 12.858,11.2973559 C12.858,11.2973559 12.9265781,11.2292881 13.0638438,11.2292881 Z M7.99934375,8.77928136 C7.39295667,8.77928136 6.90138281,8.29175436 6.90138281,7.69035932 C6.90138281,7.08896429 7.39295667,6.60143729 7.99934375,6.60143729 C8.60573083,6.60143729 9.09730469,7.08896429 9.09730469,7.69035932 C9.09730469,8.29175436 8.60573083,8.77928136 7.99934375,8.77928136 Z"/>
  </g>
</svg>
