<svg xmlns="http://www.w3.org/2000/svg" width="16" height="16" viewBox="0 0 16 16">
  <g fill="none" fill-rule="evenodd">
    <rect width="16" height="16" fill="#00FFFF"/>
    <path fill="#FF00FF" d="M11.891087,10.4768734 L15.4852814,14.0710678 L14.0710678,15.4852814 L10.4768734,11.891087 C8.13366904,13.5610153 4.85958515,13.3448665 2.75735931,11.2426407 C0.414213562,8.89949494 0.414213562,5.10050506 2.75735931,2.75735931 C5.10050506,0.414213562 8.89949494,0.414213562 11.2426407,2.75735931 C13.3448665,4.85958515 13.5610153,8.13366904 11.891087,10.4768734 Z M10.5355339,10.5355339 C12.4881554,8.58291245 12.4881554,5.41708755 10.5355339,3.46446609 C8.58291245,1.51184464 5.41708755,1.51184464 3.46446609,3.46446609 C1.51184464,5.41708755 1.51184464,8.58291245 3.46446609,10.5355339 C5.41708755,12.4881554 8.58291245,12.4881554 10.5355339,10.5355339 Z"/>
    <polygon fill="#FF00FF" points="5.473 7.473 7.95 9.95 7.243 10.657 3.586 7 7.243 3.343 7.95 4.05 5.527 6.473 10.086 6.473 10.086 7.473 5.473 7.473"/>
  </g>
</svg>
