<svg xmlns="http://www.w3.org/2000/svg" width="32" height="32" viewBox="0 0 32 32">
  <g fill="none" fill-rule="evenodd">
    <rect width="32" height="32" fill="#00FFFF"/>
    <path fill="#A8D8E6" d="M24.507321,14.7658306 L26,19.0095368 L26,4 L13.4330245,4 L12.25,2 L4.4408921e-16,2 L0,6 L0,24 L16.0842955,24 L16.0842955,24 L14.0754096,22.4349883 L1.50348725,22.4349883 L1.5,7.93924495 L12.2475707,7.93924495 L13.6827777,5.5 L24.507321,5.5 L24.507321,14.7658306 L24.507321,14.7658306 Z M1.5,3.51965332 L1.5,6.53955017 L11.3400309,6.53955017 L12.2124023,5.00183105 L11.3899536,3.5 L1.5,3.51965332 L1.5,3.51965332 Z"/>
    <path fill="#A8D8E6" d="M22.4501279,26.8035233 L16.6096277,30.9752115 L18.772325,24.1314431 L13,19.8659198 L20.1771207,19.8079265 L22.4501279,13 L24.7231351,19.8079265 L31.9002558,19.8659198 L26.1279308,24.1314431 L28.2906282,30.9752115 L22.4501279,26.8035233 Z M22.4501279,25.3216415 L26.082929,27.8970444 L24.7377276,23.6720256 L28.3281235,21.0386933 L23.8639422,21.002891 L22.4501279,16.7999992 L21.0363136,21.002891 L16.5721323,21.0386933 L20.1625283,23.6720256 L18.8173268,27.8970444 L22.4501279,25.3216415 Z"/>
  </g>
</svg>
