<svg xmlns="http://www.w3.org/2000/svg" width="16" height="16" viewBox="0 0 16 16">
  <g fill="none" fill-rule="evenodd">
    <rect width="16" height="16" fill="#00FFFF"/>
    <path fill="#FF00FF" fill-rule="nonzero" d="M8.0046875,14.9414557 L0.2615,9.24449367 C0.0478940629,9.08731359 -0.0414775302,8.80872723 0.040125,8.55443038 L0.93475,5.76607595 L0.9346875,5.76613924 L8.0045804,14.9413167 L5.060625,5.76613924 L10.9486875,5.76613924 L8.0046875,14.9414557 L8.004625,14.9414557 Z M0.93475,5.76613924 L2.707875,0.239873418 C2.7990625,-0.0444303797 3.1963125,-0.0444936709 3.2875625,0.239873418 L5.060625,5.76613924 L0.93475,5.76613924 Z M15.074625,5.76607595 L15.96925,8.55443038 C16.0508393,8.80874094 15.9614415,9.08733054 15.7478125,9.24449367 L8.0046875,14.9414557 L15.074625,5.76613924 L15.074625,5.76607595 Z M15.074625,5.76613924 L10.9486875,5.76613924 L12.7218125,0.239873418 C12.8130625,-0.0444936709 13.2103125,-0.0444303797 13.3015,0.239873418 L15.074625,5.76613924 Z"/>
  </g>
</svg>
