<svg xmlns="http://www.w3.org/2000/svg" width="16" height="16" viewBox="0 0 16 16">
  <g fill="none" fill-rule="evenodd">
    <rect width="12" height="12"/>
    <rect width="16" height="16" fill="#25CAAB" rx="1"/>
    <path fill="#FFFFFF" fill-rule="nonzero" d="M4.52246094,11.1386719 L2.80371094,5.53808594 L2.75976563,5.53808594 C2.82161489,6.67741455 2.85253906,7.4374981 2.85253906,7.81835938 L2.85253906,11.1386719 L1.5,11.1386719 L1.5,4 L3.56054688,4 L5.25,9.45898438 L5.27929688,9.45898438 L7.07128906,4 L9.13183594,4 L9.13183594,11.1386719 L7.72070313,11.1386719 L7.72070313,7.75976562 C7.72070313,7.60025962 7.72314451,7.41634219 7.72802735,7.20800781 C7.73291018,6.99967344 7.75488262,6.44629355 7.79394531,5.54785156 L7.75,5.54785156 L5.90917969,11.1386719 L4.52246094,11.1386719 Z M12.3722656,6.63671875 C12.0565089,6.63671875 11.8091155,6.73681541 11.6300781,6.93701172 C11.4510408,7.13720803 11.3485027,7.42122212 11.3224609,7.7890625 L13.4123048,7.7890625 C13.4057942,7.42122212 13.3097665,7.13720803 13.1242188,6.93701172 C12.938671,6.73681541 12.6880225,6.63671875 12.3722656,6.63671875 L12.3722656,6.63671875 Z M12.5822265,11.2363281 C11.703316,11.2363281 11.0164739,10.9938175 10.5216798,10.5087891 C10.0268856,10.0237606 9.7794922,9.33691851 9.7794922,8.44824219 C9.7794922,7.53352407 10.0081683,6.82633713 10.4655274,6.32666016 C10.9228865,5.82698318 11.5552044,5.57714844 12.3625,5.57714844 C13.1339882,5.57714844 13.7345681,5.7968728 14.1642579,6.23632812 C14.5939474,6.67578345 14.808789,7.28287373 14.808789,8.05761719 L14.808789,8.78027344 L11.2882813,8.78027344 C11.3045573,9.20345264 11.4298817,9.53385298 11.6642579,9.77148438 C11.898634,10.0091158 12.2274068,10.1279297 12.6505859,10.1279297 C12.9793636,10.1279297 13.290233,10.0937503 13.5832031,10.0253906 C13.8761734,9.95703091 14.1821598,9.84798252 14.5011719,9.69824219 L14.5011719,10.8505859 C14.240754,10.9807949 13.9624363,11.0776364 13.6662109,11.1411133 C13.3699855,11.2045902 13.0086611,11.2363281 12.5822265,11.2363281 L12.5822265,11.2363281 Z"/>
  </g>
</svg>
