<svg xmlns="http://www.w3.org/2000/svg" width="16" height="16" viewBox="0 0 16 16">
  <g fill="#FFFFFF" fill-rule="evenodd">
    <path fill-rule="nonzero" d="M1,-2.90343844 C1,-2.96615195 1.04442302,-3.04263894 1.09833966,-3.07376773 L1,-2.90343844 Z M1,-2.90343844 C1,-2.96615195 1.04442302,-3.04263894 1.09833966,-3.07376773 L1,-2.90343844 Z M7.85818775,-6.97656784 L8.05486707,-6.97656784 C8.00095042,-7.00769663 7.91249924,-7.0079246 7.85818775,-6.97656784 Z M7.85818775,-6.97656784 C7.91249924,-7.0079246 8.00095042,-7.00769663 8.05486707,-6.97656784 L7.85818775,-6.97656784 Z M14.8147152,-3.07376773 L14.9130548,-2.90343844 C14.9130548,-2.96569602 14.8690266,-3.04241097 14.8147152,-3.07376773 Z M14.8147152,-3.07376773 C14.8690266,-3.04241097 14.9130548,-2.96569602 14.9130548,-2.90343844 L14.8147152,-3.07376773 Z M8.35818775,8.10926578 C8.10310325,7.96199268 7.81035696,7.96175862 7.55486707,8.10926578 L7.95652741,7.87736708 L8.35818775,8.10926578 Z M13.1097341,4.90216179 L14.2160235,4.1983473 C14.2160235,4.26106081 14.8686318,5.04136228 14.8147152,5.07249107 L8.05486707,8.97529119 C8.00055557,9.00664794 7.91210439,9.00641997 7.85818775,8.97529119 L1.09833966,5.07249107 C1.04402816,5.04113432 1.64227295,4.31002979 1.64227295,4.24777222 L2.80332068,4.90216179 L7.95652741,7.87736708 L13.1097341,4.90216179 Z M8.35818775,8.10926578 C8.10310325,7.96199268 7.81035696,7.96175862 7.55486707,8.10926578 L7.95652741,7.87736708 L8.35818775,8.10926578 Z M13.1097341,4.90216179 L14.9130548,4.90216179 C14.9130548,4.9648753 14.8686318,5.04136228 14.8147152,5.07249107 L8.05486707,8.97529119 C8.00055557,9.00664794 7.91210439,9.00641997 7.85818775,8.97529119 L1.09833966,5.07249107 C1.04402816,5.04113432 1,4.96441936 1,4.90216179 L2.80332068,4.90216179 L7.95652741,7.87736708 L13.1097341,4.90216179 Z"/>
    <g transform="translate(1)">
      <path fill-rule="nonzero" d="M1,4.56035897 L1,11.4383644 L6.95652741,14.8773671 L12.9130548,11.4383644 L12.9130548,4.56035897 L6.95652741,1.12135627 L1,4.56035897 Z M6.85818775,0.023432157 C6.91249924,-0.00792459851 7.00095042,-0.00769663157 7.05486707,0.023432157 L13.8147152,3.92623227 C13.8690266,3.95758903 13.9130548,4.03430398 13.9130548,4.09656156 L13.9130548,11.9021618 C13.9130548,11.9648753 13.8686318,12.0413623 13.8147152,12.0724911 L7.05486707,15.9752912 C7.00055557,16.0066479 6.91210439,16.00642 6.85818775,15.9752912 L0.0983396585,12.0724911 C0.0440281648,12.0411343 4.4408921e-15,11.9644194 4.4408921e-15,11.9021618 L0,4.09656156 C0,4.03384805 0.0444230151,3.95736106 0.0983396585,3.92623227 L6.85818775,0.023432157 Z"/>
      <path d="M7.5,8.84945705 L7.5,15.1999998 L6.5,15.1999998 L6.5,8.84529224 L0.520182292,5.32161458 L0.520182292,4.03971354 L7.02376592,7.85359158 L13.6410895,4 L13.6410895,5.28190104 L7.5,8.84945705 Z"/>
    </g>
  </g>
</svg>
