<svg xmlns="http://www.w3.org/2000/svg" width="64" height="64" viewBox="0 0 64 64">
  <g fill="none" fill-rule="evenodd">
    <rect width="64" height="64" fill="#FFFFFF" opacity="0"/>
    <path fill="#7F7F7F" d="M31.4146182,7.90346154 C30.5731483,7.90346154 29.7906599,8.14192308 29.1222025,8.55128205 L12.3753782,18.260641 C11.6322108,18.6620513 11.0188029,19.2820513 10.6137963,20.0292308 L4.60554378,16.7146154 C5.1206492,15.6971795 5.9385265,14.8585897 6.93728053,14.3180769 L28.4734056,1.84653846 C29.3266718,1.31 30.3372222,1 31.4185503,1 C32.4330328,1 33.3806695,1.27423077 34.1985468,1.74717949 L55.8447707,14.3021795 C56.9850804,14.9102564 57.889464,15.9038462 58.3849089,17.1080769 L52.3451995,20.3273077 C51.9519893,19.4370513 51.2638714,18.7017949 50.4106051,18.2487179 L33.5772746,8.48371795 C32.940274,8.11410256 32.2049708,7.90346154 31.4146182,7.90346154 Z M52.7187493,22.2429487 L58.8056439,18.9998718 C58.8056439,19.0833333 58.8135081,44.765641 58.8135081,44.765641 C58.8135081,46.9594872 57.5513032,48.8592308 55.7189434,49.7773077 L34.3636951,62.2289744 C33.7660155,62.6065385 33.093626,62.8728205 32.3779833,63 L32.3779833,56.0766667 C32.8537677,55.9653846 33.3020274,55.7746154 33.707034,55.5202564 L50.3123026,45.8347436 C51.7396558,45.1233333 52.7187493,43.6448718 52.7187493,41.9358974 L52.7187493,22.2429487 Z M10.2913639,22.2429487 L10.2913639,41.9358974 C10.2913639,43.6448718 11.2704574,45.1233333 12.6978106,45.8347436 L12.5641191,45.8347436 C12.5641191,45.8347436 29.4431122,55.7645753 29.6716113,55.8594659 C29.8883702,55.9494811 30.1134667,56.0224927 30.3450864,56.0766667 L30.3450864,63 C29.6255116,62.8728205 28.9531221,62.6065385 28.3593746,62.2289744 L7.15747826,49.7773077 C5.25827278,48.8592308 4,46.9594872 4,44.765641 L4,19.2502564 C4,19.1667949 4.07077784,19.0833333 4.07470995,18.9998718 L10.2913639,22.2429487 Z M39.297258,47.5854112 L39.297258,47.5854112 L39.2972578,38.9688711 L31.746729,43.7265325 L24.1962003,38.9688711 L24.1962006,47.8618411 L15.9758065,43.0961128 L15.9758065,25.0863309 L31.5083227,34.87352 L47.0408389,25.0863309 L47.0408389,43.0961128 L39.297258,47.5854112 Z"/>
  </g>
</svg>
