<svg xmlns="http://www.w3.org/2000/svg" width="36" height="36" viewBox="0 0 36 36">
  <path fill="#344D6D" d="M36,18.0830923 C35.9536699,15.6459246 35.4272491,13.216455 34.4550844,10.9949757 C33.4861244,8.77153688 32.0797809,6.75741806 30.3532375,5.09307568 C28.6277392,3.4274736 26.5814139,2.11073818 24.3666284,1.2421057 C22.1530273,0.37011402 19.772847,-0.0464264669 17.4215098,0.00410146179 C15.0698242,0.0508502933 12.728589,0.56445759 10.5875832,1.51147134 C8.44497507,2.45540583 6.50392006,3.82497864 4.90034291,5.50548715 C3.29565104,7.18515587 2.02794934,9.17625019 1.19240601,11.3301256 C0.353727564,13.4828113 -0.0459649306,15.7958287 0.00419693037,18.0830923 C0.0508753288,20.3707058 0.547129406,22.6447425 1.46049329,24.7244357 C2.3708614,26.8055985 3.69123305,28.691158 5.31083413,30.248286 C6.92952952,31.8066737 8.84766335,33.0368398 10.9211596,33.8466163 C12.9937502,34.6595421 15.2190557,35.0458498 17.4215098,34.9956718 C19.6244515,34.948713 21.8107423,34.4651985 23.8106678,33.5772507 C25.8118474,32.6922421 27.6248503,31.4092386 29.1216245,29.8358745 C30.6197224,28.2634202 31.8011736,26.4010951 32.5779857,24.3892857 C33.0510399,23.1696871 33.3719365,21.8962013 33.5410934,20.6058496 C33.5863088,20.608439 33.6318028,20.6102586 33.6776452,20.6102586 C34.9601864,20.6102586 35.9999303,19.5658981 35.9999303,18.2775059 C35.9999303,18.2120015 35.9965165,18.147267 35.9912913,18.0831623 L36,18.0830923 L36,18.0830923 Z M32.3099681,24.2775924 C31.4581918,26.2168291 30.2240707,27.9735494 28.7112029,29.423603 C27.1991712,30.8744964 25.4091591,32.0183031 23.4771611,32.7692937 C21.5456508,33.5230136 19.4751503,33.8791585 17.4215794,33.8292605 C15.3676602,33.7818818 13.3358959,33.3286001 11.4771899,32.4997881 C9.61757824,31.6735655 7.9326274,30.4772013 6.54251683,29.0111915 C5.15136122,27.5458816 4.05595158,25.8121858 3.3376616,23.9425125 C2.61665452,22.0731191 2.27708659,20.0709674 2.32662142,18.0829523 C2.37385718,16.0945174 2.8101957,14.1313464 3.60581855,12.3351555 C4.3989333,10.5381948 5.5470129,8.90996381 6.95307773,7.5671946 C8.35844586,6.22337565 10.0203362,5.16627819 11.8108359,4.47428351 C13.6011267,3.7794895 15.5168918,3.4534374 17.4215794,3.50312553 C19.3265458,3.55071416 21.2036444,3.97397304 22.9212005,4.74364916 C24.6393835,5.51087587 26.1962126,6.62088068 27.4795899,7.97974604 C28.7640122,9.3377716 29.773241,10.9429081 30.4329391,12.6703754 C31.0950757,14.3978427 31.4046859,16.2445615 31.3554297,18.0830223 L31.3641383,18.0830223 C31.3588435,18.147127 31.3554297,18.2118615 31.3554297,18.2773659 C31.3554297,19.4805884 32.262384,20.4706419 33.4268359,20.5964019 C33.2009682,21.8657586 32.8270533,23.1048826 32.3099681,24.2775924 Z"/>
</svg>
