<svg xmlns="http://www.w3.org/2000/svg" width="12" height="12" viewBox="0 0 12 12">
  <g fill="none" fill-rule="evenodd">
    <rect width="12" height="12"/>
    <rect width="12" height="12" fill="#9960FF" rx="1"/>
    <path fill="#FFFFFF" d="M9,6.75753425 L9,2.5 L7.45320197,2.5 L7.45320197,6.75753425 C7.45320197,7.26895233 7.34811271,7.64451935 7.13793103,7.88424658 C6.92774936,8.1239738 6.54680079,8.24383562 5.99507389,8.24383562 C5.67980138,8.24383562 5.42857236,8.20068536 5.24137931,8.11438356 C5.05418626,8.02808176 4.9080465,7.91621073 4.80295567,7.77876712 C4.69786483,7.64132351 4.6289,7.48310592 4.59605911,7.30410959 C4.56321823,7.12511326 4.54679803,6.9429233 4.54679803,6.75753425 L4.54679803,2.5 L3,2.5 L3,6.75753425 C3,7.69087225 3.26108113,8.3812763 3.78325123,8.82876712 C4.30542133,9.27625795 5.04268818,9.5 5.99507389,9.5 C6.93432325,9.5 7.66994808,9.27465979 8.20197044,8.8239726 C8.73399281,8.37328542 9,7.68447952 9,6.75753425 Z"/>
  </g>
</svg>
