<svg xmlns="http://www.w3.org/2000/svg" width="16" height="16" viewBox="0 0 16 16">
  <g fill="none" fill-rule="evenodd">
    <rect width="12" height="12"/>
    <rect width="16" height="16" fill="#9960FF" rx="1"/>
    <path fill="#FFFFFF" d="M11.654,9.26 L11.654,3.932 L9.77,3.932 L9.77,9.26 C9.77,9.9000032 9.64200128,10.3699985 9.386,10.67 C9.12999872,10.9700015 8.66600336,11.12 7.994,11.12 C7.60999808,11.12 7.30400114,11.0660005 7.076,10.958 C6.84799886,10.8499995 6.67000064,10.7100009 6.542,10.538 C6.41399936,10.3659991 6.3300002,10.1680011 6.29,9.944 C6.2499998,9.71999888 6.23,9.49200116 6.23,9.26 L6.23,3.932 L4.346,3.932 L4.346,9.26 C4.346,10.4280058 4.66399682,11.2919972 5.3,11.852 C5.93600318,12.4120028 6.8339942,12.692 7.994,12.692 C9.13800572,12.692 10.0339968,12.4100028 10.682,11.846 C11.3300032,11.2819972 11.654,10.4200058 11.654,9.26 Z"/>
  </g>
</svg>
