<svg xmlns="http://www.w3.org/2000/svg" width="20" height="20" viewBox="0 0 20 20">
  <g fill="none" fill-rule="evenodd">
    <rect width="20" height="20"/>
    <path fill="#CBE0E9" fill-rule="nonzero" d="M13.6825247,10.2639508 L13.2720244,9.8505379 L13.4292112,9.28954506 C13.5618372,8.81620838 13.6296346,8.32625916 13.6296346,7.82716281 C13.6296346,4.62491687 10.8172237,2 7.3148173,2 C3.81241093,2 1,4.62491687 1,7.82716281 C1,11.0294088 3.81241093,13.6543256 7.3148173,13.6543256 C9.23420677,13.6543256 11.0066053,12.8603478 12.1980937,11.5210494 L12.4964104,11.1857251 L12.9452257,11.1857251 L16.0070453,11.1857251 L16.7066838,11.8903278 L16.5837141,12.1857251 L15.5907594,12.1857251 L13.6825247,10.2639508 L13.6825247,10.2639508 Z M7.3148173,14.6543256 C3.27495526,14.6543256 0,11.5977007 0,7.82716281 C0,4.05662491 3.27495526,1 7.3148173,1 C11.3546793,1 14.6296346,4.05662491 14.6296346,7.82716281 C14.6296346,8.42566876 14.5471191,9.00618701 14.3921267,9.5593481 L16.3011378,11.4819043 C16.6871087,11.8706138 16.5505757,12.1857251 15.997696,12.1857251 L12.9452257,12.1857251 C11.6034777,13.6939235 9.57931567,14.6543256 7.3148173,14.6543256 L7.3148173,14.6543256 Z"/>
    <polygon fill="#CBE0E9" fill-rule="nonzero" points="6.949 8.063 5 8.063 5 6.962 6.949 6.962 6.949 5 8.051 5 8.051 6.962 10 6.962 10 8.063 8.051 8.063 8.051 10 6.949 10"/>
  </g>
</svg>
