<svg xmlns="http://www.w3.org/2000/svg" width="376" height="476" viewBox="0 0 376 476" xmlns:xlink="http://www.w3.org/1999/xlink">
  <defs>
    <path id="a" d="M0.298216032,0.462062862 C0.298216032,0.462062862 3.77431848,14.8136378 4.47950502,27.0547001 C5.18469155,39.2957623 0.573172043,54.0284391 14.9313927,58.8978267 C37.4515358,66.4384847 45.8519314,42.4152832 65.4632356,43.5670379 C85.0745399,44.7187926 86.132987,62.8898351 108.867578,59.3963274 C126.951347,56.6174877 116.838188,42.0146149 116.838188,32.2500476 C116.838188,22.4854802 119.561943,2.53477661 119.561943,2.53477661 L0.298216032,0.462062862 Z"/>
    <path id="b" d="M235.834512,122.617284 C235.834512,122.617284 248.955252,135.000901 254.773664,145.529825 C262.577762,159.652363 271.203968,184.558835 269.545062,182.224289 C266.987765,181.875937 262.580597,179.577231 259.994693,179.714406 C259.994693,179.714406 263.00866,182.411228 265.215466,193.34162 C267.422529,204.272269 266.614595,219.005904 266.614595,219.005904 C266.614595,219.005904 277.428021,227.189452 269.412855,229.535086 C261.398204,231.880462 258.919768,227.560752 258.919768,227.560752 C258.919768,227.560752 259.22619,237.329801 251.224683,236.773625 C243.223175,236.217449 243.529597,230.193112 243.529597,230.193112 C243.529597,230.193112 242.924742,237.392715 235.834512,236.773625 C228.74454,236.154534 228.839121,230.851137 228.839121,230.851137 C228.839121,230.851137 224.997892,238.499652 217.64634,235.457574 C210.295045,232.415495 218.631323,224.008136 217.64634,213.741442 C216.661614,203.474748 213.308754,202.121825 209.251818,198.606082 C205.195141,195.090338 202.955863,188.735183 202.955863,188.735183 L235.834512,122.617284 Z"/>
    <path id="c" d="M68.0465727,30.3705746 C69.7835658,28.5091772 74.758221,23.0433367 79.1697709,19.8720765 C84.4949173,16.0438222 88.4474785,13.6837487 88.4474785,13.6837487 L92.7770753,21.7285749 C92.7770753,21.7285749 98.5354391,17.8866547 99.5807275,13.064916 C100.626016,8.24291937 99.5807275,1.92592593 99.5807275,1.92592593 C99.5807275,1.92592593 105.768443,3.08881586 109.476949,8.7330865 C113.185197,14.3770993 113.542389,21.4315351 119.991684,24.8227388 C123.132703,26.4742487 127.029083,28.4501302 130.199739,30.0423354 C166.031535,42.683542 191.739289,76.8761158 191.739289,117.028823 C191.739289,167.918794 150.444213,209.234907 99.5807275,209.234907 C48.7169845,209.234907 7.42216602,167.918794 7.42216602,117.028823 C7.42216602,116.475999 7.42706259,115.924206 7.43685573,115.373703 L2.47405534,117.028823 L8.63161829,102.066993 C8.94035978,100.176975 9.30657151,98.306295 9.72844949,96.4570164 L0,99.701505 C0,99.701505 5.8093912,87.7288957 11.133249,79.8988561 C14.2054588,75.3798297 18.8816811,67.8305855 22.2873729,64.3470727 C33.1038913,47.7213565 49.1321619,37.2703023 68.0465727,30.3705746 Z"/>
    <path id="d" d="M67.2723487,1.28395062 C102.618353,1.44716776 131.196269,13.7668392 131.196269,28.9179284 C131.196269,44.1703515 102.234359,56.5534532 66.5615733,56.5534532 C30.8885301,56.5534532 1.92687747,44.1703515 1.92687747,28.9179284 C1.92687747,16.6475057 20.6704238,6.234355 46.5732678,2.63145899 C47.9275554,4.53230701 49.9665893,6.91326613 52.645012,8.70839689 C57.8925864,12.2256877 69.3448855,16.753223 69.3448855,16.753223 C69.3448855,16.753223 64.8317962,12.3247009 65.0152887,7.47073133 C65.1075503,5.02556831 66.2054124,2.845472 67.2723487,1.28395062 Z"/>
    <path id="e" d="M92.8893861,5.61287805 C109.515038,1.074771 118.866452,-3.84366036 118.754862,4.59231965 C118.657446,11.9347706 92.1487157,35.2245422 59.3775333,35.2245422 C26.6060932,35.2245422 -0.0853559499,13.172694 0.00020513067,5.82998521 C0.0842199266,-1.40674845 9.52634905,2.7500029 26.3352357,6.53003979 C28.6214174,10.9430911 31.6523929,15.9489325 33.2625906,16.0407261 C34.7823307,16.1271048 38.5828405,12.5345227 41.6826256,9.29880079 C47.1209085,10.0089114 53.0313237,10.4712311 59.3775333,10.4712311 C65.6397282,10.4712311 71.4862302,9.93026807 76.8776091,9.09432812 C80.0114126,12.3811037 83.9412949,16.1289097 85.4929914,16.0407261 C87.2160679,15.9427442 90.5658358,10.2172518 92.8893861,5.61287805 Z"/>
    <path id="g" d="M0,14.5781532 C3.22889993,6.21153402 15.0520496,0 29.1260742,0 C40.2075227,0 49.8934494,3.85068697 55.087677,9.57205386 C45.5071554,14.1980867 33.8780645,17.6122387 21.3307382,17.6122387 C13.8178568,17.6122387 6.62454089,16.4532165 0,14.5781532 Z"/>
    <path id="i" d="M101.887476,194.948254 C107.870561,194.948254 112.720809,192.454037 112.720809,189.377264 C112.720809,186.300491 108.65073,182.937714 102.667645,182.937714 C96.6845605,182.937714 91.0541425,186.300491 91.0541425,189.377264 C91.0541425,192.454037 95.9043911,194.948254 101.887476,194.948254 Z"/>
    <path id="j" d="M13.1614358,139.521653 L11.1755024,139.477026 C10.654843,139.477026 10.0523748,139.529091 9.36807973,139.633223 C9.33832777,140.213386 9.27882474,140.964612 9.18956886,141.886922 C8.87717326,145.159638 8.72097781,147.283153 8.72097781,148.257529 C8.72097781,149.231906 8.73585357,149.91991 8.76560553,150.321561 L6.66810273,150.477758 L7.35983238,139.454712 L2.6069803,139.186945 C2.48797246,139.186945 2.39499897,139.090253 2.32805706,138.896865 C2.26111515,138.703478 2.22764469,138.524968 2.22764469,138.361333 C2.22764469,138.197697 2.2945856,138.019188 2.42846943,137.8258 C2.56235325,137.632412 2.71854871,137.53572 2.89706048,137.53572 C3.98300707,137.580348 5.07637525,137.654727 6.17719783,137.758858 C8.21520718,137.93737 9.94823294,138.026625 11.3763271,138.026625 L12.7597864,137.981997 C13.845733,137.952245 14.9242254,137.833239 15.995296,137.624975 C16.2333117,137.669603 16.3820693,138.041497 16.4415732,138.740668 C16.4564492,138.889428 16.4638871,139.008434 16.4638871,139.09769 C15.4820723,139.380334 14.3812663,139.521653 13.1614358,139.521653 Z M19.0746086,139.990244 C19.2679964,142.772053 19.4316297,145.992654 19.5655135,149.652146 C19.4762576,150.113301 19.1192395,150.343875 18.4944483,150.343875 C18.3308125,150.343875 18.1634602,150.310405 17.9923864,150.243463 C17.8213127,150.176521 17.7134634,150.083547 17.6688355,149.96454 L17.6688355,139.990244 L19.0746086,139.990244 Z M16.9994197,136.95556 C16.9994197,136.4349 17.3043727,136.174574 17.9142879,136.174574 C18.3159394,136.174574 18.6432061,136.263829 18.8960977,136.442341 C18.9407257,136.605977 18.9630393,136.765891 18.9630393,136.922089 C18.9630393,137.078287 18.9035363,137.230763 18.7845284,137.379523 C18.6655206,137.528283 18.4870115,137.602661 18.2489958,137.602661 C18.0109801,137.602661 17.772968,137.546877 17.5349523,137.435308 C17.2969366,137.323738 17.1184275,137.163823 16.9994197,136.95556 Z M29.5509657,148.123646 C30.1534429,147.878193 30.7447542,147.651337 31.3249175,147.443074 C31.9050807,147.23481 32.4592027,147.130679 32.9873,147.130679 C33.5153973,147.130679 33.779442,147.294313 33.779442,147.621584 C33.779442,147.695964 33.7608473,147.811251 33.7236574,147.967449 C33.6864674,148.123647 33.4856447,148.309594 33.1211832,148.525296 C32.7567216,148.740997 32.3104489,148.945539 31.7823516,149.138927 C31.2542543,149.332315 30.6778187,149.510824 30.0530275,149.674459 C29.4282363,149.838095 28.8183302,149.979415 28.223291,150.098423 C26.9885846,150.351314 26.1109149,150.477758 25.5902556,150.477758 C25.0695963,150.477758 24.5080364,150.418255 23.9055592,150.299248 C23.303082,150.18024 22.7415221,149.986855 22.2208628,149.719087 C21.0159084,149.094296 20.4134402,148.171999 20.4134402,146.952169 L20.4134402,146.416636 C20.4134402,146.148868 20.5250084,145.765818 20.7481481,145.267472 C20.9712878,144.769127 21.3059923,144.270789 21.7522718,143.772444 C22.1985512,143.274098 22.7192027,142.816669 23.3142419,142.400141 C24.5638243,141.507582 25.872891,140.927428 27.2414812,140.65966 C27.7175126,140.555528 28.1154391,140.503463 28.4352727,140.503463 C28.7551063,140.503463 29.019151,140.507182 29.2274147,140.51462 C29.4356784,140.522058 29.6513769,140.536934 29.8745166,140.559248 C30.0976563,140.581562 30.2910412,140.637346 30.454677,140.726602 C30.8414525,140.91999 31.0348373,141.299321 31.0348373,141.864609 C31.0348373,142.221632 30.7819494,142.571212 30.2761661,142.91336 C30.1422823,143.002616 30.0232762,143.084433 29.9191443,143.158812 C29.8447644,142.816665 29.748072,142.526588 29.6290642,142.288572 C29.5100563,142.050556 29.2497306,141.93155 28.8480791,141.93155 C27.0927134,142.30345 25.582824,142.861291 24.3183656,143.60509 C22.8902715,144.453021 22.1762351,145.345566 22.1762351,146.282753 C22.1762351,146.386885 22.183673,146.498453 22.1985489,146.617461 C22.1985489,147.569523 22.563005,148.24637 23.2919281,148.648022 C23.8423394,148.945542 24.5526568,149.094299 25.4229016,149.094299 C26.2931465,149.094299 27.0480912,148.993888 27.6877584,148.793062 C28.3274256,148.592236 28.9484884,148.3691 29.5509657,148.123646 Z M54.4643898,139.521653 L52.4784563,139.477026 C51.957797,139.477026 51.3553288,139.529091 50.6710337,139.633223 C50.6412817,140.213386 50.5817787,140.964612 50.4925228,141.886922 C50.1801272,145.159638 50.0239317,147.283153 50.0239317,148.257529 C50.0239317,149.231906 50.0388075,149.91991 50.0685595,150.321561 L47.9710567,150.477758 L48.6627863,139.454712 L43.9099342,139.186945 C43.7909264,139.186945 43.6979529,139.090253 43.631011,138.896865 C43.5640691,138.703478 43.5305986,138.524968 43.5305986,138.361333 C43.5305986,138.197697 43.5975395,138.019188 43.7314234,137.8258 C43.8653072,137.632412 44.0215027,137.53572 44.2000144,137.53572 C45.285961,137.580348 46.3793292,137.654727 47.4801518,137.758858 C49.5181611,137.93737 51.2511869,138.026625 52.679281,138.026625 L54.0627403,137.981997 C55.1486869,137.952245 56.2271793,137.833239 57.2982499,137.624975 C57.5362656,137.669603 57.6850232,138.041497 57.7445271,138.740668 C57.7594031,138.889428 57.766841,139.008434 57.766841,139.09769 C56.7850263,139.380334 55.6842202,139.521653 54.4643898,139.521653 Z M58.9271617,146.238125 C58.9271617,144.482759 59.6858253,143.069562 61.2031754,141.998492 C62.4081298,141.150561 63.8585162,140.637347 65.554378,140.458835 L66.179166,140.458835 C66.5064376,140.458835 66.9452725,140.555528 67.4956837,140.748916 C68.7155142,141.165443 69.5485566,141.901793 69.994836,142.957988 C70.1733478,143.374515 70.2626023,143.727814 70.2626023,144.017896 C70.2626023,144.307978 70.2551644,144.512519 70.2402885,144.631527 C70.2402885,146.491025 69.53369,147.956287 68.1204718,149.027358 C66.8113855,150.009172 65.1750522,150.500072 63.2114227,150.500072 C61.7982045,150.500072 60.7308689,150.172806 60.0093839,149.518262 C59.2878988,148.863719 58.9271617,147.770351 58.9271617,146.238125 Z M60.466818,146.773658 C60.466818,147.695969 60.712268,148.32075 61.2031754,148.648022 C61.5750749,148.886038 62.1998567,149.005044 63.0775396,149.005044 C63.9552224,149.005044 64.7287618,148.938103 65.3981809,148.804219 C66.0676001,148.670335 66.6626304,148.439761 67.1832897,148.112489 C68.2989883,147.398442 68.8568292,146.290198 68.8568292,144.787724 C68.8568292,143.895165 68.618817,143.166253 68.1427857,142.600966 C67.6221263,141.991051 66.9378415,141.686098 66.0899106,141.686098 C65.5097473,141.79023 64.9258739,141.901798 64.3382726,142.020806 C63.7506714,142.139814 63.1965494,142.370388 62.6758901,142.712535 C61.5453156,143.441458 60.8089656,144.795152 60.466818,146.773658 Z M80.2480544,148.123646 C80.8505317,147.878193 81.441843,147.651337 82.0220063,147.443074 C82.6021695,147.23481 83.1562915,147.130679 83.6843888,147.130679 C84.2124861,147.130679 84.4765308,147.294313 84.4765308,147.621584 C84.4765308,147.695964 84.4579361,147.811251 84.4207462,147.967449 C84.3835562,148.123647 84.1827335,148.309594 83.818272,148.525296 C83.4538104,148.740997 83.0075377,148.945539 82.4794404,149.138927 C81.9513431,149.332315 81.3749075,149.510824 80.7501163,149.674459 C80.1253251,149.838095 79.515419,149.979415 78.9203798,150.098423 C77.6856734,150.351314 76.8080037,150.477758 76.2873444,150.477758 C75.7666851,150.477758 75.2051252,150.418255 74.602648,150.299248 C74.0001708,150.18024 73.4386109,149.986855 72.9179516,149.719087 C71.7129972,149.094296 71.110529,148.171999 71.110529,146.952169 L71.110529,146.416636 C71.110529,146.148868 71.2220972,145.765818 71.4452369,145.267472 C71.6683766,144.769127 72.0030811,144.270789 72.4493605,143.772444 C72.89564,143.274098 73.4162915,142.816669 74.0113307,142.400141 C75.2609131,141.507582 76.5699798,140.927428 77.93857,140.65966 C78.4146014,140.555528 78.8125279,140.503463 79.1323615,140.503463 C79.4521951,140.503463 79.7162398,140.507182 79.9245035,140.51462 C80.1327672,140.522058 80.3484657,140.536934 80.5716054,140.559248 C80.7947451,140.581562 80.98813,140.637346 81.1517658,140.726602 C81.5385413,140.91999 81.7319261,141.299321 81.7319261,141.864609 C81.7319261,142.221632 81.4790382,142.571212 80.9732549,142.91336 C80.8393711,143.002616 80.720365,143.084433 80.6162331,143.158812 C80.5418532,142.816665 80.4451608,142.526588 80.326153,142.288572 C80.2071451,142.050556 79.9468194,141.93155 79.5451679,141.93155 C77.7898021,142.30345 76.2799128,142.861291 75.0154544,143.60509 C73.5873602,144.453021 72.8733239,145.345566 72.8733239,146.282753 C72.8733239,146.386885 72.8807618,146.498453 72.8956377,146.617461 C72.8956377,147.569523 73.2600938,148.24637 73.9890169,148.648022 C74.5394281,148.945542 75.2497456,149.094299 76.1199904,149.094299 C76.9902353,149.094299 77.74518,148.993888 78.3848472,148.793062 C79.0245143,148.592236 79.6455772,148.3691 80.2480544,148.123646 Z M85.5699099,149.719087 C85.5699099,149.600079 85.7037918,149.477354 85.9715594,149.350909 C86.2393271,149.224463 86.4773392,149.109176 86.6856029,149.005044 C86.9979985,149.005044 87.2099781,149.068266 87.3215479,149.194711 C87.4331178,149.321157 87.4889019,149.48851 87.4889019,149.696773 C87.4889019,149.905037 87.4442746,150.061233 87.3550187,150.165364 C87.2657628,150.269496 87.1541946,150.343875 87.0203108,150.388503 C86.7971711,150.462883 86.4996559,150.500072 86.1277564,150.500072 C85.7558569,150.500072 85.5699099,150.239747 85.5699099,149.719087 Z M88.7831057,149.719087 C88.7831057,149.600079 88.9169875,149.477354 89.1847552,149.350909 C89.4525228,149.224463 89.690535,149.109176 89.8987987,149.005044 C90.2111943,149.005044 90.4231738,149.068266 90.5347437,149.194711 C90.6463135,149.321157 90.7020976,149.48851 90.7020976,149.696773 C90.7020976,149.905037 90.6574704,150.061233 90.5682145,150.165364 C90.4789586,150.269496 90.3673904,150.343875 90.2335066,150.388503 C90.0103669,150.462883 89.7128517,150.500072 89.3409522,150.500072 C88.9690527,150.500072 88.7831057,150.239747 88.7831057,149.719087 Z M92.5318341,150.500072 C92.1748106,150.500072 91.9963015,150.239747 91.9963015,149.719087 C91.9963015,149.600079 92.1822484,149.451322 92.554148,149.27281 L93.1343083,149.005044 C93.6698436,149.005044 93.9376073,149.250494 93.9376073,149.741401 C93.9376073,150.247184 93.4690209,150.500072 92.5318341,150.500072 Z"/>
    <path id="k" d="M26.4768627,220.747753 L25.1772788,221.430416 C24.8407541,221.616955 24.4700063,221.866455 24.0650245,222.178925 C24.2536519,222.564569 24.4843371,223.071438 24.7570872,223.699545 C25.7277013,225.926767 26.3875453,227.355247 26.7366392,227.985029 C27.085733,228.614811 27.3418417,229.054168 27.504973,229.303113 L26.2052272,230.155551 L22.7030513,222.783049 L19.5351431,224.312803 C19.4582231,224.355441 19.3634879,224.326254 19.2509347,224.225243 C19.1383814,224.124231 19.0527928,224.020845 18.9941664,223.91508 C18.93554,223.809315 18.9148516,223.669954 18.9321007,223.496992 C18.9493499,223.32403 19.0156634,223.205572 19.1310433,223.141616 C19.8489267,222.781395 20.582266,222.437744 21.3310831,222.110653 C22.7122931,221.495867 23.8644004,220.932658 24.7874396,220.421009 L25.6656404,219.896506 C26.3568755,219.48821 27.0113151,219.024895 27.6289791,218.506549 C27.798808,218.450119 28.0281964,218.637194 28.3171511,219.06778 C28.3800629,219.1586 28.4275071,219.232854 28.4594852,219.290544 C27.9261596,219.824988 27.265292,220.310719 26.4768627,220.747753 Z M30.4666868,218.932087 C31.5883313,220.660805 32.8479524,222.683794 34.2455878,225.001115 C34.3531178,225.331158 34.2049703,225.608098 33.8011406,225.831944 C33.6953757,225.890571 33.5752171,225.928895 33.4406611,225.946919 C33.3061052,225.964943 33.2030875,225.94349 33.1316051,225.882559 L29.5580746,219.435739 L30.4666868,218.932087 Z M28.0381535,217.714125 C27.8516148,217.3776 27.9554512,217.100084 28.3496659,216.881567 C28.6092707,216.737666 28.8527749,216.678104 29.0801859,216.702879 C29.1676573,216.792655 29.2393727,216.88802 29.2953343,216.988978 C29.351296,217.089935 29.3674649,217.209806 29.3438418,217.348593 C29.3202186,217.48738 29.2314884,217.59941 29.0776486,217.684684 C28.9238087,217.769959 28.7499851,217.819177 28.5561727,217.83234 C28.3623602,217.845502 28.1896889,217.806097 28.0381535,217.714125 Z M40.1519972,220.435652 C40.4534647,220.061152 40.7543785,219.702674 41.0547477,219.360207 C41.3551169,219.01774 41.6759628,218.751908 42.017295,218.562705 C42.3586272,218.373501 42.5879163,218.384664 42.7051692,218.596194 C42.7318176,218.644269 42.7611034,218.725446 42.7930275,218.839728 C42.8249517,218.954009 42.7617712,219.146144 42.6034842,219.416139 C42.4451972,219.686133 42.2300338,219.978225 41.9579874,220.292424 C41.6859409,220.606622 41.3773208,220.928522 41.0321176,221.258134 C40.6869144,221.587745 40.3433368,221.8976 40.0013745,222.187707 C39.2939347,222.793525 38.7719603,223.189697 38.4354356,223.376236 C38.0989109,223.562774 37.714632,223.725507 37.2825874,223.864439 C36.8505428,224.003371 36.4182976,224.079571 35.9858387,224.093039 C34.9831779,224.120914 34.2633416,223.740642 33.8263081,222.952212 L33.6344407,222.606074 C33.5385065,222.433005 33.4733807,222.14545 33.4390614,221.743403 C33.4047421,221.341356 33.4425347,220.899342 33.5524402,220.41735 C33.6623458,219.935357 33.8349804,219.453165 34.0703491,218.970758 C34.5582278,217.946165 35.1964801,217.102182 35.9851251,216.438782 C36.2554971,216.200927 36.4940407,216.024708 36.700763,215.91012 C36.9074854,215.795532 37.0794813,215.703336 37.216756,215.633528 C37.3540307,215.56372 37.4987756,215.496055 37.650995,215.430533 C37.8032144,215.36501 37.9481934,215.331781 38.0859364,215.330845 C38.405212,215.317268 38.6661097,215.493162 38.8686374,215.858531 C38.9965497,216.089291 38.9583428,216.405843 38.7540157,216.808197 C38.6994588,216.913854 38.6518528,217.009373 38.6111962,217.094755 C38.4405387,216.900259 38.2741151,216.747412 38.1119203,216.636209 C37.9497255,216.525007 37.7388289,216.541356 37.4792241,216.685257 C36.477897,217.554534 35.7018499,218.456045 35.1510595,219.389817 C34.5318118,220.44952 34.390075,221.282232 34.7258446,221.887976 C34.7631524,221.955281 34.8079318,222.024728 34.8601842,222.096318 C35.2012835,222.711678 35.6793439,223.018578 36.2943798,223.017029 C36.756728,223.01213 37.269133,222.853791 37.83161,222.542005 C38.394087,222.230218 38.8460657,221.894841 39.1875597,221.535863 C39.5290537,221.176884 39.8505297,220.810151 40.1519972,220.435652 Z M53.1727538,205.949979 L51.8731698,206.632642 C51.5366451,206.819181 51.1658974,207.068681 50.7609155,207.381151 C50.9495429,207.766795 51.1802282,208.273664 51.4529782,208.901771 C52.4235923,211.128993 53.0834364,212.557473 53.4325302,213.187255 C53.7816241,213.817037 54.0377328,214.256394 54.200864,214.505339 L52.9011183,215.357777 L49.3989423,207.985275 L46.2310341,209.515029 C46.1541142,209.557667 46.059379,209.52848 45.9468257,209.427469 C45.8342725,209.326457 45.7486839,209.223071 45.6900575,209.117306 C45.631431,209.011541 45.6107427,208.87218 45.6279918,208.699218 C45.6452409,208.526256 45.7115544,208.407798 45.8269343,208.343842 C46.5448178,207.983621 47.278157,207.63997 48.0269742,207.312878 C49.4081842,206.698093 50.5602915,206.134884 51.4833307,205.623235 L52.3615315,205.098732 C53.0527665,204.690436 53.7072062,204.227121 54.3248701,203.708775 C54.494699,203.652345 54.7240874,203.83942 55.0130422,204.270006 C55.075954,204.360826 55.1233982,204.43508 55.1553762,204.49277 C54.6220506,205.027214 53.9611831,205.512945 53.1727538,205.949979 Z M58.463574,208.69223 C57.8346721,207.557661 57.8187176,206.372441 58.41571,205.136535 C58.8907328,204.156777 59.6443093,203.305429 60.6764622,202.582466 L61.0802899,202.35862 C61.2918197,202.241367 61.6101001,202.146641 62.0351406,202.074438 C62.9728008,201.906624 63.7750474,202.084101 64.4419042,202.606876 C64.706515,202.812139 64.890782,203.008514 64.9947107,203.196007 C65.0986394,203.383499 65.167114,203.518368 65.2001364,203.600618 C65.866346,204.802491 65.9346061,206.00271 65.4049186,207.201309 C64.910558,208.30491 64.0288015,209.208455 62.7596226,209.911973 C61.8461984,210.418292 61.0390819,210.589164 60.338249,210.424593 C59.6374161,210.260023 59.0125307,209.682575 58.463574,208.69223 Z M59.6505881,208.48675 C59.981028,209.082879 60.3635161,209.398764 60.7980637,209.434415 C61.1237133,209.455013 61.5701737,209.308089 62.1374582,208.993638 C62.7047427,208.679187 63.1807316,208.358781 63.5654392,208.03241 C63.9501467,207.70604 64.2521318,207.343826 64.4714037,206.945757 C64.9367035,206.084512 64.9002053,205.168346 64.361908,204.197232 C64.0421274,203.620332 63.6271395,203.234478 63.1169321,203.039658 C62.5618906,202.831982 62.0103509,202.88004 61.4622964,203.183831 C61.1246194,203.458993 60.7872086,203.740291 60.4500539,204.027734 C60.1128991,204.315176 59.8373548,204.662733 59.6234127,205.070417 C59.1538275,205.946607 59.1628858,207.085373 59.6505881,208.48675 Z M72.9197252,202.272203 C73.2211927,201.897704 73.5221065,201.539226 73.8224757,201.196759 C74.1228449,200.854292 74.4436908,200.58846 74.785023,200.399257 C75.1263552,200.210053 75.3556443,200.221216 75.4728972,200.432746 C75.4995456,200.480821 75.5288314,200.561998 75.5607555,200.676279 C75.5926797,200.790561 75.5294992,200.982696 75.3712122,201.252691 C75.2129252,201.522685 74.9977617,201.814777 74.7257153,202.128976 C74.4536689,202.443174 74.1450488,202.765074 73.7998455,203.094685 C73.4546423,203.424297 73.1110648,203.734151 72.7691025,204.024258 C72.0616627,204.630076 71.5396883,205.026249 71.2031636,205.212788 C70.8666389,205.399326 70.48236,205.562059 70.0503154,205.700991 C69.6182708,205.839923 69.1860256,205.916122 68.7535667,205.929591 C67.7509059,205.957465 67.0310696,205.577194 66.5940361,204.788764 L66.4021686,204.442626 C66.3062345,204.269556 66.2411087,203.982002 66.2067894,203.579955 C66.1724701,203.177907 66.2102627,202.735894 66.3201682,202.253901 C66.4300738,201.771909 66.6027084,201.289716 66.8380771,200.80731 C67.3259558,199.782717 67.9642081,198.938734 68.7528531,198.275334 C69.0232251,198.037479 69.2617687,197.86126 69.468491,197.746672 C69.6752133,197.632084 69.8472093,197.539887 69.984484,197.47008 C70.1217587,197.400272 70.2665036,197.332607 70.418723,197.267085 C70.5709424,197.201562 70.7159214,197.168333 70.8536644,197.167396 C71.17294,197.15382 71.4338377,197.329713 71.6363654,197.695083 C71.7642777,197.925843 71.7260708,198.242395 71.5217436,198.644749 C71.4671868,198.750406 71.4195808,198.845924 71.3789242,198.931307 C71.2082667,198.736811 71.041843,198.583963 70.8796483,198.472761 C70.7174535,198.361559 70.5065569,198.377908 70.2469521,198.521809 C69.245625,199.391086 68.4695779,200.292597 67.9187874,201.226369 C67.2995398,202.286072 67.157803,203.118784 67.4935726,203.724528 C67.5308804,203.791833 67.5756598,203.86128 67.6279122,203.93287 C67.9690115,204.548229 68.4470719,204.85513 69.0621078,204.85358 C69.524456,204.848682 70.036861,204.690342 70.599338,204.378556 C71.161815,204.06677 71.6137937,203.731393 71.9552877,203.372414 C72.2967817,203.013436 72.6182577,202.646703 72.9197252,202.272203 Z M76.9310762,201.396724 C76.8884388,201.319804 76.9310033,201.192515 77.0587709,201.014853 C77.1865385,200.837192 77.2990717,200.677403 77.3963738,200.535483 C77.5982886,200.423559 77.757951,200.388476 77.8753657,200.430231 C77.9927804,200.471985 78.088794,200.560166 78.1634095,200.694776 C78.238025,200.829386 78.2651412,200.946331 78.244759,201.045614 C78.2243768,201.144897 78.1789134,201.232943 78.1083675,201.309755 C77.990791,201.437775 77.8118181,201.568404 77.5714433,201.701646 C77.3310685,201.834888 77.1176149,201.733248 76.9310762,201.396724 Z M79.0079041,200.245519 C78.9652667,200.168599 79.0078311,200.04131 79.1355987,199.863649 C79.2633663,199.685987 79.3758995,199.526198 79.4732016,199.384278 C79.6751165,199.272355 79.8347788,199.237271 79.9521935,199.279026 C80.0696082,199.320781 80.1656219,199.408962 80.2402373,199.543572 C80.3148528,199.678182 80.341969,199.795126 80.3215868,199.894409 C80.3012046,199.993692 80.2557412,200.081739 80.1851953,200.158551 C80.0676189,200.286571 79.8886459,200.4172 79.6482711,200.550442 C79.4078963,200.683684 79.1944428,200.582044 79.0079041,200.245519 Z M81.7106765,199.407232 C81.4799167,199.535144 81.2712706,199.430839 81.0847319,199.094315 C81.0420945,199.017395 81.1089841,198.854626 81.2854028,198.606004 L81.5644519,198.225079 C81.9105916,198.033211 82.1715972,198.095923 82.3474765,198.413218 C82.5286855,198.740127 82.316421,199.071462 81.7106765,199.407232 Z"/>
  </defs>
  <g fill="none" fill-rule="evenodd">
    <rect width="376" height="476"/>
    <g transform="translate(26 82)">
      <ellipse cx="162.5" cy="254.543" fill="#ECFAFE" rx="162.5" ry="57.457"/>
      <path fill="#C8EAFA" d="M197.651096,268.153887 C252.988718,268.153887 288.289825,251.770201 288.289825,239.36084 C288.289825,226.951479 252.988718,223.215615 197.651096,223.215615 C142.313474,223.215615 97.4534675,233.27539 97.4534675,245.684751 C97.4534675,258.094112 142.313474,268.153887 197.651096,268.153887 Z" transform="rotate(3 192.872 245.685)"/>
      <g transform="translate(7.074)">
        <g transform="translate(84.774 183.605)">
          <g stroke-linecap="round" stroke-linejoin="round">
            <use fill="#FFFFFF" xlink:href="#a"/>
            <path stroke="#297BCC" stroke-width="2.167" d="M-0.754673085,0.717083684 C-0.721977385,0.85207245 -0.65984824,1.11476709 -0.572492194,1.49406613 C-0.426411077,2.12834883 -0.263504293,2.85707677 -0.0879785572,3.66913887 C0.413858612,5.99086646 0.915806495,8.51300849 1.38421762,11.1464572 C2.0763834,15.0378745 2.63371865,18.8295078 3.00739637,22.3903125 C3.18021052,24.0370722 3.31147364,25.6156378 3.39796486,27.1170057 C3.51642376,29.1732883 3.497793,31.1307252 3.37399122,34.6249818 C3.36226687,34.9541416 3.36226687,34.9541416 3.3504037,35.2836392 C3.07742412,42.8648637 3.20122434,46.0929295 4.30563279,49.7302822 C5.79909986,54.6489936 9.03968588,58.0436745 14.5834596,59.923767 C20.6304892,61.9485665 26.0298246,61.9085561 31.3386384,60.1112019 C35.3185919,58.7637471 38.1915706,57.071734 44.3788072,52.8404944 C44.403339,52.823718 44.403339,52.823718 44.4278681,52.8069434 C53.9361813,46.3045651 58.4804119,44.2421428 65.3997218,44.6485078 C72.350682,45.0567316 76.3359785,47.0701536 83.3337486,52.5299592 C83.6856323,52.8046561 83.9003879,52.9723341 84.0381413,53.0797713 C88.3501362,56.4427975 90.7347771,58.0006499 94.0373451,59.270171 C98.3397362,60.9240283 103.146007,61.3715808 109.032117,60.4670926 C115.374799,59.4924452 118.943614,57.0133621 120.210542,53.0466335 C121.164518,50.0597484 120.853402,46.9890132 119.512578,41.3226137 C119.452633,41.0692842 119.396017,40.8318795 119.30128,40.4359304 C118.25275,36.0536315 117.921521,34.2750421 117.921521,32.2500476 C117.921521,29.2689866 118.178321,25.1245635 118.640088,20.1210886 C118.824869,18.1189001 119.039085,16.0173879 119.276941,13.8488142 C119.574161,11.1389975 119.892667,8.46348515 120.211161,5.94031538 C120.322617,5.05733659 120.426096,4.25658114 120.518936,3.55278284 C120.574575,3.13099812 120.614256,2.83560086 120.635319,2.68131851 L120.800311,1.47280159 L119.580768,1.45160684 L0.317040706,-0.621106905 L-1.08469745,-0.645468058 L-0.754673085,0.717083684 Z"/>
          </g>
          <path fill="#CEE9F1" d="M3.05044562,8.51233897 C3.05044562,8.51233897 37.087138,32.9971317 60.2484146,32.9971317 C83.4096911,32.9971317 91.639544,36.0894629 96.0521389,41.5046242 C100.464734,46.9197856 97.958765,60.3315167 97.958765,60.3315167 C97.958765,60.3315167 110.209879,61.0879393 114.115767,59.3407408 C118.021656,57.5935423 120.984774,54.7537333 120.984774,49.0363163 C120.984774,43.3188993 118.021656,32.9971317 118.021656,32.9971317 L120.44465,3.09553439 C120.44465,3.09553439 96.4059608,26.1049867 58.5528369,26.1049867 C20.699713,26.1049867 3.05044562,8.51233897 3.05044562,8.51233897 Z" style="mix-blend-mode:darken"/>
        </g>
        <g stroke-linecap="round" stroke-linejoin="round">
          <use fill="#FFFFFF" xlink:href="#b"/>
          <path stroke="#297BCC" stroke-width="2.167" d="M228.379466,233.449741 C228.539177,233.793157 228.731167,234.13085 228.958554,234.458902 C230.265102,236.343867 232.492659,237.569272 235.740275,237.852851 C239.397255,238.172164 241.932575,236.671696 243.410112,234.031265 C243.435525,233.985849 243.460467,233.940453 243.484943,233.89509 C243.524896,233.961363 243.566109,234.027309 243.608602,234.0929 C244.994504,236.232183 247.465834,237.598298 251.149563,237.85435 C255.262092,238.140208 257.882148,236.055123 259.164551,232.550939 C259.474839,231.703074 259.689986,230.814572 259.826793,229.915015 C262.132503,231.431265 265.406857,231.836153 269.717117,230.574815 C273.398332,229.497509 274.274382,226.996883 272.729584,224.074876 C272.174224,223.024404 271.33056,221.941364 270.273791,220.841728 C269.616994,220.158289 268.91659,219.508975 268.216281,218.912742 C268.04261,218.764882 267.877501,218.62764 267.722919,218.501922 C267.738858,218.132321 267.754709,217.710518 267.769559,217.240923 C267.939296,211.873229 267.848404,205.917873 267.304492,200.285252 C267.054149,197.692766 266.714891,195.294067 266.277368,193.127205 C265.828815,190.905501 265.326796,188.915875 264.780071,187.145289 C264.003783,184.631253 263.169819,182.653145 262.32216,181.146142 C262.908094,181.306513 263.588054,181.522709 264.387468,181.797667 C264.569893,181.860411 264.7583,181.925898 265.001665,182.010991 C267.282149,182.808365 268.149449,183.089364 269.034781,183.241876 C269.049238,183.252111 269.064092,183.262202 269.079387,183.272168 C269.629961,183.630904 270.416294,183.482461 270.725509,182.798174 C270.883864,182.44774 270.865945,182.193561 270.770958,181.694522 C270.669069,181.159228 270.429786,180.292919 270.06818,179.13796 C269.328026,176.773935 268.128085,173.369066 266.72073,169.663799 C263.21833,160.442722 259.229501,151.3534 255.721855,145.005856 C254.970922,143.646977 254.082342,142.222942 253.067246,140.740345 C251.478845,138.420406 249.601685,135.986687 247.494886,133.478602 C245.106903,130.635775 242.550867,127.845066 239.994969,125.222619 C239.100389,124.304747 238.269426,123.473169 237.523172,122.742545 C237.261498,122.486351 237.028939,122.260923 236.828133,122.068097 C236.706863,121.951645 236.622637,121.871481 236.578094,121.829441 L236.578094,121.829441 L235.515237,120.826295 L234.864494,122.13492 L201.985844,188.252819 L201.781837,188.663071 L201.934103,189.095207 C201.972014,189.202799 202.043158,189.393644 202.147086,189.655997 C202.317891,190.087172 202.520504,190.566071 202.754549,191.081006 C203.42321,192.552163 204.212357,194.023793 205.121274,195.403389 C206.165566,196.988461 207.303811,198.351392 208.542315,199.424749 C208.899796,199.734542 209.255873,200.032237 209.731705,200.422183 C209.857933,200.525627 210.285408,200.874758 210.297849,200.884932 C210.518105,201.065051 210.683616,201.201229 210.84255,201.333445 C214.511674,204.385772 215.910909,206.994544 216.567955,213.844875 C216.861826,216.90795 216.38503,219.688669 215.119276,223.956772 C213.606759,229.056958 213.512112,229.426339 213.504009,231.11483 C213.492018,233.613327 214.662027,235.395045 217.232106,236.458584 C221.345309,238.160631 224.870054,237.07064 227.629965,234.27266 C227.90242,233.996446 228.152188,233.720362 228.379466,233.449741 Z"/>
        </g>
        <path fill="#E6F9FF" d="M237.164319,123.048935 C237.164319,123.048935 250.485507,136.526644 256.437376,148.584997 C262.389244,160.64335 270.430079,183.655524 270.430079,183.655524 L261.602585,180.815829 C261.602585,180.815829 266.695359,192.799746 266.695359,198.214908 C266.695359,203.630069 267.625809,218.473732 267.625809,218.473732 C267.625809,218.473732 273.197223,224.011095 273.197223,226.697844 C273.197223,229.384594 269.235509,231.383585 265.750606,231.383585 C262.265703,231.383585 258.47312,227.178156 258.47312,227.178156 C258.47312,227.178156 259.495343,229.085511 259.48037,229.352422 C259.465397,229.619333 257.313897,237.013288 252.056209,237.648331 C245.977597,238.382528 243.411195,232.754919 243.411195,232.754919 C243.411195,232.754919 242.175144,237.276248 236.469244,237.648331 C230.763344,238.020413 228.679057,232.138922 228.679057,232.138922 C228.679057,232.138922 225.599806,236.875637 221.320015,236.875637 C215.802794,236.875637 214.379401,233.424166 214.379401,232.754919 C214.379401,232.085672 220.394041,234.086203 222.863167,228.340233 C224.192762,225.246094 228.679057,229.352422 228.679057,229.352422 C228.679057,229.352422 230.610201,234.69164 232.966151,234.884947 C235.322102,235.078255 235.445038,230.344917 237.823282,228.340233 C241.8892,224.912964 243.411195,230.650005 243.411195,230.650005 C243.411195,230.650005 246.772832,236.587686 250.539101,235.559172 C254.305369,234.530659 250.738912,230.385922 252.394508,227.178156 C254.050105,223.97039 258.47312,226.697844 258.47312,226.697844 C258.47312,226.697844 263.870155,226.723862 264.85492,224.102985 C265.839685,221.482108 262.071548,218.944927 262.071548,218.944927 C262.071548,218.944927 258.973929,188.759862 247.02754,183.21875 C235.081151,177.677638 203.355414,188.968003 203.355414,188.968003 C203.355414,188.968003 222.452953,171.188609 228.290664,155.503786 C234.128375,139.818962 237.164319,123.048935 237.164319,123.048935 Z" style="mix-blend-mode:darken"/>
        <g transform="translate(44.952)">
          <g stroke-linecap="round" stroke-linejoin="round">
            <use fill="#FFFFFF" xlink:href="#c"/>
            <path stroke="#297BCC" stroke-width="2.167" d="M67.4304359,29.4424271 C46.956131,36.9540419 31.6954518,47.9465992 21.4372253,63.6673952 C20.0336134,65.1185063 18.3873811,67.2461295 16.3863479,70.1167543 C15.892753,70.8248513 15.3781972,71.5771963 14.8243994,72.3988621 C14.0318999,73.5746881 10.9222081,78.2823951 10.2373449,79.2897856 C9.8288689,79.8905498 9.41060755,80.5255752 8.98323048,81.1930462 C8.05641871,82.6405266 7.09281262,84.2309134 6.1010835,85.9413039 C4.41496933,88.849269 2.7280273,91.9617939 1.11981438,95.0739157 C0.557082735,96.1628818 0.044279249,97.1742191 -0.408557579,98.0821842 C-0.567218487,98.4003089 -0.707107896,98.6829081 -0.826968936,98.9267608 C-0.899165257,99.0736415 -0.948447737,99.1745733 -0.974655091,99.2285795 L-2.09771269,101.543096 L0.342739057,100.729192 L8.26578284,98.0868158 C8.01363202,99.3080319 7.78584523,100.535735 7.58263773,101.769314 L1.47224554,116.616527 L0.571431959,118.80535 L2.8167944,118.05651 L6.33894677,116.881854 C6.33887072,116.930835 6.33883269,116.979825 6.33883269,117.028823 C6.33883269,168.516978 48.118551,210.31824 99.5807275,210.31824 C151.042735,210.31824 192.822622,168.516889 192.822622,117.028823 C192.822622,77.1930619 167.5816,42.1121864 130.624915,29.0435868 C126.740213,27.0925183 123.235225,25.3042009 120.495846,23.8638688 C117.290421,22.1783747 115.835173,20.0062548 113.579768,14.628794 C113.434728,14.2826947 113.354247,14.0906549 113.288478,13.9341237 C113.17658,13.6678066 113.082819,13.4459755 112.991941,13.2329364 C112.061885,11.0526783 111.322899,9.56975516 110.382346,8.13821936 C109.327136,6.53221109 108.028749,5.17569584 106.543546,4.04877993 C105.075139,2.93460886 103.505734,2.1021472 101.935209,1.50815769 C100.984809,1.14870613 100.234285,0.946453667 99.7808211,0.861231758 L98.2591647,0.575258867 L98.5119278,2.10278283 C98.5249251,2.1813291 98.548892,2.33833059 98.580207,2.56465458 C98.6330326,2.9464434 98.686005,3.37947039 98.735516,3.85455025 C98.9541598,5.9525313 99.0334044,8.11112498 98.8924783,10.1108702 C98.8229528,11.0974377 98.7007416,12.0107863 98.5219845,12.8354069 C98.1531087,14.5369689 97.0651697,16.2850002 95.4713844,17.9760933 C94.7472197,18.7444715 93.9681422,19.4483747 93.1894483,20.0701446 C93.1719429,20.0841223 93.1545213,20.0979909 93.1371853,20.1117499 L89.4014326,13.1703458 L88.8646283,12.1729094 L87.8920928,12.7536101 C87.7636119,12.830326 87.5216311,12.9774001 87.1762103,13.1913656 C86.6032753,13.5462613 85.9470643,13.9610911 85.2176317,14.4323954 C83.1359599,15.7774146 80.8824421,17.3066104 78.5374108,18.9924563 C77.883086,19.4628203 77.2012047,19.9930158 76.4933757,20.5790738 C75.4542793,21.4394098 74.3693952,22.4115015 73.2434627,23.4819201 C72.0600917,24.6069453 70.8753955,25.7976826 69.6539394,27.07463 C69.1931001,27.5564054 68.7470072,28.0294197 68.2638191,28.5469582 C68.0850098,28.7384791 67.6718974,29.1827998 67.4304359,29.4424271 Z"/>
          </g>
          <path fill="#E6F9FF" d="M99.3666777,0 C99.3666777,0 106.349409,7.66564303 106.629233,16.4983414 C106.909057,25.3310397 97.3167808,28.6996764 96.0502572,28.0248409 C94.7837335,27.3500055 92.3305091,18.1885879 91.4868252,16.3028718 C90.6431413,14.4171557 88.2025556,11.6468397 88.2025556,11.6468397 C88.2025556,11.6468397 90.7147602,27.2932706 87.5987839,30.5045564 C84.4828076,33.7158423 89.9513427,34.9227894 97.8371819,33.8565716 C105.723021,32.7903537 115.809534,25.9221025 121.463214,26.9734717 C127.116894,28.0248409 131.901391,29.7953698 131.901391,29.7953698 C131.901391,29.7953698 118.900011,23.9399257 116.556322,20.1213988 C114.212632,16.3028718 112.041227,7.461087 108.630571,5.0070795 C105.219915,2.55307201 99.3666777,0 99.3666777,0 Z" style="mix-blend-mode:darken"/>
          <path fill="#E6F9FF" d="M16.1512299,155.958003 C16.1512299,155.958003 41.3620661,209.323244 97.1209785,209.323244 C152.879891,209.323244 179.525275,170.030032 186.668005,148.899191 C193.810736,127.76835 193.323349,109.59278 183.208283,77.3847762 C173.093217,45.1767725 129.726641,30.0776585 129.726641,30.0776585 C129.726641,30.0776585 164.75699,58.4237085 170.276114,95.4750936 C170.517573,97.0960735 176.163353,103.783784 176.286437,105.436444 C176.409522,107.089104 170.970299,102.763627 170.992932,103.963223 C171.06091,107.566167 176.882172,119.186857 176.286437,122.901694 C175.690703,126.616531 169.386364,119.413149 168.760924,121.667814 C165.500086,133.422891 158.428747,145.5473 145.906425,157.541826 C121.441554,180.975542 96.9331183,186.46798 75.9093391,184.234097 C74.6435888,184.099605 75.6288083,192.019872 74.3890898,191.831597 C73.1493713,191.643323 67.6328431,182.968496 65.4467782,182.461257 C36.3542683,175.710829 16.1512299,155.958003 16.1512299,155.958003 Z" style="mix-blend-mode:multiply"/>
        </g>
        <g transform="translate(75.782 61.63)">
          <g stroke-linecap="round" stroke-linejoin="round">
            <use fill="#C6F1FF" xlink:href="#d"/>
            <path stroke="#297BCC" stroke-width="1.927" d="M66.3008397,14.453221 C64.1915227,13.5562546 62.0906559,12.6188143 60.124234,11.6807393 C58.7998675,11.0489547 57.5789355,10.4366307 56.483433,9.85095365 C55.175923,9.15193323 54.0652964,8.50053224 53.1814263,7.90810078 C50.9524816,6.41421883 49.002713,4.38100549 47.3579253,2.07241803 L47.0190241,1.59674376 L46.4405383,1.67720689 C19.6109267,5.4090095 0.963438735,16.2049774 0.963438735,28.9179284 C0.963438735,44.9263079 30.4105436,57.5168919 66.5615733,57.5168919 C102.712435,57.5168919 132.159708,44.9262706 132.159708,28.9179284 C132.159708,13.0258195 103.127317,0.486068999 67.2767976,0.320522154 L66.7653846,0.318160603 L66.4768662,0.740423485 C65.0453171,2.83557618 64.1409584,5.09096621 64.052535,7.43440441 C63.9634866,9.79002374 64.8230993,12.1631188 66.3008397,14.453221 Z"/>
          </g>
          <path fill="#5588BB" d="M25.1983073,51.1244571 C25.1983073,51.1244571 -7.35563133,42.3620103 2.43806372,23.249165 C12.2317588,4.13631963 46.1028696,2.07519215 46.1028696,2.07519215 C46.1028696,2.07519215 51.491501,9.22289741 53.7229669,9.14618366 C54.3632606,9.12417153 66.3749588,14.3609056 66.3749588,14.3609056 C66.3749588,14.3609056 64.8103056,12.2107049 64.8598419,7.98918761 C64.9093782,3.7676703 65.3471858,7.82286035 65.3605483,7.66592928 C65.6276492,4.52907709 65.2074542,1.96836206 67.3805775,1.08410281 C73.1024655,-1.24417392 74.9318887,1.08410281 74.9318887,1.08410281 C74.9318887,1.08410281 71.8911264,6.17393449 74.8634625,11.7293142 C77.8357986,17.2846939 80.1972589,17.1365864 79.0522243,18.3985167 C77.9071896,19.6604469 74.3852548,20.4193319 67.3805775,16.2198008 C60.3759001,12.0202698 49.4720149,6.51589462 49.4720149,6.51589462 C49.4720149,6.51589462 21.8401824,11.7096692 15.7379581,22.6120756 C4.31002634,43.0295414 25.1983073,51.1244571 25.1983073,51.1244571 Z" opacity=".196" style="mix-blend-mode:multiply"/>
        </g>
        <g transform="translate(97.14 89.997)">
          <path fill="#297BCC" d="M9.89622137,0 C15.3579562,0 19.7924427,4.43651533 19.7924427,9.90132447 C19.7924427,15.3658758 15.3579562,19.8026489 9.89622137,19.8026489 C4.43422877,19.8026489 0,15.3658758 0,9.90132447 C0,4.43651533 4.43422877,0 9.89622137,0 Z"/>
          <path fill="#297BCC" d="M14.0244685,0.901323527 C17.4274359,2.46795978 19.7924427,5.91043654 19.7924427,9.90132447 C19.7924427,15.3658758 15.3579562,19.8026489 9.89622137,19.8026489 C8.69368782,19.8026489 7.5591313,19.4744991 6.47442763,19.1938494 C5.74286055,19.0045682 13.4302872,17.9269756 15.3965264,12.775744 C18.0857228,5.73047986 14.0244685,0.901323527 14.0244685,0.901323527 Z" opacity=".48" style="mix-blend-mode:multiply"/>
          <path fill="#FFFFFF" d="M10.7672806,7.54320988 C13.4980192,7.54320988 15.7153913,9.76146754 15.7153913,12.4938721 C15.7153913,15.2262767 13.4980192,17.4445343 10.7672806,17.4445343 C8.03628435,17.4445343 5.81916996,15.2262767 5.81916996,12.4938721 C5.81916996,9.76146754 8.03628435,7.54320988 10.7672806,7.54320988 Z"/>
          <g transform="translate(62.302)">
            <path fill="#297BCC" d="M9.89622137,0 C15.3579562,0 19.7924427,4.43651533 19.7924427,9.90132447 C19.7924427,15.3658758 15.3579562,19.8026489 9.89622137,19.8026489 C4.43422877,19.8026489 0,15.3658758 0,9.90132447 C0,4.43651533 4.43422877,0 9.89622137,0 Z"/>
            <path fill="#297BCC" d="M14.0218711,0.898781105 C17.4248384,2.46541736 19.7898453,5.90789412 19.7898453,9.89878205 C19.7898453,15.3633333 15.3553588,19.8001065 9.89362393,19.8001065 C8.69109039,19.8001065 7.55653387,19.4719566 6.47183019,19.191307 C5.74026311,19.0020258 13.4276898,17.9244332 15.3939289,12.7732015 C18.0831254,5.72793744 14.0218711,0.898781105 14.0218711,0.898781105 Z" opacity=".48" style="mix-blend-mode:multiply"/>
            <path fill="#FFFFFF" d="M7.51728064,7.54320988 C10.2480192,7.54320988 12.4653913,9.76146754 12.4653913,12.4938721 C12.4653913,15.2262767 10.2480192,17.4445343 7.51728064,17.4445343 C4.78628435,17.4445343 2.56916996,15.2262767 2.56916996,12.4938721 C2.56916996,9.76146754 4.78628435,7.54320988 7.51728064,7.54320988 Z"/>
          </g>
        </g>
        <g transform="translate(86.059 125.827)">
          <mask id="f" fill="white">
            <use xlink:href="#e"/>
          </mask>
          <use fill="#297BCC" xlink:href="#e"/>
          <g transform="translate(37.895 16.691)" mask="url(#f)">
            <mask id="h" fill="white">
              <use xlink:href="#g"/>
            </mask>
            <use fill="#82C2DC" xlink:href="#g"/>
            <path fill="#2268AC" d="M22.5861866,17.5378863 C22.5861866,17.5378863 34.8198132,15.3940184 36.2414838,10.2003538 C37.6631544,5.00668923 35.2056888,0.422181102 35.2056888,0.422181102 C35.2056888,0.422181102 43.6614827,1.49166177 47.4730832,3.77231852 C51.2846837,6.05297527 55.3534851,9.51938322 55.3534851,9.51938322 C55.3534851,9.51938322 45.5099372,14.2754722 39.8771048,15.9066792 C34.2442724,17.5378863 22.5861866,17.5378863 22.5861866,17.5378863 Z" opacity=".165" style="mix-blend-mode:multiply" mask="url(#h)"/>
          </g>
          <path fill="#2268AC" d="M37.124969,32.0823488 C37.124969,32.0823488 27.0829152,23.1362465 51.8325022,15.1685475 C61.4066243,12.0863254 87.0365052,14.4384744 87.9050596,14.6253255 C98.2266136,16.8457908 105.453211,20.0660102 105.453211,20.0660102 C105.453211,20.0660102 124.818735,5.22603289 119.010529,0.87328017 C113.202323,-3.47947255 70.3841179,7.00064693 63.1866669,7.00064693 C55.9892158,7.00064693 1.15625824,-1.4868603 -0.30104794,3.06247157 C-1.75835412,7.61180345 5.42055243,17.7940954 16.9453821,23.1362465 C28.4702118,28.4783976 37.124969,32.0823488 37.124969,32.0823488 Z" opacity=".522" style="mix-blend-mode:multiply" mask="url(#f)"/>
        </g>
        <path fill="#FFFFFF" stroke="#2279CF" stroke-width="2.167" d="M48.2672247,123.481996 C47.4038147,125.066217 22.8623731,144.797978 22.8623731,144.797978 L5.34630111,163.665375 L17.5757902,161.754771 C17.5757902,161.754771 5.2744998,188.042929 8.51825084,193.572547 C17.0589727,208.131906 46.6181897,221.190653 68.8089772,223.351965 C90.9997648,225.513277 120.664853,220.441051 120.664853,220.441051 C120.664853,220.441051 133.114442,219.464362 136.287785,210.070919 C139.461127,200.677476 140.019736,198.501472 140.019736,198.501472 C140.019736,198.501472 139.490381,205.542963 139.755059,206.610618 C140.019736,207.678272 144.76582,212.971061 148.915683,209.790839 C153.065546,206.610618 154.38754,194.028574 155.273513,190.461747 C156.159486,186.89492 149.999467,180.70444 147.434883,181.612903 C144.870298,182.521367 145.859355,175.844936 142.939546,174.777282 C140.019736,173.709628 134.63982,173.413988 134.63982,173.413988 C134.63982,173.413988 135.181712,168.336645 129.420103,168.336645 C123.658493,168.336645 115.32812,183.123419 115.32812,183.123419 C115.32812,183.123419 94.5751335,185.548965 80.0062244,180.34588 C65.4373154,175.142796 73.089759,168.907086 71.3986367,166.631031" stroke-linecap="round" stroke-linejoin="round" transform="rotate(6 80.353 173.685)"/>
        <path fill="#DBF3FB" d="M73.938938 167.036092C73.938938 167.036092 63.7509837 158.567839 60.3520653 155.110835 56.9531469 151.65383 52.5518027 143.01924 52.5518027 143.01924 52.5518027 143.01924 46.6789434 167.442695 53.5155044 176.113369 55.0847206 178.103575 60.8798671 181.199529 60.8798671 181.199529L71.7563079 189.390449 69.3061295 183.13651 87.6516641 187.631144 90.7319889 184.784044C90.7319889 184.784044 71.9235255 180.391501 71.7563079 175.154948 71.5890902 169.918396 73.938938 167.036092 73.938938 167.036092zM8.19600539 185.654455C8.19600539 185.654455 29.6852314 205.546313 49.794472 208.610796 69.9037125 211.675279 89.7295632 215.299502 89.7295632 215.299502L91.0655441 224.051144C91.0655441 224.051144 66.352538 224.551917 45.7425247 215.975413 25.1325114 207.398908 10.667306 193.041955 9.43165569 191.030062 8.19600539 189.01817 8.19600539 185.654455 8.19600539 185.654455zM148.204689 190.688586C148.204689 190.688586 147.428448 203.441131 146.200718 206.004841 144.972989 208.568552 141.081218 211.464937 140.855914 208.734889 140.630611 206.004841 137.674379 196.550004 137.674379 196.550004 137.674379 196.550004 128.821525 211.859219 123.026114 214.14658 117.230703 216.433941 109.439242 216.543073 109.439242 216.543073 109.439242 216.543073 108.754529 205.017377 109.096885 202.562799 109.439242 200.10822 110.208443 201.335949 114.116055 198.154414 118.023667 194.972878 115.793512 187.674268 115.793512 187.674268 115.793512 187.674268 113.346854 195.733278 111.393048 196.141641 109.439242 196.550004 104.420072 203.816931 105.25528 210.180002 106.090488 216.543073 108.145505 224.944439 108.145505 224.944439 108.145505 224.944439 118.175043 225.170623 123.970454 223.107685 129.765865 221.044747 134.943451 211.749207 134.943451 211.749207L137.11552 205.379095C137.11552 205.379095 135.612322 213.605323 138.234118 215.074198 140.855914 216.543073 142.323909 219.258159 145.264299 216.70237 148.204689 214.14658 151.844753 204.334425 151.844753 204.334425 151.844753 204.334425 154.719136 197.377292 153.281945 195.423486 151.844753 193.46968 148.204689 190.688586 148.204689 190.688586z" style="mix-blend-mode:darken"/>
        <path stroke="#2279CF" stroke-width="2.167" d="M106.833484,224.080197 C106.833484,224.080197 104.775432,216.124289 105.173595,209.335554 C105.571759,202.54682 107.960737,196.616396 107.960737,196.616396 L93.1877291,193.765169 C93.1877291,193.765169 89.1441145,198.73538 89.1441145,209.335554 C89.1441145,219.935729 91.1759021,224.905939 91.1759021,224.905939"/>
        <g transform="rotate(8 101.887 188.943)">
          <use fill="#FFFFFF" xlink:href="#i"/>
          <path stroke="#2279CF" stroke-width="3.25" d="M101.887476,196.573254 C108.650847,196.573254 114.345809,193.644647 114.345809,189.377264 C114.345809,184.980794 109.060821,181.312714 102.667645,181.312714 C96.0488019,181.312714 89.4291425,185.075667 89.4291425,189.377264 C89.4291425,193.644647 95.124105,196.573254 101.887476,196.573254 Z"/>
        </g>
        <path fill="#2279CF" d="M93.217499,185.540004 C93.6292433,184.951298 96.714879,184.970244 98.5988744,185.540004 C100.48287,186.109764 101.887476,187.681073 101.887476,187.681073 C101.887476,187.681073 102.277577,187.693351 101.391718,188.211122 C100.505859,188.728892 99.0356437,187.985808 97.0735671,187.681073 C95.1114905,187.376337 92.8057548,186.128709 93.217499,185.540004 Z"/>
        <g transform="rotate(33 48.083 143.337)">
          <use fill="#81BFF1" xlink:href="#j"/>
          <use fill="black" xlink:href="#j"/>
          <path stroke="#FFFFFF" stroke-width="5.417" d="M6.66804153,150.476937 L8.76560553,150.321561 L8.56447804,147.620706 L6.46697524,147.776904 L6.66804153,150.476937 Z M13.8397722,139.09769 C13.8144005,139.046467 13.7914209,138.99489 13.7707521,138.943218 C13.7290939,138.839072 13.7339491,138.864042 13.7429953,138.970335 C13.7533517,139.076866 13.7555537,139.112099 13.7555537,139.09769 L13.8397722,139.09769 Z M13.1904324,136.813288 C13.1807793,136.813309 13.1711138,136.81332 13.1614358,136.81332 L13.2222819,136.814004 L13.1904324,136.813288 Z M15.719162,139.09769 L15.4961812,140.286921 C14.6250362,140.123581 14.1033327,139.629788 13.8397722,139.09769 L15.719162,139.09769 Z M16.2816572,139.09769 L15.995296,137.624975 L15.719162,139.09769 L16.2816572,139.09769 Z M4.48610573,142.00544 L7.20749179,142.158757 L4.65681598,139.285089 L4.48610573,142.00544 Z M2.50536503,141.893849 L4.48610573,142.00544 L3.96508633,150.308136 L3.77047437,153.409372 L6.86923023,153.178613 L8.96673302,153.022416 L11.6665298,152.821368 L11.466539,150.121492 C11.4430436,149.804305 11.4293111,149.169176 11.4293111,148.257529 C11.4293111,147.405798 11.5800066,145.351948 11.8801951,142.201445 L13.1005898,142.229303 L13.1614358,142.229987 C14.624463,142.229987 15.9759316,142.056487 17.2131302,141.700324 L19.1722204,141.136344 L19.1722204,139.09769 C19.1722204,138.904769 19.1595467,138.70199 19.1364656,138.471179 C18.9798044,136.626928 18.4617992,135.331915 16.4944108,134.96303 L15.9860591,134.867714 L15.4783573,134.966434 C14.553125,135.14634 13.6227182,135.249006 12.6856133,135.27468 L11.2890069,135.319699 C10.0352037,135.318291 8.37842658,135.232964 6.41351928,135.060855 C5.28378047,134.953922 4.1424504,134.876281 3.00826798,134.829671 L2.89706048,134.827387 C1.74828772,134.827387 0.806730346,135.410255 0.20169891,136.28419 C-0.222205275,136.896496 -0.48068864,137.585785 -0.48068864,138.361333 C-0.48068864,138.845373 -0.391955256,139.318617 -0.231280221,139.78279 C0.161818592,140.918409 1.0442595,141.852469 2.50536503,141.893849 Z M21.7764211,139.802418 L21.6011987,137.281911 L19.0746086,137.281911 L17.6688355,137.281911 L14.9605021,137.281911 L14.9605021,139.990244 L14.9605021,149.96454 L14.9605021,150.455654 L15.1329439,150.915499 C15.4799336,151.840805 16.1762997,152.44112 17.0054715,152.765579 C17.4822763,152.952155 17.9825466,153.052209 18.4944483,153.052209 C20.3069048,153.052209 21.8601932,152.049043 22.2245006,150.166788 L22.2833611,149.862676 L22.2720361,149.553126 C22.1371303,145.865701 21.9720207,142.616042 21.7764211,139.802418 Z M14.2910864,136.95556 L14.2910864,137.674797 L14.6479278,138.299269 C15.0509103,139.004489 15.6539331,139.544696 16.3854439,139.887592 C16.97444,140.163684 17.6029658,140.310995 18.2489958,140.310995 C19.2633386,140.310995 20.2298955,139.908263 20.8993815,139.071405 C21.3841369,138.465461 21.6713727,137.729419 21.6713727,136.922089 C21.6713727,136.519948 21.6157012,136.12097 21.5089998,135.729731 L21.2529552,134.790901 L20.4579481,134.229719 C19.7126984,133.703661 18.8421592,133.466241 17.9142879,133.466241 C15.8952833,133.466241 14.2910864,134.835678 14.2910864,136.95556 Z M23.1217735,146.612669 L23.1217735,146.416636 C23.1217735,146.568856 23.1078803,146.6499 23.0973993,146.685885 C23.1031744,146.666057 23.1112906,146.641549 23.1217735,146.612669 Z M28.4704421,141.130629 C28.5205828,141.011112 28.5818011,140.902553 28.6508127,140.807155 C28.7286365,140.699575 28.7676159,140.664035 28.7586616,140.670092 C28.6169498,140.764493 28.4742684,140.862586 28.3449576,140.954951 L28.4704421,141.130629 Z M19.4924506,146.784322 C19.4978241,146.840463 19.5040578,146.896813 19.5111297,146.953388 L22.1985489,146.617461 L19.4902156,146.617461 C19.4902156,146.673342 19.4909614,146.728966 19.4924506,146.784322 L19.4924506,146.784322 Z M32.6691109,144.429805 C33.3403677,143.737317 33.7431706,142.893686 33.7431706,141.864609 C33.7431706,140.346236 33.0566362,138.999573 31.6658805,138.304195 C31.2537408,138.077426 30.7120027,137.921155 30.1440059,137.864355 C29.8644114,137.836396 29.5911573,137.817551 29.3240793,137.808012 C29.0796166,137.799282 28.7848442,137.79513 28.4352727,137.79513 C27.8969684,137.79513 27.3141759,137.871383 26.6627188,138.013889 C24.9631723,138.345733 23.2970976,139.084107 21.7400551,140.19628 C20.9993607,140.714616 20.3224792,141.309305 19.7346976,141.965661 C19.1102728,142.662935 18.6202215,143.392567 18.276294,144.160672 C17.9105294,144.977546 17.7051069,145.68283 17.7051069,146.416636 L17.7051069,146.952169 C17.7051069,149.219133 18.8995799,151.047709 20.9741705,152.123422 C21.7308148,152.512571 22.5327957,152.78875 23.380721,152.956241 C24.1495319,153.108105 24.8855328,153.186092 25.5902556,153.186092 C26.3428502,153.186092 27.3640575,153.038969 28.7667281,152.751675 C29.4023308,152.624584 30.063876,152.471299 30.7392092,152.294426 C31.4442215,152.10978 32.1021479,151.906035 32.7136554,151.682103 C33.3880866,151.435128 33.9822227,151.162815 34.5005939,150.856024 C35.4665391,150.284342 36.0944968,149.7029 36.3583409,148.594755 C36.4406439,148.249082 36.4877754,147.956867 36.4877754,147.621584 C36.4877754,145.455523 34.8206038,144.422346 32.9873,144.422346 C32.8813553,144.422346 32.7752885,144.424841 32.6691109,144.429805 Z M27.7468794,145.915713 L28.1463683,147.753362 L31.4933311,145.362674 C31.572284,145.306279 31.6676147,145.240739 31.7784791,145.16683 C32.1102718,144.942402 32.4097328,144.697387 32.6691109,144.429805 C31.9202163,144.464816 31.1658102,144.62264 30.4098671,144.894005 C29.7933251,145.115327 29.166441,145.35583 28.5291199,145.615479 L28.5291199,145.615479 C28.2725495,145.720008 28.0118101,145.820089 27.7468794,145.915713 Z M47.9709955,150.476937 L50.0685595,150.321561 L49.867432,147.620706 L47.7699292,147.776904 L47.9709955,150.476937 Z M55.1427262,139.09769 C55.1173544,139.046467 55.0943749,138.99489 55.0737061,138.943218 C55.0320479,138.839072 55.036903,138.864042 55.0459492,138.970335 C55.0563056,139.076866 55.0585077,139.112099 55.0585077,139.09769 L55.1427262,139.09769 Z M54.4933863,136.813288 C54.4837332,136.813309 54.4740677,136.81332 54.4643898,136.81332 L54.5252359,136.814004 L54.4933863,136.813288 Z M57.0221159,139.09769 L56.7991352,140.286921 C55.9279901,140.123581 55.4062866,139.629788 55.1427262,139.09769 L57.0221159,139.09769 Z M57.5846111,139.09769 L57.2982499,137.624975 L57.0221159,139.09769 L57.5846111,139.09769 Z M45.7890597,142.00544 L48.5104457,142.158757 L45.9597699,139.285089 L45.7890597,142.00544 Z M43.808319,141.893849 L45.7890597,142.00544 L45.2680403,150.308136 L45.0734283,153.409372 L48.1721842,153.178613 L50.269687,153.022416 L52.9694837,152.821368 L52.769493,150.121492 C52.7459976,149.804305 52.7322651,149.169176 52.7322651,148.257529 C52.7322651,147.405798 52.8829605,145.351948 53.183149,142.201445 L54.4035437,142.229303 L54.4643898,142.229987 C55.927417,142.229987 57.2788855,142.056487 58.5160841,141.700324 L60.4751743,141.136344 L60.4751743,139.09769 C60.4751743,138.904769 60.4625006,138.70199 60.4394195,138.471179 C60.2827583,136.626928 59.7647532,135.331915 57.7973647,134.96303 L57.289013,134.867714 L56.7813113,134.966434 C55.8560789,135.14634 54.9256721,135.249006 53.9885672,135.27468 L52.5919609,135.319699 C51.3381576,135.318291 49.6813805,135.232964 47.7164732,135.060855 C46.5867344,134.953922 45.4454043,134.876281 44.3112219,134.829671 L44.2000144,134.827387 C43.0512417,134.827387 42.1096843,135.410255 41.5046528,136.28419 C41.0807487,136.896496 40.8222653,137.585785 40.8222653,138.361333 C40.8222653,138.845373 40.9109987,139.318617 41.0716737,139.78279 C41.4647725,140.918409 42.3472134,141.852469 43.808319,141.893849 Z M72.9476273,144.771949 C72.9647956,144.559247 72.9709357,144.317919 72.9709357,144.017896 C72.9709357,143.312072 72.7954264,142.617348 72.4841871,141.891123 C71.7324377,140.111892 70.2979623,138.843918 68.370865,138.185885 C67.5798205,137.907838 66.8657561,137.750502 66.179166,137.750502 L65.554378,137.750502 L65.4122268,137.750502 L65.2708567,137.765383 C63.1323175,137.990493 61.2422627,138.659281 59.6445474,139.783599 C57.4167512,141.356158 56.2188284,143.587583 56.2188284,146.238125 C56.2188284,148.46523 56.8172955,150.279141 58.1896212,151.524137 C59.4680552,152.683954 61.178484,153.208406 63.2114227,153.208406 C65.7351433,153.208406 67.942621,152.546162 69.7454718,151.194024 C71.8180608,149.623262 72.9102215,147.405951 72.9476273,144.771949 Z M63.0829074,146.773658 C63.1206463,146.831422 63.1500194,146.888505 63.1716917,146.943671 C63.1842821,146.975719 63.1751513,146.918167 63.1751513,146.773658 L63.0829074,146.773658 Z M63.3539591,146.293991 C63.569458,145.591558 63.8466995,145.180116 64.1434681,144.988779 C64.3979604,144.821664 64.6303146,144.72498 64.8758805,144.675245 C65.2914678,144.591075 65.7049927,144.510781 66.1164615,144.434358 C66.134396,144.499762 66.1484958,144.609098 66.1484958,144.787724 C66.1484958,145.399453 66.0298375,145.635187 65.7233526,145.831338 C65.5079641,145.966618 65.2216975,146.077547 64.8670331,146.14848 C64.4487431,146.232138 63.9432522,146.282181 63.3539591,146.293991 Z M73.8188623,146.612669 L73.8188623,146.416636 C73.8188623,146.568856 73.8049691,146.6499 73.7944881,146.685885 C73.8002632,146.666057 73.8083794,146.641549 73.8188623,146.612669 Z M79.1675309,141.130629 C79.2176716,141.011112 79.2788899,140.902553 79.3479015,140.807155 C79.4257253,140.699575 79.4647047,140.664035 79.4557503,140.670092 C79.3140386,140.764493 79.1713572,140.862586 79.0420464,140.954951 L79.1675309,141.130629 Z M70.1895394,146.784322 C70.1949129,146.840463 70.2011466,146.896813 70.2082185,146.953388 L72.8956377,146.617461 L70.1873044,146.617461 C70.1873044,146.673342 70.1880502,146.728966 70.1895394,146.784322 Z M83.3661997,144.429805 C84.0374565,143.737317 84.4402594,142.893686 84.4402594,141.864609 C84.4402594,140.346236 83.753725,138.999573 82.3629692,138.304195 C81.9508296,138.077426 81.4090914,137.921155 80.8410946,137.864355 C80.5615002,137.836396 80.2882461,137.817551 80.021168,137.808012 C79.7767054,137.799282 79.481933,137.79513 79.1323615,137.79513 C78.5940572,137.79513 78.0112647,137.871383 77.3598076,138.013889 C75.6602611,138.345733 73.9941864,139.084107 72.4371439,140.19628 C71.6964495,140.714616 71.019568,141.309305 70.4317864,141.965661 C69.8073616,142.662935 69.3173103,143.392567 68.9733828,144.160672 C68.6076182,144.977546 68.4021956,145.68283 68.4021956,146.416636 L68.4021956,146.952169 C68.4021956,149.219133 69.5966687,151.047709 71.6712593,152.123422 C72.4279036,152.512571 73.2298845,152.78875 74.0778098,152.956241 C74.8466207,153.108105 75.5826216,153.186092 76.2873444,153.186092 C77.039939,153.186092 78.0611463,153.038969 79.4638169,152.751675 C80.0994196,152.624584 80.7609648,152.471299 81.436298,152.294426 C82.1413103,152.10978 82.7992367,151.906035 83.4107442,151.682103 C84.0851754,151.435128 84.6793114,151.162815 85.1976827,150.856024 C86.1636279,150.284342 86.7915856,149.7029 87.0554297,148.594755 C87.1377327,148.249082 87.1848642,147.956867 87.1848642,147.621584 C87.1848642,145.455523 85.5176925,144.422346 83.6843888,144.422346 C83.5784441,144.422346 83.4723773,144.424841 83.3661997,144.429805 Z M78.4439682,145.915713 L78.8434571,147.753362 L82.1904199,145.362674 C82.2693728,145.306279 82.3647035,145.240739 82.4755679,145.16683 C82.8073606,144.942402 83.1068216,144.697387 83.3661997,144.429805 C82.6173051,144.464816 81.862899,144.62264 81.1069559,144.894005 C80.4904139,145.115327 79.8635298,145.35583 79.2262087,145.615479 L79.2262087,145.615479 C78.9696383,145.720008 78.7088988,145.820089 78.4439682,145.915713 Z M82.8615766,149.719087 C82.8615766,151.577537 84.0264828,153.208406 86.1277564,153.208406 C86.7670442,153.208406 87.3399413,153.136793 87.876761,152.957854 C88.4728602,152.759154 89.0001843,152.407604 89.4113387,151.927924 C89.9770897,151.267882 90.1972352,150.497372 90.1972352,149.696773 C90.1972352,148.862394 89.9282808,148.055531 89.3523588,147.40282 C88.618413,146.571014 87.6986878,146.29671 86.6856029,146.29671 L86.0462521,146.29671 L85.4743994,146.582637 C85.2854794,146.677097 85.065458,146.78367 84.815084,146.901902 C83.6675995,147.443769 82.8615766,148.182624 82.8615766,149.719087 Z M86.0747724,149.719087 C86.0747724,151.577537 87.2396785,153.208406 89.3409522,153.208406 C89.98024,153.208406 90.5531371,153.136793 91.0899568,152.957854 C91.686056,152.759154 92.21338,152.407604 92.6245344,151.927924 C93.1902854,151.267882 93.410431,150.497372 93.410431,149.696773 C93.410431,148.862394 93.1414766,148.055531 92.5655545,147.40282 C91.8316088,146.571014 90.9118836,146.29671 89.8987987,146.29671 L89.2594479,146.29671 L88.6875952,146.582637 C88.4986751,146.677097 88.2786538,146.78367 88.0282798,146.901902 C86.8807953,147.443769 86.0747724,148.182624 86.0747724,149.719087 Z M92.5318341,153.208406 C94.7662706,153.208406 96.6459406,152.193981 96.6459406,149.741401 C96.6459406,147.699575 95.1155423,146.29671 93.1343083,146.29671 L92.5394585,146.29671 L91.9993591,146.545987 L91.4191987,146.813753 C91.0269716,147.001679 90.7234896,147.179722 90.44388,147.40341 C89.7709134,147.941783 89.2879681,148.637227 89.2879681,149.719087 C89.2879681,151.565805 90.4143227,153.208406 92.5318341,153.208406 Z"/>
        </g>
        <use fill="#81BFF1" xlink:href="#k"/>
        <use fill="black" xlink:href="#k"/>
        <path stroke="#FFFFFF" stroke-width="5.417" d="M26.2048932,230.155042 L27.504973,229.303113 L26.0196625,227.038401 L24.7199167,227.890839 L26.2048932,230.155042 Z M26.0960799,220.600601 C26.0700279,220.577083 26.0637846,220.570269 26.0682661,220.576947 C26.1067523,220.633025 26.1090031,220.636548 26.0907235,220.60357 L26.0960799,220.600601 L26.0960799,220.600601 Z M25.1886729,218.365172 C25.1804188,218.369782 25.1721401,218.374388 25.1638367,218.378991 L25.2173852,218.35009 L25.1886729,218.365172 Z M27.9781371,219.55736 L28.4829802,221.076715 C27.530911,221.393063 26.7483499,221.136966 26.2166985,220.703384 C26.1571139,220.65479 26.1189585,220.621254 26.0960799,220.600601 L27.9781371,219.55736 Z M28.3417021,219.355833 L27.6289791,218.506549 L27.9781371,219.55736 L28.3417021,219.355833 Z M21.4262507,226.407176 L23.8807584,225.221917 L20.2567052,223.945142 L21.4262507,226.407176 Z M20.7579105,226.729912 L21.4262507,226.407176 L23.7588812,231.317644 L25.0921787,234.124396 L27.6905378,232.420263 L28.9902835,231.567826 L31.2541086,230.083097 L29.7702672,227.81869 C29.653557,227.640585 29.4240826,227.24692 29.1054009,226.672003 C28.8435028,226.199526 28.3029372,225.039048 27.5204532,223.258685 L27.7363402,223.145415 L27.7898888,223.116514 C28.7910228,222.561577 29.6555236,221.926177 30.37657,221.203619 L31.8166057,219.760565 L30.8282469,217.977518 C30.7460111,217.829161 30.6533735,217.684176 30.5435062,217.52557 C30.2854982,217.140569 29.9969111,216.796687 29.6400873,216.505683 C28.879046,215.885024 27.8968762,215.563605 26.7749779,215.936383 L26.2841534,216.099472 L25.8879677,216.431953 C25.3841089,216.854794 24.8512658,217.232023 24.2882336,217.564593 L23.3987242,218.095812 C22.6274407,218.521732 21.5439258,219.051409 20.2297566,219.636355 C19.4542908,219.975015 18.6774213,220.339065 17.9163889,220.720938 L17.8180172,220.772855 C16.8540279,221.307203 16.3365244,222.23163 16.2371358,223.228229 C16.1693248,223.908189 16.2701173,224.587151 16.6254047,225.228106 C16.8393662,225.614103 17.1161795,225.948479 17.4419925,226.240881 C18.2969368,227.008154 19.4877191,227.386659 20.7579105,226.729912 Z M32.7386851,217.457946 L31.3634662,215.33841 L29.1536607,216.563326 L28.2450486,217.066978 L25.8762869,218.380004 L27.1893129,220.748765 L30.7628434,227.195585 L31.0009405,227.625123 L31.3746987,227.943711 C32.1015335,228.563258 32.9652439,228.743124 33.8002319,228.631277 C34.2601859,228.569666 34.7038016,228.428175 35.1141667,228.200706 C36.5567518,227.401068 37.3766213,225.868441 36.820694,224.162129 L36.7247379,223.86761 L36.5647604,223.602362 C35.1526883,221.261105 33.8776889,219.213418 32.7386851,217.457946 Z M25.6693918,219.027151 L26.0180848,219.65621 L26.6329357,220.029386 C27.2737699,220.418332 28.0020992,220.58454 28.7396812,220.534449 C29.3202299,220.495022 29.8799774,220.33653 30.3906746,220.053446 C31.2235054,219.5918 31.842289,218.810534 32.0137748,217.803045 C32.1356406,217.087078 32.0357331,216.346403 31.6640961,215.675951 C31.4888991,215.359888 31.2721078,215.071605 31.0200015,214.812857 L30.3409059,214.11587 L29.3735109,214.010477 C28.5469799,213.92043 27.7564868,214.113788 27.0366398,214.512805 C25.4100078,215.414462 24.7075346,217.291915 25.6693918,219.027151 Z M37.1422983,220.668938 C37.1789663,220.707384 37.2082978,220.746042 37.2289459,220.783292 L37.1471998,220.635818 L37.0477932,220.499623 C37.059584,220.515777 37.0754172,220.540332 37.0946063,220.57495 C37.1120431,220.606407 37.1279131,220.637788 37.1422983,220.668938 Z M41.6446114,215.813363 C41.6002596,215.38934 41.4700764,214.965266 41.2373991,214.545505 C40.5728066,213.346549 39.4116188,212.563691 37.9708726,212.624957 C37.5491156,212.626098 37.0507431,212.740325 36.5801859,212.942876 C36.375853,213.030831 36.1788445,213.122927 35.9891113,213.219411 C35.8195495,213.305638 35.6204687,213.412353 35.387737,213.541359 C34.9899359,213.761863 34.6014315,214.048862 34.196233,214.405328 C33.1491915,215.285221 32.2753992,216.440667 31.6250811,217.806398 C31.3116773,218.448464 31.0689455,219.126448 30.9118845,219.815241 C30.7426121,220.557588 30.6810838,221.277209 30.7405417,221.973752 C30.8045443,222.723537 30.943805,223.338425 31.265679,223.9191 L31.4575464,224.265238 C32.4022404,225.969512 34.0792286,226.855423 36.0611018,226.800327 C36.7588044,226.778612 37.4414659,226.658268 38.1116896,226.442745 C38.7051418,226.251909 39.2509514,226.020772 39.7484616,225.744997 C40.2878416,225.446014 40.9253313,224.962167 41.7629974,224.244829 C42.1365185,223.927987 42.5194598,223.582633 42.9024505,223.21694 C43.3076307,222.830061 43.6752897,222.446582 44.00548,222.06523 C44.3795334,221.63322 44.6911652,221.210168 44.9399036,220.785888 C45.4516775,219.912942 45.6966987,219.167819 45.4014974,218.111062 C45.3171708,217.80919 45.2270675,217.559434 45.0739309,217.283168 C44.2697702,215.832424 42.9131036,215.48012 41.6446114,215.813363 Z M52.9007843,215.357268 L54.200864,214.505339 L52.7155535,212.240627 L51.4158078,213.093064 L52.9007843,215.357268 Z M52.791971,205.802827 C52.765919,205.779309 52.7596757,205.772495 52.7641572,205.779173 C52.8026434,205.835251 52.8048942,205.838774 52.7866145,205.805796 L52.791971,205.802827 Z M51.884564,203.567398 C51.8763099,203.572008 51.8680311,203.576614 51.8597277,203.581217 L51.9132763,203.552316 L51.884564,203.567398 Z M54.6740281,204.759586 L55.1788713,206.27894 C54.226802,206.595289 53.444241,206.339192 52.9125896,205.90561 C52.853005,205.857016 52.8148496,205.82348 52.791971,205.802827 L54.6740281,204.759586 Z M55.0375932,204.558058 L54.3248701,203.708775 L54.6740281,204.759586 L55.0375932,204.558058 Z M48.1221418,211.609402 L50.5766495,210.424142 L46.9525963,209.147368 L48.1221418,211.609402 Z M47.4538016,211.932138 L48.1221418,211.609402 L50.4547723,216.51987 L51.7880698,219.326622 L54.3864288,217.622489 L55.6861745,216.770052 L57.9499997,215.285323 L56.4661583,213.020916 C56.349448,212.842811 56.1199737,212.449146 55.8012919,211.874229 C55.5393939,211.401752 54.9988283,210.241274 54.2163443,208.460911 L54.4322313,208.347641 L54.4857798,208.31874 C55.4869138,207.763803 56.3514147,207.128403 57.0724611,206.405845 L58.5124968,204.962791 L57.5241379,203.179744 C57.4419022,203.031387 57.3492646,202.886402 57.2393972,202.727796 C56.9813892,202.342795 56.6928022,201.998913 56.3359784,201.707909 C55.574937,201.08725 54.5927673,200.765831 53.470869,201.138609 L52.9800444,201.301698 L52.5838588,201.634179 C52.0799999,202.05702 51.5471568,202.434249 50.9841247,202.766819 L50.0946153,203.298038 C49.3233318,203.723958 48.2398168,204.253635 46.9256476,204.838581 C46.1501819,205.177241 45.3733124,205.541291 44.6122799,205.923164 L44.5139083,205.975081 C43.549919,206.509429 43.0324155,207.433856 42.9330269,208.430455 C42.8652159,209.110415 42.9660084,209.789377 43.3212958,210.430332 C43.5352573,210.816329 43.8120706,211.150705 44.1378836,211.443107 C44.9928278,212.21038 46.1836102,212.588885 47.4538016,211.932138 Z M67.6348134,202.408961 C67.5624201,202.25119 67.4748925,202.083988 67.3634725,201.882981 C67.0579879,201.331872 66.6327547,200.878697 66.1019134,200.466913 C64.8173514,199.459852 63.2313435,199.108986 61.5580093,199.408464 C60.881463,199.523284 60.2930607,199.698405 59.7672638,199.989859 L59.3634362,200.213704 L59.239108,200.28262 L59.1226774,200.364173 C57.7259411,201.342506 56.6632461,202.543078 55.9787021,203.954984 C55.0034657,205.973933 55.0319202,208.087748 56.0948123,210.005257 L56.0948123,210.005257 C56.9806529,211.603355 58.1627877,212.695751 59.7191161,213.061209 C61.1520289,213.397688 62.6172046,213.0875 64.0726486,212.280734 C65.8316943,211.305679 67.1299161,209.975377 67.8765965,208.308502 C68.7409129,206.352774 68.6450057,204.308069 67.6348134,202.408961 Z M62.0158461,207.175666 C62.0227725,207.181697 62.0235158,207.181239 62.0193498,207.173724 L62.0193498,207.173724 L62.0158461,207.175666 Z M69.9100263,202.50549 C69.9466943,202.543936 69.9760257,202.582594 69.9966739,202.619844 L69.9149278,202.47237 L69.8155212,202.336174 C69.827312,202.352329 69.8431451,202.376884 69.8623343,202.411502 C69.8797711,202.442959 69.8956411,202.47434 69.9100263,202.50549 Z M74.4123394,197.649915 C74.3679876,197.225892 74.2378044,196.801818 74.0051271,196.382057 C73.3405346,195.1831 72.1793468,194.400243 70.7386006,194.461508 C70.3168435,194.46265 69.818471,194.576877 69.3479138,194.779428 C69.143581,194.867382 68.9465725,194.959479 68.7568393,195.055963 C68.5872775,195.14219 68.3881967,195.248905 68.155465,195.37791 C67.7576639,195.598415 67.3691595,195.885414 66.963961,196.24188 C65.9169195,197.121772 65.0431272,198.277219 64.3928091,199.64295 C64.0794053,200.285016 63.8366735,200.962999 63.6796125,201.651793 C63.5103401,202.394139 63.4488118,203.113761 63.5082697,203.810304 C63.5722723,204.560089 63.711533,205.174976 64.0334069,205.755652 L64.2252743,206.10179 C65.1699683,207.806063 66.8469566,208.691975 68.8288298,208.636879 C69.5265324,208.615164 70.2091939,208.494819 70.8794175,208.279297 C71.4728698,208.088461 72.0186794,207.857324 72.5161896,207.581549 C73.0555695,207.282566 73.6930593,206.798719 74.5307254,206.081381 C74.9042465,205.764539 75.2871878,205.419184 75.6701785,205.053492 C76.0753587,204.666613 76.4430177,204.283134 76.773208,203.901782 C77.1472614,203.469771 77.4588932,203.04672 77.7076316,202.62244 C78.2194055,201.749493 78.4644267,201.004371 78.1692254,199.947613 C78.0848988,199.645742 77.9947955,199.395985 77.8416589,199.11972 C77.0374982,197.668976 75.6808316,197.316672 74.4123394,197.649915 Z M74.5623145,202.70975 C75.3974269,204.216332 77.1315498,205.042067 78.8844693,204.070408 C79.3587072,203.807534 79.7618461,203.51329 80.1030816,203.141745 C80.5031947,202.706092 80.7779114,202.174064 80.897763,201.59026 C81.0653862,200.773757 80.8939564,200.034428 80.5321712,199.38175 C80.154009,198.699528 79.5615114,198.155365 78.7828264,197.87845 C77.7791045,197.521508 76.8980993,197.715097 76.0833478,198.166721 L75.524159,198.476684 L75.1626252,199.004001 C75.0775524,199.128084 74.9765295,199.271529 74.8599927,199.433574 C74.6505371,199.724823 74.4825906,200.025503 74.3624885,200.384668 C74.1214655,201.105446 74.1217541,201.914958 74.5623145,202.70975 L74.5623145,202.70975 Z M76.6391424,201.558545 C77.4742548,203.065128 79.2083777,203.890863 80.9612972,202.919204 C81.435535,202.656329 81.838674,202.362085 82.1799095,201.99054 C82.5800226,201.554887 82.8547392,201.02286 82.9745908,200.439055 C83.1422141,199.622552 82.9707843,198.883224 82.608999,198.230546 C82.2308369,197.548323 81.6383393,197.00416 80.8596543,196.727245 C79.8559323,196.370303 78.9749271,196.563892 78.1601756,197.015516 L77.6009868,197.32548 L77.239453,197.852796 C77.1543802,197.97688 77.0533573,198.120324 76.9368205,198.28237 C76.7273649,198.573619 76.5594184,198.874299 76.4393163,199.233464 C76.1982933,199.954242 76.1985819,200.763753 76.6391424,201.558545 L76.6391424,201.558545 Z M83.0237026,201.775994 C84.7640472,200.811305 85.8412728,199.129808 84.7162382,197.100192 C83.7884588,195.426433 81.8620021,194.96356 80.2514258,195.856317 L79.7311585,196.144706 L79.3796286,196.624574 L79.1005795,197.005499 C78.8797921,197.316114 78.7221605,197.582641 78.5978665,197.885097 C78.2820974,198.653486 78.1990036,199.474708 78.7159702,200.407341 C79.5453949,201.903663 81.2531854,202.757407 83.0237026,201.775994 L83.0237026,201.775994 Z"/>
      </g>
    </g>
  </g>
</svg>
