<svg xmlns="http://www.w3.org/2000/svg" width="376" height="476" viewBox="0 0 376 476" xmlns:xlink="http://www.w3.org/1999/xlink">
  <defs>
    <path id="a" d="M0.301886383,0.467986744 C0.301886383,0.467986744 3.82077164,15.0035562 4.53463739,27.4015552 C5.24850314,39.7995542 0.580226468,54.7211114 15.1151637,59.652927 C37.9124778,67.2902601 46.4162628,42.9590689 66.268937,44.1255897 C86.1216111,45.2921105 87.1930853,63.696115 110.207487,60.1578188 C128.513825,57.3433529 118.276196,42.5532638 118.276196,32.6635097 C118.276196,22.7737556 121.033475,2.56727374 121.033475,2.56727374 L0.301886383,0.467986744 Z"/>
    <path id="b" d="M68.884069,30.759941 C70.6424404,28.8746795 75.6783222,23.3387641 80.1441681,20.1268467 C85.5348548,16.2495123 89.5360628,13.8591814 89.5360628,13.8591814 L93.918947,22.0071463 C93.918947,22.0071463 99.748183,18.1159708 100.806336,13.2324149 C101.86449,8.34859782 100.806336,1.95061728 100.806336,1.95061728 C100.806336,1.95061728 107.070208,3.12841606 110.824357,8.84504914 C114.578246,14.5614211 114.939834,21.7062984 121.468505,25.140979 C124.648183,26.8136622 128.592518,28.8148755 131.802198,30.4274935 C168.075,43.2307669 194.099157,77.8617071 194.099157,118.529192 C194.099157,170.071599 152.295834,211.917406 100.806336,211.917406 C49.3165782,211.917406 7.51351576,170.071599 7.51351576,118.529192 C7.51351576,117.969281 7.51847259,117.410414 7.52838626,116.852853 L2.50450525,118.529192 L8.73785359,103.375545 C9.05039497,101.461295 9.42111393,99.5666321 9.84818425,97.6936448 L0,100.979729 C0,100.979729 5.8808914,88.8536251 11.2702736,80.9232004 C14.3802952,76.3462378 19.114071,68.7002084 22.561679,65.1720351 C33.5113238,48.3331688 49.7368655,37.7481267 68.884069,30.759941 Z"/>
    <path id="c" d="M63.9516651,1.64227955 C73.2037526,1.68502453 81.5151783,3.6830296 88.7538008,6.88757307 C109.509442,16.0761108 121.444841,35.1844189 121.444841,46.56183 C121.444841,56.266274 117.368437,65.0243859 97.3143933,65.0243859 C84.7618059,65.0243859 82.7973343,58.5420123 63.6260287,58.5420123 C44.454723,58.5420123 47.2707645,68.897682 23.1220182,66.5660847 C3.99870665,64.7197007 0.723110002,56.2665676 0.723110002,47.3336977 C0.723110002,37.8192336 10.1320932,19.031175 26.3095628,9.10810512 C31.2630066,6.06972086 36.8510281,3.86247143 42.9978263,3.00706367 C44.368782,4.93228154 46.4329118,7.34376577 49.1442996,9.16191102 C54.4564596,12.7242953 66.0497101,17.3098759 66.0497101,17.3098759 C66.0497101,17.3098759 61.4810751,12.8245779 61.6668259,7.90837796 C61.7602231,5.43186669 62.8715973,3.22382043 63.9516651,1.64227955 Z"/>
    <path id="d" d="M128.671129,55.1713776 L128.671129,22.8149054 C128.671129,22.8149054 129.49646,15.9894921 137.047278,15.9894921 C144.598096,15.9894921 149.852646,33.3492118 152.34597,35.6115288 C156.243579,39.1480245 187.456441,39.1855643 202.428839,27.8274834 C217.401237,16.4694025 220.969993,0.650205761 220.969993,0.650205761 C220.969993,0.650205761 240.197434,15.5202677 247.341306,33.3751117 C248.333009,35.8536974 254.112901,47.4360418 254.697236,49.8854076 C255.28157,52.3347734 247.183488,46.6514192 247.341306,48.2612852 C248.177151,56.7875102 245.389009,64.4373458 235.91424,69.1131966 C230.391722,71.8385899 223.714012,73.3902267 216.423114,74.0753478 C213.380329,74.3612765 219.640103,79.1389779 216.423114,79.1453926 C213.206125,79.1518072 202.191678,74.4411195 199.740929,74.3128403 C174.76467,73.0055118 147.599704,65.2657919 135.397896,60.8163945 C132.094013,60.8163945 128.671129,55.1713776 128.671129,55.1713776 Z"/>
    <path id="e" d="M126.385683,55.1713776 L126.385683,22.8149054 C126.385683,22.8149054 125.560353,15.9894921 118.009535,15.9894921 C110.458717,15.9894921 105.204166,33.3492118 102.710843,35.6115288 C98.8132341,39.1480245 67.6003718,39.1855643 52.6279739,27.8274834 C37.655576,16.4694025 34.0868196,0.650205761 34.0868196,0.650205761 C34.0868196,0.650205761 18.9170757,12.3821378 10.5198913,27.5169695 C9.46329962,29.4213383 0.842998356,39.267237 0.0445707533,41.2627654 C-0.474369596,42.5597649 5.86428669,38.017216 4.62825069,41.2627654 C3.50220326,44.2195099 2.45603277,47.0936287 2.17747028,48.2612852 C1.59313625,50.710651 7.87332507,46.6514192 7.71550629,48.2612852 C6.87966128,56.7875102 9.6678036,64.4373458 19.1425726,69.1131966 C24.665091,71.8385899 31.3428012,73.3902267 38.6336986,74.0753478 C41.676484,74.3612765 52.8651344,74.4411195 55.315884,74.3128403 C80.2921425,73.0055118 107.457109,65.2657919 119.658917,60.8163945 C122.9628,60.8163945 126.385683,55.1713776 126.385683,55.1713776 Z"/>
  </defs>
  <g fill="none" fill-rule="evenodd">
    <rect width="376" height="476"/>
    <g transform="translate(34 80)">
      <ellipse cx="164.5" cy="257.807" fill="#ECFAFE" rx="164.5" ry="58.193"/>
      <path fill="#C8EAFA" d="M200.083725,271.591757 C256.102425,271.591757 291.838007,254.998025 291.838007,242.429569 C291.838007,229.861114 256.102425,226.077354 200.083725,226.077354 C144.065024,226.077354 98.6528948,236.2661 98.6528948,248.834556 C98.6528948,261.403011 144.065024,271.591757 200.083725,271.591757 Z" transform="rotate(3 195.245 248.835)"/>
      <g transform="translate(25.358)">
        <g transform="translate(67.62 185.959)">
          <g stroke-linecap="round" stroke-linejoin="round">
            <use fill="#FFFFFF" xlink:href="#a"/>
            <path stroke="#297BCC" stroke-width="2.4" d="M-0.864423509,0.750336238 C-0.83141396,0.886689815 -0.76860838,1.15237908 -0.680265301,1.53615813 C-0.532487104,2.17813458 -0.36767535,2.91575748 -0.190088755,3.73777025 C0.31767234,6.08809466 0.825555966,8.64135487 1.29949929,11.307256 C1.99978516,15.2463196 2.56363491,19.0842152 2.9416349,22.6880318 C3.11641513,24.3543702 3.24916202,25.9515883 3.33662167,27.4705359 C3.45630378,29.5491041 3.43746652,31.5292393 3.31224797,35.0652742 C3.30038104,35.3986057 3.30038104,35.3986057 3.28837224,35.732317 C3.01160357,43.4226666 3.13717856,46.6986679 4.25970007,50.3975486 C5.78108277,55.4107381 9.08574446,58.8742952 14.7295858,60.7892939 C20.8731326,62.8474542 26.3622121,62.8067582 31.7576565,60.9791489 C35.7986062,59.6103502 38.7123623,57.8934523 44.9835723,53.6026136 C45.008406,53.5856221 45.008406,53.5856221 45.0332368,53.5686326 C54.6403741,46.9953439 59.2245483,44.9137391 66.1985477,45.3235235 C73.2091451,45.7354583 77.2268095,47.7662611 84.2955979,53.2842707 C84.6517719,53.5624576 84.8691992,53.7323078 85.0086751,53.8411434 C89.3813559,57.2532276 91.801991,58.8353956 95.157461,60.1259059 C99.5301843,61.8076507 104.413878,62.2626431 110.389835,61.3438833 C116.846213,60.3512623 120.492783,57.8168838 121.788544,53.7578207 C122.761918,50.7086592 122.445705,47.5860348 121.08409,41.8288568 C121.023383,41.5721751 120.966054,41.3316602 120.870132,40.9305574 C119.810722,36.5005397 119.476196,34.7033402 119.476196,32.6635097 C119.476196,29.6480446 119.735989,25.4531968 120.203175,20.3884411 C120.390173,18.3612027 120.606967,16.2333244 120.847689,14.0375034 C121.148503,11.2935389 121.470864,8.58426723 121.793212,6.02926962 C121.906016,5.13516509 122.010744,4.32433189 122.104702,3.61169449 C122.161005,3.18465926 122.201154,2.88562743 122.222456,2.7295164 L122.405112,1.39094244 L121.054337,1.36745511 L0.32274889,-0.73183189 L-1.2297737,-0.758827232 L-0.864423509,0.750336238 Z"/>
          </g>
          <path fill="#CEE9F1" d="M3.08798957,8.62147152 C3.08798957,8.62147152 37.5435951,33.4201718 60.9899335,33.4201718 C84.4362719,33.4201718 92.7674153,36.5521483 97.2343191,42.0367348 C101.701223,47.5213213 99.1644113,61.1049977 99.1644113,61.1049977 C99.1644113,61.1049977 111.566309,61.8711181 115.520269,60.1015196 C119.47423,58.3319211 122.473817,55.4557042 122.473817,49.664987 C122.473817,43.8742698 119.47423,33.4201718 119.47423,33.4201718 L121.927045,3.13522073 C121.927045,3.13522073 97.5924957,26.439666 59.2734872,26.439666 C20.9544787,26.439666 3.08798957,8.62147152 3.08798957,8.62147152 Z" style="mix-blend-mode:darken"/>
        </g>
        <g transform="translate(27.308)">
          <g stroke-linecap="round" stroke-linejoin="round">
            <use fill="#FFFFFF" xlink:href="#b"/>
            <path stroke="#297BCC" stroke-width="2.4" d="M68.2013063,29.7320157 C47.4707001,37.3456034 32.0134774,48.48727 21.6197414,64.4194872 C20.1955975,65.893949 18.5284037,68.0502225 16.5030926,70.9571475 C16.0030924,71.6747967 15.4819057,72.437223 14.9210085,73.2698438 C14.1183528,74.4613418 10.9705416,79.2291712 10.2777287,80.2487714 C9.86367934,80.8580411 9.43975262,81.501994 9.00662142,82.1787943 C8.06753351,83.6461904 7.0912988,85.2582364 6.08664822,86.9917897 C4.37886017,89.9386268 2.67039463,93.092461 1.04168236,96.2458486 C0.471791279,97.349228 -0.047543783,98.3739655 -0.506165045,99.2939946 C-0.66686846,99.6163778 -0.808567211,99.9027772 -0.929989296,100.149931 C-1.00315214,100.298853 -1.05308285,100.401165 -1.07972211,100.456088 L-2.32313302,103.019939 L0.379822479,102.118033 L8.2303865,99.4985025 C7.9898693,100.675247 7.77163962,101.857898 7.57588404,103.045925 L1.39472687,118.072693 L0.397369195,120.49733 L2.88432773,119.667496 L6.31351594,118.523264 C6.31351582,118.52524 6.31351576,118.527216 6.31351576,118.529192 C6.31351576,170.734067 48.6535618,213.117406 100.806336,213.117406 C152.95894,213.117406 195.299157,170.733977 195.299157,118.529192 C195.299157,78.1411782 169.722515,42.5736291 132.273383,29.3212812 C128.343713,27.3466004 124.798228,25.5366827 122.027183,24.0789627 C118.809924,22.3863891 117.347545,20.2025207 115.073047,14.7767905 C114.926242,14.4262999 114.844748,14.2317434 114.778147,14.073154 C114.664806,13.8032648 114.569823,13.5784274 114.477744,13.3624641 C113.534052,11.1491195 112.783594,9.6424131 111.827412,8.18635249 C110.752549,6.54960357 109.430063,5.16721027 107.917545,4.01898771 C106.422616,2.88411804 104.8252,2.03636956 103.226539,1.43143223 C102.258375,1.06507676 101.492808,0.858665863 101.028087,0.77128413 L99.3425704,0.454355656 L99.6224193,2.14642376 C99.6354331,2.22510996 99.6595593,2.38323469 99.6911323,2.61153954 C99.7444557,2.99712092 99.7979415,3.43456617 99.8479392,3.91455868 C100.068709,6.03400957 100.148722,8.21466016 100.006536,10.2333142 C99.936479,11.2279249 99.813401,12.1482179 99.6335483,12.9783124 C99.2647292,14.6804748 98.1727419,16.4358994 96.5710096,18.1362857 C95.8552086,18.8961744 95.0858436,19.5937723 94.3158758,20.2119344 L90.5928707,13.2907123 L89.9982316,12.1852535 L88.9206367,12.8290112 C88.7901005,12.9069938 88.5446617,13.0562451 88.1945024,13.2732558 C87.6139682,13.6330409 86.9491263,14.0535397 86.2101526,14.5312506 C84.101482,15.8944046 81.8188245,17.4441587 79.4434738,19.1526663 C78.7790824,19.6305087 78.0869719,20.1689305 77.3687028,20.7639339 C76.3148591,21.6369221 75.2149011,22.6230197 74.0735027,23.7086915 C72.8742687,24.8493751 71.6738763,26.0564998 70.4363366,27.3509169 C69.9695105,27.8391984 69.5176506,28.3185705 69.028251,28.8430275 C68.8512405,29.0327179 68.4476535,29.4669955 68.2013063,29.7320156 L68.2013063,29.7320157 Z"/>
          </g>
          <path fill="#E6F9FF" d="M100.589652,0 C100.589652,0 107.658325,7.7639205 107.941593,16.7098586 C108.22486,25.6557966 98.5145258,29.0676209 97.2324142,28.3841338 C95.9503025,27.7006466 93.4668846,18.4217749 92.6128169,16.511883 C91.7587492,14.601991 89.2881255,11.7961581 89.2881255,11.7961581 C89.2881255,11.7961581 91.8312496,27.6431843 88.6769228,30.8956405 C85.522596,34.1480967 91.0584361,35.3705175 99.0413318,34.2906302 C107.024228,33.2107429 117.234882,26.2544371 122.958146,27.3192854 C128.681409,28.3841338 133.524793,30.1773617 133.524793,30.1773617 C133.524793,30.1773617 120.363396,24.2468478 117.990861,20.3793654 C115.618326,16.511883 113.420196,7.55674196 109.967563,5.07127283 C106.514929,2.5858037 100.589652,0 100.589652,0 Z" style="mix-blend-mode:darken"/>
          <path fill="#E6F9FF" d="M16.3500143,157.957464 C16.3500143,157.957464 41.8711377,212.006876 98.3163136,212.006876 C154.761489,212.006876 181.734817,172.209904 188.965458,150.808155 C196.196098,129.406406 195.702714,110.997816 185.463154,78.3768888 C175.223595,45.7559619 131.323277,30.4632695 131.323277,30.4632695 C131.323277,30.4632695 166.784769,59.1727304 172.37182,96.6991333 C172.616251,98.3408949 178.331517,105.114346 178.456117,106.788193 C178.580716,108.462041 173.074549,104.081109 173.097461,105.296085 C173.166275,108.94522 179.059183,120.714893 178.456117,124.477357 C177.85305,128.23982 171.471119,120.944087 170.837981,123.227658 C167.537011,135.133441 160.378639,147.413291 147.702197,159.561593 C122.936219,183.295742 98.1261413,188.858595 76.8436078,186.596073 C75.5622791,186.459856 76.5596244,194.481665 75.3046478,194.290977 C74.0496712,194.100288 68.4652474,185.314246 66.252277,184.800504 C36.8017055,177.963532 16.3500143,157.957464 16.3500143,157.957464 Z" style="mix-blend-mode:multiply"/>
        </g>
        <g transform="translate(64.37 52.667)">
          <g stroke-linecap="round" stroke-linejoin="round">
            <use fill="#C6F1FF" xlink:href="#c"/>
            <path stroke="#297BCC" stroke-width="1.779" d="M63.1959853,15.1709583 C60.9720727,14.2285472 58.7517595,13.2399125 56.6787167,12.2504733 C55.336936,11.6100571 54.0998281,10.9893062 52.9895963,10.3954539 C51.6636736,9.68623057 50.5370277,9.02509924 49.6396243,8.42329217 C47.3736251,6.9038062 45.3928706,4.83723455 43.722249,2.49119921 L43.4094134,2.05188762 L42.8752459,2.12622404 C36.8663031,2.96244741 31.1554219,5.09241037 25.8445664,8.35002677 C11.1168123,17.3838582 -0.166218061,35.7658769 -0.166218061,47.3336977 C-0.166218061,59.1891829 5.96741407,65.803246 23.0365497,67.4512963 C34.2957658,68.5383903 39.2393816,67.4337474 47.0559801,63.5202499 C47.05943,63.5185227 47.05943,63.5185227 47.0628798,63.5167955 C53.2097321,60.4392815 56.6082189,59.4313403 63.6260287,59.4313403 C71.641439,59.4313403 76.5477864,60.4005984 82.648307,62.6189832 C83.0174534,62.753219 85.1348147,63.5382874 85.7417063,63.7560909 C89.9472913,65.2654072 93.0371635,65.913714 97.3143933,65.913714 C115.353153,65.913714 122.334169,59.1767725 122.334169,46.56183 C122.334169,33.1112168 108.234703,14.5392042 89.1138066,6.07436941 C81.3625708,2.64289162 72.9116966,0.794337664 63.9557738,0.752960973 L63.4835645,0.750779349 L63.2172553,1.14073542 C61.7765273,3.25039004 60.8669402,5.5199684 60.7781296,7.87486237 C60.687357,10.2773085 61.5807359,12.7029254 63.1112831,15.0425775 C63.1394097,15.0855729 63.1676457,15.1283673 63.1959853,15.1709583 Z"/>
          </g>
          <path fill="#5588BB" d="M19.2036885,67.1400945 C19.2036885,67.1400945 -7.40241693,64.7292124 2.24618496,35.9265686 C11.8947868,7.12392484 43.103735,1.58490926 43.103735,1.58490926 C43.103735,1.58490926 47.360968,6.24339204 51.9063272,9.4493684 C56.4516864,12.6553448 61.8964764,14.8163744 63.0598358,14.77636 C63.4175348,14.7640567 60.8330378,11.1283406 60.4971947,7.52543601 C60.1613516,3.92253143 62.0739783,1.62093124 63.0598358,1.21957562 C68.8521471,-1.13855081 74.5288559,2.02734255 74.5288559,2.02734255 C74.5288559,2.02734255 69.4918053,4.76587235 69.0604845,9.02532042 C68.6291637,13.2847685 72.6505209,20.2079769 71.8431534,20.6777438 C70.3175912,21.5653925 71.1702062,24.2858504 64.0793174,20.0324792 C56.9884287,15.779108 48.2640082,7.52543601 48.2640082,7.52543601 C48.2640082,7.52543601 19.1384494,21.8792813 12.9611207,32.9214621 C1.39253749,53.6006904 19.2036885,67.1400945 19.2036885,67.1400945 Z" opacity=".196" style="mix-blend-mode:multiply"/>
        </g>
        <g fill="#297BCC" transform="translate(86.476 67.621)">
          <path d="M21.4475934,5.47677338 C21.7969696,6.49647803 21.9866349,7.59016404 21.9866349,8.727853 C21.9866349,14.2624626 17.4975701,18.7561175 11.9686139,18.7561175 C6.43939678,18.7561175 1.95059289,14.2624626 1.95059289,8.727853 C1.95059289,7.59016404 2.14024721,6.49647803 2.48960808,5.47677338 C3.83989212,9.41788122 7.57592363,12.2540599 11.9686139,12.2540599 C16.3610969,12.2540599 20.0972505,9.41788122 21.4475934,5.47677338 Z" transform="rotate(-47 18.698 15.042)"/>
          <g transform="rotate(15 20.699 158.603)">
            <path d="M37.9695102,3.3544091 C38.3188863,4.37411376 38.5085517,5.46779977 38.5085517,6.60548873 C38.5085517,12.1400984 34.0194869,16.6337533 28.4905307,16.6337533 C22.9613135,16.6337533 18.4725096,12.1400984 18.4725096,6.60548873 C18.4725096,5.46779977 18.662164,4.37411376 19.0115248,3.3544091 C20.3618089,7.29551694 24.0978404,10.1316956 28.4905307,10.1316956 C32.8830137,10.1316956 36.6191672,7.29551694 37.9695102,3.3544091 Z" transform="rotate(22 28.49 9.994)"/>
            <path d="M17.374551,66.2763087 C8.13428031,68.7522628 3.31263938,77.2540424 3.31263938,77.2540424 C1.79767804,78.0960277 0.689545018,77.1235604 0.206735991,75.3216701 C-0.276073035,73.5197797 3.3662625,63.0693306 15.3137879,59.8679608 C27.2613133,56.666591 33.0882268,62.2206093 33.1388518,62.2244541 C33.2097952,62.2298419 35.6512074,64.4340466 36.1414109,66.2635339 C36.6525833,68.1712789 35.2083814,69.0744863 33.1500885,68.3577769 C32.9388823,68.2842337 26.6148217,63.8003547 17.374551,66.2763087 Z"/>
          </g>
        </g>
        <g transform="translate(0 134.593)">
          <g stroke-linecap="round" stroke-linejoin="round">
            <use fill="#FFFFFF" xlink:href="#d"/>
            <path stroke="#297BCC" stroke-width="2.4" d="M135.168867,62.0100515 C152.883264,68.446254 178.636327,74.4098081 199.678203,75.5111998 C200.47861,75.5530953 201.631587,75.9230674 207.252998,77.8621893 C207.480597,77.9407001 207.690602,78.0129552 207.892259,78.0821086 C212.461151,79.648905 214.912027,80.3484081 216.425507,80.3453902 C217.872439,80.342505 218.795616,79.4700933 218.525983,78.1396883 C218.405577,77.5455906 218.188904,77.1536006 217.479434,76.0372691 C217.455062,75.9989149 217.455062,75.9989149 217.430886,75.9608254 C217.238166,75.657063 217.092592,75.4163921 216.986911,75.2264854 C224.577202,74.4737964 231.109608,72.8224826 236.445298,70.1892901 C245.269468,65.8345134 249.131816,58.7204399 248.640656,49.526805 C248.999983,49.6833026 249.494638,49.9158096 250.348011,50.3219508 C250.4332,50.3624816 250.4332,50.3624816 250.518682,50.4030779 C251.932148,51.0739458 252.71644,51.4070415 253.422638,51.5881335 C254.038805,51.7461385 254.541103,51.7714517 255.025594,51.55163 C255.812411,51.1946382 256.056552,50.4120614 255.864479,49.6069436 C255.581866,48.4223089 254.418981,45.7517354 252.251158,41.1160118 C252.154338,40.9090504 252.154338,40.9090504 252.057464,40.7022731 C251.650181,39.833213 250.14362,36.6384604 249.82984,35.9683501 C249.094631,34.3982321 248.659371,33.4390374 248.455437,32.9293389 C245.909452,26.5661003 241.733639,20.1852845 236.382345,13.9394347 C233.174634,10.1955027 229.740823,6.72855333 226.306617,3.62183248 C225.10398,2.5338792 223.986488,1.56808542 222.982382,0.73504586 C222.629803,0.442534697 222.316206,0.187231136 222.045123,-0.0295345953 C221.880675,-0.161032094 221.765829,-0.251310797 221.704116,-0.29903773 L220.213969,-1.45148303 L219.799411,0.386126499 C219.785788,0.446514537 219.753708,0.577273786 219.701386,0.77368462 C219.611855,1.10976933 219.498503,1.50213026 219.35955,1.94604821 C218.959548,3.22395082 218.435754,4.65191846 217.774075,6.19224088 C215.879764,10.6020067 213.264533,15.01402 209.817426,19.1298565 C207.440291,21.9681501 204.742567,24.5660702 201.703587,26.8714449 C195.147444,31.8449436 184.671345,35.0097295 173.120528,36.1103834 C163.660892,37.0117729 154.825892,36.2413381 153.152329,34.722831 C152.548429,34.1748817 147.78655,24.6205252 148.179545,25.3559694 C144.51688,18.5017092 141.164091,14.7894921 137.047278,14.7894921 C133.333993,14.7894921 130.687872,16.2757928 129.032595,18.7314739 C128.047072,20.1935442 127.603795,21.6454796 127.479807,22.6708504 L127.471129,22.8149054 L127.471129,55.1713776 L127.471129,55.5067705 L127.645026,55.7935605 C127.76541,55.9920982 127.980141,56.3233912 128.276301,56.7441328 C128.767608,57.4421096 129.313503,58.140241 129.903156,58.7961466 C131.543086,60.620334 133.205739,61.7990507 134.932438,61.9904042 C135.011342,61.9991484 135.090159,62.0057091 135.168867,62.0100515 Z"/>
          </g>
          <path fill="#E6F9FF" d="M133.465762,60.2820323 C133.465762,60.2820323 162.694178,71.3050519 175.988518,72.8069594 C189.282858,74.308867 200.369236,75.1681884 200.369236,75.1681884 L218.2048,79.6112611 L217.079654,74.783822 C217.079654,74.783822 235.221691,71.8426569 240.691648,66.6935014 C246.161605,61.5443459 247.768474,49.0532836 247.768474,49.0532836 L255.271991,51.0445388 C255.271991,51.0445388 251.743315,37.987933 246.217481,27.593107 C240.691648,17.198281 221.395679,0.110060871 221.395679,0.110060871 C221.395679,0.110060871 208.660102,28.0189579 197.622828,30.2684328 C186.585554,32.5179077 153.512676,35.7731696 153.512676,35.7731696 C153.512676,35.7731696 146.854077,24.035601 145.889786,21.674372 C144.925496,19.313143 138.435372,15.9308878 138.435372,15.9308878 L134.619694,15.9308878 C134.619694,15.9308878 138.700361,15.2662894 141.753242,27.5634752 C144.806123,39.860661 152.455258,44.2732553 162.584965,44.2732553 C172.714671,44.2732553 208.114038,31.3639618 224.402843,37.1557034 C240.691648,42.9474451 236.517853,59.6089678 233.296497,63.1512346 C230.07514,66.6935014 195.104159,69.8514017 176.891852,69.8514017 C158.679546,69.8514017 133.465762,60.2820323 133.465762,60.2820323 Z" style="mix-blend-mode:darken"/>
          <g stroke-linecap="round" stroke-linejoin="round">
            <use fill="#FFFFFF" xlink:href="#e"/>
            <path stroke="#297BCC" stroke-width="2.4" d="M3.22619611,41.5752002 C2.0347544,44.7269101 1.25818931,46.9434305 1.01022661,47.9828212 C0.671166854,49.4040654 1.58886305,50.3286941 2.92464959,50.2651533 C3.54058126,50.2358546 4.16981468,50.0600626 5.32170231,49.6608563 C5.40477777,49.6320263 5.40477777,49.6320263 5.48718515,49.603322 C5.89855442,49.4599601 6.19840128,49.3571129 6.43024253,49.2818515 C5.85691868,58.5941117 9.70913108,65.7959148 18.6115145,70.1892901 C24.0527164,72.8745533 30.7384316,74.538721 38.52143,75.2700845 C41.3386284,75.5348149 52.4996371,75.6618934 55.3786096,75.5111998 C76.4204855,74.4098081 102.173549,68.446254 119.887946,62.0100515 C119.966653,62.0057091 120.045471,61.9991484 120.124375,61.9904042 C121.851073,61.7990507 123.513726,60.620334 125.153656,58.7961466 C125.74331,58.140241 126.289205,57.4421096 126.780511,56.7441328 C127.076672,56.3233912 127.291403,55.9920982 127.411787,55.7935605 L127.585683,55.5067705 L127.585683,55.1713776 L127.585683,22.8149054 L127.577006,22.6708504 C127.453017,21.6454796 127.009741,20.1935442 126.024218,18.7314739 C124.368941,16.2757928 121.72282,14.7894921 118.009535,14.7894921 C113.892722,14.7894921 110.539932,18.5017092 106.877268,25.3559694 C107.270262,24.6205252 102.508384,34.1748817 101.904483,34.722831 C100.230921,36.2413381 91.3959203,37.0117729 81.9362843,36.1103834 C70.3854681,35.0097295 59.9093688,31.8449436 53.3532259,26.8714449 C50.3142453,24.5660702 47.6165221,21.9681501 45.2393867,19.1298565 C41.7922801,15.01402 39.1770492,10.6020067 37.2827375,6.19224088 C36.6210582,4.65191846 36.097265,3.22395082 35.6972629,1.94604821 C35.5583101,1.50213026 35.4449573,1.10976933 35.3554271,0.77368462 C35.3031049,0.577273786 35.271025,0.446514537 35.2574016,0.386126499 L34.8428432,-1.45148303 L33.3526965,-0.29903773 C33.2909841,-0.251310797 33.1761374,-0.161032094 33.0116894,-0.0295345953 C32.7406068,0.187231136 32.4270099,0.442534697 32.0744308,0.73504586 C31.0703243,1.56808542 29.9528327,2.5338792 28.7501961,3.62183248 C25.3159898,6.72855333 21.8821787,10.1955027 18.6744677,13.9394347 C15.0268133,18.1968538 11.9049081,22.5472194 9.4705773,26.9347838 C9.10665062,27.5907142 8.51350543,28.3394911 4.37305475,33.4520256 C4.29216,33.5519239 4.29216,33.5519239 4.21127031,33.651866 C0.838729903,37.8193278 -0.660418417,39.7944165 -1.06955964,40.8169925 C-1.35764579,41.5370128 -1.14219739,42.4153497 -0.203352395,42.6573271 C0.17370658,42.75451 0.477455808,42.7017748 0.889441334,42.5658474 C1.10512986,42.4946848 1.34762106,42.3970264 1.67090425,42.2556331 C1.84381607,42.1800072 2.47125136,41.8979895 2.50738829,41.881906 C2.64331034,41.821411 2.76211309,41.7693137 2.87460368,41.7210391 C2.99865861,41.6678018 3.1160778,41.6191737 3.22619611,41.5752002 Z"/>
          </g>
          <path fill="#E6F9FF" d="M113.928509,16.8503194 C113.928509,16.8503194 118.378299,16.5768604 119.985168,22.1036094 C121.592036,27.6303584 117.515602,49.6535387 113.928509,52.7851938 C110.341416,55.9168489 104.642874,58.4795739 78.9278965,64.8588713 C66.6177051,67.9127481 54.6082457,70.139679 41.8607054,69.5669367 C29.113165,68.9941944 12.1090842,64.8588713 12.1090842,64.8588713 C12.1090842,64.8588713 28.5951499,81.2630208 74.2901587,73.0609461 C119.985168,64.8588713 122.017882,60.1017018 122.017882,60.1017018 L127.271953,55.9168489 L127.061993,23.023041 C127.061993,23.023041 127.641922,18.4826067 123.568874,16.7563443 C119.495826,15.0300819 113.928509,16.8503194 113.928509,16.8503194 Z" style="mix-blend-mode:darken"/>
        </g>
      </g>
      <g fill="#F25335" transform="translate(83.875 126.79)" opacity=".15">
        <path d="M115.08498,29.909465 C106.825813,29.909465 100.130435,23.2140032 100.130435,14.9547325 C100.130435,6.69546181 106.825813,0 115.08498,0 C123.344148,0 130.039526,6.69546181 130.039526,14.9547325 C130.039526,23.2140032 123.344148,29.909465 115.08498,29.909465 Z M14.9545455,29.909465 C6.69537806,29.909465 0,23.2140032 0,14.9547325 C0,6.69546181 6.69537806,0 14.9545455,0 C23.2137128,0 29.9090909,6.69546181 29.9090909,14.9547325 C29.9090909,23.2140032 23.2137128,29.909465 14.9545455,29.909465 Z"/>
      </g>
    </g>
  </g>
</svg>
