<svg xmlns="http://www.w3.org/2000/svg" width="376" height="476" viewBox="0 0 376 476" xmlns:xlink="http://www.w3.org/1999/xlink">
  <defs>
    <path id="a" d="M33.7373982,0.575765158 C33.7373982,0.575765158 13.8654266,24.4878216 5.59491064,47.6137574 C-2.67560535,70.7396933 5.59491064,99.5033133 5.59491064,99.5033133 C5.59491064,99.5033133 -4.91559886,107.473547 2.87509461,109.75804 C10.6657881,112.042281 13.0749684,107.835169 13.0749684,107.835169 C13.0749684,107.835169 12.7771088,117.349576 20.5550261,116.807898 C28.3329435,116.266219 28.0350839,110.398913 28.0350839,110.398913 C28.0350839,110.398913 28.6230371,117.410851 35.5148911,116.807898 C42.4067452,116.204944 42.314807,111.039787 42.314807,111.039787 C42.314807,111.039787 46.0489488,118.488935 53.1948227,115.526151 C60.3409471,112.563367 52.2373633,104.375156 53.1948227,94.3760755 C54.1522821,84.376995 57.4114519,83.0593374 61.3547718,79.6352355 C65.2983422,76.2111337 67.4747963,70.0216333 67.4747963,70.0216333 L33.7373982,0.575765158 Z"/>
    <path id="b" d="M60.851309,100.488656 C60.851309,100.488656 60.1658278,115.347629 60.851309,127.269614 C61.5367902,139.191599 61.1185818,152.658763 75.0755837,157.401224 C96.9664355,164.745327 105.132095,141.348318 124.195391,142.47005 C143.258687,143.591783 144.287557,161.289177 166.386865,157.886731 C183.96531,155.180325 180.731909,140.487143 180.731909,130.9771 C180.731909,121.467058 176.782392,102.507342 176.782392,102.507342 L60.851309,100.488656 Z"/>
    <path id="c" d="M42.4782225,9.32914593 C42.4782225,9.32914593 22.606251,33.2412024 14.335735,56.3671382 C6.06521904,79.493074 14.335735,108.256694 14.335735,108.256694 C14.335735,108.256694 3.82522554,116.226928 11.615919,118.511421 C19.4066125,120.795662 21.8157928,116.58855 21.8157928,116.58855 C21.8157928,116.58855 21.5179332,126.102957 29.2958505,125.561278 C37.0737679,125.0196 36.7759083,119.152294 36.7759083,119.152294 C36.7759083,119.152294 37.3638615,126.164232 44.2557155,125.561278 C51.1475695,124.958325 51.0556314,119.793167 51.0556314,119.793167 C51.0556314,119.793167 54.7897732,127.242315 61.9356471,124.279532 C69.0817714,121.316748 60.9781877,113.128537 61.9356471,103.129456 C62.8931065,93.1303758 66.1522763,91.8127181 70.0955962,88.3886163 C74.0391666,84.9645145 76.2156207,78.7750141 76.2156207,78.7750141 L42.4782225,9.32914593 Z"/>
    <path id="d" d="M33.7373982,0.575765158 C33.7373982,0.575765158 13.8654266,24.4878216 5.59491064,47.6137574 C-2.67560535,70.7396933 5.59491064,99.5033133 5.59491064,99.5033133 C5.59491064,99.5033133 -4.91559886,107.473547 2.87509461,109.75804 C10.6657881,112.042281 13.0749684,107.835169 13.0749684,107.835169 C13.0749684,107.835169 12.7771088,117.349576 20.5550261,116.807898 C28.3329435,116.266219 28.0350839,110.398913 28.0350839,110.398913 C28.0350839,110.398913 28.6230371,117.410851 35.5148911,116.807898 C42.4067452,116.204944 42.314807,111.039787 42.314807,111.039787 C42.314807,111.039787 46.0489488,118.488935 53.1948227,115.526151 C60.3409471,112.563367 52.2373633,104.375156 53.1948227,94.3760755 C54.1522821,84.376995 57.4114519,83.0593374 61.3547718,79.6352355 C65.2983422,76.2111337 67.4747963,70.0216333 67.4747963,70.0216333 L33.7373982,0.575765158 Z"/>
    <path id="e" d="M66.1451143,25.8274818 C67.8335697,24.0146038 123.479448,23.957096 126.561505,25.5077985 C161.392035,37.8194975 186.381425,71.1208026 186.381425,110.226883 C186.381425,159.790349 146.240277,192.215786 96.7980949,192.215786 C47.3556622,192.215786 7.21476484,159.790349 7.21476484,110.226883 C7.21476484,109.688469 7.21952458,109.15106 7.22904406,108.614906 L2.40492161,110.226883 L8.39042079,95.6550509 C8.69053497,93.8142979 9.04651347,91.9923794 9.4566027,90.1913044 L0,93.3512217 C0,93.3512217 5.64705656,81.6906922 10.8221473,74.0647516 C13.8085088,69.6635189 18.3540611,62.3110544 21.664586,58.9183433 C32.1788532,42.7259956 47.7592381,32.5473601 66.1451143,25.8274818 Z"/>
    <filter id="f" width="124.3%" height="132%" x="-12.1%" y="-16%" filterUnits="objectBoundingBox">
      <feGaussianBlur stdDeviation="1.779" in="SourceGraphic"/>
    </filter>
    <path id="g" d="M65.3925249,1.25048297 C99.7508383,1.40944567 127.530188,13.4079907 127.530188,28.1641493 C127.530188,43.0190004 99.3775744,55.0793224 64.7016109,55.0793224 C30.0253969,55.0793224 1.8730338,43.0190004 1.8730338,28.1641493 C1.8730338,16.2135694 20.0928201,6.07184937 45.2718484,2.56286699 C46.5882925,4.41416722 48.5703487,6.7330639 51.1739269,8.48140251 C56.2748658,11.9070111 67.4071477,16.316531 67.4071477,16.316531 C67.4071477,16.316531 63.0201699,12.0034434 63.1985349,7.27599812 C63.2882185,4.89457109 64.3554024,2.7713015 65.3925249,1.25048297 Z"/>
    <filter id="h" width="104.6%" height="107.2%" x="-2.3%" y="-3.6%" filterUnits="objectBoundingBox">
      <feGaussianBlur stdDeviation=".593" in="SourceGraphic"/>
    </filter>
    <path id="i" d="M90.2937329,5.46657192 C106.454806,1.04675586 115.544909,-3.74347093 115.436437,4.47261556 C115.341743,11.6236771 89.5737595,34.306374 57.7183181,34.306374 C25.8626262,34.306374 -0.0829708072,12.8293326 0.000199398604,5.67801994 C0.0818665284,-1.37007993 9.26014966,2.67832091 25.5993374,6.3598268 C27.8216353,10.6578468 30.7679148,15.5332053 32.3331179,15.6226061 C33.8103911,15.7067333 37.5047014,12.2077959 40.5178678,9.05641685 C45.8041861,9.74801761 51.5494437,10.1982864 57.7183181,10.1982864 C63.8055254,10.1982864 69.4886558,9.67142421 74.7293808,8.857274 C77.7756149,12.058376 81.5956825,15.7084912 83.1040193,15.6226061 C84.778947,15.5271782 88.0351107,9.95092735 90.2937329,5.46657192 Z"/>
    <path id="k" d="M0,14.1981569 C3.13867322,6.04962324 14.6314429,0 28.3121902,0 C39.0839844,0 48.4992525,3.75031438 53.5483353,9.32254727 C44.2355269,13.8279973 32.9313933,17.1531555 20.734683,17.1531555 C13.4317377,17.1531555 6.43942813,16.0243445 0,14.1981569 Z"/>
  </defs>
  <g fill="none" fill-rule="evenodd">
    <rect width="376" height="476"/>
    <g transform="translate(35 27)">
      <g stroke="#C0DFF8" stroke-width="3">
        <path d="M74.7786477,206.506214 L85.6829427,192.726858 L26.0416667,191.716312 L38.3334676,206.714761 L74.7786477,206.506214 Z" transform="matrix(1 0 0 -1 0 398.431)"/>
        <path d="M85.6829427,205.704215 C85.6829427,205.704215 86.9505208,244.827134 86.9505208,266.202996 C86.9505208,287.578858 85.6829427,344.318484 85.6829427,344.318484 L26.0416667,343.307938 C26.0416667,343.307938 23.2897135,293.049738 25.0742188,267.345228 C26.858724,241.640717 26.858724,205.704215 26.858724,205.704215 L85.6829427,205.704215 Z" transform="matrix(1 0 0 -1 0 550.023)"/>
        <polygon points="26 344.738 86.692 344.738 88 355.291 24.697 355.291"/>
        <path d="M74.6557431,119.536859 L74.2832977,192.01823 L38.210563,192.01823 L38.210563,119.745406 L74.6557431,119.536859 Z M74.6557431,119.536859 L86.8489799,104.562576 L25.8770954,105.142096 L38.210563,119.745406 L74.6557431,119.536859 Z"/>
        <path d="M85.5160684 42.9699762L86.8489799 104.562576 25.8770954 105.142096 26.6876211 42.9699762 85.5160684 42.9699762zM55.4729129.166786679C60.231193.166786679 74.4792401 9.14335799 78.7210062 20.0245926 82.9627723 30.9058272 85.3979797 42.7191033 85.3979797 42.7191033 85.3979797 42.7191033 26.2663018 42.913715 26.5813704 42.7191033 26.896439 42.5244917 25.5170836 32.5582809 33.8979084 17.7599414 42.2787331 2.96160193 50.7146328.166786679 55.4729129.166786679zM91.4954427 205.97732L107.771524 205.97732C107.771524 205.97732 104.517578 186.781527 99.5266927 186.526743 94.5358073 186.27196 91.4954427 205.97732 91.4954427 205.97732zM91.8919271 206.113586L91.1992188 343.618259 107.934245 344.39406C107.934245 344.39406 108.644002 300.309308 108.652344 276.769356 108.660686 253.229403 107.934245 206.053469 107.934245 206.053469L91.8919271 206.113586zM91.1479388 343.84352L86 357.773256C86 357.773256 86.6468012 358.017272 87.1217095 357.981022 87.5966177 357.944772 94.5099967 357.164165 99.9531875 357.196897 106.684557 357.237376 112.504398 357.93697 112.386136 357.68223 112.145709 357.164345 108.019406 344.848882 107.805154 344.793235 107.590902 344.737589 91.1479388 343.84352 91.1479388 343.84352z"/>
        <path d="M5.22847612,205.97732 L21.5045573,205.97732 C21.5045573,205.97732 18.2506115,186.781527 13.2597261,186.526743 C8.2688407,186.27196 5.22847612,205.97732 5.22847612,205.97732 Z" transform="matrix(-1 0 0 1 26.733 0)"/>
        <path d="M5.04029328,206.113586 L4.34758495,343.618259 L21.082611,344.39406 C21.082611,344.39406 21.7923677,300.309308 21.8007099,276.769356 C21.8090522,253.229403 21.082611,206.053469 21.082611,206.053469 L5.04029328,206.113586 Z" transform="matrix(-1 0 0 1 26.148 0)"/>
        <path d="M5.76003158,343.84352 L0.612092826,357.773256 C0.612092826,357.773256 1.25889402,358.017272 1.73380228,357.981022 C2.20871054,357.944772 9.12208948,357.164165 14.5652803,357.196897 C21.2966498,357.237376 27.1164905,357.93697 26.9982285,357.68223 C26.7578019,357.164345 22.6314985,344.848882 22.4172465,344.793235 C22.2029945,344.737589 5.76003158,343.84352 5.76003158,343.84352 Z" transform="matrix(-1 0 0 1 27.612 0)"/>
        <path d="M56.6910839 80.0283688C64.4230704 80.0283688 71.2874381 75.3625638 71.2874381 67.8342568 71.2874381 60.3059498 64.4230704 52.7659574 56.6910839 52.7659574 48.9590974 52.7659574 43.879886 57.4276374 42.2132193 64.9222813 40.5465527 72.4169252 48.9590974 80.0283688 56.6910839 80.0283688zM65.9604377 35.8206858C134.856489 37.5238438 111.530497 33.0113737 149.797965 36.6330224L149.975195 45.735289 65 39.5504616 65.9604377 35.8206858z"/>
        <path d="M65.9604377,144.865539 C134.856489,146.568697 111.530497,142.056227 149.797965,145.677875 L149.975195,154.780142 L65,148.595314 L65.9604377,144.865539 Z" transform="matrix(1 0 0 -1 0 299.007)"/>
        <path d="M112.255208 43.0131871C112.255208 43.0131871 113.106771 208.773641 112.822917 231.850731 112.539063 254.927822 112.811198 370.866356 112.811198 370.866356L123.127604 371.159501C123.127604 371.159501 120.484375 210.200428 121.80599 178.602689 123.127604 147.00495 122.466146 43.2444962 122.466146 43.2444962L112.255208 43.0131871zM127.161458 43.2444962C127.161458 43.2444962 127.161458 146.46332 127.464844 208.430112 127.768229 270.396905 127.464844 370.628177 127.464844 370.628177M146.679687 43.7907063C146.679687 43.7907063 143.960937 137.880836 146.098958 215.333887 148.236979 292.786939 146.856771 319.81117 146.477865 331.045693 146.098958 342.280216 147.529948 370.900709 147.529948 370.900709"/>
        <path d="M126.576414,43.9716312 C126.576414,43.9716312 135.949971,49.8456916 139.654677,52.659797 C143.359382,55.4739024 147.529948,59.8879992 147.529948,59.8879992"/>
        <path d="M126.576414,43.9716312 C126.576414,43.9716312 135.416028,50.754039 139.120733,53.5681444 C142.825439,56.3822497 147.529948,59.8879992 147.529948,59.8879992" transform="matrix(-1 0 0 1 274.106 0)"/>
        <path d="M126.576414,73.8723404 C126.576414,73.8723404 135.949971,80.3647229 139.654677,83.47505 C143.359382,86.585377 147.529948,91.4641156 147.529948,91.4641156"/>
        <path d="M126.576414,73.8723404 C126.576414,73.8723404 135.416028,81.3686859 139.120733,84.4790129 C142.825439,87.5893399 147.529948,91.4641156 147.529948,91.4641156" transform="matrix(-1 0 0 1 274.106 0)"/>
        <path d="M126.576414,155.659574 C126.576414,155.659574 135.949971,162.151957 139.654677,165.262284 C143.359382,168.372611 147.529948,173.25135 147.529948,173.25135"/>
        <path d="M126.576414,155.659574 C126.576414,155.659574 135.416028,163.15592 139.120733,166.266247 C142.825439,169.376574 147.529948,173.25135 147.529948,173.25135" transform="matrix(-1 0 0 1 274.106 0)"/>
        <path d="M126.576414,320.113475 C126.576414,320.113475 135.949971,326.605858 139.654677,329.716185 C143.359382,332.826512 147.529948,337.70525 147.529948,337.70525"/>
        <path d="M126.576414,320.113475 C126.576414,320.113475 135.416028,327.609821 139.120733,330.720148 C142.825439,333.830475 147.529948,337.70525 147.529948,337.70525" transform="matrix(-1 0 0 1 274.106 0)"/>
        <path d="M126.576414,109.049645 C126.576414,109.049645 135.949971,114.614545 139.654677,117.280539 C143.359382,119.946534 147.529948,124.12831 147.529948,124.12831"/>
        <path d="M126.576414,109.049645 C126.576414,109.049645 135.416028,115.475084 139.120733,118.141079 C142.825439,120.807073 147.529948,124.12831 147.529948,124.12831" transform="matrix(-1 0 0 1 274.106 0)"/>
        <path d="M126.576414,141.588652 C126.576414,141.588652 135.949971,147.153552 139.654677,149.819546 C143.359382,152.485541 147.529948,156.667317 147.529948,156.667317"/>
        <path d="M126.576414,141.588652 C126.576414,141.588652 135.416028,148.014091 139.120733,150.680086 C142.825439,153.346081 147.529948,156.667317 147.529948,156.667317" transform="matrix(-1 0 0 1 274.106 0)"/>
        <path d="M126.576414,190.836879 C126.576414,190.836879 135.949971,196.401779 139.654677,199.067773 C143.359382,201.733768 147.529948,205.915544 147.529948,205.915544"/>
        <path d="M126.576414,190.836879 C126.576414,190.836879 135.416028,197.262318 139.120733,199.928313 C142.825439,202.594308 147.529948,205.915544 147.529948,205.915544" transform="matrix(-1 0 0 1 274.106 0)"/>
        <path d="M126.576414,256.794326 C126.576414,256.794326 135.949971,262.359226 139.654677,265.02522 C143.359382,267.691215 147.529948,271.872991 147.529948,271.872991"/>
        <path d="M126.576414,256.794326 C126.576414,256.794326 135.416028,263.219765 139.120733,265.88576 C142.825439,268.551754 147.529948,271.872991 147.529948,271.872991" transform="matrix(-1 0 0 1 274.106 0)"/>
        <path d="M126.576414,305.163121 C126.576414,305.163121 135.949971,310.72802 139.654677,313.394014 C143.359382,316.060009 147.529948,320.241785 147.529948,320.241785"/>
        <path d="M126.576414,305.163121 C126.576414,305.163121 135.416028,311.58856 139.120733,314.254554 C142.825439,316.920549 147.529948,320.241785 147.529948,320.241785" transform="matrix(-1 0 0 1 274.106 0)"/>
        <path d="M126.576414,223.375887 C126.576414,223.375887 135.949971,228.940786 139.654677,231.60678 C143.359382,234.272775 147.529948,238.454551 147.529948,238.454551"/>
        <path d="M126.576414,223.375887 C126.576414,223.375887 132.65751,229.599356 136.362215,232.265351 C140.06692,234.931346 147.529948,238.454551 147.529948,238.454551" transform="matrix(-1 0 0 1 274.106 0)"/>
        <path d="M126.470052,271.744681 C126.470052,271.744681 135.843609,277.30958 139.548314,279.975575 C143.25302,282.641569 147.423586,286.823345 147.423586,286.823345" transform="matrix(-1 0 0 1 273.894 0)"/>
        <path d="M126.470052,271.744681 C126.470052,271.744681 132.551148,277.968151 136.255853,280.634145 C139.960558,283.30014 147.423586,286.823345 147.423586,286.823345"/>
        <path d="M126.470052,59.8014184 C126.470052,59.8014184 135.843609,65.0571567 139.548314,67.5750404 C143.25302,70.0929242 147.423586,74.0423793 147.423586,74.0423793" transform="matrix(-1 0 0 1 273.894 0)"/>
        <path d="M126.470052,59.8014184 C126.470052,59.8014184 135.309666,65.8698886 139.014371,68.3877723 C142.719076,70.9056561 147.423586,74.0423793 147.423586,74.0423793"/>
        <path d="M126.470052,91.4609929 C126.470052,91.4609929 135.843609,98.2625365 139.548314,101.520974 C143.25302,104.779412 147.423586,109.890472 147.423586,109.890472" transform="matrix(-1 0 0 1 273.894 0)"/>
        <path d="M126.470052,91.4609929 C126.470052,91.4609929 135.309666,99.3143072 139.014371,102.572745 C142.719076,105.831183 147.423586,109.890472 147.423586,109.890472"/>
        <path d="M126.470052,173.248227 C126.470052,173.248227 135.843609,180.049771 139.548314,183.308208 C143.25302,186.566646 147.423586,191.677706 147.423586,191.677706" transform="matrix(-1 0 0 1 273.894 0)"/>
        <path d="M126.470052,173.248227 C126.470052,173.248227 135.309666,181.101541 139.014371,184.359979 C142.719076,187.618417 147.423586,191.677706 147.423586,191.677706"/>
        <path d="M126.470052,337.702128 C126.470052,337.702128 135.843609,344.503671 139.548314,347.762109 C143.25302,351.020547 147.423586,356.131606 147.423586,356.131606" transform="matrix(-1 0 0 1 273.894 0)"/>
        <path d="M126.470052,337.702128 C126.470052,337.702128 135.309666,345.555442 139.014371,348.81388 C142.719076,352.072318 147.423586,356.131606 147.423586,356.131606"/>
        <path d="M126.448686,238.326241 C126.448686,238.326241 135.396172,245.127785 138.932482,248.386223 C142.468791,251.64466 146.449786,256.75572 146.449786,256.75572" transform="matrix(-1 0 0 1 272.898 0)"/>
        <path d="M126.448686 238.326241C126.448686 238.326241 134.886499 246.179555 138.422809 249.437993 141.959118 252.696431 146.449786 256.75572 146.449786 256.75572M126.550214 286.695035C126.550214 286.695035 135.4977 293.496579 139.034009 296.755017 142.570319 300.013455 146.551314 305.124514 146.551314 305.124514"/>
        <path d="M126.550214,286.695035 C126.550214,286.695035 134.988027,294.54835 138.524336,297.806788 C142.060646,301.065225 146.551314,305.124514 146.551314,305.124514" transform="matrix(-1 0 0 1 273.102 0)"/>
        <path d="M126.550214,355.29078 C126.550214,355.29078 135.4977,361.120675 139.034009,363.913621 C142.570319,366.706568 146.551314,371.087476 146.551314,371.087476"/>
        <path d="M126.550214,355.29078 C126.550214,355.29078 134.988027,362.022192 138.524336,364.815139 C142.060646,367.608086 146.551314,371.087476 146.551314,371.087476" transform="matrix(-1 0 0 1 273.102 0)"/>
        <path d="M126.470052,123.120567 C126.470052,123.120567 135.843609,129.922111 139.548314,133.180549 C143.25302,136.438987 147.423586,141.550046 147.423586,141.550046" transform="matrix(-1 0 0 1 273.894 0)"/>
        <path d="M126.470052,123.120567 C126.470052,123.120567 135.309666,130.973882 139.014371,134.232319 C142.719076,137.490757 147.423586,141.550046 147.423586,141.550046"/>
        <path d="M126.470052,205.787234 C126.470052,205.787234 135.843609,212.588778 139.548314,215.847215 C143.25302,219.105653 147.423586,224.216713 147.423586,224.216713" transform="matrix(-1 0 0 1 273.894 0)"/>
        <path d="M126.470052,205.787234 C126.470052,205.787234 135.309666,213.640548 139.014371,216.898986 C142.719076,220.157424 147.423586,224.216713 147.423586,224.216713"/>
      </g>
      <g transform="translate(48.558 150)">
        <g transform="translate(0 7.503)">
          <g transform="translate(0 110.043)">
            <g stroke-linecap="round" stroke-linejoin="round">
              <use fill="#FFFFFF" xlink:href="#a"/>
              <path stroke="#8EA6BB" stroke-width="1.779" d="M4.58272914,99.1722345 C4.44429331,99.2854893 4.29739829,99.4080939 4.14352106,99.539365 C3.46673754,100.116722 2.78987796,100.745467 2.15561545,101.40678 C1.13820384,102.467583 0.327025176,103.51101 -0.204429336,104.518285 C-1.65897146,107.275104 -0.848572142,109.592911 2.6248507,110.611435 C6.88721568,111.861165 10.0797211,111.415613 12.2878454,109.864002 C12.2979194,109.856923 12.3079457,109.849842 12.3179244,109.842758 C12.4461344,110.797227 12.6633346,111.741822 12.9905951,112.637792 C14.2138001,115.98667 16.6986215,117.967952 20.6168121,117.695077 C24.1481299,117.449145 26.5032274,116.144767 27.8212959,114.106263 C27.9162061,113.959477 28.0043932,113.810812 28.0861175,113.660587 C28.151766,113.793392 28.2209291,113.92508 28.2937244,114.055424 C29.6996847,116.572875 32.1046259,117.998979 35.5924005,117.693842 C38.702377,117.421757 40.8232447,116.25279 42.0646008,114.458418 C42.3424493,114.05679 42.5603348,113.654413 42.7278013,113.262683 C42.9971336,113.600985 43.2898431,113.933755 43.6062242,114.255111 C46.2461039,116.936505 49.6050865,117.977246 53.535435,116.347666 C55.971824,115.337539 57.0691148,113.663388 57.0577825,111.297399 C57.050022,109.677143 56.9573845,109.314921 55.4944824,104.372673 C54.2584322,100.196818 53.7918892,97.4707452 54.0801015,94.4608451 C54.7231836,87.7449159 56.104814,85.1640406 59.7045594,82.1635199 C59.8594569,82.0344071 60.0206478,81.9015212 60.2350807,81.7258169 C60.2469089,81.716125 60.6626288,81.375922 60.7852473,81.2752364 C61.2466727,80.8963464 61.591744,80.6072786 61.9378574,80.306738 C63.1292861,79.2722509 64.2263341,77.9561571 65.2337108,76.4241695 C66.1120656,75.0883943 66.8751617,73.6625575 67.52176,72.2371128 C67.7480788,71.7381865 67.9439535,71.2742864 68.1089931,70.8568239 C68.2091994,70.6033554 68.2776078,70.4194773 68.313767,70.316646 L68.436824,69.9666909 L68.2747245,69.6330214 L34.5373264,0.187153178 L33.9347685,-1.0531663 L33.053428,0.00735581843 C32.9894332,0.0843610875 32.867405,0.232845949 32.6912087,0.449780716 C32.3987942,0.80980462 32.0599505,1.23220937 31.6785424,1.71396666 C30.5901642,3.08869945 29.3779711,4.66442913 28.0728742,6.41695308 C24.3448232,11.4230939 20.6169489,16.8451023 17.1363962,22.4901422 C12.3209989,30.30014 8.37192243,37.9074399 5.58971291,45.0824069 C5.29882376,45.8325733 5.02134124,46.5765947 4.75752227,47.3142827 C3.43696316,51.0068171 2.48483807,54.9671922 1.87232569,59.157581 C0.354713632,69.5400398 0.957356941,80.6297491 2.88168914,91.3467356 C3.28684015,93.6031017 3.72110187,95.6583143 4.15570439,97.4727652 C4.30813448,98.1091557 4.44985257,98.6704258 4.57726601,99.1516173 C4.57909925,99.1585407 4.58092031,99.1654131 4.58272914,99.1722345 Z"/>
            </g>
            <path fill="#2273C6" d="M5.5355295,99.3812123 C5.5355295,99.3812123 5.67666033,97.5163834 10.3990016,96.1805052 C21.3020158,93.0962091 36.5524583,93.856201 50.5428871,101.071201 C54.4980736,103.110929 54.9652193,105.591587 54.9652193,105.591587 L53.71874,100.002261 C53.71874,100.002261 51.1535225,96.8764113 49.564755,96.1805052 C37.2028829,90.7658033 29.1016415,86.8304025 10.1050425,92.448296 C6.49178402,93.5168505 4.38278451,95.3847083 4.38278451,95.3847083 L5.5355295,99.3812123 Z"/>
          </g>
          <g transform="translate(4.995 75.029)">
            <path fill="#C8EAFA" d="M128.687874,181.879772 C191.886509,181.879772 232.202331,167.884505 232.202331,157.284185 C232.202331,146.683864 191.886509,143.492615 128.687874,143.492615 C65.4892388,143.492615 14.2566226,152.085873 14.2566226,162.686194 C14.2566226,173.286514 65.4892388,181.879772 128.687874,181.879772 Z" transform="rotate(3 123.23 162.686)"/>
            <g stroke-linecap="round" stroke-linejoin="round">
              <use fill="#FFFFFF" xlink:href="#b"/>
              <path stroke="#2279CF" stroke-width="2" d="M59.8523714,100.442573 C59.8499113,100.495922 59.8454196,100.597187 59.8391195,100.745472 C59.8286499,100.991896 59.8169922,101.279632 59.804444,101.606108 C59.7686222,102.538107 59.7328119,103.594169 59.6993948,104.753731 C59.5411934,110.243267 59.4913245,115.921646 59.6149706,121.230211 C59.665271,123.389786 59.7438034,125.428587 59.8529579,127.327016 C59.8938898,128.038909 59.92599,128.654778 59.9879738,129.889798 C60.0638476,131.401575 60.0939632,131.980874 60.1401548,132.778628 C60.5349337,139.596691 61.2436748,143.906898 62.9696823,147.825431 C65.1859268,152.856943 68.955371,156.377785 74.7538585,158.348058 C80.6209725,160.316407 85.857972,160.277525 91.0078936,158.530598 C94.8706063,157.220311 97.6605371,155.574035 103.670924,151.455798 C103.694771,151.439459 103.694771,151.439459 103.718614,151.423121 C112.97035,145.083988 117.395646,143.071666 124.13665,143.468324 C130.906215,143.866662 134.788574,145.831867 141.598442,151.155329 C141.940514,151.422882 142.149253,151.586178 142.283144,151.690803 C146.470767,154.963137 148.785368,156.478153 151.989475,157.712205 C156.163014,159.319629 160.825984,159.754676 166.539033,158.875086 C177.673296,157.160837 181.727235,151.070291 181.954172,140.555816 C181.988259,138.976494 181.955612,137.633771 181.848004,135.012004 C181.757034,132.795591 181.731909,132.015153 181.731909,130.9771 C181.731909,128.021257 181.363923,124.03389 180.702222,119.258987 C180.425808,117.264351 180.103173,115.170931 179.743564,113.011675 C179.310122,110.409085 178.845835,107.844885 178.381523,105.429609 C178.218978,104.584079 178.068009,103.817405 177.932469,103.143433 C177.851007,102.738361 177.792691,102.453735 177.761377,102.303409 L177.598476,101.521401 L176.799802,101.507494 L60.8687192,99.4888076 L59.8971514,99.4718899 L59.8523714,100.442573 Z"/>
            </g>
            <path fill="#FFFFFF" stroke="#2279CF" stroke-width="2" d="M6.84280794,16.1164005 C7.58102382,7.21555829 15.4192487,-1.42108547e-14 24.3567037,-1.42108547e-14 L209.597457,-1.42108547e-14 C218.531899,-1.42108547e-14 226.311644,7.20943764 226.975023,16.1164005 L232.592051,91.5343197 C233.254974,100.435162 226.548218,107.65072 217.625171,107.65072 L15.4183652,107.65072 C6.48946254,107.65072 -0.15090861,100.441283 0.587814908,91.5343197 L6.84280794,16.1164005 Z" stroke-linecap="round" stroke-linejoin="round" transform="matrix(1 0 0 -1 0 107.65)"/>
            <path fill="#9ED4EC" d="M220.366631,0.527491916 C220.366631,0.527491916 224.125507,5.68243438 224.125507,14.6854014 C224.125507,23.6883685 223.405863,38.0743826 223.405863,38.0743826 L229.534944,50.7391439 L228.706936,60.4185005 C228.706936,60.4185005 222.345893,50.2441156 218.914788,45.3028677 C215.483683,40.3616198 209.814014,33.9467923 209.814014,33.9467923 C209.814014,33.9467923 209.686314,22.9784065 208.113136,15.567432 C206.539958,8.15645754 203.561629,0.630836429 203.561629,0.630836429 L220.366631,0.527491916 Z" style="mix-blend-mode:darken"/>
            <ellipse cx="136.83" cy="127.797" stroke="#C0CCD6" stroke-width="1.198" stroke-linecap="round" stroke-linejoin="round" rx="9.463" ry="9.626"/>
            <path fill="#2273C6" d="M60.3755128,117.132723 L60.3755128,123.350826 C60.3755128,123.350826 87.9033124,138.744443 120.24365,138.744443 C152.583988,138.744443 179.773991,121.016149 179.773991,120.507657 C179.773991,119.999166 178.606595,112.146756 178.606595,112.146756 C178.606595,112.146756 158.264822,132.365183 119.676362,131.922921 C94.221112,131.631179 60.3755128,117.132723 60.3755128,117.132723 Z"/>
            <path fill="#CAECF7" d="M61.0292533,106.453368 C61.0292533,106.453368 94.1148419,130.299936 116.628912,130.299936 C139.142981,130.299936 147.142863,133.311663 151.432155,138.585671 C155.721447,143.85968 152.856384,157.773667 152.856384,157.773667 C152.856384,157.773667 165.770731,160.430844 169.567475,158.729188 C173.364219,157.027532 177.778466,152.777375 179.850266,148.143154 C181.922066,143.508933 181.922066,130.299936 181.922066,130.299936 L179.850266,100.411096 C179.850266,100.411096 151.77609,123.587443 114.980714,123.587443 C78.1853386,123.587443 61.0292533,106.453368 61.0292533,106.453368 Z" style="mix-blend-mode:multiply"/>
            <g transform="rotate(-21 402.236 -285.869)">
              <path fill="#E0ECF6" stroke="#8EA6BB" stroke-width="1.198" d="M36.9776808,14.1978761 C21.7473549,12.1714074 12.2916373,2.32627437 11.0164097,1.97748651 C9.85614812,0.819790803 8.22302443,0.0989981093 6.41387378,0.0989981093 C2.8933098,0.0989981093 0.0393287937,2.82851253 0.0393287937,6.19553921 C0.0393287937,7.58418964 0.363047074,9.34474067 1.18049554,10.3697574 C1.18049554,10.3697574 17.1408238,24.9278305 32.4385696,26.48465 C56.9787331,28.982051 66.0042911,21.9179159 66.025502,21.9179159 C66.0467129,21.9179159 71.3309608,18.8610882 71.3309608,15.3168496 C71.3309608,11.772611 68.832645,9.08337447 65.1267881,9.08337447 C63.6141089,9.08337447 57.6926585,16.9541043 36.9776808,14.1978761 Z" stroke-linecap="round" stroke-linejoin="round"/>
              <path fill="#8EA6BB" d="M1.6846408,10.2319591 C1.6846408,10.2319591 24.3249701,23.3386676 41.8469293,23.3386676 C59.3688885,23.3386676 65.0882333,19.75292 66.0761221,16.5415425 C67.0640109,13.3301651 65.1992759,9.46380522 65.1992759,9.46380522 C65.1992759,9.46380522 68.6012569,9.2672443 69.9758429,11.8084174 C71.3504289,14.3495905 70.9799977,16.8053886 70.9799977,16.8053886 C70.9799977,16.8053886 64.2027119,28.5558047 39.2862261,27.0483965 C14.3697403,25.5409882 1.6846408,10.2319591 1.6846408,10.2319591 Z" opacity=".444" style="mix-blend-mode:multiply"/>
            </g>
          </g>
          <g transform="matrix(-1 0 0 1 256.606 101.29)">
            <g stroke-linecap="round" stroke-linejoin="round">
              <use fill="#FFFFFF" xlink:href="#c"/>
              <path stroke="#2279CF" stroke-width="2" d="M13.1983749,107.885162 C13.0756779,107.986104 12.9467366,108.094048 12.812518,108.208549 C12.133105,108.78815 11.4536064,109.419345 10.8165664,110.083554 C9.79262573,111.151165 8.97552694,112.202207 8.43851195,113.220021 C6.95280749,116.035903 7.79050634,118.431788 11.3345336,119.471016 C15.5532348,120.707944 18.7425615,120.294755 20.9740839,118.789332 C21.1057894,119.690447 21.3176632,120.580971 21.627465,121.429143 C22.8663097,124.820839 25.3930022,126.835507 29.3653254,126.558862 C32.9303392,126.310583 35.3174326,124.988485 36.6550572,122.919736 C36.7130791,122.83 36.7686268,122.739578 36.821758,122.648539 C36.8592936,122.719864 36.8980066,122.791293 36.9379246,122.862768 C38.3642015,125.416597 40.8094517,126.866604 44.3428705,126.557473 C47.4847847,126.282594 49.6357995,125.097011 50.8964402,123.274763 C51.138559,122.924782 51.3359163,122.574263 51.4946156,122.230379 C51.727314,122.511202 51.9850971,122.798598 52.2681836,123.086136 C54.9371624,125.797086 58.3420285,126.852044 62.3186467,125.20328 C64.7968072,124.175835 65.9208238,122.460908 65.9092775,120.05025 C65.9014405,118.414006 65.809216,118.053398 64.3414275,113.094642 C63.1090953,108.931348 62.6445687,106.217057 62.9310939,103.224775 C63.5713738,96.5381096 64.9387256,93.9839067 68.5162444,91.0019127 C68.6708617,90.8730335 68.831835,90.7403269 69.0460487,90.5648023 C69.0578141,90.5551618 69.4736011,90.214904 69.5963042,90.1141489 C70.0584477,89.7346693 70.4042281,89.4450074 70.7512436,89.1436836 C71.9510871,88.10189 73.0544513,86.7782189 74.0670065,85.2383559 C74.9488069,83.897341 75.7145512,82.466556 76.3633718,81.0362119 C76.5904696,80.5355683 76.7870498,80.0699974 76.9527384,79.6508934 C77.0534812,79.3960678 77.1223812,79.2108683 77.1589967,79.1067395 L77.2973674,78.7132344 L77.1150955,78.3380415 L43.3776974,8.89217335 L42.7001546,7.497503 L41.7091361,8.69000121 C41.6448794,8.76732156 41.5225881,8.9161267 41.3461268,9.13338766 C41.0534258,9.49376431 40.7142942,9.91652795 40.3325964,10.3986512 C39.2435596,11.7742159 38.0307036,13.3508071 36.7249355,15.1042324 C32.9950659,20.1128153 29.265395,25.5374369 25.7830157,31.1854392 C20.9643415,39.0007518 17.0122719,46.6138175 14.2273515,53.7957757 C13.9361131,54.5468426 13.6582897,55.2917782 13.3941383,56.0303955 C12.0710011,59.7301388 11.1171725,63.6975998 10.5036418,67.8949549 C8.98405905,78.290896 9.58731699,89.3919156 11.5135837,100.119676 C11.919122,102.378199 12.35382,104.435476 12.7889012,106.251925 C12.9364824,106.868072 13.0740562,107.413977 13.1983749,107.885162 Z"/>
            </g>
            <path fill="#CAECF7" d="M19.3960529,119.974753 C19.3960529,119.974753 21.1809911,122.493315 24.566839,121.855489 C27.952687,121.217662 28.9206293,119.490147 28.9206293,119.490147 C28.9206293,119.490147 30.5165701,127.369581 37.2468105,126.407528 C43.977051,125.445475 43.5427227,121.742077 43.5427227,121.742077 C43.5427227,121.742077 43.6015207,128.343047 50.0655015,128.343047 C56.5294823,128.343047 59.1985909,122.507938 59.1985909,122.507938 C59.1985909,122.507938 61.617361,125.199494 67.0275262,125.262766 C70.5625802,125.304108 73.0673454,124.088395 72.5867567,121.026366 C72.106168,117.964338 69.742302,117.174833 69.3068525,114.523974 C68.7406612,111.077206 82.7514558,85.4332696 78.8042841,56.6943384 C74.8571123,27.9554072 58.3183864,5.98090285 58.3183864,5.98090285 L12.1118313,71.2765131 C12.1118313,71.2765131 13.0289813,75.1468092 12.950719,76.9644823 C12.7940116,80.6040729 46.7239759,59.1900951 51.1499132,60.904611 C55.5758506,62.6191269 58.4775032,69.1666154 59.0362316,72.6603151 C63.060507,97.8239011 67.7845333,115.263661 61.9230861,122.274849 C59.5152245,125.15502 57.963852,114.880924 57.963852,114.880924 C57.963852,114.880924 53.9945275,123.125747 48.8914737,123.741179 C45.019386,124.208154 44.1244194,115.554699 44.1244194,115.554699 C44.1244194,115.554699 39.1180068,122.99691 32.356124,123.513531 C28.8557085,123.780969 29.4801325,112.625977 29.4801325,112.625977 C29.4801325,112.625977 28.7962182,115.23126 25.410146,117.882342 C22.0240738,120.533424 19.3960529,119.974753 19.3960529,119.974753 Z" opacity=".713" style="mix-blend-mode:multiply" transform="scale(-1 1) rotate(-12 0 503.006)"/>
            <path fill="#2273C6" d="M14.2763539,108.134593 C14.2763539,108.134593 14.4174847,106.269764 19.139826,104.933886 C30.0428402,101.84959 45.2932827,102.609582 59.2837115,109.824582 C63.238898,111.86431 63.7060437,114.344968 63.7060437,114.344968 L62.4595644,108.755642 C62.4595644,108.755642 59.8943468,105.629792 58.3055794,104.933886 C45.9437073,99.5191841 37.8424659,95.5837833 18.8458669,101.201677 C15.2326084,102.270231 13.1236089,104.138089 13.1236089,104.138089 L14.2763539,108.134593 Z"/>
          </g>
          <g transform="translate(0 110.043)">
            <g stroke-linecap="round" stroke-linejoin="round">
              <use fill="#FFFFFF" xlink:href="#d"/>
              <path stroke="#2279CF" stroke-width="2" d="M4.4575505,99.131781 C4.33485351,99.2327234 4.20591217,99.3406677 4.07169362,99.4551682 C3.39228059,100.034769 2.71278204,100.665964 2.07574204,101.330173 C1.05180134,102.397784 0.234702543,103.448827 -0.302312442,104.466641 C-1.7880169,107.282522 -0.950318054,109.678407 2.59370923,110.717635 C6.81241045,111.954563 10.0017371,111.541374 12.2332595,110.035952 C12.364965,110.937066 12.5768388,111.82759 12.8866406,112.675762 C14.1254853,116.067458 16.6521778,118.082126 20.624501,117.805481 C24.1895148,117.557203 26.5766082,116.235104 27.9142328,114.166355 C27.9722547,114.076619 28.0278024,113.986197 28.0809336,113.895158 C28.1184692,113.966483 28.1571822,114.037912 28.1971002,114.109387 C29.6233771,116.663216 32.0686273,118.113224 35.6020461,117.804092 C38.7439603,117.529213 40.8949751,116.34363 42.1556158,114.521383 C42.3977346,114.171402 42.5950919,113.820883 42.7537912,113.476998 C42.9864896,113.757821 43.2442728,114.045217 43.5273592,114.332755 C46.196338,117.043705 49.6012041,118.098663 53.5778223,116.4499 C56.0559828,115.422454 57.1799994,113.707527 57.1684531,111.296869 C57.1606161,109.660625 57.0683916,109.300017 55.6006031,104.341261 C54.3682709,100.177967 53.9037443,97.4636764 54.1902695,94.4713943 C54.8305494,87.7847289 56.1979012,85.2305259 59.77542,82.2485319 C59.9300373,82.1196527 60.0910106,81.9869461 60.3052243,81.8114215 C60.3169897,81.8017811 60.7327767,81.4615233 60.8554798,81.3607681 C61.3176233,80.9812885 61.6634037,80.6916266 62.0104192,80.3903028 C63.2102627,79.3485092 64.3136269,78.0248381 65.3261821,76.4849751 C66.2079825,75.1439602 66.9737268,73.7131752 67.6225474,72.2828311 C67.8496452,71.7821875 68.0462254,71.3166166 68.211914,70.8975126 C68.3126568,70.642687 68.3815568,70.4574875 68.4181723,70.3533587 L68.556543,69.9598536 L68.3742711,69.5846608 L34.636873,0.138792576 L33.9593302,-1.25587777 L32.9683117,-0.063379566 C32.904055,0.0139407882 32.7817637,0.162745927 32.6053024,0.380006884 C32.3126014,0.740383535 31.9734698,1.16314717 31.5917721,1.64527039 C30.5027352,3.02083508 29.2898793,4.59742633 27.9841111,6.35085164 C24.2542415,11.3594345 20.5245706,16.7840561 17.0421913,22.4320584 C12.2235171,30.247371 8.27144755,37.8604367 5.48652706,45.0423949 C5.19528873,45.7934618 4.91746526,46.5383974 4.65331394,47.2770147 C3.33017673,50.976758 2.37634808,54.944219 1.76281744,59.1415741 C0.243234658,69.5375153 0.846492593,80.6385348 2.7727593,91.3662949 C3.17829759,93.6248178 3.61299557,95.6820951 4.04807676,97.4985444 C4.19565803,98.1146913 4.33323183,98.6605967 4.4575505,99.131781 Z"/>
            </g>
            <path fill="#2273C6" d="M5.5355295,99.3812123 C5.5355295,99.3812123 5.67666033,97.5163834 10.3990016,96.1805052 C21.3020158,93.0962091 36.5524583,93.856201 50.5428871,101.071201 C54.4980736,103.110929 54.9652193,105.591587 54.9652193,105.591587 L53.71874,100.002261 C53.71874,100.002261 51.1535225,96.8764113 49.564755,96.1805052 C37.2028829,90.7658033 29.1016415,86.8304025 10.1050425,92.448296 C6.49178402,93.5168505 4.38278451,95.3847083 4.38278451,95.3847083 L5.5355295,99.3812123 Z"/>
            <path fill="#CAECF7" d="M2.35871664,109.759648 C2.35871664,109.759648 5.00855579,111.676117 8.39440375,111.03829 C11.7802517,110.400464 12.6184932,108.482601 12.6184932,108.482601 C12.6184932,108.482601 13.6266021,118.091239 20.3568426,117.129186 C27.087083,116.167133 28.4287689,112.647392 28.4287689,112.647392 C28.4287689,112.647392 29.5089619,117.129186 35.9729426,117.129186 C42.4369234,117.129186 43.1451099,112.93589 43.1451099,112.93589 C43.1451099,112.93589 49.7165701,119.129013 54.2287438,115.888202 C58.7409174,112.647392 56.7415053,110.376268 55.4851245,102.727876 C54.2287438,95.0794842 53.1809419,87.9987501 57.4089575,84.2635117 C61.6369732,80.5282733 62.3780415,80.0249991 65.7633987,75.7343897 C69.1487559,71.4437804 68.7762586,62.5824188 68.7762586,62.5824188 L37.4158174,0.86251922 C37.4158174,0.86251922 31.0176003,40.5110917 36.4195467,62.3873017 C41.8214931,84.2635117 50.747197,105.048556 44.8857498,112.059744 C42.4778882,114.939916 40.9265157,104.66582 40.9265157,104.66582 C40.9265157,104.66582 36.9571911,112.910643 31.8541374,113.526074 C27.9820497,113.99305 27.087083,105.339594 27.087083,105.339594 C27.087083,105.339594 23.1501318,113.009453 16.3882491,113.526074 C12.8878335,113.793512 12.4427962,102.410873 12.4427962,102.410873 C12.4427962,102.410873 11.7588819,105.016156 8.3728097,107.667238 C4.9867375,110.318319 2.35871664,109.759648 2.35871664,109.759648 Z" opacity=".713" style="mix-blend-mode:multiply"/>
          </g>
          <g transform="translate(26.847)">
            <g stroke-linecap="round" stroke-linejoin="round">
              <use fill="#FFFFFF" xlink:href="#e"/>
              <path stroke="#8EA6BB" stroke-width="1.779" d="M65.7776827,25.0334142 L65.8398246,24.9921958 C45.8430958,32.3008268 30.9563964,43.0143581 20.96624,58.3609097 C19.6071093,59.7665171 18.0080092,61.8364597 16.0623162,64.6330856 C15.5830463,65.3219604 15.0833491,66.0539912 14.5454833,66.8535601 C13.7757779,67.9977722 10.7527339,72.5831433 10.0862351,73.5654143 C9.69005373,74.1492216 9.28431485,74.7664245 8.8696774,75.4152496 C7.97016749,76.8228036 7.03473015,78.3696809 6.0718699,80.0334897 C4.43436276,82.8630787 2.79579207,85.8921939 1.23366139,88.9209783 C0.687032813,89.9808256 0.188915647,90.9650962 -0.250925237,91.8487069 C-0.405007085,92.1582469 -0.540845424,92.4331922 -0.65721796,92.670405 C-0.727270456,92.8131995 -0.775108235,92.9113617 -0.800405911,92.9635946 L-1.72067634,94.8638484 L0.281849595,94.1947057 L8.25357173,91.5309602 C7.98424334,92.817139 7.74268847,94.1107901 7.52917325,95.4111545 L1.58228822,109.88898 L0.84411005,111.686091 L2.68677121,111.070367 L6.32619003,109.854258 C6.32568786,109.97841 6.32543678,110.10262 6.32543678,110.226883 C6.32543678,158.819065 45.1993335,193.105114 96.7980949,193.105114 C148.396695,193.105114 187.270753,158.818989 187.270753,110.226883 C187.270753,71.4889769 162.764895,37.3758166 126.888129,24.6800064 C124.967786,23.8789758 111.964576,23.4645312 95.8278187,23.5169741 C79.3543081,23.5705114 67.9137644,24.0243717 65.7776827,25.0334142 Z"/>
            </g>
            <path fill="#E6F9FF" d="M95.3413372,0 C95.3413372,0 102.128947,7.46582922 102.400951,16.0682931 C102.672956,24.670757 93.3487216,27.9515863 92.117589,27.2943412 C90.8864565,26.6370961 88.5017837,17.7144814 87.6816753,15.8779187 C86.8615669,14.0413559 84.4891796,11.3432514 84.4891796,11.3432514 C84.4891796,11.3432514 86.9311845,26.5818401 83.9022794,29.7094201 C80.8733743,32.8370001 86.1890995,34.0124867 93.8545809,32.9740611 C101.520062,31.9356354 111.324723,25.246413 116.820419,26.2703771 C122.316116,27.2943412 126.966917,29.0187192 126.966917,29.0187192 C126.966917,29.0187192 114.328841,23.315904 112.050643,19.5969114 C109.772444,15.8779187 107.661715,7.26660518 104.346365,4.87656422 C101.031015,2.48652325 95.3413372,0 95.3413372,0 Z" style="mix-blend-mode:multiply" filter="url(#f)"/>
            <path fill="#D8F1F9" d="M13.2025298,145.640363 C13.2025298,145.640363 37.7088874,197.614578 91.9097014,197.614578 C146.110515,197.614578 172.011335,159.345588 178.954472,138.765548 C185.89761,118.185507 185.423843,100.483703 175.591427,69.1152382 C165.759011,37.7467732 123.604248,23.0412349 123.604248,23.0412349 C123.604248,23.0412349 157.655727,50.6484125 163.020628,86.7340106 C163.255339,88.3127378 168.743357,94.8261259 168.863002,96.435707 C168.982646,98.0452881 163.695415,93.8325596 163.717415,95.0008873 C163.783493,98.509916 169.442089,109.8277 168.863002,113.445705 C168.283914,117.063711 162.15574,110.048093 161.547777,112.243988 C158.378059,123.692655 151.504317,135.501028 139.331913,147.182902 C115.550675,170.005792 91.7270908,175.355063 71.2907892,173.179409 C70.0604084,173.048422 71.0180974,180.762238 69.813021,180.578871 C68.6079445,180.395504 63.2455674,171.946797 61.1205887,171.452779 C32.841025,164.878309 13.2025298,145.640363 13.2025298,145.640363 Z" style="mix-blend-mode:multiply"/>
          </g>
          <g transform="translate(56.815 56.272)">
            <g stroke-linecap="round" stroke-linejoin="round">
              <use fill="#C6F1FF" xlink:href="#g"/>
              <path stroke="#297BCC" stroke-width="2.4" d="M63.7924661,13.5103819 C62.0021852,12.7381384 60.2299658,11.9394276 58.5584119,11.1404784 C57.2744881,10.5268039 56.0912148,9.93222045 55.030163,9.36386585 C53.7663264,8.68688916 52.6939608,8.05671418 51.8429411,7.48519974 C49.7056943,6.05000908 47.8316591,4.09199605 46.2498038,1.86745111 L45.8276706,1.27380998 L45.1062155,1.3743529 C18.9095152,5.0251594 0.673033798,15.6035657 0.673033798,28.1641493 C0.673033798,43.9599261 29.4303404,56.2793224 64.7016109,56.2793224 C99.9727179,56.2793224 128.730188,43.9598899 128.730188,28.1641493 C128.730188,12.4824324 100.376851,0.212329149 65.3980767,0.0504958109 L64.7603943,0.0475454994 L64.401113,0.574389457 C62.9842069,2.65211619 62.0874301,4.89291692 61.999385,7.23083864 C61.9196764,9.34345968 62.5971156,11.458479 63.7924661,13.5103819 Z"/>
            </g>
            <path fill="#5588BB" d="M24.4941788,49.7918393 C24.4941788,49.7918393 -7.15008935,41.2577958 2.36993572,22.6431488 C11.8899608,4.0285017 44.8145947,2.02109988 44.8145947,2.02109988 C44.8145947,2.02109988 50.0526491,8.98249198 52.22176,8.90777786 C52.8441616,8.8863395 64.5202111,13.986572 64.5202111,13.986572 C64.5202111,13.986572 62.9992798,11.8924189 63.0474319,7.78094025 C63.0955839,3.66946164 63.5211577,7.6189485 63.5341468,7.46610802 C63.793784,4.41102148 63.3853306,1.91705444 65.4977293,1.05584442 C71.0597278,-1.2117431 72.8380306,1.05584442 72.8380306,1.05584442 C72.8380306,1.05584442 69.8822378,6.01300378 72.7715165,11.4235761 C75.6607952,16.8341484 77.956268,16.6899016 76.8432296,17.9189382 C75.7301913,19.1479747 72.3066716,19.8870786 65.4977293,15.7970131 C58.688787,11.7069476 48.0895944,6.34605034 48.0895944,6.34605034 C48.0895944,6.34605034 21.2298916,11.4044432 15.2981847,22.0226659 C4.18958918,41.907927 24.4941788,49.7918393 24.4941788,49.7918393 Z" opacity=".196" style="mix-blend-mode:multiply" filter="url(#h)"/>
          </g>
          <g transform="translate(81.79 74.404)">
            <path fill="#2279CF" d="M9.61968645,0 C14.9288014,0 19.2393729,4.32087246 19.2393729,9.64323506 C19.2393729,14.9653465 14.9288014,19.2864701 9.61968645,19.2864701 C4.31032097,19.2864701 0,14.9653465 0,9.64323506 C0,4.32087246 4.31032097,0 9.61968645,0 Z"/>
            <path fill="#297BCC" d="M13.632576,0.877829492 C16.9404526,2.40362957 19.2393729,5.75637422 19.2393729,9.64323506 C19.2393729,14.9653465 14.9288014,19.2864701 9.61968645,19.2864701 C8.45075588,19.2864701 7.34790283,18.9668738 6.29350955,18.6935397 C5.58238501,18.5091923 13.0549982,17.4596884 14.9662938,12.4427295 C17.5803447,5.58110831 13.632576,0.877829492 13.632576,0.877829492 Z" opacity=".692" style="mix-blend-mode:multiply"/>
            <path fill="#FFFFFF" d="M7.30722162,3.12620742 C9.96165385,3.12620742 12.1170648,5.28664365 12.1170648,7.94782495 C12.1170648,10.6090062 9.96165385,12.7694425 7.30722162,12.7694425 C4.65253888,12.7694425 2.4973784,10.6090062 2.4973784,7.94782495 C2.4973784,5.28664365 4.65253888,3.12620742 7.30722162,3.12620742 Z"/>
            <g transform="translate(60.561)">
              <path fill="#2279CF" d="M9.61968645,0 C14.9288014,0 19.2393729,4.32087246 19.2393729,9.64323506 C19.2393729,14.9653465 14.9288014,19.2864701 9.61968645,19.2864701 C4.31032097,19.2864701 0,14.9653465 0,9.64323506 C0,4.32087246 4.31032097,0 9.61968645,0 Z"/>
              <path fill="#297BCC" d="M13.6300511,0.875353342 C16.9379277,2.40115342 19.2368481,5.75389807 19.2368481,9.64075891 C19.2368481,14.9628704 14.9262766,19.283994 9.6171616,19.283994 C8.44823103,19.283994 7.34537798,18.9643977 6.2909847,18.6910635 C5.57986016,18.5067162 13.0524733,17.4572122 14.9637689,12.4402534 C17.5778199,5.57863216 13.6300511,0.875353342 13.6300511,0.875353342 Z" opacity=".692" style="mix-blend-mode:multiply"/>
              <path fill="#FFFFFF" d="M7.30722162,3.12620742 C9.96165385,3.12620742 12.1170648,5.28664365 12.1170648,7.94782495 C12.1170648,10.6090062 9.96165385,12.7694425 7.30722162,12.7694425 C4.65253888,12.7694425 2.4973784,10.6090062 2.4973784,7.94782495 C2.4973784,5.28664365 4.65253888,3.12620742 7.30722162,3.12620742 Z"/>
            </g>
          </g>
          <g transform="translate(66.805 118.796)">
            <mask id="j" fill="white">
              <use xlink:href="#i"/>
            </mask>
            <use fill="#297BCC" xlink:href="#i"/>
            <g transform="translate(36.836 16.256)" mask="url(#j)">
              <mask id="l" fill="white">
                <use xlink:href="#k"/>
              </mask>
              <use fill="#82C2DC" xlink:href="#k"/>
              <path fill="#2268AC" d="M21.9550498,17.0807411 C21.9550498,17.0807411 33.8468263,14.9927556 35.2287704,9.93446986 C36.6107146,4.87618412 34.2219192,0.411176466 34.2219192,0.411176466 C34.2219192,0.411176466 42.4414287,1.45277989 46.1465198,3.6739887 C49.8516109,5.89519751 53.8067158,9.27124955 53.8067158,9.27124955 C53.8067158,9.27124955 44.2382309,13.9033656 38.7627995,15.4920533 C33.2873681,17.0807411 21.9550498,17.0807411 21.9550498,17.0807411 Z" opacity=".165" style="mix-blend-mode:multiply" mask="url(#l)"/>
            </g>
            <path fill="#297BCC" d="M36.087568,31.2460855 C36.087568,31.2460855 26.3261241,22.5331736 50.3841214,14.7731618 C59.6907092,11.7712814 84.604402,14.0621189 85.4486859,14.2440996 C95.4818197,16.4066859 102.506481,19.5429666 102.506481,19.5429666 C102.506481,19.5429666 121.330864,5.08981033 115.68496,0.850517118 C110.039056,-3.38877609 68.4173404,6.81816701 61.4210112,6.81816701 C54.424682,6.81816701 1.12394835,-1.44810358 -0.292635611,2.98264473 C-1.70921958,7.41339303 5.2690833,17.3302718 16.4718691,22.5331736 C27.6746548,27.7360754 36.087568,31.2460855 36.087568,31.2460855 Z" opacity=".522" style="mix-blend-mode:multiply" mask="url(#j)"/>
          </g>
        </g>
        <path fill="#FFFFFF" stroke="#2279CF" stroke-width="2" d="M124.556748,204.453965 C68.1793314,204.453965 22.4764056,158.685386 22.4764056,102.226983 C22.4764056,45.7685791 68.1793314,0 124.556748,0 C180.934164,0 226.63709,45.7685791 226.63709,102.226983 C226.63709,158.685386 180.934164,204.453965 124.556748,204.453965 Z M124.86892,191.949136 C173.14316,191.949136 212.277164,149.780913 212.277164,114.731812 C212.277164,79.6827116 173.14316,51.2698017 124.86892,51.2698017 C76.5946798,51.2698017 37.460676,79.6827116 37.460676,114.731812 C37.460676,149.780913 76.5946798,191.949136 124.86892,191.949136 Z"/>
        <g fill="#2273C6" transform="translate(112.382 11.254)">
          <path d="M10.8430298,3.33755544 L10.841333,3.33404592 L3.61434328,7.62092706 C3.29363395,7.79815792 3.02892148,8.07190064 2.85414338,8.40179571 L0.261318716,6.93832503 C0.483609312,6.48910621 0.836559267,6.11885164 1.26756546,5.88020414 L10.5579549,0.368499812 L10.5613486,0.373764095 C10.9295705,0.136871359 11.3656673,0 11.8323078,0 C12.2701015,0 12.6790484,0.12107851 13.0319983,0.32989507 L22.373294,5.87318509 C22.8653877,6.14166353 23.2556689,6.58035378 23.4694751,7.11204637 L20.8630754,8.53340278 C20.6933879,8.14033632 20.3964349,7.81570553 20.028213,7.61566278 L12.7638921,3.30421498 C12.4889984,3.1410222 12.1716828,3.04801987 11.830611,3.04801987 C11.4674798,3.04801987 11.1298017,3.15330553 10.8430298,3.33755544 Z M23.6510407,7.94731261 C23.6510407,7.98416259 23.6544344,8.02101257 23.6544344,8.05786255 L23.6544344,19.3234282 C23.6544344,20.2920563 23.1097376,21.1308321 22.318994,21.5361819 L13.1032671,27.0338481 C12.8453421,27.2005504 12.5551765,27.3181194 12.2463453,27.3742717 L12.2463453,24.3174781 C12.4516671,24.2683447 12.6451109,24.1841162 12.819889,24.0718115 L19.9857912,19.7954589 C20.6017567,19.4813567 21.0242785,18.8285856 21.0242785,18.0740384 L21.0242785,9.37919759 L23.6510407,7.94731261 Z M0.0322406208,7.94731261 L2.71499965,9.37919759 L2.71499965,18.0740384 C2.71499965,18.8285856 3.13752147,19.4813567 3.75348701,19.7954589 L3.69579327,19.7954589 L10.8633923,24.0718115 L10.7955174,24.0718115 C10.9702955,24.1841162 11.1637392,24.2683447 11.369061,24.3174781 L11.369061,27.3742717 C11.0585329,27.3181194 10.7683674,27.2005504 10.5121393,27.0338481 L10.5800143,27.0356029 L1.36259045,21.5361819 L1.33544045,21.5361819 C0.54299993,21.1308321 0,20.2920563 0,19.3234282 L0,8.05786255 C0,8.02101257 0.030543746,7.98416259 0.0322406208,7.94731261 Z"/>
          <path d="M15.2301409,20.548319 L18.5718359,18.5662016 L18.5718359,10.6145135 L11.8688734,14.9357582 L5.16591097,10.6145135 L5.16591097,18.5662016 L8.71337184,20.6703684 L8.71337171,16.7439398 L11.9717562,18.8445448 L15.2301408,16.7439398 L15.2301409,20.548319 Z"/>
        </g>
        <path fill="#4FAEE5" stroke="#8EA6BB" stroke-width="1.339" d="M124.86892,191.949136 C173.14316,191.949136 212.277164,149.780913 212.277164,114.731812 C212.277164,79.6827116 173.14316,51.2698017 124.86892,51.2698017 C76.5946798,51.2698017 37.460676,79.6827116 37.460676,114.731812 C37.460676,149.780913 76.5946798,191.949136 124.86892,191.949136 Z" opacity=".4" style="mix-blend-mode:multiply"/>
        <path fill="#FFFFFF" d="M70.8319083,66.0677546 C70.8319083,66.0677546 63.6630244,79.1362758 66.0114997,112.159628 C68.3599751,145.182981 76.011971,153.809405 76.011971,153.809405 C76.011971,153.809405 71.2044907,122.216595 80.3758426,98.60268 C89.5471945,74.9887648 100.040097,55.1799645 100.040097,55.1799645 C100.040097,55.1799645 94.5020282,55.8369688 83.6099957,59.2399866 C72.7179633,62.6430044 70.8319083,66.0677546 70.8319083,66.0677546 Z" opacity=".8"/>
        <path fill="#8EA6BB" d="M47.0129003,146.522854 C61.4882586,171.092027 90.9181323,191.949136 124.86892,191.949136 C173.14316,191.949136 212.277164,149.780913 212.277164,114.731812 C212.277164,79.6827116 173.14316,51.2698017 124.86892,51.2698017 C122.18552,51.2698017 119.530361,51.3575938 116.908597,51.5294379 C117.86458,51.639196 118.823116,51.761508 119.783896,51.8965368 C164.003002,58.1111268 196.229277,88.9094825 191.763296,120.686589 C187.297315,152.463696 146.077542,185.657402 101.858436,179.442812 C78.8680583,176.211725 59.5933251,162.964078 47.0129003,146.522854 Z" opacity=".548" style="mix-blend-mode:multiply"/>
      </g>
    </g>
  </g>
</svg>
