<svg xmlns="http://www.w3.org/2000/svg" width="376" height="476" viewBox="0 0 376 476" xmlns:xlink="http://www.w3.org/1999/xlink">
  <defs>
    <rect id="a" width="376" height="476"/>
    <path id="c" d="M108.567857,57.0247169 C112.035913,57.3124947 114.847328,54.7312766 114.847328,51.2503231 L114.847328,6.29546153 C114.847328,2.81857413 117.661047,0.116630999 121.138522,0.256794001 C121.138522,0.256794001 153.673993,1.64927607 169.500386,1.64927607 C185.32678,1.64927607 202.252518,0.407686318 202.252518,0.407686318 C205.717663,0.182527382 208.764673,2.8097993 209.058112,6.27475775 L210.465324,22.8912742 C210.758805,26.3567272 213.805859,28.9354016 217.2801,28.6550482 C217.2801,28.6550482 243.937148,26.4211736 256.760407,25.9721397 C269.583667,25.5231057 295.899191,25.8983231 295.899191,25.8983231 C299.382405,25.9390909 302.11071,28.7815688 301.979092,32.2593966 C301.979092,32.2593966 301.340701,54.2097617 299.707075,64.9157536 C298.073448,75.6217456 301.456899,101.044996 301.456899,101.044996 C301.870675,104.493648 299.395458,107.350721 295.913416,107.41903 C295.913416,107.41903 212.41384,109.446438 169.500386,105.177803 C126.586932,100.909168 27.9103015,106.624563 27.9103015,106.624563 C24.4353364,106.813191 21.4605081,104.154076 21.2971149,100.675241 C21.2971149,100.675241 20.3586567,86.9986283 21.6183206,82.5469115 C22.8779846,78.0951947 21.9021413,61.1670837 21.9021413,61.1670837 C21.7453914,57.6969799 24.4449615,54.8590403 27.9177339,54.8314067 C27.9177339,54.8314067 61.7042352,54.50127 75.1055497,54.883905 C88.5068642,55.2665401 108.567857,57.0247169 108.567857,57.0247169 Z"/>
    <path id="d" d="M0.257877191,0.399744864 C0.257877191,0.399744864 3.26377708,12.815736 3.87357503,23.4058573 C4.48337297,33.9959787 0.49564068,46.7416727 12.9116654,50.9543305 C32.3855724,57.4779868 39.6496701,36.6947726 56.6082086,37.6911912 C73.5667471,38.6876098 74.4820211,54.4079403 94.1413682,51.3855989 C109.778997,48.9815387 101.033816,36.3481421 101.033816,27.900513 C101.033816,19.452884 103.389137,2.1929136 103.389137,2.1929136 L0.257877191,0.399744864 Z"/>
    <path id="e" d="M92.0634604,75.1269169 C92.0634604,75.1269169 86.361522,80.8248297 79.9651711,89.0601797 C73.5685974,97.2955298 64.8420867,110.124589 64.8420867,110.124589 L75.1256771,106.708697 C75.1256771,106.708697 72.597846,110.164742 70.286406,112.971203 C67.974966,115.777665 66.6567855,118.664209 66.6567855,118.664209 L73.3109783,118.09493 C73.3109783,118.09493 68.5653058,126.856506 66.6567855,136.312726 C64.7484881,145.769169 68.5104339,166.21237 68.5104339,166.21237 C68.5104339,166.21237 93.7650954,179.65153 100.122001,177.019734 C106.47913,174.387938 104.18252,161.869463 105.034267,152.987429 C105.886014,144.105395 111.542446,143.908753 115.050388,140.867175 C118.558553,137.825596 120.494708,132.327555 120.494708,132.327555 L92.0634604,75.1269169 Z"/>
    <path id="f" d="M257.403157,106.080003 C257.403157,106.080003 268.749091,116.793453 273.780463,125.902351 C280.528923,138.120194 287.988286,159.667553 286.553776,157.647865 C284.342398,157.346495 280.531374,155.357814 278.295259,155.476488 C278.295259,155.476488 280.901534,157.809592 282.809832,167.265811 C284.718352,176.722254 284.019705,189.468777 284.019705,189.468777 C284.019705,189.468777 293.370429,196.548618 286.439452,198.577898 C279.508921,200.606956 277.365735,196.86984 277.365735,196.86984 C277.365735,196.86984 277.630708,205.321347 270.711542,204.840182 C263.792376,204.359017 264.05735,199.147176 264.05735,199.147176 C264.05735,199.147176 263.534312,205.375776 257.403157,204.840182 C251.272225,204.304587 251.354012,199.716455 251.354012,199.716455 C251.354012,199.716455 248.032376,206.333422 241.675247,203.701625 C235.318341,201.069829 242.526994,193.796363 241.675247,184.914329 C240.823723,176.032295 237.924394,174.861839 234.416229,171.82026 C230.908287,168.778682 228.97191,163.280641 228.97191,163.280641 L257.403157,106.080003 Z"/>
    <path id="g" d="M58.842105,26.2745229 C60.3441399,24.6641704 64.6458876,19.9355029 68.4606996,17.1919477 C73.0655285,13.8800066 76.4834379,11.838234 76.4834379,11.838234 L80.2273824,18.7980618 C80.2273824,18.7980618 85.2068286,15.4742979 86.1107237,11.3028626 C87.0146189,7.13120434 86.1107237,1.66617805 86.1107237,1.66617805 C86.1107237,1.66617805 91.4614444,2.67223008 94.6683112,7.55526308 C97.8749551,12.438073 98.1838305,18.5410835 103.760748,21.4749186 C106.47689,22.9036909 109.846218,24.6130871 112.587988,25.990553 C143.572918,36.9268516 165.803257,66.5079041 165.803257,101.245252 C165.803257,145.27174 130.094049,181.015586 86.1107237,181.015586 C42.1271756,181.015586 6.41819059,145.27174 6.41819059,101.245252 C6.41819059,100.766987 6.42242481,100.289614 6.43089326,99.8133568 L2.13939686,101.245252 L7.46404366,88.301311 C7.73102256,86.6661976 8.04769787,85.0478146 8.4125096,83.4479465 L0,86.2548539 C0,86.2548539 5.02357126,75.8969795 9.62728588,69.1229702 C12.2839265,65.2134208 16.3276094,58.6823363 19.2726229,55.6686416 C28.6260214,41.2852207 42.4861932,32.2436906 58.842105,26.2745229 Z"/>
    <path id="h" d="M58.1726081,1.11078537 C88.737458,1.25198957 113.44972,11.9101181 113.44972,25.0177937 C113.44972,38.2131364 88.4054058,48.9261405 57.5579772,48.9261405 C26.7103259,48.9261405 1.6662342,38.2131364 1.6662342,25.0177937 C1.6662342,14.4022718 17.874394,5.39353323 40.2734334,2.27655652 C41.4445304,3.9210389 43.2077499,5.98088023 45.5238699,7.53390333 C50.0616198,10.5768203 59.9647987,14.4937311 59.9647987,14.4937311 C59.9647987,14.4937311 56.0621823,10.6624798 56.2208542,6.4631606 C56.3006359,4.34777449 57.2499932,2.46170578 58.1726081,1.11078537 Z"/>
    <path id="i" d="M80.3245012,4.8558743 C94.7012481,0.929817613 102.787723,-3.32526939 102.691227,3.97295769 C102.606988,10.3251389 79.6840192,30.4738403 51.3457021,30.4738403 C23.0071621,30.4738403 -0.0738100916,11.3961048 0.000177383224,5.04370042 C0.072827735,-1.21702157 8.23774672,2.37911252 22.7729427,5.64933928 C24.7498791,9.46720633 27.3708631,13.7979145 28.7632539,13.877328 C30.077423,13.9520569 33.3638486,10.844003 36.0443346,8.04468 C40.7469963,8.65901864 45.8579263,9.05898567 51.3457021,9.05898567 C56.7608276,9.05898567 61.8164898,8.59098186 66.4785921,7.86778438 C69.1884948,10.7112755 72.586793,13.9536184 73.928596,13.877328 C75.4185967,13.7925608 78.3152509,8.83926034 80.3245012,4.8558743 Z"/>
    <path id="k" d="M0,12.612011 C2.79213576,5.37379009 13.0160014,0 25.1862724,0 C34.7687647,0 43.1445034,3.33134833 47.6361225,8.28107968 C39.3515311,12.2832037 29.2954744,15.2368922 18.4453895,15.2368922 C11.9487543,15.2368922 5.72845795,14.2341862 0,12.612011 Z"/>
    <ellipse id="m" cx="40.534" cy="40.488" rx="40.534" ry="40.488"/>
  </defs>
  <g fill="none" fill-rule="evenodd" transform="translate(-7)">
    <mask id="b" fill="white">
      <use xlink:href="#a"/>
    </mask>
    <g transform="translate(11 68)" mask="url(#b)">
      <g transform="translate(18.916 209.639)">
        <path fill="#C8EAFA" d="M175.7767,127.996889 C272.510911,127.996889 334.219828,116.052961 334.219828,107.00637 C334.219828,97.9597789 272.510911,95.2362837 175.7767,95.2362837 C79.0424886,95.2362837 0.623916176,102.569995 0.623916176,111.616586 C0.623916176,120.663178 79.0424886,127.996889 175.7767,127.996889 Z" transform="rotate(1 167.422 111.617)"/>
        <use fill="#ECFAFE" xlink:href="#c"/>
        <path stroke="#81BFF1" stroke-width="2.7" d="M108.456219,58.370093 C112.712137,58.7232473 116.197328,55.5199399 116.197328,51.2503231 L116.197328,6.29546153 C116.197328,3.58524882 118.373206,1.49643139 121.084153,1.60569875 C121.144787,1.60829795 121.144787,1.60829795 121.450968,1.62123653 C121.872234,1.63893513 122.108566,1.64880161 122.51165,1.66547391 C123.663116,1.71310056 124.972603,1.76616669 126.416073,1.82331263 C130.540121,1.98658077 134.911546,2.14984732 139.338109,2.30223577 C142.851412,2.42318441 146.256937,2.53225223 149.503686,2.62655091 C157.745876,2.86593728 164.569979,2.99927607 169.500386,2.99927607 C170.455012,2.99927607 171.427349,2.9947799 172.416386,2.98593017 C178.598728,2.93061169 185.212585,2.71001007 191.878746,2.37679782 C194.601815,2.24068352 197.14769,2.09484136 199.446089,1.94897416 C200.250912,1.89789635 200.967459,1.85045263 201.58694,1.80785556 C201.959321,1.78224968 202.217033,1.7639166 202.351282,1.75406875 C205.07083,1.57740441 207.48148,3.65572722 207.712927,6.38867818 L209.120139,23.0051946 C209.476448,27.2125283 213.174397,30.3407456 217.388685,30.0006742 C217.456631,29.9949867 217.456631,29.9949867 217.7642,29.9694217 C218.068546,29.9441793 218.423652,29.9148928 218.826123,29.8818993 C219.976281,29.7876121 221.275146,29.6825408 222.695539,29.5693826 C226.753856,29.2460694 230.972317,28.9227567 235.133357,28.6210273 C236.967346,28.4880392 238.753082,28.3619978 240.479643,28.2439856 C247.239679,27.78193 252.819016,27.4609834 256.807651,27.3213127 C260.767367,27.1826548 266.263084,27.1136367 272.901259,27.102918 C278.156039,27.0944331 283.789193,27.1226206 289.379747,27.1748296 C291.098563,27.1908812 292.685944,27.208079 294.103788,27.2252755 C294.599941,27.2312931 295.03943,27.2368803 295.417493,27.2418936 C295.800117,27.2470476 295.800117,27.2470476 295.879944,27.2481859 C298.612987,27.280178 300.732741,29.4950747 300.630058,32.2083426 C300.627532,32.2934229 300.62314,32.4380533 300.616485,32.6477367 C300.605372,32.9978899 300.591878,33.4042613 300.575955,33.8621593 C300.530438,35.1711167 300.4746,36.6299457 300.408045,38.2010931 C300.217923,42.6892068 299.980148,47.176927 299.691668,51.3628444 C299.31177,56.875256 298.872227,61.4372918 298.372522,64.7121143 C297.810614,68.3945852 297.782186,73.8795452 298.171641,80.7250903 C298.364776,84.1198622 298.654682,87.7274647 299.015547,91.426209 C299.25664,93.8973398 299.51493,96.2620831 299.773266,98.4387979 C299.863733,99.2010615 299.947771,99.8855777 300.023237,100.482123 C300.068635,100.840982 300.10117,101.091381 300.118698,101.223091 C300.435585,103.865151 298.5666,106.016722 295.886938,106.069289 C295.726735,106.073165 295.425024,106.080191 294.982519,106.090038 C294.244465,106.106461 293.379627,106.124765 292.395012,106.144479 C289.581207,106.200818 286.372351,106.257161 282.824503,106.309751 C262.231628,106.614999 240.576815,106.662307 220.317945,106.287167 C199.739717,105.906113 182.479191,105.112153 169.634012,103.834433 C155.474481,102.425973 134.485664,102.000724 108.457638,102.369981 C92.9779533,102.58959 76.4377949,103.080355 59.6379395,103.760708 C51.4500146,104.0923 43.7327903,104.447576 36.7190136,104.802867 C34.2639321,104.927231 32.0720375,105.042721 30.1724288,105.146376 C29.507381,105.182666 28.9263201,105.214887 28.4328838,105.24267 C28.136555,105.259355 27.9354695,105.270843 27.8322397,105.276822 C25.102377,105.424996 22.7734808,103.334035 22.6456283,100.611904 C22.6337375,100.434023 22.6156393,100.151468 22.5922782,99.7543877 C22.5532303,99.0906711 22.5141577,98.3507626 22.4776823,97.5539371 C22.3740414,95.2898432 22.3116596,93.0270579 22.3110781,90.9196398 C22.3100514,87.1985683 22.5061855,84.3674421 22.9173183,82.9144777 C23.4433363,81.0555034 23.6402656,77.4157074 23.6096484,72.3797773 C23.5953433,70.0268865 23.5304945,67.5111635 23.4313241,64.978561 C23.3917062,63.966805 23.3492548,63.0217683 23.3067875,62.1691358 C23.2919087,61.8704069 23.2780836,61.6044494 23.2656644,61.3744787 C23.252853,61.1405732 23.252853,61.1405732 23.2499037,61.0893901 C23.1286533,58.4028498 25.2186346,56.2029267 27.9284758,56.181364 C28.0363107,56.1803125 28.0363107,56.1803125 28.5380124,56.1756645 C29.0331287,56.1711446 29.6071911,56.1661077 30.253486,56.160683 C32.1002045,56.1451827 34.1553056,56.1296818 36.365075,56.1152142 C42.4542664,56.0753475 48.5313344,56.0508148 54.2035463,56.0491664 C63.3170373,56.0465179 70.5150577,56.1033872 75.0670201,56.2333551 C78.1841964,56.3223569 81.8218423,56.4904529 85.8748914,56.7255548 C88.5460315,56.8804975 91.3524688,57.0619473 94.2483832,57.2645524 C97.7040161,57.5063166 101.108093,57.7653772 104.312892,58.0244303 C105.434454,58.1150893 106.450901,58.1992638 107.343786,58.2747911 C107.656143,58.3012128 107.930698,58.3246622 108.165143,58.3448689 C108.401597,58.3653201 108.401597,58.3653201 108.449993,58.3695619 L108.456219,58.370093 Z"/>
        <path fill="#81BFF1" d="M150.427481 39.7683377C156.672805 38.3287527 161.566903 35.2696804 165.109924 30.591029L169.793893 30.591029 169.793893 78.007124 161.867176 78.007124 161.867176 42.0176781C159.224923 44.0570902 155.41173 45.3766901 150.427481 45.9765172L150.427481 39.7683377zM253.150534 52.9764644L243.782595 51.4649077C245.51207 44.7468442 250.171972 41.3878628 257.762443 41.3878628 261.701801 41.3878628 264.836426 42.455539 267.166412 44.5909235 269.496398 46.726308 270.661374 49.545453 270.661374 53.0484433 270.661374 55.543724 269.988811 57.7390582 268.643664 59.6345119 267.298517 61.5299655 264.704345 63.9892197 260.861069 67.0123483 258.122734 69.1717258 256.465346 70.7792383 255.888855 71.834934L271.454046 71.834934 271.454046 79.6806332 243.206107 79.6806332C243.206107 76.5135462 244.154901 73.4664702 246.052519 70.539314 247.950137 67.6121577 250.352148 64.9969508 253.258626 62.6936148 256.165104 60.3902787 258.158773 58.542839 259.239695 57.1512401 260.320616 55.7596412 260.861069 54.3440705 260.861069 52.9044855 260.861069 51.8008036 260.512777 50.9130728 259.816183 50.2412665 259.119589 49.5694601 258.242855 49.233562 257.185954 49.233562 255.072152 49.233562 253.727026 50.4811837 253.150534 52.9764644zM70.8540458 76.6215303L71.5566412 76.6215303C72.4934398 76.6215303 73.2680885 76.3246204 73.8806107 75.7307916 74.4931328 75.1369627 74.7993893 74.3542001 74.7993893 73.3824802 74.7993893 72.6626877 74.5832083 72.0058869 74.1508397 71.412058 73.7184711 70.8182292 73.0879431 70.5213193 72.2592366 70.5213193 70.8540388 70.5213193 69.863209 71.2051119 69.2867176 72.5727177L62.5850382 71.4930343C64.1703896 67.0663103 67.4851656 64.8529815 72.5294656 64.8529815 74.9795542 64.8529815 77.1413647 65.5097824 79.0149618 66.8234037 80.888559 68.137025 81.8253435 70.0354493 81.8253435 72.5187335 81.8253435 75.2179554 80.4922271 77.1973552 77.8259542 78.4569921 79.4833671 78.9968365 80.7984684 79.94155 81.7712977 81.2911609 82.744127 82.6407719 83.2305344 84.1613108 83.2305344 85.8528232 83.2305344 88.3001178 82.230697 90.3065093 80.2309924 91.872058 78.2312877 93.4376068 75.6281076 94.2203694 72.421374 94.2203694 69.647009 94.2203694 67.2419949 93.5275795 65.2062595 92.1419789 63.1705242 90.7563783 61.9184756 88.9299322 61.4500763 86.6625858L68.1517557 85.4209499C68.3319093 86.464649 68.8093091 87.3283871 69.5839695 88.01219 70.3586298 88.6959929 71.3044219 89.0378892 72.421374 89.0378892 73.4662648 89.0378892 74.3399965 88.7139874 75.0425954 88.0661741 75.7451944 87.4183609 76.0964885 86.5546228 76.0964885 85.474934 76.0964885 84.2152971 75.7001566 83.2166 74.9074809 82.4788127 74.1148052 81.7410253 72.9258095 81.3721372 71.340458 81.3721372L70.3135878 81.4261214 70.8540458 76.6215303z"/>
      </g>
      <g transform="translate(.388)">
        <g transform="translate(126.776 158.842)">
          <g stroke-linecap="round" stroke-linejoin="round">
            <use fill="#FFFFFF" xlink:href="#d"/>
            <path stroke="#297BCC" stroke-width="1.667" d="M-0.552058162,0.59582946 C-0.52369487,0.712985183 -0.469879842,0.940630797 -0.394250399,1.26916423 C-0.267826481,1.81834827 -0.126853677,2.44924965 0.0250305658,3.15225891 C0.459243083,5.16204881 0.893540696,7.34527253 1.29882861,9.62488595 C1.8977739,12.9937595 2.3800719,16.276414 2.70348573,19.3596688 C2.85308795,20.7858965 2.96672995,22.1531803 3.04161979,23.4537628 C3.14429467,25.2368771 3.12816077,26.9327627 3.02099616,29.9588342 C3.01085598,30.2436499 3.01085598,30.2436499 3.00059712,30.5287192 C2.76498055,37.0753055 2.87177818,39.8613141 3.82218883,42.9929184 C5.10398384,47.2164345 7.881872,50.1277552 12.643914,51.7434779 C17.8510382,53.4878436 22.4969224,53.4534006 27.0664819,51.9056164 C30.496114,50.7439442 32.9750553,49.2833235 38.3175564,45.6280878 C38.3387698,45.613574 38.3387698,45.613574 38.3599811,45.5990616 C46.6002542,39.961254 50.545733,38.169754 56.5593295,38.5230898 C62.595791,38.8777691 66.0586479,40.6280534 72.1249239,45.3632668 C72.42925,45.6009474 72.6149274,45.7459884 72.7340203,45.8389145 C80.3635894,51.7921343 85.1093513,53.617265 94.2679936,52.2092556 C99.7171368,51.3715284 102.769321,49.2503478 103.851479,45.8605678 C104.668609,43.3009713 104.400871,40.6571683 103.245789,35.7734771 C103.193978,35.5544204 103.145036,35.3491019 103.063133,35.006633 C102.154369,31.2067368 101.86715,29.6637511 101.86715,27.900513 C101.86715,25.317612 102.089384,21.7293789 102.488959,17.3977933 C102.648803,15.6650062 102.834103,13.846335 103.039847,11.9696687 C103.296929,9.62471701 103.572418,7.30949558 103.847897,5.12609242 C103.944302,4.36200175 104.033808,3.66905133 104.114114,3.05998603 C104.162248,2.69492687 104.196583,2.43921394 104.214818,2.30558722 L104.341668,1.37601621 L103.403624,1.3597062 L0.272364375,-0.433462532 L-0.805787206,-0.452208621 L-0.552058162,0.59582946 Z"/>
          </g>
          <path fill="#CEE9F1" d="M2.63782046,7.36428757 C2.63782046,7.36428757 32.0704656,28.5468386 52.0987817,28.5468386 C72.1270978,28.5468386 79.2437217,31.2221099 83.0594374,35.9069334 C86.8751531,40.5917568 84.7081595,52.19466 84.7081595,52.19466 C84.7081595,52.19466 95.3021003,52.8490646 98.6796499,51.3375092 C102.0572,49.8259537 104.619505,47.3691471 104.619505,42.422833 C104.619505,37.4765188 102.0572,28.5468386 102.0572,28.5468386 L104.152442,2.67804249 C104.152442,2.67804249 83.3653988,22.5842309 50.63256,22.5842309 C17.8997213,22.5842309 2.63782046,7.36428757 2.63782046,7.36428757 Z" style="mix-blend-mode:darken"/>
        </g>
        <g stroke-linecap="round" stroke-linejoin="round" transform="scale(1 -1) rotate(45 397.449 0)">
          <use fill="#FFFFFF" xlink:href="#e"/>
          <path stroke="#297BCC" stroke-width="1.667" d="M72.8691792,108.33634 C72.1554201,109.27738 71.4348146,110.209133 70.7364317,111.08822 C70.55003,111.322852 70.3669569,111.5515 70.1875654,111.77364 C70.0016678,112.003836 69.8200816,112.226601 69.6431574,112.441415 C69.5790676,112.51923 69.5153074,112.597601 69.4518777,112.676513 C68.461184,113.909022 67.5856975,115.225648 66.8321115,116.542239 C66.5681808,117.003353 66.3380047,117.432167 66.1426174,117.818114 C66.0239246,118.052566 65.942273,118.222742 65.8987529,118.318042 L65.305953,119.616152 L66.7278192,119.494509 L71.8855628,119.053255 C71.7299292,119.368466 71.566465,119.705895 71.3963854,120.064256 C70.5160467,121.919146 69.6360708,123.956865 68.8145152,126.11641 C67.5219828,129.513969 66.4970815,132.891813 65.8399232,136.147861 C65.2130672,139.254205 65.1370411,143.6303 65.4998806,148.971126 C65.7065036,152.012519 66.048265,155.250062 66.4874835,158.560108 C66.7504402,160.541806 67.0321581,162.428024 67.3139374,164.156706 C67.4126231,164.76213 67.504301,165.304798 67.5866344,165.776939 C67.6361792,166.061053 67.6717006,166.259062 67.6908617,166.363187 L67.7636943,166.758975 L68.1189574,166.948027 C68.1618553,166.970852 68.2423983,167.013433 68.3604395,167.075406 C68.5563687,167.178271 68.7850952,167.297474 69.0445867,167.431654 C69.7851146,167.814574 70.6242684,168.241066 71.5458038,168.70026 C74.1785312,170.012129 76.9452515,171.324 79.7165193,172.549038 C81.4434193,173.312413 83.1199092,174.018415 84.7288276,174.655421 C92.2989916,177.652618 97.7201834,178.916028 100.440768,177.78969 C102.902452,176.770574 104.322904,174.476782 105.01813,170.993961 C105.52327,168.463398 105.6274,166.105295 105.633969,160.679624 C105.634007,160.647927 105.634007,160.647927 105.634045,160.616233 C105.638766,156.699297 105.67785,155.006015 105.863795,153.066977 C106.331509,148.189651 107.937353,146.144128 111.80183,143.935453 C111.993842,143.825712 112.186871,143.716765 112.575479,143.49788 C114.043817,142.669053 114.808122,142.180191 115.596303,141.496794 C116.659441,140.575054 117.637827,139.403038 118.536005,138.039123 C119.31874,136.85051 119.998633,135.582004 120.574722,134.313863 C120.776363,133.869991 120.950893,133.457251 121.097969,133.085772 C121.187326,132.860079 121.248378,132.696216 121.280727,132.604355 L121.397735,132.27209 L121.240944,131.956643 L92.8096966,74.7560045 L92.2939889,73.7184557 L91.4744129,74.5374532 C91.42781,74.5840231 91.3390944,74.6735977 91.2107088,74.8046376 C90.9979692,75.0217756 90.7504515,75.2772941 90.470598,75.5696547 C89.6724088,76.4035165 88.774234,77.3662389 87.7956065,78.4455289 C85.0008429,81.5277646 82.1192701,84.9282294 79.3070323,88.5490069 C78.0248713,90.1997413 76.5947997,92.1044331 75.0422232,94.2228427 C74.6830037,94.7129789 74.3180994,95.213374 73.9479171,95.7233856 C71.7354126,98.7716215 69.4251786,102.03658 67.154755,105.301404 C66.360176,106.443993 65.6272881,107.505009 64.9733175,108.457304 C64.7443619,108.790703 64.5416016,109.086733 64.3671907,109.341997 C64.2624323,109.49532 64.1904809,109.600869 64.15305,109.655897 L62.7683969,111.691509 L65.1047811,110.915434 L72.8691792,108.33634 Z"/>
        </g>
        <path fill="#E6F9FF" d="M76.3967225,93.6771185 C76.3967225,93.6771185 82.1556901,100.45863 87.0273135,101.987377 C91.898937,103.516123 95.5800392,100.286791 93.7012311,103.023304 C93.1933784,103.762999 97.9155032,100.33824 97.6649417,101.987377 C97.5371017,102.82879 97.6009136,114.677844 100.079586,124.158316 C102.558258,133.638789 107.254905,140.023195 107.254905,140.023195 C107.254905,140.023195 110.186784,147.069078 115.101398,152.203901 C120.016012,157.338723 125.801482,164.22557 125.801482,164.22557 C125.801482,164.22557 116.734911,162.891782 104.649376,161.333059 C92.5638414,159.774337 88.9915758,158.715565 88.9915758,158.715565 L96.6788522,151.76194 C96.6788522,151.76194 89.4349203,152.987655 85.253056,152.595778 C81.0711917,152.203901 86.9147181,146.418 86.9147181,146.418 C86.9147181,146.418 81.6456043,146.576156 75.0534943,143.299676 C68.4613844,140.023195 80.9902638,135.40414 80.9902638,126.174815 C80.9902638,116.94549 48.2531455,115.110872 48.2531455,115.110872 C48.2531455,115.110872 66.5930041,110.340689 68.9619062,103.937977 C71.3308083,97.5352645 73.4191014,89.9736148 73.4191014,89.9736148 L76.3967225,93.6771185 Z" style="mix-blend-mode:darken"/>
        <g transform="translate(.885 36.44)">
          <path fill="#FFFFFF" stroke="#297BCC" stroke-width="1.8" d="M54.687089,36.7631618 C54.687089,36.7631618 55.9301034,27.9409814 55.9758849,21.9182224 C56.0216664,15.8954635 53.5543621,11.1867461 47.9290086,11.1867461 C42.3036551,11.1867461 40.21292,13.4197128 39.281414,19.5926035 C38.3499081,25.7654942 42.3316297,39.1020167 40.4318091,39.6603809 C38.5319886,40.2187452 33.6909061,29.2813751 30.98522,26.1135527 C28.279534,22.9457303 24.18346,18.4479323 19.0562511,21.3971151 C13.9290422,24.346298 14.646076,31.8579883 19.0562511,36.4817736 C23.4664262,41.105559 33.2143559,53.6611559 33.2143559,53.6611559 C33.2143559,53.6611559 22.9079152,73.1298806 43.5576054,78.9630466 C64.2072955,84.7962126 72.9516585,71.4663237 74.4768931,66.9960452 C76.0021277,62.5257668 80.3167531,54.1503987 68.8643344,47.5446409 C57.4119156,40.9388831 54.687089,36.7631618 54.687089,36.7631618 Z" stroke-linecap="round" stroke-linejoin="round" transform="scale(-1 1) rotate(54 0 -44.503)"/>
          <path fill="#E6F9FF" d="M58.1730511,41.2796407 C58.1730511,41.2796407 63.7895934,47.3512658 60.6708371,49.8073778 C57.5520808,52.2634898 46.112322,54.9803328 46.112322,54.9803328 L38.127244,64.2823718 L39.6055642,72.4269036 C39.6055642,72.4269036 44.1457579,75.9644498 45.9868639,72.6876346 C47.8279698,69.4108195 45.3270236,65.7744732 45.3270236,65.7744732 C45.3270236,65.7744732 47.5697852,67.6396863 50.9283972,62.6595891 C54.2870093,57.6794919 65.1241266,58.7473603 66.2248084,55.809243 C67.3254901,52.8711258 70.6446002,64.7100844 64.7073022,69.8622062 C58.7700042,75.0143281 47.5391317,77.5146318 46.4330777,79.7523105 C45.3270236,81.9899892 45.4316248,83.3315232 45.4316248,83.3315232 C45.4316248,83.3315232 63.3459077,79.4824254 67.1482055,74.3066294 C70.9505032,69.1308334 78.2646804,55.1754077 74.1444712,49.2028983 C70.0242619,43.230389 58.1730511,41.2796407 58.1730511,41.2796407 Z" style="mix-blend-mode:darken"/>
          <path fill="#FFFFFF" stroke="#297BCC" stroke-width="1.8" d="M36.8108203,45.4056274 C42.5706484,45.4056274 43.0471985,51.9873642 42.5294226,58.6774404 C42.0116466,65.3675166 40.1923145,67.5661677 35.608893,66.6788637 C31.0254716,65.7915597 29.3877291,60.9133485 30.319235,55.4713806 C31.250741,50.0294127 31.0509923,45.4056274 36.8108203,45.4056274 Z" stroke-linecap="round" stroke-linejoin="round" transform="scale(-1 1) rotate(54 0 -15.26)"/>
          <path fill="#FFFFFF" stroke="#297BCC" stroke-width="1.8" d="M33.0980247,59.5862766 C38.038956,59.5862766 38.4477532,64.762521 38.0035915,70.0239695 C37.5594297,75.285418 35.9987589,77.0145597 32.06698,76.3167344 C28.1352011,75.6189091 26.7303026,71.7824121 27.5293728,67.5025455 C28.328443,63.2226789 28.1570934,59.5862766 33.0980247,59.5862766 Z" stroke-linecap="round" stroke-linejoin="round" transform="scale(-1 1) rotate(54 0 3.796)"/>
          <path stroke="#297BCC" stroke-width="1.8" d="M54.6962522,59.597186 C54.6962522,59.597186 68.7282258,49.5255501 64.4112995,42.668798 C60.0943732,35.8120459 54.1652251,38.724462 49.601435,42.0457243 C45.0376449,45.3669865 43.9760815,48.5387307 43.9760815,48.5387307" stroke-linecap="round" stroke-linejoin="round" transform="scale(-1 1) rotate(54 0 -58.125)"/>
          <g fill="#E6F9FF" transform="translate(21.277 9.494)">
            <path d="M22.7114145 1.04264871C22.7114145 1.04264871 30.8892619 20.2518373 29.929523 23.9270091 28.9697842 27.6021809 25.8902138 29.7379031 23.2694978 29.4983209 20.6487817 29.2587387 13.3342885 19.5507674 9.9339624 18.292882 6.53363632 17.0349966 2.73671087 13.1174016.614035188 14.5968769-1.50864049 16.0763522 2.86406509 25.8079976 8.64525146 28.6053327 14.4264378 31.4026678 18.7182435 34.2337781 19.3388978 36.3723411 19.9595521 38.5109041 21.5784992 42.7520455 20.6791192 41.5926444 19.7797393 40.4332434 22.4573381 32.6359322 27.6181862 31.0671265 32.7790342 29.4983209 37.8795233 29.6460474 37.8795233 29.5721842 37.8795233 29.4983209 32.5208496 10.5242953 32.5208496 9.164769 32.5208496 7.80524267 29.4861534 1.47635876 26.7633644.697322074 24.0405754-.0817146096 22.7114145 1.04264871 22.7114145 1.04264871zM11.3860533 39.5863409C11.3860533 39.5863409 17.3416802 44.7384627 16.8019259 48.1169188 16.2621715 51.4953749 14.5408354 52.8132348 14.5408354 52.8132348 14.5408354 52.8132348 18.361462 56.8896042 21.3809895 54.511459 24.400517 52.1333138 25.2553387 48.8205139 23.3181641 46.1428121 21.3809895 43.4651102 11.3860533 39.5863409 11.3860533 39.5863409zM12.3998308 64.4561716C12.3998308 64.4561716 14.8287255 61.6616774 14.0190939 58.8040521 13.2094624 55.9464269 10.0610006 52.4720117 10.0610006 52.4720117 10.0610006 52.4720117 18.1367751 55.5247117 18.8563422 58.1841056 19.5759093 60.8434994 18.9792722 64.0994814 17.2370791 64.7794024 15.494886 65.4593234 12.3998308 64.4561716 12.3998308 64.4561716z" style="mix-blend-mode:darken"/>
          </g>
        </g>
        <g stroke-linecap="round" stroke-linejoin="round">
          <use fill="#FFFFFF" xlink:href="#f"/>
          <path stroke="#297BCC" stroke-width="1.667" d="M250.975869,201.772634 C251.122016,202.102865 251.308441,202.440884 251.542219,202.778312 C252.653962,204.38297 254.552067,205.427619 257.330634,205.670353 C260.450452,205.942889 262.605193,204.667069 263.86382,202.416806 C263.916239,202.323088 263.966307,202.229456 264.014106,202.136076 C264.076192,202.246542 264.142247,202.356027 264.212404,202.46437 C265.392507,204.28682 267.499683,205.452172 270.653731,205.671507 C274.159556,205.915305 276.38604,204.142616 277.480291,201.151185 C277.764683,200.373723 277.955948,199.55556 278.071504,198.728297 C280.045407,200.0975 282.888969,200.48569 286.673599,199.37766 C289.790786,198.464997 290.522602,196.375117 289.216145,193.902799 C288.74114,193.003906 288.017158,192.074077 287.109467,191.129132 C286.544117,190.540578 285.940927,189.981129 285.33781,189.467408 C285.172954,189.326988 285.01708,189.197704 284.872471,189.080609 C284.887001,188.748925 284.901497,188.366741 284.915031,187.938542 C285.06168,183.29885 284.983145,178.150798 284.513303,173.282985 C284.297147,171.043498 284.00427,168.971784 283.626695,167.10095 C283.23949,165.182227 282.806229,163.464314 282.334508,161.93593 C281.627631,159.645629 280.86597,157.872728 280.094532,156.550987 C280.656606,156.694992 281.322494,156.903535 282.127374,157.180499 C282.285316,157.234848 282.448389,157.291555 282.658987,157.365225 C284.64402,158.059615 285.386932,158.299877 286.15359,158.429808 C286.170815,158.442611 286.188719,158.455083 286.207425,158.467277 C286.634065,158.74539 287.241268,158.63071 287.480325,158.101438 C287.604519,157.826474 287.589711,157.616317 287.512225,157.209043 C287.425068,156.750928 287.219002,156.004537 286.907431,155.008933 C286.268081,152.965931 285.231115,150.022153 284.01481,146.818405 C280.987766,138.845173 277.540298,130.98583 274.509919,125.499439 C273.862261,124.326906 273.095608,123.097705 272.2196,121.817663 C270.848146,119.813664 269.226933,117.710811 267.407166,115.543431 C265.343992,113.08615 263.135384,110.673657 260.926883,108.406609 C260.153895,107.613129 259.435904,106.894276 258.791154,106.26274 C258.565119,106.041336 258.364257,105.846544 258.190852,105.679953 C258.086203,105.579417 258.013586,105.510269 257.975282,105.474101 L257.975282,105.474101 L257.157524,104.701929 L256.656921,105.70909 L228.225673,162.909728 L228.068874,163.225192 L228.1859,163.557469 C228.218252,163.649328 228.27931,163.813189 228.368674,164.038881 C228.515762,164.410358 228.690303,164.823096 228.891955,165.266965 C229.468075,166.5351 230.147982,167.8036 230.93071,168.992207 C231.828879,170.356116 232.807228,171.528126 233.870314,172.44988 C234.178592,172.717158 234.48584,172.974147 234.896636,173.310951 C235.00571,173.400379 235.144229,173.513563 235.386116,173.711221 C235.576784,173.867216 235.72011,173.985195 235.857808,174.099798 C239.051491,176.75783 240.274904,179.039845 240.845717,184.993856 C241.101431,187.660444 240.687225,190.077247 239.589173,193.781565 C238.285868,198.178315 238.203631,198.499408 238.196697,199.945084 C238.18653,202.064539 239.17314,203.567666 241.356481,204.471581 C244.870239,205.926247 247.875488,204.996476 250.234893,202.603425 C250.500511,202.33402 250.747425,202.055642 250.975869,201.772634 Z"/>
        </g>
        <path fill="#E6F9FF" d="M258.553085,106.453437 C258.553085,106.453437 270.072353,118.11342 275.219129,128.545474 C280.365905,138.977528 287.319079,158.88607 287.319079,158.88607 L279.685655,156.429363 C279.685655,156.429363 284.089544,166.79702 284.089544,171.481844 C284.089544,176.166667 284.894134,189.008379 284.894134,189.008379 C284.894134,189.008379 289.711919,193.798923 289.711919,196.123313 C289.711919,198.447703 286.286095,200.177092 283.272585,200.177092 C280.259075,200.177092 276.979504,196.538845 276.979504,196.538845 C276.979504,196.538845 277.863454,198.188957 277.850506,198.41987 C277.837559,198.650782 275.977086,205.047521 271.430591,205.596917 C266.174215,206.232094 263.954963,201.363475 263.954963,201.363475 C263.954963,201.363475 262.886109,205.275017 257.95203,205.596917 C253.017951,205.918817 251.2156,200.830557 251.2156,200.830557 C251.2156,200.830557 248.55287,204.928435 244.851995,204.928435 C240.081073,204.928435 238.850218,201.942461 238.850218,201.363475 C238.850218,200.784489 244.051275,202.51521 246.186409,197.544194 C247.336153,194.867359 251.2156,198.41987 251.2156,198.41987 C251.2156,198.41987 252.885523,203.038992 254.922791,203.206229 C256.960059,203.373465 257.066365,199.278508 259.122911,197.544194 C262.638844,194.579157 263.954963,199.542449 263.954963,199.542449 C263.954963,199.542449 266.861881,204.67932 270.118697,203.789522 C273.375513,202.899723 270.29148,199.313983 271.723129,196.538845 C273.154778,193.763707 276.979504,196.123313 276.979504,196.123313 C276.979504,196.123313 281.646498,196.145821 282.498056,193.87842 C283.349615,191.611018 280.091183,189.416024 280.091183,189.416024 C280.091183,189.416024 277.41257,163.301991 267.082135,158.508204 C256.7517,153.714417 229.317415,163.48206 229.317415,163.48206 C229.317415,163.48206 245.831683,148.100557 250.879743,134.531132 C255.927804,120.961706 258.553085,106.453437 258.553085,106.453437 Z" style="mix-blend-mode:darken"/>
        <g transform="translate(92.34)">
          <g stroke-linecap="round" stroke-linejoin="round">
            <use fill="#FFFFFF" xlink:href="#g"/>
            <path stroke="#297BCC" stroke-width="1.667" d="M58.3680579,25.5606082 C40.6675172,32.053491 27.4798515,41.5553175 18.6185935,55.1458775 C17.4081481,56.3964627 15.9853053,58.2357446 14.2545848,60.7197296 C13.828091,61.3318469 13.383439,61.9822831 12.9048386,62.6927061 C12.2199453,63.7093452 9.53073731,67.7823635 8.9380286,68.6546019 C8.5853583,69.1735289 8.22419761,69.7221137 7.85513065,70.2987822 C7.05456608,71.5496672 6.22208295,72.9242742 5.36522707,74.4027352 C3.908123,76.9168938 2.45014066,79.6082106 1.06018209,82.2992173 C0.573806466,83.240857 0.130591833,84.1153554 -0.260776873,84.9004344 C-0.397885078,85.1754712 -0.518763112,85.4197767 -0.622323778,85.630564 C-0.684675186,85.757474 -0.727249066,85.8447066 -0.749800425,85.8912006 L-1.61331768,87.6716477 L0.263754644,87.0453461 L7.28565413,84.7024279 C7.05245627,85.8196528 6.84286485,86.9432039 6.65710074,88.072452 L1.36872259,100.928226 L0.676083535,102.611996 L2.40315151,102.035744 L5.58530699,100.97399 C5.58500717,101.064378 5.58485726,101.154799 5.58485726,101.245252 C5.58485726,145.731795 41.6667562,181.848919 86.1107237,181.848919 C130.554545,181.848919 166.63659,145.731718 166.63659,101.245252 C166.63659,66.8243727 144.835117,36.5121553 112.915157,25.2223297 C109.553091,23.5330025 106.519579,21.9845507 104.148705,20.7373999 C101.34918,19.2646608 100.079862,17.3691909 98.1207975,12.6961309 C97.9953575,12.3966631 97.9257864,12.230579 97.8689354,12.0952114 C97.7722409,11.8649724 97.6912327,11.6732245 97.6127308,11.4891139 C96.8107023,9.60811455 96.1740884,8.33003454 95.3648672,7.09782008 C94.4591219,5.71865947 93.3445377,4.55363941 92.0693108,3.58560041 C90.8079835,2.62811279 89.459544,1.91252908 88.1102398,1.40197273 C87.2944311,1.09328299 86.651198,0.919863504 86.2647103,0.847195402 L85.094212,0.627116229 L85.2885601,1.80216089 C85.2999455,1.87099801 85.3208089,2.00773219 85.3480179,2.20447121 C85.3938534,2.53589285 85.4398018,2.91167412 85.4827408,3.32388236 C85.6723862,5.14444889 85.7411219,7.01764796 85.6187748,8.75455651 C85.5583229,9.61276471 85.4519928,10.4077917 85.2962892,11.1263948 C84.9726351,12.6200438 84.0224001,14.147524 82.6324004,15.6230685 C82.0025871,16.2916424 81.3253381,16.9038244 80.6483849,17.4446053 C80.5995835,17.4835901 80.5521464,17.5211448 80.5061576,17.5572452 L77.2173246,11.4434496 L76.8043824,10.6758083 L76.0560732,11.1228293 C75.9454452,11.1889157 75.7366758,11.3158625 75.4384661,11.5006689 C74.9435781,11.8073607 74.3766853,12.1658922 73.7464844,12.5732679 C71.9477733,13.7359943 70.0004875,15.057995 67.9741212,16.5154228 C67.4103222,16.9208986 66.8225185,17.3781547 66.2121688,17.8837358 C65.3155939,18.6264107 64.3791881,19.4658471 63.4071734,20.3903623 C62.3851794,21.3624145 61.3618558,22.3914298 60.3066794,23.4950511 C59.9084937,23.9115181 59.5230212,24.3204418 59.1054588,24.767895 C58.9466816,24.9380382 58.5739867,25.3390919 58.3680579,25.5606082 L58.3680579,25.5606082 Z"/>
          </g>
          <path fill="#E6F9FF" d="M85.9256279,0 C85.9256279,0 91.9638251,6.63178474 92.2057978,14.2732251 C92.4477705,21.9146655 84.1530147,24.8289772 83.0578102,24.2451562 C81.9626056,23.6613352 79.841222,15.7355096 79.1116608,14.1041183 C78.3820996,12.472727 76.271645,10.076041 76.271645,10.076041 C76.271645,10.076041 78.4440308,23.612252 75.7495438,26.3904347 C73.0550568,29.1686174 77.7838786,30.2127846 84.6030226,29.2903666 C91.4221666,28.3679486 100.144305,22.4260121 105.033228,23.3355842 C109.922151,24.2451562 114.059462,25.7768954 114.059462,25.7768954 C114.059462,25.7768954 102.816742,20.7111698 100.790077,17.407644 C98.7634118,14.1041183 96.8857266,6.45481699 93.9364204,4.33177925 C90.9871143,2.20874151 85.9256279,0 85.9256279,0 Z" style="mix-blend-mode:darken"/>
          <path fill="#E6F9FF" d="M13.9664986,134.924089 C13.9664986,134.924089 35.7671362,181.092009 83.983698,181.092009 C132.20026,181.092009 155.241398,147.098236 161.417952,128.817293 C167.594505,110.536349 167.173046,94.8121016 158.426216,66.947962 C149.679386,39.0838224 112.178885,26.0211121 112.178885,26.0211121 C112.178885,26.0211121 142.470777,50.5441562 147.243345,82.5984547 C147.452143,84.0008145 152.334234,89.78656 152.440669,91.2163269 C152.547104,92.6460938 147.84363,88.9039899 147.863201,89.941798 C147.921984,93.0588158 152.95582,103.112234 152.440669,106.326054 C151.925518,109.539875 146.473949,103.308006 145.93311,105.258587 C143.113357,115.428267 136.998538,125.917469 126.170075,136.294304 C105.014498,156.567536 83.8212492,161.319214 65.6412972,159.386613 C64.5467613,159.270259 65.398713,166.122327 64.3266877,165.959445 C63.2546624,165.796562 58.4843395,158.291702 56.5939773,157.852873 C31.4367291,152.012869 13.9664986,134.924089 13.9664986,134.924089 Z" style="mix-blend-mode:multiply"/>
        </g>
        <g transform="translate(119 53.318)">
          <g stroke-linecap="round" stroke-linejoin="round">
            <use fill="#C6F1FF" xlink:href="#h"/>
            <path stroke="#297BCC" stroke-width="1.667" d="M57.3324474,12.5040186 C55.5085498,11.7280631 53.6919642,10.9170978 51.9916263,10.1055838 C50.846408,9.55900973 49.790633,9.02927185 48.8433212,8.52258726 C47.7126828,7.91784762 46.7522959,7.3543054 45.9879927,6.84178019 C44.0605675,5.54938776 42.3745385,3.790392 40.9522338,1.79315759 L40.6590955,1.38152582 L40.1585762,1.45117644 C16.9580932,4.6796794 0.832900864,14.0196614 0.832900864,25.0177937 C0.832900864,38.866901 26.2969411,49.7594738 57.5579772,49.7594738 C88.8188678,49.7594738 114.283054,38.8668688 114.283054,25.0177937 C114.283054,11.2692758 89.1776324,0.420680867 58.1764579,0.277460927 L57.733992,0.275416812 L57.484449,0.640805135 C56.2465732,2.45333999 55.4645714,4.40448061 55.3881129,6.43175381 C55.3111103,8.46966104 56.0545038,10.5227353 57.3324474,12.5040186 Z"/>
          </g>
          <path fill="#5588BB" d="M21.7898034,44.2293482 C21.7898034,44.2293482 -6.36065585,36.6486846 2.10827373,20.1135713 C10.5772033,3.57845797 39.8666646,1.79531287 39.8666646,1.79531287 C39.8666646,1.79531287 44.5263911,7.97901364 46.4560129,7.91264621 C47.0096959,7.89360283 57.3966056,12.4240633 57.3966056,12.4240633 C57.3966056,12.4240633 56.0435986,10.5638583 56.0864343,6.91169316 C56.1292699,3.25952804 56.5078565,6.7677983 56.5194116,6.63203239 C56.7503824,3.91824459 56.387026,1.70289087 58.2661971,0.937890852 C63.2141014,-1.07637332 64.7960637,0.937890852 64.7960637,0.937890852 C64.7960637,0.937890852 62.1666168,5.34126157 64.7368934,10.1473923 C67.30717,14.953523 69.3492022,14.8253907 68.3590532,15.9171255 C67.3689041,17.0088603 64.3233715,17.6653952 58.2661971,14.0322511 C52.2090226,10.3991069 42.7800752,5.63710185 42.7800752,5.63710185 C42.7800752,5.63710185 18.8859226,10.1303968 13.609129,19.5624056 C3.72702125,37.2261864 21.7898034,44.2293482 21.7898034,44.2293482 Z" opacity=".196" style="mix-blend-mode:multiply"/>
        </g>
        <g transform="translate(141.217 69.424)">
          <path fill="#297BCC" d="M8.55758745,0 C13.2805289,0 17.1151749,3.83816655 17.1151749,8.56594186 C17.1151749,13.2934941 13.2805289,17.1318837 8.55758745,17.1318837 C3.83442317,17.1318837 0,13.2934941 0,8.56594186 C0,3.83816655 3.83442317,0 8.55758745,0 Z"/>
          <path fill="#297BCC" d="M12.1274183,0.779762844 C15.0700759,2.13510829 17.1151749,5.11330135 17.1151749,8.56594186 C17.1151749,13.2934941 13.2805289,17.1318837 8.55758745,17.1318837 C7.51771722,17.1318837 6.53662896,16.8479911 5.59865009,16.6051925 C4.96604002,16.4414394 11.6136102,15.5091807 13.3138817,11.052691 C15.6393182,4.95761526 12.1274183,0.779762844 12.1274183,0.779762844 Z" opacity=".48" style="mix-blend-mode:multiply"/>
          <path fill="#FFFFFF" d="M6.50043932,2.77696342 C8.86179861,2.77696342 10.779233,4.6960467 10.779233,7.05993435 C10.779233,9.423822 8.86179861,11.3429053 6.50043932,11.3429053 C4.13885718,11.3429053 2.2216456,9.423822 2.2216456,7.05993435 C2.2216456,4.6960467 4.13885718,2.77696342 6.50043932,2.77696342 Z"/>
          <g transform="translate(53.875)">
            <path fill="#297BCC" d="M8.55758745,0 C13.2805289,0 17.1151749,3.83816655 17.1151749,8.56594186 C17.1151749,13.2934941 13.2805289,17.1318837 8.55758745,17.1318837 C3.83442317,17.1318837 0,13.2934941 0,8.56594186 C0,3.83816655 3.83442317,0 8.55758745,0 Z"/>
            <path fill="#297BCC" d="M12.1251722,0.777563317 C15.0678298,2.13290876 17.1129288,5.11110182 17.1129288,8.56374233 C17.1129288,13.2912946 13.2782828,17.1296842 8.55534137,17.1296842 C7.51547114,17.1296842 6.53438287,16.8457916 5.596404,16.6029929 C4.96379394,16.4392399 11.6113641,15.5069812 13.3116356,11.0504915 C15.6370721,4.95541574 12.1251722,0.777563317 12.1251722,0.777563317 Z" opacity=".48" style="mix-blend-mode:multiply"/>
            <path fill="#FFFFFF" d="M6.50043932,2.77696342 C8.86179861,2.77696342 10.779233,4.6960467 10.779233,7.05993435 C10.779233,9.423822 8.86179861,11.3429053 6.50043932,11.3429053 C4.13885718,11.3429053 2.2216456,9.423822 2.2216456,7.05993435 C2.2216456,4.6960467 4.13885718,2.77696342 6.50043932,2.77696342 Z"/>
          </g>
        </g>
        <g transform="translate(127.887 108.857)">
          <mask id="j" fill="white">
            <use xlink:href="#i"/>
          </mask>
          <use fill="#297BCC" xlink:href="#i"/>
          <g transform="translate(32.77 14.44)" mask="url(#j)">
            <mask id="l" fill="white">
              <use xlink:href="#k"/>
            </mask>
            <use fill="#82C2DC" xlink:href="#k"/>
            <path fill="#2268AC" d="M19.5310169,15.1725675 C19.5310169,15.1725675 30.1098354,13.3178412 31.3392006,8.82464139 C32.5685659,4.33144162 30.4435147,0.365241921 30.4435147,0.365241921 C30.4435147,0.365241921 37.7555173,1.29048271 41.0515334,3.26354936 C44.3475494,5.23661601 47.8659755,8.23551268 47.8659755,8.23551268 C47.8659755,8.23551268 39.3539365,12.3501522 34.4830414,13.7613599 C29.6121464,15.1725675 19.5310169,15.1725675 19.5310169,15.1725675 Z" opacity=".165" style="mix-blend-mode:multiply" mask="url(#l)"/>
          </g>
          <path fill="#2268AC" d="M32.1031793,27.7554317 C32.1031793,27.7554317 23.4194857,20.015882 44.821266,13.1227793 C53.1003236,10.4562537 75.263323,12.4911705 76.0143905,12.6528212 C84.9397771,14.5738143 91.1888533,17.3597257 91.1888533,17.3597257 C91.1888533,17.3597257 107.934857,4.52120259 102.912311,0.75550167 C97.8897644,-3.01019925 60.8634571,6.05647605 54.6395849,6.05647605 C48.4157127,6.05647605 0.999854453,-1.28632881 -0.260326036,2.64943882 C-1.52050652,6.58520645 4.68732961,15.394222 14.6532281,20.015882 C24.6191266,24.6375421 32.1031793,27.7554317 32.1031793,27.7554317 Z" opacity=".522" style="mix-blend-mode:multiply" mask="url(#j)"/>
        </g>
      </g>
      <g transform="translate(121.603 159.253)">
        <path fill="#81BFF1" stroke="#297BCC" stroke-width="1.8" d="M0.331461702,0.32371945 L55.8192884,70.3390326 L107.796994,4.62542096 C107.796994,4.62542096 97.3497412,12.239031 91.5747583,15.2124965 C85.7997753,18.185962 76.8688894,20.54991 76.8688894,20.54991 L58.3939945,42.352863 L36.095637,20.347041 C36.095637,20.347041 24.2961522,16.7931411 18.5978502,13.6028275 C12.8995482,10.412514 6.55455148,3.80784641 0.331461702,0.32371945 Z" stroke-linecap="round" stroke-linejoin="round"/>
        <g transform="translate(18.916 28.792)">
          <path fill="#6FAFD0" fill-opacity=".276" d="M2.6794739,53.7976112 C2.6794739,53.7976112 28.2563468,108.574766 66.4221881,89.1455259 C104.588029,69.7162863 78.9409212,24.7365348 78.9409212,24.7365348 L2.6794739,53.7976112 Z" style="mix-blend-mode:darken"/>
          <use fill="#4B92D8" xlink:href="#m"/>
          <ellipse cx="40.534" cy="40.488" stroke="#ABD4F1" stroke-width="2.7" rx="39.184" ry="39.138"/>
          <ellipse cx="40.534" cy="40.488" stroke="#5087D2" stroke-width="4.5" rx="42.784" ry="42.738"/>
          <path fill="#D7F3FE" fill-rule="nonzero" d="M42.42779,69.0644363 C42.42779,69.0644363 46.4795191,68.3300202 48.3078084,67.6185124 C48.8056506,68.5119432 49.483588,69.0220087 50.2524997,69.2662189 C53.2053348,70.2333839 58.421809,67.0347009 58.421809,67.0347009 C57.3903051,66.0750419 56.3138566,65.494279 55.265362,65.1800867 C54.6737991,65.0049227 54.0985504,64.9119912 53.5476735,64.884313 C54.3550971,64.3498477 55.1396237,63.7706077 55.9002227,63.1462745 C56.1945561,63.3610926 56.5087077,63.5102726 56.8363132,63.6045442 C59.9238184,64.5147879 65.1820109,60.3326336 65.1820109,60.3326336 C64.8539633,60.2099347 64.5297471,60.1056619 64.2126178,60.0182591 C62.3516296,59.5124376 60.7304327,59.558748 59.4082878,59.8628948 C60.2001521,59.0222256 60.9513717,58.133452 61.6493264,57.2057487 C65.9689427,57.7045322 69.4964248,52.2123919 69.4964248,52.2123919 C67.1817867,52.3483414 65.4493359,52.7610283 64.168682,53.290107 C64.7226494,52.2439632 65.0251261,51.4713537 65.1207586,51.211628 C68.6332229,48.6753895 63.0975483,45.585752 63.0975483,45.585752 C59.727538,49.0570004 61.5664121,50.822923 62.8438647,51.5551929 C62.7193207,51.9265606 62.2268434,53.284929 61.1062278,55.0692153 C60.4479176,53.2468989 58.3826867,51.7541065 58.3826867,51.7541065 C53.971741,56.3108516 56.668609,58.6237562 57.8369336,59.3670684 C57.6863276,59.5314005 57.5353767,59.6931577 57.3822531,59.8529687 C56.4795734,60.808631 55.5160714,61.686459 54.5046042,62.4815035 C55.1819023,60.3372968 54.5169935,58.0106144 54.5169935,58.0106144 C48.5434751,60.9685714 49.3587752,64.1488758 49.9176804,65.4069077 C48.7766333,65.9756314 47.5785048,66.445626 46.3232832,66.8170721 C47.7311692,64.8148098 47.8750514,61.8853574 47.8750514,61.8853574 C42.0109923,63.1426923 41.7197944,66.2043622 41.9198015,67.6906181 C41.7350232,67.7109813 41.084498,67.7428831 40.3842589,67.7733589 C39.6836816,67.7428831 39.0328024,67.7109813 38.847798,67.6906181 C39.0311597,66.2043622 38.7047861,63.1426923 32.8259357,61.8853574 C32.8259357,61.8853574 33.0039682,64.8148098 34.434567,66.8170721 C33.1751706,66.445626 31.9717342,65.9756314 30.8242267,65.4069077 C31.368695,64.1488758 32.1466,60.9685714 26.1371451,58.0106144 C26.1371451,58.0106144 25.500597,60.3372968 26.2034212,62.4815035 C25.1825574,61.686459 24.2085871,60.808631 23.2943993,59.8529687 C23.13934,59.6931577 22.9864264,59.5314005 22.833823,59.3670684 C23.9930703,58.6237562 26.6612429,56.3108516 22.1917704,51.7541065 C22.1917704,51.7541065 20.1460041,53.2468989 19.5110706,55.0692153 C18.3675705,53.284929 17.8573996,51.9265606 17.7279774,51.5551929 C18.9957595,50.822923 20.811032,49.0570004 17.3934707,45.585752 C17.3934707,45.585752 11.9001947,48.6753895 15.4465549,51.211628 C15.5456123,51.4713537 15.8582263,52.2439632 16.4257989,53.290107 C15.1382817,52.7610283 13.4004527,52.3483414 11.0840381,52.2123919 C11.0840381,52.2123919 14.6814136,57.7045322 18.9948409,57.2057487 C19.7042814,58.133452 20.466402,59.0222256 21.2684847,59.8628948 C19.9426533,59.558748 18.3208941,59.5124376 16.4660334,60.0182591 C16.1499596,60.1056619 15.8270014,60.2099347 15.5004322,60.3326336 C15.5004322,60.3326336 20.8078717,64.5147879 23.8848479,63.6045442 C24.211357,63.5102726 24.5237711,63.3610926 24.8155976,63.1462745 C25.5834662,63.7706077 26.3746929,64.3498477 27.1882609,64.884313 C26.6377012,64.9119912 26.0635168,65.0049227 25.4739571,65.1800867 C24.4290457,65.494279 23.3591875,66.0750419 22.3384792,67.0347009 C22.3384792,67.0347009 27.5900901,70.2333839 30.5324386,69.2662189 C31.2986836,69.0220087 31.9710266,68.5119432 32.45899,67.6185124 C34.2951548,68.3300202 38.3549454,69.0644363 38.3549454,69.0644363 L40.1569038,69.2091787 L40.3922616,69.2281578 L40.5819027,69.2434628 L42.42779,69.0644363 Z" opacity=".688"/>
          <polygon fill="#D7F3FE" points="40.084 56.608 36.113 58.693 36.871 54.276 33.659 51.148 38.099 50.504 40.084 46.485 42.069 50.504 46.509 51.148 43.297 54.276 44.055 58.693" opacity=".688"/>
          <path fill="#ABD4F1" d="M23,18.2480211 C23.3436387,15.5938468 25.8619921,13.3661942 28.6172122,13.2762913 C28.6172122,13.2762913 36.2966768,13 39.6222129,13 C42.9477491,13 50.6272137,13.2762913 50.6272137,13.2762913 C53.3858756,13.3679276 56.0395675,15.6359746 56.4796681,18.3701603 C56.4796681,18.3701603 56.4979593,17.8561652 56.4979593,18.6499061 C56.4979593,19.4436471 56.4979593,18.6499061 56.4979593,18.6499061 C56.014298,21.1804654 53.3870368,23.3301399 50.6177986,23.4106337 C50.6177986,23.4106337 47.0909607,23.6929232 43.384315,23.2318889 C39.6776693,22.7708546 28.6170885,23.115667 28.6170885,23.115667 C25.8584949,23.1798546 23.6475303,20.9891909 23.6222129,19.3571326 C23.6222129,19.3571326 23.681352,19.850579 23.6222129,19.3571326 C23.5630739,18.8636862 23,18.4950856 23,18.2480211 C23,17.6628501 23,18.2480211 23,18.2480211 Z"/>
          <path fill="#ABD4F1" d="M10,32.4147351 C10.6206024,30.6877409 12.6808724,29.2961268 14.6318608,29.3042867 C14.6318608,29.3042867 20.2657926,29.3458881 25.6624237,29.2877355 C31.0590548,29.2295828 37.094139,29 40.0192751,29 C46.025105,29 65.4135176,29.244814 65.4135176,29.244814 C67.3472501,29.2685189 69.6500759,30.6787532 70.443803,32.4290671 C70.443803,32.4290671 70.4964248,32.1597658 70.4964248,32.67623 C70.4964248,33.1926942 70.4964248,32.67623 70.4964248,32.67623 C69.6229452,34.3227915 67.3462506,35.684976 65.4102946,35.7142318 C65.4102946,35.7142318 53.5076352,35.9575749 46.8135315,35.6575933 C43.0669876,35.4897001 33.0115248,35.9569582 25.6624237,35.9947187 C18.3133227,36.0324791 14.6200517,35.8053543 14.6200517,35.8053543 C12.68907,35.7237481 10.702517,34.1402627 10.6057596,33.8192906 C10.6057596,33.8192906 10.7125632,34.1403619 10.6057596,33.8192906 C10.4989561,33.4982194 10,32.5754928 10,32.4147351 C10,32.0339813 10,32.4147351 10,32.4147351 Z" transform="matrix(-1 0 0 1 80.496 0)"/>
        </g>
      </g>
    </g>
  </g>
</svg>
