<svg xmlns="http://www.w3.org/2000/svg" width="376" height="476" viewBox="0 0 376 476" xmlns:xlink="http://www.w3.org/1999/xlink">
  <defs>
    <rect id="a" width="376" height="476"/>
    <path id="c" d="M193.293157,85.2646702 C193.293157,85.2646702 194.129076,100.039146 199.679205,110.099355 C209.360635,127.648413 220.061936,158.597889 218.003969,155.696916 C214.831496,155.264045 209.364152,152.407609 206.156191,152.578066 C206.156191,152.578066 209.895188,155.929212 212.632857,169.511621 C215.370845,183.094351 214.368557,201.402776 214.368557,201.402776 C214.368557,201.402776 227.783229,211.57188 217.839958,214.48663 C207.897326,217.40106 204.822685,212.033267 204.822685,212.033267 C204.822685,212.033267 205.202819,224.17256 195.276492,223.48144 C185.350166,222.79032 185.7303,215.304311 185.7303,215.304311 C185.7303,215.304311 184.979943,224.250739 176.184107,223.48144 C167.388592,222.712141 167.505925,216.121992 167.505925,216.121992 C167.505925,216.121992 162.740662,225.62625 153.620642,221.846078 C144.500941,218.065906 154.84257,207.618688 153.620642,194.861009 C152.399033,182.103329 148.239619,180.422149 143.206759,176.053388 C141.395671,174.481178 118.375993,153.558263 105.90905,129.957566 C93.4421068,106.356868 89.4831322,65.8530845 90.1537859,63.3390906"/>
  </defs>
  <g fill="none" fill-rule="evenodd">
    <mask id="b" fill="white">
      <use xlink:href="#a"/>
    </mask>
    <g transform="translate(-101 99)" mask="url(#b)">
      <g transform="translate(221.457 42.527)">
        <g stroke-linejoin="round" transform="rotate(168 155.796 143.434)">
          <use fill="#FFFFFF" xlink:href="#c"/>
          <path stroke="#297BCC" stroke-width="3.303" d="M209.79666,154.894973 C210.311033,155.052705 210.877867,155.239089 211.504883,155.45511 C211.730613,155.532879 211.963887,155.614096 212.265342,155.719676 C215.060242,156.698548 216.15526,157.055384 217.25214,157.250627 C217.253883,157.251771 217.255631,157.252915 217.257382,157.254059 C218.088128,157.79625 219.281703,157.570551 219.748969,156.534777 C219.982433,156.017264 219.958224,155.673276 219.826873,154.982044 C219.697722,154.302388 219.398408,153.21693 218.946555,151.771319 C218.026359,148.827339 216.535839,144.590881 214.787954,139.981389 C210.438372,128.510746 205.484746,117.204107 201.125142,109.301664 C199.921919,107.120692 198.882708,104.581016 198.000535,101.754979 C196.87025,98.134111 196.052392,94.2381917 195.499719,90.3398639 C195.306075,88.9739826 195.159608,87.706516 195.053906,86.5710289 C195.017085,86.1754953 194.98802,85.825382 194.965897,85.5248688 C194.952859,85.3477611 194.945131,85.2285429 194.941897,85.1713869 L194.941897,85.1713869 L194.870627,83.9117344 L193.636537,83.649389 L90.4971657,61.7238094 L88.9625909,61.3975863 L88.5582089,62.9134414 C88.022815,64.9204042 89.3074957,77.2309619 91.4807172,89.0397057 C94.4914695,105.399383 98.8344678,120.100463 104.44888,130.728893 C110.008811,141.254188 117.971647,151.976802 127.326397,162.370877 C130.692406,166.110855 134.038624,169.580688 137.213192,172.686837 C139.332093,174.760072 141.235065,176.528568 142.1242,177.300429 C142.570183,177.687563 143.013883,178.059134 143.606171,178.545326 C143.762999,178.674061 144.293492,179.108053 144.308751,179.120552 C144.581383,179.343875 144.786105,179.512596 144.982494,179.676244 C149.472838,183.417974 151.169371,186.586318 151.976784,195.018416 C152.336727,198.776442 151.75076,202.199564 150.190711,207.468807 C148.300959,213.85166 148.18467,214.306261 148.174408,216.448213 C148.158945,219.675572 149.684087,222.001974 152.988306,223.371593 C158.220217,225.540176 162.720996,224.146033 166.225741,220.587014 C166.45163,220.357627 166.665172,220.128327 166.866462,219.900977 C167.024328,220.197924 167.201977,220.490756 167.400679,220.777904 C169.074936,223.197397 171.922262,224.766358 176.040219,225.126535 C180.575551,225.523203 183.780736,223.708332 185.691278,220.498563 C187.485616,223.135033 190.60274,224.811404 195.161793,225.128828 C200.414705,225.494561 203.78127,222.81092 205.415371,218.338266 C205.754941,217.408837 206.004042,216.442445 206.176776,215.462541 C209.0881,217.190114 213.113981,217.592789 218.304472,216.071329 C223.067096,214.675223 224.228948,211.353258 222.226874,207.559985 C221.522597,206.225611 220.459638,204.858774 219.130622,203.47354 C218.308138,202.616265 217.431936,201.80262 216.555875,201.05551 C216.375742,200.901891 216.208759,200.762104 216.057111,200.637156 C216.074745,200.214261 216.092191,199.740289 216.108644,199.21912 C216.319584,192.537281 216.206646,185.125067 215.530454,178.1109 C215.218952,174.879674 214.796658,171.888898 214.251671,169.185303 C213.693257,166.414839 213.068003,163.932668 212.386708,161.722586 C211.524123,158.924415 210.603057,156.653698 209.661659,154.853869 L209.79666,154.894973 Z"/>
        </g>
        <path fill="#E6F9FF" d="M191.478572,82.4435248 C191.478572,82.4435248 193.355204,97.8331337 200.738837,112.817178 C208.122469,127.801223 218.097584,156.396791 218.097584,156.396791 L207.146574,152.868107 C207.146574,152.868107 213.46445,167.759656 213.46445,174.488687 C213.46445,181.217717 214.618726,199.662865 214.618726,199.662865 C214.618726,199.662865 221.530383,206.543747 221.530383,209.882377 C221.530383,213.221006 216.615652,215.705008 212.292431,215.705008 C207.969209,215.705008 203.264294,210.479225 203.264294,210.479225 C203.264294,210.479225 204.532419,212.849358 204.513845,213.181028 C204.49527,213.512699 201.826212,222.700633 195.303749,223.489756 C187.762885,224.40209 184.579116,217.409066 184.579116,217.409066 C184.579116,217.409066 183.045724,223.027396 175.96723,223.489756 C168.888735,223.952116 166.303059,216.643611 166.303059,216.643611 C166.303059,216.643611 162.483072,222.529585 157.173747,222.529585 C150.32932,222.529585 148.563519,218.240691 148.563519,217.409066 C148.563519,216.577442 156.025024,219.063356 159.088115,211.923254 C160.737554,208.078392 166.303059,213.181028 166.303059,213.181028 C166.303059,213.181028 168.698752,219.815689 171.621443,220.055899 C174.544135,220.296108 174.696643,214.41433 177.646991,211.923254 C182.690995,207.664434 184.579116,214.793441 184.579116,214.793441 C184.579116,214.793441 184.829292,217.117924 189.501563,215.839865 C194.173834,214.561806 188.537443,196.168743 188.537443,196.168743 L203.264294,209.882377 C203.264294,209.882377 209.959624,209.914707 211.181281,206.657932 C212.402938,203.401158 207.728349,200.248385 207.728349,200.248385 C207.728349,200.248385 199.218497,144.531174 168.6151,123.062479 C138.011704,101.593784 88.0357318,61.621726 88.0357318,61.621726 L191.478572,82.4435248 Z" style="mix-blend-mode:darken" transform="rotate(168 154.783 142.597)"/>
        <path fill="#BBE0EC" d="M91.3119491,79.3949905 L127.034798,99.7129095 L134.42051,95.0012728 L152.0908,104.023645 C152.0908,104.023645 146.942177,81.0708652 147.650577,74.1229597 C148.358977,67.1750541 142.002615,65.6913102 142.002615,65.6913102 L101.615897,67.334633 L91.3119491,79.3949905 Z" style="mix-blend-mode:darken"/>
        <g stroke="#2279CF" stroke-width="2" transform="rotate(-3 180.498 -6.639)" stroke-linecap="round" stroke-linejoin="round">
          <polygon fill="#DCEEF5" points="0 0 127.953 87.334 141.815 48.862"/>
          <polygon fill="#8EA6BB" points="99.332 68.124 127.801 87.498 117.445 59.901"/>
          <polygon fill="#FFFFFF" points="0 0 117.571 59.74 78.498 77.423"/>
          <polygon fill="#FFFFFF" points="0 0 179.726 30.313 141.487 48.722"/>
        </g>
        <g transform="translate(79.543 31.473)">
          <polygon fill="#FF866A" points="3.912 49.693 10.214 46.373 5.863 43 0 46.144"/>
          <polygon fill="#6ED4FA" points="15.912 43.693 22.214 40.373 17.863 37 12 40.144"/>
          <polygon fill="#FF866A" points="27.912 37.693 34.214 34.373 29.863 31 24 34.144"/>
          <polygon fill="#6ED4FA" points="68.769 15.928 74.596 12.76 68.22 11 63 13.8"/>
          <polygon fill="#FF866A" points="78.574 10.607 84.052 7.601 78.22 6 73 8.8"/>
          <polygon fill="#6ED4FA" points="89.22 4.503 94.831 1.547 89.22 0 84 2.8"/>
        </g>
        <g fill="#C8EAFA" transform="rotate(164 117.7 85.835)">
          <path d="M44.9356409,114.786648 C44.9356409,114.786648 24.2012531,96.8693165 15.0608775,72.2828903 C5.92050196,47.6964641 2.26978671,15.8428934 2.26978671,15.8428934 C1.01621812,7.093105 1.52414975,7.00421107 3.50601005,15.6138368 C3.50601005,15.6138368 8.79228187,42.4429986 19.153394,69.5796707 C29.514506,96.7163428 50.6379911,113.216927 50.6379911,113.216927 L44.9356409,114.786648 Z"/>
          <path d="M59.4183159,113.258205 C59.4183159,113.258205 44.4761436,94.6112253 35.335768,70.0247991 C26.1953925,45.438373 24.3204603,11.7588191 24.3204603,11.7588191 C23.5418412,2.96158628 23.7866909,2.93898013 25.0186097,11.6830181 C25.0186097,11.6830181 27.8986069,41.7621411 38.259719,68.8988132 C48.6208311,96.0354853 65.1206661,111.688485 65.1206661,111.688485 L59.4183159,113.258205 Z" transform="rotate(-17 44.497 59.2)"/>
        </g>
      </g>
      <g opacity=".5" stroke-linecap="round" stroke-linejoin="round">
        <g stroke="#81BFF1" stroke-width="4" transform="translate(0 51.952)">
          <path d="M7.10542736e-14,116.218013 C20.1462764,94.473166 39.7433708,79.9190828 56.1971011,62.8188291 C72.6508313,45.7185754 114.754515,-1.2687759 126.156916,0.223201717 C137.953626,1.76677373 161.498934,20.3320471 190.757491,74.0490313 C220.016047,127.766016 221.570709,127.130459 235.031118,147.909589"/>
          <path d="M80.0177562,40.5113646 C86.9592514,40.2633783 82.9099714,50.4002616 111.138686,79.5332744 C111.138686,79.5332744 133.176676,53.5573377 135.166301,53.5573377 C137.155926,53.5573377 151.060611,68.4754619 155.919759,70.7290706 C160.778907,72.9826792 173.967029,51.0581167 173.967029,51.0581167"/>
        </g>
        <path stroke="#81BFF1" stroke-width="4" d="M125.741967,52.2452533 C125.741967,51.1485549 124.446844,42.7920605 124.697999,29.2196282 C124.949153,15.6471959 124.697999,0.159835615 124.697999,0.159835615"/>
        <path stroke="#81BFF1" stroke-width="4" d="M124.878997,3.99251586 C124.878997,3.99251586 138.262191,14.4463466 146.65438,17.6566276 C155.046568,20.8669087 168.357849,22.167479 168.357849,22.167479 C171.642472,22.5718273 171.963772,24.2188845 169.049021,25.8072472 C169.049021,25.8072472 158.866248,31.8423835 147.956924,35.3957171 C137.0476,38.9490508 125.478455,38.8826927 125.279481,38.2554161 C124.878997,36.9928696 124.878997,3.99251586 124.878997,3.99251586 Z"/>
      </g>
    </g>
  </g>
</svg>
