<svg xmlns="http://www.w3.org/2000/svg" width="376" height="476" viewBox="0 0 376 476" xmlns:xlink="http://www.w3.org/1999/xlink">
  <defs>
    <path id="a" d="M8.1088913,0.299510071 C8.1088913,0.299510071 -0.14608972,12.9698643 0.311307866,20.9045453 C0.768705452,28.8392264 9.75916287,51.1753239 22.5187352,46.9582916 C35.2783076,42.7412594 24.5398024,26.5098031 39.4916831,26.5098031 C54.4435637,26.5098031 56.0869294,37.8006935 70.8330235,35.5361948 C82.5625048,33.7349453 83.6989646,27.2339574 83.6989646,20.9045453 C83.6989646,14.5751332 85.4656448,1.64304727 85.4656448,1.64304727 L8.1088913,0.299510071 Z"/>
    <path id="b" d="M29.6223046,-1.44950718e-13 C29.6223046,-1.44950718e-13 24.2761632,5.33647343 18.27894,13.0494252 C12.2815079,20.7623769 4.09952538,32.7776423 4.09952538,32.7776423 L13.741427,29.5784324 C13.741427,29.5784324 11.3713308,32.8152481 9.20412301,35.4436853 C7.03691521,38.0721226 5.80098827,40.7755625 5.80098827,40.7755625 L12.0399642,40.2423957 C12.0399642,40.2423957 7.59041824,48.4481924 5.80098827,57.3045697 C4.01176725,66.161156 4.66661003,78.0991205 4.66661003,78.0991205 C4.66661003,78.0991205 -4.10000881,84.7298606 2.39806249,86.6304165 C8.89613378,88.5307634 10.9055859,85.0307071 10.9055859,85.0307071 C10.9055859,85.0307071 10.6571468,92.9461034 17.1445618,92.4954604 C23.6319767,92.0448175 23.3835377,87.1635833 23.3835377,87.1635833 C23.3835377,87.1635833 23.8739384,92.9970802 29.6223046,92.4954604 C35.3706708,91.9938407 35.2939869,87.6967501 35.2939869,87.6967501 C35.2939869,87.6967501 38.4085645,93.8939788 44.3688039,91.4291268 C50.3292522,88.9642748 43.5702049,82.1521912 44.3688039,73.833577 C45.1674028,65.5149628 47.8858152,64.4187534 51.1748644,61.5701133 C54.4641225,58.7214731 56.279462,53.572193 56.279462,53.572193 L29.6223046,-1.44950718e-13 Z"/>
    <linearGradient id="c" x1="35.905%" x2="102.257%" y1="8.573%" y2="34.625%">
      <stop stop-color="#FFFFFF" offset="0%"/>
      <stop stop-color="#1655A9" offset="100%"/>
    </linearGradient>
    <path id="d" d="M4.68408292,21.8093351 C-1.53301969,13.5838572 4.3885175,6.69889944 17.9187759,6.24640366 L193.055367,0.389267249 C206.581789,-0.0631002234 214.922535,10.1121599 211.68476,23.0119839 L211.330942,24.4146173 C208.09325,37.185325 194.504318,47.0861534 180.977939,46.6337995 L43.2671817,42.0284277 C29.7413731,41.5760928 13.737982,34.1528188 7.5194788,25.6284028 L4.68408292,21.8093351 Z"/>
    <path id="e" d="M2.57452723,25.5512253 C-3.64257537,17.3257474 2.27896181,10.4407897 15.8092202,9.9882939 L190.945811,4.1311575 C204.472233,3.67879002 212.812979,13.8540502 209.575204,26.7538742 L209.221386,28.1565075 C205.983694,40.9272153 192.394763,50.8280437 178.868384,50.3756897 L41.157626,45.770318 C27.6318175,45.3179831 11.6284263,37.894709 5.40992311,29.370293 L2.57452723,25.5512253 Z"/>
    <linearGradient id="f" x1="0%" y1="50%" y2="50%">
      <stop stop-color="#297BCC" offset="0%"/>
      <stop stop-color="#003378" offset="100%"/>
    </linearGradient>
    <linearGradient id="g" x1="100%" x2="0%" y1="50%" y2="50%">
      <stop stop-color="#0D578F" offset="0%"/>
      <stop stop-color="#002557" offset="100%"/>
    </linearGradient>
    <path id="h" d="M30.8790243,1.32597345e-12 C30.8790243,1.32597345e-12 43.2017828,11.622984 48.6663278,21.5051946 C55.9957938,34.7602897 64.0973686,58.1369428 62.5393548,55.9457899 C60.1375884,55.6188353 55.9984563,53.4613217 53.5698234,53.5900707 C53.5698234,53.5900707 56.4004853,56.1212467 58.4730769,66.3802659 C60.5459104,76.6395271 59.7871139,90.4681844 59.7871139,90.4681844 C59.7871139,90.4681844 69.9428851,98.1490778 62.4151881,100.350637 C54.8879751,102.551954 52.560273,98.4975713 52.560273,98.4975713 C52.560273,98.4975713 52.848059,107.66658 45.3331901,107.144566 C37.8183212,106.622552 38.1061072,100.968245 38.1061072,100.968245 C38.1061072,100.968245 37.5380385,107.725631 30.8790243,107.144566 C24.2202521,106.563502 24.3090809,101.585853 24.3090809,101.585853 C24.3090809,101.585853 20.7014694,108.764577 13.7970263,105.90935 C6.8928252,103.054124 14.7221045,95.1631662 13.7970263,85.5270792 C12.8721901,75.8909921 9.7232451,74.6211689 5.91304585,71.3213712 C2.10308863,68.0215734 -6.17745854e-12,62.0567685 -6.17745854e-12,62.0567685 L30.8790243,1.32597345e-12 Z"/>
    <path id="i" d="M55.1703993,24.607834 C56.5787082,23.0996321 60.6120299,18.6709212 64.1888003,16.1013997 C68.5062912,12.9995471 71.7109254,11.0872916 71.7109254,11.0872916 L75.2212504,17.6056321 C75.2212504,17.6056321 79.8899827,14.4927067 80.7374754,10.5858808 C81.5849682,6.67884603 80.7374754,1.5604863 80.7374754,1.5604863 C80.7374754,1.5604863 85.7543149,2.50272077 88.7610755,7.07600517 C91.7676271,11.6490807 92.0572289,17.3649549 97.2861505,20.1126861 C99.8328077,21.4508262 102.991891,23.0517892 105.562578,24.3418774 C134.614069,34.5844466 155.457251,62.2890651 155.457251,94.8228964 C155.457251,136.056623 121.976272,169.533107 80.7374754,169.533107 C39.4984696,169.533107 6.01770003,136.056623 6.01770003,94.8228964 C6.01770003,94.3749694 6.02167004,93.9278781 6.02961006,93.4818314 L2.00590001,94.8228964 L6.99829261,82.7000366 C7.24861222,81.1686444 7.54552721,79.6529213 7.88757495,78.1545387 L-2.77111667e-13,80.7833938 C-2.77111667e-13,80.7833938 4.71010396,71.0825571 9.02655005,64.7382479 C11.5174182,61.0766955 15.3087781,54.9599015 18.0700249,52.1373765 C26.8397779,38.6663484 39.8350847,30.1983556 55.1703993,24.607834 Z"/>
    <path id="j" d="M54.5426785,1.0403242 C83.2003033,1.1725713 106.370538,11.1546159 106.370538,23.4308238 C106.370538,35.7891377 82.8889709,45.8225769 53.9664001,45.8225769 C25.0436204,45.8225769 1.56226236,35.7891377 1.56226236,23.4308238 C1.56226236,13.4886832 16.7590444,5.05140173 37.7603996,2.13214623 C38.8584209,3.67231309 40.5116169,5.60149117 42.6832126,7.05600035 C46.9378101,9.90589403 56.2230376,13.5743408 56.2230376,13.5743408 C56.2230376,13.5743408 52.5639417,9.98611975 52.7127126,6.05317874 C52.787516,4.07197929 53.6776341,2.3055508 54.5426785,1.0403242 Z"/>
    <path id="k" d="M75.3123091,4.54784847 C88.7919571,0.870835889 96.3738413,-3.11433542 96.2833668,3.72093848 C96.2043845,9.67017771 74.7117927,28.5407734 48.1417666,28.5407734 C21.5715314,28.5407734 -0.0692043941,10.6732082 0.000166314636,4.7237601 C0.0682833358,-1.13982145 7.72371715,2.22819673 21.3519272,5.29098107 C23.2055042,8.86666689 25.6629406,12.9226625 26.9684472,12.9970384 C28.2006131,13.067027 31.281968,10.1561283 33.7951936,7.53437659 C38.2044125,8.10974549 42.9964241,8.48434115 48.1417666,8.48434115 C53.218992,8.48434115 57.9591845,8.04602453 62.3303749,7.3687021 C64.8711816,10.0318202 68.0574284,13.0684894 69.3155038,12.9970384 C70.7125296,12.9176484 73.4284346,8.2785538 75.3123091,4.54784847 Z"/>
    <path id="m" d="M0,11.8119851 C2.61790846,5.03291097 12.2038121,0 23.6146668,0 C32.5992183,0 40.4523169,3.12002875 44.6636622,7.75578057 C36.8960233,11.5040353 27.4674575,14.2703605 17.2944102,14.2703605 C11.2031605,14.2703605 5.37100623,13.3312598 0,11.8119851 Z"/>
  </defs>
  <g fill="none" fill-rule="evenodd">
    <rect width="376" height="476"/>
    <g transform="translate(20 35)">
      <path fill="#C8EAFA" d="M215.077267,399.844138 C275.091474,399.844138 313.37588,386.569216 313.37588,376.5145 C313.37588,366.459785 275.091474,363.432791 215.077267,363.432791 C155.063059,363.432791 106.411932,371.583749 106.411932,381.638465 C106.411932,391.693181 155.063059,399.844138 215.077267,399.844138 Z" transform="rotate(3 209.894 381.638)"/>
      <g transform="rotate(-17 243.291 -94.437)">
        <g transform="translate(87.71 165.47)">
          <g stroke-linecap="round" stroke-linejoin="round">
            <use fill="#FFFFFF" xlink:href="#a"/>
            <path stroke="#297BCC" stroke-width="2.4" d="M7.10345756,-0.355549469 C7.03792617,-0.254967059 6.91893822,-0.068297746 6.75410411,0.196688088 C6.48162612,0.63472125 6.17859855,1.13542582 5.85262478,1.6910635 C4.92226056,3.27691324 3.99215393,4.98857538 3.12303253,6.7649674 C2.01061173,9.0386376 1.07997712,11.253365 0.390849943,13.3528214 C-0.552638148,16.2271995 -1.01268653,18.7881175 -0.886703296,20.9736051 C-0.615948126,25.6705165 2.11793702,33.438071 5.79314719,39.1385487 C10.5888547,46.5769868 16.5019633,50.2106715 22.8953014,48.0976765 C28.019362,46.4041771 29.9734128,43.2515978 31.0131501,37.4411124 C31.0853078,37.0378648 31.1204482,36.8292503 31.2638098,35.9648906 C32.3383852,29.4860344 33.6638356,27.7098031 39.4916831,27.7098031 C44.9343148,27.7098031 48.1944993,28.9316837 53.4786281,32.194153 C53.5385794,32.2311675 54.4419709,32.7905399 54.7073577,32.9537196 C60.5880077,36.5695843 64.4808479,37.7257401 71.0151675,36.7222908 C81.6363062,35.091245 84.8989646,30.167191 84.8989646,20.9045453 C84.8989646,18.9908289 85.0647102,16.3176233 85.36293,13.0883458 C85.4825034,11.7935443 85.6211613,10.4341516 85.7751418,9.03118488 C85.9676072,7.27757138 86.1738813,5.54594326 86.3801417,3.91295857 C86.4523145,3.34155871 86.5193141,2.82342615 86.5794134,2.36811992 C86.6154007,2.09548399 86.6410388,1.9047511 86.6546014,1.80547319 L86.8374951,0.466692677 L85.4864833,0.443228216 L8.12972983,-0.90030898 L7.46589069,-0.911838582 L7.10345756,-0.355549469 Z"/>
          </g>
          <path fill="#CEE9F1" d="M8.37150279,10.49205 C8.37150279,10.49205 30.4483579,26.3631416 45.4712086,26.3631416 C60.4940592,26.3631416 65.8321005,28.3675969 68.6941947,31.8777153 C71.5562888,35.3878337 69.9308691,44.0813447 69.9308691,44.0813447 C69.9308691,44.0813447 77.8771782,44.5716594 80.4106125,43.4391218 C82.9440469,42.3065842 84.8659825,40.4658143 84.8659825,36.7597732 C84.8659825,33.053732 82.9440469,26.3631416 82.9440469,26.3631416 L84.5156476,6.98086648 C84.5156476,6.98086648 68.9236903,21.8956395 44.3714242,21.8956395 C19.819158,21.8956395 8.37150279,10.49205 8.37150279,10.49205 Z" style="mix-blend-mode:darken"/>
        </g>
        <g transform="rotate(75 8.579 90.92)">
          <g stroke-linecap="round" stroke-linejoin="round">
            <use fill="#FFFFFF" xlink:href="#b"/>
            <path stroke="#297BCC" stroke-width="2.4" d="M10.4646809,31.9299974 C10.0724326,32.4378156 9.68190901,32.9367961 9.29865858,33.418679 C9.12456853,33.6375724 8.95361657,33.8508463 8.78613847,34.058005 C8.61266789,34.272576 8.44326247,34.4801679 8.27825847,34.6802884 C8.2171027,34.7544595 8.15626876,34.8291512 8.09575694,34.9043501 C7.15193401,36.0772523 6.31913602,37.3282982 5.6023025,38.5792971 C5.35115581,39.0175917 5.13196049,39.4254989 4.94561807,39.7931729 C4.831706,40.0179339 4.75271569,40.1823818 4.70962939,40.2766278 L3.85490023,42.146244 L5.90316477,41.9712046 L10.0033062,41.620817 C9.95834214,41.7143964 9.9128415,41.8096191 9.86683104,41.906457 C9.03686719,43.6532767 8.20742619,45.5718556 7.43292754,47.6054613 C6.21337951,50.807636 5.24589705,53.9927229 4.62475743,57.0669124 C4.26769291,58.8343703 3.99113556,60.7886802 3.78717555,62.8996283 C3.34466395,67.4795408 3.27075632,72.3177485 3.40872766,76.6795597 C3.41868769,76.9944351 3.42920497,77.2829442 3.43986284,77.5430829 C3.35318829,77.614729 3.25954895,77.6931867 3.15979773,77.7780648 C2.58439269,78.2676758 2.00888187,78.8009019 1.46831752,79.3630724 C0.592531391,80.2738632 -0.108711719,81.1735618 -0.575192018,82.0554182 C-1.91872704,84.5953001 -1.12864178,86.8491996 2.06119927,87.7821643 C5.39738005,88.7578232 8.01376661,88.5297373 9.93301679,87.4585252 C10.045255,88.0461273 10.2002347,88.6254509 10.4051387,89.1849934 C11.4904893,92.1488193 13.7365088,93.9350897 17.2277184,93.6925757 C20.1552869,93.4892146 22.1929477,92.4354208 23.4021092,90.7714375 C24.6839936,92.8048737 26.7895715,93.9472135 29.7266238,93.6909175 C32.4522853,93.453068 34.3458434,92.4120702 35.4613117,90.8038119 C35.5615738,90.6592561 35.6532197,90.5146075 35.7367955,90.3704691 C35.8355718,90.4785214 35.9385259,90.5870529 36.0456833,90.6956158 C38.3679203,93.04831 41.358605,93.9725577 44.8273951,92.5380425 C47.0327103,91.6260683 48.0593964,90.0636647 48.049049,87.9088491 C48.0422548,86.493992 47.9667283,86.199434 46.7260517,82.0187205 C45.7106761,78.5972047 45.3299981,76.3785683 45.563312,73.9482515 C46.0879611,68.4832389 47.1807041,66.4472484 50.0906791,64.0279097 C50.2187143,63.921462 50.3522585,63.8116509 50.5302038,63.6662189 C50.7566606,63.481365 50.8868312,63.375114 50.9894562,63.2910622 C51.3773003,62.9734105 51.6680584,62.7304668 51.9604866,62.4771952 C52.9891897,61.5862938 53.9305043,60.4599303 54.7923049,59.1526982 C55.5393047,58.0196029 56.1868521,56.8127767 56.735455,55.6064734 C56.9274817,55.184233 57.0938084,54.791325 57.2341802,54.4371714 C57.320006,54.2206357 57.3791222,54.0621431 57.411192,53.9711758 L57.580034,53.492249 L57.353807,53.0376063 L30.6966495,-0.534586707 L29.9541503,-2.02676806 L28.7745447,-0.849295725 C28.729815,-0.804646921 28.6455947,-0.719704905 28.5241727,-0.595909306 C28.323584,-0.391399365 28.0903814,-0.150924213 27.8268532,0.12407775 C27.0759214,0.907704739 26.2312212,1.81211066 25.3110531,2.82580864 C22.6838942,5.72000317 19.9753384,8.91276931 17.3316138,12.3128295 C16.1268298,13.8622329 14.7837189,15.6491295 13.3258695,17.6360946 C12.9886763,18.0956694 12.6461619,18.564843 12.2987059,19.0430157 C10.222412,21.9004342 8.05476428,24.9605022 5.9245169,28.0203759 C5.17903021,29.0911882 4.49140871,30.0855734 3.87779536,30.9781156 C3.66293561,31.2906436 3.47264047,31.5681673 3.30892889,31.8075082 C3.14298941,32.0503335 3.14298941,32.0503335 3.10765914,32.1022155 L1.11165143,35.0333587 L4.47742946,33.9165841 L10.4646812,31.9299973 L10.4646809,31.9299974 Z"/>
          </g>
          <path fill="#E6F9FF" d="M35.9060807,28.2755998 C35.9060807,28.2755998 42.0041179,40.0723694 45.8889915,43.7662197 C49.7738651,47.4600699 55.6667233,53.8629366 55.6667233,53.8629366 C55.6667233,53.8629366 56.560779,57.7260043 52.3972871,61.3506813 C48.2337952,64.9753583 43.7196338,69.8040213 44.7310344,75.8253093 C45.7424351,81.8465972 49.1435113,91.0137845 45.8889915,92.0748696 C42.6344718,93.1359547 39.0433553,91.5047535 37.474718,90.3458607 C35.9060807,89.1869679 35.4222834,89.4475622 35.4222834,89.4475622 C35.4222834,89.4475622 33.5302854,93.8972917 29.4109215,93.5346953 C25.2915575,93.1720989 22.9765798,86.9785724 22.9765798,86.9785724 C22.9765798,86.9785724 25.9588445,93.5346953 16.8192029,93.5346953 C7.67956121,93.5346953 10.4136311,84.7585945 10.4136311,84.7585945 C10.4136311,84.7585945 11.0527664,88.4971488 4.25855245,87.6059575 C-2.53566146,86.7147662 3.86110781,84.8448198 7.62841413,82.1142469 C11.3957204,79.3836741 10.4136311,83.8429341 10.4136311,83.8429341 C10.4136311,83.8429341 13.2136648,93.9419032 18.8868493,86.182276 C24.5600338,78.4226489 22.9765798,86.7810266 22.9765798,86.7810266 C22.9765798,86.7810266 26.8321421,94.1088841 31.3177361,87.6059575 C35.8033302,81.1030309 36.9912428,86.4663688 39.2485344,78.6468988 C41.505826,70.8274287 38.1488778,57.9718262 35.4222834,55.4368688 C32.695689,52.9019114 32.1477933,51.4569953 32.1477933,51.4569953 C32.1477933,51.4569953 32.8129341,56.1543399 33.5312219,57.1060348 C34.2495096,58.0577297 29.8666661,54.2966367 28.8697601,52.1841185 C27.872854,50.0716004 28.1807837,43.9756697 31.8015335,37.0139477 C35.4222834,30.0522256 35.9060807,28.2755998 35.9060807,28.2755998 Z" style="mix-blend-mode:darken"/>
        </g>
        <g transform="rotate(31 -263.383 158.223)">
          <g transform="translate(.233 16.388)" stroke-linecap="round" stroke-linejoin="round">
            <use fill="url(#c)" xlink:href="#d"/>
            <path stroke="#297BCC" stroke-width="2.4" d="M3.72361628,22.5287303 L6.55598987,26.3437272 C13.032987,35.2225623 29.4195148,42.766 43.2270733,43.2277572 L180.937831,47.833129 C195.042572,48.3048247 209.121156,38.0138742 212.494142,24.7095173 L212.848312,23.3054932 C216.285072,9.61288328 207.320756,-1.28848459 193.015257,-0.810062243 L17.8786664,5.04707417 C3.49724165,5.52803572 -3.19592834,13.3688218 3.72361628,22.5287303 Z"/>
            <g>
              <use fill="#C8EAFA" xlink:href="#e"/>
              <path stroke="#297BCC" stroke-width="2.4" d="M1.61406059,26.2706206 L4.44643418,30.0856175 C10.9234314,38.9644526 27.3099592,46.5078902 41.1175176,46.9696475 L178.828275,51.5750192 C192.933017,52.046715 207.011601,41.7557644 210.384586,28.4514076 L210.738756,27.0473835 C214.175516,13.3547735 205.211201,2.45340566 190.905702,2.931828 L15.7691107,8.78896441 C1.38768596,9.26992596 -5.30548402,17.110712 1.61406059,26.2706206 Z"/>
            </g>
          </g>
          <path fill="#82C2DC" d="M21.5678106,28.082116 C21.5678106,28.082116 24.9939409,34.3821526 28.6083274,35.9591457 C32.222714,37.5361388 33.8371245,39.4495872 33.8371245,39.4495872 L37.2302778,59.7714772 L46.6752679,63.2362785 L57.7795893,63.331179 C57.7795893,63.331179 56.8868969,60.9564046 53.2964895,58.2739282 C49.706082,55.5914518 44.3838475,53.9006085 44.3838475,53.9006085 L41.0750481,36.7274476 C41.0750481,36.7274476 44.1187498,35.3914212 46.7075341,32.3683699 C49.2963184,29.3453185 49.4366719,24.6316796 49.4366719,24.6316796 L21.5678106,28.082116 Z" style="mix-blend-mode:multiply" opacity=".577"/>
          <g transform="rotate(-9 44.479 -86.763)">
            <g stroke-width="2.4" transform="translate(3.508 56.179)">
              <path fill="url(#f)" stroke="#1655A9" d="M0.0279919517,14.2676401 C0.427210747,17.819717 5.04125996,20.9037517 10.303991,20.9037517 C15.5667221,20.9037517 20.1807713,17.819717 20.5799901,14.2676401 L20.6079821,14.2676401 L20.597962,14.0675881 C20.6046167,13.9686727 20.6079821,13.8694353 20.6079821,13.7699317 C20.6079821,13.5214847 20.5870014,13.2761488 20.546222,13.0345992 L20.2755953,7.63152841 L14.6687585,7.63152841 C13.3290079,7.20614332 11.8442829,6.96791724 10.303991,6.96791724 C8.76369919,6.96791724 7.27897414,7.20614332 5.93922361,7.63152841 L0.332386808,7.63152841 L0.0617600419,13.0345992 C0.0209807096,13.2761488 1.23989707e-13,13.5214847 1.23989707e-13,13.7699317 C1.23989707e-13,13.8694353 0.00336535224,13.9686727 0.0100201177,14.0675881 L-1.9220181e-13,14.2676401 L0.0279919517,14.2676401 Z"/>
              <ellipse cx="10.304" cy="6.802" fill="#297BCC" stroke="#1655A9" rx="9.972" ry="6.802"/>
              <ellipse cx="10.47" cy="6.304" fill="url(#g)" stroke="#297BCC" rx="5.152" ry="2.986"/>
            </g>
            <rect width="4.385" height="42.678" x="11.839" y="21.339" fill="url(#f)" rx="2.192"/>
            <g stroke-width="2.4">
              <path fill="url(#f)" stroke="#1655A9" d="M0.0369255533,18.7262776 C0.563554602,23.3883785 6.65017271,27.4361741 13.5924988,27.4361741 C20.5348249,27.4361741 26.621443,23.3883785 27.1480721,18.7262776 L27.1849976,18.7262776 L27.1717796,18.4637094 C27.1805582,18.3338829 27.1849976,18.2036338 27.1849976,18.0730353 C27.1849976,17.7469487 27.1573209,17.4249453 27.1035269,17.1079114 L26.7465299,10.016381 L19.3502771,10.016381 C17.5829446,9.45806279 15.6243721,9.14539138 13.5924988,9.14539138 C11.5606255,9.14539138 9.60205304,9.45806279 7.83472327,10.0163802 L0.438467704,10.016381 L0.0814706936,17.1079114 C0.0276766808,17.4249453 -2.80664381e-14,17.7469487 -2.80664381e-14,18.0730353 C-2.80664381e-14,18.2036338 0.00443940083,18.3338829 0.0132180276,18.4637094 L1.1937118e-13,18.7262776 L0.0369255533,18.7262776 Z"/>
              <ellipse cx="13.592" cy="8.928" fill="#297BCC" stroke="#1655A9" rx="13.154" ry="8.928"/>
              <ellipse cx="13.812" cy="8.274" fill="url(#g)" stroke="#297BCC" rx="6.796" ry="3.919"/>
            </g>
          </g>
          <g transform="rotate(15 85.94 663.383)">
            <g stroke-width="2.4" transform="translate(3.508 56.179)">
              <path fill="url(#f)" stroke="#1655A9" d="M0.0279919517,14.2676401 C0.427210747,17.819717 5.04125996,20.9037517 10.303991,20.9037517 C15.5667221,20.9037517 20.1807713,17.819717 20.5799901,14.2676401 L20.6079821,14.2676401 L20.597962,14.0675881 C20.6046167,13.9686727 20.6079821,13.8694353 20.6079821,13.7699317 C20.6079821,13.5214847 20.5870014,13.2761488 20.546222,13.0345992 L20.2755953,7.63152841 L14.6687585,7.63152841 C13.3290079,7.20614332 11.8442829,6.96791724 10.303991,6.96791724 C8.76369919,6.96791724 7.27897414,7.20614332 5.93922361,7.63152841 L0.332386808,7.63152841 L0.0617600419,13.0345992 C0.0209807096,13.2761488 3.90798505e-14,13.5214847 3.90798505e-14,13.7699317 C3.90798505e-14,13.8694353 0.00336535224,13.9686727 0.0100201177,14.0675881 L1.59872116e-14,14.2676401 L0.0279919517,14.2676401 Z"/>
              <ellipse cx="10.304" cy="6.802" fill="#297BCC" stroke="#1655A9" rx="9.972" ry="6.802"/>
              <ellipse cx="10.47" cy="6.304" fill="url(#g)" stroke="#297BCC" rx="5.152" ry="2.986"/>
            </g>
            <rect width="4.385" height="42.678" x="11.839" y="21.339" fill="url(#f)" rx="2.192"/>
            <g stroke-width="2.4">
              <path fill="url(#f)" stroke="#1655A9" d="M0.0369255533,18.7262776 C0.563554602,23.3883785 6.65017271,27.4361741 13.5924988,27.4361741 C20.5348249,27.4361741 26.621443,23.3883785 27.1480721,18.7262776 L27.1849976,18.7262776 L27.1717796,18.4637094 C27.1805582,18.3338829 27.1849976,18.2036338 27.1849976,18.0730353 C27.1849976,17.7469487 27.1573209,17.4249453 27.1035269,17.1079114 L26.7465299,10.016381 L19.3502771,10.016381 C17.5829446,9.45806279 15.6243721,9.14539138 13.5924988,9.14539138 C11.5606255,9.14539138 9.60205304,9.45806279 7.83472327,10.0163802 L0.438467704,10.016381 L0.0814706936,17.1079114 C0.0276766808,17.4249453 -6.01829697e-13,17.7469487 -6.01829697e-13,18.0730353 C-6.01829697e-13,18.2036338 0.00443940083,18.3338829 0.0132180276,18.4637094 L-2.39452902e-13,18.7262776 L0.0369255533,18.7262776 Z"/>
              <ellipse cx="13.592" cy="8.928" fill="#297BCC" stroke="#1655A9" rx="13.154" ry="8.928"/>
              <ellipse cx="13.812" cy="8.274" fill="url(#g)" stroke="#297BCC" rx="6.796" ry="3.919"/>
            </g>
          </g>
          <path fill="#82C2DC" d="M181.810145 67.4446742C181.810145 67.4446742 189.551599 66.0472093 190.949855 65.4337302 192.348111 64.8202512 189.745237 60.2158157 187.622048 57.7374762 185.498859 55.2591367 181.514956 54.7079642 181.514956 54.7079642L186.459841 37.4874189C186.459841 37.4874189 193.395077 37.4822734 196.922716 35.2788752 200.450356 33.0754769 203.548055 23.1696066 203.548055 23.1696066L192.845446 19.0788118 181.349539 30.7774539 172.333249 66.9429253 181.810145 67.4446742zM101.003995 24.8992785C101.003995 24.8992785 106.780055 35.9534043 112.610576 34.5013448 118.441097 33.0492853 117.887767 30.7205361 117.887767 30.7205361 117.887767 30.7205361 121.326578 37.537269 128.155828 35.8364817 134.985077 34.1356944 132.908208 31.2270018 132.908208 31.2270018 132.908208 31.2270018 136.456045 36.8623236 142.454994 35.3683179 148.453944 33.8743122 147.244668 26.7675765 147.244668 26.7675765 147.244668 26.7675765 152.514883 27.9253823 155.56107 27.166746 158.607257 26.4081096 160.220593 20.1777762 160.220593 20.1777762L165.153027 16.6451872 107.726268 19.3290168 101.003995 24.8992785z" style="mix-blend-mode:multiply" opacity=".625"/>
        </g>
        <g transform="rotate(31 -160.49 357.189)">
          <g stroke-linecap="round" stroke-linejoin="round">
            <use fill="#FFFFFF" xlink:href="#h"/>
            <path stroke="#297BCC" stroke-width="2.4" d="M23.8356985,104.354049 C23.9627391,104.599038 24.1075615,104.840436 24.2714212,105.076686 C25.5304005,106.891855 27.6721215,108.069282 30.7747051,108.340023 C34.2197899,108.640641 36.6415151,107.25125 38.0737158,104.799096 C39.4159951,106.816215 41.7753894,108.100318 45.2500335,108.341681 C49.2013694,108.616158 51.7311844,106.604183 52.9615173,103.244446 C53.2257811,102.522807 53.4174578,101.771295 53.5481757,101.009438 C55.7443645,102.339021 58.7978789,102.658774 62.7520172,101.502395 C66.3259552,100.457157 67.194166,97.9805019 65.6914371,95.1398975 C65.160614,94.1364842 64.3584434,93.1073715 63.3551208,92.0640221 C62.7336738,91.417783 62.0715035,90.8043087 61.4094389,90.2409998 C61.2717054,90.123811 61.1396414,90.0136609 61.0143342,89.9110458 C61.0280062,89.5859896 61.0415446,89.2204009 61.0542956,88.8174275 C61.2139364,83.7722578 61.1284615,78.1754423 60.6167527,72.8797199 C60.381064,70.4405557 60.0615709,68.18306 59.6493088,66.142614 C59.226844,64.0514765 58.7538544,62.1781067 58.2385249,60.5102687 C57.5701741,58.3471849 56.8556203,56.6024824 56.1260017,55.2301573 C56.5718732,55.3623004 57.0720021,55.5247359 57.6362861,55.7186958 C57.8072758,55.7774697 57.9839561,55.8388404 58.2122536,55.9186136 C60.3335567,56.6598535 61.1594998,56.9281535 61.9899992,57.0746814 C61.9941799,57.077461 61.998393,57.0802331 62.0026394,57.0829981 C62.6069776,57.4765122 63.4738339,57.3129728 63.8142465,56.5601326 C63.9854707,56.1814615 63.9674298,55.9257063 63.8700002,55.4141669 C63.7726333,54.9029572 63.5464013,54.0844257 63.204805,52.9940811 C62.5084558,50.7713968 61.3803247,47.572349 60.0573604,44.0915053 C56.7651503,35.4293901 53.0157309,26.8911075 49.716474,20.9245114 C49.0082125,19.6436748 48.1706177,18.3022128 47.2141186,16.9060969 C45.7186348,14.7232733 43.952057,12.4343974 41.9697702,10.0760585 C39.7238543,7.40407858 37.3203065,4.78154632 34.9169124,2.31716063 C34.0757075,1.45460828 33.2942766,0.673102362 32.5924185,-0.0136139215 C32.3462303,-0.254490909 32.1273913,-0.466482915 31.9383788,-0.647867976 C31.8240989,-0.757536154 31.7446145,-0.833138842 31.7024041,-0.872952289 L31.7024041,-0.872952289 L30.5254398,-1.98308013 L29.8046793,-0.534586707 L-1.07434494,61.5221818 L-1.30058338,61.9768473 L-1.13171557,62.4557921 C-1.09535018,62.5589321 -1.02771332,62.7402507 -0.929212427,62.9887438 C-0.767715156,63.3961609 -0.576249971,63.8484198 -0.355142617,64.334577 C0.276548319,65.7235 1.02210419,67.112946 1.88146685,68.416486 C2.87083299,69.9172242 3.95031857,71.2089644 5.12742362,72.2284532 C5.46465748,72.5205123 5.8002493,72.8009004 6.24832817,73.1678662 C6.36701907,73.2650711 6.51770509,73.3880614 6.78018691,73.6023118 C6.98668501,73.7710715 7.14177004,73.8985895 7.29057476,74.0222997 C10.6997095,76.8565176 11.9900983,79.2608063 12.6025153,85.6417239 C12.8756967,88.4873209 12.4312641,91.0776272 11.2486957,95.0626656 C9.82001079,99.877071 9.73181194,100.221063 9.72407373,101.832466 C9.71245613,104.251713 10.8556809,105.991525 13.3384351,107.018266 C17.2774333,108.647178 20.6631458,107.600855 23.3031583,104.926149 C23.4920906,104.734734 23.669574,104.543394 23.8356985,104.354049 Z"/>
          </g>
          <path fill="#E6F9FF" d="M32.1279546,0.405137637 C32.1279546,0.405137637 44.6389701,13.055012 50.2288559,24.3727098 C55.8187417,35.6904075 63.3705462,57.2891148 63.3705462,57.2891148 L55.079926,54.6238412 C55.079926,54.6238412 59.8629654,65.8716758 59.8629654,70.9542241 C59.8629654,76.0367724 60.7368268,89.9686995 60.7368268,89.9686995 C60.7368268,89.9686995 65.9693968,95.1659436 65.9693968,97.687666 C65.9693968,100.209388 62.2486281,102.085596 58.975671,102.085596 C55.702714,102.085596 52.1407897,98.1384758 52.1407897,98.1384758 C52.1407897,98.1384758 53.1008423,99.928676 53.0867802,100.179193 C53.0727181,100.429709 51.0520688,107.369508 46.1141445,107.965545 C40.4052238,108.654646 37.9949057,103.3727 37.9949057,103.3727 C37.9949057,103.3727 36.8340292,107.616317 31.4751525,107.965545 C26.1162759,108.314774 24.1587524,102.794538 24.1587524,102.794538 C24.1587524,102.794538 21.2667759,107.240312 17.2472751,107.240312 C12.0656023,107.240312 10.7287774,104.00084 10.7287774,103.3727 C10.7287774,102.74456 16.3776173,104.622213 18.6965746,99.2291747 C19.9453062,96.3250863 24.1587524,100.179193 24.1587524,100.179193 C24.1587524,100.179193 25.9724466,105.190462 28.1851123,105.371896 C30.397778,105.553331 30.5132369,101.110726 32.74684,99.2291747 C36.5654761,96.0124175 37.9949057,101.397075 37.9949057,101.397075 C37.9949057,101.397075 41.1520936,106.970048 44.689304,106.004709 C48.2265143,105.039369 44.8769629,101.149213 46.431869,98.1384758 C47.986775,95.1277386 52.1407897,97.687666 52.1407897,97.687666 C52.1407897,97.687666 57.2095859,97.7120855 58.134459,95.2521897 C59.0593321,92.7922939 55.5203671,90.4109524 55.5203671,90.4109524 C55.5203671,90.4109524 52.6111405,62.0799317 41.3913107,56.8791689 C30.1714808,51.6784061 0.375251055,62.2752876 0.375251055,62.2752876 C0.375251055,62.2752876 18.3113089,45.5879501 23.7939802,30.8665286 C29.2766514,16.1451071 32.1279546,0.405137637 32.1279546,0.405137637 Z" style="mix-blend-mode:darken"/>
        </g>
        <g transform="rotate(-15 169.896 -95.059)">
          <g>
            <g stroke-linecap="round" stroke-linejoin="round">
              <use fill="#FFFFFF" xlink:href="#i"/>
              <path stroke="#297BCC" stroke-width="2.4" d="M54.4879993,23.5797389 C37.874595,29.6836266 25.4744783,38.6157798 17.1283487,51.384578 C15.980236,52.5750556 14.6432992,54.3032774 13.0219561,56.6277133 C12.6207253,57.2029371 12.2026013,57.8138935 11.7527063,58.4809701 C11.1089044,59.4355598 8.58812953,63.249261 8.03436584,64.0632883 C7.70146944,64.5525792 7.36072829,65.0695767 7.01266972,65.6128195 C6.2585029,66.789908 5.47481888,68.0825097 4.66850057,69.4722359 C3.29854322,71.8334195 1.92841885,74.3597675 0.622299466,76.8856691 C0.165316004,77.7694285 -0.251145008,78.5902333 -0.618958016,79.3272461 C-0.747878856,79.5855738 -0.861573544,79.8151077 -0.959024106,80.0132396 C-1.01780455,80.1327493 -1.05789277,80.2147982 -1.07948548,80.2592649 L-2.32423974,82.822936 L0.379429598,81.9218283 L6.27582559,79.9566146 C6.11646925,80.7577957 5.96997956,81.5623334 5.83644781,82.3699678 L0.896306492,94.3659475 L-0.102111149,96.7903717 L2.38532961,95.9613309 L4.8183932,95.1504135 C4.99512693,136.896518 38.945002,170.733107 80.7374754,170.733107 C122.639051,170.733107 156.657251,136.719327 156.657251,94.8228964 C156.657251,62.4148996 136.114054,33.8747572 106.033364,23.2355032 C102.892563,21.658983 100.058993,20.2141015 97.8443256,19.0504053 C95.3315184,17.7299574 94.1855286,16.020541 92.3840556,11.7281333 C92.266522,11.4478499 92.2011981,11.2920772 92.1478059,11.1650853 C92.0568731,10.9488046 91.9806381,10.7685539 91.906697,10.5953309 C91.1457385,8.81262212 90.5391017,7.59606843 89.7637824,6.41677922 C88.8873468,5.08372017 87.809256,3.95808817 86.5768827,3.0236118 C85.360055,2.10092335 84.0606331,1.4121128 82.7599781,0.920507499 C81.9706435,0.622164682 81.3441836,0.45345369 80.9589798,0.381106881 L79.2734393,0.0645381702 L79.5535946,1.75651208 C79.5636788,1.81741492 79.5826812,1.94181498 79.6076678,2.12228529 C79.6500152,2.42814772 79.6925254,2.77542722 79.7322794,3.15663855 C79.9077611,4.83937739 79.9713582,6.57062511 79.858599,8.16965203 C79.8032558,8.95446735 79.7061863,9.6794523 79.5647479,10.3314991 C79.2801769,11.6433322 78.4274662,13.0125322 77.1719069,14.3438921 C76.6755897,14.8701729 76.146097,15.3590688 75.612289,15.8008923 L72.7674603,10.5183154 L72.172878,9.41423245 L71.0960208,10.05681 C70.9903788,10.1198482 70.792696,10.239921 70.5111235,10.4142245 C70.0448998,10.7028338 69.5111369,11.0400398 68.9179799,11.4230465 C67.225927,12.5156201 65.3944644,13.7576174 63.4886371,15.1268375 C62.9518566,15.5124561 62.393281,15.9464961 61.8140039,16.425809 C60.9654216,17.1279538 60.0804521,17.9204053 59.1625534,18.7924859 C58.1990497,19.707895 57.2350423,20.6761947 56.2414338,21.7142751 C55.866812,22.1056642 55.5042659,22.4898423 55.1116821,22.9100647 C54.9786999,23.0524092 54.6865506,23.3663763 54.4879993,23.5797389 L54.4879993,23.5797389 Z"/>
            </g>
            <path fill="#E6F9FF" d="M80.5639294,-2.34479103e-13 C80.5639294,-2.34479103e-13 86.2253474,6.21110643 86.4522212,13.3678223 C86.6790949,20.5245383 78.9019261,23.2539845 77.8750615,22.7071974 C76.8481969,22.1604103 74.8591861,14.7373488 74.1751491,13.2094426 C73.491112,11.6815364 71.5123483,9.43688098 71.5123483,9.43688098 C71.5123483,9.43688098 73.5491787,22.1144407 71.0228258,24.7163931 C68.4964729,27.3183456 72.9302196,28.2962774 79.3238538,27.4323718 C85.717488,26.5684661 93.8953714,21.0034483 98.4792287,21.8553229 C103.063086,22.7071974 106.942232,24.1417729 106.942232,24.1417729 C106.942232,24.1417729 96.4010504,19.3973847 94.5008476,16.3034137 C92.6006447,13.2094426 90.8401257,6.04536439 88.0748542,4.05699869 C85.3095826,2.06863298 80.5639294,-2.34479103e-13 80.5639294,-2.34479103e-13 Z" style="mix-blend-mode:darken"/>
            <path fill="#E6F9FF" d="M13.094999,126.365362 C13.094999,126.365362 33.5352922,169.604682 78.7431746,169.604682 C123.951057,169.604682 145.554445,137.767258 151.345585,120.645942 C157.136726,103.524625 156.741566,88.797824 148.540532,62.7012084 C140.339498,36.6045929 105.179002,24.370498 105.179002,24.370498 C105.179002,24.370498 133.580702,47.3379559 138.055464,77.3589333 C138.251233,78.6723363 142.828685,84.0910709 142.928479,85.4301424 C143.028272,86.769214 138.618292,83.2644854 138.636642,84.2364615 C138.691756,87.1557555 143.411485,96.5714488 142.928479,99.5814048 C142.445473,102.591361 137.334078,96.7548025 136.826987,98.5816507 C134.183185,108.106231 128.449926,117.930064 118.297152,127.648658 C98.4616671,146.635886 78.5908625,151.086147 61.5453266,149.276138 C60.519089,149.167165 61.3178795,155.584581 60.3127479,155.432031 C59.3076162,155.279481 54.834958,148.250682 53.0625531,147.83969 C29.4750995,142.370138 13.094999,126.365362 13.094999,126.365362 Z" style="mix-blend-mode:multiply"/>
          </g>
          <g transform="translate(24.996 49.936)">
            <g stroke-linecap="round" stroke-linejoin="round">
              <use fill="#C6F1FF" xlink:href="#j"/>
              <path stroke="#297BCC" stroke-width="2.4" d="M52.7461598,10.8206802 C51.4393874,10.2523013 50.1507767,9.66901453 48.9272509,9.0857111 C47.8589261,8.57639817 46.8746324,8.0830711 45.9925064,7.61177266 C44.9437264,7.05143506 44.0547185,6.53035259 43.3510406,6.05900198 C41.5907199,4.87995993 40.0438841,3.26796161 38.7375089,1.43554197 L38.3154008,0.843461621 L37.5951843,0.943574022 C15.6560621,3.99318213 0.362262361,12.841835 0.362262361,23.4308238 C0.362262361,36.7309051 24.4481216,47.0225769 53.9664001,47.0225769 C83.4845423,47.0225769 107.570538,36.7308752 107.570538,23.4308238 C107.570538,10.2262583 83.8222442,-0.0245713917 54.5482161,-0.159663025 L53.9114644,-0.16260146 L53.5520774,0.363043233 C52.3504865,2.12050778 51.5886525,4.01923146 51.5135671,6.00790308 C51.4522016,7.63017292 51.9131278,9.24671919 52.7461598,10.8206802 Z"/>
            </g>
            <path fill="#5588BB" d="M20.4301351,41.4237192 C20.4301351,41.4237192 -5.96375542,34.3239248 1.97671893,18.8376941 C9.91719329,3.35146332 37.3790129,1.68142963 37.3790129,1.68142963 C37.3790129,1.68142963 41.7479758,7.47287568 43.5571905,7.41071818 C44.0763241,7.39288279 53.815098,11.6359596 53.815098,11.6359596 C53.815098,11.6359596 52.5465176,9.8937542 52.5866804,6.47325924 C52.6268432,3.05276428 52.9818062,6.33849216 52.9926402,6.21133837 C53.2091987,3.66969603 52.8685154,1.59487028 54.6304275,0.878397013 C59.2695862,-1.00809503 60.7528352,0.878397013 60.7528352,0.878397013 C60.7528352,0.878397013 58.2874639,5.00244586 60.697357,9.50370614 C63.1072501,14.0049664 65.021861,13.884962 64.0934966,14.9074441 C63.1651321,15.9299262 60.3096386,16.5448148 54.6304275,13.1421342 C48.9512165,9.73945362 40.1106287,5.27951991 40.1106287,5.27951991 C40.1106287,5.27951991 17.7074544,9.48778878 12.7599289,18.3214908 C3.49445775,34.8647936 20.4301351,41.4237192 20.4301351,41.4237192 Z" opacity=".196" style="mix-blend-mode:multiply"/>
          </g>
          <g transform="translate(45.826 65.02)">
            <path fill="#297BCC" d="M8.02360004,0 C12.4518333,0 16.0472001,3.59469764 16.0472001,8.02257291 C16.0472001,12.4502393 12.4518333,16.0451458 8.02360004,16.0451458 C3.59515787,16.0451458 0,12.4502393 0,8.02257291 C0,3.59469764 3.59515787,0 8.02360004,0 Z"/>
            <path fill="#297BCC" d="M11.3706759,0.730299641 C14.1297138,1.99967058 16.0472001,4.78894599 16.0472001,8.02257291 C16.0472001,12.4502393 12.4518333,16.0451458 8.02360004,16.0451458 C7.04861698,16.0451458 6.12874793,15.7792616 5.24929828,15.5518645 C4.65616263,15.3984989 10.8889291,14.5253768 12.4831049,10.3515785 C14.6634358,4.64313564 11.3706759,0.730299641 11.3706759,0.730299641 Z" opacity=".48" style="mix-blend-mode:multiply"/>
            <path fill="#FFFFFF" d="M6.0948165,2.6008105 C8.30882864,2.6008105 10.1066165,4.39815932 10.1066165,6.61209695 C10.1066165,8.82603458 8.30882864,10.6233834 6.0948165,10.6233834 C3.88059542,10.6233834 2.08301648,8.82603458 2.08301648,6.61209695 C2.08301648,4.39815932 3.88059542,2.6008105 6.0948165,2.6008105 Z"/>
            <g transform="translate(50.513)">
              <path fill="#297BCC" d="M8.02360004,0 C12.4518333,0 16.0472001,3.59469764 16.0472001,8.02257291 C16.0472001,12.4502393 12.4518333,16.0451458 8.02360004,16.0451458 C3.59515787,16.0451458 0,12.4502393 0,8.02257291 C0,3.59469764 3.59515787,0 8.02360004,0 Z"/>
              <path fill="#297BCC" d="M11.36857,0.728239638 C14.1276078,1.99761058 16.0450942,4.78688598 16.0450942,8.0205129 C16.0450942,12.4481792 12.4497273,16.0430858 8.02149411,16.0430858 C7.04651105,16.0430858 6.126642,15.7772016 5.24719235,15.5498045 C4.6540567,15.3964389 10.8868232,14.5233168 12.480999,10.3495185 C14.6613299,4.64107563 11.36857,0.728239638 11.36857,0.728239638 Z" opacity=".48" style="mix-blend-mode:multiply"/>
              <path fill="#FFFFFF" d="M6.0948165,2.6008105 C8.30882864,2.6008105 10.1066165,4.39815932 10.1066165,6.61209695 C10.1066165,8.82603458 8.30882864,10.6233834 6.0948165,10.6233834 C3.88059542,10.6233834 2.08301648,8.82603458 2.08301648,6.61209695 C2.08301648,4.39815932 3.88059542,2.6008105 6.0948165,2.6008105 Z"/>
            </g>
          </g>
          <g transform="translate(33.328 101.952)">
            <mask id="l" fill="white">
              <use xlink:href="#k"/>
            </mask>
            <use fill="#297BCC" xlink:href="#k"/>
            <g transform="translate(30.724 13.524)" mask="url(#l)">
              <mask id="n" fill="white">
                <use xlink:href="#m"/>
              </mask>
              <use fill="#82C2DC" xlink:href="#m"/>
              <path fill="#2268AC" d="M18.3122953,14.2101162 C18.3122953,14.2101162 28.2310029,12.4730419 29.3836567,8.26486218 C30.5363104,4.05668247 28.5438609,0.342073293 28.5438609,0.342073293 C28.5438609,0.342073293 35.3995997,1.20862268 38.4899467,3.05653052 C41.5802937,4.90443835 44.8791725,7.71310406 44.8791725,7.71310406 C44.8791725,7.71310406 36.8982787,11.566737 32.331324,12.8884266 C27.7643694,14.2101162 18.3122953,14.2101162 18.3122953,14.2101162 Z" opacity=".165" style="mix-blend-mode:multiply" mask="url(#n)"/>
            </g>
            <path fill="#2268AC" d="M30.0999636,25.9948033 C30.0999636,25.9948033 21.9581264,18.7462016 42.0244507,12.2903535 C49.786901,9.79297536 70.5669448,11.6988099 71.2711462,11.8502066 C79.639595,13.6493441 85.4987333,16.2585349 85.4987333,16.2585349 C85.4987333,16.2585349 101.199798,4.23440621 96.4906552,0.707577442 C91.7815123,-2.81925133 57.0656204,5.67229168 51.2301134,5.67229168 C45.3946065,5.67229168 0.937464241,-1.20473228 -0.244081875,2.48137525 C-1.42562799,6.16748278 4.39484355,14.4177103 13.738877,18.7462016 C23.0829105,23.0746929 30.0999636,25.9948033 30.0999636,25.9948033 Z" opacity=".522" style="mix-blend-mode:multiply" mask="url(#l)"/>
          </g>
        </g>
      </g>
      <path fill="#C8EAFA" d="M103.707302,274.236758 C103.707302,274.236758 51.7541582,251.110191 23.0754552,189.227916 C-5.6032477,127.345641 0.556097817,58.3287257 0.556097817,58.3287257 C0.556097817,58.3287257 -3.50662032,132.304806 25.6849261,187.421331 C54.8764726,242.537857 102.743379,267.077622 102.743379,267.077622 L103.707302,274.236758 Z"/>
      <path fill="#C8EAFA" d="M99.0303969,218.114839 C99.0303969,218.114839 98.3507395,217.906682 98.008071,217.799091 C79.7991183,212.081807 56.3029723,199.702218 36.8559953,172.956552 C-0.884563766,121.051499 0.556097817,58.3287257 0.556097817,58.3287257 C0.556097817,58.3287257 -1.07616704,114.259295 38.3967499,169.478616 C57.9231774,196.794461 80.5088841,208.020597 98.3488852,212.39112 C98.6807235,212.472415 99.339424,212.627949 99.339424,212.627949 L99.0303969,218.114839 Z"/>
      <path fill="#C8EAFA" d="M67.1088215,148.841832 C67.1088215,148.841832 51.9913325,143.165097 29.8221731,121.621695 C7.65301378,100.078293 0.556097817,58.3287257 0.556097817,58.3287257 C0.556097817,58.3287257 10.7398086,100.755402 31.6655287,118.13848 C52.5912489,135.521558 65.1507737,140.010294 65.1507737,140.010294 L67.1088215,148.841832 Z"/>
    </g>
  </g>
</svg>
