<svg xmlns="http://www.w3.org/2000/svg" width="292" height="252" viewBox="0 0 292 252" xmlns:xlink="http://www.w3.org/1999/xlink">
  <defs>
    <rect id="a" width="292" height="252"/>
    <path id="c" d="M0.208292428,0.323198037 C0.208292428,0.323198037 2.6362163,10.3616608 3.12876197,18.9238882 C3.62130764,27.4861156 0.400338627,37.7911468 10.4290035,41.197126 C26.1584573,46.4715726 32.0258105,29.6681197 45.7235523,30.4737348 C59.421294,31.27935 60.1605786,43.9894069 76.039816,41.5458112 C88.6706331,39.6021026 81.6069805,29.3878651 81.6069805,22.5578659 C81.6069805,15.7278666 83.5094187,1.77299431 83.5094187,1.77299431 L0.208292428,0.323198037 Z"/>
    <path id="d" d="M29.5564211,84.4197039 C29.5564211,84.4197039 24.9508545,89.0265279 19.7843973,95.6848973 C14.6177602,102.343267 7.5691876,112.7157 7.5691876,112.7157 L15.8754438,109.953914 C15.8754438,109.953914 13.8336654,112.748164 11.9666703,115.017218 C10.0996752,117.286272 9.03495517,119.620074 9.03495517,119.620074 L14.4096763,119.159807 C14.4096763,119.159807 10.5765042,126.243635 9.03495517,133.889091 C7.49358618,141.534727 8.05771679,151.840428 8.05771679,151.840428 C8.05771679,151.840428 0.505494751,157.564555 6.10342003,159.205251 C11.7013453,160.845765 13.4324379,157.824267 13.4324379,157.824267 C13.4324379,157.824267 13.2184138,164.657401 18.807159,164.268374 C24.3959041,163.879347 24.18188,159.665518 24.18188,159.665518 C24.18188,159.665518 24.604348,164.701408 29.5564211,164.268374 C34.5084943,163.83534 34.442433,160.125786 34.442433,160.125786 C34.442433,160.125786 37.1255635,165.475675 42.2601601,163.347839 C47.3949366,161.220003 41.5721871,155.339328 42.2601601,148.158107 C42.948133,140.976887 45.289977,140.030561 48.1234103,137.571412 C50.9570236,135.112263 52.520893,130.667037 52.520893,130.667037 L29.5564211,84.4197039 Z"/>
    <path id="e" d="M156.652219,84.4197039 C156.652219,84.4197039 165.816551,93.081644 169.880488,100.446286 C175.33135,110.324545 181.356424,127.745817 180.197742,126.112877 C178.411568,125.869217 175.33333,124.261346 173.527176,124.357295 C173.527176,124.357295 175.632316,126.243635 177.173685,133.889091 C178.715234,141.534727 178.150923,151.840428 178.150923,151.840428 C178.150923,151.840428 185.703685,157.564555 180.1054,159.205251 C174.507475,160.845765 172.776382,157.824267 172.776382,157.824267 C172.776382,157.824267 172.990406,164.657401 167.401661,164.268374 C161.812916,163.879347 162.02694,159.665518 162.02694,159.665518 C162.02694,159.665518 161.604472,164.701408 156.652219,164.268374 C151.700146,163.83534 151.766207,160.125786 151.766207,160.125786 C151.766207,160.125786 149.083257,165.475675 143.94848,163.347839 C138.813883,161.220003 144.636453,155.339328 143.94848,148.158107 C143.260687,140.976887 140.918843,140.030561 138.08523,137.571412 C135.251796,135.112263 133.687747,130.667037 133.687747,130.667037 L156.652219,84.4197039 Z"/>
    <path id="f" d="M47.5279139,19.8961124 C48.7411367,18.594125 52.215742,14.7709462 55.29704,12.5527523 C59.01645,9.87501215 61.7771619,8.22421701 61.7771619,8.22421701 L64.8012187,13.8513129 C64.8012187,13.8513129 68.8232144,11.1640139 69.5533081,7.79136348 C70.2834019,4.41853273 69.5533081,0 69.5533081,0 C69.5533081,0 73.8751894,0.813403919 76.4654381,4.7613888 C79.0555068,8.70919332 79.3049915,13.6435432 83.8095762,16.0155805 C86.0034575,17.1707583 88.7249287,18.5528236 90.9395103,19.6665196 C115.966641,28.5086351 133.922519,52.4252353 133.922519,80.510756 C133.922519,116.106646 105.079496,145.005932 69.5533081,145.005932 C34.02694,145.005932 5.1840975,116.106646 5.1840975,80.510756 C5.1840975,80.1240735 5.18751756,79.7381125 5.19435769,79.3530532 L1.7280325,80.510756 L6.02885339,70.0454399 C6.24449744,68.723433 6.50028225,67.4149529 6.7949478,66.1214423 L0,68.3908572 C0,68.3908572 4.05763631,60.016404 7.77614625,54.5395444 C9.92196661,51.3786315 13.188128,46.0981792 15.5668728,43.6615745 C23.1217949,32.0324235 34.3169254,24.7222488 47.5279139,19.8961124 Z"/>
    <path id="g" d="M46.9871482,0.898081956 C71.6749725,1.01224707 91.6355479,9.62945902 91.6355479,20.2271562 C91.6355479,30.8957331 71.4067675,39.5573126 46.4906989,39.5573126 C21.5744503,39.5573126 1.3458498,30.8957331 1.3458498,20.2271562 C1.3458498,11.6443922 14.437496,4.36072982 32.5296363,1.84062051 C33.4755541,3.17020226 34.8997409,4.83560621 36.7705161,6.09124214 C40.435745,8.55147338 48.4347354,11.718338 48.4347354,11.718338 C48.4347354,11.718338 45.2825161,8.62072994 45.4106786,5.22553509 C45.4751198,3.51522259 46.2419342,1.99031569 46.9871482,0.898081956 Z"/>
    <path id="h" d="M64.8796635,3.92602677 C76.4920419,0.751767574 83.0236447,-2.68851619 82.9457033,3.21217916 C82.877662,8.34798626 64.3623338,24.6384287 41.4729233,24.6384287 C18.5833328,24.6384287 -0.0596178481,9.21387367 0.000143275883,4.07788622 C0.0588243795,-0.983975068 6.65378841,1.92353814 18.3941492,4.56755177 C19.9909593,7.65433848 22.1079791,11.1557628 23.2326402,11.2199694 C24.2941202,11.2803885 26.9486301,8.76749347 29.1137108,6.50421059 C32.9121423,7.00091001 37.0403399,7.32428767 41.4729233,7.32428767 C45.8468255,7.32428767 49.9303823,6.94590154 53.6960532,6.36118857 C55.8848943,8.66018187 58.629766,11.281651 59.7135663,11.2199694 C60.917069,11.1514343 63.256753,7.14663737 64.8796635,3.92602677 Z"/>
    <path id="j" d="M0,10.196947 C2.25526242,4.34476728 10.5132777,0 20.3434426,0 C28.0834082,0 34.8486554,2.69343107 38.4766236,6.69534228 C31.7849978,9.93110275 23.662525,12.3191917 14.8987002,12.3191917 C9.65124152,12.3191917 4.62698702,11.5084931 0,10.196947 Z"/>
  </defs>
  <g fill="none" fill-rule="evenodd">
    <mask id="b" fill="white">
      <use xlink:href="#a"/>
    </mask>
    <g transform="translate(-81)" opacity=".314" mask="url(#b)">
      <g transform="translate(175.131)">
        <path stroke="#81BFF1" stroke-width="2" d="M35.7787828 133.012119C31.3877993 117.81624 33.1076728 126.184571 31.2980657 107.737176M37.3580058 107.75112C39.7964318 117.766145 39.2910341 122.391128 43.897497 124.11135 48.5039599 125.831572 70.6711778 100.346273 81.6165752 89.2829502M72.6110652 114.587926C77.1067868 108.309592 81.6025084 102.031258 86.0982301 95.7529236M73.8920739 113.904674C107.971634 113.248931 95.3094923 121.315306 114.351693 95.6896397M69.6242331 125.296847C104.064751 126.886869 100.810747 129.420084 119.217838 97.3468196M56.9051108 154.409582C50.3585509 141.581227 61.8373694 137.38087 70.904304 125.745198M17.2135344 153.297288C30.6044536 142.128442 24.4555315 148.429382 35.6512446 134.382912M34.9254022 74.5045527C35.2889603 69.3377079 34.6516633 72.315346 38.2123242 66.1113925M38.5958766 74.229965C39.9615982 71.6406885 41.3273197 69.051412 42.6930413 66.4621355M39.6758268 10.0615794C47.5805949.844122111 49.881855.0426314951 73.9466352.872852534 98.0114155 1.70307357 97.6663644-.105539219 104.405116 9.62214707" stroke-linecap="round" stroke-linejoin="round"/>
        <path stroke="#81BFF1" stroke-width="2" d="M38.7922728,10.1626926 C35.5953066,10.0899723 14.1015025,10.1626926 14.1015025,10.1626926 C14.1015025,10.1626926 4.04122015,14.7893029 2.79927488,26.0740783 C1.5573296,37.3588537 10.9424028,42.7474718 10.9424028,42.7474718 C10.9424028,42.7474718 5.40597417,50.2242737 10.2122402,58.9681027 C15.3463755,68.3084096 28.9418262,65.9003614 38.0860031,66.0312669 C47.23018,66.1621724 68.329927,69.4904301 72.0227908,50.2242737" stroke-linecap="round" stroke-linejoin="round"/>
        <path stroke="#81BFF1" stroke-width="2" d="M50.1542323 50.1242536C53.4413379 50.0893721 63.0369918 50.1247667 72.9844741 50.1242536 82.9319563 50.1237406 93.3332145 51.7841492 94.8561386 44.6532118M89.7602923 44.5903577C109.669327 44.2902975 136.39584 44.7031004 156.294918 43.9230108 157.212271 43.8870484 162.811905 43.9230108 162.173013 38.2366252 161.534121 32.5502396 156.043778 33.7471238 155.138987 33.6586585 147.446286 32.90651 142.046956 34.0489709 134.422059 32.6617374 130.605298 31.9673361 134.422059 19.6738884 128.400607 13.9640009 121.876282 7.77725906 115.705584 11.0032207 105.884077 9.80032486M12.1948608 73.9907857C6.67989732 76.4575574 6.62974843 80.7022175 9.0061341 81.7038069 11.3825198 82.7053963 27.6837562 81.0732036 30.2888423 83.5249369 31.9422207 85.0809865 30.6778361 86.9532367 30.2888423 87.3672371 22.5636534 95.5890418 6.6537822 81.32754.472598643 92.402126-.267700782 93.7284916.106297552 97.2045178 1.30597785 97.9748276L13.5868526 98.7684292C20.5837621 103.261116 14.9957341 107.348991 23.2572052 107.273959 36.5096348 107.153599 44.2746278 106.955657 57.4735381 105.589468 59.302407 105.400166 62.7777109 104.603601 62.4580441 101.335064 62.4055516 100.798336 61.4969894 99.1827555 61.9534292 99.0444408 62.1798051 98.9758423 72.1116718 100.307536 71.3542716 93.3624277 71.1910885 91.8660935 69.7534572 88.9336713 65.1560137 88.9336713 59.0491502 88.9336713 54.7967569 89.8550299 48.73118 89.6737103 47.7766228 89.6451755 46.884547 88.8506958 46.2515902 88.0329443 45.8800795 87.5529694 45.8402933 86.7506444 45.9906813 86.13311 47.890056 78.3337534 59.0605656 86.693623 60.8008428 76.8432699 60.9495942 76.0013043 60.6386122 74.8055912 59.9526501 74.4559062 57.9681731 73.4442732 55.7087743 73.2098648 53.5369682 73.140342 40.797838 72.7325428 28.0488171 73.0645527 15.3047415 73.026658L12.1948608 73.9907857zM101.273254 56.9780863C93.4845883 57.6285147 79.3873935 53.9999861 73.8276493 64.5490026 72.7855272 66.5263173 74.5687222 69.7645327 73.1753772 71.4350822 71.6968556 73.2077539 62.666422 68.8554136 63.8457352 76.4858212 64.0182965 77.6023297 65.1399556 78.447348 66.1074231 78.6944606 70.8270241 79.8999512 75.7053011 80.0586685 80.50424 80.7407724M80.3087973 82.2017209C80.3087973 101.142129 99.5247824 94.8676474 119.911034 95.5623222 140.297287 96.2569969 147.501907 97.5069742 152.249875 87.0261851" stroke-linecap="round" stroke-linejoin="round"/>
        <rect width="7.419" height="2.897" x="19.839" y="25.486" stroke="#81BFF1" stroke-width="2" rx="1.449"/>
        <rect width="7.419" height="2.897" x="55.804" y="16.671" stroke="#81BFF1" stroke-width="2" rx="1.449"/>
        <rect width="7.419" height="2.897" x="80.637" y="30.383" stroke="#81BFF1" stroke-width="2" rx="1.449"/>
        <rect width="7.419" height="2.897" x="101.189" y="79.355" stroke="#81BFF1" stroke-width="2" rx="1.449"/>
        <rect width="7.419" height="2.897" x="145.717" y="70.54" stroke="#81BFF1" stroke-width="2" rx="1.449"/>
        <rect width="7.419" height="2.897" x="122.597" y="62.704" stroke="#81BFF1" stroke-width="2" rx="1.449"/>
        <rect width="7.419" height="2.897" x="46.385" y="37.239" stroke="#81BFF1" stroke-width="2" rx="1.449"/>
        <rect width="7.419" height="2.897" x="28.402" y="52.91" stroke="#81BFF1" stroke-width="2" rx="1.449"/>
        <rect width="7.419" height="2.897" x="34.396" y="90.283" stroke="#81BFF1" stroke-width="2" rx="1.449"/>
        <rect width="7.419" height="2.897" x="108.04" y="20.589" stroke="#81BFF1" stroke-width="2" rx="1.449"/>
        <path stroke="#81BFF1" stroke-width="2" d="M153.454547 87.2890793C162.554978 87.0502337 163.527179 88.0443577 172.606022 87.2890793 186.178557 86.1599662 174.310575 84.8133379 184.909834 81.4403662 189.035393 80.1275014 191.123645 81.6734035 195.333286 80.7752055 195.747656 80.6867926 198.338994 79.6290742 197.700102 77.0312858 197.06121 74.4334973 193.922658 73.026658 193.922658 73.026658 193.922658 73.026658 183.39765 72.9386812 175.27532 71.8909112 171.468408 71.3998245 177.177086 61.7202503 172.07847 59.4015229 163.912308 55.6877493 154.229903 59.3819094 146.155312 57.3388144 143.99738 56.7927981 143.315573 53.3419037 141.436015 52.0120637 137.029065 48.8940229 136.63835 50.7926936 125.869409 50.1340917 115.100468 49.4754897 105.188709 47.7070601 100.550259 56.8031879M40.9743979 151.332653C45.6239276 147.071872 55.7776306 133.6404 60.4271602 129.379619M33.8955727 145.556973C37.7522014 141.355016 41.6088301 137.153058 45.4654589 132.9511M58.264209 118.218024C62.9391048 113.270972 73.7930247 101.910748 78.4679205 96.9636959L58.264209 118.218024zM70.2793964 121.607296C77.0692985 122.908103 84.2150234 122.353826 90.5391363 121.928672M97.5849298 121.886587C105.101585 118.661542 103.443672 117.574316 107.452218 112.624553M34.2760648 111.903849C34.2760648 120.856463 35.6012365 122.835252 36.4829189 125.753619" stroke-linecap="round" stroke-linejoin="round"/>
      </g>
      <g transform="translate(190.297 120.026)" stroke-linecap="round" stroke-linejoin="round">
        <path stroke="#81BFF1" stroke-width="2" d="M.0206959073 75.4660343C12.483539 74.4007099 6.65691579 73.5371368 17.5676267 77.3713782M8.08485131 73.8202723C14.1009451 54.9167723 24.2421018 52.2762743 40.8729559 55.6299272"/>
        <path stroke="#81BFF1" stroke-width="2" d="M39.3401613 55.4841167C43.7812953 44.0530538 46.8361262 36.3905843 58.5397701 33.9466697 72.3471657 31.0634568 86.3426603 50.1574318 77.6360509 64.9951433 67.8260766 81.7131978 45.5142573 73.6901072 50.1479335 61.8474682 54.1629761 51.585918 72.1430257 52.4933609 65.6328701 63.6736952M80.8317993 56.4825588C90.7481869 52.9918361 95.8534681 55.7155511 95.0956381 68.4337855M95.9005694 67.5419224C109.449249 45.3478022 138.594312 72.5445041 127.493836 96.7622076 118.42391 116.5499 83.2807392 113.951986 88.2143722 92.5403927 92.768476 72.7759273 113.38491 84.2909124 106.735173 94.3337769 102.012999 101.465509 97.3819854 93.4785299 97.3819854 93.4785299M74.5080767 27.7215095C80.2571741 22.5945108 85.8495526 19.1629499 90.5449165 15.1310531 95.2402803 11.0991563 107.255313.0204814335 110.509191.372259826 113.875591.736203143 120.594663 5.11352218 128.944111 17.7789095 137.293559 30.4442969 137.73721 30.2944454 141.578376 35.1937474"/>
        <path stroke="#81BFF1" stroke-width="2" d="M97.342563 9.87140045C99.3234418 9.81293027 98.1679079 12.203004 106.223472 19.071984 106.223472 19.071984 112.512404 12.9473792 113.080179 12.9473792 113.647953 12.9473792 117.615902 16.4647736 119.002546 16.9961294 120.38919 17.5274851 124.152655 12.358113 124.152655 12.358113M146.602888 43.8676656C143.095319 44.4596255 138.48654 44.7451438 138.48654 44.7451438 138.48654 44.7451438 136.44102 45.3650017 136.44102 48.5976784 136.44102 51.8303551 138.48654 51.8303551 138.48654 51.8303551 145.768289 54.5484435 150.536583 50.885394 157.962649 52.6441359 163.281288 53.9037682 161.165197 61.6345328 156.5933 62.042972 148.62442 62.754887 140.465408 62.1142425 132.480985 62.042972M135.975377 73.692116C147.355976 73.6879749 158.743853 73.100864 170.117175 73.6796927 174.143853 73.8846246 171.841847 83.1668115 168.112566 83.1668115 146.814662 83.1668115 145.387987 82.420474 145.387987 82.420474 145.387987 82.420474 142.217201 82.4427051 141.340615 86.9307903 140.464029 91.4188754 143.38825 92.7993212 143.883495 92.8181328 155.898626 93.2745192 167.736864 93.2845519 179.751805 92.8181328"/>
      </g>
      <g transform="translate(22.16 116.251)" stroke-linecap="round" stroke-linejoin="round">
        <path stroke="#81BFF1" stroke-width="2" d="M61.7681064 28.3198197C54.687203 27.9967174 56.201415 30.2536416 55.4786826 23.7263528M57.0007534 8.14880451C61.3651466 4.0509186 66.7094378 3.17498659 67.0724453 11.2401077M67.9897198 9.81129688C66.3580802 1.95428548 70.8001315.422909485 75.3091301 5.63489389M74.9416705 5.96445824C78.4262856 1.65093435 83.9765913 3.98134767 80.0215016 9.34079005M81.9609735 10.9608425C87.4003398 12.7503522 91.3555344 16.8248805 85.0051152 20.8462013M78.7495966 24.1916201C81.6982577 25.6406445 86.7714796 28.0083898 85.10958 21.6557036M72.3896132 25.2012712C71.0751596 33.0267123 72.6773177 28.1295785 62.3596156 35.9013718M61.8175898 36.2225529C61.0771402 52.9911163 57.2493497 48.9229498 66.3008718 53.4012915M84.6509428 42.7656367C80.6641218 54.7692178 84.0059191 49.0552876 72.8899447 58.3987236M72.8482504 58.7309077L72.4106894 73.9836072M74.9961938 60.0900332C86.462892 66.616634 82.5625222 69.8892601 82.5446937 87.6691731M83.5664329 89.3479079C92.5735524 94.7518866 90.9028361 96.0444184 90.4684422 109.029554M50.8286234 60.0994643C64.679901 67.8351163 60.9012471 61.4464463 60.7124619 80.2893417M62.4430042 82.2918774C85.6525825 98.8140333 79.0219285 86.6082203 78.2281888 121.438255M90.2135795 47.5461719C96.5307494 47.7135948 100.052153 40.6104709 93.0213621 37.6708863M92.498154 37.9461797C96.276365 31.7913344 89.1267174 29.1769388 84.9554894 32.5530578M84.9004467 33.8624306C82.8611621 29.4654474 78.0944017 31.2150482 76.5871842 35.3281258M76.4045151 37.4557701C69.4579017 39.0997583 71.4182566 41.9545118 77.2476967 44.61824"/>
      </g>
      <g transform="matrix(-1 0 0 1 162.604 22.646)" stroke-linecap="round" stroke-linejoin="round">
        <path stroke="#81BFF1" stroke-width="2" d="M62.5453681 14.3976655C74.444439 9.42490552 85.4854025 9.74159292 92.1437116 22.9663019M46.4846251 2.91606064C39.8852908-2.32050865 25.0487184-.620087842 24.3629505 10.9430391M24.6225715 11.2841708C14.3056267 6.66229726 1.58737498 23.9528848 11.2031219 33.1029577 11.2947851 33.1901819 11.2345597 32.8324254 11.2502786 32.6971593"/>
        <path stroke="#81BFF1" stroke-width="2" d="M10.4719339 32.3690795C-1.04268038 34.943955-2.842207 50.797108 4.29285151 59.9165068 10.8288033 68.2701804 16.1923301 70.0988885 25.4242354 72.010369M24.4572639 72.3093784C27.9276378 80.1620216 30.4376009 83.2048777 38.4664314 83.9802372 42.6903449 84.3881486 45.68102 84.6555344 49.621323 83.0108298 53.7105437 81.303966 55.7844791 76.7021995 59.5978152 75.2359922"/>
        <path stroke="#81BFF1" stroke-width="2" d="M28.9148676 61.9840618C30.8136332 74.5170912 35.881138 73.8096162 47.4044398 75.5711912 49.715728 75.9245194 59.9990146 76.3209143 62.0266444 75.7473932 67.1147372 74.308211 71.7704287 71.2612334 76.8141566 69.6301593 78.1592352 69.1951788 102.298077 60.2892462 101.365179 71.8513719 101.016736 76.1698876 91.922507 79.2695391 90.7756491 71.8869683M77.3416898 26.5164452C81.8445026 28.1802428 84.2230892 31.6790549 84.5022534 37.2457804M63.8191172 19.5775287C70.1931516 21.4501654 78.7130069 27.2211873 80.3752648 35.3769717 80.865699 37.7832625 79.7668469 39.7053463 78.6537861 41.7938083 74.9871266 48.6736471 69.7908103 54.5705558 62.0266444 53.1472663 58.7448523 52.5456639 57.1024457 51.5048505 54.1732401 48.8632447 43.7200056 39.4363461 60.5358098 29.4101654 64.8570829 40.6126025 66.5078663 44.8920816 60.6959763 45.0426934 59.0314166 43.5742194 58.7417799 43.318702 58.8756355 41.910344 58.9371032 42.3230074M63.2060801 18.5090447C58.5814649 1.73423451 38.2193634-2.45840806 33.5844174 15.9846698M32.7822353 16.5915876C25.5536741 14.2942849 15.381915 20.1356332 17.6179877 30.5815491 18.1966952 33.2850073 20.845978 34.6166748 22.5704777 35.9055776M20.7546856 35.9880425C12.2993093 41.3663005 12.5556084 50.2402969 20.447908 57.2722907 23.0914795 59.6276979 25.538956 59.8660197 28.7967168 60.8687093"/>
      </g>
    </g>
    <g transform="translate(20 65)" mask="url(#b)">
      <g transform="rotate(-44 107.713 -161.19)">
        <path fill="#344D6D" stroke="#264063" stroke-width="1.075" d="M0.857003327,13.7766803 C1.71791808,14.0588047 11.0775525,25.4304722 11.0775525,25.4304722 C11.0775525,25.4304722 12.2479464,18.1747489 12.2479464,18.1747489 L1.15100853,11.3158326 C1.15100853,11.3158326 -0.00391142217,13.494556 0.857003327,13.7766803 Z" stroke-linecap="round" stroke-linejoin="round"/>
        <polygon fill="#344D6D" stroke="#264063" stroke-width=".896" points="1.98 10.582 23.198 2.612 22.692 13.41 1.593 13.621" stroke-linecap="round" stroke-linejoin="round" transform="rotate(15 12.395 8.117)"/>
        <path fill="#133A51" d="M1.69801113,7.34552934 L0.257061429,13.5775079 C0.257061429,13.5775079 10.6934786,25.884892 11.2090768,25.884892 C11.7246749,25.884892 12.8489214,18.2444203 12.8489214,18.0329384 C12.8489214,17.8214564 11.7027416,17.3712045 11.7027416,17.3712045 L9.13737923,20.8434353 L2.07353539,13.6906533 L2.94704468,11.7518747 C2.94704468,11.7518747 20.6397204,16.2991525 21.1141105,16.2991525 C21.5885007,16.2991525 24.9643973,5.58661852 24.6900652,5.34352243 C24.4157331,5.10042635 22.238357,5.34202492 22.238357,5.34202492 L16.4358427,12.2701801 C16.4358427,12.2701801 11.4202676,11.6483799 7.18365614,10.3851455 C2.94704468,9.12191113 1.69801113,7.34552934 1.69801113,7.34552934 Z" style="mix-blend-mode:darken"/>
      </g>
      <ellipse cx="118.5" cy="171.5" fill="#F3F8FE" rx="118.5" ry="10.5"/>
      <g transform="translate(9.42)">
        <g transform="translate(51.142 127.079)">
          <g stroke-linecap="round" stroke-linejoin="round">
            <use fill="#FFFFFF" xlink:href="#c"/>
            <path stroke="#297BCC" stroke-width="1.5" d="M-0.520688874,0.499510998 C-0.497844693,0.593962256 -0.454442406,0.777740289 -0.393420106,1.04308016 C-0.291379514,1.48677758 -0.177586906,1.99653723 -0.0549804893,2.56458753 C0.29555495,4.18866044 0.646166849,5.95292098 0.97335386,7.79504506 C1.45683918,10.5171578 1.84614598,13.1694842 2.10716927,15.6603789 C2.22788716,16.8123663 2.31958076,17.9166587 2.37999984,18.9669611 C2.46275909,20.4056166 2.44974425,21.7749878 2.36326424,24.2193684 C2.35507508,24.4496093 2.35507508,24.4496093 2.34678908,24.6800831 C2.15616002,29.9818845 2.24260777,32.2392392 3.01361091,34.7821844 C4.05600249,38.2202308 6.31771787,40.5929073 10.1878156,41.9072868 C14.4102094,43.3231582 18.1801844,43.2951815 21.8870065,42.0383905 C24.6661464,41.0961283 26.6724695,39.9128215 30.993542,36.9535311 C31.0106764,36.9417965 31.0106764,36.9417965 31.0278091,36.9300633 C37.6700604,32.3811337 40.8449812,30.9381039 45.6795181,31.222441 C50.5359348,31.508065 53.3205172,32.9168975 58.2091064,36.7365708 C58.4548863,36.9287145 58.4548863,36.9287145 58.7010966,37.1211458 C64.8788111,41.9462312 68.731378,43.4293075 76.1538879,42.2870855 C80.5818141,41.6056887 83.0722939,39.8731809 83.9561843,37.1017477 C84.6218485,35.0145619 84.4046561,32.8677716 83.4685073,28.905854 C83.4266404,28.7286671 83.3948477,28.5951619 83.3209289,28.2856687 C82.5883973,25.2196659 82.3569805,23.9752439 82.3569805,22.5578659 C82.3569805,20.4723803 82.5363596,17.5732564 82.8589092,14.07324 C82.9879763,12.6727205 83.1376031,11.202731 83.3037413,9.68583595 C83.5113441,7.79035568 83.7338138,5.91887468 83.956275,4.15395421 C84.034125,3.53632237 84.106403,2.97620363 84.1712502,2.48390367 C84.2101135,2.1888654 84.2378313,1.98223147 84.2525449,1.87430313 L84.3665837,1.03779907 L83.52247,1.02310787 L0.221343663,-0.426688398 L-0.748785117,-0.443572793 L-0.520688874,0.499510998 Z"/>
          </g>
          <path fill="#E6F9FF" d="M1.23338574,5.50320945 C1.23338574,5.50320945 25.0067063,22.6295305 41.1839671,22.6295305 C57.361228,22.6295305 63.1094637,24.7925163 66.1914915,28.5802466 C69.2735194,32.3679769 67.5231965,41.7490493 67.5231965,41.7490493 C67.5231965,41.7490493 76.0801287,42.2781425 78.8082413,41.0560336 C81.5363539,39.8339248 83.605978,37.8475701 83.605978,33.8484217 C83.605978,29.8492733 81.5363539,22.6295305 81.5363539,22.6295305 L83.2287222,1.71432973 C83.2287222,1.71432973 66.4386225,17.8086979 39.9996713,17.8086979 C13.5607202,17.8086979 1.23338574,5.50320945 1.23338574,5.50320945 Z" style="mix-blend-mode:multiply"/>
        </g>
        <g stroke-linecap="round" stroke-linejoin="round">
          <use fill="#FFFFFF" xlink:href="#d"/>
          <path stroke="#297BCC" stroke-width="1.5" d="M13.8424603,111.420241 C13.3151481,112.113789 12.7849232,112.798528 12.2697303,113.447661 C12.1192937,113.637208 11.9715488,113.821914 11.8267815,114.001354 C11.6767788,114.187284 11.5302626,114.367201 11.3875175,114.540687 C11.3355573,114.603837 11.2838656,114.667436 11.2324431,114.731472 C10.4295273,115.731348 9.72021656,116.799111 9.1096712,117.86684 C8.89582342,118.24082 8.70929497,118.58866 8.55090865,118.901825 C8.45456448,119.092319 8.38817406,119.230824 8.35261062,119.308777 L7.81969836,120.476888 L9.09894767,120.367339 L13.1297471,120.022159 C13.0219021,120.242174 12.9096658,120.47486 12.7936273,120.719595 C12.0817393,122.221025 11.3701776,123.87037 10.7058338,125.618379 C9.66045185,128.368968 8.83144545,131.103863 8.29975094,133.740852 C7.99425502,135.2562 7.7573611,136.933716 7.58254622,138.746791 C7.20270105,142.686315 7.13920433,146.851662 7.25770916,150.605873 C7.26812514,150.935849 7.27924741,151.232074 7.29042774,151.491416 C7.1884866,151.57456 7.07179139,151.671667 6.9429445,151.781531 C6.45400853,152.198434 5.96500805,152.65245 5.50647523,153.130305 C4.76885909,153.899003 4.18004105,154.656035 3.79257205,155.390052 C2.71602068,157.429459 3.32583364,159.172718 5.8924762,159.924975 C8.90658149,160.808281 11.1945147,160.522831 12.8038445,159.458849 C12.8992348,160.091218 13.0498513,160.715872 13.267607,161.311749 C14.1622532,163.759903 15.9896989,165.21631 18.8592397,165.016564 C21.4303552,164.837591 23.1546437,163.883057 24.1213712,162.388663 C24.1531621,162.33952 24.1838602,162.290342 24.2134923,162.24116 C24.2322341,162.276077 24.2513695,162.311022 24.2709048,162.345984 C25.3015516,164.190511 27.0699893,165.238662 29.6217555,165.015523 C31.8883604,164.81732 33.4424919,163.961143 34.3538221,162.644467 C34.5183605,162.406744 34.6543245,162.168681 34.7653742,161.934551 C34.9247802,162.124809 35.1000797,162.318961 35.2914108,162.513206 C37.2174367,164.468561 39.6768984,165.230223 42.5472897,164.0407 C44.3398473,163.29787 45.1551906,162.054499 45.1468323,160.310265 C45.1411787,159.130487 45.0750328,158.871976 44.0189474,155.30586 C43.1345476,152.319479 42.8013527,150.373531 43.0067418,148.229631 C43.4659964,143.435825 44.4443716,141.609123 47.008587,139.472802 C47.1196059,139.380309 47.2352097,139.285052 47.3890683,139.159043 C47.5843764,138.999283 47.696283,138.907749 47.7844743,138.835368 C48.1167476,138.562663 48.3654068,138.354462 48.6150085,138.137831 C49.4795497,137.38754 50.2741727,136.434723 51.0032212,135.326551 C51.6378231,134.361941 52.1888056,133.33294 52.6556512,132.30427 C52.8190554,131.944217 52.9605102,131.609366 53.079752,131.307896 C53.1522951,131.12449 53.201945,130.9911 53.2283869,130.91594 L53.3335002,130.61716 L53.1926358,130.333478 L30.2281639,84.0861448 L29.7639608,83.1513026 L29.0260187,83.8894462 C28.9881878,83.9272874 28.9163406,83.9999013 28.8124499,84.1060438 C28.6404109,84.2818117 28.44028,84.4886141 28.2140295,84.7252077 C27.5688518,85.3998799 26.8429099,86.1787541 26.0519785,87.0518961 C23.7933581,89.5452806 21.4646202,92.2960526 19.1918542,95.2251227 C18.1557504,96.5603746 17.0002407,98.100889 15.7458038,99.8141797 C15.4555847,100.210557 15.1607754,100.615226 14.8617043,101.027669 C13.0742861,103.492663 11.2079803,106.13282 9.37384352,108.772856 C8.73195798,109.696779 8.13990581,110.554745 7.61159944,111.324804 C7.42663292,111.594412 7.26282561,111.833804 7.12191722,112.040237 C6.97913881,112.249606 6.97913881,112.249606 6.94886256,112.294159 L5.70384157,114.126288 L7.80582117,113.427391 L13.8424607,111.420241 L13.8424603,111.420241 Z"/>
        </g>
        <path fill="#E6F9FF" d="M34.9697365,108.825505 C34.9697365,108.825505 40.2230425,119.009317 43.5697635,122.198111 C46.9164846,125.386906 51.993034,130.914317 51.993034,130.914317 C51.993034,130.914317 52.7632405,134.249192 49.1764968,137.378271 C45.589753,140.507351 41.7009163,144.675797 42.5722126,149.873801 C43.4435088,155.071806 46.3734506,162.985575 43.5697635,163.901579 C40.7660765,164.817584 37.6724198,163.409414 36.3210782,162.408976 C34.9697365,161.408537 34.5529572,161.6335 34.5529572,161.6335 C34.5529572,161.6335 32.9230485,165.474824 29.3743199,165.161805 C25.8255913,164.848786 23.8312961,159.502093 23.8312961,159.502093 C23.8312961,159.502093 26.4004422,165.161805 18.5268704,165.161805 C10.6532986,165.161805 13.0086312,157.585649 13.0086312,157.585649 C13.0086312,157.585649 13.5592301,160.813036 7.70618543,160.043696 C1.85314072,159.274356 7.36379685,157.660085 10.6092367,155.30286 C13.8546765,152.945635 13.0086312,156.795186 13.0086312,156.795186 C13.0086312,156.795186 15.4207899,165.513336 20.3080959,158.814673 C25.1954019,152.11601 23.8312961,159.331557 23.8312961,159.331557 C23.8312961,159.331557 27.1527662,165.657486 31.0169928,160.043696 C34.8812195,154.429907 35.9045764,159.059922 37.8491764,152.309598 C39.7937765,145.559275 36.9018498,134.461403 34.5529572,132.273047 C32.2040646,130.084691 31.7320662,128.837337 31.7320662,128.837337 C31.7320662,128.837337 32.3050684,132.892419 32.9238552,133.71399 C33.5426421,134.535561 29.7669325,131.288717 28.9081229,129.465041 C28.0493134,127.641365 28.314587,122.378924 31.4337721,116.369069 C34.5529572,110.359215 34.9697365,108.825505 34.9697365,108.825505 Z" style="mix-blend-mode:multiply"/>
        <g transform="translate(0 81.725)">
          <path fill="#FFFFFF" stroke="#297BCC" stroke-width="1.5" d="M30.2097718,0.365898235 C30.2097718,0.365898235 11.0278335,12.2386024 5.88178421,27.8429963 C0.73573488,43.4473902 0.475620395,64.2637947 0.475620395,64.2637947 C0.475620395,64.2637947 9.70657549,59.2401402 20.5006341,61.1480356 C31.2946927,63.055931 46.6578789,70.4352347 46.6578789,70.4352347 C46.6578789,70.4352347 43.3149843,67.5796148 45.6663661,61.8911777 C48.017748,56.2027406 53.8711432,48.6020204 53.8711432,48.6020204 L30.2097718,0.365898235 Z" stroke-linecap="round" stroke-linejoin="round"/>
          <path fill="#4A9DDF" stroke="#2279CF" stroke-width="1.344" d="M7.12198459,68.0949058 C7.12198459,68.0949058 -0.266494138,67.0565922 0.332128639,64.5465233 C0.930751416,62.0364544 9.61071768,58.3774652 25.1619421,61.6628314 C40.7131664,64.9481976 47.6887563,70.4849281 47.6887563,71.7562753 C47.6887563,73.0276226 44.2127772,74.0191483 44.2127772,74.0191483 L43.4558779,69.3933193 C43.4558779,69.3933193 34.5087806,63.7543469 24.924157,62.3328516 C15.3395334,60.9113562 6.79619102,62.0230835 6.79619102,62.0230835 L7.12198459,68.0949058 Z" stroke-linecap="round" stroke-linejoin="round"/>
          <path fill="#C8EAFA" d="M6.16642918,61.5183947 L6.69775761,66.2304178 C6.69775761,66.2304178 17.9084704,65.847817 26.8289197,67.6857299 C35.749369,69.5236427 44.5794132,73.4328391 44.5794132,73.4328391 L45.5832274,72.9100571 L44.0874189,69.0338819 C44.0874189,69.0338819 33.3602943,63.3148724 25.5646752,61.7019161 C17.7690561,60.0889598 6.16642918,61.5183947 6.16642918,61.5183947 Z" style="mix-blend-mode:multiply"/>
          <path fill="#E6F9FF" d="M25.7560849,61.2964323 C25.7560849,61.2964323 23.7357903,44.6123381 25.1044214,39.7249247 C26.4730525,34.8375112 32.3880157,48.4245089 33.2023015,44.7187515 C34.0165874,41.012994 28.1027925,34.8041839 28.9895113,29.472407 C29.87623,24.1406301 37.0926486,13.4542734 37.0926486,14.2699142 C37.0926486,15.085555 52.8970376,47.0230099 52.8970376,47.0230099 C52.8970376,47.0230099 47.2145607,54.4286779 45.8067924,58.3180277 C44.3990242,62.2073774 43.3090261,67.0918674 43.3090261,67.0918674 C43.3090261,67.0918674 41.8895467,67.6779565 35.7923331,64.6995519 C29.6951195,61.7211472 25.7560849,61.2964323 25.7560849,61.2964323 Z" style="mix-blend-mode:multiply" opacity=".7"/>
        </g>
        <g stroke-linecap="round" stroke-linejoin="round">
          <use fill="#FFFFFF" xlink:href="#e"/>
          <path stroke="#297BCC" stroke-width="1.5" d="M175.233643,125.37319 C175.624798,125.482914 176.074459,125.626965 176.597215,125.807026 C176.724643,125.850917 176.856246,125.896726 177.026236,125.956249 C178.619795,126.514242 179.225176,126.710633 179.84361,126.817198 C179.854003,126.824592 179.864693,126.831876 179.875711,126.839066 C180.257284,127.088045 180.802322,126.985005 181.01633,126.510728 C181.125885,126.267936 181.11343,126.091002 181.04747,125.743968 C180.976384,125.369962 180.809324,124.764261 180.556849,123.956701 C180.039936,122.303321 179.201877,119.921878 178.218949,117.330309 C175.772785,110.8808 172.986885,104.523442 170.537149,100.083938 C170.012782,99.1336829 169.392274,98.1378284 168.683404,97.1009965 C167.574123,95.4785014 166.263147,93.7763868 164.791778,92.0222408 C163.123993,90.0339283 161.338819,88.0820479 159.55374,86.2478522 C158.928952,85.6058722 158.348596,85.0242502 157.827405,84.5132402 C157.513755,84.2057173 157.288837,83.9894257 157.167398,83.8746441 L156.43108,83.1786906 L155.980476,84.0861448 L133.016004,130.333478 L132.875133,130.617174 L132.980262,130.915965 C133.006707,130.991123 133.056361,131.124513 133.12891,131.307917 C133.248161,131.609385 133.389625,131.944234 133.553038,132.304285 C134.019908,133.33295 134.570902,134.361945 135.205498,135.32655 C135.934539,136.434716 136.729131,137.387528 137.593632,138.137831 C137.843261,138.354472 138.091923,138.562663 138.424228,138.835381 C138.512389,138.907732 138.624336,138.999295 138.819653,139.159054 C138.973507,139.285053 139.089123,139.380316 139.20015,139.472812 C141.7644,141.609072 142.742759,143.435779 143.201896,148.229612 C143.407288,150.373541 143.074105,152.319497 142.189731,155.305888 C141.133685,158.871992 141.067541,159.130501 141.061888,160.310273 C141.053529,162.054497 141.868842,163.297864 143.66135,164.0407 C146.531837,165.230221 148.99131,164.468559 150.917291,162.513199 C151.108604,162.318967 151.283888,162.124828 151.443281,161.934582 C151.554328,162.168702 151.690287,162.406755 151.854818,162.644467 C152.766148,163.961143 154.32028,164.81732 156.586885,165.015523 C159.138727,165.238661 160.907214,164.190516 161.937891,162.345993 C161.957431,162.311023 161.976572,162.276069 161.995318,162.241144 C162.024953,162.290332 162.055655,162.339515 162.087449,162.388663 C163.054176,163.883057 164.778465,164.837591 167.34958,165.016564 C170.219121,165.21631 172.046567,163.759903 172.941213,161.311749 C173.158969,160.715872 173.309585,160.091218 173.404976,159.458849 C175.014305,160.522831 177.302238,160.808281 180.316323,159.924981 C182.883117,159.172728 183.492965,157.42945 182.416322,155.39003 C182.028823,154.656015 181.439964,153.898986 180.702298,153.130291 C180.243731,152.652436 179.754695,152.198419 179.265723,151.781516 C179.136868,151.671653 179.020166,151.574547 178.918219,151.491404 C178.929406,151.231989 178.940536,150.935677 178.950958,150.605601 C179.069502,146.851417 179.006023,142.686187 178.626163,138.746786 C178.451336,136.933708 178.214418,135.256187 177.90889,133.740855 C177.595648,132.187123 177.245078,130.795724 176.863298,129.557537 C176.318479,127.79058 175.733022,126.402341 175.138129,125.346764 L175.233643,125.37319 Z"/>
        </g>
        <path fill="#E6F9FF" d="M157.581038,85.1669595 C157.581038,85.1669595 166.885375,94.5941819 171.042527,103.02861 C175.199678,111.463038 180.815892,127.55931 180.815892,127.55931 L174.650227,125.573035 C174.650227,125.573035 178.207333,133.955398 178.207333,137.743128 C178.207333,141.530858 178.857217,151.913521 178.857217,151.913521 C178.857217,151.913521 182.748635,155.786727 182.748635,157.666022 C182.748635,159.545316 179.981531,160.943546 177.54746,160.943546 C175.113389,160.943546 172.464416,158.001984 172.464416,158.001984 C172.464416,158.001984 173.178399,159.336117 173.167941,159.522813 C173.157483,159.709508 171.654743,164.881341 167.98245,165.325533 C163.736774,165.83908 161.94424,161.90275 161.94424,161.90275 C161.94424,161.90275 161.080906,165.065273 157.095555,165.325533 C153.110203,165.585792 151.654409,161.471879 151.654409,161.471879 C151.654409,161.471879 149.50367,164.785058 146.514401,164.785058 C142.660834,164.785058 141.666649,162.370866 141.666649,161.90275 C141.666649,161.434633 145.867644,162.83394 147.592233,158.814819 C148.520904,156.650569 151.654409,159.522813 151.654409,159.522813 C151.654409,159.522813 153.003238,163.257423 154.648779,163.392636 C156.29432,163.527848 156.380186,160.217031 158.041298,158.814819 C160.881186,156.417555 161.94424,160.43043 161.94424,160.43043 C161.94424,160.43043 164.292215,164.583646 166.922808,163.864234 C169.553402,163.144823 167.062369,160.245713 168.218739,158.001984 C169.37511,155.758255 172.464416,157.666022 172.464416,157.666022 C172.464416,157.666022 176.234037,157.68422 176.921858,155.851002 C177.609678,154.017783 174.977779,152.243106 174.977779,152.243106 C174.977779,152.243106 172.814212,131.129629 164.470118,127.253801 C156.126025,123.377972 133.966818,131.275217 133.966818,131.275217 C133.966818,131.275217 147.305714,118.839106 151.383131,107.868079 C155.460548,96.8970517 157.581038,85.1669595 157.581038,85.1669595 Z" style="mix-blend-mode:multiply"/>
        <g transform="matrix(-1 0 0 1 184.83 81.725)">
          <path fill="#FFFFFF" stroke="#297BCC" stroke-width="1.5" d="M28.863922,0.365898235 C28.863922,0.365898235 9.68198375,12.2386024 4.53593441,27.8429963 C-0.610114923,43.4473902 0.542064056,62.8839427 0.542064056,62.8839427 C0.542064056,62.8839427 12.780315,59.5762291 26.5288651,62.8839427 C40.2774152,66.1916563 45.3120291,70.4352347 45.3120291,70.4352347 C45.3120291,70.4352347 41.9691344,67.5796148 44.3205163,61.8911777 C46.6718982,56.2027406 52.5252934,48.6020204 52.5252934,48.6020204 L28.863922,0.365898235 Z" stroke-linecap="round" stroke-linejoin="round"/>
          <path fill="#4A9DDF" stroke="#2279CF" stroke-width="1.344" d="M5.77523777,65.8381777 C5.77523777,65.8381777 -0.386091772,65.8287806 0.212531004,63.3187117 C0.811153781,60.8086428 7.4656009,59.0474854 23.0168253,62.3328516 C38.5680496,65.6182178 45.2920516,69.070922 45.2920516,70.3422692 C45.2920516,71.6136165 43.3335598,72.9018028 43.3335598,72.9018028 L42.1100281,69.3933193 C42.1100281,69.3933193 33.1629308,63.7543469 23.5783072,62.3328516 C13.9936836,60.9113562 5.45034122,62.0230835 5.45034122,62.0230835 L5.77523777,65.8381777 Z" stroke-linecap="round" stroke-linejoin="round"/>
          <path fill="#C8EAFA" d="M4.82057938,61.5183947 L5.35190781,66.2304178 C5.35190781,66.2304178 16.5626206,65.847817 25.4830699,67.6857299 C34.4035192,69.5236427 43.2335634,73.4328391 43.2335634,73.4328391 L44.2373776,72.9100571 L42.7415691,69.0338819 C42.7415691,69.0338819 32.0144445,63.3148724 24.2188254,61.7019161 C16.4232063,60.0889598 4.82057938,61.5183947 4.82057938,61.5183947 Z" style="mix-blend-mode:multiply"/>
          <path fill="#E6F9FF" d="M18.6980599,60.9330844 C18.6980599,60.9330844 17.4136842,48.2876917 16.6379514,40.5867559 C15.8622185,32.8858201 19.7473083,30.9996141 19.7473083,31.7427535 C19.7473083,32.485893 21.4156013,36.7137775 22.2690243,36.0811442 C23.1224473,35.448511 23.3111233,24.1681105 23.9758703,21.9106271 C24.6406173,19.6531437 32.68943,34.4837745 36.2421463,38.6333107 C39.7948627,42.7828469 49.2882442,53.0020373 49.2882442,53.0020373 L48.7338989,44.1966244 L27.0858114,3.29472124 C27.0858114,3.29472124 9.7918751,17.6377215 5.91145833,27.9294133 C2.03104156,38.2211051 2.13121375,60.9330844 2.13121375,60.9330844 C2.13121375,60.9330844 7.01817,60.1259593 9.47588263,60.1259593 C11.9335953,60.1259593 18.6980599,60.9330844 18.6980599,60.9330844 Z" style="mix-blend-mode:multiply" opacity=".7"/>
        </g>
        <g transform="translate(49.796 127.528)">
          <path fill="#FFFFFF" stroke="#297BCC" stroke-width="1.5" d="M2.56631055,5.00933198 C2.56631055,5.00933198 1.62770092,7.66452856 2.26965155,12.195072 C2.91160218,16.7256154 0.287301739,21.6514754 0.287301739,21.6514754 L14.2570699,29.7000929 L17.8364122,16.7256154 L2.56631055,5.00933198 Z" stroke-linecap="round" stroke-linejoin="round"/>
          <path fill="#FFFFFF" stroke="#297BCC" stroke-width="1.5" d="M18.4392889,13.4235983 C18.4392889,14.6110273 9.76610352,30.639579 9.76610352,30.639579 C9.76610352,30.639579 24.0065584,34.054054 47.0604891,31.7181713 C70.1144199,29.3822885 88.6995581,18.2213443 88.6995581,18.2213443 L86.145547,8.08273761 C86.145547,8.08273761 18.4392889,12.2361692 18.4392889,13.4235983 Z" stroke-linecap="round" stroke-linejoin="round"/>
          <polygon fill="#C8EAFA" points="70.05 19.078 72.046 25.325 88.75 18.398 86.487 10.978" style="mix-blend-mode:multiply" opacity=".738"/>
          <path fill="#344D6D" stroke="#264063" stroke-width=".896" d="M4.35915293,3.10754535 L3.00673005,5.91879988 C3.00673005,5.91879988 2.65737056,7.94901029 2.69445627,8.77760636 C2.80787926,11.3117858 3.00673005,12.2521257 3.00673005,12.2521257 C3.00673005,12.2521257 22.7775281,22.950244 46.0153562,22.950244 C69.2531842,22.950244 86.3718355,10.4015248 86.3718355,10.0363322 C86.3718355,9.67113954 87.0796955,0 87.0796955,0 C87.0796955,0 82.8874743,14.4006855 44.6154016,11.475122 C27.293028,10.1509788 4.35915293,3.10754535 4.35915293,3.10754535 Z" stroke-linecap="round" stroke-linejoin="round"/>
          <path fill="#344D6D" stroke="#264063" stroke-width=".896" d="M80.8896015 10.985268L83.5359945 44.624709C83.5359945 44.624709 90.3762672 44.8698956 90.3762672 43.9680744 90.3762672 43.0662532 83.5299675 9.78909332 83.5299675 9.78909332L80.8896015 10.985268zM83.9694874 9.69563335L96.5608092 15.3064622C96.5608092 15.3064622 99.5028758 5.15870922 98.6022959 5.15870922 97.701716 5.15870922 84.5709508 7.20300984 84.5709508 7.20300984L83.9694874 9.69563335z" stroke-linecap="round" stroke-linejoin="round"/>
          <path fill="#133A51" d="M78.3523495,6.91077493 L77.7980151,13.8703373 L80.6201468,12.7636648 L82.2737289,11.0318233 L87.0269952,44.8418728 C87.0269952,44.8418728 88.2648476,45.0897846 89.4119628,44.8047151 C90.5590781,44.5196457 90.8712952,43.967505 90.8712952,43.967505 L84.2610807,11.1513845 L85.1408209,10.6987009 L86.5043142,6.8589813 L93.4019352,6.82066239 L96.5654163,15.5830644 C96.5654163,15.5830644 99.4539319,6.28187532 99.0412661,5.05059012 C98.6286003,3.81930491 86.2353899,6.53508529 86.2353899,6.53508529 L86.6903979,0.181130895 C86.6903979,0.181130895 85.2241642,2.59592646 82.8286961,4.35562137 C80.433228,6.11531627 78.3523495,6.91077493 78.3523495,6.91077493 Z" style="mix-blend-mode:darken"/>
        </g>
        <g transform="translate(23.328)">
          <g stroke-linecap="round" stroke-linejoin="round">
            <use fill="#FFFFFF" xlink:href="#f"/>
            <path stroke="#297BCC" stroke-width="1.5" d="M47.1009678,19.2537789 C32.8006876,24.5075725 22.1422643,32.1959964 14.9779903,43.1914292 C13.9978547,44.2060926 12.8480805,45.69419 11.4504134,47.7021314 C11.1056813,48.1973865 10.7463065,48.7235944 10.3595216,49.2982911 C9.80602186,50.1206978 7.63401005,53.4136044 7.15562291,54.1182953 C6.87035974,54.5384492 6.57825983,54.9825688 6.27979123,55.4493839 C5.63251588,56.4617449 4.95953371,57.5740705 4.2669047,58.7703373 C3.08929108,60.80424 1.91108702,62.9812396 0.787867953,65.1579601 C0.394840113,65.9196207 0.0366841346,66.6269838 -0.279588148,67.2620423 C-0.46967938,67.6437357 -0.603807264,67.9170069 -0.67494613,68.0638286 L-1.45139773,69.6663275 L0.237588412,69.1022304 L5.78247813,67.2503169 C5.60525856,68.1089772 5.44523879,68.9722257 5.30257066,69.8396274 L1.03432743,80.2256713 L0.411515592,81.741178 L1.96562091,81.2221291 L4.43419395,80.3976612 C4.43412965,80.4353525 4.4340975,80.4730508 4.4340975,80.510756 C4.4340975,116.520532 33.6123978,145.755932 69.5533081,145.755932 C105.4941,145.755932 134.672519,116.52047 134.672519,80.510756 C134.672519,52.6342375 117.024124,28.0868129 91.1893518,18.9593568 C88.5461504,17.6234195 86.0824046,16.3647115 84.1590053,15.3519546 C81.9183157,14.1720458 80.9010464,12.6514713 79.3251001,8.88860068 C79.223794,8.64651164 79.223794,8.64651164 79.1216475,8.40270618 C79.0434965,8.2164388 78.9780139,8.06128834 78.9145456,7.91229011 C78.2651118,6.38767935 77.7491481,5.35080461 77.0925235,4.34997175 C76.3559921,3.2273712 75.4496928,2.27913302 74.4129533,1.49136144 C73.3878643,0.71244255 72.2922238,0.130443478 71.1957985,-0.284833773 C70.5323262,-0.536127635 70.0084392,-0.677509074 69.6920272,-0.737059716 L68.6385912,-0.935322679 L68.8133415,0.122267956 C68.8224319,0.17728281 68.8391835,0.28717654 68.8610667,0.445561851 C68.8979765,0.712705495 68.9349875,1.01569134 68.9695797,1.34809574 C69.1223427,2.81603402 69.1777097,4.32638612 69.0792374,5.72572468 C69.0306487,6.41619296 68.9452341,7.0554601 68.8202849,7.63269094 C68.5622608,8.82462696 67.801656,10.048479 66.6875722,11.2322855 C66.1815208,11.7700071 65.6371235,12.2625833 65.0929939,12.6976846 C65.0787752,12.7090542 65.0647015,12.7202721 65.0507758,12.7313372 L62.437805,7.86918087 L62.066127,7.17757089 L61.3922561,7.5805187 C61.3025466,7.63416134 61.1335623,7.73701666 60.8923297,7.88665971 C60.492191,8.13487642 60.0338878,8.42501436 59.5244428,8.75465346 C58.0705628,9.69539419 56.496657,10.7649562 54.8588368,11.9440833 C54.4019475,12.2729931 53.9258008,12.6437534 53.4315241,13.053587 C52.7058873,13.6552547 51.9482548,14.3350961 51.1619445,15.0837144 C50.3354956,15.8705473 49.5081089,16.7033509 48.6550426,17.5964571 C48.3331864,17.9334201 48.0216273,18.2642574 47.6841577,18.6262388 C47.5589977,18.7604896 47.2694629,19.0723469 47.1009678,19.2537789 L47.1009678,19.2537789 Z"/>
          </g>
          <path fill="#E6F9FF" d="M68.5065694,1.34712293 C68.5065694,1.34712293 73.3837388,6.70899246 73.5791849,12.8871795 C73.774631,19.0653664 67.0747952,21.4216189 66.1901772,20.9495933 C65.3055591,20.4775678 63.5920763,14.0694523 63.0027955,12.7504548 C62.4135147,11.4314573 60.7088595,9.49371084 60.7088595,9.49371084 C60.7088595,9.49371084 62.4635378,20.4378835 60.2871482,22.6840742 C58.1107585,24.9302649 61.93032,25.7744853 67.4382754,25.0287004 C72.9462308,24.2829155 79.991272,19.4787957 83.94015,20.2141945 C87.889028,20.9495933 91.2308152,22.188021 91.2308152,22.188021 C91.2308152,22.188021 82.1498515,18.0923272 80.5128745,15.421391 C78.8758975,12.7504548 77.3592545,6.56591213 74.9770425,4.8494132 C72.5948305,3.13291428 68.5065694,1.34712293 68.5065694,1.34712293 Z" style="mix-blend-mode:multiply"/>
          <path fill="#E6F9FF" d="M9.48654648,105.944295 C9.48654648,105.944295 27.0953459,143.271557 66.0408016,143.271557 C104.986257,143.271557 123.597034,115.787224 128.585956,101.006884 C133.574878,86.2265445 133.234458,73.5133204 126.169473,50.9848629 C119.104488,28.4564053 88.8146029,17.8950631 88.8146029,17.8950631 C88.8146029,17.8950631 113.281954,37.7222089 117.13685,63.6384551 C117.3055,64.7722782 121.24886,69.4501158 121.33483,70.6060978 C121.420799,71.7620797 117.621712,68.7365483 117.63752,69.5756274 C117.685,72.0957699 121.750928,80.2240671 121.33483,82.8224755 C120.918732,85.420884 116.515394,80.3823511 116.078548,81.9594166 C113.800979,90.1817129 108.86192,98.6623454 100.11556,107.052128 C83.0277879,123.443255 65.9095885,127.285038 51.2252873,125.722509 C50.3412094,125.628436 51.0293474,131.168407 50.1634517,131.036715 C49.297556,130.905023 45.4444733,124.837262 43.917591,124.482465 C23.5975918,119.760759 9.48654648,105.944295 9.48654648,105.944295 Z" style="mix-blend-mode:multiply"/>
        </g>
        <g transform="translate(44.862 41.76)">
          <g stroke-linecap="round" stroke-linejoin="round">
            <use fill="#C6F1FF" xlink:href="#g"/>
            <path stroke="#2279CF" stroke-width="1.344" d="M46.3118134,10.1126477 C44.8374577,9.48483398 43.3689486,8.82864858 41.9944793,8.17201805 C41.0694557,7.73010293 40.2166767,7.30179963 39.4515044,6.89213428 C38.5382452,6.40318474 37.7625007,5.94754229 37.1451322,5.53314266 C35.588196,4.4881507 34.226252,3.06587343 33.0773395,1.45096245 L32.8408878,1.11860595 L32.436903,1.17487822 C13.6979356,3.78508605 0.673679991,11.3363442 0.673679991,20.2271562 C0.673679991,31.4228814 21.2411036,40.2294824 46.4906989,40.2294824 C71.7401766,40.2294824 92.3077177,31.4228553 92.3077177,20.2271562 C92.3077177,9.11275466 72.0299572,0.341711649 46.9902565,0.225919332 L46.6331634,0.224268009 L46.4319036,0.519247261 C45.4322284,1.98443572 44.8007249,3.56161793 44.7389853,5.20022701 C44.6767552,6.84878794 45.2781591,8.50978369 46.3118134,10.1126477 Z"/>
          </g>
          <path fill="#5588BB" d="M17.6000485,35.7599053 C17.6000485,35.7599053 -5.13762557,29.630857 1.70289374,16.2620394 C8.54341304,2.89322188 32.2010812,1.45152983 32.2010812,1.45152983 C32.2010812,1.45152983 35.964833,6.45111863 37.5234261,6.39745984 C37.9706466,6.38206307 46.3603558,10.0449893 46.3603558,10.0449893 C46.3603558,10.0449893 45.2675057,8.54099342 45.3021049,5.5881785 C45.3367042,2.63536359 45.6424959,5.47183796 45.6518292,5.36206975 C45.8383888,3.16794303 45.5448988,1.37680564 47.0627418,0.758294875 C51.0592605,-0.870259442 52.3370423,0.758294875 52.3370423,0.758294875 C52.3370423,0.758294875 50.2131868,4.31846762 52.2892492,8.20427615 C54.3653117,12.0900847 56.0147009,11.9864883 55.2149382,12.8691677 C54.4151755,13.7518471 51.9552395,14.2826627 47.0627418,11.3452264 C42.1702441,8.40779017 34.5542997,4.55765768 34.5542997,4.55765768 C34.5542997,4.55765768 15.2545274,8.19053514 10.9923584,15.816416 C3.01038763,30.0977734 17.6000485,35.7599053 17.6000485,35.7599053 Z" opacity=".196" style="mix-blend-mode:multiply"/>
        </g>
        <g transform="translate(62.806 54.783)">
          <path fill="#2279CF" d="M6.91213,0 C10.7269417,0 13.82426,3.10319908 13.82426,6.92565643 C13.82426,10.7479334 10.7269417,13.8513129 6.91213,13.8513129 C3.09713825,13.8513129 0,10.7479334 0,6.92565643 C0,3.10319908 3.09713825,0 6.91213,0 Z"/>
          <path fill="#43759E" d="M9.79555185,0.630446674 C12.1723937,1.72625809 13.82426,4.13415932 13.82426,6.92565643 C13.82426,10.7479334 10.7269417,13.8513129 6.91213,13.8513129 C6.07220657,13.8513129 5.27976248,13.6217826 4.52213868,13.4254773 C4.01116721,13.2930812 9.38053908,12.53934 10.7538815,8.93621996 C12.6321818,4.00828544 9.79555185,0.630446674 9.79555185,0.630446674 Z" opacity=".286" style="mix-blend-mode:multiply"/>
          <path fill="#FFFFFF" d="M5.2505314,2.24520489 C7.15784727,2.24520489 8.7065964,3.79680443 8.7065964,5.70803311 C8.7065964,7.61926178 7.15784727,9.17086132 5.2505314,9.17086132 C3.34303553,9.17086132 1.7944664,7.61926178 1.7944664,5.70803311 C1.7944664,3.79680443 3.34303553,2.24520489 5.2505314,2.24520489 Z"/>
          <g transform="translate(43.516)">
            <path fill="#2279CF" d="M6.91213,0 C10.7269417,0 13.82426,3.10319908 13.82426,6.92565643 C13.82426,10.7479334 10.7269417,13.8513129 6.91213,13.8513129 C3.09713825,13.8513129 0,10.7479334 0,6.92565643 C0,3.10319908 3.09713825,0 6.91213,0 Z"/>
            <path fill="#43759E" d="M9.79373764,0.628668332 C12.1705795,1.72447975 13.8224458,4.13238098 13.8224458,6.92387809 C13.8224458,10.7461551 10.7251275,13.8495345 6.91031579,13.8495345 C6.07039236,13.8495345 5.27794827,13.6200043 4.52032447,13.4236989 C4.00935301,13.2913029 9.37872487,12.5375616 10.7520673,8.93444162 C12.6303676,4.0065071 9.79373764,0.628668332 9.79373764,0.628668332 Z" opacity=".286" style="mix-blend-mode:multiply"/>
            <path fill="#FFFFFF" d="M5.2505314,2.24520489 C7.15784727,2.24520489 8.7065964,3.79680443 8.7065964,5.70803311 C8.7065964,7.61926178 7.15784727,9.17086132 5.2505314,9.17086132 C3.34303553,9.17086132 1.7944664,7.61926178 1.7944664,5.70803311 C1.7944664,3.79680443 3.34303553,2.24520489 5.2505314,2.24520489 Z"/>
          </g>
        </g>
        <g transform="translate(52.04 86.665)">
          <mask id="i" fill="white">
            <use xlink:href="#h"/>
          </mask>
          <use fill="#2279CF" xlink:href="#h"/>
          <g transform="translate(26.468 11.675)" mask="url(#i)">
            <mask id="k" fill="white">
              <use xlink:href="#j"/>
            </mask>
            <use fill="#82C2DC" xlink:href="#j"/>
            <path fill="#2268AC" d="M15.7755827,12.2671846 C15.7755827,12.2671846 24.3203003,10.7676183 25.3132825,7.13481779 C26.3062648,3.50201729 24.5898196,0.295302035 24.5898196,0.295302035 C24.5898196,0.295302035 30.4958664,1.0433692 33.1581228,2.63861488 C35.8203791,4.23386056 38.6622804,6.65850087 38.6622804,6.65850087 C38.6622804,6.65850087 31.7869407,9.98523135 27.8526239,11.126208 C23.9183072,12.2671846 15.7755827,12.2671846 15.7755827,12.2671846 Z" opacity=".165" style="mix-blend-mode:multiply" mask="url(#k)"/>
          </g>
          <path fill="#1655A9" d="M25.930363,22.440566 C25.930363,22.440566 18.9163746,16.1830566 36.2030092,10.6099087 C42.8901653,8.45399394 60.7916514,10.0992461 61.3983032,10.2299425 C68.6075117,11.7830861 73.6550123,14.0355256 73.6550123,14.0355256 C73.6550123,14.0355256 87.1810855,3.65544109 83.124277,0.610831253 C79.0674686,-2.43377858 49.1605993,4.89672625 44.1334565,4.89672625 C39.1063138,4.89672625 0.807601908,-1.04001072 -0.210270407,2.14209988 C-1.22814272,5.32421048 3.78604739,12.4463946 11.8356976,16.1830566 C19.8853479,19.9197186 25.930363,22.440566 25.930363,22.440566 Z" opacity=".463" style="mix-blend-mode:multiply" mask="url(#i)"/>
        </g>
      </g>
      <g transform="translate(51.59 23.8)">
        <path fill="#344D6D" stroke="#264063" stroke-width=".896" d="M8.51696251,7.5585289 C8.51696251,7.5585289 26.2574948,0.529687866 51.3912037,0.0209062143 C76.5249126,-0.487875438 94.7346769,8.45857715 94.7346769,8.45857715 C94.7346769,8.45857715 97.576095,11.0251286 98.8483149,12.4081146 C100.120535,13.7911007 102.447804,17.2123231 102.447804,17.2123231 C102.447804,17.2123231 73.0806123,8.45857715 52.4683396,7.5585289 C31.8560668,6.65848065 0,16.2487477 0,16.2487477 C0,16.2487477 3.29487771,12.1170731 4.59584905,10.8214852 C5.89682039,9.52589735 8.51696251,7.5585289 8.51696251,7.5585289 Z" stroke-linecap="round" stroke-linejoin="round"/>
        <path fill="#133A51" d="M54.7610162,0.179090171 L58.374658,8.09185875 C58.374658,8.09185875 73.5333304,10.3847918 81.2824937,12.1053379 C89.031657,13.825884 101.714526,17.4417339 101.714526,17.4417339 C101.714526,17.4417339 99.3683323,14.1282234 97.9564862,12.5698147 C96.5446402,11.0114059 93.795392,8.70051977 93.795392,8.70051977 C93.795392,8.70051977 82.1180922,4.11411526 77.0788159,3.01401216 C72.0395397,1.91390905 54.7610162,0.179090171 54.7610162,0.179090171 Z" style="mix-blend-mode:darken"/>
      </g>
    </g>
  </g>
</svg>
