<svg xmlns="http://www.w3.org/2000/svg" width="337" height="406" viewBox="0 0 337 406" xmlns:xlink="http://www.w3.org/1999/xlink">
  <defs>
    <path id="a" d="M7.28889105,0.26926398 C7.28889105,0.26926398 -0.131316602,11.6600997 0.279827295,18.7934952 C0.690971193,25.9268907 8.77228123,46.0073724 20.2415598,42.2161981 C31.7108383,38.4250239 22.0582494,23.8327048 35.4981421,23.8327048 C48.9380348,23.8327048 50.4152174,33.9833821 63.6701335,31.9475643 C74.2134875,30.3282144 75.2350244,24.4837302 75.2350244,18.7934952 C75.2350244,13.1032602 76.8230515,1.47712377 76.8230515,1.47712377 L7.28889105,0.26926398 Z"/>
    <path id="b" d="M26.6267906,-1.44950718e-13 C26.6267906,-1.44950718e-13 21.8212703,4.79756848 16.4305079,11.7316261 C11.0395577,18.6656837 3.68496663,29.4675848 3.68496663,29.4675848 L12.3518445,26.5914479 C12.3518445,26.5914479 10.221421,29.501393 8.273369,31.8643969 C6.32531704,34.2274008 5.21437148,36.6578333 5.21437148,36.6578333 L10.8224397,36.1785084 C10.8224397,36.1785084 6.82284786,43.555641 5.21437148,51.5176551 C3.60608293,59.479857 4.19470564,70.2122635 4.19470564,70.2122635 C4.19470564,70.2122635 -3.68540118,76.1733968 2.15556178,77.8820246 C7.99652475,79.5904646 9.80277385,76.4438623 9.80277385,76.4438623 C9.80277385,76.4438623 9.57945783,83.5599206 15.4108421,83.1547859 C21.2422263,82.7496512 21.0189103,78.3613495 21.0189103,78.3613495 C21.0189103,78.3613495 21.4597199,83.6057494 26.6267906,83.1547859 C31.7938614,82.7038223 31.724932,78.8406744 31.724932,78.8406744 C31.724932,78.8406744 34.5245524,84.4120745 39.8820709,82.1961362 C45.2397772,79.9801978 39.1642292,73.8560339 39.8820709,66.3774768 C40.5999127,58.8989197 43.0434294,57.9134113 45.9998781,55.3524417 C48.9565146,52.7914721 50.5882805,48.1621933 50.5882805,48.1621933 L26.6267906,-1.44950718e-13 Z"/>
    <linearGradient id="c" x1="35.905%" x2="102.257%" y1="8.573%" y2="34.625%">
      <stop stop-color="#FFFFFF" offset="0%"/>
      <stop stop-color="#1655A9" offset="100%"/>
    </linearGradient>
    <path id="d" d="M4.21041161,19.6069145 C-1.37799522,12.2120883 3.94473483,6.0224096 16.1067648,5.6156092 L173.532914,0.34995701 C185.691495,-0.0567280333 193.188796,9.09098123 190.278436,20.6881136 L189.960397,21.9491017 C187.050112,33.4301567 174.835342,42.3311478 162.676799,41.9244749 L38.8918487,37.7841776 C26.7338186,37.3775219 12.3487478,30.7038888 6.75908207,23.0403128 L4.21041161,19.6069145 Z"/>
    <path id="e" d="M2.31418178,22.9709292 C-3.27422505,15.576103 2.048505,9.38642423 14.210535,8.97962383 L171.636684,3.71397164 C183.795265,3.3072866 191.292566,12.4549959 188.382206,24.0521282 L188.064167,25.3131164 C185.153882,36.7941714 172.939113,45.6951624 160.780569,45.2884895 L36.9956189,41.1481923 C24.8375887,40.7415365 10.452518,34.0679034 4.86285224,26.4043275 L2.31418178,22.9709292 Z"/>
    <linearGradient id="f" x1="0%" y1="50%" y2="50%">
      <stop stop-color="#297BCC" offset="0%"/>
      <stop stop-color="#003378" offset="100%"/>
    </linearGradient>
    <linearGradient id="g" x1="100%" x2="0%" y1="50%" y2="50%">
      <stop stop-color="#0D578F" offset="0%"/>
      <stop stop-color="#002557" offset="100%"/>
    </linearGradient>
    <path id="h" d="M27.7564263,1.32597345e-12 C27.7564263,1.32597345e-12 38.8330632,10.4492344 43.7450138,19.3334877 C50.3332978,31.2500142 57.6156122,52.2659707 56.2151504,50.2960919 C54.0562592,50.0021549 50.335691,48.0625183 48.1526502,48.1782656 C48.1526502,48.1782656 50.6970654,50.4538302 52.5600691,59.67684 C54.4232903,68.9000674 53.741226,81.3322348 53.741226,81.3322348 C53.741226,81.3322348 62.8700091,88.2374714 56.1035399,90.2167057 C49.3375057,92.1957224 47.2451893,88.5507722 47.2451893,88.5507722 C47.2451893,88.5507722 47.5038733,96.7938468 40.7489349,96.3245483 C33.9939966,95.8552498 34.2526806,90.7719444 34.2526806,90.7719444 C34.2526806,90.7719444 33.7420571,96.8469339 27.7564263,96.3245483 C21.7710131,95.8021627 21.8508592,91.327183 21.8508592,91.327183 C21.8508592,91.327183 18.6080624,97.7809619 12.4018214,95.214071 C6.19579793,92.6471802 13.2333524,85.5530928 12.4018214,76.8901081 C11.570508,68.2271234 8.73999559,67.0855336 5.31509739,64.1189667 C1.89041675,61.1523998 -6.17745854e-12,55.789952 -6.17745854e-12,55.789952 L27.7564263,1.32597345e-12 Z"/>
    <path id="i" d="M49.5913701,22.1228065 C50.8572658,20.7669106 54.4827235,16.785434 57.6977981,14.4753963 C61.5786887,11.6867849 64.4592588,9.96763902 64.4592588,9.96763902 L67.6146071,15.8277235 C67.6146071,15.8277235 71.8112204,13.0291575 72.5730116,9.5168633 C73.3348029,6.00438128 72.5730116,1.40290024 72.5730116,1.40290024 C72.5730116,1.40290024 77.0825303,2.24998296 79.7852364,6.36143322 C82.4877547,10.4726957 82.7480709,15.6113511 87.4482252,18.0816021 C89.7373553,19.2846098 92.5769809,20.7238991 94.8877101,21.8837075 C121.00141,31.0919286 139.736855,55.99879 139.736855,85.2471851 C139.736855,122.316915 109.641593,152.412768 72.5730116,152.412768 C35.5042424,152.412768 5.40916857,122.316915 5.40916857,85.2471851 C5.40916857,84.8444922 5.41273712,84.4425505 5.41987421,84.0415479 L1.80305619,85.2471851 L6.2906001,74.348555 C6.51560649,72.9718109 6.78249637,71.6091534 7.08995501,70.2620853 L-2.77111667e-13,72.6254648 C-2.77111667e-13,72.6254648 4.23380131,63.9042693 8.11375285,58.2006416 C10.3527354,54.9088519 13.7606995,49.4097637 16.242719,46.872272 C24.1256431,34.7616187 35.8068177,27.148768 49.5913701,22.1228065 Z"/>
    <path id="j" d="M49.0271267,0.935266828 C74.7867895,1.05415893 95.6139667,10.0281645 95.6139667,21.0646568 C95.6139667,32.1749637 74.5069401,41.1951738 48.5091237,41.1951738 C22.5111195,41.1951738 1.40428077,32.1749637 1.40428077,21.0646568 C1.40428077,12.1265255 15.0643096,4.54128481 33.9419323,1.91683097 C34.9289177,3.30146374 36.4149365,5.03582334 38.3669327,6.34344859 C42.19129,8.90554512 50.5375619,12.203533 50.5375619,12.203533 C50.5375619,12.203533 47.2484869,8.97766924 47.3822136,5.44189714 C47.4494526,3.66076956 48.2495588,2.07272424 49.0271267,0.935266828 Z"/>
    <path id="k" d="M67.6964576,4.08858299 C79.8129952,0.782894334 86.6281719,-2.79983357 86.5468466,3.34517869 C86.4758512,8.69363267 67.1566676,25.6585771 43.273498,25.6585771 C19.3901406,25.6585771 -0.0622061969,9.59537194 0.000149496302,4.24673014 C0.0613782794,-1.02471632 6.9426671,2.00318179 19.1927435,4.75667018 C20.8588801,7.97126457 23.0678118,11.6176645 24.2413009,11.6845296 C25.3488657,11.7474504 28.1186229,9.13050947 30.3777021,6.7735159 C34.341045,7.29078104 38.6484711,7.62754808 43.273498,7.62754808 C47.8372962,7.62754808 52.0981434,7.23349496 56.0273033,6.62457209 C58.3111745,9.01875466 61.1752165,11.7487651 62.3060708,11.6845296 C63.5618244,11.6131568 66.0030873,7.44254221 67.6964576,4.08858299 Z"/>
    <path id="m" d="M0,10.6191491 C2.35317615,4.52466134 10.9697187,0 21.2266668,0 C29.3026682,0 36.3616331,2.80495195 40.1471121,6.97256135 C33.1649648,10.3422977 24.6898494,12.829265 15.5455373,12.829265 C10.0702566,12.829265 4.82787077,11.9849996 0,10.6191491 Z"/>
  </defs>
  <g fill="none" fill-rule="evenodd">
    <rect width="337" height="406"/>
    <g transform="translate(11 19)">
      <path fill="#C8EAFA" d="M193.32788,359.465789 C247.273235,359.465789 281.686184,347.531438 281.686184,338.4921 C281.686184,329.452762 247.273235,326.73145 193.32788,326.73145 C139.382525,326.73145 95.6511745,334.059282 95.6511745,343.09862 C95.6511745,352.137958 139.382525,359.465789 193.32788,359.465789 Z" transform="rotate(3 188.669 343.099)"/>
      <g transform="rotate(-17 218.7 -84.862)">
        <g transform="translate(78.84 148.76)">
          <g stroke-linecap="round" stroke-linejoin="round">
            <use fill="#FFFFFF" xlink:href="#a"/>
            <path stroke="#297BCC" stroke-width="2.16" d="M6.38395919,-0.3202259 C6.32505024,-0.229794183 6.21809043,-0.0619688908 6.06992055,0.17626434 C5.8249914,0.570070858 5.55260194,1.02022014 5.25958665,1.51975542 C4.42329056,2.94548104 3.58722631,4.48431517 2.80598029,6.08134503 C1.80603081,8.12545041 0.969486435,10.116568 0.350029363,12.0040619 C-0.498087035,14.5882837 -0.911635149,16.8907064 -0.7983833,18.8556395 C-0.554997031,23.0784202 1.90248972,30.0617424 5.20614908,35.1867107 C9.51718567,41.8744237 14.8329014,45.1415053 20.5805163,43.241629 C25.1869834,41.7189596 26.9436587,38.8843812 27.8783211,33.6602932 C27.9431831,33.2977616 27.9747703,33.1102122 28.1036355,32.3331352 C29.0694617,26.5090558 30.2604994,24.9127048 35.4981421,24.9127048 C40.3900648,24.9127048 43.3203329,26.0111055 48.0699054,28.9439863 C48.1237925,28.9772618 48.9358315,29.4801469 49.1743836,29.6268492 C54.4606257,32.8777277 57.9601332,33.9172254 63.8340878,33.0150469 C73.381939,31.5485959 76.3150244,27.1212571 76.3150244,18.7934952 C76.3150244,17.0730738 76.4640075,14.6698495 76.7320676,11.7667099 C76.8395487,10.6026704 76.9641844,9.380562 77.1025933,8.11927974 C77.2755952,6.54276123 77.4610095,4.98600739 77.6464115,3.51793523 C77.7112857,3.00424026 77.7715097,2.53843332 77.8255313,2.12910814 C77.8578792,1.88400599 77.8809246,1.71253583 77.8931154,1.62328502 L78.057691,0.418407448 L76.8418091,0.397286679 L7.30764862,-0.810573116 L6.71014188,-0.82095225 L6.38395919,-0.3202259 Z"/>
          </g>
          <path fill="#CEE9F1" d="M7.52494633,9.43250804 C7.52494633,9.43250804 27.3693105,23.7008539 40.8729965,23.7008539 C54.3766824,23.7008539 59.1749218,25.5028889 61.7475907,28.6585372 C64.3202596,31.8141855 62.8592082,39.6297803 62.8592082,39.6297803 C62.8592082,39.6297803 70.0019579,40.0705805 72.2792023,39.0524125 C74.5564466,38.0342444 76.2840292,36.3793651 76.2840292,33.0475793 C76.2840292,29.7157936 74.5564466,23.7008539 74.5564466,23.7008539 L75.9691215,6.27590213 C75.9691215,6.27590213 61.953879,19.6845035 39.8844262,19.6845035 C17.8149735,19.6845035 7.52494633,9.43250804 7.52494633,9.43250804 Z" style="mix-blend-mode:darken"/>
        </g>
        <g transform="rotate(75 7.707 81.736)">
          <g stroke-linecap="round" stroke-linejoin="round">
            <use fill="#FFFFFF" xlink:href="#b"/>
            <path stroke="#297BCC" stroke-width="2.16" d="M9.40295777,28.707963 C9.05117898,29.1634316 8.70095477,29.6109737 8.35723912,30.0432138 C8.20075564,30.2399997 8.04709297,30.4317335 7.89655294,30.6179697 C7.74062673,30.8108692 7.58835465,30.9974945 7.440039,31.1774026 C7.38506443,31.2440873 7.3303792,31.3112399 7.27598354,31.3788486 C6.42756084,32.4333579 5.67894511,33.5581167 5.03457201,34.6828327 C4.80881222,35.0768834 4.61177364,35.4436149 4.44426642,35.7741758 C4.34186657,35.9762531 4.27085762,36.1241075 4.23212235,36.2088493 L3.46300392,37.8914613 L5.30634438,37.7339099 L8.98961695,37.4190985 C8.94948408,37.5026429 8.90887593,37.5876434 8.86781612,37.674075 C8.12176926,39.2445168 7.37619291,40.9693739 6.68000348,42.7976442 C5.58376108,45.6764976 4.71409747,48.539992 4.15575733,51.3037951 C3.83479288,52.8928033 3.58619717,54.649791 3.40285914,56.5475975 C3.00509106,60.6650568 2.93865662,65.0147171 3.06267705,68.9360895 C3.07162321,69.218956 3.08106953,69.4781548 3.09064233,69.711888 C3.01285291,69.7762031 2.92882851,69.8466178 2.83933137,69.9227825 C2.32208265,70.3629761 1.8047389,70.8423827 1.31880651,71.3478153 C0.531511326,72.1667044 -0.098884184,72.9756296 -0.518250498,73.7685415 C-1.72623322,76.0525205 -1.0157705,78.0795905 1.8523419,78.9185852 C4.85053796,79.7955361 7.20220156,79.5908689 8.92756082,78.6284601 C9.0284323,79.1561719 9.16764945,79.676448 9.3516491,80.1789832 C10.3274176,82.8439774 12.3468158,84.450262 15.4856945,84.2321888 C18.1166512,84.0494034 19.9482547,83.1024652 21.0355215,81.6071726 C22.1881273,83.4345615 24.0809038,84.4610873 26.7206922,84.2306959 C29.171143,84.0168293 30.8735977,83.0807479 31.8764886,81.6345786 C31.9662514,81.5051407 32.0483326,81.3756203 32.1232173,81.2465526 C32.2116169,81.3432327 32.3037356,81.4403375 32.3995962,81.5374703 C34.4873611,83.6529428 37.1762265,84.4840436 40.2948572,83.1941379 C42.2776605,82.3740538 43.2008079,80.9689986 43.1915047,79.0313496 C43.1853969,77.7592242 43.1175112,77.4944256 42.0022509,73.735749 C41.0895886,70.6598734 40.747425,68.6653963 40.9571298,66.4806682 C41.4286973,61.5678243 42.4107921,59.7377109 45.0262544,57.5628939 C45.1413388,57.4671986 45.261376,57.3684789 45.4213242,57.2377355 C45.6248799,57.07155 45.7418883,56.9760279 45.8341365,56.9004633 C46.1827688,56.6148827 46.4441329,56.3964657 46.7070003,56.1687616 C47.6317737,55.3677445 48.477969,54.3550435 49.2526778,53.1797368 C49.9241742,52.1610129 50.5062663,51.0760079 50.9994151,49.9914738 C51.1720311,49.6118563 51.3215452,49.2586098 51.4477286,48.9402043 C51.5248806,48.7455222 51.5780235,48.6030221 51.6068548,48.5212286 L51.7587686,48.0902529 L51.5552205,47.6811246 L27.5937306,-0.481068676 L26.9254663,-1.82426887 L25.8637479,-0.764307428 C25.8235384,-0.724164376 25.7478315,-0.647797085 25.638685,-0.536499797 C25.4583772,-0.352638896 25.2487535,-0.136444684 25.0118708,0.110789701 C24.3368683,0.815289886 23.5775796,1.62837237 22.7504544,2.53971036 C20.3889434,5.14165597 17.9542667,8.0120233 15.5778649,11.0687536 C14.4949054,12.4616998 13.2876082,14.0681549 11.9771756,15.8544742 C11.6740796,16.2676403 11.3662004,16.6894357 11.0538793,17.1193215 C9.18754251,19.6881902 7.23909067,22.4392427 5.32425736,25.1901205 C4.65415559,26.1527986 4.03606753,27.0467675 3.48450372,27.8491779 C3.29137082,28.130146 3.12031849,28.3796446 2.97316149,28.5948164 C2.8240017,28.813121 2.8240017,28.813121 2.79224349,28.8597646 L0.996101182,31.4978109 L4.02512747,30.4926168 L9.40295804,28.7079629 L9.40295777,28.707963 Z"/>
          </g>
          <path fill="#E6F9FF" d="M32.2751288,25.4201821 C32.2751288,25.4201821 37.7565105,36.0256523 41.2485317,39.3464783 C44.7405529,42.6673042 50.0375041,48.423576 50.0375041,48.423576 C50.0375041,48.423576 50.8411497,51.896531 47.098685,55.1551692 C43.3562204,58.4138074 39.2985472,62.7548468 40.2076714,68.1680736 C41.1167956,73.5813004 44.1739427,81.8227373 41.2485317,82.7766685 C38.3231207,83.7305996 35.0951509,82.2641257 33.6851398,81.2222639 C32.2751288,80.1804021 31.8402547,80.4146803 31.8402547,80.4146803 C31.8402547,80.4146803 30.1395824,84.4150528 26.4367833,84.0890733 C22.7339843,83.7630938 20.6531055,78.195022 20.6531055,78.195022 C20.6531055,78.195022 23.3337928,84.0890733 15.1183846,84.0890733 C6.90297637,84.0890733 9.36056728,76.1992291 9.36056728,76.1992291 C9.36056728,76.1992291 9.93507089,79.5602447 3.82791232,78.7590505 C-2.27924626,77.9578563 3.47065871,76.2767468 6.85700146,73.8219215 C10.2433442,71.3670962 9.36056728,75.3760368 9.36056728,75.3760368 C9.36056728,75.3760368 11.8774515,84.4551593 16.9769432,77.4791398 C22.0764349,70.5031203 20.6531055,78.0174254 20.6531055,78.0174254 C20.6531055,78.0174254 24.1187794,84.6052776 28.1507741,78.7590505 C32.1827687,72.9128233 33.2505553,77.7345434 35.2795815,70.7047243 C37.3086076,63.6749052 34.2911261,52.1175285 31.8402547,49.8385643 C29.3893834,47.5596001 28.8968928,46.2605993 28.8968928,46.2605993 C28.8968928,46.2605993 29.4947723,50.4835814 30.1404241,51.3391692 C30.786076,52.194757 26.8464415,48.8134788 25.9503461,46.9142938 C25.0542508,45.0151088 25.3310415,39.534777 28.5856481,33.276086 C31.8402547,27.017395 32.2751288,25.4201821 32.2751288,25.4201821 Z" style="mix-blend-mode:darken"/>
        </g>
        <g transform="rotate(31 -236.8 142.243)">
          <g transform="translate(.21 14.733)" stroke-linecap="round" stroke-linejoin="round">
            <use fill="url(#c)" xlink:href="#d"/>
            <path stroke="#297BCC" stroke-width="2.16" d="M3.34594378,20.2543064 L5.89189461,23.684041 C11.7141599,31.6665814 26.4440358,38.4484333 38.8557456,38.863574 L162.640696,43.0038713 C175.319783,43.4279551 187.975253,34.1758272 191.007287,22.2144734 L191.325642,20.9522338 C194.415043,8.64166474 186.356612,-1.1595791 173.49681,-0.729439348 L16.0706608,4.53621284 C3.14260562,4.96863555 -2.87452035,12.0185417 3.34593894,20.2543 L3.34594378,20.2543064 Z"/>
            <g>
              <use fill="#C8EAFA" xlink:href="#e"/>
              <path stroke="#297BCC" stroke-width="2.16" d="M1.44971394,23.618321 L3.99566477,27.0480556 C9.81793004,35.030596 24.547806,41.812448 36.9595158,42.2275886 L160.744466,46.3678859 C173.423554,46.7919697 186.079023,37.5398418 189.111057,25.5784881 L189.429412,24.3162484 C192.518813,12.0056794 184.460382,2.20443553 171.60058,2.63457528 L14.1744309,7.90022747 C1.24637579,8.33265018 -4.77075018,15.3825563 1.4497091,23.6183146 L1.44971394,23.618321 Z"/>
            </g>
          </g>
          <path fill="#82C2DC" d="M19.386796,25.2462373 C19.386796,25.2462373 22.4664637,30.9100633 25.7153505,32.3278034 C28.9642373,33.7455435 30.4153928,35.4657619 30.4153928,35.4657619 L33.4654182,53.7354413 L41.955297,56.8503489 L51.9367095,56.9356658 C51.9367095,56.9356658 51.1342894,54.8007085 47.9069568,52.3891226 C44.6796243,49.9775367 39.8955932,48.4574436 39.8955932,48.4574436 L36.9213915,33.0185182 C36.9213915,33.0185182 39.6573032,31.8174107 41.9843003,29.0996429 C44.3112974,26.381875 44.4374579,22.144244 44.4374579,22.144244 L19.386796,25.2462373 Z" style="mix-blend-mode:multiply" opacity=".577"/>
          <g transform="rotate(-9 39.984 -77.983)">
            <g stroke-width="2.16" transform="translate(3.153 50.506)">
              <path fill="url(#f)" stroke="#1655A9" d="M0.0251613049,12.8268193 C0.38400966,16.0201889 4.53146962,18.7927817 9.26201441,18.7927817 C13.9925592,18.7927817 18.1400192,16.0201889 18.4988675,12.8268193 L18.5240288,12.8268193 L18.515022,12.6469696 C18.5210038,12.5580432 18.5240288,12.4688273 18.5240288,12.3793721 C18.5240288,12.1560146 18.5051698,11.935454 18.4685142,11.7182973 L18.2252542,6.86085682 L13.1854009,6.86085682 C11.9811307,6.47842934 10.6465464,6.26426058 9.26201441,6.26426058 C7.87748241,6.26426058 6.5428981,6.47842934 5.33862796,6.86085682 L0.298774659,6.86085682 L0.0555146444,11.7182973 C0.0188590648,11.935454 1.23989707e-13,12.1560146 1.23989707e-13,12.3793721 C1.23989707e-13,12.4688273 0.00302503572,12.5580432 0.00900684738,12.6469696 L-1.9220181e-13,12.8268193 L0.0251613049,12.8268193 Z"/>
              <ellipse cx="9.262" cy="6.115" fill="#297BCC" stroke="#1655A9" rx="8.963" ry="6.115"/>
              <ellipse cx="9.411" cy="5.668" fill="url(#g)" stroke="#297BCC" rx="4.631" ry="2.685"/>
            </g>
            <rect width="3.941" height="38.369" x="10.641" y="19.184" fill="url(#f)" rx="1.971"/>
            <g stroke-width="2.16">
              <path fill="url(#f)" stroke="#1655A9" d="M0.0331915086,16.8352003 C0.506565934,21.0264979 5.97768333,24.665526 12.2179765,24.665526 C18.4582696,24.665526 23.929387,21.0264979 24.4027614,16.8352003 L24.4359529,16.8352003 L24.4240716,16.5991477 C24.4319625,16.4824317 24.4359529,16.3653358 24.4359529,16.2479259 C24.4359529,15.9547692 24.411075,15.6652834 24.3627208,15.3802652 L24.0418247,9.00487458 L17.3935075,9.00487458 C15.8048958,8.50293851 14.0443804,8.22184201 12.2179765,8.22184201 C10.3915725,8.22184201 8.63105707,8.50293851 7.0424454,9.00487458 L0.394128273,9.00487458 L0.0732320841,15.3802652 C0.0248779153,15.6652834 -2.80664381e-14,15.9547692 -2.80664381e-14,16.2479259 C-2.80664381e-14,16.3653358 0.00399047266,16.4824317 0.0118813731,16.5991477 L1.1937118e-13,16.8352003 L0.0331915086,16.8352003 Z"/>
              <ellipse cx="12.218" cy="8.026" fill="#297BCC" stroke="#1655A9" rx="11.824" ry="8.026"/>
              <ellipse cx="12.415" cy="7.439" fill="url(#g)" stroke="#297BCC" rx="6.109" ry="3.524"/>
            </g>
          </g>
          <g transform="rotate(15 77.248 596.305)">
            <g stroke-width="2.16" transform="translate(3.153 50.506)">
              <path fill="url(#f)" stroke="#1655A9" d="M0.0251613049,12.8268193 C0.38400966,16.0201889 4.53146962,18.7927817 9.26201441,18.7927817 C13.9925592,18.7927817 18.1400192,16.0201889 18.4988675,12.8268193 L18.5240288,12.8268193 L18.515022,12.6469696 C18.5210038,12.5580432 18.5240288,12.4688273 18.5240288,12.3793721 C18.5240288,12.1560146 18.5051698,11.935454 18.4685142,11.7182973 L18.2252542,6.86085682 L13.1854009,6.86085682 C11.9811307,6.47842934 10.6465464,6.26426058 9.26201441,6.26426058 C7.87748241,6.26426058 6.5428981,6.47842934 5.33862796,6.86085682 L0.298774659,6.86085682 L0.0555146444,11.7182973 C0.0188590648,11.935454 3.90798505e-14,12.1560146 3.90798505e-14,12.3793721 C3.90798505e-14,12.4688273 0.00302503572,12.5580432 0.00900684738,12.6469696 L1.59872116e-14,12.8268193 L0.0251613049,12.8268193 Z"/>
              <ellipse cx="9.262" cy="6.115" fill="#297BCC" stroke="#1655A9" rx="8.963" ry="6.115"/>
              <ellipse cx="9.411" cy="5.668" fill="url(#g)" stroke="#297BCC" rx="4.631" ry="2.685"/>
            </g>
            <rect width="3.941" height="38.369" x="10.641" y="19.184" fill="url(#f)" rx="1.971"/>
            <g stroke-width="2.16">
              <path fill="url(#f)" stroke="#1655A9" d="M0.0331915086,16.8352003 C0.506565934,21.0264979 5.97768333,24.665526 12.2179765,24.665526 C18.4582696,24.665526 23.929387,21.0264979 24.4027614,16.8352003 L24.4359529,16.8352003 L24.4240716,16.5991477 C24.4319625,16.4824317 24.4359529,16.3653358 24.4359529,16.2479259 C24.4359529,15.9547692 24.411075,15.6652834 24.3627208,15.3802652 L24.0418247,9.00487458 L17.3935075,9.00487458 C15.8048958,8.50293851 14.0443804,8.22184201 12.2179765,8.22184201 C10.3915725,8.22184201 8.63105707,8.50293851 7.0424454,9.00487458 L0.394128273,9.00487458 L0.0732320841,15.3802652 C0.0248779153,15.6652834 -6.01829697e-13,15.9547692 -6.01829697e-13,16.2479259 C-6.01829697e-13,16.3653358 0.00399047266,16.4824317 0.0118813731,16.5991477 L-2.39452902e-13,16.8352003 L0.0331915086,16.8352003 Z"/>
              <ellipse cx="12.218" cy="8.026" fill="#297BCC" stroke="#1655A9" rx="11.824" ry="8.026"/>
              <ellipse cx="12.415" cy="7.439" fill="url(#g)" stroke="#297BCC" rx="6.109" ry="3.524"/>
            </g>
          </g>
          <path fill="#82C2DC" d="M163.424849 60.6337588C163.424849 60.6337588 170.383459 59.3774172 171.640319 58.8258905 172.897178 58.2743638 170.557516 54.1349082 168.649032 51.9068444 166.740547 49.6787805 163.159511 49.1832683 163.159511 49.1832683L167.604351 33.7017436C167.604351 33.7017436 173.838271 33.6971177 177.009183 31.7162301 180.180095 29.7353426 182.964544 20.8298187 182.964544 20.8298187L173.344221 17.1521338 163.010822 27.6693859 154.906291 60.1826791 163.424849 60.6337588zM90.790108 22.3848193C90.790108 22.3848193 95.9820722 32.3226418 101.22299 31.0172188 106.463908 29.7117959 105.966532 27.6182159 105.966532 27.6182159 105.966532 27.6182159 109.057599 33.7465596 115.19625 32.2175267 121.334901 30.6884937 119.468052 28.0735361 119.468052 28.0735361 119.468052 28.0735361 122.657119 33.1397737 128.049433 31.7966405 133.441747 30.4535073 132.354758 24.0644468 132.354758 24.0644468 132.354758 24.0644468 137.092029 25.1053314 139.830175 24.4233061 142.568321 23.7412808 144.018511 18.140119 144.018511 18.140119L148.45216 14.9642693 96.8326004 17.3770718 90.790108 22.3848193z" style="mix-blend-mode:multiply" opacity=".625"/>
        </g>
        <g transform="rotate(31 -144.296 321.086)">
          <g stroke-linecap="round" stroke-linejoin="round">
            <use fill="#FFFFFF" xlink:href="#h"/>
            <path stroke="#297BCC" stroke-width="2.16" d="M21.4225209,93.8209873 C21.5358947,94.0349076 21.6664176,94.2506136 21.8158556,94.4661031 C22.9477452,96.0982885 24.8732676,97.1570219 27.6625247,97.4004584 C30.7589259,97.6706914 32.9358901,96.4221247 34.2236419,94.2183936 C35.430624,96.0310784 37.5514427,97.1850063 40.6740825,97.4019513 C44.2265579,97.648759 46.5010531,95.8395632 47.6071428,92.8186391 C47.8444903,92.1704016 48.0167017,91.4953613 48.1342037,90.8110241 C50.1085304,92.0056518 52.8531211,92.2926802 56.406729,91.2532752 C59.6200971,90.3133451 60.4007851,88.0860148 59.0497067,85.5316818 C58.5725042,84.6294883 57.8513873,83.7042179 56.9494526,82.7661568 C56.3908168,82.1851452 55.7955768,81.6335943 55.2004319,81.1271452 C55.0767859,81.0219264 54.9582226,80.9230187 54.8457153,80.8308666 C54.8579972,80.5387666 54.8701588,80.2102735 54.8816135,79.8482121 C55.0251122,75.3124902 54.9482802,70.2808303 54.4883123,65.5198473 C54.2764541,63.3269697 53.9892645,61.2974136 53.6186842,59.4629849 C53.2389339,57.582988 52.8137661,55.898767 52.3505379,54.3993216 C51.7501597,52.4559286 51.1082998,50.8881566 50.4528892,49.6547319 C50.8528967,49.7733633 51.3014614,49.9190968 51.807411,50.0930324 C51.9611068,50.14587 52.1199185,50.2010425 52.3251275,50.2727591 C54.2317642,50.9390913 54.9742716,51.1803316 55.7207855,51.3120892 C55.7244655,51.3145351 55.7281735,51.3169746 55.7319102,51.3194081 C56.2758133,51.6736245 57.0560395,51.5264059 57.3623747,50.8488253 C57.5164132,50.5081088 57.5001904,50.2780911 57.4125663,49.8179637 C57.3250361,49.358329 57.1216728,48.6224259 56.8146087,47.6421539 C56.1886698,45.6439054 55.1746126,42.7678948 53.9854242,39.6385465 C51.0261173,31.8511326 47.6558337,24.175047 44.6901794,18.8109345 C44.0535212,17.6594096 43.3006077,16.4533847 42.4408133,15.1982267 C41.0965343,13.2358012 39.5085757,11.1780374 37.7267209,9.05782747 C35.7078989,6.6556527 33.5473863,4.29793544 31.3870119,2.08239569 C30.6308656,1.30694108 29.9284488,0.604348752 29.2975583,-0.0130260507 C29.0762626,-0.229580938 28.8795504,-0.420167742 28.7096486,-0.583238401 C28.6069224,-0.681834291 28.5354731,-0.749804755 28.4975285,-0.785600121 L28.4975285,-0.785600121 L27.4381844,-1.7849409 L26.7894863,-0.481068676 L-0.966939982,55.3088833 L-1.17049835,55.7180322 L-1.01856135,56.1490241 C-0.985868908,56.2417611 -0.925066929,56.4047821 -0.83652154,56.6281942 C-0.691349049,56.9944844 -0.519238526,57.4010884 -0.320482593,57.8381679 C0.247352035,59.0868798 0.917541675,60.3360627 1.69003841,61.5080189 C2.57941278,62.8572904 3.54980668,64.0186675 4.6079752,64.9352866 C4.91111742,65.1978613 5.21278139,65.4499414 5.61555742,65.779856 C5.72224687,65.8672455 5.85769605,65.9778165 6.09363374,66.1704299 C6.27924741,66.3221453 6.41864709,66.4367837 6.55240082,66.5479983 C9.61654598,69.0957978 10.7762999,71.2570167 11.32676,76.9932727 C11.5723007,79.5513438 11.1728296,81.8799577 10.1098816,85.4624483 C8.82562498,89.7908233 8.74634854,90.1000637 8.73939213,91.5488871 C8.72894724,93.724264 9.75684837,95.2888117 11.9890351,96.2120728 C15.5303249,97.6767443 18.5742713,96.7358957 20.9476771,94.3309298 C21.1160463,94.1603217 21.2743013,93.9897802 21.4225209,93.8209873 Z"/>
          </g>
          <path fill="#E6F9FF" d="M28.8790603,0.364224723 C28.8790603,0.364224723 40.124917,11.7366487 45.1495334,21.9114263 C50.1741499,32.0862038 56.9622887,51.5037608 56.9622887,51.5037608 L49.5100458,49.1076405 C49.5100458,49.1076405 53.8094071,59.2196101 53.8094071,63.7888961 C53.8094071,68.3581821 54.5949005,80.8831904 54.5949005,80.8831904 C54.5949005,80.8831904 59.2983342,85.5555897 59.2983342,87.8226554 C59.2983342,90.0897211 55.953823,91.7764598 53.0118391,91.7764598 C50.0698553,91.7764598 46.8681255,88.22794 46.8681255,88.22794 C46.8681255,88.22794 47.7310942,89.8373565 47.7184541,90.0625745 C47.7058141,90.2877926 45.8895,96.5267747 41.4509164,97.0626209 C36.3193023,97.6821328 34.1527242,92.9335847 34.1527242,92.9335847 C34.1527242,92.9335847 33.1092397,96.7486596 28.292272,97.0626209 C23.4753042,97.3765821 21.7157325,92.4138091 21.7157325,92.4138091 C21.7157325,92.4138091 19.116203,96.4106256 15.5031686,96.4106256 C10.8454852,96.4106256 9.64384482,93.4982917 9.64384482,92.9335847 C9.64384482,92.3688776 14.7214537,94.0569152 16.8059097,89.2084945 C17.9283651,86.5976761 21.7157325,90.0625745 21.7157325,90.0625745 C21.7157325,90.0625745 23.3460194,94.56778 25.3349324,94.730892 C27.3238454,94.8940041 27.4276287,90.9000368 29.4353618,89.2084945 C32.8678436,86.3165822 34.1527242,91.1574686 34.1527242,91.1574686 C34.1527242,91.1574686 36.9906459,96.1676539 40.1701609,95.2997997 C43.3496758,94.4319454 40.3388431,90.9346373 41.7365114,88.22794 C43.1341798,85.5212428 46.8681255,87.8226554 46.8681255,87.8226554 C46.8681255,87.8226554 51.4243469,87.8446089 52.2556935,85.6331262 C53.0870401,83.4216436 49.9059479,81.2807824 49.9059479,81.2807824 C49.9059479,81.2807824 47.2909128,55.8107761 37.2056725,51.1352134 C27.1204322,46.4596508 0.337304319,55.9864039 0.337304319,55.9864039 C0.337304319,55.9864039 16.4596035,40.9842409 21.3878473,27.7494654 C26.3160911,14.5146899 28.8790603,0.364224723 28.8790603,0.364224723 Z" style="mix-blend-mode:darken"/>
        </g>
        <g transform="rotate(-15 152.725 -85.433)">
          <g>
            <g stroke-linecap="round" stroke-linejoin="round">
              <use fill="#FFFFFF" xlink:href="#i"/>
              <path stroke="#297BCC" stroke-width="2.16" d="M48.9771489,21.1975574 C34.0436889,26.6851207 22.8974046,34.7153669 15.39516,46.1948173 C14.3631101,47.2651302 13.1613614,48.8188426 11.7039786,50.9085387 C11.3433179,51.4256788 10.9674727,51.9749427 10.5630695,52.5746592 C9.98436655,53.4328563 7.71850322,56.8614273 7.22074358,57.5932419 C6.92150464,58.0331308 6.61521457,58.4979281 6.30234733,58.9863202 C5.62443477,60.0445554 4.91999107,61.2066377 4.19520256,62.4560358 C2.96377001,64.5787924 1.73218915,66.8500321 0.558141485,69.12087 C0.147367281,69.9153877 -0.2269821,70.6533081 -0.557602836,71.315898 C-0.756448725,71.7144009 -0.896877527,71.9999581 -0.971565457,72.1538076 L-2.09168235,74.4611333 L0.34153395,73.6500401 L5.63945714,71.88402 C5.49637806,72.6035909 5.36484178,73.3261734 5.24493003,74.0515344 L0.804399736,84.8359853 L-0.0940483661,87.0179926 L2.14459014,86.2717605 L4.32979889,85.5433387 C4.48958114,123.073534 35.0065328,153.492768 72.5730116,153.492768 C110.238131,153.492768 140.816855,122.913312 140.816855,85.2471851 C140.816855,56.1114836 122.350777,30.4530512 95.3114731,20.8879938 C92.4883202,19.4706981 89.9413276,18.1717465 87.9506433,17.1255812 C85.6922948,15.9386653 84.6623128,14.4020555 83.043114,10.5433623 C82.9374659,10.2913839 82.9374659,10.2913839 82.8307544,10.0371732 C82.7490163,9.84273195 82.6804898,9.68068225 82.6140249,9.5249501 C81.9299934,7.92221259 81.3846761,6.82846104 80.6877145,5.76819363 C79.899829,4.56963483 78.9306598,3.55757174 77.8227954,2.71737799 C75.9457809,1.29386802 74.0722923,0.585641247 72.7723952,0.341464336 L71.2554116,0.0565091844 L71.5075145,1.57929701 C71.5165775,1.63404084 71.533657,1.74586939 71.5561155,1.90810561 C71.5941791,2.1830694 71.6323891,2.49526745 71.6681218,2.83797028 C71.8258525,4.35072321 71.8830164,5.90708457 71.7816645,7.34456638 C71.7319211,8.05008084 71.644674,8.70180521 71.5175495,9.28795343 C71.2618039,10.4670874 70.4954275,11.6978496 69.3669684,12.8946202 C68.9212965,13.3672709 68.44586,13.8063799 67.966528,14.2032608 L65.4101731,9.4556215 L64.8750422,8.46178118 L63.9057819,9.04024304 C63.8108164,9.09691913 63.6331176,9.2048702 63.3800123,9.36157565 C62.9609274,9.62104417 62.4811333,9.92420198 61.947951,10.2685355 C60.4269863,11.250787 58.7807094,12.3673735 57.0675872,13.5983363 C56.5850617,13.9450318 56.0829477,14.3352585 55.5622271,14.7661862 C54.7994318,15.3974453 54.003932,16.1098902 53.1788344,16.8939226 C52.3127476,17.7169041 51.4462104,18.5874337 50.5530663,19.5206967 C50.2163238,19.8725653 49.8904363,20.2179507 49.5375488,20.5957402 C49.4180613,20.7236596 49.1556176,21.005746 48.9771489,21.1975574 L48.9771489,21.1975574 Z"/>
            </g>
            <path fill="#E6F9FF" d="M72.4170152,-2.34479103e-13 C72.4170152,-2.34479103e-13 77.5059302,5.58387647 77.7098617,12.0178698 C77.9137932,18.4518632 70.9230796,20.9056758 70.0000553,20.4141061 C69.0770309,19.9225364 67.2891561,13.2490944 66.6742913,11.8754841 C66.0594265,10.5018739 64.2807625,8.48389546 64.2807625,8.48389546 C64.2807625,8.48389546 66.1116213,19.881209 63.8407423,22.2204027 C61.5698633,24.5595964 65.5552535,25.4387716 71.3023405,24.6621076 C77.0494275,23.8854437 84.4003338,18.8824105 88.520655,19.6482583 C92.6409762,20.4141061 96.1278493,21.7038106 96.1278493,21.7038106 C96.1278493,21.7038106 86.6526296,17.4385355 84.9445821,14.6570098 C83.2365346,11.8754841 81.6540456,5.43487193 79.1684082,3.64730177 C76.6827709,1.85973162 72.4170152,-2.34479103e-13 72.4170152,-2.34479103e-13 Z" style="mix-blend-mode:darken"/>
            <path fill="#E6F9FF" d="M11.7707856,113.604328 C11.7707856,113.604328 30.1440829,152.477116 70.7803817,152.477116 C111.41668,152.477116 130.835456,123.854801 136.040976,108.462485 C141.246495,93.0701682 140.891295,79.830556 133.519579,56.369313 C126.147864,32.90807 94.5429228,21.9094379 94.5429228,21.9094379 C94.5429228,21.9094379 120.072541,42.557522 124.094799,69.5468243 C124.270771,70.727593 128.385335,75.5991154 128.475037,76.8029605 C128.564739,78.0068057 124.600712,74.8560028 124.617206,75.7298238 C124.666747,78.3543122 128.9092,86.8191596 128.475037,89.5251545 C128.040874,92.2311495 123.446362,86.9839973 122.99055,88.6263608 C120.614099,97.1890994 115.460608,106.02087 106.334518,114.75803 C88.5048693,131.827828 70.6434719,135.828679 55.3216419,134.201454 C54.3991812,134.103486 55.1171951,139.872838 54.2137059,139.735693 C53.3102168,139.598548 49.2898499,133.279554 47.696677,132.910066 C26.4944714,127.992858 11.7707856,113.604328 11.7707856,113.604328 Z" style="mix-blend-mode:multiply"/>
          </g>
          <g transform="translate(22.468 44.893)">
            <g stroke-linecap="round" stroke-linejoin="round">
              <use fill="#C6F1FF" xlink:href="#j"/>
              <path stroke="#297BCC" stroke-width="2.16" d="M47.4094441,9.72540029 C46.2360059,9.2148964 45.0789025,8.69102978 43.9801899,8.16714915 C43.0199163,7.70927807 42.1351769,7.26577924 41.3422751,6.84208591 C40.3995891,6.33835421 39.6005188,5.86991562 38.9680417,5.44619284 C37.3858784,4.38631538 35.995566,2.93721109 34.8213762,1.28995112 L34.4414775,0.756994806 L33.793216,0.847119105 C14.0720827,3.58884167 0.324280774,11.544239 0.324280774,21.0646568 C0.324280774,33.0225086 21.9751936,42.2751738 48.5091237,42.2751738 C75.0429313,42.2751738 96.6939667,33.0224817 96.6939667,21.0646568 C96.6939667,9.19267908 75.3464884,-0.023269322 49.0321114,-0.144721669 L48.4589847,-0.147366898 L48.1355421,0.325777899 C47.0553517,1.90592337 46.3704833,3.61308813 46.3029823,5.40115531 C46.2478542,6.85875872 46.6615853,8.31119245 47.4094441,9.72540029 Z"/>
            </g>
            <path fill="#5588BB" d="M18.3641664,37.2405357 C18.3641664,37.2405357 -5.36067903,30.8577156 1.77682601,16.9353653 C8.91433105,3.01301505 33.5991127,1.51163008 33.5991127,1.51163008 C33.5991127,1.51163008 37.5262704,6.71822568 39.1525308,6.66234516 C39.6191677,6.64631089 48.3731218,10.4608997 48.3731218,10.4608997 C48.3731218,10.4608997 47.2328248,8.89463124 47.2689262,5.81955572 C47.3050276,2.7444802 47.6240955,5.69839812 47.6338339,5.58408499 C47.8284932,3.29911097 47.5222611,1.43381196 49.1060023,0.789691896 C53.2760325,-0.906292329 54.60929,0.789691896 54.60929,0.789691896 C54.60929,0.789691896 52.3932259,4.49727275 54.559422,8.54397227 C56.7256181,12.5906718 58.4466166,12.4827861 57.6121317,13.4020126 C56.7776469,14.3212391 54.2109111,14.874033 49.1060023,11.8149729 C44.0010935,8.75591274 36.0544977,4.74636642 36.0544977,4.74636642 C36.0544977,4.74636642 15.916813,8.52966232 11.469599,16.471291 C3.14108562,31.3439646 18.3641664,37.2405357 18.3641664,37.2405357 Z" opacity=".196" style="mix-blend-mode:multiply"/>
          </g>
          <g transform="translate(41.192 58.454)">
            <path fill="#297BCC" d="M7.21222476,0 C11.1926591,0 14.4244495,3.2316863 14.4244495,7.2124116 C14.4244495,11.1929491 11.1926591,14.4248232 7.21222476,14.4248232 C3.23160258,14.4248232 0,11.1929491 0,7.2124116 C0,3.2316863 3.23160258,0 7.21222476,0 Z"/>
            <path fill="#297BCC" d="M10.2208323,0.65655017 C12.7008663,1.7977334 14.4244495,4.30533321 14.4244495,7.2124116 C14.4244495,11.1929491 11.1926591,14.4248232 7.21222476,14.4248232 C6.33583549,14.4248232 5.5089869,14.1857893 4.71847036,13.981356 C4.18531473,13.8434781 9.78780147,13.0585284 11.2207685,9.30622205 C13.1806164,4.17424755 10.2208323,0.65655017 10.2208323,0.65655017 Z" opacity=".48" style="mix-blend-mode:multiply"/>
            <path fill="#FFFFFF" d="M5.47848674,2.33816707 C7.46861001,2.33816707 9.08459912,3.95401022 9.08459912,5.94437287 C9.08459912,7.93473552 7.46861001,9.55057868 5.47848674,9.55057868 C3.48817566,9.55057868 1.87237436,7.93473552 1.87237436,5.94437287 C1.87237436,3.95401022 3.48817566,2.33816707 5.47848674,2.33816707 Z"/>
            <g transform="translate(45.405)">
              <path fill="#297BCC" d="M7.21222476,0 C11.1926591,0 14.4244495,3.2316863 14.4244495,7.2124116 C14.4244495,11.1929491 11.1926591,14.4248232 7.21222476,14.4248232 C3.23160258,14.4248232 0,11.1929491 0,7.2124116 C0,3.2316863 3.23160258,0 7.21222476,0 Z"/>
              <path fill="#297BCC" d="M10.2189393,0.654698197 C12.6989733,1.79588143 14.4225565,4.30348124 14.4225565,7.21055963 C14.4225565,11.1910971 11.1907661,14.4229712 7.21033178,14.4229712 C6.33394252,14.4229712 5.50709393,14.1839374 4.71657739,13.979504 C4.18342175,13.8416261 9.7859085,13.0566764 11.2188755,9.30437007 C13.1787235,4.17239558 10.2189393,0.654698197 10.2189393,0.654698197 Z" opacity=".48" style="mix-blend-mode:multiply"/>
              <path fill="#FFFFFF" d="M5.47848674,2.33816707 C7.46861001,2.33816707 9.08459912,3.95401022 9.08459912,5.94437287 C9.08459912,7.93473552 7.46861001,9.55057868 5.47848674,9.55057868 C3.48817566,9.55057868 1.87237436,7.93473552 1.87237436,5.94437287 C1.87237436,3.95401022 3.48817566,2.33816707 5.47848674,2.33816707 Z"/>
            </g>
          </g>
          <g transform="translate(29.958 91.656)">
            <mask id="l" fill="white">
              <use xlink:href="#k"/>
            </mask>
            <use fill="#297BCC" xlink:href="#k"/>
            <g transform="translate(27.618 12.158)" mask="url(#l)">
              <mask id="n" fill="white">
                <use xlink:href="#m"/>
              </mask>
              <use fill="#82C2DC" xlink:href="#m"/>
              <path fill="#2268AC" d="M16.4604901,12.7751045 C16.4604901,12.7751045 25.3761824,11.213449 26.4122757,7.43023324 C27.4483689,3.64701749 25.6574031,0.307528946 25.6574031,0.307528946 C25.6574031,0.307528946 31.8198649,1.08656965 34.5977049,2.7478661 C37.3755449,4.40916256 40.3408292,6.93419453 40.3408292,6.93419453 C40.3408292,6.93419453 33.1669921,10.3986675 29.0618643,11.586886 C24.9567365,12.7751045 16.4604901,12.7751045 16.4604901,12.7751045 Z" opacity=".165" style="mix-blend-mode:multiply" mask="url(#n)"/>
            </g>
            <path fill="#2268AC" d="M27.0561471,23.3697124 C27.0561471,23.3697124 19.7376417,16.8531123 37.7747871,11.0492094 C44.7522705,8.80402957 63.4309617,10.517403 64.0639516,10.6535109 C71.5861528,12.2709621 76.852794,14.6166632 76.852794,14.6166632 C76.852794,14.6166632 90.9661107,3.80679376 86.7331733,0.636122577 C82.5002358,-2.53454861 51.2949396,5.09947404 46.0495401,5.09947404 C40.8041406,5.09947404 0.842664487,-1.08307212 -0.219399438,2.23079302 C-1.28146336,5.54465816 3.95042117,12.9617346 12.3495524,16.8531123 C20.7486836,20.7444899 27.0561471,23.3697124 27.0561471,23.3697124 Z" opacity=".522" style="mix-blend-mode:multiply" mask="url(#l)"/>
          </g>
        </g>
      </g>
      <path fill="#C8EAFA" d="M93.2200468,246.542898 C93.2200468,246.542898 46.5205916,225.751772 20.7419822,170.118693 C-5.03662715,114.485613 0.499863206,52.4383864 0.499863206,52.4383864 C0.499863206,52.4383864 -3.15201827,118.943976 23.087574,168.494547 C49.3271664,218.045118 92.3535994,240.10673 92.3535994,240.10673 L93.2200468,246.542898 Z"/>
      <path fill="#C8EAFA" d="M89.0160871,196.088464 C89.0160871,196.088464 88.4051591,195.901328 88.0971425,195.804601 C71.7295445,190.664679 50.6094133,179.535245 33.1289846,155.490496 C-0.795113497,108.827086 0.499863206,52.4383864 0.499863206,52.4383864 C0.499863206,52.4383864 -0.967341158,102.720795 34.5139325,152.363781 C52.0657775,176.921129 72.3675363,187.013591 88.4034923,190.942755 C88.7017739,191.015841 89.2938642,191.155668 89.2938642,191.155668 L89.0160871,196.088464 Z"/>
      <path fill="#C8EAFA" d="M60.3225362,133.811007 C60.3225362,133.811007 46.733782,128.707538 26.8064478,109.339701 C6.87911351,89.9718646 0.499863206,52.4383864 0.499863206,52.4383864 C0.499863206,52.4383864 9.65376051,90.5805952 28.4633966,106.208239 C47.2730327,121.835884 58.5624932,125.871324 58.5624932,125.871324 L60.3225362,133.811007 Z"/>
    </g>
  </g>
</svg>
