<svg xmlns="http://www.w3.org/2000/svg" width="32" height="32" viewBox="0 0 32 32">
  <g fill="none" fill-rule="evenodd">
    <rect width="32" height="32" fill="#00FFFF"/>
    <path fill="#FF00FF" fill-rule="nonzero" d="M15.9888829,31.8296677 L0.502507853,20.4357437 C0.0752959786,20.1213835 -0.103447208,19.5642108 0.0597578528,19.0556171 L1.84900785,13.4789082 L1.84888285,13.4790348 L15.9886687,31.8293897 L10.1007579,13.4790348 L21.8768829,13.4790348 L15.9888829,31.8296677 L15.9887579,31.8296677 L15.9888829,31.8296677 Z M1.84900785,13.4790348 L5.39525785,2.42650317 C5.57763285,1.85789557 6.37213285,1.85776899 6.55463285,2.42650317 L10.1007579,13.4790348 L1.84900785,13.4790348 Z M30.1287579,13.4789082 L31.9180079,19.0556171 C32.0811865,19.5642382 31.9023909,20.1214174 31.4751329,20.4357437 L15.9888829,31.8296677 L30.1287579,13.4790348 L30.1287579,13.4789082 Z M30.1287579,13.4790348 L21.8768829,13.4790348 L25.4231329,2.42650317 C25.6056329,1.85776899 26.4001329,1.85789557 26.5825079,2.42650317 L30.1287579,13.4790348 Z"/>
  </g>
</svg>
