<svg xmlns="http://www.w3.org/2000/svg" width="180" height="50" viewBox="0 0 180 50">
  <g fill="#2279CF" fill-rule="evenodd">
    <path d="M50.8341571 25.3669626C50.8341571 24.0197116 51.0087981 22.844627 51.3580854 21.8416734 51.7073728 20.8387199 52.1215215 20.0727942 52.6005441 19.5438734 53.0795667 19.0149526 53.6459026 18.5858347 54.2995688 18.2565067 54.9532351 17.9271786 55.5245607 17.7225991 56.0135629 17.642762 56.5025652 17.5629249 56.9915601 17.523007 57.4805623 17.523007 59.6261843 17.523007 61.2054382 18.0120019 62.2183714 18.9900063 63.2313046 19.9680108 63.7377636 21.1555698 63.7377636 22.552719L63.7377636 33.435459C63.7377636 33.9244612 63.6928559 34.3885074 63.6030391 34.8276115 63.5132224 35.2667155 63.3236121 35.7557104 63.0342026 36.2946108 62.7447932 36.8335112 62.3605829 37.2925676 61.8815603 37.6717938 61.4025377 38.0510201 60.7289223 38.3728585 59.8606939 38.6373189 58.9924654 38.9017793 57.9845372 39.0340075 56.8368789 39.0340075 55.2201777 39.0340075 53.7482033 38.829428 52.4209115 38.4202629L52.4209115 35.1419685C53.6484069 35.5511336 54.9806685 35.7557131 56.4177362 35.7557131 57.275985 35.7557131 57.9745492 35.6908464 58.5134496 35.5611111 59.05235 35.4313758 59.4190962 35.2267963 59.6136991 34.9473665 59.808302 34.6679367 59.9305507 34.4309238 59.9804489 34.2363209 60.0303471 34.041718 60.0552958 33.7747667 60.0552958 33.435459L60.0552958 32.5971737C59.2369656 32.7568479 58.4635553 32.8416735 57.7350418 32.8516532 55.5095827 32.8516532 53.8030903 32.2079762 52.6155135 30.920603 51.4279366 29.6332298 50.8341571 27.7820349 50.8341571 25.3669626zM54.5166248 25.4268402C54.5166248 27.1433378 54.7910608 28.3084429 55.3399408 28.9221906 55.8888208 29.5359383 56.7270978 29.8428076 57.8547968 29.8428076 58.6032696 29.8428076 59.3367619 29.7729512 60.0552958 29.6332362L60.0552958 22.5078109C60.0552958 21.3701322 59.2120291 20.8013014 57.5254704 20.8013014L57.4805623 20.8013014C56.5025578 20.8013014 55.7640758 21.1580681 55.2650939 21.8716122 54.766112 22.5851562 54.5166248 23.7702204 54.5166248 25.4268402zM68.2435472 15.6817731L68.2435472 12.3136624 72.0008619 12.3136624 72.0008619 15.6817731 68.2435472 15.6817731zM68.3034248 33.0612245L68.3034248 17.7625171 71.9709231 17.7625171 71.9709231 33.0612245 68.3034248 33.0612245zM75.3390339 20.9210565L75.3390339 17.7625171 77.9137674 17.7625171 77.9137674 13.2267946 81.5962351 13.2267946 81.5962351 17.7625171 85.2188253 17.7625171 85.2188253 20.9210565 81.5962351 20.9210565 81.5962351 28.4656245C81.5962351 29.1242806 81.7334531 29.5683678 82.0078931 29.7978994 82.2823331 30.0274311 82.7688331 30.1421952 83.4674078 30.1421952 84.1260638 30.1421952 84.7098638 30.0324208 85.2188253 29.8128688L85.2188253 32.8516532C84.5002915 33.1510423 83.7169017 33.3007346 82.8686325 33.3007346L82.7937856 33.3007346C81.2768807 33.3007346 80.084332 32.8516576 79.2161035 31.9534903 78.3478751 31.0553229 77.9137674 29.8178665 77.9137674 28.2410838L77.9137674 20.9210565 75.3390339 20.9210565zM89.3803133 33.0612245L89.3803133 18.9600676C91.3463018 17.9820631 93.387107 17.4930682 95.5027901 17.4930682 97.1793692 17.4930682 98.5266 17.9122067 99.544523 18.7504962 101.510512 17.9122067 103.401624 17.4930682 105.217918 17.4930682 107.074131 17.4930682 108.513672 17.9820631 109.536585 18.9600676 110.559498 19.938072 111.070946 21.3152413 111.070946 23.0916167L111.070946 33.0612245 108.870447 33.0612245 108.870447 23.0916167C108.870447 22.6624923 108.830529 22.2807769 108.750692 21.9464591 108.670855 21.6121412 108.508689 21.2553745 108.264187 20.8761483 108.019686 20.4969221 107.625497 20.2050221 107.081606 20.0004395 106.537716 19.795857 105.866596 19.6935672 105.068225 19.6935672 103.780851 19.6935672 102.368754 19.9480442 100.83189 20.4570057 101.161218 21.1954988 101.325879 22.0736937 101.325879 23.0916167L101.325879 33.0612245 99.1253803 33.0612245 99.1253803 23.0916167C99.1253803 22.642533 99.0829675 22.2508382 98.9981406 21.9165203 98.9133137 21.5822025 98.7486521 21.2304255 98.504151 20.861179 98.2596499 20.4919324 97.8579755 20.2050221 97.2991158 20.0004395 96.7402561 19.795857 96.0516715 19.6935672 95.2333412 19.6935672 93.9858866 19.6935672 92.7683891 19.8781878 91.5808123 20.2474343L91.5808123 33.0612245 89.3803133 33.0612245zM114.723475 28.3758082C114.723475 27.6772336 114.850714 27.0510208 115.105195 26.4971509 115.359675 25.943281 115.671534 25.4942041 116.040781 25.1499066 116.410027 24.8056091 116.879063 24.5112142 117.447903 24.2667131 118.016742 24.022212 118.520706 23.8425812 118.95981 23.7278154 119.398914 23.6130496 119.920342 23.5257291 120.52411 23.4658513 121.127879 23.4059734 121.556997 23.3710452 121.811477 23.3610656 122.065958 23.3510859 122.367838 23.3460962 122.717125 23.3460962L125.172103 23.49579C125.172103 22.1285797 124.795378 21.1530848 124.041915 20.569276 123.288452 19.9854672 122.173245 19.6935672 120.696258 19.6935672 119.039639 19.6935672 117.547705 19.9380647 116.220413 20.4270669L116.220413 18.2864454C117.727339 17.7575246 119.25919 17.4930682 120.816013 17.4930682 122.961635 17.4930682 124.598271 18.0344554 125.72597 19.1172461 126.853669 20.2000367 127.41751 21.7842804 127.41751 23.8700245L127.41751 28.4656245C127.41751 29.443629 127.190477 30.279411 126.736404 30.9729958 126.28233 31.6665806 125.69853 32.1680499 124.984986 32.4774186 124.271442 32.7867874 123.602816 33.0013464 122.979089 33.121102 122.355362 33.2408577 121.739128 33.3007346 121.13037 33.3007346 120.661327 33.3007346 120.179817 33.2707961 119.685825 33.2109183 119.191833 33.1510405 118.632982 33.0138225 118.009254 32.7992603 117.385527 32.5846981 116.84414 32.3102622 116.385077 31.9759444 115.926013 31.6416265 115.534318 31.1626111 115.20998 30.5388838 114.885642 29.9151565 114.723475 29.1941385 114.723475 28.3758082zM116.923974 28.3758082C116.923974 30.2918986 118.311123 31.2499294 121.085462 31.2499294L121.13037 31.2499294C123.844832 31.2499294 125.202042 30.321837 125.202042 28.4656245L125.202042 25.5166565C124.523427 25.3969008 123.615293 25.3370239 122.477615 25.3370239 118.775169 25.3370239 116.923974 26.3499419 116.923974 28.3758082zM130.710774 21.9389744C130.710774 20.711479 131.157356 19.6636328 132.050534 18.7954044 132.943711 17.9271759 134.308406 17.4930682 136.14466 17.4930682 137.451992 17.4930682 138.759305 17.8074221 140.066637 18.4361392L140.066637 20.6516076C138.89902 19.953033 137.671543 19.6037509 136.38417 19.6037509 134.078873 19.6037509 132.926243 20.382151 132.926243 21.9389744 132.926243 22.4678952 133.205668 22.8945183 133.764528 23.2188565 134.323388 23.5431947 135.006983 23.8126408 135.815333 24.027203 136.623684 24.2417652 137.432022 24.498737 138.240373 24.7981262 139.048724 25.0975153 139.734813 25.6039743 140.298663 26.3175183 140.862512 27.0310624 141.144433 27.9416906 141.144433 29.0494304 141.144433 30.3767221 140.647953 31.4170837 139.654979 32.1705463 138.662006 32.9240089 137.287331 33.3007346 135.530915 33.3007346 133.834377 33.3007346 132.292546 32.9165243 130.905376 32.1480922L130.905376 29.8128688C132.372383 30.7110362 133.884275 31.1601131 135.441099 31.1601131 137.766354 31.1601131 138.928964 30.4565592 138.928964 29.0494304 138.928964 28.2909779 138.649539 27.6971984 138.090679 27.268074 137.531819 26.8389496 136.848225 26.5171112 136.039874 26.302549 135.231523 26.0879868 134.423185 25.8534688 133.614834 25.598988 132.806484 25.3445073 132.120394 24.9153893 131.556544 24.3116213 130.992695 23.7078532 130.710774 22.9169788 130.710774 21.9389744zM143.210207 19.7833835L143.210207 17.7625171 145.874757 17.7625171 145.874757 13.436366 148.090226 13.436366 148.090226 17.7625171 152.042142 17.7625171 152.042142 19.7833835 148.090226 19.7833835 148.090226 29.1093079C148.090226 29.8877196 148.252392 30.4340965 148.576731 30.7484551 148.901069 31.0628137 149.472394 31.2199906 150.290725 31.2199906 150.919442 31.2199906 151.503242 31.1002368 152.042142 30.8607255L152.042142 32.9414694C151.393466 33.1809807 150.744799 33.3007346 150.096123 33.3007346L150.021276 33.3007346C149.612111 33.3007346 149.212931 33.2558269 148.823725 33.1660102 148.434519 33.0761934 147.995422 32.8990575 147.50642 32.6345971 147.017418 32.3701367 146.623228 31.9260495 146.323839 31.3023222 146.02445 30.6785949 145.874757 29.9076795 145.874757 28.9895528L145.874757 19.7833835 143.210207 19.7833835zM154.601906 25.6064727L154.601906 25.381932C154.601906 20.1226632 156.842301 17.4930682 161.323158 17.4930682 162.261244 17.4930682 163.111996 17.6402657 163.875438 17.934665 164.63888 18.2290643 165.245134 18.5758515 165.694218 18.9750369 166.143301 19.3742224 166.537491 19.8956507 166.876799 20.5393373 167.216107 21.1830239 167.458109 21.7294008 167.602814 22.1784845 167.747519 22.6275682 167.859788 23.1714502 167.939625 23.810147 168.019462 24.4288845 168.05938 24.8180845 168.05938 24.9777587L168.05938 25.6364115 167.999502 26.7142069 156.847314 26.7142069C156.987028 28.2510711 157.456064 29.3662788 158.254435 30.0598636 159.052806 30.7534484 160.235376 31.1002356 161.802179 31.1002356 164.027638 31.1002356 165.779038 30.721015 167.056431 29.9625626L167.056431 32.2379085C165.579445 32.9464628 163.788127 33.3007346 161.682424 33.3007346L161.592607 33.3007346C160.69444 33.3007346 159.871132 33.1934551 159.122659 32.9788929 158.374187 32.7643307 157.638199 32.3925948 156.914676 31.863674 156.191152 31.3347532 155.624816 30.5388891 155.215651 29.4760577 154.806486 28.4132264 154.601906 27.1233776 154.601906 25.6064727zM156.847314 24.753218L165.799003 24.753218C165.799003 24.4039307 165.756591 24.0147307 165.671764 23.5856063 165.586937 23.1564819 165.417285 22.6051152 165.162805 21.9314897 164.908324 21.2578642 164.449268 20.696518 163.785622 20.2474343 163.121976 19.7983507 162.301163 19.5738122 161.323158 19.5738122 159.806254 19.5738122 158.706015 19.9680019 158.02241 20.7563933 157.338805 21.5447846 156.94711 22.8770462 156.847314 24.753218zM171.726878 33.0612245L171.726878 18.9900063C174.032175 18.0120019 176.507087 17.523007 179.151691 17.523007L179.151691 19.6336897C177.475112 19.6736083 175.733692 19.9380647 173.927377 20.4270669L173.927377 33.0612245 171.726878 33.0612245zM20.3525794 6.09615385L20.3493943 6.08974359 6.78419312 13.9198718C6.18221542 14.2435897 5.68534494 14.7435897 5.35728302 15.3461538L.490500348 12.6730769C.90774415 11.8525641 1.57023813 11.1762821 2.37924519 10.7403846L19.8174881.673076923 19.8238582.682692308C20.5150178.25 21.3335801 0 22.2094735 0 23.0312209 0 23.7988221.221153846 24.4613161.602564103L41.995111 10.7275641C42.9187804 11.2179487 43.6513459 12.0192308 44.0526644 12.9903846L39.1604012 15.5865385C38.8418944 14.8685897 38.2845077 14.275641 37.5933481 13.9102564L23.9580754 6.03525641C23.4420946 5.73717949 22.846487 5.56730769 22.2062885 5.56730769 21.5246841 5.56730769 20.8908557 5.75961538 20.3525794 6.09615385zM44.3934666 14.5160256C44.3934666 14.5833333 44.3998367 14.650641 44.3998367 14.7179487L44.3998367 35.2948718C44.3998367 37.0641026 43.3774301 38.5961538 41.8931888 39.3365385L24.5950889 49.3782051C24.1109587 49.6826923 23.5663122 49.8974359 22.9866299 50L22.9866299 44.4166667C23.3720231 44.3269231 23.7351207 44.1730769 24.0631827 43.9679487L37.5137214 36.1570513C38.6699008 35.5833333 39.4629825 34.3910256 39.4629825 33.0128205L39.4629825 17.1314103 44.3934666 14.5160256zM.0605162767 14.5160256L5.09610751 17.1314103 5.09610751 33.0128205C5.09610751 34.3910256 5.88918924 35.5833333 7.04536863 36.1570513L6.93707635 36.1570513 20.3908002 43.9679487 20.2633975 43.9679487C20.5914594 44.1730769 20.9545571 44.3269231 21.3399502 44.4166667L21.3399502 50C20.7570829 49.8974359 20.2124364 49.6826923 19.7314913 49.3782051L19.858894 49.3814103 2.55760896 39.3365385 2.50664788 39.3365385C1.0192215 38.5961538 0 37.0641026 0 35.2948718L0 14.7179487C0 14.650641.0573312095 14.5833333.0605162767 14.5160256z"/>
    <path d="M28.5872727,37.5321747 L34.8596996,33.9117727 L34.8596996,19.3877551 L22.2781079,27.2806495 L9.69651606,19.3877551 L9.69651606,33.9117727 L16.3551696,37.755102 L16.3551693,30.583352 L22.4712209,34.4201757 L28.5872725,30.583352 L28.5872727,37.5321747 Z"/>
  </g>
</svg>
