<svg xmlns="http://www.w3.org/2000/svg" width="32" height="32" viewBox="0 0 32 32">
  <g fill="none" fill-rule="evenodd">
    <rect width="32" height="32" fill="#00FFFF"/>
    <path fill="#FF00FF" fill-rule="nonzero" d="M26.0221935,22.4295665 C26.2999007,22.5078498 26.4587295,22.65803 26.4983325,22.8807253 C26.537727,23.1028712 26.5045161,23.3970515 26.3991166,23.7629227 C26.2938561,24.128588 26.2405658,24.370648 26.2405658,24.4883476 C26.1344715,24.8281931 26.032268,25.3280386 25.9326352,25.9878841 C25.8334888,26.6480043 25.7407345,27.1971545 25.6546501,27.6349914 C25.5688437,28.0725536 25.3802779,28.5303047 25.0897171,29.0073519 C24.7984615,29.4839184 24.4150074,29.8533605 23.938938,30.1151287 C22.8019156,30.7423562 21.5488635,31.209721 20.1800596,31.5166738 C18.8112556,31.8234892 17.4759404,31.9675579 16.172933,31.9478498 C14.8703424,31.9283476 13.5381538,31.8075579 12.1760893,31.5852746 C11.5676625,31.4802103 11.0288536,31.3629227 10.5593846,31.2320386 C10.0899851,31.1014292 9.5840397,30.9250858 9.0418263,30.7030772 C8.4996129,30.480794 8.01708189,30.1961588 7.59395533,29.8502704 C7.17068983,29.5039013 6.82690819,29.1015665 6.56226303,28.6442961 C6.2316129,27.3894292 5.85475931,25.4812403 5.43156328,22.9195236 L5.55065012,22.6057725 L5.90777171,22.4295665 C8.85673449,24.3636437 12.2059653,25.3311287 15.9549777,25.3311287 C19.7039206,25.3311287 23.0600993,24.3636437 26.0221935,22.4295665 Z M29.612933,3.58850211 C29.8240794,3.84978967 29.9339256,4.18338623 29.9400397,4.58867379 C29.945737,4.99389267 29.9096079,5.34685404 29.8301935,5.64742057 C29.4864119,7.83015018 28.7526452,12.1106652 27.6284764,18.4893776 C27.562402,18.8813433 27.3838412,19.2472146 27.0930025,19.5869914 C26.8024417,19.9267682 26.5143127,20.1881244 26.2299355,20.3714721 C25.9455583,20.5544764 25.5855186,20.7571201 25.1492605,20.9789227 C21.8169132,22.62603 17.7828983,23.2006566 13.0487444,22.7043133 C9.76920099,22.3512832 7.16401985,21.4429914 5.23320099,19.978957 C5.03476923,19.8227339 4.86628288,19.6490686 4.72732506,19.4596781 C4.5885062,19.2700128 4.47601985,19.041618 4.39007444,18.7732575 C4.30419851,18.5053776 4.24472457,18.2830257 4.21165261,18.106339 C4.17851117,17.9300643 4.13890819,17.6717983 4.09256576,17.3318154 C4.0462928,16.9917639 4.01002481,16.7633691 3.98355335,16.6456008 C3.8644665,15.9922789 3.68944913,15.0118841 3.45787593,13.704691 C3.22637221,12.3975665 3.0412804,11.3421845 2.90253102,10.5384764 C2.76371216,9.73469954 2.60849628,8.77071671 2.43632754,7.64673387 C2.26415881,6.5226137 2.11873945,5.49016735 2,4.5489828 C2.03967246,4.20913731 2.15521588,3.8922961 2.34711663,3.59818452 C2.53901737,3.30407293 2.74717618,3.05899138 2.97187097,2.86307722 C3.19670471,2.66702572 3.49442184,2.47097422 3.86474442,2.27492271 C4.23520596,2.07880254 4.53917618,1.93178108 4.7772804,1.83378967 C5.01545409,1.73572958 5.33269479,1.61493988 5.72955831,1.47121456 C7.38273945,0.869806834 9.45223821,0.451678079 11.9381241,0.216553615 C16.9498462,-0.267223209 21.4199107,0.0595750747 25.3478313,1.19681113 C27.3973896,1.79815018 28.819206,2.5954034 29.612933,3.58850211 Z M19.3763275,18.1159528 C20.1835335,17.122648 20.5137667,16.0249656 20.368139,14.8224935 C20.1831861,13.4239013 19.4355931,12.3521073 18.1264715,11.6071116 C16.8172804,10.8620472 15.5150372,10.777103 14.2190471,11.3522789 C13.3859256,11.7182875 12.7214988,12.2965536 12.2254888,13.0872832 C11.7294789,13.8780128 11.5013102,14.7242961 11.5410521,15.6262017 C11.5938561,16.8156952 12.1063325,17.8287768 13.0783424,18.6651716 C14.0503524,19.5017038 15.1444367,19.8675751 16.360804,19.7630601 C17.5642481,19.6580643 18.56933,19.1093261 19.3763275,18.1159528 Z M23.6214194,5.1080901 C24.2299156,4.87962658 24.7260645,4.5753519 25.1095881,4.19622744 C24.8454988,3.84347207 24.4748288,3.55258795 23.9987593,3.32391842 C23.5227593,3.09538623 23.1394442,2.95138623 22.8484665,2.89267379 C22.5574888,2.833824 22.0880893,2.75217593 21.4399206,2.64759224 C17.5916228,2.03320598 13.8492109,2.04625319 10.2124069,2.68673387 C9.64386104,2.77827035 9.20732506,2.85662228 8.90321588,2.92206435 C8.5991067,2.98750641 8.23531514,3.13123173 7.81225806,3.35330898 C7.38906203,3.5754549 7.05841191,3.85651928 6.82030769,4.19622744 C7.2168933,4.56237336 7.71943424,4.85950641 8.32786104,5.08831327 C8.93628784,5.31718881 9.4222928,5.46091413 9.78580645,5.51955791 C10.1494591,5.57854503 10.7280794,5.6538755 11.5215285,5.74541198 C14.5364268,6.12433044 17.49866,6.13078538 20.4085062,5.76512014 C21.2416278,5.66012443 21.8331712,5.58170383 22.1836923,5.52944632 C22.5336576,5.47725748 23.0129926,5.33675962 23.6214194,5.1080901 Z M17.6598511,13.9107296 C18.0231563,14.2964464 18.2052605,14.7375794 18.20533,15.2342661 C18.3113548,16.0576824 17.9773697,16.7180086 17.203861,17.2143519 C16.429727,17.71097 15.6929032,17.7504549 14.9920695,17.3319142 C14.4762581,17.1097682 14.1226799,16.7307811 13.9307792,16.1949528 C13.7388784,15.6587811 13.7357519,15.1228155 13.9207742,14.5869185 C14.1061439,14.0510215 14.4499256,13.672103 14.9524665,13.4498884 C15.4286749,13.2145579 15.9078015,13.136206 16.3903325,13.2145579 C16.8728635,13.2930472 17.2963375,13.5250129 17.6598511,13.9107296 Z"/>
  </g>
</svg>
