<svg xmlns="http://www.w3.org/2000/svg" width="16" height="16" viewBox="0 0 16 16">
  <g fill="none" fill-rule="evenodd">
    <rect width="16" height="16" fill="#00FFFF"/>
    <circle cx="12" cy="12" r="4" fill="#F25335" fill-rule="nonzero"/>
    <path fill="#FFFFFF" fill-rule="nonzero" d="M11,10.0093689 C11,9.45190985 11.4438648,9 12,9 C12.5522847,9 13,9.44335318 13,10.0093689 L13,11.9906311 C13,12.5480902 12.5561352,13 12,13 C11.4477153,13 11,12.5566468 11,11.9906311 L11,10.0093689 Z M11,14.5 C11,14.2238576 11.214035,14 11.5046844,14 L12.4953156,14 C12.7740451,14 13,14.2319336 13,14.5 C13,14.7761424 12.785965,15 12.4953156,15 L11.5046844,15 C11.2259549,15 11,14.7680664 11,14.5 Z"/>
  </g>
</svg>
