<?xml version="1.0" encoding="UTF-8" standalone="no"?>
<svg width="16px" height="16px" viewBox="0 0 16 16" version="1.1" xmlns="http://www.w3.org/2000/svg" xmlns:xlink="http://www.w3.org/1999/xlink">
    <defs>
        <linearGradient x1="50%" y1="0%" x2="50%" y2="87.5530791%" id="linearGradient-1">
            <stop stop-color="#FFFFFF" offset="0%"></stop>
            <stop stop-color="#ECECEC" offset="100%"></stop>
        </linearGradient>
    </defs>
    <g id="iconfile" stroke="none" stroke-width="1" fill="none" fill-rule="evenodd">
        <g>
            <path d="M5,0 L13.0014977,0 C13.5529553,0 14,0.444630861 14,1.00087166 L14,14.9991283 C14,15.5518945 13.5525106,16 13.0014977,16 L1.99850233,16 C1.44704472,16 1,15.5553691 1,14.9991283 L1,4 L5,4 L5,3.33066907e-16 L5,0 Z" id="Combined-Shape-Copy" fill="#979797"></path>
            <polygon id="Combined-Shape" fill="url(#linearGradient-1)" points="9.5 15 13 15 13 1 6 1 6 5 2 5 2 15 9.5 15"></polygon>
            <path d="M9.5,15 L13,15 L13,1 L6,1 L6,5 L2,5 L2,15 L9.5,15 L9.5,15 L9.5,15 Z M9.5,14 L12,14 L12,2 L7,2 L7,6 L3,6 L3,14 L9.5,14 L9.5,14 Z" id="Combined-Shape" fill="#FFFFFF"></path>
            <g id="Group-4" transform="translate(1.000000, 0.000000)">
                <polygon id="Path-2" fill="#979797" points="0 5.07354736 4.97452637 5.07354736 4.99414062 0 3.9710083 0.00860595703 0.0139770508 4.00842285"></polygon>
                <path d="M3.95672607,4.11686432 L3.95672607,1.45001221 C3.95672607,1.45001221 1.30004883,4.14164471 1.30004883,4.1416446 C1.30004883,4.14164448 3.95672607,4.11686432 3.95672607,4.11686432 Z" id="Path-3" fill="#FFFFFF"></path>
            </g>
        </g>
    </g>
</svg>