<?xml version="1.0" encoding="UTF-8" standalone="no"?>
<svg width="13px" height="12px" viewBox="0 0 13 12" version="1.1" xmlns="http://www.w3.org/2000/svg" xmlns:xlink="http://www.w3.org/1999/xlink">
    <!-- Generator: Sketch 39.1 (31720) - http://www.bohemiancoding.com/sketch -->
    <title>iconeditorrenamed</title>
    <desc>Created with Sketch.</desc>
    <defs></defs>
    <g id="Page-1" stroke="none" stroke-width="1" fill="none" fill-rule="evenodd">
        <g id="iconeditorrenamed">
            <g id="Group">
                <rect id="Rectangle-2-Copy-5" fill="#9A6BFC" x="0" y="0" width="13" height="12" rx="1.625"></rect>
                <path d="M5.19805201,5.50183847 L5.77403658,5.50183847 C6.33850429,5.50183847 6.75512896,5.42377552 7.0239231,5.26764728 C7.29271725,5.11151904 7.4271123,4.86617835 7.4271123,4.53161784 C7.4271123,4.20024362 7.28983735,3.96446165 7.01528333,3.82426486 C6.74072932,3.68406808 6.31546496,3.61397074 5.73947751,3.61397074 L5.19805201,3.61397074 L5.19805201,5.50183847 Z M5.19805201,6.70625029 L5.19805201,9.38750041 L3.41249985,9.38750041 L3.41249985,2.4000001 L5.86619412,2.4000001 C7.01048918,2.4000001 7.85717803,2.57285377 8.40628607,2.91856629 C8.95539411,3.26427882 9.22994401,3.78921232 9.22994401,4.49338254 C9.22994401,4.90441403 9.09362902,5.27003539 8.82099496,5.59025759 C8.5483609,5.91047979 8.1624551,6.16139641 7.66326598,6.34301498 C8.93043837,7.91385623 9.75600799,8.92867456 10.1399996,9.38750041 L8.15861271,9.38750041 L6.14842655,6.70625029 L5.19805201,6.70625029 Z" id="R" fill="#FFFFFF"></path>
            </g>
        </g>
    </g>
</svg>