<svg xmlns="http://www.w3.org/2000/svg" width="16" height="16" viewBox="0 0 16 16"><title>  buttonsearchnext</title><desc>  Created with Sketch.</desc><g fill="none"><polygon points="11.2 8.6 11.2 6.7 16 11.3 11.2 15.4 11.2 13.5 8.3 13.5 8.3 8.6" fill="#00B190"/><path d="M7.3 9.1L7.3 11.5C6.8 11.4 6.3 11.2 5.8 11L3.2 13.6C3 13.8 2.6 13.8 2.5 13.6L0.4 11.6C0.2 11.4 0.2 11.1 0.4 10.9L3.1 8.3C2.7 7.5 2.5 6.7 2.5 5.8 2.5 2.6 5.1 0 8.3 0 11.5 0 14.1 2.6 14.1 5.8 14.1 6.5 13.9 7.2 13.7 7.9L11.7 6C11.8 6 11.8 5.9 11.8 5.8 11.8 3.9 10.2 2.3 8.3 2.3 6.4 2.3 4.8 3.9 4.8 5.8 4.8 7.3 5.9 8.7 7.3 9.1L7.3 9.1 7.3 9.1 7.3 9.1 7.3 9.1Z" fill="#2A455C"/></g></svg>