<svg xmlns="http://www.w3.org/2000/svg" width="16" height="16" viewBox="0 0 16 16">
  <path fill="#000000" fill-rule="evenodd" d="M8,16 C3.581722,16 0,12.418278 0,8 C0,3.581722 3.581722,0 8,0 C12.418278,0 16,3.581722 16,8 C16,12.418278 12.418278,16 8,16 L8,16 L8,16 Z M8,15 C4.13400675,15 1,11.8659932 1,8 C1,4.13400675 4.13400675,1 8,1 C11.8659932,1 15,4.13400675 15,8 C15,11.8659932 11.8659932,15 8,15 L8,15 L8,15 Z M11.7071068,4.05025253 L11,3.34314575 L6.34314575,8 L11,12.6568542 L11.7071068,11.9497475 L7.75735931,8 L11.7071068,4.05025253 L11.7071068,4.05025253 Z M5.5,3.5 L4.5,3.5 L4.5,12.5 L5.5,12.5 L5.5,3.5 L5.5,3.5 Z"/>
</svg>
