<svg xmlns="http://www.w3.org/2000/svg" width="16" height="16" viewBox="0 0 16 16">
  <g fill="none" fill-rule="evenodd">
    <rect width="16" height="16"/>
    <path fill="#000000" fill-rule="nonzero" d="M15,9.14958734 L15,5.87934748 L9.32126665,0 L1,0 L1,16 L15,16 L15,13.4580257 C14.5920981,13.0776103 14.0861762,12.7161101 13.4614284,12.4252592 C13.3036903,12.3518243 13.1498412,12.2874297 13,12.2312408 L13,14 L3,14 L3,2 L8.32126665,2 L13,6.87934748 L13,6.92153178 C13.2324062,7.09544655 13.5263852,7.32236967 13.8975855,7.61694336 C14.3256922,7.95667622 14.6904444,8.49939072 15,9.14958734 Z"/>
    <path fill="#000000" fill-rule="nonzero" d="M10.056585,9.7603684 L10.056585,12 L15.056585,8 L10.056585,4 L10.056585,6.00569493 C9.3337543,6.05877254 8.31959372,6.2566984 7.27097487,6.85780102 C5.28828335,7.99434466 4,12.5556331 4,12.5556331 C4,12.5556331 5.30753278,10.7643874 7.27097487,10.021102 C8.31265059,9.6267627 9.3304891,9.6508453 10.056585,9.7603684 L10.056585,9.7603684 Z" transform="matrix(-1 0 0 1 19.057 0)"/>
  </g>
</svg>
