<svg xmlns="http://www.w3.org/2000/svg" width="16" height="16" viewBox="0 0 16 16">
  <g fill="none" fill-rule="evenodd">
    <path fill="#FF00FF" d="M11.891087,10.4768734 C13.5610153,8.13366904 13.3448665,4.85958515 11.2426407,2.75735931 C8.89949494,0.414213562 5.10050506,0.414213562 2.75735931,2.75735931 C0.414213562,5.10050506 0.414213562,8.89949494 2.75735931,11.2426407 C4.85958515,13.3448665 8.13366904,13.5610153 10.4768734,11.891087 L14.0710678,15.4852814 L15.4852814,14.0710678 L11.891087,10.4768734 L11.891087,10.4768734 L11.891087,10.4768734 Z M5.47314586,7.47314586 L7.94974747,9.94974747 L7.24264069,10.6568542 L3.58578644,7 L7.24264069,3.34314575 L7.94974747,4.05025253 L5.52685413,6.47314586 L10.0857864,6.47314586 L10.0857864,7.47314586 L5.47314586,7.47314586 L5.47314586,7.47314586 Z M10.5355339,10.5355339 C12.4881554,8.58291245 12.4881554,5.41708755 10.5355339,3.46446609 C8.58291245,1.51184464 5.41708755,1.51184464 3.46446609,3.46446609 C1.51184464,5.41708755 1.51184464,8.58291245 3.46446609,10.5355339 C5.41708755,12.4881554 8.58291245,12.4881554 10.5355339,10.5355339 L10.5355339,10.5355339 Z"/>
  </g>
</svg>
