<svg xmlns="http://www.w3.org/2000/svg" width="16" height="16" viewBox="0 0 16 16">
  <g fill="none" fill-rule="evenodd">
    <rect width="16" height="16"/>
    <path fill="#000000" fill-rule="nonzero" d="M1.7133568,8.36533257 C0.7756267,6.17671889 1.2000225,3.54388087 2.986544,1.75735931 C5.3296898,-0.585786438 9.12867966,-0.585786438 11.4718254,1.75735931 C13.4487257,3.73425956 13.7577251,6.74746049 12.3988239,9.04831882 L16.0680195,12.7175144 L13.9466991,14.8388347 L10.2775035,11.1696391 C9.84095793,11.4274657 9.37876938,11.625251 8.90288104,11.762995 L8.90288104,9.63420362 C9.32113396,9.44163942 9.71299175,9.17304722 10.0576118,8.82842712 C11.619709,7.26632995 11.619709,4.73367004 10.0576118,3.17157287 C8.49551468,1.6094757 5.9628548,1.6094757 4.4007576,3.17157287 C3.4375165,4.13481401 3.0682419,5.46709866 3.2929339,6.71329778 L1.7133568,8.36533257 Z M4.4444444,9.26471862 L8,9.26471862 L8,13.7647186 L4.4444444,13.7647186 L4.4444444,16.0147186 L0,11.5147186 L4.4444444,7.01471862 L4.4444444,9.26471862 Z"/>
  </g>
</svg>
