<svg xmlns="http://www.w3.org/2000/svg" width="16" height="16" viewBox="0 0 16 16">
  <g fill="none" fill-rule="evenodd">
    <rect width="16" height="16"/>
    <path fill="#000000" fill-rule="nonzero" d="M14.2866432,8.35061395 L12.7070661,6.69857916 C12.9317581,5.45238004 12.5624835,4.12009539 11.5992424,3.15685425 C10.0371452,1.59475708 7.50448532,1.59475708 5.94238816,3.15685425 C4.38029099,4.71895142 4.38029099,7.25161133 5.94238816,8.8137085 C6.28700825,9.1583286 6.67886604,9.4269208 7.09711896,9.619485 L7.09711896,11.7482764 C6.62123062,11.6105324 6.15904207,11.4127471 5.72249649,11.1549205 L2.05330086,14.8241161 L-0.068019485,12.7027958 L3.60117615,9.0336002 C2.24227486,6.73274187 2.55127434,3.71954094 4.52817459,1.74264069 C6.87132034,-0.600505063 10.6703102,-0.600505063 13.013456,1.74264069 C14.7999775,3.52916225 15.2243733,6.16200027 14.2866432,8.35061395 Z M11.5555556,9.25 L11.5555556,7 L16,11.5 L11.5555556,16 L11.5555556,13.75 L8,13.75 L8,9.25 L11.5555556,9.25 Z"/>
  </g>
</svg>
