<svg xmlns="http://www.w3.org/2000/svg" width="16" height="16" viewBox="0 0 16 16">
  <g fill="none" fill-rule="evenodd">
    <rect width="16" height="16"/>
    <path fill="#000000" fill-rule="nonzero" d="M6.02405047,10.7555475 L6.02405047,13 L11.0240505,9 L6.02405047,5 L6.02405047,7.00816725 C5.30349618,7.06476597 4.30395457,7.26566327 3.27097487,7.85780102 C1.28828335,8.99434466 0,13.5556331 0,13.5556331 C0,13.5556331 1.30753279,11.7643874 3.27097487,11.021102 C4.29718415,10.6326177 5.30025878,10.6502224 6.02405047,10.7555475 Z M1.02405047,13.4901244 L1.02405047,16 L15.0240505,16 L15.0240505,5.87934748 L9.34531712,0 L1.02405047,0 L1.02405047,9.19823085 C1.5895973,8.23735227 2.25393395,7.42598976 3.02405047,6.94866034 L3.02405047,2 L8.34531712,2 L13.0240505,6.87934748 L13.0240505,14 L3.02405047,14 L3.02405047,12.149114 C2.31707955,12.3992081 1.63606379,12.9010758 1.02405047,13.4901244 L1.02405047,13.4901244 Z"/>
  </g>
</svg>
