<svg xmlns="http://www.w3.org/2000/svg" width="16" height="16" viewBox="0 0 16 16">
  <path fill="#000000" fill-rule="evenodd" d="M2.26727353,8.06599263 C1.37994366,7.17859479 0.967244629,5.96117587 1.08686273,4.76073617 L2.85577551,6.52968435 C3.00151923,6.67543099 3.21820053,6.72414703 3.41230176,6.65480708 L5.56352252,5.88631362 C5.71407448,5.83253104 5.83255811,5.71404587 5.88633873,5.5634932 L6.65478299,3.41232165 C6.72411891,3.21822369 6.67540372,3.00154776 6.52966168,2.85580571 L4.76071316,1.08685719 C5.96117854,0.967256428 7.17862707,1.37997607 8.06595897,2.26734195 C9.15564769,3.35703067 9.53058101,4.94527357 9.07951046,6.3914079 C9.01365462,6.60254205 9.08494767,6.83241496 9.25871732,6.96923139 C9.31199049,7.01117568 9.3605455,7.05400255 9.40490049,7.09835754 L14.4556138,12.1490217 C15.092593,12.7859638 15.092593,13.8186574 14.455612,14.4556384 C13.8186291,15.0926213 12.7858778,15.0926213 12.148895,14.4556384 L7.09818348,9.40492692 C7.05398588,9.36072932 7.01121659,9.31222663 6.96895669,9.25860272 C6.83211617,9.08496475 6.60233269,9.01375662 6.39128305,9.0795861 C4.94517801,9.53064752 3.35697453,9.15569363 2.26727353,8.06599263 Z M12.8001002,13.3334139 C13.0946404,13.3334139 13.3334125,13.0946419 13.3334125,12.8001017 C13.3334125,12.5055615 13.0946404,12.2667895 12.8001002,12.2667895 C12.50556,12.2667895 12.266788,12.5055615 12.266788,12.8001017 C12.266788,13.0946419 12.50556,13.3334139 12.8001002,13.3334139 Z"/>
</svg>
