<svg xmlns="http://www.w3.org/2000/svg" width="32" height="32" viewBox="0 0 32 32">
  <path fill="#FF00FF" fill-rule="evenodd" d="M11.5,5.58808445 C7.36894024,7.48409892 4.5,11.657011 4.5,16.5 C4.5,23.127417 9.872583,28.5 16.5,28.5 C23.127417,28.5 28.5,23.127417 28.5,16.5 C28.5,10.8992068 24.6629839,6.19459669 19.4742334,4.87145125 L19.8697603,3.42396154 C25.6950606,4.92078286 30,10.2076552 30,16.5 C30,23.9558441 23.9558441,30 16.5,30 C9.04415588,30 3,23.9558441 3,16.5 C3,11.275603 5.96766152,6.74434041 10.3091969,4.5 L6,4.5 L6,3 L12.25,3 L13,3 L13,10 L11.5,10 L11.5,5.58808445 Z"/>
</svg>
