<svg xmlns="http://www.w3.org/2000/svg" width="32" height="32" viewBox="0 0 32 32">
  <g fill="#A8D8E6" fill-rule="evenodd" transform="translate(2.5 2)">
    <path d="M8.5,2.94160007 C4.36894024,4.83761455 1.5,9.01052664 1.5,13.8535156 C1.5,20.4809326 6.872583,25.8535156 13.5,25.8535156 C20.127417,25.8535156 25.5,20.4809326 25.5,13.8535156 C25.5,8.25272241 21.6629839,3.54811231 16.4742334,2.22496688 L16.8697603,0.77747717 C22.6950606,2.27429848 27,7.56117082 27,13.8535156 C27,21.3093597 20.9558441,27.3535156 13.5,27.3535156 C6.04415588,27.3535156 0,21.3093597 0,13.8535156 C0,8.62911859 2.96766152,4.09785604 7.30919692,1.85351562 L3,1.85351562 L3,0.353515625 L9.25,0.353515625 L10,0.353515625 L10,7.35351562 L8.5,7.35351562 L8.5,2.94160007 Z" transform="matrix(-1 0 0 1 27 0)"/>
    <path fill-rule="nonzero" d="M9.24347398,18.1483055 L10.3945376,18.9846022 L11.8092812,14.5077032 L11.9707001,13.9968996 L11.5398667,13.6785305 L7.76385986,10.8882086 L7.32419267,12.2413651 L12.0191565,12.2034283 L12.5548407,12.1990998 L12.7244929,11.6909714 L14.2113965,7.23751861 L12.7886035,7.23751861 L14.2755071,11.6909714 L14.4451593,12.1990998 L14.9808435,12.2034283 L19.6758073,12.2413651 L19.2361401,10.8882086 L15.4601333,13.6785305 L15.0292999,13.9968996 L15.1907188,14.5077032 L16.6054624,18.9846022 L17.756526,18.1483055 L13.9359219,15.4193665 L13.5,15.108001 L13.0640781,15.4193665 L9.24347398,18.1483055 Z M13.0640781,16.6399764 L16.8846823,19.3689154 L18.712618,20.6745532 L18.0357459,18.5326187 L16.6210023,14.0557197 L16.3515877,14.8848924 L20.1275946,12.0945705 L21.9341931,10.7595645 L19.6879274,10.741414 L14.9929636,10.7034773 L15.6983,11.2159342 L14.2113965,6.76248139 L13.5,4.63176452 L12.7886035,6.76248139 L11.3017,11.2159342 L12.0070364,10.7034773 L7.31207262,10.741414 L5.06580686,10.7595645 L6.87240543,12.0945705 L10.6484123,14.8848924 L10.3789977,14.0557197 L8.96425411,18.5326187 L8.28738197,20.6745532 L10.1153177,19.3689154 L13.9359219,16.6399764 L13.0640781,16.6399764 Z"/>
  </g>
</svg>
