<svg xmlns="http://www.w3.org/2000/svg" width="32" height="32" viewBox="0 0 32 32">
  <g fill="none" fill-rule="evenodd">
    <rect width="32" height="32" fill="#FFFFFF" opacity="0"/>
    <path fill="#A8D8E6" d="M0,2 L2,2 L2,4 L0,4 L0,2 Z M4,2 L6,2 L6,4 L4,4 L4,2 Z M12,4 L14,4 L14,6 L12,6 L12,4 Z M16,4 L18,4 L18,6 L16,6 L16,4 Z M20,4 L22,4 L22,6 L20,6 L20,4 Z M24,6 L26,6 L26,8 L24,8 L24,6 Z M24,10 L26,10 L26,12 L24,12 L24,10 Z M0,6 L2,6 L2,8 L0,8 L0,6 Z M0,10 L2,10 L2,12 L0,12 L0,10 Z M24,14 L26,14 L26,16 L24,16 L24,14 Z M0,14 L2,14 L2,16 L0,16 L0,14 Z M24,18 L26,18 L26,20 L24,20 L24,18 Z M0,18 L2,18 L2,20 L0,20 L0,18 Z M0,22 L2,22 L2,24 L0,24 L0,22 Z M4,22 L6,22 L6,24 L4,24 L4,22 Z M8,22 L10,22 L10,24 L8,24 L8,22 Z M12,22 L14,22 L14,24 L12,24 L12,22 Z M16,22 L18,22 L18,24 L16,24 L16,22 Z M20,22 L22,22 L22,24 L20,24 L20,22 Z M24,22 L26,22 L26,24 L24,24 L24,22 Z M4,6 L6,6 L6,8 L4,8 L4,6 Z M8,2 L10,2 L10,4 L8,4 L8,2 Z M8,6 L10,6 L10,8 L8,8 L8,6 Z"/>
  </g>
</svg>
