<svg xmlns="http://www.w3.org/2000/svg" width="16" height="16" viewBox="0 0 16 16">
  <path fill="#025278" fill-rule="evenodd" d="M3,5.98651123 L3,10.6242286 L7.02441406,13.3514404 L7.02441406,15.7761841 L1,11.9865112 L1,4.98651123 L3,5.98651123 Z M13.0244141,5.98651123 L15.0244141,4.98651123 L15.0244141,11.9865112 L9,15.7761841 L9,13.3514404 L13.0244141,10.6242286 L13.0244141,5.98651123 Z M8.01330566,7.99926758 L12.0101929,5.0333252 L11.9991455,9.02618408 L10.0410156,10.9646606 L10.0681763,8.94805908 L8.08337402,10.0716553 L5.98266602,8.99438477 L5.98620605,10.9716797 L4.00946045,8.98223877 L4.00543213,5.0045166 L8.01330566,7.99926758 Z M3.07159424,4.93292236 L1.08972168,3.96777344 L8.08325195,0 L14.9199829,3.89123535 L13.0178223,4.9286499 L8.00485229,2.26605225 L3.07159424,4.93292236 Z"/>
</svg>
