<svg xmlns="http://www.w3.org/2000/svg" width="16" height="16" viewBox="0 0 16 16">
  <g fill="none" fill-rule="evenodd">
    <rect width="16" height="16"/>
    <path fill="#0685B9" fill-rule="nonzero" d="M8,16 C3.581722,16 0,12.418278 0,8 C0,3.581722 3.581722,0 8,0 C12.418278,0 16,3.581722 16,8 C16,12.418278 12.418278,16 8,16 Z M8,14 C11.3137085,14 14,11.3137085 14,8 C14,4.6862915 11.3137085,2 8,2 C4.6862915,2 2,4.6862915 2,8 C2,11.3137085 4.6862915,14 8,14 Z M9.84913793,11.8455792 L9.69109195,12.4567432 C9.21695165,12.6333025 8.83860295,12.7679836 8.55603448,12.8607904 C8.27346602,12.9535973 7.94540417,13 7.57183908,13 C6.99712356,13 6.55052841,12.8675825 6.23204023,12.6027434 C5.91355205,12.3379044 5.75431034,12.0017676 5.75431034,11.594323 C5.75431034,11.4358723 5.76628341,11.2740286 5.79022989,11.1087872 C5.81417636,10.9435457 5.85249016,10.7568031 5.90517241,10.5485536 L6.49425287,8.56566617 C6.54693513,8.37552533 6.59123545,8.19557331 6.62715517,8.0258047 C6.66307489,7.85603609 6.68103448,7.70098309 6.68103448,7.56064104 C6.68103448,7.30711992 6.62595841,7.13056322 6.5158046,7.03096564 C6.40565079,6.93136806 6.19492493,6.88157001 5.88362069,6.88157001 C5.73036322,6.88157001 5.57351613,6.90420549 5.41307471,6.94947712 C5.2526333,6.99474874 5.1149431,7.03775615 5,7.07850061 L5.15804598,6.46733668 C5.54597895,6.31794031 5.91714382,6.19004988 6.27155172,6.08366155 C6.62595963,5.97727322 6.96120532,5.92407986 7.27729885,5.92407986 C7.84722507,5.92407986 8.28663639,6.05423384 8.59554598,6.3145457 C8.90445557,6.57485756 9.05890805,6.91325791 9.05890805,7.32975689 C9.05890805,7.41577299 9.04813229,7.56743067 9.02658046,7.78473448 C9.00502863,8.0020383 8.96551753,8.20123048 8.90804598,8.38231699 L8.31896552,10.3584137 C8.27107256,10.5168644 8.22796954,10.6979482 8.18965517,10.9016705 C8.1513408,11.1053928 8.13218391,11.2593141 8.13218391,11.3634388 C8.13218391,11.6260143 8.19444382,11.8048345 8.31896552,11.8999049 C8.44348721,11.9949753 8.6590023,12.0425098 8.96551724,12.0425098 C9.10919612,12.0425098 9.27202974,12.0187426 9.45402299,11.9712074 C9.63601624,11.9236722 9.7677199,11.8817966 9.84913793,11.8455792 Z M10,4.2494907 C10,4.59355507 9.86230981,4.88668447 9.58692529,5.12888768 C9.31154077,5.37109089 8.979887,5.49219068 8.59195402,5.49219068 C8.20402105,5.49219068 7.87116997,5.37109089 7.5933908,5.12888768 C7.31561164,4.88668447 7.17672414,4.59355507 7.17672414,4.2494907 C7.17672414,3.90542632 7.31561164,3.61116515 7.5933908,3.36669836 C7.87116997,3.12223156 8.20402105,3 8.59195402,3 C8.979887,3 9.31154077,3.12223156 9.58692529,3.36669836 C9.86230981,3.61116515 10,3.90542632 10,4.2494907 Z"/>
  </g>
</svg>
