<svg xmlns="http://www.w3.org/2000/svg" width="48" height="48" viewBox="0 0 48 48" xmlns:xlink="http://www.w3.org/1999/xlink">
  <defs>
    <rect id="g" width="48" height="48"/>
    <path id="a" d="M14.1438648,27.6877942 L10.0181376,27.6877942 C4.49282941,27.6877942 0,32.175239 0,37.7107827 L0,47.7337712 L39,47.7337712 L39,37.7107827 C39,32.1740219 34.514727,27.6877942 28.9818624,27.6877942 L24.8561352,27.6877942 C24.8960022,27.9483205 24.9166667,28.2150283 24.9166667,28.4864806 C24.9166667,31.4271626 22.4915424,33.8110564 19.5,33.8110564 C16.5084576,33.8110564 14.0833333,31.4271626 14.0833333,28.4864806 C14.0833333,28.2150283 14.1039978,27.9483205 14.1438648,27.6877942 L14.1438648,27.6877942 Z"/>
    <mask id="i" width="39" height="20.046" x="0" y="0" fill="white">
      <use xlink:href="#a"/>
    </mask>
    <path id="b" d="M30,39 L39,39 L39,47.4768463 L30,47.4768463 L30,39 Z M0,39 L9,39 L9,47.4768463 L0,47.4768463 L0,39 Z"/>
    <mask id="j" width="39" height="8.477" x="0" y="0" fill="white">
      <use xlink:href="#b"/>
    </mask>
    <rect id="c" width="17.888" height="5.325" x="10.034" y="9.524"/>
    <mask id="k" width="17.888" height="5.325" x="0" y="0" fill="white">
      <use xlink:href="#c"/>
    </mask>
    <rect id="d" width="17.888" height="10.649" x="10.034" y="13.252"/>
    <mask id="l" width="17.888" height="10.649" x="0" y="0" fill="white">
      <use xlink:href="#d"/>
    </mask>
    <path id="e" d="M27.9666374,9.52447081 C27.9666279,9.49402952 27.9665902,9.47755495 27.9665222,9.47603464 C29.4100111,8.57301412 30.365516,7.00109497 30.365516,5.21304707 C30.365516,2.46067111 28.1014445,0.220412809 25.2491943,0.206463144 C25.6410769,0.659442053 25.8770139,1.24325592 25.8770139,1.88043714 C25.8770139,3.30062968 24.704914,4.45570115 23.1833018,4.48856658 L15.4044343,4.48856665 C12.492338,4.48856665 10.1195074,6.72703698 10.0208333,9.52446977 L27.9666374,9.52447081 L27.9666374,9.52447081 Z"/>
    <mask id="m" width="22.993" height="11.966" x="-1.324" y="-1.324">
      <rect width="22.993" height="11.966" x="8.697" y="-1.118" fill="white"/>
      <use fill="black" xlink:href="#e"/>
    </mask>
    <path id="f" d="M10.0208333,22.2654201 L10.0208333,22.2925968 L10.0208333,27.1465599 C10.0208333,29.6672233 12.1306768,31.7108423 14.7333006,31.7108423 L18.040752,31.7108423 C18.3063233,31.7521355 18.578742,31.7735911 18.8563359,31.7735911 L26.1229066,31.7735911 C28.942917,31.7735911 31.2275908,29.5599755 31.2275908,26.8293422 C31.2275908,24.7389639 29.8359494,22.9882648 27.9428914,22.2654201 L10.0208333,22.2654201 L10.0208333,22.2654201 Z"/>
    <mask id="n" width="21.207" height="9.508" x="0" y="0" fill="white">
      <use xlink:href="#f"/>
    </mask>
    <path id="o" d="M15.574568,0 L19.8362069,0 L19.8362069,14.5655172 L0,14.5655172 L0,0 L3.925432,0 C5.08806712,1.97892867 7.26111966,3.31034483 9.75,3.31034483 C12.2388803,3.31034483 14.4119329,1.97892867 15.574568,1.39888101e-14 L15.574568,0 Z"/>
  </defs>
  <g fill="none" fill-rule="evenodd">
    <mask id="h" fill="white">
      <use xlink:href="#g"/>
    </mask>
    <use fill="#9BE5FF" xlink:href="#g"/>
    <g transform="translate(4 2)" mask="url(#h)">
      <rect width="14.354" height="11.182" x="12.458" y="28.22" fill="#F6D8C4"/>
      <use fill="#FFFFFF" stroke="#133A51" stroke-width="2.648" mask="url(#i)" xlink:href="#a"/>
      <use fill="#FFD2B3" stroke="#133A51" stroke-width="2.648" mask="url(#j)" xlink:href="#b"/>
      <use fill="#FFFFFF" stroke="#133A51" stroke-width="2.648" mask="url(#k)" xlink:href="#c"/>
      <use fill="#FFD2B3" stroke="#133A51" stroke-width="2.648" mask="url(#l)" xlink:href="#d"/>
      <path fill="#133A51" d="M19.3500204,15.03921 L22.5341737,15.03921 C22.1471544,15.6475559 21.9238914,16.3640315 21.9238914,17.1310077 C21.9238914,19.3365192 23.7700614,21.1244395 26.0474275,21.1244395 C28.3247937,21.1244395 30.1709637,19.3365192 30.1709637,17.1310077 C30.1709637,14.9254962 28.3247937,13.1375758 26.0474275,13.1375758 L5.42974669,13.1375758 L5.42974669,17.5102242 C5.42974669,18.0354199 5.86931098,18.4621516 6.41154101,18.4621516 C6.95266772,18.4621516 7.39333534,18.0359592 7.39333534,17.5102242 L7.39333534,15.03921 L12.3235127,15.03921 C11.9364934,15.6475559 11.7132304,16.3640315 11.7132304,17.1310077 C11.7132304,19.3365192 13.5594004,21.1244395 15.8367666,21.1244395 C18.1141327,21.1244395 19.9603027,19.3365192 19.9603027,17.1310077 C19.9603027,16.3640315 19.7370397,15.6475559 19.3500204,15.03921 L19.3500204,15.03921 Z"/>
      <ellipse cx="26.047" cy="17.131" fill="#FFFFFF" rx="2.553" ry="2.472"/>
      <ellipse cx="15.837" cy="17.131" fill="#FFFFFF" rx="2.553" ry="2.472"/>
      <path fill="#0BA5CF" d="M14.797657 16.9702774L14.2658956 16.9702774C14.3532533 16.2049612 15.0232298 15.6097003 15.8367666 15.6097003 16.6503033 15.6097003 17.3202798 16.2049612 17.4076375 16.9702774L16.8758761 16.9702774C16.7922705 16.4876614 16.3588634 16.1199167 15.8367666 16.1199167 15.3146697 16.1199167 14.8812626 16.4876614 14.797657 16.9702774L14.797657 16.9702774zM25.008318 16.9702774L24.4765566 16.9702774C24.5639143 16.2049612 25.2338908 15.6097003 26.0474275 15.6097003 26.8609643 15.6097003 27.5309408 16.2049612 27.6182985 16.9702774L27.0865371 16.9702774C27.0029315 16.4876614 26.5695244 16.1199167 26.0474275 16.1199167 25.5253307 16.1199167 25.0919236 16.4876614 25.008318 16.9702774L25.008318 16.9702774z"/>
      <use fill="#133A51" xlink:href="#e"/>
      <use stroke="#133A51" stroke-width="2.648" mask="url(#m)" stroke-linecap="round" stroke-linejoin="round" xlink:href="#e"/>
      <use fill="#133A51" stroke="#133A51" stroke-width="2.648" mask="url(#n)" xlink:href="#f"/>
      <path fill="#FFFFFF" d="M23.0203161,25.6883617 L24.0838389,25.6883617 C23.9091235,27.1858821 22.5691705,28.3506496 20.942097,28.3506496 C19.3150236,28.3506496 17.9750706,27.1858821 17.8003552,25.6883617 L18.863878,25.6883617 C19.0310891,26.6327129 19.8979034,27.3522916 20.942097,27.3522916 C21.9862907,27.3522916 22.853105,26.6327129 23.0203161,25.6883617 L23.0203161,25.6883617 Z"/>
      <g transform="translate(9.75 31.78)">
        <mask id="p" fill="white">
          <use xlink:href="#o"/>
        </mask>
        <polygon fill="#0685B9" points="12.54 12.442 15.143 10.956 15.143 4.994 9.921 8.234 4.699 4.994 4.699 10.956 7.463 12.534 7.463 9.59 10.001 11.165 12.54 9.59 12.54 12.442" mask="url(#p)"/>
        <path fill="#0685B9" d="M2.78761373 4.0528382L2.78761373 10.5718833C2.78761373 11.1376127 3.11679172 11.6270345 3.5966777 11.8625358L3.5517297 11.8625358C3.5517297 11.8625358 9.22656359 15.1496525 9.30338655 15.1810646 9.37626238 15.2108627 9.4519414 15.2350321 9.52981352 15.2529655L9.52981352 17.5448276C9.28788753 17.5027268 9.06182554 17.4145782 8.86220354 17.2895915L1.73397976 13.1676605C1.09545378 12.8637454.672413793 12.2348647.672413793 11.508626L.672413793 3.06215385C.672413793 3.0345252.696209792 3.00689655.697531792 2.9792679L2.78761373 4.0528382zM17.0519933 4.0528382L17.0519933 10.5718833C17.0519933 11.1376127 16.7228153 11.6270345 16.2429293 11.8625358L10.6601235 15.0687745C10.5239575 15.1529761 10.3732495 15.2161273 10.2132875 15.2529655L10.2132875 17.5448276C10.4538915 17.5027268 10.6799535 17.4145782 10.8808975 17.2895915L18.0606793 13.1676605C18.6767312 12.8637454 19.1010932 12.2348647 19.1010932 11.508626 19.1010932 11.508626 19.0984492 3.00689655 19.0984492 2.9792679L17.0519933 4.0528382zM9.88939751-.694026525C10.1551195-.694026525 10.4023335-.624297082 10.6164975-.501941645L16.2759793 2.73061008C16.5628533 2.88059416 16.7942033 3.12398939 16.9264033 3.41869496L18.9569952 2.35301857C18.7904232 1.95437666 18.4863632 1.62546419 18.1029833 1.42416976L10.8253735-2.73196817C10.5503975-2.8885305 10.2317955-2.97931034 9.89071951-2.97931034 9.52716952-2.97931034 9.18741553-2.87668966 8.90054154-2.69907692L1.65994776 1.42943236C1.32415977 1.60836074 1.04918378 1.88596286.876001787 2.22276923L2.89601772 3.32002122C3.03218372 3.07267905 3.23841571 2.86743767 3.48827371 2.73455703L9.11867153-.479575597C9.34341153-.615087533 9.60648952-.694026525 9.88939751-.694026525z" mask="url(#p)"/>
      </g>
      <polygon fill="#133A51" points="36.504 45.279 38 44.425 38 41 35 42.861 32 41 32 44.425 33.588 45.331 33.588 43.64 35.046 44.545 36.504 43.64 36.504 45.279" opacity=".3"/>
    </g>
  </g>
</svg>
