<svg xmlns="http://www.w3.org/2000/svg" width="32" height="32" viewBox="0 0 32 32">
  <g fill="#000000" fill-rule="evenodd">
    <path d="M3,5 L29,5 L29,27 L3,27 L3,5 Z M5,7 L5,26 L28,26 L28,7 L5,7 Z"/>
    <path d="M18.9499909,12 C18.7183558,10.8588798 17.709479,10 16.5,10 C15.290521,10 14.2816442,10.8588798 14.0500091,12 L11.9499909,12 C11.7183558,10.8588798 10.709479,10 9.5,10 C8.29052104,10 7.28164422,10.8588798 7.05000906,12 L5,12 L5,13 L7.05000906,13 C7.2488503,13.9795652 8.02043481,14.7511497 9,14.9499909 L9,17.0500091 C8.02043481,17.2488503 7.2488503,18.0204348 7.05000906,19 L5,19 L5,20 L7.05000906,20 C7.28164422,21.1411202 8.29052104,22 9.5,22 C10.7095277,22 11.718437,21.141051 11.9500189,19.9998622 L14.5512695,19.9994847 C15.8936855,19.9724798 16.9764335,18.887356 16.9996205,17.5440063 L16.9998983,14.9500116 C17.9795118,14.7512031 18.7511428,13.9795991 18.9499909,13 L21.0500091,13 C21.2816442,14.1411202 22.290521,15 23.5,15 C24.8807119,15 26,13.8807119 26,12.5 C26,11.1192881 24.8807119,10 23.5,10 C22.290521,10 21.2816442,10.8588798 21.0500091,12 L18.9499909,12 L18.9499909,12 Z M14.0500091,13 C14.2488503,13.9795652 15.0204348,14.7511497 16,14.9499909 L16,17.5 C16,18.3284271 15.3284271,19 14.5,19.0146174 L11.9507936,19.0039709 C11.7532339,18.0225205 10.9808884,17.2491189 10,17.0500091 L10,14.9499909 C10.9795652,14.7511497 11.7511497,13.9795652 11.9499909,13 L14.0500091,13 L14.0500091,13 Z M9.5,14 C10.3284271,14 11,13.3284271 11,12.5 C11,11.6715729 10.3284271,11 9.5,11 C8.67157288,11 8,11.6715729 8,12.5 C8,13.3284271 8.67157288,14 9.5,14 L9.5,14 Z M9.5,21 C10.3284271,21 11,20.3284271 11,19.5 C11,18.6715729 10.3284271,18 9.5,18 C8.67157288,18 8,18.6715729 8,19.5 C8,20.3284271 8.67157288,21 9.5,21 L9.5,21 Z M16.5,14 C17.3284271,14 18,13.3284271 18,12.5 C18,11.6715729 17.3284271,11 16.5,11 C15.6715729,11 15,11.6715729 15,12.5 C15,13.3284271 15.6715729,14 16.5,14 L16.5,14 Z M23.5,14 C24.3284271,14 25,13.3284271 25,12.5 C25,11.6715729 24.3284271,11 23.5,11 C22.6715729,11 22,11.6715729 22,12.5 C22,13.3284271 22.6715729,14 23.5,14 L23.5,14 Z"/>
  </g>
</svg>
