<svg xmlns="http://www.w3.org/2000/svg" width="15" height="15" viewBox="0 0 15 15">
  <g fill="none" fill-rule="evenodd">
    <rect width="15" height="15"/>
    <path fill="#FF00FF" d="M10.891087,9.47687343 C12.5610153,7.13366904 12.3448665,3.85958515 10.2426407,1.75735931 C7.89949494,-0.585786438 4.10050506,-0.585786438 1.75735931,1.75735931 C-0.585786438,4.10050506 -0.585786438,7.89949494 1.75735931,10.2426407 C3.85958515,12.3448665 7.13366904,12.5610153 9.47687343,10.891087 L13.0710678,14.4852814 L14.4852814,13.0710678 L10.891087,9.47687343 L10.891087,9.47687343 L10.891087,9.47687343 Z M9.53553391,9.53553391 C11.4881554,7.58291245 11.4881554,4.41708755 9.53553391,2.46446609 C7.58291245,0.511844635 4.41708755,0.511844635 2.46446609,2.46446609 C0.511844635,4.41708755 0.511844635,7.58291245 2.46446609,9.53553391 C4.41708755,11.4881554 7.58291245,11.4881554 9.53553391,9.53553391 L9.53553391,9.53553391 Z"/>
  </g>
</svg>
