<svg xmlns="http://www.w3.org/2000/svg" width="16" height="16" viewBox="0 0 16 16">
  <g fill="none" fill-rule="evenodd">
    <rect width="12" height="12"/>
    <rect width="16" height="16" fill="#0685B9" rx="1"/>
    <path fill="#F2F2F2" fill-rule="nonzero" d="M8.68457031,5.38574219 C8.05793957,5.38574219 7.57275562,5.62117277 7.2290039,6.09204101 C6.88525218,6.56290925 6.7133789,7.21907131 6.7133789,8.06054687 C6.7133789,9.81153219 7.37043613,10.6870117 8.68457031,10.6870117 C9.23600536,10.6870117 9.90380467,10.549155 10.6879883,10.2734375 L10.6879883,11.6699218 C10.0434538,11.9384779 9.32373444,12.0727539 8.52880859,12.0727539 C7.38655027,12.0727539 6.51286109,11.7263218 5.90771484,11.0334472 C5.30256859,10.3405727 5,9.34603513 5,8.04980469 C5,7.23339435 5.14859877,6.51815086 5.44580078,5.90405273 C5.74300278,5.28995461 6.17000047,4.81909343 6.72680664,4.49145508 C7.28361281,4.16381672 7.93619417,4 8.68457031,4 C9.44726943,4 10.2135378,4.18440571 10.9833984,4.55322265 L10.4462891,5.90673828 C10.1526678,5.76708914 9.8572606,5.64534557 9.56005859,5.54150391 C9.26285658,5.43766224 8.97103007,5.38574219 8.68457031,5.38574219 L8.68457031,5.38574219 Z"/>
  </g>
</svg>
