<svg xmlns="http://www.w3.org/2000/svg" width="16" height="16" viewBox="0 0 16 16">
  <g fill="none" fill-rule="evenodd">
    <rect width="12" height="12"/>
    <rect width="16" height="16" fill="#0685B9" rx="1"/>
    <path fill="#F2F2F2" fill-rule="nonzero" d="M5.18457031,5.38574219 C4.55793957,5.38574219 4.07275562,5.62117277 3.7290039,6.09204101 C3.38525218,6.56290925 3.2133789,7.21907131 3.2133789,8.06054687 C3.2133789,9.81153219 3.87043613,10.6870117 5.18457031,10.6870117 C5.73600536,10.6870117 6.40380467,10.549155 7.18798828,10.2734375 L7.18798828,11.6699218 C6.5434538,11.9384779 5.82373444,12.0727539 5.02880859,12.0727539 C3.88655027,12.0727539 3.01286109,11.7263218 2.40771484,11.0334472 C1.80256859,10.3405727 1.5,9.34603513 1.5,8.04980469 C1.5,7.23339435 1.64859877,6.51815086 1.94580078,5.90405273 C2.24300278,5.28995461 2.67000047,4.81909343 3.22680664,4.49145508 C3.78361281,4.16381672 4.43619417,4 5.18457031,4 C5.94726943,4 6.71353781,4.18440571 7.48339843,4.55322265 L6.94628906,5.90673828 C6.6526678,5.76708914 6.3572606,5.64534557 6.06005859,5.54150391 C5.76285658,5.43766224 5.47103007,5.38574219 5.18457031,5.38574219 L5.18457031,5.38574219 Z M11.9736328,5.38574219 C11.347002,5.38574219 10.8618181,5.62117277 10.5180664,6.09204101 C10.1743146,6.56290925 10.0024414,7.21907131 10.0024414,8.06054687 C10.0024414,9.81153219 10.6594986,10.6870117 11.9736328,10.6870117 C12.5250678,10.6870117 13.1928671,10.549155 13.9770507,10.2734375 L13.9770507,11.6699218 C13.3325163,11.9384779 12.6127969,12.0727539 11.817871,12.0727539 C10.6756127,12.0727539 9.80192359,11.7263218 9.19677734,11.0334472 C8.59163109,10.3405727 8.2890625,9.34603513 8.2890625,8.04980469 C8.2890625,7.23339435 8.43766127,6.51815086 8.73486328,5.90405273 C9.03206528,5.28995461 9.45906297,4.81909343 10.0158691,4.49145508 C10.5726753,4.16381672 11.2252566,4 11.9736328,4 C12.7363319,4 13.5026003,4.18440571 14.2724609,4.55322265 L13.7353515,5.90673828 C13.4417303,5.76708914 13.1463231,5.64534557 12.849121,5.54150391 C12.551919,5.43766224 12.2600925,5.38574219 11.9736328,5.38574219 L11.9736328,5.38574219 Z"/>
  </g>
</svg>
