<svg xmlns="http://www.w3.org/2000/svg" width="32" height="32" viewBox="0 0 32 32" xmlns:xlink="http://www.w3.org/1999/xlink">
  <defs>
    <path id="a" d="M16.9123637,6.3968478 C16.4112654,5.8677174 15.5911881,5.8677174 15.0900898,6.3968478 L5.28200749,16.3723046 C4.77969975,16.9002058 4.96668859,17.3337188 5.69755241,17.3337188 L7.74230331,17.3337188 L7.74230331,24.9951116 C7.74230331,25.5478552 7.76553767,26 8.74940138,26 L13.5098351,26 L13.5098351,18.3137325 L18.4902632,18.3137325 L18.4902632,26 L23.4878146,26 C24.2382526,26 24.2590044,25.5490844 24.2590044,24.9951116 L24.2590044,17.3337188 L26.3024822,17.3337188 C27.0321365,17.3337188 27.2203348,16.9014673 26.7192365,16.3723046 L16.9123637,6.3968478 Z"/>
    <mask id="b" width="25" height="23" x="-1.5" y="-1.5">
      <rect width="25" height="23" x="3.5" y="4.5" fill="white"/>
      <use fill="black" xlink:href="#a"/>
    </mask>
  </defs>
  <g fill="none" fill-rule="evenodd">
    <use fill="#FFFFFF" xlink:href="#a"/>
    <use stroke="#1DCBE9" stroke-width="3" mask="url(#b)" stroke-linecap="round" stroke-linejoin="round" xlink:href="#a"/>
  </g>
</svg>
