<svg xmlns="http://www.w3.org/2000/svg" width="16" height="16" viewBox="0 0 16 16">
  <g fill="none" fill-rule="evenodd">
    <rect width="16" height="16"/>
    <path fill="#25CAAB" d="M5.83662495,11.0209895 L8.79448562,11.0209895 C10.0416019,11.0209895 11.0516497,10.0101566 11.0490757,8.76847668 L11.0433365,6 L8,6 L12,0 L16,6 L13.0433408,6 L13.0490714,8.76433062 C13.0539398,11.1127783 11.1472106,13.0209895 8.79448562,13.0209895 L5.82178706,13.0209895 C5.40408291,14.1752047 4.29836209,15 3,15 C1.34314575,15 0,13.6568542 0,12 C0,10.3431458 1.34314575,9 3,9 C4.31404885,9 5.43077335,9.844846 5.83662495,11.0209895 Z M3,14 C4.1045695,14 5,13.1045695 5,12 C5,10.8954305 4.1045695,10 3,10 C1.8954305,10 1,10.8954305 1,12 C1,13.1045695 1.8954305,14 3,14 Z"/>
  </g>
</svg>
