<svg xmlns="http://www.w3.org/2000/svg" width="32" height="32" viewBox="0 0 32 32">
  <g fill="#000000" fill-rule="evenodd">
    <polygon points="8 22 2 22 2 3 28 3 28 11 27 11 27 5 4 5 4 21 8 21"/>
    <path d="M9,12 L30,12 L30,29 L9,29 L9,12 Z M10,17 L10,27.8636178 L29,27.8636178 L29,17 L10,17 Z M10,13 L10,15.9104246 L19,15.9104246 L19,13 L10,13 Z M20,13 L20,15.9104246 L29,15.9104246 L29,13 L20,13 Z"/>
    <path d="M11 20L12 20 12 21 11 21 11 20zM13 20L16 20 16 21 13 21 13 20zM11 22L12 22 12 23 11 23 11 22zM14 22L19 22 19 23 14 23 14 22zM11 24L12 24 12 25 11 25 11 24zM15 24L18 24 18 25 15 25 15 24zM11 26L12 26 12 27 11 27 11 26zM14 26L17 26 17 27 14 27 14 26zM20 18L21 18 21 19 20 19 20 18zM22 18L25 18 25 19 22 19 22 18zM20 20L21 20 21 21 20 21 20 20zM23 20L28 20 28 21 23 21 23 20zM20 22L21 22 21 23 20 23 20 22zM24 22L28 22 28 23 24 23 24 22zM20 24L21 24 21 25 20 25 20 24zM23 24L25 24 25 25 23 25 23 24zM20 26L21 26 21 27 20 27 20 26zM22 26L25 26 25 27 22 27 22 26zM17.9499909 9C17.7183558 10.1411202 16.709479 11 15.5 11 14.290521 11 13.2816442 10.1411202 13.0500091 9L10.9499909 9C10.7183558 10.1411202 9.70947896 11 8.5 11 7.29052104 11 6.28164422 10.1411202 6.05000906 9L4 9 4 8 6.05000906 8C6.28164422 6.85887984 7.29052104 6 8.5 6 9.70947896 6 10.7183558 6.85887984 10.9499909 8L13.0500091 8C13.2816442 6.85887984 14.290521 6 15.5 6 16.709479 6 17.7183558 6.85887984 17.9499909 8L20.0500091 8C20.2816442 6.85887984 21.290521 6 22.5 6 23.8807119 6 25 7.11928813 25 8.5 25 9.88071187 23.8807119 11 22.5 11 21.290521 11 20.2816442 10.1411202 20.0500091 9L17.9499909 9 17.9499909 9zM8.5 10C9.32842712 10 10 9.32842712 10 8.5 10 7.67157288 9.32842712 7 8.5 7 7.67157288 7 7 7.67157288 7 8.5 7 9.32842712 7.67157288 10 8.5 10L8.5 10zM15.5 10C16.3284271 10 17 9.32842712 17 8.5 17 7.67157288 16.3284271 7 15.5 7 14.6715729 7 14 7.67157288 14 8.5 14 9.32842712 14.6715729 10 15.5 10L15.5 10zM22.5 10C23.3284271 10 24 9.32842712 24 8.5 24 7.67157288 23.3284271 7 22.5 7 21.6715729 7 21 7.67157288 21 8.5 21 9.32842712 21.6715729 10 22.5 10L22.5 10z"/>
  </g>
</svg>
