<svg xmlns="http://www.w3.org/2000/svg" width="32" height="32" viewBox="0 0 32 32">
  <g fill="#000000" fill-rule="evenodd">
    <path d="M3,5 L29,5 L29,27 L3,27 L3,5 Z M5,7 L5,26 L16,26 L16,7 L5,7 Z M17,7 L17,16 L28,16 L28,7 L17,7 Z M17,17 L17,26 L28,26 L28,17 L17,17 Z"/>
    <path d="M18 18L19 18 19 19 18 19 18 18zM20 18L23 18 23 19 20 19 20 18zM18 20L19 20 19 21 18 21 18 20zM21 20L26 20 26 21 21 21 21 20zM18 22L19 22 19 23 18 23 18 22zM22 22L25 22 25 23 22 23 22 22zM18 24L19 24 19 25 18 25 18 24zM21 24L24 24 24 25 21 25 21 24zM7.94999094 13C7.71835578 14.1411202 6.70947896 15 5.5 15 4.11928813 15 3 13.8807119 3 12.5 3 11.1192881 4.11928813 10 5.5 10 6.70947896 10 7.71835578 10.8588798 7.94999094 12L10.0500091 12C10.2816442 10.8588798 11.290521 10 12.5 10 13.8807119 10 15 11.1192881 15 12.5 15 13.8807119 13.8807119 15 12.5 15 11.290521 15 10.2816442 14.1411202 10.0500091 13L7.94999094 13 7.94999094 13zM5.5 14C6.32842712 14 7 13.3284271 7 12.5 7 11.6715729 6.32842712 11 5.5 11 4.67157288 11 4 11.6715729 4 12.5 4 13.3284271 4.67157288 14 5.5 14L5.5 14zM12.5 14C13.3284271 14 14 13.3284271 14 12.5 14 11.6715729 13.3284271 11 12.5 11 11.6715729 11 11 11.6715729 11 12.5 11 13.3284271 11.6715729 14 12.5 14L12.5 14z"/>
  </g>
</svg>
