<svg xmlns="http://www.w3.org/2000/svg" width="48" height="48" viewBox="0 0 48 48">
  <g fill="none" fill-rule="evenodd">
    <rect width="48" height="48"/>
    <path fill="#000000" fill-rule="nonzero" d="M2.4,0.2 C2.2,0.1 1.9,-8.32667268e-17 1.7,0.2 L0.2,1.7 C0.1,1.9 0.1,2.2 0.2,2.4 L2.4,4.5 L0.2,6.6 C0.1,6.8 -8.32667268e-17,7.1 0.2,7.3 L1.7,8.7 C1.9,8.9 2.2,8.9 2.4,8.7 L4.5,6.6 L6.6,8.7 C6.8,8.9 7.1,8.9 7.3,8.7 L8.7,7.3 C8.9,7.1 8.9,6.8 8.7,6.6 L6.6,4.5 L8.7,2.4 C8.9,2.2 8.9,1.9 8.7,1.7 L7.3,0.2 C7.1,0.1 6.8,0.1 6.6,0.2 L4.5,2.4 L2.4,0.2 Z"/>
  </g>
</svg>
