<svg xmlns="http://www.w3.org/2000/svg" width="20" height="20" viewBox="0 0 20 20">
  <g fill="none" fill-rule="evenodd">
    <rect width="20" height="20"/>
    <rect width="20" height="20" transform="rotate(-90 10 10)"/>
    <path fill="#006597" fill-rule="nonzero" d="M18.8194676,11.0979253 C18.2083525,15.6846246 14.2809207,19.2229253 9.52707474,19.2229253 C4.34940521,19.2229253 0.152074739,15.0255948 0.152074739,9.84792526 C0.152074739,4.67025574 4.34940521,0.472925261 9.52707474,0.472925261 C12.1159095,0.472925261 14.4596595,1.52225787 16.1562009,3.21879919 L15.2723174,4.10268266 C13.8019815,2.63234686 11.7707315,1.72292526 9.52707474,1.72292526 C5.03976115,1.72292526 1.40207474,5.36061167 1.40207474,9.84792526 C1.40207474,14.3352389 5.03976115,17.9729253 9.52707474,17.9729253 C13.5893074,17.9729253 16.955258,14.9917879 17.5565145,11.0979253 L18.8194676,11.0979253 Z M19.0803761,0.294623926 C19.327081,0.0479190662 19.5270747,0.132775859 19.5270747,0.461681739 L19.5270747,6.73416879 C19.5270747,7.07313712 19.2422241,7.34792526 18.9133182,7.34792526 L12.6408312,7.34792526 C12.3018629,7.34792526 12.2276816,7.14731837 12.4737734,6.9012266 L19.0803761,0.294623926 Z" transform="rotate(-90 9.84 9.688)"/>
  </g>
</svg>
