<svg xmlns="http://www.w3.org/2000/svg" width="64" height="64" viewBox="0 0 64 64">
  <path fill="#000000" d="M31.9146182,7.90346154 C32.7049708,7.90346154 33.440274,8.11410256 34.0772746,8.48371795 L50.9106051,18.2487179 C51.7638714,18.7017949 52.4519893,19.4370513 52.8451995,20.3273077 L58.8849089,17.1080769 C58.389464,15.9038462 57.4850804,14.9102564 56.3447707,14.3021795 L34.6985468,1.74717949 C33.8806695,1.27423077 32.9330328,1 31.9185503,1 C30.8372222,1 29.8266718,1.31 28.9734056,1.84653846 L7.43728053,14.3180769 C6.4385265,14.8585897 5.6206492,15.6971795 5.10554378,16.7146154 L11.1137963,20.0292308 C11.5188029,19.2820513 12.1322108,18.6620513 12.8753782,18.260641 L29.6222025,8.55128205 C30.2906599,8.14192308 31.0731483,7.90346154 31.9146182,7.90346154 Z M53.2187493,22.2429487 L53.2187493,41.9358974 C53.2187493,43.6448718 52.2396558,45.1233333 50.8123026,45.8347436 L34.207034,55.5202564 C33.8020274,55.7746154 33.3537677,55.9653846 32.8779833,56.0766667 L32.8779833,63 C33.593626,62.8728205 34.2660155,62.6065385 34.8636951,62.2289744 L56.2189434,49.7773077 C58.0513032,48.8592308 59.3135081,46.9594872 59.3135081,44.765641 C59.3135081,44.765641 59.3056439,19.0833333 59.3056439,18.9998718 L53.2187493,22.2429487 Z M10.7913639,22.2429487 L10.7913639,41.9358974 C10.7913639,43.6448718 11.7704574,45.1233333 13.1978106,45.8347436 L13.0641191,45.8347436 C13.0641191,45.8347436 29.9431122,55.7645753 30.1716113,55.8594659 C30.3883702,55.9494811 30.6134667,56.0224927 30.8450864,56.0766667 L30.8450864,63 C30.1255116,62.8728205 29.4531221,62.6065385 28.8593746,62.2289744 L7.65747826,49.7773077 C5.75827278,48.8592308 4.5,46.9594872 4.5,44.765641 L4.5,19.2502564 C4.5,19.1667949 4.57077784,19.0833333 4.57470995,18.9998718 L10.7913639,22.2429487 Z M39.797258,47.5854112 L47.5408389,43.0961128 L47.5408389,25.0863309 L32.0083227,34.87352 L16.4758065,25.0863309 L16.4758065,43.0961128 L24.6962006,47.8618411 L24.6962003,38.9688711 L32.246729,43.7265325 L39.7972578,38.9688711 L39.797258,47.5854112 L39.797258,47.5854112 Z"/>
</svg>
