<svg xmlns="http://www.w3.org/2000/svg" width="16" height="16" viewBox="0 0 16 16">
  <g fill="none" fill-rule="evenodd">
    <rect width="16" height="16"/>
    <path fill="#000000" fill-rule="nonzero" d="M8,0 C3.582,0 0,3.582 0,8 C0,12.418 3.582,16 8,16 C12.418,16 16,12.418 16,8 C16,3.582 12.418,0 8,0 L8,0 Z M8,14.6666667 C4.324,14.6666667 1.33333333,11.676 1.33333333,8 C1.33333333,4.324 4.324,1.33333333 8,1.33333333 C11.676,1.33333333 14.6666667,4.324 14.6666667,8 C14.6666667,11.676 11.676,14.6666667 8,14.6666667 L8,14.6666667 Z M7.33466667,13.332 C7.33466667,12.9638102 7.63057653,12.6653333 8.00133333,12.6653333 L8.00133333,12.6653333 C8.36952317,12.6653333 8.668,12.9612432 8.668,13.332 L8.668,13.332 C8.668,13.7001898 8.37209013,13.9986667 8.00133333,13.9986667 L8.00133333,13.9986667 C7.6331435,13.9986667 7.33466667,13.7027568 7.33466667,13.332 L7.33466667,13.332 Z M7.33466667,2.66666667 C7.33466667,2.29847683 7.63057653,2 8.00133333,2 L8.00133333,2 C8.36952317,2 8.668,2.29590988 8.668,2.66666667 L8.668,2.66666667 C8.668,3.0348565 8.37209013,3.33333333 8.00133333,3.33333333 L8.00133333,3.33333333 C7.6331435,3.33333333 7.33466667,3.03742345 7.33466667,2.66666667 L7.33466667,2.66666667 Z M2,8 C2,7.63181017 2.29590988,7.33333333 2.66666667,7.33333333 L2.66666667,7.33333333 C3.0348565,7.33333333 3.33333333,7.6292432 3.33333333,8 L3.33333333,8 C3.33333333,8.36818983 3.03742345,8.66666667 2.66666667,8.66666667 L2.66666667,8.66666667 C2.29847683,8.66666667 2,8.3707568 2,8 L2,8 Z M12.6666667,8 C12.6666667,7.63181017 12.9625765,7.33333333 13.3333333,7.33333333 C13.7015232,7.33333333 14,7.6292432 14,8 C14,8.36818983 13.7040901,8.66666667 13.3333333,8.66666667 C12.9651435,8.66666667 12.6666667,8.3707568 12.6666667,8 Z M11.0445826,11.1821215 L7.5922577,8.4202616 C7.4286175,8.28907327 7.33333333,8.09090983 7.33333333,7.88100847 L7.33333333,4.690622 C7.33333333,4.30948533 7.64266163,4.00015703 8.0237983,4.00015703 C8.40493497,4.00015703 8.71426327,4.30948533 8.71426327,4.690622 L8.71426327,7.54958527 L11.9076638,10.1036152 C12.2052542,10.3425161 12.2535867,10.7768186 12.0153763,11.074409 C11.8786643,11.2442634 11.6784294,11.3333333 11.4754327,11.3333333 C11.3242209,11.3333333 11.1723186,11.2843103 11.0445826,11.1821215 Z"/>
  </g>
</svg>
