<svg xmlns="http://www.w3.org/2000/svg" width="256" height="287" viewBox="0 0 256 287" xmlns:xlink="http://www.w3.org/1999/xlink">
  <defs>
    <linearGradient id="b" x1="97.2%" x2="50.936%" y1="4.682%" y2="98.11%">
      <stop stop-color="#2DBBE9" offset="0%"/>
      <stop stop-color="#0685B9" offset="100%"/>
    </linearGradient>
    <linearGradient id="c" x1="71.151%" x2="19.801%" y1="84.668%" y2="41.749%">
      <stop stop-color="#6ED4FA" offset="0%"/>
      <stop stop-color="#0097C7" offset="100%"/>
    </linearGradient>
    <linearGradient id="d" x1="96.049%" x2="-10.796%" y1="25.348%" y2="76.104%">
      <stop stop-color="#088FCB" offset="0%"/>
      <stop stop-color="#553EA6" offset="100%"/>
    </linearGradient>
    <path id="a" d="M125.946453,35.8824643 C126.64093,35.4803303 127.767697,35.4807919 128.461378,35.8824643 L219.926312,88.8448294 C220.62079,89.2469634 221.183775,90.2258685 221.183775,91.0292133 L221.183775,196.953944 C221.183775,197.758212 220.619993,198.736655 219.926312,199.138327 L128.461378,252.100693 C127.7669,252.502827 126.640133,252.502365 125.946453,252.100693 L34.481518,199.138327 C33.7870408,198.736193 33.2240557,197.757288 33.2240557,196.953944 L33.2240557,91.0292133 C33.2240557,90.2249454 33.7878379,89.2465018 34.481518,88.8448294 L125.946453,35.8824643 Z"/>
    <mask id="e" width="252.254" height="252.891" x="-17.608" y="-17.608">
      <rect width="252.254" height="252.891" x="1.077" y="17.546" fill="white"/>
      <use fill="black" xlink:href="#a"/>
    </mask>
  </defs>
  <g fill="none" fill-rule="evenodd">
    <g transform="translate(0 .557)">
      <path fill="url(#b)" d="M127.389206,143.473107 L127.389206,285.235166 C132.444659,285.215261 137.144651,283.80202 141.153467,281.294014 L240.524717,224.067684 C249.075542,219.847864 254.920909,211.169367 254.920909,201.057723 L254.920909,83.8183901 C254.920909,81.6089562 254.624691,79.4592367 254.111247,77.428946 L127.72492,143.473107 L1.43733238,74.9607495 L127.389206,143.473107"/>
      <path fill="url(#c)" d="M241.097405,61.1077678 L140.403048,3.463437 C136.571963,1.23409824 132.128694,-1.03421265e-12 127.468198,-1.03421265e-12 C122.432492,-1.03421265e-12 117.732501,1.43314635 113.743433,3.88143802 L113.703937,3.8416284 L13.5230249,61.2072919 C7.97387522,64.1532038 3.6490931,69.069692 1.43733238,75.0013254 L127.389206,143.533588 L254.091499,77.4297123 C252.254948,70.3635046 247.475965,64.4716808 241.097405,61.1077678"/>
      <path fill="url(#d)" d="M0,83.8183901 L0,201.057723 C0,211.030033 5.7466283,219.668721 14.1394703,223.948255 C112.740553,280.696869 112.740553,280.716774 112.740553,280.716774 C116.9271,283.563162 122.022049,285.235166 127.472459,285.235166 L127.531703,285.235166 L127.531703,143.473107 L1.57982909,74.9607495 C0.55294018,77.7275182 0,80.7132397 0,83.8183901"/>
    </g>
    <use stroke="#FFFFFF" stroke-width="35.217" mask="url(#e)" xlink:href="#a"/>
    <path fill="#FFFFFF" d="M160.663155,200.770903 L194.156723,181.339992 L194.156723,109.081103 L126.973412,144.041304 L59.7901016,106.806846 L59.7901016,181.339992 L95.3460469,201.967368 L95.3460457,163.476161 L128.0046,184.068621 L160.663153,163.476161 L160.663155,200.770903 Z"/>
    <path fill="url(#d)" d="M0,84.3754575 L0,201.614791 C0,211.5871 5.7466283,220.225788 14.1394703,224.505322 C112.740553,281.253937 112.740553,281.273842 112.740553,281.273842 C116.9271,284.120229 122.022049,285.792234 127.472459,285.792234 L127.531703,285.792234 L127.531703,144.030174 L1.57982909,75.5178169 C0.55294018,78.2845855 0,81.2703071 0,84.3754575" opacity=".2"/>
    <path fill="url(#b)" d="M127.389206,144.030174 L127.389206,285.792234 C132.444659,285.772329 137.144651,284.359087 141.153467,281.851081 L240.524717,224.624751 C249.075542,220.404931 254.920909,211.726434 254.920909,201.614791 L254.920909,84.3754575 C254.920909,82.1660235 254.624691,80.016304 254.111247,77.9860133 L127.72492,144.030174 L1.43733238,75.5178169 L127.389206,144.030174" opacity=".1"/>
  </g>
</svg>
