<svg xmlns="http://www.w3.org/2000/svg" width="24" height="24" viewBox="0 0 24 24">
  <g fill="none" fill-rule="evenodd">
    <rect width="24" height="24"/>
    <path fill="#000000" fill-rule="nonzero" d="M4,8 C1.790861,8 0,6.209139 0,4 C0,1.790861 1.790861,0 4,0 C6.209139,0 8,1.790861 8,4 C8,6.209139 6.209139,8 4,8 Z M4,6.5 C5.38071187,6.5 6.5,5.38071187 6.5,4 C6.5,2.61928813 5.38071187,1.5 4,1.5 C2.61928813,1.5 1.5,2.61928813 1.5,4 C1.5,5.38071187 2.61928813,6.5 4,6.5 Z M20,24 C17.790861,24 16,22.209139 16,20 C16,17.790861 17.790861,16 20,16 C22.209139,16 24,17.790861 24,20 C24,22.209139 22.209139,24 20,24 Z M20,22.5 C21.3807119,22.5 22.5,21.3807119 22.5,20 C22.5,18.6192881 21.3807119,17.5 20,17.5 C18.6192881,17.5 17.5,18.6192881 17.5,20 C17.5,21.3807119 18.6192881,22.5 20,22.5 Z M20,21 C19.4477153,21 19,20.5522847 19,20 C19,19.4477153 19.4477153,19 20,19 C20.5522847,19 21,19.4477153 21,20 C21,20.5522847 20.5522847,21 20,21 Z M4,24 C1.790861,24 0,22.209139 0,20 C0,17.790861 1.790861,16 4,16 C6.209139,16 8,17.790861 8,20 C8,22.209139 6.209139,24 4,24 Z M4,22.5 C5.38071187,22.5 6.5,21.3807119 6.5,20 C6.5,18.6192881 5.38071187,17.5 4,17.5 C2.61928813,17.5 1.5,18.6192881 1.5,20 C1.5,21.3807119 2.61928813,22.5 4,22.5 Z M7,19 L17,19 L17,21 L7,21 L7,19 Z M8,9 C8.55228475,9 9,8.55228475 9,8 C9,7.44771525 8.55228475,7 8,7 C7.44771525,7 7,7.44771525 7,8 C7,8.55228475 7.44771525,9 8,9 Z M10,11 C10.5522847,11 11,10.5522847 11,10 C11,9.44771525 10.5522847,9 10,9 C9.44771525,9 9,9.44771525 9,10 C9,10.5522847 9.44771525,11 10,11 Z M12,13 C12.5522847,13 13,12.5522847 13,12 C13,11.4477153 12.5522847,11 12,11 C11.4477153,11 11,11.4477153 11,12 C11,12.5522847 11.4477153,13 12,13 Z M14,15 C14.5522847,15 15,14.5522847 15,14 C15,13.4477153 14.5522847,13 14,13 C13.4477153,13 13,13.4477153 13,14 C13,14.5522847 13.4477153,15 14,15 Z M16,17 C16.5522847,17 17,16.5522847 17,16 C17,15.4477153 16.5522847,15 16,15 C15.4477153,15 15,15.4477153 15,16 C15,16.5522847 15.4477153,17 16,17 Z"/>
  </g>
</svg>
