<svg xmlns="http://www.w3.org/2000/svg" width="16" height="16" viewBox="0 0 16 16">
  <g fill="none" fill-rule="evenodd">
    <rect width="16" height="16"/>
    <circle cx="12" cy="12" r="4" fill="#25CAAB" fill-rule="nonzero"/>
    <path fill="#FFFFFF" fill-rule="nonzero" d="M14.7756082,11.2405829 L11.9505513,14.0656581 C11.8846379,14.1316262 11.8049112,14.1645738 11.7112072,14.1645738 C11.6210388,14.1645738 11.5430251,14.1316262 11.4770934,14.0656581 L9.59361276,12.1822868 C9.53125285,12.1197993 9.5,12.0419132 9.5,11.9481729 C9.5,11.8510795 9.53114351,11.7712435 9.59361276,11.7087925 L10.0670706,11.2405829 C10.133057,11.1746877 10.2109977,11.1417401 10.3012391,11.1417401 C10.3914807,11.1417401 10.4695307,11.174706 10.5354077,11.2405829 L11.711262,12.4164007 L13.8339954,10.2988791 C13.8999088,10.2329656 13.9779226,10.1999998 14.0681094,10.1999998 C14.1582233,10.1999998 14.2363644,10.2329656 14.3022232,10.2988791 L14.775681,10.7671615 C14.8382233,10.8295579 14.8693485,10.909321 14.8693485,11.0064144 C14.8693485,11.1001 14.8382233,11.1781501 14.7756082,11.2405829 Z"/>
  </g>
</svg>
