<svg xmlns="http://www.w3.org/2000/svg" width="16" height="16" viewBox="0 0 16 16">
  <g fill="none" fill-rule="evenodd">
    <rect width="16" height="16"/>
    <circle cx="7.5" cy="6.5" r="6.5" fill="#2A7E43" fill-rule="nonzero"/>
    <path fill="#FFFFFF" fill-rule="nonzero" d="M7.949,9.964 C7.38433051,9.964 6.86000242,9.86133436 6.376,9.656 C5.89199758,9.45066564 5.47400176,9.17016845 5.122,8.8145 C4.76999824,8.45883155 4.49500099,8.03900242 4.297,7.555 C4.09899901,7.07099758 4,6.55400275 4,6.004 L4,5.982 C4,5.43199725 4.09899901,4.91683574 4.297,4.4365 C4.49500099,3.95616427 4.76999824,3.53450182 5.122,3.1715 C5.47400176,2.80849819 5.89566421,2.52250105 6.387,2.3135 C6.87833579,2.10449896 7.42099703,2 8.015,2 C8.37433513,2 8.70249852,2.02933304 8.9995,2.088 C9.29650148,2.14666696 9.56599879,2.22733282 9.808,2.33 C10.0500012,2.43266718 10.2736656,2.5573326 10.479,2.704 C10.6843344,2.8506674 10.8749991,3.01199912 11.051,3.188 L9.973,4.431 C9.67233183,4.15966531 9.36616822,3.94700077 9.0545,3.793 C8.74283178,3.63899923 8.39266861,3.562 8.004,3.562 C7.68133172,3.562 7.38250137,3.62433271 7.1075,3.749 C6.83249862,3.87366729 6.59600099,4.0459989 6.398,4.266 C6.19999901,4.4860011 6.04600055,4.74083189 5.936,5.0305 C5.82599945,5.32016812 5.771,5.62999835 5.771,5.96 L5.771,5.982 C5.771,6.31200165 5.82599945,6.6236652 5.936,6.917 C6.04600055,7.2103348 6.1981657,7.4669989 6.3925,7.687 C6.58683431,7.9070011 6.82149863,8.08116603 7.0965,8.2095 C7.37150137,8.33783398 7.67399835,8.402 8.004,8.402 C8.4440022,8.402 8.81616515,8.32133414 9.1205,8.16 C9.42483485,7.99866586 9.72733183,7.77866806 10.028,7.5 L11.106,8.589 C10.907999,8.80166773 10.7026677,8.99233249 10.49,9.161 C10.2773323,9.32966751 10.0445013,9.4744994 9.7915,9.5955 C9.53849873,9.71650061 9.26166817,9.80816636 8.961,9.8705 C8.66033183,9.93283365 8.32300187,9.964 7.949,9.964 L7.949,9.964 Z"/>
  </g>
</svg>
