<svg xmlns="http://www.w3.org/2000/svg" width="16" height="16" viewBox="0 0 16 16">
  <g fill="none" fill-rule="evenodd">
    <rect width="16" height="16"/>
    <polygon fill="#794F40" fill-rule="nonzero" points="9 8 9 2 8 2 8 8 2 8 2 9 8 9 8 15 9 15 9 9 15 9 15 8"/>
    <path fill="#D7B897" fill-rule="nonzero" d="M4,4 L8,4 L8,8 L4,8 L4,4 Z M4,9 L8,9 L8,13 L4,13 L4,9 Z M9,4 L13,4 L13,8 L9,8 L9,4 Z M9,9 L13,9 L13,13 L9,13 L9,9 Z"/>
    <path fill="#EDD1A6" fill-rule="nonzero" d="M5,5 L7,5 L7,7 L5,7 L5,5 Z M5,10 L7,10 L7,12 L5,12 L5,10 Z M10,5 L12,5 L12,7 L10,7 L10,5 Z M10,10 L12,10 L12,12 L10,12 L10,10 Z"/>
    <path fill="#F9F1BB" fill-rule="nonzero" d="M5,5 L6,5 L6,6 L5,6 L5,5 Z M5,10 L6,10 L6,11 L5,11 L5,10 Z M10,5 L11,5 L11,6 L10,6 L10,5 Z M10,10 L11,10 L11,11 L10,11 L10,10 Z"/>
  </g>
</svg>
