<?xml version="1.0" encoding="UTF-8" standalone="no"?>
<svg width="16px" height="16px" viewBox="0 0 16 16" version="1.1" xmlns="http://www.w3.org/2000/svg" xmlns:xlink="http://www.w3.org/1999/xlink">
    <!-- Generator: Sketch 39.1 (31720) - http://www.bohemiancoding.com/sketch -->
    <title>iconrenamed-vector</title>
    <desc>Created with Sketch.</desc>
    <defs></defs>
    <g id="Page-1" stroke="none" stroke-width="1" fill="none" fill-rule="evenodd">
        <g id="iconrenamed-vector">
            <rect id="Rectangle-2-Copy-5" fill="#9A6BFC" x="0" y="0" width="16" height="16" rx="2"></rect>
            <path d="M6.39760248,7.31764723 L7.10650656,7.31764723 C7.80123604,7.31764723 8.31400487,7.22156975 8.64482843,7.02941192 C8.97565199,6.83725409 9.14106129,6.53529631 9.14106129,6.12352953 C9.14106129,5.71568433 8.97210751,5.42549114 8.63419487,5.25294125 C8.29628223,5.08039136 7.77287995,4.99411771 7.06397232,4.99411771 L6.39760248,4.99411771 L6.39760248,7.31764723 Z M6.39760248,8.80000024 L6.39760248,12.1000004 L4.19999981,12.1000004 L4.19999981,3.5 L7.21993122,3.5 C8.62829438,3.5 9.67037297,3.71274298 10.3461982,4.13823532 C11.0220235,4.56372766 11.3599311,5.20979966 11.3599311,6.0764707 C11.3599311,6.58235561 11.1921588,7.03235113 10.8566092,7.42647076 C10.5210596,7.8205904 10.0460986,8.12941085 9.43171197,8.35294139 C10.9913088,10.2862845 12.0073945,11.5352917 12.4799995,12.1000004 L10.0413695,12.1000004 L7.56729422,8.80000024 L6.39760248,8.80000024 Z" id="R" fill="#FFFFFF"></path>
        </g>
    </g>
</svg>