<?xml version="1.0" encoding="UTF-8" standalone="no"?>
<svg width="16px" height="16px" viewBox="0 0 16 16" version="1.1" xmlns="http://www.w3.org/2000/svg" xmlns:xlink="http://www.w3.org/1999/xlink">
    <!-- Generator: Sketch 39.1 (31720) - http://www.bohemiancoding.com/sketch -->
    <title>iconmerged-vector</title>
    <desc>Created with Sketch.</desc>
    <defs></defs>
    <g id="Page-1" stroke="none" stroke-width="1" fill="none" fill-rule="evenodd">
        <g id="iconmerged-vector">
            <rect id="Rectangle-2-Copy-3" fill="#0096B9" x="0" y="0" width="16" height="16" rx="2"></rect>
            <path d="M5.32373047,5.42041016 C4.69709973,5.42041016 4.21191578,5.65584074 3.86816406,6.12670898 C3.52441234,6.59757722 3.35253906,7.25373928 3.35253906,8.09521484 C3.35253906,9.84620016 4.00959629,10.7216797 5.32373047,10.7216797 C5.87516552,10.7216797 6.54296483,10.583823 7.32714844,10.3081055 L7.32714844,11.7045898 C6.68261396,11.9731459 5.9628946,12.1074219 5.16796875,12.1074219 C4.02571043,12.1074219 3.15202125,11.7609898 2.546875,11.0681152 C1.94172875,10.3752407 1.63916016,9.3807031 1.63916016,8.08447266 C1.63916016,7.26806232 1.78775893,6.55281883 2.08496094,5.9387207 C2.38216294,5.32462258 2.80916063,4.8537614 3.3659668,4.52612305 C3.92277297,4.19848469 4.57535433,4.03466797 5.32373047,4.03466797 C6.08642959,4.03466797 6.85269797,4.21907368 7.62255859,4.58789062 L7.08544922,5.94140625 C6.79182796,5.80175711 6.49642076,5.68001354 6.19921875,5.57617188 C5.90201674,5.47233021 5.61019023,5.42041016 5.32373047,5.42041016 L5.32373047,5.42041016 Z M12.112793,5.42041016 C11.4861622,5.42041016 11.0009783,5.65584074 10.6572266,6.12670898 C10.3134748,6.59757722 10.1416016,7.25373928 10.1416016,8.09521484 C10.1416016,9.84620016 10.7986588,10.7216797 12.112793,10.7216797 C12.664228,10.7216797 13.3320273,10.583823 14.1162109,10.3081055 L14.1162109,11.7045898 C13.4716765,11.9731459 12.7519571,12.1074219 11.9570312,12.1074219 C10.8147729,12.1074219 9.94108375,11.7609898 9.3359375,11.0681152 C8.73079125,10.3752407 8.42822266,9.3807031 8.42822266,8.08447266 C8.42822266,7.26806232 8.57682143,6.55281883 8.87402344,5.9387207 C9.17122544,5.32462258 9.59822313,4.8537614 10.1550293,4.52612305 C10.7118355,4.19848469 11.3644168,4.03466797 12.112793,4.03466797 C12.8754921,4.03466797 13.6417605,4.21907368 14.4116211,4.58789062 L13.8745117,5.94140625 C13.5808905,5.80175711 13.2854833,5.68001354 12.9882812,5.57617188 C12.6910792,5.47233021 12.3992527,5.42041016 12.112793,5.42041016 L12.112793,5.42041016 Z" id="CC" fill="#FFFFFF"></path>
        </g>
    </g>
</svg>