<svg xmlns="http://www.w3.org/2000/svg" width="16" height="16" viewBox="0 0 16 16">
  <g fill="none" fill-rule="evenodd">
    <rect width="16" height="16"/>
    <path fill="#FF00FF" fill-rule="nonzero" d="M2,4.56035897 L2,11.4383644 L7.95652741,14.8773671 L13.9130548,11.4383644 L13.9130548,4.56035897 L7.95652741,1.12135627 L2,4.56035897 Z M7.85818775,0.023432157 C7.91249924,-0.00792459851 8.00095042,-0.00769663157 8.05486707,0.023432157 L14.8147152,3.92623227 C14.8690266,3.95758903 14.9130548,4.03430398 14.9130548,4.09656156 L14.9130548,11.9021618 C14.9130548,11.9648753 14.8686318,12.0413623 14.8147152,12.0724911 L8.05486707,15.9752912 C8.00055557,16.0066479 7.91210439,16.00642 7.85818775,15.9752912 L1.09833966,12.0724911 C1.04402816,12.0411343 1,11.9644194 1,11.9021618 L1,4.09656156 C1,4.03384805 1.04442302,3.95736106 1.09833966,3.92623227 L7.85818775,0.023432157 Z"/>
    <path fill="#FF00FF" d="M8.5,8.84945705 L8.5,15.1999998 L7.5,15.1999998 L7.5,8.84529224 L1.52018229,5.32161458 L1.52018229,4.03971354 L8.02376592,7.85359158 L14.6410895,4 L14.6410895,5.28190104 L8.5,8.84945705 Z"/>
  </g>
</svg>
