<svg xmlns="http://www.w3.org/2000/svg" width="16" height="16" viewBox="0 0 16 16">
  <g fill="none" fill-rule="evenodd">
    <rect width="16" height="16" fill="#00FFFF"/>
    <path fill="#C7022D" fill-rule="nonzero" d="M0,4.70665788 L0.69215557,4.63282795 C0.729070719,5.0050557 0.81289761,5.29498907 0.943638761,5.50263678 C1.07437991,5.71028449 1.26126005,5.87716922 1.50428477,6.00329598 C1.7473095,6.12942274 2.02109274,6.19248517 2.32564272,6.19248517 C2.76247197,6.19248517 3.10162481,6.08558665 3.3431114,5.87178642 C3.584598,5.65798619 3.70533949,5.38035767 3.70533949,5.03889255 C3.70533949,4.8389355 3.6615034,4.66436023 3.57382993,4.5151615 C3.48615645,4.36596278 3.35387915,4.24368318 3.17699407,4.14831905 C3.00010898,4.05295492 2.61788912,3.91913951 2.03032301,3.74686882 C1.5073584,3.5930557 1.13513624,3.43770678 0.913645353,3.2808174 C0.692154463,3.12392802 0.519886355,2.92474302 0.39683586,2.68325643 C0.273785366,2.44176983 0.212261042,2.16875564 0.212261042,1.86420567 C0.212261042,1.31663097 0.389143474,0.86904151 0.742913645,0.521423863 C1.09668382,0.173806216 1.57349733,0 2.17336849,0 C2.58558765,0 2.946274,0.0815197297 3.25543837,0.244561635 C3.56460273,0.40760354 3.8045476,0.641395972 3.97528016,0.945945946 C4.14601272,1.25049592 4.23753015,1.60887511 4.2498352,2.02109426 L3.54383652,2.08569545 C3.50692137,1.64578993 3.37541313,1.31971102 3.14930784,1.10744891 C2.92320256,0.895186809 2.60558324,0.78905735 2.19644034,0.78905735 C1.78114492,0.78905735 1.46429465,0.882112891 1.24588003,1.06822676 C1.0274654,1.25434064 0.918259723,1.49505456 0.918259723,1.79037574 C0.918259723,2.06416309 0.998241345,2.27642201 1.15820699,2.42715887 C1.31817263,2.57789572 1.67808993,2.73016842 2.23796968,2.88398154 C2.78554438,3.0347184 3.1700714,3.16545759 3.39156229,3.27620303 C3.72995115,3.44847372 3.9852771,3.67534467 4.15754779,3.95682268 C4.32981848,4.23830068 4.41595254,4.5743773 4.41595254,4.96506262 C4.41595254,5.35267168 4.32520416,5.70566749 4.14370468,6.02406065 C3.9622052,6.3424538 3.71533885,6.58470583 3.40309822,6.75082399 C3.09085759,6.91694216 2.71479016,7 2.27488464,7 C1.58887813,7 1.0420807,6.79389351 0.634475939,6.38167436 C0.226871177,5.9694552 0.0153813118,5.41112196 0,4.70665788 L0,4.70665788 Z"/>
  </g>
</svg>
