<?xml version="1.0" encoding="UTF-8"?>
<svg width="198px" height="24px" viewBox="0 0 198 24" version="1.1" xmlns="http://www.w3.org/2000/svg" xmlns:xlink="http://www.w3.org/1999/xlink">
    <title>buttonssosigningoogle</title>
    <defs>
        <rect id="path-1" x="0" y="0" width="198" height="24" rx="1.20833333"></rect>
        <filter x="-1.0%" y="-8.3%" width="102.0%" height="120.8%" filterUnits="objectBoundingBox" id="filter-2">
            <feOffset dx="0" dy="1" in="SourceAlpha" result="shadowOffsetOuter1"></feOffset>
            <feGaussianBlur stdDeviation="0.5" in="shadowOffsetOuter1" result="shadowBlurOuter1"></feGaussianBlur>
            <feColorMatrix values="0 0 0 0 0   0 0 0 0 0   0 0 0 0 0  0 0 0 0.24 0" type="matrix" in="shadowBlurOuter1" result="shadowMatrixOuter1"></feColorMatrix>
            <feOffset dx="0" dy="0" in="SourceAlpha" result="shadowOffsetOuter2"></feOffset>
            <feGaussianBlur stdDeviation="0.5" in="shadowOffsetOuter2" result="shadowBlurOuter2"></feGaussianBlur>
            <feColorMatrix values="0 0 0 0 0   0 0 0 0 0   0 0 0 0 0  0 0 0 0.12 0" type="matrix" in="shadowBlurOuter2" result="shadowMatrixOuter2"></feColorMatrix>
            <feMerge>
                <feMergeNode in="shadowMatrixOuter1"></feMergeNode>
                <feMergeNode in="shadowMatrixOuter2"></feMergeNode>
            </feMerge>
        </filter>
    </defs>
    <g id="buttonssosigningoogle" stroke="none" stroke-width="1" fill="none" fill-rule="evenodd">
        <g id="Group-2">
            <g id="button-bg">
                <use fill="black" fill-opacity="1" filter="url(#filter-2)" xlink:href="#path-1"></use>
                <use fill="#4285F4" fill-rule="evenodd" xlink:href="#path-1"></use>
            </g>
            <path d="M67.7149251,15.6907552 C68.5707194,15.6907552 69.2483724,15.498291 69.7478841,15.1133626 C70.2473958,14.7284342 70.4971517,14.2101237 70.4971517,13.558431 C70.4971517,13.1573893 70.4112142,12.807373 70.2393392,12.5083822 C70.0674642,12.2093913 69.7971191,11.9444173 69.428304,11.7134603 C69.0594889,11.4825033 68.5707194,11.2766113 67.9619954,11.0957845 C67.3532715,10.9149577 66.9164225,10.7287598 66.6514486,10.5371908 C66.3864746,10.3456217 66.2539876,10.1066081 66.2539876,9.82014974 C66.2539876,9.47998047 66.3766276,9.21500651 66.6219076,9.02522786 C66.8671875,8.83544922 67.2118327,8.7405599 67.6558431,8.7405599 C68.1320801,8.7405599 68.4982096,8.85603841 68.7542318,9.08699544 C69.0102539,9.31795247 69.138265,9.63753255 69.138265,10.0457357 L69.138265,10.0457357 L70.4917806,10.0457357 C70.4917806,9.5945638 70.3700358,9.18367513 70.1265462,8.81306966 C69.8830566,8.44246419 69.5482585,8.15690104 69.1221517,7.95638021 C68.6960449,7.75585937 68.2108561,7.65559896 67.6665853,7.65559896 C66.8465983,7.65559896 66.1796875,7.85970052 65.6658529,8.26790365 C65.1520182,8.67610677 64.8951009,9.1953125 64.8951009,9.82552083 C64.8951009,10.5452474 65.2513835,11.1289062 65.9639486,11.5764974 C66.3363444,11.8092448 66.8376465,12.0205078 67.4678548,12.2102865 C68.0980632,12.4000651 68.5340169,12.5880534 68.7757161,12.7742513 C69.0174154,12.9604492 69.138265,13.2254232 69.138265,13.5691732 C69.138265,13.8842773 69.0192057,14.1376139 68.7810872,14.3291829 C68.5429688,14.520752 68.1875814,14.6165365 67.7149251,14.6165365 C67.1670736,14.6165365 66.7463379,14.4947917 66.4527181,14.2513021 C66.1590983,14.0078125 66.0122884,13.6640625 66.0122884,13.2200521 L66.0122884,13.2200521 L64.6534017,13.2200521 C64.6534017,13.710612 64.7849935,14.1402995 65.0481771,14.5091146 C65.3113607,14.8779297 65.6801758,15.1670736 66.1546224,15.3765462 C66.629069,15.5860189 67.1491699,15.6907552 67.7149251,15.6907552 Z M72.3018392,8.95003255 C72.5381673,8.95003255 72.7207845,8.88468424 72.8496908,8.75398763 C72.978597,8.62329102 73.0430501,8.45947266 73.0430501,8.26253255 C73.0430501,8.06201172 72.978597,7.89550781 72.8496908,7.76302083 C72.7207845,7.63053385 72.5381673,7.56429036 72.3018392,7.56429036 C72.0655111,7.56429036 71.8837891,7.63053385 71.7566732,7.76302083 C71.6295573,7.89550781 71.5659993,8.06201172 71.5659993,8.26253255 C71.5659993,8.45947266 71.6295573,8.62329102 71.7566732,8.75398763 C71.8837891,8.88468424 72.0655111,8.95003255 72.3018392,8.95003255 Z M72.9517415,15.5833333 L72.9517415,9.7718099 L71.6465658,9.7718099 L71.6465658,15.5833333 L72.9517415,15.5833333 Z M76.6363118,17.8714193 C77.4419759,17.8714193 78.0820313,17.6512044 78.5564779,17.2107747 C79.0309245,16.7703451 79.2681478,16.1687826 79.2681478,15.4060872 L79.2681478,15.4060872 L79.2681478,9.7718099 L78.0918783,9.7718099 L78.0327962,10.3572591 C77.6532389,9.89534505 77.1322428,9.66438802 76.4698079,9.66438802 C75.767985,9.66438802 75.2049154,9.93383789 74.780599,10.4727376 C74.3562826,11.0116374 74.1441243,11.7322591 74.1441243,12.6346029 C74.1441243,13.5906576 74.3598633,14.3390299 74.7913411,14.8797201 C75.222819,15.4204102 75.7787272,15.6907552 76.4590658,15.6907552 C77.0856934,15.6907552 77.5869954,15.4812826 77.962972,15.0623372 L77.962972,15.0623372 L77.962972,15.4544271 C77.962972,15.9091797 77.8376465,16.2538249 77.5869954,16.4883626 C77.3363444,16.7229004 76.9943848,16.8401693 76.5611165,16.8401693 C75.973877,16.8401693 75.4797363,16.6020508 75.0786947,16.1258138 L75.0786947,16.1258138 L74.4610189,16.9099935 C74.6722819,17.1964518 74.9811198,17.428304 75.3875326,17.6055501 C75.7939453,17.7827962 76.2102051,17.8714193 76.6363118,17.8714193 Z M76.7920736,14.6272786 C76.3695475,14.6272786 76.0392253,14.4598796 75.8011068,14.1250814 C75.5629883,13.7902832 75.443929,13.3310547 75.443929,12.7473958 C75.443929,12.0849609 75.5629883,11.5836589 75.8011068,11.2434896 C76.0392253,10.9033203 76.3731283,10.7332357 76.8028158,10.7332357 C77.3291829,10.7332357 77.7159017,10.9534505 77.962972,11.3938802 L77.962972,11.3938802 L77.962972,13.9505208 C77.7087402,14.4016927 77.3184408,14.6272786 76.7920736,14.6272786 Z M81.8946126,15.5833333 L81.8946126,11.4475911 C82.1524251,10.9713542 82.544515,10.7332357 83.0708822,10.7332357 C83.4325358,10.7332357 83.6930339,10.8218587 83.8523763,10.9991048 C84.0117188,11.1763509 84.09139,11.4493815 84.09139,11.8181966 L84.09139,11.8181966 L84.09139,15.5833333 L85.3965658,15.5833333 L85.3965658,11.7430013 C85.3750814,10.3572591 84.759196,9.66438802 83.5489095,9.66438802 C82.8506673,9.66438802 82.2867025,9.92399089 81.857015,10.4431966 L81.857015,10.4431966 L81.8194173,9.7718099 L80.5894368,9.7718099 L80.5894368,15.5833333 L81.8946126,15.5833333 Z M90.2036947,8.95003255 C90.4400228,8.95003255 90.62264,8.88468424 90.7515462,8.75398763 C90.8804525,8.62329102 90.9449056,8.45947266 90.9449056,8.26253255 C90.9449056,8.06201172 90.8804525,7.89550781 90.7515462,7.76302083 C90.62264,7.63053385 90.4400228,7.56429036 90.2036947,7.56429036 C89.9673665,7.56429036 89.7856445,7.63053385 89.6585286,7.76302083 C89.5314128,7.89550781 89.4678548,8.06201172 89.4678548,8.26253255 C89.4678548,8.45947266 89.5314128,8.62329102 89.6585286,8.75398763 C89.7856445,8.88468424 89.9673665,8.95003255 90.2036947,8.95003255 Z M90.853597,15.5833333 L90.853597,9.7718099 L89.5484212,9.7718099 L89.5484212,15.5833333 L90.853597,15.5833333 Z M93.5606283,15.5833333 L93.5606283,11.4475911 C93.8184408,10.9713542 94.2105306,10.7332357 94.7368978,10.7332357 C95.0985514,10.7332357 95.3590495,10.8218587 95.5183919,10.9991048 C95.6777344,11.1763509 95.7574056,11.4493815 95.7574056,11.8181966 L95.7574056,11.8181966 L95.7574056,15.5833333 L97.0625814,15.5833333 L97.0625814,11.7430013 C97.041097,10.3572591 96.4252116,9.66438802 95.2149251,9.66438802 C94.5166829,9.66438802 93.9527181,9.92399089 93.5230306,10.4431966 L93.5230306,10.4431966 L93.4854329,9.7718099 L92.2554525,9.7718099 L92.2554525,15.5833333 L93.5606283,15.5833333 Z M103.303792,15.5833333 L104.528402,11.5926107 L105.774495,15.5833333 L106.848714,15.5833333 L108.433187,9.7718099 L107.160238,9.7718099 L106.23641,13.7840169 L105.027913,9.7718099 L104.045003,9.7718099 L102.85262,13.7410482 L101.912679,9.7718099 L100.63973,9.7718099 L102.229574,15.5833333 L103.303792,15.5833333 Z M110.044515,8.95003255 C110.280843,8.95003255 110.46346,8.88468424 110.592367,8.75398763 C110.721273,8.62329102 110.785726,8.45947266 110.785726,8.26253255 C110.785726,8.06201172 110.721273,7.89550781 110.592367,7.76302083 C110.46346,7.63053385 110.280843,7.56429036 110.044515,7.56429036 C109.808187,7.56429036 109.626465,7.63053385 109.499349,7.76302083 C109.372233,7.89550781 109.308675,8.06201172 109.308675,8.26253255 C109.308675,8.45947266 109.372233,8.62329102 109.499349,8.75398763 C109.626465,8.88468424 109.808187,8.95003255 110.044515,8.95003255 Z M110.694417,15.5833333 L110.694417,9.7718099 L109.389242,9.7718099 L109.389242,15.5833333 L110.694417,15.5833333 Z M113.9493,15.6907552 C114.225016,15.6907552 114.511475,15.6495768 114.808675,15.5672201 L114.808675,15.5672201 L114.808675,14.5574544 C114.654704,14.5932617 114.502523,14.6111654 114.352132,14.6111654 C114.126546,14.6111654 113.969889,14.5619303 113.882161,14.4634603 C113.794434,14.3649902 113.75057,14.2047526 113.75057,13.9827474 L113.75057,13.9827474 L113.75057,10.7386068 L114.776449,10.7386068 L114.776449,9.7718099 L113.75057,9.7718099 L113.75057,8.35921224 L112.445394,8.35921224 L112.445394,9.7718099 L111.489339,9.7718099 L111.489339,10.7386068 L112.445394,10.7386068 L112.445394,14.0310872 C112.445394,15.1375326 112.946696,15.6907552 113.9493,15.6907552 Z M117.059163,15.5833333 L117.059163,11.4314779 C117.316976,10.9659831 117.707275,10.7332357 118.230062,10.7332357 C118.56665,10.7332357 118.821777,10.8164876 118.995443,10.9829915 C119.169108,11.1494954 119.255941,11.4332682 119.255941,11.8343099 L119.255941,11.8343099 L119.255941,15.5833333 L120.561117,15.5833333 L120.561117,11.7859701 C120.543213,10.371582 119.914795,9.66438802 118.675863,9.66438802 C118.02417,9.66438802 117.48527,9.91145833 117.059163,10.405599 L117.059163,10.405599 L117.059163,7.33333333 L115.753988,7.33333333 L115.753988,15.5833333 L117.059163,15.5833333 Z M127.855062,15.6907552 C128.492432,15.6907552 129.061768,15.5958659 129.56307,15.4060872 C130.064372,15.2163086 130.456462,14.9370117 130.739339,14.5681966 L130.739339,14.5681966 L130.739339,11.5711263 L127.774495,11.5711263 L127.774495,12.6023763 L129.385824,12.6023763 L129.385824,14.133138 C129.092204,14.4482422 128.598063,14.6057943 127.903402,14.6057943 C127.269613,14.6057943 126.774577,14.3721517 126.418294,13.9048665 C126.062012,13.4375814 125.88387,12.7814128 125.88387,11.9363607 L125.88387,11.9363607 L125.88387,11.3347982 C125.894613,10.4861654 126.058431,9.8425293 126.375326,9.40388997 C126.69222,8.96525065 127.155029,8.74593099 127.763753,8.74593099 C128.705485,8.74593099 129.251546,9.21679687 129.401937,10.1585286 L129.401937,10.1585286 L130.733968,10.1585286 C130.630127,9.34928385 130.322184,8.72981771 129.81014,8.30013021 C129.298096,7.87044271 128.607015,7.65559896 127.736898,7.65559896 C126.723551,7.65559896 125.934001,7.98771159 125.368245,8.65193685 C124.80249,9.31616211 124.519613,10.2390951 124.519613,11.4207357 L124.519613,11.4207357 L124.519613,12.0330404 C124.530355,12.7706706 124.672689,13.416097 124.946615,13.9693197 C125.22054,14.5225423 125.609945,14.9477539 126.114827,15.2449544 C126.61971,15.5421549 127.199788,15.6907552 127.855062,15.6907552 Z M134.568929,15.6907552 C135.106038,15.6907552 135.57959,15.5672201 135.989583,15.3201497 C136.399577,15.0730794 136.714681,14.7239583 136.934896,14.2727865 C137.155111,13.8216146 137.265218,13.3095703 137.265218,12.7366536 L137.265218,12.7366536 L137.259847,12.4305013 C137.220459,11.5961914 136.95638,10.9265951 136.467611,10.4217122 C135.978841,9.91682943 135.342367,9.66438802 134.558187,9.66438802 C134.028239,9.66438802 133.559163,9.78702799 133.15096,10.0323079 C132.742757,10.2775879 132.425863,10.6284993 132.200277,11.0850423 C131.974691,11.5415853 131.861898,12.0545247 131.861898,12.6238607 L131.861898,12.6238607 L131.861898,12.6883138 C131.861898,13.597819 132.108073,14.3256022 132.600423,14.8716634 C133.092773,15.4177246 133.748942,15.6907552 134.568929,15.6907552 Z M134.568929,14.648763 C134.128499,14.648763 133.784749,14.4795736 133.537679,14.1411947 C133.290609,13.8028158 133.167074,13.3346354 133.167074,12.7366536 C133.167074,12.0634766 133.292399,11.5576986 133.54305,11.2193197 C133.793701,10.8809408 134.13208,10.7117513 134.558187,10.7117513 C134.991455,10.7117513 135.33431,10.8836263 135.586751,11.2273763 C135.839193,11.5711263 135.965413,12.0366211 135.965413,12.6238607 C135.965413,13.2862956 135.842773,13.789388 135.597493,14.133138 C135.352214,14.476888 135.009359,14.648763 134.568929,14.648763 Z M140.831624,15.6907552 C141.368734,15.6907552 141.842285,15.5672201 142.252279,15.3201497 C142.662272,15.0730794 142.977376,14.7239583 143.197591,14.2727865 C143.417806,13.8216146 143.527913,13.3095703 143.527913,12.7366536 L143.527913,12.7366536 L143.522542,12.4305013 C143.483154,11.5961914 143.219076,10.9265951 142.730306,10.4217122 C142.241536,9.91682943 141.605062,9.66438802 140.820882,9.66438802 C140.290934,9.66438802 139.821859,9.78702799 139.413656,10.0323079 C139.005452,10.2775879 138.688558,10.6284993 138.462972,11.0850423 C138.237386,11.5415853 138.124593,12.0545247 138.124593,12.6238607 L138.124593,12.6238607 L138.124593,12.6883138 C138.124593,13.597819 138.370768,14.3256022 138.863118,14.8716634 C139.355469,15.4177246 140.011637,15.6907552 140.831624,15.6907552 Z M140.831624,14.648763 C140.391195,14.648763 140.047445,14.4795736 139.800374,14.1411947 C139.553304,13.8028158 139.429769,13.3346354 139.429769,12.7366536 C139.429769,12.0634766 139.555094,11.5576986 139.805745,11.2193197 C140.056396,10.8809408 140.394775,10.7117513 140.820882,10.7117513 C141.25415,10.7117513 141.597005,10.8836263 141.849447,11.2273763 C142.101888,11.5711263 142.228109,12.0366211 142.228109,12.6238607 C142.228109,13.2862956 142.105469,13.789388 141.860189,14.133138 C141.614909,14.476888 141.272054,14.648763 140.831624,14.648763 Z M146.895589,17.8714193 C147.701253,17.8714193 148.341309,17.6512044 148.815755,17.2107747 C149.290202,16.7703451 149.527425,16.1687826 149.527425,15.4060872 L149.527425,15.4060872 L149.527425,9.7718099 L148.351156,9.7718099 L148.292074,10.3572591 C147.912516,9.89534505 147.39152,9.66438802 146.729085,9.66438802 C146.027262,9.66438802 145.464193,9.93383789 145.039876,10.4727376 C144.61556,11.0116374 144.403402,11.7322591 144.403402,12.6346029 C144.403402,13.5906576 144.619141,14.3390299 145.050618,14.8797201 C145.482096,15.4204102 146.038005,15.6907552 146.718343,15.6907552 C147.344971,15.6907552 147.846273,15.4812826 148.222249,15.0623372 L148.222249,15.0623372 L148.222249,15.4544271 C148.222249,15.9091797 148.096924,16.2538249 147.846273,16.4883626 C147.595622,16.7229004 147.253662,16.8401693 146.820394,16.8401693 C146.233154,16.8401693 145.739014,16.6020508 145.337972,16.1258138 L145.337972,16.1258138 L144.720296,16.9099935 C144.931559,17.1964518 145.240397,17.428304 145.64681,17.6055501 C146.053223,17.7827962 146.469482,17.8714193 146.895589,17.8714193 Z M147.051351,14.6272786 C146.628825,14.6272786 146.298503,14.4598796 146.060384,14.1250814 C145.822266,13.7902832 145.703206,13.3310547 145.703206,12.7473958 C145.703206,12.0849609 145.822266,11.5836589 146.060384,11.2434896 C146.298503,10.9033203 146.632406,10.7332357 147.062093,10.7332357 C147.58846,10.7332357 147.975179,10.9534505 148.222249,11.3938802 L148.222249,11.3938802 L148.222249,13.9505208 C147.968018,14.4016927 147.577718,14.6272786 147.051351,14.6272786 Z M152.255941,15.5833333 L152.255941,7.33333333 L150.950765,7.33333333 L150.950765,15.5833333 L152.255941,15.5833333 Z M156.235921,15.6907552 C156.71932,15.6907552 157.155273,15.5949707 157.543783,15.4034017 C157.932292,15.2118327 158.24292,14.9423828 158.475667,14.5950521 L158.475667,14.5950521 L157.772054,13.9236654 C157.396077,14.4070638 156.909098,14.648763 156.311117,14.648763 C155.88501,14.648763 155.531413,14.5091146 155.250326,14.2298177 C154.969238,13.9505208 154.809001,13.5709635 154.769613,13.0911458 L154.769613,13.0911458 L158.566976,13.0911458 L158.566976,12.5647786 C158.566976,11.6409505 158.351237,10.9265951 157.919759,10.4217122 C157.488281,9.91682943 156.876872,9.66438802 156.085531,9.66438802 C155.587809,9.66438802 155.136637,9.79150391 154.732015,10.0457357 C154.327393,10.2999674 154.013184,10.6553548 153.789388,11.1118978 C153.565592,11.5684408 153.453695,12.0867513 153.453695,12.6668294 L153.453695,12.6668294 L153.453695,12.8279622 C153.453695,13.6944987 153.710612,14.388265 154.224447,14.9092611 C154.738281,15.4302572 155.408773,15.6907552 156.235921,15.6907552 Z M157.277913,12.1350911 L154.791097,12.1350911 C154.851969,11.6875 154.992513,11.3383789 155.212728,11.0877279 C155.432943,10.8370768 155.722087,10.7117513 156.08016,10.7117513 C156.441813,10.7117513 156.724691,10.8236491 156.928792,11.0474447 C157.132894,11.2712402 157.249268,11.6015625 157.277913,12.0384115 L157.277913,12.0384115 L157.277913,12.1350911 Z" id="SigninwithGoogle" fill="#FFFFFF" fill-rule="nonzero"></path>
            <g id="Group" transform="translate(0.583333, 0.583333)">
                <rect id="button-bg-copy" fill="#FFFFFF" x="1.77635684e-15" y="0" width="22.9583333" height="22.9583333" rx="0.604166667"></rect>
                <g id="google-logo" transform="translate(6.000000, 6.000000)">
                    <path d="M10.6575,5.56107955 C10.6575,5.17551136 10.6228977,4.80477273 10.5586364,4.44886364 L5.4375,4.44886364 L5.4375,6.5521875 L8.36386364,6.5521875 C8.2378125,7.231875 7.85471591,7.80775568 7.27883523,8.19332386 L7.27883523,9.55764205 L9.03613636,9.55764205 C10.0643182,8.61102273 10.6575,7.21704545 10.6575,5.56107955 L10.6575,5.56107955 Z" id="Shape" fill="#4285F4"></path>
                    <path d="M5.4375,10.875 C6.905625,10.875 8.13647727,10.3880966 9.03613636,9.55764205 L7.27883523,8.19332386 C6.79193182,8.51957386 6.16909091,8.71235795 5.4375,8.71235795 C4.02127841,8.71235795 2.82255682,7.75585227 2.39497159,6.470625 L0.578352273,6.470625 L0.578352273,7.87943182 C1.47306818,9.65650568 3.31193182,10.875 5.4375,10.875 L5.4375,10.875 Z" id="Shape" fill="#34A853"></path>
                    <path d="M2.39497159,6.470625 C2.28622159,6.144375 2.22443182,5.79588068 2.22443182,5.4375 C2.22443182,5.07911932 2.28622159,4.730625 2.39497159,4.404375 L2.39497159,2.99556818 L0.578352273,2.99556818 C0.210085227,3.72963068 -5.55111512e-15,4.56008523 -5.55111512e-15,5.4375 C-5.55111512e-15,6.31491477 0.210085227,7.14536932 0.578352273,7.87943182 L2.39497159,6.470625 L2.39497159,6.470625 Z" id="Shape" fill="#FBBC05"></path>
                    <path d="M5.4375,2.16264205 C6.23582386,2.16264205 6.95258523,2.43698864 7.51610795,2.97579545 L9.07568182,1.41622159 C8.13400568,0.538806818 6.90315341,4.4408921e-16 5.4375,4.4408921e-16 C3.31193182,4.4408921e-16 1.47306818,1.21849432 0.578352273,2.99556818 L2.39497159,4.404375 C2.82255682,3.11914773 4.02127841,2.16264205 5.4375,2.16264205 L5.4375,2.16264205 Z" id="Shape" fill="#EA4335"></path>
                </g>
            </g>
        </g>
    </g>
</svg>