<svg xmlns="http://www.w3.org/2000/svg" width="16" height="16" viewBox="0 0 16 16"><title>  buttonsearchprevious</title><desc>  Created with Sketch.</desc><g fill="none"><path d="M8.7 11.5C9.2 11.4 9.7 11.2 10.2 11L12.8 13.6C13 13.8 13.4 13.8 13.5 13.6L15.6 11.6C15.8 11.4 15.8 11.1 15.6 10.9L12.9 8.3C13.3 7.5 13.5 6.7 13.5 5.8 13.5 2.6 10.9 0 7.7 0 4.5 0 1.9 2.6 1.9 5.8 1.9 6.5 2.1 7.2 2.3 7.9L4.3 6C4.2 6 4.2 5.9 4.2 5.8 4.2 3.9 5.8 2.3 7.7 2.3 9.6 2.3 11.2 3.9 11.2 5.8 11.2 7.3 10.1 8.7 8.7 9.1L8.7 11.5Z" fill="#2A455C"/><polygon points="4.8 8.6 4.8 6.7 0 11.3 4.8 15.4 4.8 13.5 7.7 13.5 7.7 8.6" fill="#00B190"/></g></svg>