<?xml version="1.0" encoding="UTF-8" standalone="no"?>
<svg width="16px" height="16px" viewBox="0 0 16 16" version="1.1" xmlns="http://www.w3.org/2000/svg" xmlns:xlink="http://www.w3.org/1999/xlink">
    <!-- Generator: Sketch 39.1 (31720) - http://www.bohemiancoding.com/sketch -->
    <title>iconmergecategory-vector</title>
    <desc>Created with Sketch.</desc>
    <defs></defs>
    <g id="iconfile" stroke="none" stroke-width="1" fill="none" fill-rule="evenodd">
        <g id="iconmergecategory-vector">
            <g id="Group" fill="#00B588">
                <rect id="Rectangle-2-Copy-5" x="0" y="0" width="16" height="16" rx="2"></rect>
            </g>
            <path d="M4.32246089,11.1386719 L2.60371089,5.53808594 L2.55976558,5.53808594 C2.62161484,6.67741455 2.65253901,7.4374981 2.65253901,7.81835938 L2.65253901,11.1386719 L1.29999995,11.1386719 L1.29999995,4 L3.36054683,4 L5.04999995,9.45898438 L5.07929683,9.45898438 L6.87128901,4 L8.93183589,4 L8.93183589,11.1386719 L7.52070308,11.1386719 L7.52070308,7.75976562 C7.52070308,7.60025962 7.52314446,7.41634219 7.5280273,7.20800781 C7.53291013,6.99967344 7.55488257,6.44629355 7.59394526,5.54785156 L7.54999995,5.54785156 L5.70917964,11.1386719 L4.32246089,11.1386719 Z M12.1722656,6.63671875 C11.8565088,6.63671875 11.6091154,6.73681541 11.4300781,6.93701172 C11.2510407,7.13720803 11.1485027,7.42122212 11.1224609,7.7890625 L13.2123047,7.7890625 C13.2057942,7.42122212 13.1097665,7.13720803 12.9242187,6.93701172 C12.7386709,6.73681541 12.4880224,6.63671875 12.1722656,6.63671875 L12.1722656,6.63671875 Z M12.3822265,11.2363281 C11.5033159,11.2363281 10.8164738,10.9938175 10.3216797,10.5087891 C9.82688551,10.0237606 9.57949215,9.33691851 9.57949215,8.44824219 C9.57949215,7.53352407 9.80816825,6.82633713 10.2655273,6.32666016 C10.7228864,5.82698318 11.3552043,5.57714844 12.1625,5.57714844 C12.9339882,5.57714844 13.5345681,5.7968728 13.9642578,6.23632812 C14.3939474,6.67578345 14.608789,7.28287373 14.608789,8.05761719 L14.608789,8.78027344 L11.0882812,8.78027344 C11.1045573,9.20345264 11.2298816,9.53385298 11.4642578,9.77148438 C11.6986339,10.0091158 12.0274067,10.1279297 12.4505859,10.1279297 C12.7793636,10.1279297 13.0902329,10.0937503 13.3832031,10.0253906 C13.6761733,9.95703091 13.9821598,9.84798252 14.3011718,9.69824219 L14.3011718,10.8505859 C14.0407539,10.9807949 13.7624363,11.0776364 13.4662109,11.1411133 C13.1699855,11.2045902 12.808661,11.2363281 12.3822265,11.2363281 L12.3822265,11.2363281 Z" id="Me" fill="#FFFFFF"></path>
        </g>
    </g>
</svg>