<svg xmlns="http://www.w3.org/2000/svg" width="16" height="16" viewBox="0 0 16 16">
  <path fill="#FF00FF" fill-rule="evenodd" d="M10,3 L10,4 L4,4 L4,3 L2,3 L2,13 L4,13 L4,14 L1,14 L1,2 L4,2 L4,1 L5,1 L5,0 L9,0 L9,1 L10,1 L10,2 L13,2 L13,4 L12,4 L12,3 L10,3 Z M9,2 L8,2 L8,1 L6,1 L6,2 L5,2 L5,3 L9,3 L9,2 Z M13.5848297,8 L12,6.41600523 L12,8 L13.5848297,8 Z M15,8.00578389 L15,16 L5,16 L5,5 L12,5 L12,5.01980177 L12.0088211,5.01098064 L15.0026007,8.00318315 L15,8.00578389 Z M14,9 L11,9 L11,6 L6,6 L6,15 L14,15 L14,9 Z M7,8 L10,8 L10,9 L7,9 L7,8 Z M7,10 L13,10 L13,11 L7,11 L7,10 Z M7,12 L13,12 L13,13 L7,13 L7,12 Z"/>
</svg>
