<?xml version="1.0" encoding="UTF-8"?>
<svg width="24px" height="24px" viewBox="0 0 24 24" version="1.1" xmlns="http://www.w3.org/2000/svg" xmlns:xlink="http://www.w3.org/1999/xlink">
    <title>buttonssosigniemail</title>
    <g id="buttonssosigniemail" stroke="none" stroke-width="1" fill="none" fill-rule="evenodd">
        <path d="M20.3076923,10.1538462 C20.6900433,10.1538462 21,10.4638029 21,10.8461538 L21,10.8461538 L21,16.3846154 C20.9995152,16.935264 20.7803792,17.4631827 20.3907692,17.8523077 C20.0016442,18.2419177 19.4737256,18.4610537 18.9230769,18.4615385 L18.9230769,18.4615385 L5.07692308,18.4615385 C4.52627441,18.4610537 3.99835576,18.2419177 3.60923077,17.8523077 C3.2196208,17.4631827 3.00048476,16.935264 3,16.3846154 L3,16.3846154 L3,10.8461538 C3,10.4638029 3.30995671,10.1538462 3.69230769,10.1538462 C4.07465867,10.1538462 4.38461538,10.4638029 4.38461538,10.8461538 L4.38461538,10.8461538 L4.38461538,16.3846154 C4.38461538,16.7669664 4.6945721,17.0769231 5.07692308,17.0769231 L5.07692308,17.0769231 L18.9230769,17.0769231 C19.3054279,17.0769231 19.6153846,16.7669664 19.6153846,16.3846154 L19.6153846,16.3846154 L19.6153846,10.8461538 C19.6153846,10.4638029 19.9253413,10.1538462 20.3076923,10.1538462 Z M18.9230769,6 C19.4737256,6.00048476 20.0016442,6.2196208 20.3907692,6.60923077 C20.558062,6.77661055 20.6961272,6.97083793 20.7992308,7.18384615 C20.9413729,7.4809593 20.854514,7.83708065 20.5915385,8.03538462 L20.5915385,8.03538462 L12.4153846,14.1692308 C12.1692308,14.3538462 11.8307692,14.3538462 11.5846154,14.1692308 L11.5846154,14.1692308 L3.40846154,8.03538462 C3.145486,7.83708065 3.05862714,7.4809593 3.20076923,7.18384615 C3.30387279,6.97083793 3.44193804,6.77661055 3.60923077,6.60923077 C3.99835576,6.2196208 4.52627441,6.00048476 5.07692308,6 L5.07692308,6 Z M19.02,7.37703076 L18.9230769,7.38461538 L5.07692308,7.38461538 C5.01270338,7.37450255 4.94729662,7.37450255 4.88307692,7.38461538 L4.88307692,7.38461538 L12,12.75 L19.1169231,7.38461538 C19.0527034,7.37450255 18.9872966,7.37450255 18.9230769,7.38461538 Z" id="Combined-Shape" fill="#000000" fill-rule="nonzero"></path>
    </g>
</svg>