<svg xmlns="http://www.w3.org/2000/svg" width="12" height="12" viewBox="0 0 12 12">
  <g fill="none" fill-rule="evenodd">
    <rect width="12" height="12"/>
    <rect width="12" height="12" fill="#F25335" rx="1"/>
    <path fill="#FFFFFF" d="M3,2.5 L5.87119994,2.5 C6.40146925,2.5 6.86059798,2.59053243 7.24859992,2.77159999 C7.63660185,2.95266756 7.95346534,3.20001508 8.1991999,3.51364998 C8.44493445,3.82728488 8.62761596,4.19426453 8.74724989,4.61459996 C8.86688382,5.03493539 8.92669988,5.48436422 8.92669988,5.96289993 C8.92669988,6.44143565 8.86688382,6.89086448 8.74724989,7.31119991 C8.62761596,7.73153533 8.44493445,8.09851499 8.1991999,8.41214988 C7.95346534,8.72578478 7.63660185,8.9731323 7.24859992,9.15419987 C6.86059798,9.33526744 6.40146925,9.42579986 5.87119994,9.42579986 L3,9.42579986 L3,2.5 Z M4.21249998,8.43639988 L5.40559995,8.43639988 C5.87766897,8.43639988 6.26404843,8.37335052 6.56474993,8.24724989 C6.86545143,8.12114926 7.1014824,7.94655101 7.27284992,7.7234499 C7.44421744,7.50034879 7.56061627,7.23845141 7.62204991,6.93774991 C7.68348355,6.63704842 7.71419991,6.31210167 7.71419991,5.96289993 C7.71419991,5.61369819 7.68348355,5.28875145 7.62204991,4.98804995 C7.56061627,4.68734845 7.44421744,4.42545108 7.27284992,4.20234997 C7.1014824,3.97924886 6.86545143,3.8046506 6.56474993,3.67854998 C6.26404843,3.55244935 5.87766897,3.48939998 5.40559995,3.48939998 L4.21249998,3.48939998 L4.21249998,8.43639988 Z"/>
  </g>
</svg>
