<svg xmlns="http://www.w3.org/2000/svg" width="9" height="9" viewBox="0 0 9 9">
  <g fill="none" fill-rule="evenodd">
    <rect width="9" height="9"/>
    <path fill="#FF00FF" fill-rule="nonzero" d="M1,1.9973917 L1,7.0026083 C1,7.55253175 1.44722156,8 1.9973917,8 L7.0026083,8 C7.55253175,8 8,7.55277844 8,7.0026083 L8,1.9973917 C8,1.44746825 7.55277844,1 7.0026083,1 L1.9973917,1 C1.44746825,1 1,1.44722156 1,1.9973917 Z M0,1.9973917 C0,0.894262725 0.895857811,0 1.9973917,0 L7.0026083,0 C8.10573727,0 9,0.895857811 9,1.9973917 L9,7.0026083 C9,8.10573727 8.10414219,9 7.0026083,9 L1.9973917,9 C0.894262725,9 0,8.10414219 0,7.0026083 L0,1.9973917 Z M7,4 L2,4 L2,5 L7,5 L7,4 Z"/>
  </g>
</svg>
