<svg xmlns="http://www.w3.org/2000/svg" width="16" height="16" viewBox="0 0 16 16">
  <g fill="none" fill-rule="evenodd">
    <rect width="16" height="16"/>
    <path fill="#F25335" fill-rule="nonzero" d="M1,7.5 C1,3.35786438 4.35786438,-7.6089797e-16 8.5,0 C12.6421356,7.6089797e-16 16,3.35786438 16,7.5 C16,11.6421356 12.6421356,15 8.5,15 C4.35786438,15 1,11.6421356 1,7.5 Z M2,7.5 C2,11.0898509 4.91014913,14 8.5,14 C12.0898509,14 15,11.0898509 15,7.5 C15,3.91014913 12.0898509,1 8.5,1 C4.91014913,1 2,3.91014913 2,7.5 Z M9,3.33977723 L9,8.66022277 C9,8.85168457 8.77614237,9 8.5,9 C8.23193359,9 8,8.84787655 8,8.66022277 L8,3.33977723 C8,3.14831543 8.22385763,3 8.5,3 C8.76806641,3 9,3.15212345 9,3.33977723 Z M8.5,12 C7.94771525,12 7.5,11.5522847 7.5,11 C7.5,10.4477153 7.94771525,10 8.5,10 C9.05228475,10 9.5,10.4477153 9.5,11 C9.5,11.5522847 9.05228475,12 8.5,12 Z"/>
  </g>
</svg>
