<svg xmlns="http://www.w3.org/2000/svg" width="9" height="9" viewBox="0 0 9 9">
  <g fill="none" fill-rule="evenodd">
    <rect width="9" height="9"/>
    <path fill="#FF00FF" fill-rule="nonzero" d="M1,1.9973917 L1,7.0026083 C1,7.55253175 1.44722156,8 1.9973917,8 L7.0026083,8 C7.55253175,8 8,7.55277844 8,7.0026083 L8,1.9973917 C8,1.44746825 7.55277844,1 7.0026083,1 L1.9973917,1 C1.44746825,1 1,1.44722156 1,1.9973917 Z M0,1.9973917 C0,0.894262725 0.895857811,0 1.9973917,0 L7.0026083,0 C8.10573727,0 9,0.895857811 9,1.9973917 L9,7.0026083 C9,8.10573727 8.10414219,9 7.0026083,9 L1.9973917,9 C0.894262725,9 0,8.10414219 0,7.0026083 L0,1.9973917 Z M4.11051142,6.54291794 L7.22087167,3.62070858 C7.424509,3.42938961 7.43419143,3.11355481 7.24215477,2.91559426 L7.00377974,2.66986592 C6.81872238,2.47909997 6.4908015,2.46599041 6.28693665,2.65665448 L4.11064514,4.6920255 C3.89821413,4.89070106 3.57688329,4.88259377 3.37379955,4.69181152 L2.70967949,4.06791954 C2.50251019,3.87329921 2.18152001,3.8753498 1.9836025,4.06392706 L1.76652391,4.27076114 C1.57081833,4.45723086 1.57139343,4.77152593 1.77274891,4.96805149 L3.37692884,6.53375196 C3.5884174,6.74016755 3.90672043,6.73438128 4.11051142,6.54291794 Z"/>
  </g>
</svg>
