<svg xmlns="http://www.w3.org/2000/svg" width="9" height="9" viewBox="0 0 9 9">
  <g fill="none" fill-rule="evenodd">
    <rect width="9" height="9"/>
    <path fill="#FF00FF" d="M4.11051142,6.54291794 C3.90672043,6.73438128 3.5884174,6.74016755 3.37692884,6.53375196 L1.77274891,4.96805149 C1.57139343,4.77152593 1.57081833,4.45723086 1.76652391,4.27076114 L1.9836025,4.06392706 C2.18152001,3.8753498 2.50251019,3.87329921 2.70967949,4.06791954 L3.37379955,4.69181152 C3.57688329,4.88259377 3.89821413,4.89070106 4.11064514,4.6920255 L6.28693665,2.65665448 C6.4908015,2.46599041 6.81872238,2.47909997 7.00377974,2.66986592 L7.24215477,2.91559426 C7.43419143,3.11355481 7.424509,3.42938961 7.22087167,3.62070858 L4.11051142,6.54291794 Z"/>
    <path fill="#8EA6BB" fill-rule="nonzero" d="M1,8 L8,8 L8,1 L1,1 L1,8 Z M0,0 L9,0 L9,9 L0,9 L0,0 Z"/>
  </g>
</svg>
