<svg xmlns="http://www.w3.org/2000/svg" width="16" height="16" viewBox="0 0 16 16">
  <g fill="none" fill-rule="evenodd">
    <rect width="16" height="16"/>
    <path fill="#FF00FF" fill-rule="nonzero" d="M4.62339997,8.94741165 C4.35909518,9.95595411 3.44144125,10.7000083 2.35000415,10.7000083 C1.0521327,10.7000083 4.26325641e-14,9.64787561 4.26325641e-14,8.35000415 C4.26325641e-14,7.0521327 1.0521327,6 2.35000415,6 C3.48691639,6 4.43526227,6.80734848 4.65299971,7.88000332 L5.70699036,7.88000332 C5.92472774,6.80734848 6.8730736,6 8.00998587,6 C9.30785735,6 10.35999,7.0521327 10.35999,8.35000415 C10.35999,9.64787561 9.30785735,10.7000083 8.00998587,10.7000083 C6.8730736,10.7000083 5.92472774,9.89265983 5.70699036,8.82000499 L4.65299971,8.82000499 C4.63603435,8.89438132 4.62616777,8.93685021 4.62339997,8.94741165 Z M10.2930097,7.88000332 L11.3470003,7.88000332 C11.5647377,6.80734848 12.5130836,6 13.6499958,6 C14.9478673,6 16,7.0521327 16,8.35000415 C16,9.64787561 14.9478673,10.7000083 13.6499958,10.7000083 C12.5130836,10.7000083 11.5647377,9.89265983 11.3470003,8.82000499 L10.2930097,8.82000499 L10.2930097,7.88000332 Z M2.35000415,9.76000665 C3.12872702,9.76000665 3.76000665,9.12872702 3.76000665,8.35000415 C3.76000665,7.57128129 3.12872702,6.94000166 2.35000415,6.94000166 C1.57128129,6.94000166 0.940001662,7.57128129 0.940001662,8.35000415 C0.940001662,9.12872702 1.57128129,9.76000665 2.35000415,9.76000665 Z M8.00998587,9.76000665 C8.78870873,9.76000665 9.41998837,9.12872702 9.41998837,8.35000415 C9.41998837,7.57128129 8.78870873,6.94000166 8.00998587,6.94000166 C7.23126302,6.94000166 6.59998338,7.57128129 6.59998338,8.35000415 C6.59998338,9.12872702 7.23126302,9.76000665 8.00998587,9.76000665 Z M13.6499958,9.76000665 C14.4287187,9.76000665 15.0599983,9.12872702 15.0599983,8.35000415 C15.0599983,7.57128129 14.4287187,6.94000166 13.6499958,6.94000166 C12.871273,6.94000166 12.2399934,7.57128129 12.2399934,8.35000415 C12.2399934,9.12872702 12.871273,9.76000665 13.6499958,9.76000665 Z"/>
  </g>
</svg>
