<?xml version="1.0" encoding="UTF-8"?>
<svg width="16px" height="16px" viewBox="0 0 16 16" version="1.1" xmlns="http://www.w3.org/2000/svg" xmlns:xlink="http://www.w3.org/1999/xlink">
    <title>mainmenuinfo</title>
    <g id="mainmenuinfo" stroke="none" stroke-width="1" fill="none" fill-rule="evenodd">
        <rect id="Rectangle" x="0" y="0" width="16" height="16"></rect>
        <g id="Group" transform="translate(1.000000, 1.000000)" fill="#FF00FF">
            <path d="M7,0 C10.866,0 14,3.134008 14,7 C14,10.866 10.866,14 7,14 C3.134008,14 0,10.866 0,7 C0,3.134008 3.134008,0 7,0 Z M8.16666667,6.15822345 L5.83333333,6.15822345 L5.83333333,11.6026679 L8.16666667,11.6026679 L8.16666667,6.15822345 Z M7,2.26933456 C6.24827778,2.26933456 5.63888889,2.87872345 5.63888889,3.63044567 C5.63888889,4.38216789 6.24827778,4.99155678 7,4.99155678 C7.75172222,4.99155678 8.36111111,4.38216789 8.36111111,3.63044567 C8.36111111,2.87872345 7.75172222,2.26933456 7,2.26933456 Z" id="Combined-Shape"></path>
        </g>
    </g>
</svg>