<svg xmlns="http://www.w3.org/2000/svg" width="16" height="16" viewBox="0 0 16 16">
  <g fill="none" fill-rule="evenodd">
    <rect width="16" height="16"/>
    <path fill="#000000" d="M2.82352941,10.3593835 C3.89752486,10.5765415 4.70588235,11.5223635 4.70588235,12.65625 C4.70588235,13.9506674 3.65243471,15 2.35294118,15 C1.05344765,15 0,13.9506674 0,12.65625 C0,11.5223635 0.808357496,10.5765415 1.88235294,10.3593835 L1.88235294,8.88962583 C1.88235294,7.60438972 2.92552724,6.5625 4.21251764,6.5625 L7.52941176,6.5625 L7.52941176,4.64061651 C6.45541632,4.42345854 5.64705882,3.47763652 5.64705882,2.34375 C5.64705882,1.04933262 6.70050647,0 8,0 C9.29949353,0 10.3529412,1.04933262 10.3529412,2.34375 C10.3529412,3.47763652 9.54458368,4.42345854 8.47058824,4.64061651 L8.47058824,6.5625 L11.7874824,6.5625 C13.0743968,6.5625 14.1176471,7.59542929 14.1176471,8.88962583 L14.1176471,10.3593835 C15.1916425,10.5765415 16,11.5223635 16,12.65625 C16,13.9506674 14.9465524,15 13.6470588,15 C12.3475653,15 11.2941176,13.9506674 11.2941176,12.65625 C11.2941176,11.5223635 12.1024751,10.5765415 13.1764706,10.3593835 L13.1764706,8.90514443 C13.1764706,8.12910459 12.5444323,7.5 11.7586461,7.5 L8.47058824,7.5 L8.47058824,10.3593835 C9.54458368,10.5765415 10.3529412,11.5223635 10.3529412,12.65625 C10.3529412,13.9506674 9.29949353,15 8,15 C6.70050647,15 5.64705882,13.9506674 5.64705882,12.65625 C5.64705882,11.5223635 6.45541632,10.5765415 7.52941176,10.3593835 L7.52941176,7.5 L4.24135392,7.5 C3.45831107,7.5 2.82352941,8.13049625 2.82352941,8.90514443 L2.82352941,10.3593835 L2.82352941,10.3593835 Z M8,3.75 C8.77969612,3.75 9.41176471,3.12040043 9.41176471,2.34375 C9.41176471,1.56709957 8.77969612,0.9375 8,0.9375 C7.22030388,0.9375 6.58823529,1.56709957 6.58823529,2.34375 C6.58823529,3.12040043 7.22030388,3.75 8,3.75 Z M8,14.0625 C8.77969612,14.0625 9.41176471,13.4329004 9.41176471,12.65625 C9.41176471,11.8795996 8.77969612,11.25 8,11.25 C7.22030388,11.25 6.58823529,11.8795996 6.58823529,12.65625 C6.58823529,13.4329004 7.22030388,14.0625 8,14.0625 Z M13.6470588,14.0625 C14.4267549,14.0625 15.0588235,13.4329004 15.0588235,12.65625 C15.0588235,11.8795996 14.4267549,11.25 13.6470588,11.25 C12.8673627,11.25 12.2352941,11.8795996 12.2352941,12.65625 C12.2352941,13.4329004 12.8673627,14.0625 13.6470588,14.0625 Z M2.35294118,14.0625 C3.13263729,14.0625 3.76470588,13.4329004 3.76470588,12.65625 C3.76470588,11.8795996 3.13263729,11.25 2.35294118,11.25 C1.57324506,11.25 0.941176471,11.8795996 0.941176471,12.65625 C0.941176471,13.4329004 1.57324506,14.0625 2.35294118,14.0625 Z"/>
  </g>
</svg>
