<svg xmlns="http://www.w3.org/2000/svg" width="16" height="16" viewBox="0 0 16 16">
  <g fill="none" fill-rule="evenodd">
    <rect width="16" height="16"/>
    <path fill="#000000" d="M0,8 C0,4.6862915 2.67804027,2 6.00333095,2 L9.99666905,2 C13.3122172,2 16,4.69303423 16,8 C16,11.3137085 13.3219597,14 9.99666905,14 L6.00333095,14 C2.68778282,14 0,11.3069658 0,8 Z M1,8 C1,10.7558048 3.23635069,13 5.99502908,13 L10.0049709,13 C12.7661779,13 15,10.7614237 15,8 C15,5.24419519 12.7636493,3 10.0049709,3 L5.99502908,3 C3.23382212,3 1,5.23857625 1,8 Z M2,8 C2,5.790861 3.79652125,4 5.99582624,4 L10.0041738,4 C12.2110077,4 14,5.79535615 14,8 C14,10.209139 12.2034788,12 10.0041738,12 L5.99582624,12 C3.78899235,12 2,10.2046438 2,8 Z M3,8 C3,9.65348288 4.34329338,11 6.00032973,11 L9.99967027,11 C11.6513555,11 13,9.65685425 13,8 C13,6.34651712 11.6567066,5 9.99967027,5 L6.00032973,5 C4.3486445,5 3,6.34314575 3,8 Z"/>
  </g>
</svg>
