<svg xmlns="http://www.w3.org/2000/svg" width="16" height="16" viewBox="0 0 16 16">
  <g fill="none" fill-rule="evenodd">
    <rect width="16" height="16"/>
    <path fill="#FF00FF" d="M11.0519435,12.0094362 C10.6655451,11.9085781 10.2284405,11.7430223 9.78837983,11.4900663 C8.56671985,10.7878309 7.81876628,9.63775558 7.81876628,8 C7.81876628,6.76825894 7.18729308,5.96201897 6.08589404,5.45623046 C5.72073436,5.28854049 5.32755801,5.16679724 4.9312355,5.08477249 C4.66795053,6.18339192 3.67933978,7 2.5,7 C1.11928813,7 0,5.88071187 0,4.5 C0,3.11928813 1.11928813,2 2.5,2 C3.70947896,2 4.71835578,2.85887984 4.94999094,4 L11.0500091,4 C11.2816442,2.85887984 12.290521,2 13.5,2 C14.8807119,2 16,3.11928813 16,4.5 C16,5.88071187 14.8807119,7 13.5,7 C12.290521,7 11.2816442,6.14112016 11.0500091,5 L7.29450531,5 C8.25199329,5.67899378 8.81876628,6.6694073 8.81876628,8 C8.81876628,9.25826086 9.35990572,10.0903327 10.2867341,10.6230929 C10.5323563,10.7642816 10.7930974,10.8763807 11.057965,10.9623065 C11.3039468,9.84001865 12.303875,9 13.5,9 C14.8807119,9 16,10.1192881 16,11.5 C16,12.8807119 14.8807119,14 13.5,14 C12.2938572,14 11.2872113,13.1458517 11.0519435,12.0094362 L11.0519435,12.0094362 Z M13.5,13 C14.3284271,13 15,12.3284271 15,11.5 C15,10.6715729 14.3284271,10 13.5,10 C12.6715729,10 12,10.6715729 12,11.5 C12,12.3284271 12.6715729,13 13.5,13 Z M2.5,6 C3.32842712,6 4,5.32842712 4,4.5 C4,3.67157288 3.32842712,3 2.5,3 C1.67157288,3 1,3.67157288 1,4.5 C1,5.32842712 1.67157288,6 2.5,6 Z M13.5,6 C14.3284271,6 15,5.32842712 15,4.5 C15,3.67157288 14.3284271,3 13.5,3 C12.6715729,3 12,3.67157288 12,4.5 C12,5.32842712 12.6715729,6 13.5,6 Z"/>
  </g>
</svg>
