<svg xmlns="http://www.w3.org/2000/svg" width="16" height="16" viewBox="0 0 16 16">
  <g fill="none" fill-rule="evenodd">
    <rect width="16" height="16"/>
    <path fill="#FF00FF" fill-rule="nonzero" d="M4.02242151,7 L7,7 L3.5,10.4747339 L0,7 L3.01894482,7 C3.27425725,3.64377614 6.07838512,1 9.5,1 C13.0898509,1 16,3.91014913 16,7.5 C16,11.0898509 13.0898509,14 9.5,14 C8.03003177,14 6.67403116,13.5120466 5.58513745,12.6892792 L6.18742399,11.8909285 C7.1087956,12.5871164 8.25618073,13 9.5,13 C12.5375661,13 15,10.5375661 15,7.5 C15,4.46243388 12.5375661,2 9.5,2 C6.63097872,2 4.2750359,4.19674999 4.02242151,7 Z M10,8.21132487 L12.3480762,9.5669873 C12.5872225,9.70505849 12.6691601,10.0108537 12.5310889,10.25 C12.3930177,10.4891463 12.0872225,10.5710839 11.8480762,10.4330127 L9.25,8.9330127 C9.10053095,8.84662649 9,8.68505337 9,8.5 L9,4.5 C9,4.22385763 9.22385763,4 9.5,4 C9.77614237,4 10,4.22385763 10,4.5 L10,8.21132487 Z"/>
  </g>
</svg>
