<svg xmlns="http://www.w3.org/2000/svg" width="16" height="16" viewBox="0 0 16 16">
  <g fill="none" fill-rule="evenodd">
    <rect width="16" height="16"/>
    <path fill="#000000" fill-rule="nonzero" d="M8,15 C11.8659932,15 15,11.8659932 15,8 C15,4.13400675 11.8659932,1 8,1 C4.13400675,1 1,4.13400675 1,8 C1,11.8659932 4.13400675,15 8,15 Z M8,16 C3.581722,16 0,12.418278 0,8 C0,3.581722 3.581722,0 8,0 C12.418278,0 16,3.581722 16,8 C16,12.418278 12.418278,16 8,16 Z"/>
    <path fill="#000000" d="M4.93103448,12.2756425 C4.26460516,12.2756425 3.72435745,11.7353948 3.72435745,11.0689655 C3.72435745,10.4025362 4.26460516,9.86228849 4.93103448,9.86228849 C5.5974638,9.86228849 6.13771151,10.4025362 6.13771151,11.0689655 C6.13771151,11.7353948 5.5974638,12.2756425 4.93103448,12.2756425 Z M13.0649416,11.7096774 C13.0649416,11.8700182 12.7767245,12.2003704 12.4912596,12.2003704 C12.2057946,12.2003704 12.0029729,11.8700182 12.0029729,11.7096774 C12.0029729,7.22013687 8.61504026,3.75659718 4.28031146,3.75659718 C4.12549971,3.75659718 3.8036241,3.48302744 3.8036241,3.17774754 C3.8036241,2.87246763 4.12549971,2.58664594 4.28031146,2.58664594 C9.32382202,2.58664594 13.0649416,6.41751099 13.0649416,11.7096774 Z M9.67033459,11.7096774 C9.67033459,11.871554 9.44612532,12.2003704 9.07403975,12.2003704 C8.70195417,12.2003704 8.54477205,11.871554 8.54477205,11.7096774 C8.54477205,9.28152895 6.70845993,7.47726755 4.28031146,7.47726755 C4.11843489,7.47726755 3.73908886,7.23323802 3.73908886,6.90814316 C3.73908886,6.58304831 4.11843489,6.35889443 4.28031146,6.35889443 C7.35462403,6.35889443 9.67033459,8.6513178 9.67033459,11.7096774 Z"/>
  </g>
</svg>
