<svg xmlns="http://www.w3.org/2000/svg" width="16" height="16" viewBox="0 0 16 16">
  <g fill="none" fill-rule="evenodd">
    <rect width="16" height="16"/>
    <path fill="#000000" d="M7,3.73243561 C6.40219863,3.38662619 6,2.74028236 6,2 C6,0.8954305 6.8954305,0 8,0 C9.1045695,0 10,0.8954305 10,2 C10,2.74028236 9.59780137,3.38662619 9,3.73243561 L9,7 L13.0020869,7 C14.1055038,7 15,7.8935705 15,8.99144023 L15,12.2675644 C15.5978014,12.6133738 16,13.2597176 16,14 C16,15.1045695 15.1045695,16 14,16 C12.8954305,16 12,15.1045695 12,14 C12,13.2597176 12.4021986,12.6133738 13,12.2675644 L13,9.4962727 C13,9.22218886 12.7849426,9 12.5095215,9 L9,9 L9,12.2675644 C9.59780137,12.6133738 10,13.2597176 10,14 C10,15.1045695 9.1045695,16 8,16 C6.8954305,16 6,15.1045695 6,14 C6,13.2597176 6.40219863,12.6133738 7,12.2675644 L7,9 L3,9 L3,12.2675644 C3.59780137,12.6133738 4,13.2597176 4,14 C4,15.1045695 3.1045695,16 2,16 C0.8954305,16 0,15.1045695 0,14 C0,13.2597176 0.40219863,12.6133738 1,12.2675644 L1,8.99144023 C1,7.89159816 1.89826062,7 2.99791312,7 L7,7 L7,3.73243561 L7,3.73243561 Z M8,3 C8.55228475,3 9,2.55228475 9,2 C9,1.44771525 8.55228475,1 8,1 C7.44771525,1 7,1.44771525 7,2 C7,2.55228475 7.44771525,3 8,3 Z M8,15 C8.55228475,15 9,14.5522847 9,14 C9,13.4477153 8.55228475,13 8,13 C7.44771525,13 7,13.4477153 7,14 C7,14.5522847 7.44771525,15 8,15 Z M2,15 C2.55228475,15 3,14.5522847 3,14 C3,13.4477153 2.55228475,13 2,13 C1.44771525,13 1,13.4477153 1,14 C1,14.5522847 1.44771525,15 2,15 Z M14,15 C14.5522847,15 15,14.5522847 15,14 C15,13.4477153 14.5522847,13 14,13 C13.4477153,13 13,13.4477153 13,14 C13,14.5522847 13.4477153,15 14,15 Z"/>
  </g>
</svg>
