<svg xmlns="http://www.w3.org/2000/svg" width="16" height="16" viewBox="0 0 16 16">
  <g fill="none" fill-rule="evenodd">
    <rect width="16" height="16"/>
    <g transform="translate(0 1)">
      <path stroke="#FF00FF" d="M12.5,7.5 L13,7.5 L12.5,7 L12.5,8 L13,7.5 L12.5,7.5 Z M9.5,3 L9.5,1 L9,1.5 L10,1.5 L9.5,1 L9.5,3 Z M8.5,12.5 L9,12.5 L8.5,12 L8.5,13 L9,12.5 L8.5,12.5 Z M5.5,5.5 L5.5,1 L5,1.5 L6,1.5 L5.5,1 L5.5,5.5 Z"/>
      <path fill="#FF00FF" d="M2.91464715,1 L4.08535285,1 C4.29127106,0.417403814 4.84689059,0 5.5,0 C6.15310941,0 6.70872894,0.417403814 6.91464715,1 L8.08535285,1 C8.29127106,0.417403814 8.84689059,0 9.5,0 C10.1531094,0 10.7087289,0.417403814 10.9146471,1 L12.0853529,1 C12.2912711,0.417403814 12.8468906,0 13.5,0 C14.3284271,0 15,0.671572875 15,1.5 C15,2.32842712 14.3284271,3 13.5,3 C12.8468906,3 12.2912711,2.58259619 12.0853529,2 L10.9146471,2 C10.7087289,2.58259619 10.1531094,3 9.5,3 C8.84689059,3 8.29127106,2.58259619 8.08535285,2 L6.91464715,2 C6.70872894,2.58259619 6.15310941,3 5.5,3 C4.84689059,3 4.29127106,2.58259619 4.08535285,2 L2.91464715,2 C2.70872894,2.58259619 2.15310941,3 1.5,3 C0.671572875,3 0,2.32842712 0,1.5 C0,0.671572875 0.671572875,0 1.5,0 C2.15310941,0 2.70872894,0.417403814 2.91464715,1 Z M9.5,14 C8.67157288,14 8,13.3284271 8,12.5 C8,11.6715729 8.67157288,11 9.5,11 C10.3284271,11 11,11.6715729 11,12.5 C11,13.3284271 10.3284271,14 9.5,14 Z M13.5,9 C12.6715729,9 12,8.32842712 12,7.5 C12,6.67157288 12.6715729,6 13.5,6 C14.3284271,6 15,6.67157288 15,7.5 C15,8.32842712 14.3284271,9 13.5,9 Z"/>
    </g>
  </g>
</svg>
