<svg xmlns="http://www.w3.org/2000/svg" width="337" height="406" viewBox="0 0 337 406" xmlns:xlink="http://www.w3.org/1999/xlink">
  <defs>
    <path id="a" d="M28.1144985,0.480259089 C28.1144985,0.480259089 11.5545222,20.4258607 4.66242554,39.7157408 C-2.22967113,59.0056209 4.66242554,82.9980243 4.66242554,82.9980243 C4.66242554,82.9980243 -4.09633238,89.6461818 2.39591217,91.55173 C8.88815672,93.4570687 10.895807,89.9478185 10.895807,89.9478185 C10.895807,89.9478185 10.6475907,97.8840067 17.1291885,97.4321801 C23.6107862,96.9803534 23.3625699,92.0862973 23.3625699,92.0862973 C23.3625699,92.0862973 23.8525309,97.9351174 29.5957426,97.4321801 C35.3389543,96.9292427 35.2623392,92.6208646 35.2623392,92.6208646 C35.2623392,92.6208646 38.374124,98.8343719 44.3290189,96.3630454 C50.2841225,93.8917189 43.5311361,87.0617415 44.3290189,78.7212762 C45.1269018,70.380811 47.8428766,69.2817222 51.1289765,66.4255993 C54.4152852,63.5694765 56.2289969,58.4066705 56.2289969,58.4066705 L28.1144985,0.480259089 Z"/>
    <path id="b" d="M50.7094242,83.8199217 C50.7094242,83.8199217 50.1381899,96.2141359 50.7094242,106.15854 C51.2806585,116.102945 50.9321515,127.336219 62.5629865,131.292017 C80.805363,137.417903 87.610079,117.901914 103.496159,118.837578 C119.382239,119.773241 120.239631,134.535048 138.655721,131.696989 C153.304425,129.439513 150.609924,117.183588 150.609924,109.251041 C150.609924,101.318494 147.31866,85.5037546 147.31866,85.5037546 L50.7094242,83.8199217 Z"/>
    <path id="c" d="M35.3985188,7.78165727 C35.3985188,7.78165727 18.8385425,27.7272589 11.9464459,47.017139 C5.0543492,66.3070191 11.9464459,90.2994225 11.9464459,90.2994225 C11.9464459,90.2994225 3.18768795,96.94758 9.6799325,98.8531282 C16.1721771,100.758467 18.1798273,97.2492167 18.1798273,97.2492167 C18.1798273,97.2492167 17.931611,105.185405 24.4132088,104.733578 C30.8948065,104.281752 30.6465902,99.3876955 30.6465902,99.3876955 C30.6465902,99.3876955 31.1365513,105.236516 36.8797629,104.733578 C42.6229746,104.230641 42.5463595,99.9222628 42.5463595,99.9222628 C42.5463595,99.9222628 45.6581444,106.13577 51.6130392,103.664444 C57.5681429,101.193117 50.8151564,94.3631397 51.6130392,86.0226744 C52.4109221,77.6822092 55.1268969,76.5831203 58.4129968,73.7269975 C61.6993055,70.8708746 63.5130172,65.7080686 63.5130172,65.7080686 L35.3985188,7.78165727 Z"/>
    <path id="d" d="M28.1144985,0.480259089 C28.1144985,0.480259089 11.5545222,20.4258607 4.66242554,39.7157408 C-2.22967113,59.0056209 4.66242554,82.9980243 4.66242554,82.9980243 C4.66242554,82.9980243 -4.09633238,89.6461818 2.39591217,91.55173 C8.88815672,93.4570687 10.895807,89.9478185 10.895807,89.9478185 C10.895807,89.9478185 10.6475907,97.8840067 17.1291885,97.4321801 C23.6107862,96.9803534 23.3625699,92.0862973 23.3625699,92.0862973 C23.3625699,92.0862973 23.8525309,97.9351174 29.5957426,97.4321801 C35.3389543,96.9292427 35.2623392,92.6208646 35.2623392,92.6208646 C35.2623392,92.6208646 38.374124,98.8343719 44.3290189,96.3630454 C50.2841225,93.8917189 43.5311361,87.0617415 44.3290189,78.7212762 C45.1269018,70.380811 47.8428766,69.2817222 51.1289765,66.4255993 C54.4152852,63.5694765 56.2289969,58.4066705 56.2289969,58.4066705 L28.1144985,0.480259089 Z"/>
    <path id="e" d="M55.1209286,21.5433023 C56.5279748,20.0311387 102.89954,19.9831701 105.467921,21.2766471 C134.493362,31.5461211 155.317854,59.323513 155.317854,91.942803 C155.317854,133.284841 121.866898,160.331651 80.6650791,160.331651 C39.4630518,160.331651 6.01230403,133.284841 6.01230403,91.942803 C6.01230403,91.4936994 6.01627048,91.0454337 6.02420338,90.5982153 L2.00410134,91.942803 L6.99201732,79.7880993 C7.24211247,78.2526845 7.53876122,76.73298 7.88050225,75.2306615 L0,77.8664219 C0,77.8664219 4.70588047,68.1401035 9.01845605,61.7791293 C11.5070906,58.1079589 15.2950509,51.9750975 18.0538217,49.1451584 C26.815711,35.6387451 39.7993651,27.1485089 55.1209286,21.5433023 Z"/>
    <filter id="f" width="126.2%" height="134.5%" x="-13.1%" y="-17.3%" filterUnits="objectBoundingBox">
      <feGaussianBlur stdDeviation="1.601" in="SourceGraphic"/>
    </filter>
    <path id="g" d="M54.4937707,1.04305688 C83.1256986,1.17565137 106.275157,11.1839164 106.275157,23.492371 C106.275157,35.8831473 82.8146454,45.9429419 53.9180091,45.9429419 C25.0211641,45.9429419 1.5608615,35.8831473 1.5608615,23.492371 C1.5608615,13.5241147 16.7440168,5.06467057 37.7265403,2.13774687 C38.8235771,3.68195939 40.4752906,5.61620496 42.6449391,7.07453479 C46.8957215,9.93191446 56.1726231,13.6099974 56.1726231,13.6099974 C56.1726231,13.6099974 52.5168083,10.0123509 52.6654458,6.069079 C52.740182,4.08267541 53.629502,2.31160694 54.4937707,1.04305688 Z"/>
    <filter id="h" width="105%" height="107.7%" x="-2.5%" y="-3.9%" filterUnits="objectBoundingBox">
      <feGaussianBlur stdDeviation=".534" in="SourceGraphic"/>
    </filter>
    <path id="i" d="M75.2447774,4.55979459 C88.7123384,0.873123368 96.287424,-3.12251604 96.1970307,3.73071251 C96.1181192,9.69557897 74.6447996,28.6157433 48.0985984,28.6157433 C21.5521885,28.6157433 -0.0691423393,10.7012442 0.000166165504,4.73616829 C0.068222107,-1.14281549 7.71679138,2.23404967 21.3327812,5.30487922 C23.1846961,8.88995752 25.639929,12.9566072 26.9442649,13.0311785 C28.1753259,13.101351 31.2539179,10.1828061 33.7648898,7.55416761 C38.1701551,8.13104787 42.9578697,8.5066275 48.0985984,8.5066275 C53.1712712,8.5066275 57.9072132,8.06715953 62.274484,7.38805793 C64.8130124,10.0581715 67.9964021,13.1028173 69.2533494,13.0311785 C70.6491225,12.95158 73.3625922,8.30029959 75.2447774,4.55979459 Z"/>
    <path id="k" d="M0,11.8430124 C2.61556101,5.04613124 12.1928691,0 23.5934918,0 C32.569987,0 40.4160438,3.12822432 44.6236128,7.77615317 C36.8629391,11.5342536 27.4428277,14.3078453 17.2789025,14.3078453 C11.1931148,14.3078453 5.36619011,13.3662779 0,11.8430124 Z"/>
  </defs>
  <g fill="none" fill-rule="evenodd">
    <rect width="337" height="406"/>
    <g transform="translate(41 29)">
      <g stroke="#C0DFF8" stroke-width="2.7">
        <path d="M62.3155398,172.251628 L71.4024523,160.757948 L21.7013889,159.915028 L31.9445563,172.425582 L62.3155398,172.251628 Z" transform="matrix(1 0 0 -1 0 332.34)"/>
        <path d="M71.4024523,171.582662 C71.4024523,171.582662 72.4587674,204.215998 72.4587674,222.046101 C72.4587674,239.876204 71.4024523,287.204044 71.4024523,287.204044 L21.7013889,286.361124 C21.7013889,286.361124 19.4080946,244.439592 20.8951823,222.998863 C22.38227,201.558134 22.38227,171.582662 22.38227,171.582662 L71.4024523,171.582662 Z" transform="matrix(1 0 0 -1 0 458.787)"/>
        <polygon points="21.667 287.554 72.243 287.554 73.333 296.356 20.581 296.356"/>
        <path d="M62.2131192,99.7084698 L61.9027481,160.166865 L31.8421358,160.166865 L31.8421358,99.8824237 L62.2131192,99.7084698 Z M62.2131192,99.7084698 L72.3741499,87.2180731 L21.5642461,87.7014644 L31.8421358,99.8824237 L62.2131192,99.7084698 Z"/>
        <path d="M71.2633903 35.8422551L72.3741499 87.2180731 21.5642461 87.7014644 22.2396842 35.8422551 71.2633903 35.8422551zM46.2274274.139120642C50.1926609.139120642 62.0660334 7.62668723 65.6008385 16.7029777 69.1356436 25.7792682 71.1649831 35.6329961 71.1649831 35.6329961 71.1649831 35.6329961 21.8885849 35.7953262 22.151142 35.6329961 22.4136992 35.470666 21.2642363 27.1576182 28.248257 14.8139795 35.2322776 2.47034094 42.262194.139120642 46.2274274.139120642zM76.2462023 171.810466L89.8096032 171.810466C89.8096032 171.810466 87.0979818 155.798809 82.9389106 155.586288 78.7798394 155.373768 76.2462023 171.810466 76.2462023 171.810466zM76.5766059 171.924129L75.999349 286.619969 89.945204 287.267083C89.945204 287.267083 90.5366679 250.494968 90.5436198 230.859747 90.5505716 211.224526 89.945204 171.873983 89.945204 171.873983L76.5766059 171.924129zM75.9566156 286.807865L71.6666667 298.426981C71.6666667 298.426981 72.2056677 298.630521 72.6014245 298.600284 72.9971814 298.570047 78.7583305 297.918924 83.2943229 297.946227 88.9037974 297.979992 93.7536648 298.563539 93.6551131 298.351055 93.4547576 297.919075 90.0161714 287.64646 89.8376281 287.600044 89.6590847 287.553628 75.9566156 286.807865 75.9566156 286.807865z"/>
        <path d="M4.35706343,171.810466 L17.9204644,171.810466 C17.9204644,171.810466 15.2088429,155.798809 11.0497718,155.586288 C6.89070059,155.373768 4.35706343,171.810466 4.35706343,171.810466 Z" transform="matrix(-1 0 0 1 22.278 0)"/>
        <path d="M4.2002444,171.924129 L3.62298746,286.619969 L17.5688425,287.267083 C17.5688425,287.267083 18.1603064,250.494968 18.1672583,230.859747 C18.1742101,211.224526 17.5688425,171.873983 17.5688425,171.873983 L4.2002444,171.924129 Z" transform="matrix(-1 0 0 1 21.79 0)"/>
        <path d="M4.80002632,286.807865 L0.510077355,298.426981 C0.510077355,298.426981 1.04907835,298.630521 1.44483523,298.600284 C1.84059212,298.570047 7.60174124,297.918924 12.1377336,297.946227 C17.7472081,297.979992 22.5970754,298.563539 22.4985238,298.351055 C22.2981683,297.919075 18.8595821,287.64646 18.6810388,287.600044 C18.5024954,287.553628 4.80002632,286.807865 4.80002632,286.807865 Z" transform="matrix(-1 0 0 1 23.01 0)"/>
        <path d="M47.2425699 66.7535209C53.685892 66.7535209 59.4061984 62.8616646 59.4061984 56.5821289 59.4061984 50.3025932 53.685892 44.0133105 47.2425699 44.0133105 40.7992478 44.0133105 36.5665717 47.901726 35.1776828 54.1531825 33.7887939 60.4046391 40.7992478 66.7535209 47.2425699 66.7535209zM54.9670314 29.8788659C112.380407 31.2995095 92.9420812 27.5355534 124.831637 30.5564547L124.97933 38.1488666 54.1666667 32.9899585 54.9670314 29.8788659z"/>
        <path d="M54.9670314,120.83571 C112.380407,122.256354 92.9420812,118.492398 124.831637,121.513299 L124.97933,129.105711 L54.1666667,123.946803 L54.9670314,120.83571 Z" transform="matrix(1 0 0 -1 0 249.409)"/>
        <path d="M93.5460069 35.8782982C93.5460069 35.8782982 94.2556424 174.142942 94.0190972 193.392079 93.7825521 212.641217 94.0093316 309.34824 94.0093316 309.34824L102.606337 309.592759C102.606337 309.592759 100.403646 175.333059 101.504991 148.976651 102.606337 122.620242 102.055122 36.0712385 102.055122 36.0712385L93.5460069 35.8782982zM105.967882 36.0712385C105.967882 36.0712385 105.967882 122.168457 106.220703 173.856397 106.473524 225.544337 106.220703 309.149569 106.220703 309.149569M122.233073 36.526845C122.233073 36.526845 119.967448 115.009608 121.749132 179.614996 123.530816 244.220385 122.380642 266.761924 122.064887 276.1329 121.749132 285.503877 122.941623 309.376895 122.941623 309.376895"/>
        <path d="M105.480345,36.6777587 C105.480345,36.6777587 113.291643,41.5774489 116.378897,43.9247596 C119.466152,46.2720702 122.941623,49.9539709 122.941623,49.9539709"/>
        <path d="M105.480345,36.6777587 C105.480345,36.6777587 112.84669,42.3351226 115.933944,44.6824332 C119.021199,47.0297439 122.941623,49.9539709 122.941623,49.9539709" transform="matrix(-1 0 0 1 228.422 0)"/>
        <path d="M105.480345,61.6186347 C105.480345,61.6186347 113.291643,67.0340817 116.378897,69.6284777 C119.466152,72.2228737 122.941623,76.2923428 122.941623,76.2923428"/>
        <path d="M105.480345,61.6186347 C105.480345,61.6186347 112.84669,67.8715105 115.933944,70.4659065 C119.021199,73.0603024 122.941623,76.2923428 122.941623,76.2923428" transform="matrix(-1 0 0 1 228.422 0)"/>
        <path d="M105.480345,129.839266 C105.480345,129.839266 113.291643,135.254713 116.378897,137.849109 C119.466152,140.443505 122.941623,144.512974 122.941623,144.512974"/>
        <path d="M105.480345,129.839266 C105.480345,129.839266 112.84669,136.092142 115.933944,138.686538 C119.021199,141.280934 122.941623,144.512974 122.941623,144.512974" transform="matrix(-1 0 0 1 228.422 0)"/>
        <path d="M105.480345,267.014084 C105.480345,267.014084 113.291643,272.429531 116.378897,275.023927 C119.466152,277.618323 122.941623,281.687792 122.941623,281.687792"/>
        <path d="M105.480345,267.014084 C105.480345,267.014084 112.84669,273.266959 115.933944,275.861355 C119.021199,278.455751 122.941623,281.687792 122.941623,281.687792" transform="matrix(-1 0 0 1 228.422 0)"/>
        <path d="M105.480345,90.9608417 C105.480345,90.9608417 113.291643,95.6026534 116.378897,97.8264214 C119.466152,100.050189 122.941623,103.538306 122.941623,103.538306"/>
        <path d="M105.480345,90.9608417 C105.480345,90.9608417 112.84669,96.3204495 115.933944,98.5442175 C119.021199,100.767985 122.941623,103.538306 122.941623,103.538306" transform="matrix(-1 0 0 1 228.422 0)"/>
        <path d="M105.480345,118.102383 C105.480345,118.102383 113.291643,122.744195 116.378897,124.967963 C119.466152,127.191731 122.941623,130.679847 122.941623,130.679847"/>
        <path d="M105.480345,118.102383 C105.480345,118.102383 112.84669,123.461991 115.933944,125.685759 C119.021199,127.909527 122.941623,130.679847 122.941623,130.679847" transform="matrix(-1 0 0 1 228.422 0)"/>
        <path d="M105.480345,159.181473 C105.480345,159.181473 113.291643,163.823285 116.378897,166.047053 C119.466152,168.270821 122.941623,171.758937 122.941623,171.758937"/>
        <path d="M105.480345,159.181473 C105.480345,159.181473 112.84669,164.541081 115.933944,166.764849 C119.021199,168.988617 122.941623,171.758937 122.941623,171.758937" transform="matrix(-1 0 0 1 228.422 0)"/>
        <path d="M105.480345,214.198111 C105.480345,214.198111 113.291643,218.839923 116.378897,221.063691 C119.466152,223.287459 122.941623,226.775575 122.941623,226.775575"/>
        <path d="M105.480345,214.198111 C105.480345,214.198111 112.84669,219.557719 115.933944,221.781487 C119.021199,224.005255 122.941623,226.775575 122.941623,226.775575" transform="matrix(-1 0 0 1 228.422 0)"/>
        <path d="M105.480345,254.543646 C105.480345,254.543646 113.291643,259.185457 116.378897,261.409225 C119.466152,263.632993 122.941623,267.12111 122.941623,267.12111"/>
        <path d="M105.480345,254.543646 C105.480345,254.543646 112.84669,259.903253 115.933944,262.127021 C119.021199,264.350789 122.941623,267.12111 122.941623,267.12111" transform="matrix(-1 0 0 1 228.422 0)"/>
        <path d="M105.480345,186.323014 C105.480345,186.323014 113.291643,190.964826 116.378897,193.188594 C119.466152,195.412362 122.941623,198.900479 122.941623,198.900479"/>
        <path d="M105.480345,186.323014 C105.480345,186.323014 110.547925,191.514155 113.635179,193.737923 C116.722434,195.961691 122.941623,198.900479 122.941623,198.900479" transform="matrix(-1 0 0 1 228.422 0)"/>
        <path d="M105.39171,226.668549 C105.39171,226.668549 113.203008,231.310361 116.290262,233.534129 C119.377516,235.757897 122.852988,239.246013 122.852988,239.246013" transform="matrix(-1 0 0 1 228.245 0)"/>
        <path d="M105.39171,226.668549 C105.39171,226.668549 110.45929,231.85969 113.546544,234.083458 C116.633798,236.307226 122.852988,239.246013 122.852988,239.246013"/>
        <path d="M105.39171,49.8817519 C105.39171,49.8817519 113.203008,54.2656852 116.290262,56.3659105 C119.377516,58.4661358 122.852988,61.760468 122.852988,61.760468" transform="matrix(-1 0 0 1 228.245 0)"/>
        <path d="M105.39171,49.8817519 C105.39171,49.8817519 112.758055,54.9436037 115.845309,57.043829 C118.932564,59.1440544 122.852988,61.760468 122.852988,61.760468"/>
        <path d="M105.39171,76.2897382 C105.39171,76.2897382 113.203008,81.9630636 116.290262,84.6810023 C119.377516,87.3989409 122.852988,91.6621943 122.852988,91.6621943" transform="matrix(-1 0 0 1 228.245 0)"/>
        <path d="M105.39171,76.2897382 C105.39171,76.2897382 112.758055,82.84037 115.845309,85.5583086 C118.932564,88.2762473 122.852988,91.6621943 122.852988,91.6621943"/>
        <path d="M105.39171,144.510369 C105.39171,144.510369 113.203008,150.183695 116.290262,152.901634 C119.377516,155.619572 122.852988,159.882826 122.852988,159.882826" transform="matrix(-1 0 0 1 228.245 0)"/>
        <path d="M105.39171,144.510369 C105.39171,144.510369 112.758055,151.061001 115.845309,153.77894 C118.932564,156.496879 122.852988,159.882826 122.852988,159.882826"/>
        <path d="M105.39171,281.685187 C105.39171,281.685187 113.203008,287.358513 116.290262,290.076451 C119.377516,292.79439 122.852988,297.057643 122.852988,297.057643" transform="matrix(-1 0 0 1 228.245 0)"/>
        <path d="M105.39171,281.685187 C105.39171,281.685187 112.758055,288.235819 115.845309,290.953758 C118.932564,293.671696 122.852988,297.057643 122.852988,297.057643"/>
        <path d="M105.373905,198.793452 C105.373905,198.793452 112.830144,204.466778 115.777068,207.184716 C118.723993,209.902655 122.041489,214.165909 122.041489,214.165909" transform="matrix(-1 0 0 1 227.415 0)"/>
        <path d="M105.373905 198.793452C105.373905 198.793452 112.405416 205.344084 115.352341 208.062023 118.299265 210.779961 122.041489 214.165909 122.041489 214.165909M105.458511 239.138987C105.458511 239.138987 112.91475 244.812312 115.861675 247.530251 118.808599 250.24819 122.126095 254.511443 122.126095 254.511443"/>
        <path d="M105.458511,239.138987 C105.458511,239.138987 112.490022,245.689619 115.436947,248.407557 C118.383872,251.125496 122.126095,254.511443 122.126095,254.511443" transform="matrix(-1 0 0 1 227.585 0)"/>
        <path d="M105.458511,296.356291 C105.458511,296.356291 112.91475,301.219141 115.861675,303.548803 C118.808599,305.878464 122.126095,309.532682 122.126095,309.532682"/>
        <path d="M105.458511,296.356291 C105.458511,296.356291 112.490022,301.971118 115.436947,304.30078 C118.383872,306.630441 122.126095,309.532682 122.126095,309.532682" transform="matrix(-1 0 0 1 227.585 0)"/>
        <path d="M105.39171,102.697724 C105.39171,102.697724 113.203008,108.37105 116.290262,111.088989 C119.377516,113.806927 122.852988,118.070181 122.852988,118.070181" transform="matrix(-1 0 0 1 228.245 0)"/>
        <path d="M105.39171,102.697724 C105.39171,102.697724 112.758055,109.248356 115.845309,111.966295 C118.932564,114.684234 122.852988,118.070181 122.852988,118.070181"/>
        <path d="M105.39171,171.651911 C105.39171,171.651911 113.203008,177.325236 116.290262,180.043175 C119.377516,182.761114 122.852988,187.024367 122.852988,187.024367" transform="matrix(-1 0 0 1 228.245 0)"/>
        <path d="M105.39171,171.651911 C105.39171,171.651911 112.758055,178.202543 115.845309,180.920481 C118.932564,183.63842 122.852988,187.024367 122.852988,187.024367"/>
      </g>
      <g transform="translate(40.465 125.118)">
        <g transform="translate(0 6.258)">
          <g transform="translate(0 91.789)">
            <g stroke-linecap="round" stroke-linejoin="round">
              <use fill="#FFFFFF" xlink:href="#a"/>
              <path stroke="#8EA6BB" stroke-width="1.601" d="M3.75203774,82.7006051 C3.64493861,82.7886195 3.53200057,82.883153 3.41417041,82.983768 C2.84878176,83.4665527 2.28332542,83.9923107 1.75329473,84.5454704 C0.90199064,85.4339229 0.222871942,86.3083085 -0.222941112,87.1540667 C-1.45143434,89.4846585 -0.761750085,91.4590796 2.1704961,92.3197275 C5.70445086,93.3568697 8.36615862,93.0000651 10.2193949,91.7259911 C10.3282135,92.4933738 10.5064086,93.2520881 10.7697223,93.9736688 C11.7973539,96.7897748 13.8904412,98.460288 17.1848483,98.2306377 C20.1458053,98.0242319 22.125587,96.9266846 23.2343885,95.2102042 C23.2933909,95.1188656 23.3493054,95.0266679 23.4022206,94.9337188 C23.441891,95.0105345 23.4831953,95.0875169 23.5261834,95.1645625 C24.7086298,97.2838057 26.7344051,98.4862079 29.6655666,98.2295239 C32.2744577,98.0010613 34.0580561,97.0170566 35.1027938,95.5054642 C35.3145973,95.1990135 35.4850361,94.892064 35.6200689,94.591663 C35.8219944,94.837967 36.047239,95.0907558 36.2960052,95.3436735 C38.5115229,97.5961646 41.3354904,98.4719674 44.6358179,97.1023065 C46.688466,96.2504718 47.6169958,94.8324587 47.6074399,92.8354683 C47.6009329,91.4756173 47.5239488,91.174316 46.3023109,87.0432398 C45.2742128,83.5666353 44.8864807,81.2989172 45.1257767,78.7974973 C45.6602095,73.2109399 46.8040488,71.0722313 49.792047,68.5792637 C49.9209786,68.4716926 50.0551881,68.3609453 50.233765,68.2144823 C50.4603296,68.028888 50.5900574,67.9226251 50.6922847,67.8386037 C51.0771894,67.5222475 51.3651276,67.2808117 51.654037,67.0297053 C52.6513741,66.1629221 53.5689311,65.0611147 54.411155,63.7790722 C55.144935,62.6621043 55.7822429,61.4701726 56.3222444,60.2785954 C56.5112526,59.8615263 56.6748519,59.4736983 56.8127257,59.1246205 C56.8965124,58.9124839 56.9537773,58.7584131 56.9841492,58.6719581 L57.0947031,58.357262 L56.9490625,58.0571877 L28.834564,0.130776341 L28.2921788,-0.986740651 L27.4986871,-0.0310226069 C27.4452193,0.0333765393 27.3433896,0.157401213 27.1964188,0.33852466 C26.9525882,0.639016133 26.6700658,0.991544156 26.3520722,1.39358322 C25.4447415,2.54072091 24.4342295,3.85553038 23.3462933,5.31782902 C20.2386223,9.49486011 17.1311107,14.0188659 14.2296856,18.7290906 C10.2151284,25.2463934 6.92265578,31.5948568 4.60272362,37.5833398 C4.36013281,38.2095438 4.12871854,38.8306293 3.9086951,39.4464399 C2.80687877,42.5302482 2.01254999,45.8373994 1.50159059,49.3363459 C0.235884753,58.0036432 0.738408381,67.2597375 2.34302905,76.2046578 C2.68085736,78.0878737 3.04297024,79.8032549 3.40538935,81.3177767 C3.5305372,81.84076 3.64703864,82.3030174 3.75203774,82.7006051 Z"/>
            </g>
            <path fill="#2273C6" d="M4.61294125,82.8961771 C4.61294125,82.8961771 4.73055028,81.34068 8.6658347,80.2263929 C17.7516799,77.6537099 30.4603819,78.2876368 42.1190726,84.305836 C45.4150613,86.0072206 45.8043494,88.0763953 45.8043494,88.0763953 L44.7656166,83.4142083 C44.7656166,83.4142083 42.6279354,80.8068644 41.3039625,80.2263929 C31.0024024,75.7098644 24.2513679,72.4272552 8.42086872,77.1132706 C5.40982002,78.0045767 3.65232043,79.5626003 3.65232043,79.5626003 L4.61294125,82.8961771 Z"/>
          </g>
          <g transform="translate(4.162 62.583)">
            <path fill="#C8EAFA" d="M107.239895,151.710142 C159.905424,151.710142 193.501943,140.036365 193.501943,131.194391 C193.501943,122.352417 159.905424,119.690523 107.239895,119.690523 C54.5743656,119.690523 11.8805188,126.858359 11.8805188,135.700332 C11.8805188,144.542306 54.5743656,151.710142 107.239895,151.710142 Z" transform="rotate(3 102.691 135.7)"/>
            <g stroke-linecap="round" stroke-linejoin="round">
              <use fill="#FFFFFF" xlink:href="#b"/>
              <path stroke="#2279CF" stroke-width="1.8" d="M49.8103785,83.7784857 C49.8023413,83.9528708 49.7883598,84.2822682 49.7704179,84.7495169 C49.7405587,85.5271208 49.7107098,86.4082141 49.682856,87.3756462 C49.5509916,91.9556331 49.5094248,96.6931671 49.6124931,101.122449 C49.6544265,102.924505 49.7198983,104.625846 49.8109053,106.210154 C49.8450034,106.803754 49.8717477,107.317351 49.9233932,108.347356 C49.98663,109.608538 50.0117316,110.091844 50.0502376,110.757496 C50.3796397,116.451855 50.9712766,120.053304 52.4135982,123.330892 C54.267814,127.544485 57.4231643,130.494527 62.2731878,132.144083 C67.1768087,133.790752 71.556133,133.758206 75.8615727,132.296355 C79.0882868,131.20077 81.4167282,129.825506 86.4304472,126.386917 C86.450319,126.373288 86.450319,126.373288 86.4701887,126.359661 C94.1681655,121.080137 97.8455564,119.406326 103.443242,119.736021 C109.067705,120.067292 112.292205,121.701043 117.957317,126.133816 C118.242351,126.356967 118.242351,126.356967 118.527912,126.580475 C125.698601,132.189176 130.1744,133.914649 138.792799,132.586489 C148.107691,131.150993 151.505391,126.041527 151.695128,117.242274 C151.723572,115.923151 151.696343,114.802174 151.606616,112.613981 C151.530847,110.766189 151.509924,110.115671 151.509924,109.251041 C151.509924,106.781887 151.20303,103.453332 150.651237,99.4677629 C150.420805,97.8033662 150.151853,96.0566182 149.852087,94.2549767 C149.49079,92.0835232 149.10379,89.9441429 148.716767,87.9290038 C148.581277,87.2235404 148.455434,86.5838588 148.342448,86.0215064 C148.274533,85.6834755 148.225906,85.4459153 148.199781,85.3203812 L148.053277,84.6164218 L147.334344,84.6038913 L50.7251082,82.9200583 L49.8506448,82.904817 L49.8103785,83.7784857 Z"/>
            </g>
            <path fill="#FFFFFF" stroke="#2279CF" stroke-width="1.8" d="M5.61461575,14.5017777 C6.27824439,6.49266705 13.323292,-1.42108547e-14 21.3677228,-1.42108547e-14 L173.594078,-1.42108547e-14 C181.63065,-1.42108547e-14 188.628777,6.49388246 189.22463,14.5017777 L193.747932,75.292188 C194.343875,83.3012987 188.310026,89.7939657 180.276149,89.7939657 L13.9267973,89.7939657 C5.89059397,89.7939657 -0.0859579796,83.3000832 0.577569953,75.292188 L5.61461575,14.5017777 Z" stroke-linecap="round" stroke-linejoin="round" transform="matrix(1 0 0 -1 0 89.794)"/>
            <path fill="#9ED4EC" d="M183.638859,0.439993257 C183.638859,0.439993257 186.771256,4.73985048 186.771256,12.2494344 C186.771256,19.7590183 186.171552,31.7587267 186.171552,31.7587267 L191.27912,42.3226983 L190.589113,50.3964743 C190.589113,50.3964743 185.288244,41.9097836 182.42899,37.788174 C179.569736,33.6665644 174.845012,28.3158078 174.845012,28.3158078 C174.845012,28.3158078 174.738595,19.1668225 173.427613,12.9851566 C172.116632,6.80349065 169.634691,0.526195315 169.634691,0.526195315 L183.638859,0.439993257 Z" style="mix-blend-mode:darken"/>
            <ellipse cx="114.025" cy="106.598" stroke="#C0CCD6" stroke-width="1.078" stroke-linecap="round" stroke-linejoin="round" rx="7.886" ry="8.029"/>
            <path fill="#2273C6" d="M50.3129274,97.7031242 L50.3129274,102.889788 C50.3129274,102.889788 73.2527603,115.729962 100.203042,115.729962 C127.153323,115.729962 149.811659,100.94238 149.811659,100.518235 C149.811659,100.094091 148.838829,93.5442134 148.838829,93.5442134 C148.838829,93.5442134 131.887351,110.408873 99.7303017,110.039972 C78.5175933,109.796623 50.3129274,97.7031242 50.3129274,97.7031242 Z"/>
            <path fill="#CAECF7" d="M50.8577111,88.7952264 C50.8577111,88.7952264 78.4290349,108.686203 97.1907597,108.686203 C115.952485,108.686203 122.619053,111.198354 126.193463,115.597527 C129.767872,119.9967 127.38032,131.60268 127.38032,131.60268 C127.38032,131.60268 138.142276,133.819092 141.306229,132.399702 C144.470182,130.980311 148.148722,127.435157 149.875222,123.569645 C151.601722,119.704133 151.601722,108.686203 151.601722,108.686203 L149.875222,83.7552268 C149.875222,83.7552268 126.480075,103.087156 95.8172619,103.087156 C65.1544489,103.087156 50.8577111,88.7952264 50.8577111,88.7952264 Z" style="mix-blend-mode:multiply"/>
            <g transform="rotate(-21 335.434 -238.169)">
              <path fill="#E0ECF6" stroke="#8EA6BB" stroke-width="1.078" d="M30.814734,11.8427782 C18.1227958,10.1524536 10.2430311,1.94039947 9.18034143,1.64946742 C8.21345676,0.683806547 6.85252036,0.082576622 5.34489482,0.082576622 C2.4110915,0.082576622 0.0327739947,2.35932799 0.0327739947,5.16784313 C0.0327739947,6.3261487 0.302539228,7.7946652 0.983746282,8.64965544 C0.983746282,8.64965544 14.2840198,20.7928823 27.0321414,22.0914616 C47.4822776,24.1746017 55.0035759,18.2822426 55.0212517,18.2822426 C55.0389274,18.2822426 59.4424673,15.7324717 59.4424673,12.77614 C59.4424673,9.81980822 57.3605375,7.57665359 54.2723234,7.57665359 C53.0117574,7.57665359 48.0772154,14.1418121 30.814734,11.8427782 Z" stroke-linecap="round" stroke-linejoin="round"/>
              <path fill="#8EA6BB" d="M1.40386733,8.53471471 C1.40386733,8.53471471 20.2708084,19.4673246 34.8724411,19.4673246 C49.4740737,19.4673246 54.2401944,16.4763693 55.0634351,13.7976848 C55.8866757,11.1190003 54.3327299,7.89397971 54.3327299,7.89397971 C54.3327299,7.89397971 57.1677141,7.73002368 58.3132024,9.84967516 C59.4586908,11.9693266 59.1499981,14.0177649 59.1499981,14.0177649 C59.1499981,14.0177649 53.5022599,23.8190599 32.7385217,22.5616956 C11.9747836,21.3043314 1.40386733,8.53471471 1.40386733,8.53471471 Z" opacity=".444" style="mix-blend-mode:multiply"/>
            </g>
          </g>
          <g transform="matrix(-1 0 0 1 213.838 84.488)">
            <g stroke-linecap="round" stroke-linejoin="round">
              <use fill="#FFFFFF" xlink:href="#c"/>
              <path stroke="#2279CF" stroke-width="1.8" d="M10.9234962,89.9657032 C10.8307442,90.0423782 10.73389,90.1237055 10.6335106,90.2094194 C10.0657562,90.6942242 9.49792564,91.2221897 8.96539637,91.777957 C8.10822065,92.6725374 7.4237782,93.5537775 6.97296626,94.4090191 C5.71646667,96.7927421 6.43068649,98.8374035 9.42646465,99.7166987 C12.9058249,100.737819 15.5558977,100.417016 17.4279446,99.1977402 C17.5391484,99.9182273 17.7122066,100.629688 17.9601731,101.309212 C19.00187,104.163862 21.1326377,105.864448 24.4757951,105.631399 C27.4670961,105.422878 29.4756816,104.309363 30.6020754,102.565649 C30.6292316,102.52361 30.6557444,102.481393 30.6816221,102.439008 C30.6953124,102.46416 30.7091786,102.489323 30.7232223,102.514493 C31.9239448,104.666491 33.9860062,105.890431 36.9582762,105.630147 C39.595928,105.399166 41.406666,104.400188 42.4687527,102.863494 C42.6505474,102.600462 42.8024183,102.337085 42.927999,102.077586 C43.1051124,102.287446 43.2987367,102.501131 43.5090139,102.714918 C45.7507244,104.994039 48.6160163,105.882657 51.9580176,104.495702 C54.0482535,103.628268 55.000812,102.17356 54.9910639,100.13639 C54.984488,98.7621627 54.9078747,98.4623127 53.6818471,94.3163921 C52.6570893,90.8510831 52.2711685,88.5939592 52.5089491,86.1083808 C53.040864,80.5481438 54.1718686,78.433433 57.1398776,75.957143 C57.268557,75.8497822 57.4025707,75.7391965 57.5809504,75.5928953 C57.8074375,75.4073645 57.9372466,75.301035 58.0395501,75.216951 C58.4251009,74.9000638 58.7136771,74.658093 59.0033981,74.4062812 C60.0083052,73.5329189 60.9315425,72.4242905 61.7784234,71.1351592 C62.5153008,70.0134765 63.1549891,68.8170928 63.6969881,67.6211078 C63.8866964,67.2024938 64.0509297,66.8131629 64.1893866,66.4626086 C64.2736555,66.2492512 64.3313622,66.0939919 64.3621441,66.0063699 L64.4864557,65.6525116 L64.3226909,65.3150947 L36.2081925,7.38868334 L35.5983104,6.13209756 L34.7060732,7.20674941 C34.6523698,7.27143219 34.5503034,7.39574517 34.4030944,7.57716224 C34.1590061,7.87797124 33.8762248,8.23082232 33.5579707,8.63319078 C32.6500477,9.78107726 31.6389397,11.0966622 30.5503999,12.5597722 C27.4410937,16.7390011 24.3319667,21.2653586 21.4288994,25.9782493 C17.4113966,32.500334 14.1162337,38.8539848 11.7938652,44.8487568 C11.5509606,45.4757708 11.3192399,46.0976787 11.0989179,46.714325 C9.99478507,49.8046168 9.19892575,53.1181403 8.68705154,56.6233512 C7.41957536,65.3027714 7.92265111,74.5690353 9.52900963,83.5236432 C9.86718585,85.4087987 10.2296907,87.1260365 10.5925398,88.6423555 C10.7114492,89.1392687 10.8225811,89.5815068 10.9234962,89.9657032 L10.9234962,89.9657032 Z"/>
            </g>
            <path fill="#CAECF7" d="M16.1633775,100.073728 C16.1633775,100.073728 17.6508259,102.174519 20.4723658,101.642493 C23.2939058,101.110467 24.1005244,99.6695061 24.1005244,99.6695061 C24.1005244,99.6695061 25.4304751,106.241925 31.0390088,105.439455 C36.6475425,104.636984 36.2856023,101.547894 36.2856023,101.547894 C36.2856023,101.547894 36.3346006,107.053916 41.7212512,107.053916 C47.1079019,107.053916 49.3321591,102.186716 49.3321591,102.186716 C49.3321591,102.186716 51.3478008,104.431805 55.8562718,104.484582 C58.8021502,104.519067 60.8894545,103.505012 60.4889639,100.950903 C60.0884733,98.3967934 58.118585,97.7382496 57.7557104,95.5271065 C57.2838843,92.6520771 68.9595465,71.2618742 65.6702367,47.2900643 C62.380927,23.3182543 48.5986554,4.98880996 48.5986554,4.98880996 L10.0931928,59.4533948 C10.0931928,59.4533948 10.8574844,62.6816987 10.7922658,64.197862 C10.6616763,67.233729 38.9366466,49.3718329 42.6249277,50.8019504 C46.3132088,52.232068 48.7312526,57.6934802 49.1968596,60.6076562 C52.5504225,81.5971877 56.4871111,96.1440963 51.6025717,101.992291 C49.5960204,104.394709 48.30321,95.8248467 48.30321,95.8248467 C48.30321,95.8248467 44.9954395,102.702045 40.7428947,103.215391 C37.516155,103.604906 36.7703495,96.3868578 36.7703495,96.3868578 C36.7703495,96.3868578 32.598339,102.594579 26.9634367,103.025504 C24.0464237,103.248581 24.5667771,93.9439429 24.5667771,93.9439429 C24.5667771,93.9439429 23.9968485,96.1170702 21.1751217,98.3283991 C18.3533948,100.539728 16.1633775,100.073728 16.1633775,100.073728 Z" opacity=".713" style="mix-blend-mode:multiply" transform="scale(-1 1) rotate(-12 0 419.225)"/>
            <path fill="#2273C6" d="M11.8969616,90.1975753 C11.8969616,90.1975753 12.0145706,88.6420781 15.949855,87.5277911 C25.0357002,84.9551081 37.7444023,85.589035 49.4030929,91.6072341 C52.6990817,93.3086188 53.0883697,95.3777934 53.0883697,95.3777934 L52.049637,90.7156065 C52.049637,90.7156065 49.9119557,88.1082626 48.5879828,87.5277911 C38.2864228,83.0112626 31.5353882,79.7286533 15.704889,84.4146688 C12.6938403,85.3059749 10.9363408,86.8639985 10.9363408,86.8639985 L11.8969616,90.1975753 Z"/>
          </g>
          <g transform="translate(0 91.789)">
            <g stroke-linecap="round" stroke-linejoin="round">
              <use fill="#FFFFFF" xlink:href="#d"/>
              <path stroke="#2279CF" stroke-width="1.8" d="M3.63947586,82.664305 C3.5467239,82.74098 3.44986971,82.8223073 3.34949027,82.9080212 C2.78173585,83.392826 2.21390531,83.9207915 1.68137604,84.4765588 C0.824200323,85.3711392 0.139757868,86.2523793 -0.311054071,87.1076209 C-1.56755366,89.4913439 -0.853333837,91.5360053 2.14244432,92.4153005 C5.62180461,93.4364204 8.27187733,93.115618 10.1439243,91.896342 C10.2551281,92.6168291 10.4281862,93.3282898 10.6761528,94.0078134 C11.7178496,96.8624635 13.8486174,98.5630499 17.1917748,98.3300013 C20.1830757,98.1214802 22.1916612,97.0079648 23.3180551,95.2642506 C23.3452113,95.2222114 23.3717241,95.1799945 23.3976017,95.13761 C23.411292,95.1627617 23.4251582,95.1879244 23.439202,95.2130944 C24.6399245,97.3650929 26.7019859,98.5890328 29.6742558,98.3287489 C32.3119077,98.0977677 34.1226456,97.0987902 35.1847324,95.5620961 C35.366527,95.299064 35.518398,95.0356867 35.6439787,94.7761883 C35.8210921,94.9860482 36.0147163,95.1997331 36.2249936,95.4135195 C38.4667041,97.6926405 41.331996,98.5812593 44.6739973,97.1943034 C46.7642332,96.3268701 47.7167916,94.8721613 47.7070435,92.8349917 C47.7004677,91.4607645 47.6238544,91.1609146 46.3978267,87.0149939 C45.3730689,83.5496849 44.9871482,81.2925611 45.2249287,78.8069826 C45.7568436,73.2467456 46.8878483,71.1320348 49.8558572,68.6557448 C49.9845367,68.548384 50.1185504,68.4377983 50.2969301,68.2914971 C50.5234171,68.1059664 50.6532262,67.9996368 50.7555298,67.9155528 C51.1410806,67.5986656 51.4296568,67.3566948 51.7193778,67.104883 C52.7242849,66.2315207 53.6475222,65.1228923 54.4944031,63.8337611 C55.2312805,62.7120783 55.8709687,61.5156946 56.4129677,60.3197096 C56.602676,59.9010956 56.7669094,59.5117647 56.9053663,59.1612104 C56.9896352,58.947853 57.0473418,58.7925937 57.0781238,58.7049717 L57.2024354,58.3511134 L57.0386706,58.0136965 L28.9241722,0.0872851551 L28.3142901,-1.16930062 L27.4220528,-0.0946487735 C27.3683495,-0.0299659925 27.2662831,0.0943469882 27.1190741,0.275764062 C26.8749858,0.576573062 26.5922045,0.92942414 26.2739504,1.33179259 C25.3660274,2.47967907 24.3549193,3.79526405 23.2663796,5.25837398 C20.1570734,9.43760295 17.0479464,13.9639604 14.1448791,18.6768511 C10.1273763,25.1989358 6.8322134,31.5525866 4.50984486,37.5473586 C4.26694027,38.1743727 4.03521961,38.7962805 3.81489754,39.4129269 C2.71076474,42.5032186 1.91490542,45.8167421 1.40303122,49.3219531 C0.135555037,58.0013733 0.638630785,67.2676371 2.2449893,76.222245 C2.58316553,78.1074005 2.94567035,79.8246383 3.30851951,81.3409573 C3.4274289,81.8378705 3.53856079,82.2801086 3.63947586,82.664305 L3.63947586,82.664305 Z"/>
            </g>
            <path fill="#2273C6" d="M4.61294125,82.8961771 C4.61294125,82.8961771 4.73055028,81.34068 8.6658347,80.2263929 C17.7516799,77.6537099 30.4603819,78.2876368 42.1190726,84.305836 C45.4150613,86.0072206 45.8043494,88.0763953 45.8043494,88.0763953 L44.7656166,83.4142083 C44.7656166,83.4142083 42.6279354,80.8068644 41.3039625,80.2263929 C31.0024024,75.7098644 24.2513679,72.4272552 8.42086872,77.1132706 C5.40982002,78.0045767 3.65232043,79.5626003 3.65232043,79.5626003 L4.61294125,82.8961771 Z"/>
            <path fill="#CAECF7" d="M1.9655972,91.5530716 C1.9655972,91.5530716 4.1737965,93.1516423 6.99533645,92.6196165 C9.81687641,92.0875907 10.515411,90.4878566 10.515411,90.4878566 C10.515411,90.4878566 11.3555018,98.5026449 16.9640355,97.7001743 C22.5725692,96.8977037 23.6906407,93.9618053 23.6906407,93.9618053 C23.6906407,93.9618053 24.5908015,97.7001743 29.9774522,97.7001743 C35.3641028,97.7001743 35.9542582,94.2024482 35.9542582,94.2024482 C35.9542582,94.2024482 41.4304751,99.3682764 45.1906198,96.6650409 C48.9507645,93.9618053 47.2845877,92.0674087 46.2376038,85.6877072 C45.1906198,79.3080058 44.3174515,73.401801 47.8407979,70.2861519 C51.3641443,67.1705029 51.9817013,66.7507101 54.8028322,63.1718132 C57.6239632,59.5929163 57.3135488,52.2014488 57.3135488,52.2014488 L31.1798478,0.719447311 C31.1798478,0.719447311 25.8480002,33.7912424 30.3496223,52.0386972 C34.8512443,70.2861519 42.2893308,87.6234404 37.4047915,93.4716352 C35.3982402,95.8740528 34.1054297,87.3041908 34.1054297,87.3041908 C34.1054297,87.3041908 30.7976593,94.1813893 26.5451145,94.6947347 C23.3183747,95.0842502 22.5725692,87.8662019 22.5725692,87.8662019 C22.5725692,87.8662019 19.2917765,94.2638092 13.6568742,94.6947347 C10.7398613,94.9178114 10.3689969,85.423287 10.3689969,85.423287 C10.3689969,85.423287 9.79906825,87.5964142 6.97734142,89.8077432 C4.15561459,92.0190722 1.9655972,91.5530716 1.9655972,91.5530716 Z" opacity=".713" style="mix-blend-mode:multiply"/>
          </g>
          <g transform="translate(22.372)">
            <g stroke-linecap="round" stroke-linejoin="round">
              <use fill="#FFFFFF" xlink:href="#e"/>
              <path stroke="#8EA6BB" stroke-width="1.601" d="M54.7820979,20.8340096 L54.8459381,20.791629 C38.1727519,26.8913102 25.7577152,35.8338014 17.4250581,48.6438007 C16.290569,49.8189958 14.957591,51.5463648 13.3363921,53.8787906 C12.9368127,54.4536671 12.5202291,55.0645194 12.0718464,55.7316981 C11.4301966,56.6864523 8.91108059,60.5110842 8.35593741,61.3300173 C8.02547597,61.8174422 7.68706619,62.3327131 7.34125427,62.8743529 C6.59116909,64.0491994 5.81120152,65.3402082 5.00841185,66.7287322 C3.64329973,69.0898624 2.27739255,71.6173164 0.975216735,74.1444725 C0.519560584,75.0287726 0.10433819,75.8500223 -0.262315476,76.587303 C-0.390767872,76.8455998 -0.504016135,77.0750386 -0.601041876,77.2730026 C-0.659463118,77.3922008 -0.699351544,77.4741287 -0.72049489,77.5178252 L-1.54800256,79.228154 L0.253880895,78.6254852 L6.79904272,76.4363508 C6.58325175,77.4748677 6.38912269,78.5191969 6.21685628,79.5687659 L1.2636301,91.6389364 L0.599850239,93.2564551 L2.25798224,92.7018662 L5.2122493,91.7137642 C5.21202228,91.7900855 5.21190877,91.866432 5.21190877,91.942803 C5.21190877,132.508588 37.6347653,161.132046 80.6650791,161.132046 C123.695259,161.132046 156.118249,132.508525 156.118249,91.942803 C156.118249,59.6056077 135.680659,31.1288668 105.759579,20.5308276 C104.122729,19.8579241 93.3112778,19.5136997 79.8563205,19.5574685 C66.0805677,19.6022808 56.5946179,19.977899 54.7820979,20.8340096 Z"/>
            </g>
            <path fill="#E6F9FF" d="M79.4511144,0 C79.4511144,0 85.1074558,6.22742153 85.3341262,13.4029364 C85.5607965,20.5784513 77.7906013,23.3150672 76.7646575,22.7668439 C75.7387137,22.2186205 73.7514865,14.7760604 73.0680628,13.2441407 C72.3846391,11.7122211 70.4076497,9.46166943 70.4076497,9.46166943 C70.4076497,9.46166943 72.4426537,22.1725301 69.9185662,24.7813172 C67.3944786,27.3901044 71.8242496,28.370605 78.2121507,27.5044301 C84.6000519,26.6382552 92.7706022,21.0586194 97.3503492,21.9127316 C101.930096,22.7668439 105.805764,24.2051876 105.805764,24.2051876 C105.805764,24.2051876 95.2740344,19.448337 93.3755355,16.3462389 C91.4770365,13.2441407 89.7180961,6.06124413 86.9553042,4.06765546 C84.1925122,2.07406679 79.4511144,0 79.4511144,0 Z" style="mix-blend-mode:multiply" filter="url(#f)"/>
            <path fill="#D8F1F9" d="M11.0021082,121.482009 C11.0021082,121.482009 31.4240728,164.834909 76.5914179,164.834909 C121.758763,164.834909 143.342779,132.913856 149.128727,115.747566 C154.914675,98.5812757 154.519869,83.8157904 146.326189,57.6506252 C138.132509,31.4854601 103.00354,19.2192291 103.00354,19.2192291 C103.00354,19.2192291 131.379773,42.2470171 135.850523,72.3468525 C136.046116,73.6637055 140.619464,79.0966738 140.719168,80.4392627 C140.818872,81.7818517 136.412846,78.267917 136.43118,79.2424463 C136.486244,82.1694086 141.201741,91.6098347 140.719168,94.6276971 C140.236595,97.6455595 135.129783,91.79367 134.623147,93.6253169 C131.981716,103.174916 126.253598,113.024554 116.109927,122.768677 C96.2922291,141.805779 76.4392423,146.26773 59.408991,144.452967 C58.3836736,144.343708 59.1817479,150.777981 58.1775175,150.62503 C57.1732871,150.472079 52.7046395,143.424817 50.9338239,143.012745 C27.3675208,137.528827 11.0021082,121.482009 11.0021082,121.482009 Z" style="mix-blend-mode:multiply"/>
          </g>
          <g transform="translate(47.346 46.938)">
            <g stroke-linecap="round" stroke-linejoin="round">
              <use fill="#C6F1FF" xlink:href="#g"/>
              <path stroke="#297BCC" stroke-width="2.16" d="M52.9728708,11.1018846 C51.556645,10.4877267 50.15712,9.85461063 48.8335351,9.22137976 C47.7646442,8.70999983 46.7796608,8.21458608 45.8966189,7.74113451 C44.845592,7.17761611 43.954151,6.65326484 43.247445,6.17821645 C41.4753268,4.98708671 39.9200609,3.36058721 38.6069801,1.51226641 L38.2270523,0.977471836 L37.5773321,1.06810351 C15.7113568,4.1182629 0.480861499,12.9613659 0.480861499,23.492371 C0.480861499,36.7296965 24.4857476,47.0229419 53.9180091,47.0229419 C83.3501343,47.0229419 107.355157,36.7296664 107.355157,23.492371 C107.355157,10.3504338 83.6871703,0.0982399602 54.4987722,-0.0369315362 L53.9245495,-0.0395907616 L53.6012318,0.434966207 C52.4128421,2.17925216 51.6602086,4.06166093 51.5862094,6.0284739 C51.5218248,7.73656025 52.0435529,9.4433814 52.9728708,11.1018846 Z"/>
            </g>
            <path fill="#5588BB" d="M20.4118156,41.5325295 C20.4118156,41.5325295 -5.95840779,34.4140856 1.97494643,18.8871762 C9.90830066,3.36026682 37.3454956,1.68584634 37.3454956,1.68584634 C37.3454956,1.68584634 41.7105409,7.49250516 43.5181333,7.43018438 C44.0368013,7.41230214 53.7668426,11.6665245 53.7668426,11.6665245 C53.7668426,11.6665245 52.4993998,9.91974275 52.5395265,6.49026296 C52.5796533,3.06078317 52.9342981,6.35514187 52.9451224,6.22765408 C53.1614866,3.67933546 52.8211089,1.59905963 54.5814411,0.880704354 C59.2164398,-1.01074306 60.6983588,0.880704354 60.6983588,0.880704354 C60.6983588,0.880704354 58.2351982,5.01558609 60.6429304,9.52867013 C63.0506626,14.0417542 64.9635567,13.9214345 64.0360247,14.9466024 C63.1084927,15.9717704 60.2555596,16.5882741 54.5814411,13.1766555 C48.9073225,9.76503686 40.074662,5.29338796 40.074662,5.29338796 C40.074662,5.29338796 17.6915764,9.51271095 12.7484873,18.369617 C3.49132432,34.9563751 20.4118156,41.5325295 20.4118156,41.5325295 Z" opacity=".196" style="mix-blend-mode:multiply" filter="url(#h)"/>
          </g>
          <g transform="translate(68.158 62.062)">
            <path fill="#2279CF" d="M8.01640538,0 C12.4406679,0 16.0328108,3.60414006 16.0328108,8.0436463 C16.0328108,12.4829431 12.4406679,16.0872926 8.01640538,16.0872926 C3.59193414,16.0872926 0,12.4829431 0,8.0436463 C0,3.60414006 3.59193414,0 8.01640538,0 Z"/>
            <path fill="#297BCC" d="M11.36048,0.732217965 C14.1170438,2.00492324 16.0328108,4.80152541 16.0328108,8.0436463 C16.0328108,12.4829431 12.4406679,16.0872926 8.01640538,16.0872926 C7.04229657,16.0872926 6.12325236,15.8207099 5.24459129,15.5927156 C4.65198751,15.4389471 10.8791652,14.5635315 12.4719115,10.3787696 C14.6502873,4.65533205 11.36048,0.732217965 11.36048,0.732217965 Z" opacity=".692" style="mix-blend-mode:multiply"/>
            <path fill="#FFFFFF" d="M6.08935135,2.60764221 C8.30137821,2.60764221 10.097554,4.40971224 10.097554,6.62946536 C10.097554,8.84921848 8.30137821,10.6512885 6.08935135,10.6512885 C3.87711573,10.6512885 2.08114866,8.84921848 2.08114866,6.62946536 C2.08114866,4.40971224 3.87711573,2.60764221 6.08935135,2.60764221 Z"/>
            <g transform="translate(50.468)">
              <path fill="#2279CF" d="M8.01640538,0 C12.4406679,0 16.0328108,3.60414006 16.0328108,8.0436463 C16.0328108,12.4829431 12.4406679,16.0872926 8.01640538,16.0872926 C3.59193414,16.0872926 0,12.4829431 0,8.0436463 C0,3.60414006 3.59193414,0 8.01640538,0 Z"/>
              <path fill="#297BCC" d="M11.3583759,0.730152551 C14.1149398,2.00285783 16.0307067,4.79946 16.0307067,8.04158089 C16.0307067,12.4808777 12.4385638,16.0852272 8.01430133,16.0852272 C7.04019253,16.0852272 6.12114831,15.8186445 5.24248725,15.5906501 C4.64988346,15.4368817 10.8770611,14.5614661 12.4698074,10.3767042 C14.6481832,4.65326664 11.3583759,0.730152551 11.3583759,0.730152551 Z" opacity=".692" style="mix-blend-mode:multiply"/>
              <path fill="#FFFFFF" d="M6.08935135,2.60764221 C8.30137821,2.60764221 10.097554,4.40971224 10.097554,6.62946536 C10.097554,8.84921848 8.30137821,10.6512885 6.08935135,10.6512885 C3.87711573,10.6512885 2.08114866,8.84921848 2.08114866,6.62946536 C2.08114866,4.40971224 3.87711573,2.60764221 6.08935135,2.60764221 Z"/>
            </g>
          </g>
          <g transform="translate(55.67 99.09)">
            <mask id="j" fill="white">
              <use xlink:href="#i"/>
            </mask>
            <use fill="#297BCC" xlink:href="#i"/>
            <g transform="translate(30.697 13.56)" mask="url(#j)">
              <mask id="l" fill="white">
                <use xlink:href="#k"/>
              </mask>
              <use fill="#82C2DC" xlink:href="#k"/>
              <path fill="#2268AC" d="M18.2958749,14.2474428 C18.2958749,14.2474428 28.2056885,12.5058056 29.3573087,8.28657201 C30.5089288,4.06733841 28.518266,0.342971839 28.518266,0.342971839 C28.518266,0.342971839 35.3678573,1.21179745 38.4554332,3.0645593 C41.5430091,4.91732115 44.8389298,7.73336455 44.8389298,7.73336455 C44.8389298,7.73336455 36.8651924,11.5971201 32.3023329,12.9222815 C27.7394734,14.2474428 18.2958749,14.2474428 18.2958749,14.2474428 Z" opacity=".165" style="mix-blend-mode:multiply" mask="url(#l)"/>
            </g>
            <path fill="#297BCC" d="M30.0729733,26.0630855 C30.0729733,26.0630855 21.9384368,18.7954434 41.9867678,12.3226373 C49.7422576,9.81869918 70.5036683,11.7295399 71.2072382,11.8813343 C79.5681831,13.6851977 85.4220676,16.3012423 85.4220676,16.3012423 C85.4220676,16.3012423 101.109054,4.245529 96.4041332,0.70943608 C91.6992129,-2.82665684 57.0144503,5.68719144 51.184176,5.68719144 C45.3539017,5.68719144 0.936623628,-1.20789682 -0.24386301,2.48789323 C-1.42434965,6.18368329 4.39090275,14.4555822 13.7265576,18.7954434 C23.0622124,23.1353046 30.0729733,26.0630855 30.0729733,26.0630855 Z" opacity=".522" style="mix-blend-mode:multiply" mask="url(#j)"/>
          </g>
        </g>
        <path fill="#FFFFFF" stroke="#2279CF" stroke-width="1.8" d="M103.79729,170.5398 C56.8161095,170.5398 18.730338,132.363166 18.730338,85.2699002 C18.730338,38.1766347 56.8161095,0 103.79729,0 C150.77847,0 188.864241,38.1766347 188.864241,85.2699002 C188.864241,132.363166 150.77847,170.5398 103.79729,170.5398 Z M104.057433,160.109232 C144.285967,160.109232 176.897637,124.935738 176.897637,95.700469 C176.897637,66.4652002 144.285967,42.7653322 104.057433,42.7653322 C63.8288998,42.7653322 31.21723,66.4652002 31.21723,95.700469 C31.21723,124.935738 63.8288998,160.109232 104.057433,160.109232 Z"/>
        <g fill="#2273C6" transform="translate(93.652 9.388)">
          <path d="M9.03585821,2.7839325 L9.03444414,2.78100512 L3.01195274,6.35679224 C2.74469496,6.50462462 2.52410124,6.73295977 2.37845282,7.00813291 L0.217765597,5.78741803 C0.40300776,5.41271418 0.697132722,5.10387625 1.05630455,4.90481483 L8.79829574,0.307374251 L8.80112386,0.311765311 C9.10797538,0.114167579 9.4713894,0 9.86025654,0 C10.2250846,0 10.5658736,0.100994397 10.8599986,0.275173139 L18.6444117,4.89896008 C19.0544897,5.12290418 19.3797241,5.4888259 19.5578959,5.93232304 L17.3858962,7.11790943 C17.24449,6.79004356 16.9970291,6.51926149 16.6901775,6.35240118 L10.6365767,2.75612245 C10.4074987,2.61999956 10.143069,2.54242416 9.85884247,2.54242416 C9.55623314,2.54242416 9.27483474,2.63024537 9.03585821,2.7839325 Z M19.7092006,6.629038 C19.7092006,6.65977543 19.7120287,6.69051285 19.7120287,6.72125028 L19.7120287,16.1181202 C19.7120287,16.9260754 19.2581147,17.6257177 18.5991617,17.9638294 L10.9193892,22.5495605 C10.7044517,22.6886108 10.4626471,22.7866778 10.2052877,22.8335158 L10.2052877,20.2837732 C10.3763893,20.2427899 10.5375924,20.172533 10.6832408,20.078857 L16.654826,16.511852 C17.1681306,16.249852 17.5202321,15.7053605 17.5202321,15.0759751 L17.5202321,7.82340652 L19.7092006,6.629038 Z M0.026867184,6.629038 L2.26249971,7.82340652 L2.26249971,15.0759751 C2.26249971,15.7053605 2.61460122,16.249852 3.12790585,16.511852 L3.07982773,16.511852 L9.05282695,20.078857 L8.99626446,20.078857 C9.14191288,20.172533 9.30311598,20.2427899 9.47421752,20.2837732 L9.47421752,22.8335158 C9.21544412,22.7866778 8.97363946,22.6886108 8.76011605,22.5495605 L8.81667855,22.5510242 L1.13549204,17.9638294 L1.11286704,17.9638294 C0.452499941,17.6257177 0,16.9260754 0,16.1181202 L0,6.72125028 C0,6.69051285 0.0254531217,6.65977543 0.026867184,6.629038 Z"/>
          <path d="M12.6917841,17.13983 L15.4765299,15.4864999 L15.4765299,8.85381223 L9.89072785,12.4582628 L4.30492581,8.85381223 L4.30492581,15.4864999 L7.2611432,17.2416343 L7.2611431,13.966509 L9.97646353,15.7186725 L12.691784,13.966509 L12.6917841,17.13983 Z"/>
        </g>
        <path fill="#4FAEE5" stroke="#8EA6BB" stroke-width="1.205" d="M104.057433,160.109232 C144.285967,160.109232 176.897637,124.935738 176.897637,95.700469 C176.897637,66.4652002 144.285967,42.7653322 104.057433,42.7653322 C63.8288998,42.7653322 31.21723,66.4652002 31.21723,95.700469 C31.21723,124.935738 63.8288998,160.109232 104.057433,160.109232 Z" opacity=".4" style="mix-blend-mode:multiply"/>
        <path fill="#FFFFFF" d="M59.0265902,55.1086484 C59.0265902,55.1086484 53.0525203,66.0094054 55.0095831,93.5549506 C56.9666459,121.100496 63.3433091,128.295997 63.3433091,128.295997 C63.3433091,128.295997 59.3370756,101.9437 66.9798688,82.2467852 C74.6226621,62.5498702 83.3667479,46.0268899 83.3667479,46.0268899 C83.3667479,46.0268899 78.7516901,46.5749123 69.6749965,49.4134485 C60.5983028,52.2519847 59.0265902,55.1086484 59.0265902,55.1086484 Z" opacity=".8"/>
        <path fill="#8EA6BB" d="M39.2085392,122.270936 C51.282364,142.741717 75.7894202,160.109232 104.057433,160.109232 C144.285967,160.109232 176.897637,124.935738 176.897637,95.700469 C176.897637,66.4652002 144.285967,42.7653322 104.057433,42.7653322 C101.8222,42.7653322 99.6104814,42.8385006 97.4265663,42.9817214 C98.2246603,43.0732953 99.0248893,43.1753782 99.8269932,43.2881065 C136.676248,48.4669316 163.528617,74.1525758 159.803439,100.658599 C156.07826,127.164622 121.724205,154.856242 84.8749508,149.677417 C65.7378917,146.987879 49.6913736,135.961863 39.2085392,122.270936 Z" opacity=".548" style="mix-blend-mode:multiply"/>
      </g>
    </g>
  </g>
</svg>
