<svg xmlns="http://www.w3.org/2000/svg" width="337" height="406" viewBox="0 0 337 406" xmlns:xlink="http://www.w3.org/1999/xlink">
  <defs>
    <path id="a" d="M0.268853222,0.416152769 C0.268853222,0.416152769 3.40269328,13.3417699 4.03844606,24.3665728 C4.67419885,35.3913757 0.516736642,48.6602288 13.4612248,53.045799 C33.764,59.837225 41.3372797,38.2009442 59.0176247,39.2382617 C76.6979698,40.2755792 77.6522006,56.6411656 98.1483088,53.4947693 C114.451522,50.9920322 105.33412,37.8400859 105.33412,29.0457159 C105.33412,20.251346 107.78969,2.2829238 107.78969,2.2829238 L0.268853222,0.416152769 Z"/>
    <path id="b" d="M212.613883,110.434156 C212.613883,110.434156 224.442735,121.58735 229.688257,131.070131 C236.723951,143.789468 244.500808,166.221259 243.005241,164.11867 C240.699739,163.804931 236.726507,161.734622 234.395216,161.858167 C234.395216,161.858167 237.112423,164.287035 239.101943,174.131394 C241.091696,183.975986 240.363312,197.245702 240.363312,197.245702 C240.363312,197.245702 250.112032,204.616141 242.886051,206.728715 C235.660535,208.841057 233.426129,204.950549 233.426129,204.950549 C233.426129,204.950549 233.702381,213.748955 226.488714,213.24804 C219.275047,212.747125 219.551299,207.32136 219.551299,207.32136 C219.551299,207.32136 219.005999,213.805619 212.613883,213.24804 C206.222,212.690462 206.307269,207.914005 206.307269,207.914005 C206.307269,207.914005 202.844253,214.802572 196.216546,212.062751 C189.589071,209.32293 197.104547,201.750917 196.216546,192.504312 C195.328778,183.257706 192.306046,182.039208 188.648562,178.872785 C184.991312,175.706362 182.972516,169.982649 182.972516,169.982649 L212.613883,110.434156 Z"/>
    <path id="c" d="M61.3466025,27.3529855 C62.9125685,25.6765346 67.3974115,20.7537744 71.3745935,17.8976074 C76.1754178,14.4497245 79.7388036,12.3241455 79.7388036,12.3241455 L83.6421017,19.5696459 C83.6421017,19.5696459 88.8334882,16.109455 89.7758559,11.7667993 C90.7182235,7.42391135 89.7758559,1.7345679 89.7758559,1.7345679 C89.7758559,1.7345679 95.3543194,2.78191428 98.69768,7.86537598 C102.040808,12.9486055 102.36283,19.3021198 108.177118,22.3563769 C111.008868,23.8437945 114.521604,25.6233545 117.380073,27.0573598 C149.683814,38.442549 172.860344,69.2377838 172.860344,105.400959 C172.860344,151.234555 135.631244,188.445541 89.7758559,188.445541 C43.9202353,188.445541 6.69136814,151.234555 6.69136814,105.400959 C6.69136814,104.903063 6.69578258,104.406096 6.70461147,103.91029 L2.23045605,105.400959 L7.78173587,91.9257216 C8.0600782,90.2234934 8.39023216,88.5386823 8.77057138,86.8731461 L0,89.7952658 C0,89.7952658 5.2373896,79.0122426 10.0370522,71.9601877 C12.8067675,67.8901672 17.0225617,61.0910081 20.0929239,57.9536135 C29.8444313,42.9798115 44.2945337,33.5671633 61.3466025,27.3529855 Z"/>
    <path id="d" d="M60.6486098,1.1563786 C92.5143918,1.30337866 118.278483,12.3989801 118.278483,26.0446727 C118.278483,39.7816306 92.1682065,50.9343601 60.0078184,50.9343601 C27.8471979,50.9343601 1.73715415,39.7816306 1.73715415,26.0446727 C1.73715415,14.9934267 18.6351821,5.61491589 41.9875922,2.36999993 C43.2085346,4.08198164 45.0468021,6.2263711 47.4615031,7.8431395 C52.1923933,11.0109559 62.5170814,15.08864 62.5170814,15.08864 C62.5170814,15.08864 58.4483578,11.1001313 58.6137833,6.72844713 C58.6969608,4.526233 59.6867256,2.56274882 60.6486098,1.1563786 Z"/>
    <path id="e" d="M83.7433542,5.05518824 C98.7320188,0.967982855 107.162678,-3.46175821 107.062075,4.13603148 C106.974251,10.748944 83.0756114,31.7246678 53.53113,31.7246678 C23.9864163,31.7246678 -0.0769516717,11.8638686 0.000184933189,5.25072386 C0.0759275031,-1.26697536 8.58837007,2.47676543 23.7422278,5.88122174 C25.8033086,9.85579675 28.5358496,14.364263 29.9875048,14.446936 C31.3576089,14.5247322 34.7839146,11.2891054 37.5784902,8.37488148 C42.4813114,9.01443623 47.8097779,9.43082028 53.53113,9.43082028 C59.1767396,9.43082028 64.447586,8.94360682 69.3081215,8.19072501 C72.1333658,11.15093 75.6763058,14.5263578 77.07522,14.446936 C78.6286397,14.3586895 81.6485842,9.20207611 83.7433542,5.05518824 Z"/>
    <path id="g" d="M0,13.1296828 C2.91097748,5.59436237 13.5700016,0 26.2582761,0 C36.2486282,0 44.9808636,3.46808666 49.6636596,8.62098441 C41.0264509,12.7873794 30.5423781,15.8623048 19.2304809,15.8623048 C12.4573294,15.8623048 5.9722784,14.8184418 0,13.1296828 Z"/>
    <path id="i" d="M91.8554783,175.578395 C97.2494593,175.578395 101.622145,173.332001 101.622145,170.560933 C101.622145,167.789866 97.9528121,164.76121 92.558831,164.76121 C87.16485,164.76121 82.0888116,167.789866 82.0888116,170.560933 C82.0888116,173.332001 86.4614972,175.578395 91.8554783,175.578395 Z"/>
    <path id="j" d="M11.8655406,125.658925 L10.0751452,125.618731 C9.60575079,125.618731 9.06260255,125.665623 8.44568419,125.759409 C8.41886165,126.281928 8.36521738,126.958512 8.28474977,127.789183 C8.00311313,130.736725 7.86229692,132.64925 7.86229692,133.526813 C7.86229692,134.404377 7.87570798,135.024021 7.90253052,135.385765 L6.01155108,135.526443 L6.63517196,125.598635 L2.35029301,125.357473 C2.24300286,125.357473 2.15918369,125.270388 2.09883298,125.096215 C2.03848227,124.922042 2.00830737,124.76127 2.00830737,124.613893 C2.00830737,124.466515 2.06865717,124.305743 2.18935859,124.13157 C2.31006001,123.957397 2.45087622,123.870312 2.61181145,123.870312 C3.59083407,123.910506 4.57654754,123.977494 5.56898142,124.07128 C7.40632525,124.232055 8.96871462,124.312441 10.2561964,124.312441 L11.5034382,124.272247 C12.4824608,124.245452 13.4547632,124.13827 14.4203746,123.950699 C14.6349549,123.990893 14.7690655,124.325836 14.8227106,124.955538 C14.8361219,125.089517 14.8428274,125.196699 14.8428274,125.277086 C13.9576837,125.531647 12.9652647,125.658925 11.8655406,125.658925 Z M17.1964933,126.080957 C17.3708398,128.586368 17.5183615,131.486974 17.639063,134.782862 C17.5585954,135.198197 17.2367297,135.405862 16.6734564,135.405862 C16.5259325,135.405862 16.375058,135.375717 16.2208284,135.315427 C16.0665988,135.255136 15.9693686,135.1714 15.9291347,135.064217 L15.9291347,126.080957 L17.1964933,126.080957 Z M15.3256307,123.347796 C15.3256307,122.878868 15.6005576,122.644408 16.1504196,122.644408 C16.5125238,122.644408 16.8075673,122.724795 17.0355589,122.88557 C17.0757927,123.032947 17.0959093,123.176972 17.0959093,123.31765 C17.0959093,123.458329 17.042265,123.595655 16.9349749,123.729634 C16.8276847,123.863614 16.6667519,123.930602 16.4521716,123.930602 C16.2375913,123.930602 16.0230142,123.880361 15.8084339,123.779876 C15.5938536,123.679392 15.4329208,123.535366 15.3256307,123.347796 Z M26.6413321,133.406233 C27.1844885,133.185167 27.7175784,132.980852 28.2406179,132.793281 C28.7636574,132.60571 29.2632197,132.511926 29.7393197,132.511926 C30.2154197,132.511926 30.4534662,132.659301 30.4534662,132.954055 C30.4534662,133.021045 30.4367024,133.124877 30.4031742,133.265555 C30.369646,133.406233 30.1885966,133.573705 29.8600205,133.767975 C29.5314444,133.962244 29.1291124,134.146463 28.6530124,134.320636 C28.1769123,134.494809 27.6572335,134.655582 27.0939602,134.802959 C26.5306869,134.950336 25.9808331,135.077614 25.4443824,135.184797 C24.3312471,135.412562 23.5399941,135.526443 23.0705997,135.526443 C22.6012053,135.526443 22.0949374,135.472852 21.5517811,135.365668 C21.0086247,135.258485 20.5023569,135.084315 20.0329625,134.843152 C18.9466497,134.28044 18.4035015,133.449781 18.4035015,132.351152 L18.4035015,131.868829 C18.4035015,131.627667 18.5040845,131.282675 18.7052535,130.833845 C18.9064225,130.385015 19.2081716,129.936191 19.6105096,129.487361 C20.0128477,129.038531 20.482235,128.626551 21.0186858,128.251409 C22.1452324,127.447534 23.3254063,126.925023 24.559243,126.683861 C24.9884036,126.590075 25.3471497,126.543183 25.635492,126.543183 C25.9238343,126.543183 26.1618807,126.546533 26.3496385,126.553232 C26.5373962,126.559931 26.7318567,126.573328 26.9330258,126.593425 C27.1341948,126.613522 27.3085387,126.663763 27.4560626,126.744151 C27.8047556,126.918324 27.9790995,127.259966 27.9790995,127.769087 C27.9790995,128.090637 27.7511113,128.405483 27.2951282,128.713635 C27.1744268,128.794023 27.0671382,128.86771 26.9732594,128.9347 C26.906203,128.626548 26.8190311,128.365292 26.7117409,128.150925 C26.6044508,127.936559 26.3697571,127.829377 26.0076528,127.829377 C24.4251231,128.164325 23.0638998,128.666739 21.9239419,129.336635 C20.6364601,130.100317 19.9927289,130.90418 19.9927289,131.748249 C19.9927289,131.842034 19.9994344,131.942517 20.0128457,132.0497 C20.0128457,132.907167 20.3414168,133.516763 20.998569,133.878507 C21.4947859,134.146465 22.1351644,134.280442 22.9197236,134.280442 C23.7042829,134.280442 24.3848945,134.190008 24.9615791,134.009136 C25.5382637,133.828264 26.0981757,133.627298 26.6413321,133.406233 Z M49.1017422,125.658925 L47.3113468,125.618731 C46.8419523,125.618731 46.2988041,125.665623 45.6818857,125.759409 C45.6550632,126.281928 45.6014189,126.958512 45.5209513,127.789183 C45.2393147,130.736725 45.0984985,132.64925 45.0984985,133.526813 C45.0984985,134.404377 45.1119095,135.024021 45.1387321,135.385765 L43.2477526,135.526443 L43.8713735,125.598635 L39.5864946,125.357473 C39.4792044,125.357473 39.3953852,125.270388 39.3350345,125.096215 C39.2746838,124.922042 39.2445089,124.76127 39.2445089,124.613893 C39.2445089,124.466515 39.3048587,124.305743 39.4255601,124.13157 C39.5462616,123.957397 39.6870778,123.870312 39.848013,123.870312 C40.8270356,123.910506 41.8127491,123.977494 42.805183,124.07128 C44.6425268,124.232055 46.2049162,124.312441 47.492398,124.312441 L48.7396397,124.272247 C49.7186624,124.245452 50.6909648,124.13827 51.6565761,123.950699 C51.8711564,123.990893 52.0052671,124.325836 52.0589122,124.955538 C52.0723234,125.089517 52.079029,125.196699 52.079029,125.277086 C51.1938852,125.531647 50.2014662,125.658925 49.1017422,125.658925 Z M53.1251027,131.708055 C53.1251027,130.127101 53.8090671,128.854317 55.1770166,127.889667 C56.2633293,127.125986 57.5709084,126.663765 59.0997931,126.50299 L59.6630635,126.50299 C59.9581114,126.50299 60.3537379,126.590075 60.8499549,126.764248 C61.9496789,127.139389 62.7006987,127.802576 63.1030368,128.753829 C63.263972,129.12897 63.3444384,129.447166 63.3444384,129.708426 C63.3444384,129.969685 63.3377329,130.153904 63.3243216,130.261087 C63.3243216,131.935827 62.6872959,133.255502 61.4132254,134.220152 C60.2330337,135.104415 58.7578163,135.546539 56.9875288,135.546539 C55.7134583,135.546539 54.7512142,135.25179 54.1007676,134.662281 C53.4503211,134.072773 53.1251027,133.088041 53.1251027,131.708055 Z M54.5131621,132.190378 C54.5131621,133.021049 54.7344447,133.583753 55.1770166,133.878507 C55.5122983,134.092874 56.0755631,134.200055 56.866828,134.200055 C57.6580928,134.200055 58.3554683,134.139766 58.9589754,134.019184 C59.5624825,133.898603 60.0989252,133.690938 60.5683196,133.396184 C61.5741648,132.753084 62.0770798,131.754954 62.0770798,130.401764 C62.0770798,129.597889 61.8625028,128.941401 61.4333422,128.43228 C60.9639477,127.882966 60.3470386,127.608312 59.5825963,127.608312 C59.0595568,127.702098 58.5331724,127.802581 58.0034273,127.909764 C57.4736822,128.016947 56.9741199,128.224612 56.5047255,128.532764 C55.4854691,129.189262 54.8216213,130.408454 54.5131621,132.190378 Z M72.3467075,133.406233 C72.8898639,133.185167 73.4229539,132.980852 73.9459934,132.793281 C74.4690328,132.60571 74.9685951,132.511926 75.4446951,132.511926 C75.9207952,132.511926 76.1588416,132.659301 76.1588416,132.954055 C76.1588416,133.021045 76.1420778,133.124877 76.1085496,133.265555 C76.0750215,133.406233 75.893972,133.573705 75.565396,133.767975 C75.2368199,133.962244 74.8344878,134.146463 74.3583878,134.320636 C73.8822878,134.494809 73.3626089,134.655582 72.7993356,134.802959 C72.2360623,134.950336 71.6862085,135.077614 71.1497578,135.184797 C70.0366225,135.412562 69.2453695,135.526443 68.7759751,135.526443 C68.3065807,135.526443 67.8003129,135.472852 67.2571565,135.365668 C66.7140001,135.258485 66.2077323,135.084315 65.7383379,134.843152 C64.6520251,134.28044 64.1088769,133.449781 64.1088769,132.351152 L64.1088769,131.868829 C64.1088769,131.627667 64.2094599,131.282675 64.4106289,130.833845 C64.611798,130.385015 64.913547,129.936191 65.315885,129.487361 C65.7182231,129.038531 66.1876105,128.626551 66.7240612,128.251409 C67.8506078,127.447534 69.0307818,126.925023 70.2646185,126.683861 C70.6937791,126.590075 71.0525251,126.543183 71.3408674,126.543183 C71.6292097,126.543183 71.8672561,126.546533 72.0550139,126.553232 C72.2427717,126.559931 72.4372322,126.573328 72.6384012,126.593425 C72.8395702,126.613522 73.0139141,126.663763 73.1614381,126.744151 C73.510131,126.918324 73.6844749,127.259966 73.6844749,127.769087 C73.6844749,128.090637 73.4564868,128.405483 73.0005036,128.713635 C72.8798022,128.794023 72.7725137,128.86771 72.6786348,128.9347 C72.6115784,128.626548 72.5244065,128.365292 72.4171164,128.150925 C72.3098262,127.936559 72.0751325,127.829377 71.7130283,127.829377 C70.1304986,128.164325 68.7692752,128.666739 67.6293173,129.336635 C66.3418355,130.100317 65.6981043,130.90418 65.6981043,131.748249 C65.6981043,131.842034 65.7048098,131.942517 65.7182211,132.0497 C65.7182211,132.907167 66.0467923,133.516763 66.7039444,133.878507 C67.2001614,134.146465 67.8405398,134.280442 68.6250991,134.280442 C69.4096583,134.280442 70.09027,134.190008 70.6669545,134.009136 C71.2436391,133.828264 71.8035512,133.627298 72.3467075,133.406233 Z M77.144565,134.843152 C77.144565,134.735969 77.2652646,134.625438 77.5066674,134.511555 C77.7480702,134.397673 77.9626473,134.293841 78.1504051,134.200055 C78.4320417,134.200055 78.6231494,134.256996 78.723734,134.370878 C78.8243185,134.48476 78.87461,134.635485 78.87461,134.823055 C78.87461,135.010626 78.8343768,135.151302 78.7539092,135.245088 C78.6734416,135.338873 78.5728585,135.405862 78.4521571,135.446056 C78.2509881,135.513045 77.9827667,135.546539 77.647485,135.546539 C77.3122033,135.546539 77.144565,135.312079 77.144565,134.843152 Z M80.0413845,134.843152 C80.0413845,134.735969 80.1620841,134.625438 80.403487,134.511555 C80.6448898,134.397673 80.8594669,134.293841 81.0472247,134.200055 C81.3288613,134.200055 81.519969,134.256996 81.6205535,134.370878 C81.721138,134.48476 81.7714295,134.635485 81.7714295,134.823055 C81.7714295,135.010626 81.7311963,135.151302 81.6507287,135.245088 C81.5702611,135.338873 81.4696781,135.405862 81.3489767,135.446056 C81.1478077,135.513045 80.8795863,135.546539 80.5443046,135.546539 C80.2090229,135.546539 80.0413845,135.312079 80.0413845,134.843152 Z M83.4210074,135.546539 C83.0991369,135.546539 82.9382041,135.312079 82.9382041,134.843152 C82.9382041,134.735969 83.1058424,134.601992 83.4411242,134.441217 L83.964161,134.200055 C84.4469667,134.200055 84.6883659,134.421118 84.6883659,134.863249 C84.6883659,135.318778 84.2659173,135.546539 83.4210074,135.546539 Z"/>
    <path id="k" d="M23.8699101,198.814482 L22.6982852,199.429317 C22.3948952,199.597321 22.0606519,199.822032 21.6955451,200.103455 C21.8656,200.450782 22.0735716,200.907288 22.3194663,201.472988 C23.1945122,203.478915 23.789387,204.765463 24.1041085,205.33267 C24.4188301,205.899878 24.6497219,206.295581 24.796791,206.519791 L23.6250203,207.287531 L20.4676739,200.647554 L17.6116828,202.025313 C17.5423365,202.063714 17.4569291,202.037428 17.355458,201.946453 C17.2539869,201.855478 17.1768256,201.762363 17.1239716,201.667107 C17.0711176,201.571851 17.0524662,201.446336 17.068017,201.29056 C17.0835677,201.134783 17.1433519,201.028096 17.2473713,200.970494 C17.8945708,200.646064 18.5557044,200.336558 19.2307918,200.041966 C20.4760058,199.488265 21.5146748,198.981015 22.3468302,198.520203 L23.138562,198.047815 C23.761737,197.680087 24.3517395,197.262807 24.9085873,196.795962 C25.0616946,196.745139 25.268497,196.913627 25.5290009,197.30143 C25.5857183,197.383227 25.628491,197.450103 25.6573205,197.502061 C25.1765069,197.983402 24.5807094,198.420872 23.8699101,198.814482 Z M27.4668899,197.17922 C28.4780956,198.736174 29.6136924,200.55816 30.8737145,202.645235 C30.970657,202.942485 30.8370963,203.191909 30.4730283,203.393514 C30.3776772,203.446315 30.2693495,203.480832 30.1480422,203.497065 C30.0267348,203.513298 29.9338605,203.493976 29.8694163,203.4391 L26.6477411,197.632829 L27.4668899,197.17922 Z M25.2774738,196.082273 C25.109302,195.779185 25.2029145,195.529242 25.5583142,195.332437 C25.7923579,195.202834 26.0118863,195.149189 26.216906,195.171503 C26.2957649,195.252359 26.3604191,195.338249 26.4108707,195.429175 C26.4613222,195.520102 26.4758992,195.628062 26.454602,195.75306 C26.4333048,195.878057 26.3533111,195.978955 26.2146185,196.055757 C26.075926,196.132559 25.9192174,196.176887 25.744488,196.188742 C25.5697586,196.200596 25.4140888,196.165107 25.2774738,196.082273 Z M36.1985698,198.533391 C36.4703543,198.196102 36.7416397,197.873242 37.0124341,197.564802 C37.2832285,197.256362 37.5724834,197.016943 37.8802075,196.846539 C38.1879316,196.676134 38.3946446,196.686188 38.5003525,196.8767 C38.5243771,196.919999 38.5507794,196.99311 38.5795602,197.096037 C38.608341,197.198964 38.5513814,197.372008 38.4086796,197.615176 C38.2659778,197.858344 38.0719997,198.121415 37.8267394,198.404395 C37.5814791,198.687375 37.3032461,198.977291 36.9920321,199.274152 C36.6808182,199.571014 36.3710698,199.850082 36.0627777,200.111364 C35.4249935,200.656989 34.9544134,201.013798 34.6510235,201.181802 C34.3476335,201.349806 34.0011913,201.49637 33.6116865,201.621498 C33.2221817,201.746626 32.832496,201.815254 32.4426176,201.827385 C31.5386804,201.852489 30.8897203,201.510001 30.4957177,200.799909 L30.3227419,200.488163 C30.2362535,200.332289 30.1775401,200.073306 30.1466,199.711206 C30.1156598,199.349105 30.1497313,198.95101 30.2488154,198.516908 C30.3478995,198.082806 30.5035362,197.648523 30.7157301,197.214048 C31.1555715,196.291258 31.7309805,195.531132 32.4419743,194.933646 C32.6857251,194.719425 32.9007813,194.560715 33.0871494,194.457512 C33.2735176,194.35431 33.4285785,194.271274 33.552337,194.208402 C33.6760954,194.14553 33.8065885,194.084588 33.9438201,194.025576 C34.0810518,193.966564 34.2117559,193.936636 34.3359365,193.935793 C34.6237757,193.923565 34.8589851,194.081982 35.0415716,194.411049 C35.1568894,194.618881 35.1224444,194.903981 34.9382357,195.266357 C34.8890505,195.361516 34.8461319,195.447544 34.8094785,195.524443 C34.6556241,195.349272 34.5055868,195.211611 34.359362,195.111458 C34.2131372,195.011304 34.0230058,195.026029 33.7889621,195.155632 C32.8862272,195.938539 32.1865908,196.750476 31.6900321,197.59147 C31.1317565,198.545882 31.0039753,199.295856 31.3066845,199.841415 C31.3403189,199.902032 31.3806893,199.964579 31.4277968,200.029056 C31.735311,200.583274 32.1663008,200.859681 32.7207793,200.858285 C33.137604,200.853874 33.5995568,200.711267 34.1066515,200.430459 C34.6137461,200.149652 35.0212223,199.847597 35.3290923,199.524287 C35.6369623,199.200976 35.9267852,198.870681 36.1985698,198.533391 Z M47.9372826,185.487 L46.7656577,186.101835 C46.4622678,186.269839 46.1280244,186.49455 45.7629177,186.775973 C45.9329726,187.1233 46.1409442,187.579806 46.3868388,188.145505 C47.2618848,190.151432 47.8567596,191.43798 48.1714811,192.005188 C48.4862026,192.572395 48.7170945,192.968098 48.8641636,193.192309 L47.6923928,193.960049 L44.5350465,187.320071 L41.6790554,188.697831 C41.6097091,188.736232 41.5243017,188.709945 41.4228306,188.61897 C41.3213595,188.527995 41.2441981,188.434881 41.1913441,188.339625 C41.1384901,188.244369 41.1198388,188.118854 41.1353895,187.963077 C41.1509403,187.807301 41.2107245,187.700613 41.3147439,187.643012 C41.9619434,187.318582 42.623077,187.009075 43.2981644,186.714484 C44.5433783,186.160782 45.5820474,185.653533 46.4142027,185.192721 L47.2059345,184.720333 C47.8291095,184.352604 48.4191121,183.935324 48.9759598,183.46848 C49.1290671,183.417657 49.3358696,183.586144 49.5963734,183.973948 C49.6530908,184.055744 49.6958636,184.12262 49.724693,184.174578 C49.2438795,184.65592 48.648082,185.09339 47.9372826,185.487 Z M52.7071605,187.956785 C52.1401813,186.934945 52.1257977,185.867487 52.6640093,184.754379 C53.0922606,183.871969 53.7716389,183.10521 54.7021644,182.45408 L55.0662306,182.252475 C55.2569328,182.146873 55.5438748,182.061558 55.9270652,181.996529 C56.772402,181.845389 57.4956581,182.005232 58.0968551,182.476064 C58.335412,182.660933 58.5015358,182.837797 58.5952315,183.00666 C58.6889273,183.175523 58.7506597,183.296992 58.7804307,183.371069 C59.3810443,184.453526 59.4425833,185.534492 58.9650497,186.613999 C58.5193646,187.607947 57.7244272,188.421718 56.5802136,189.055334 C55.7567265,189.511346 55.02908,189.66524 54.3972522,189.517022 C53.7654244,189.368803 53.2020661,188.848729 52.7071605,187.956785 Z M53.7772994,187.77172 C54.0752037,188.308619 54.4200314,188.593118 54.8117928,188.625226 C55.1053785,188.643778 55.5078797,188.511452 56.0193085,188.228244 C56.5307373,187.945037 56.9598596,187.656466 57.3066882,187.362523 C57.6535169,187.068581 57.9257681,186.742356 58.1234501,186.383839 C58.5429358,185.608166 58.5100313,184.78303 58.0247355,183.908404 C57.736441,183.388825 57.3623135,183.041309 56.9023418,182.865846 C56.4019506,182.678805 55.9047163,182.722087 55.4106241,182.995694 C55.1061954,183.243517 54.8020066,183.496865 54.4980486,183.755747 C54.1940906,184.01463 53.9456768,184.327654 53.7527997,184.694831 C53.3294506,185.483963 53.3376171,186.509583 53.7772994,187.77172 Z M65.7399368,182.174645 C66.0117214,181.837355 66.2830068,181.514495 66.5538012,181.206055 C66.8245955,180.897615 67.1138505,180.658196 67.4215746,180.487792 C67.7292987,180.317388 67.9360116,180.327441 68.0417196,180.517954 C68.0657442,180.561252 68.0921465,180.634363 68.1209273,180.73729 C68.1497081,180.840217 68.0927485,181.013262 67.9500467,181.25643 C67.8073449,181.499598 67.6133667,181.762668 67.3681064,182.045648 C67.1228461,182.328628 66.8446132,182.618544 66.5333992,182.915406 C66.2221853,183.212267 65.9124369,183.491335 65.6041447,183.752617 C64.9663605,184.298242 64.4957805,184.655051 64.1923905,184.823055 C63.8890006,184.99106 63.5425584,185.137624 63.1530536,185.262752 C62.7635488,185.387879 62.373863,185.456508 61.9839847,185.468638 C61.0800475,185.493743 60.4310873,185.151254 60.0370848,184.441163 L59.864109,184.129417 C59.7776206,183.973543 59.7189072,183.71456 59.6879671,183.352459 C59.6570269,182.990359 59.6910983,182.592263 59.7901824,182.158161 C59.8892665,181.724059 60.0449032,181.289777 60.2570972,180.855301 C60.6969386,179.932511 61.2723476,179.172385 61.9833414,178.5749 C62.2270922,178.360678 62.4421484,178.201968 62.6285165,178.098766 C62.8148846,177.995563 62.9699456,177.912527 63.093704,177.849655 C63.2174625,177.786783 63.3479556,177.725842 63.4851872,177.666829 C63.6224188,177.607817 63.753123,177.577889 63.8773036,177.577046 C64.1651428,177.564818 64.4003521,177.723236 64.5829387,178.052302 C64.6982565,178.260134 64.6638115,178.545234 64.4796027,178.90761 C64.4304176,179.002769 64.387499,179.088797 64.3508455,179.165696 C64.1969912,178.990525 64.0469539,178.852865 63.9007291,178.752711 C63.7545042,178.652558 63.5643728,178.667282 63.3303292,178.796886 C62.4275943,179.579792 61.7279579,180.39173 61.2313991,181.232723 C60.6731236,182.187136 60.5453424,182.93711 60.8480516,183.482668 C60.881686,183.543286 60.9220563,183.605832 60.9691639,183.670309 C61.276678,184.224527 61.7076679,184.500934 62.2621464,184.499539 C62.6789711,184.495127 63.1409239,184.35252 63.6480185,184.071713 C64.1551132,183.790905 64.5625894,183.488851 64.8704594,183.16554 C65.1783294,182.842229 65.4681523,182.511934 65.7399368,182.174645 Z M69.3563241,181.386152 C69.3178849,181.316874 69.3562583,181.202233 69.4714457,181.042224 C69.5866331,180.882214 69.6880861,180.738302 69.7758078,180.610483 C69.9578418,180.50968 70.1017835,180.478082 70.2076374,180.515688 C70.3134912,180.553295 70.4000512,180.632714 70.46732,180.753949 C70.5345887,180.875184 70.559035,180.98051 70.5406596,181.069928 C70.5222843,181.159346 70.4812973,181.238644 70.4176975,181.307824 C70.3116978,181.423125 70.1503467,181.540774 69.9336396,181.660778 C69.7169325,181.780781 69.5244959,181.68924 69.3563241,181.386152 Z M71.2286643,180.34933 C71.190225,180.280052 71.2285985,180.165411 71.3437859,180.005402 C71.4589733,179.845392 71.5604263,179.70148 71.6481479,179.573661 C71.8301819,179.472858 71.9741237,179.44126 72.0799775,179.478866 C72.1858314,179.516473 72.2723914,179.595892 72.3396601,179.717127 C72.4069288,179.838362 72.4313752,179.943688 72.4129998,180.033106 C72.3946245,180.122524 72.3536375,180.201822 72.2900376,180.271002 C72.1840379,180.386303 72.0226869,180.503952 71.8059798,180.623956 C71.5892727,180.743959 71.3968361,180.652418 71.2286643,180.34933 Z M73.6653176,179.594334 C73.4572788,179.709537 73.2691763,179.615596 73.1010045,179.312508 C73.0625652,179.243231 73.1228688,179.096635 73.281917,178.872716 L73.5334905,178.529639 C73.8455487,178.356834 74.0808553,178.413315 74.2394173,178.699084 C74.4027842,178.993512 74.2114195,179.291926 73.6653176,179.594334 Z"/>
  </defs>
  <g fill="none" fill-rule="evenodd">
    <rect width="337" height="406"/>
    <g transform="translate(32 69)">
      <ellipse cx="146.5" cy="229.252" fill="#ECFAFE" rx="146.5" ry="51.748"/>
      <path fill="#C8EAFA" d="M178.190065,241.510392 C228.07906,241.510392 259.904365,226.754572 259.904365,215.578193 C259.904365,204.401813 228.07906,201.037141 178.190065,201.037141 C128.30107,201.037141 87.8580492,210.097387 87.8580492,221.273766 C87.8580492,232.450146 128.30107,241.510392 178.190065,241.510392 Z" transform="rotate(3 173.881 221.274)"/>
      <g transform="translate(6.377)">
        <g transform="translate(76.427 165.362)">
          <g stroke-linecap="round" stroke-linejoin="round">
            <use fill="#FFFFFF" xlink:href="#a"/>
            <path stroke="#297BCC" stroke-width="1.95" d="M-0.678694636,0.64588752 C-0.649218309,0.767463514 -0.593206601,1.00405664 -0.514451875,1.34566844 C-0.382754262,1.91692888 -0.235887666,2.57325056 -0.0776446032,3.30462636 C0.374780515,5.39566767 0.827305443,7.66721028 1.24959568,10.039 C1.87360895,13.5437655 2.37606739,16.9586611 2.71295159,20.1656618 C2.8687498,21.6487974 2.98708822,23.0705144 3.06506313,24.4227036 C3.17185776,26.2746651 3.15506147,28.0376066 3.04344969,31.1846694 C3.03287975,31.4811241 3.03287975,31.4811241 3.02218465,31.7778831 C2.77608225,38.6058673 2.8876938,41.5132191 3.88336683,44.789189 C5.22973649,49.2190232 8.1509866,52.2761371 13.1483646,53.9692401 C18.599465,55.7926805 23.4665838,55.7566499 28.2521741,54.1380512 C31.8400009,52.9245643 34.4300078,51.4007231 40.0078873,47.5899992 C40.0300036,47.5748896 40.0300036,47.5748896 40.0521176,47.5597818 C48.6246192,41.7032055 52.7217452,39.845555 58.960519,40.2115879 C65.2276952,40.5792873 68.820923,42.3928241 75.1299761,47.3103784 C75.4472134,47.5577821 75.6408233,47.7087995 75.765013,47.8055615 C83.7400753,54.0193086 88.7141235,55.9294504 98.2962498,54.45848 C104.013757,53.5807747 107.23065,51.3483791 108.372753,47.7760313 C109.232813,45.0858811 108.952325,42.320211 107.743514,37.2167893 C107.689471,36.9886302 107.638429,36.7748137 107.553021,36.4182056 C106.607735,32.4713455 106.30912,30.8694808 106.30912,29.0457159 C106.30912,26.3608604 106.540634,22.6282299 106.956935,18.1219026 C107.123522,16.318651 107.316646,14.4259443 107.531081,12.4728391 C107.799037,10.0322684 108.086182,7.62259354 108.373316,5.35012452 C108.473798,4.55487804 108.567088,3.83368525 108.650787,3.19981604 C108.700948,2.81993976 108.736722,2.55389321 108.755711,2.41494053 L108.904372,1.3271299 L107.806616,1.30807072 L0.28577857,-0.558700313 L-0.976060842,-0.580608302 L-0.678694636,0.64588752 Z"/>
          </g>
          <path fill="#CEE9F1" d="M2.75009405,7.6665617 C2.75009405,7.6665617 33.4354813,29.7185705 54.316263,29.7185705 C75.1970446,29.7185705 82.6165735,32.5036509 86.5946975,37.3807673 C90.5728216,42.2578838 88.3135943,54.3370391 88.3135943,54.3370391 C88.3135943,54.3370391 99.3584451,55.0183043 102.879753,53.4447057 C106.401062,51.871107 109.072427,49.3134585 109.072427,44.1641182 C109.072427,39.0147779 106.401062,29.7185705 106.401062,29.7185705 L108.585484,2.78796527 C108.585484,2.78796527 86.9136816,23.511222 52.7876345,23.511222 C18.6615874,23.511222 2.75009405,7.6665617 2.75009405,7.6665617 Z" style="mix-blend-mode:darken"/>
        </g>
        <g stroke-linecap="round" stroke-linejoin="round">
          <use fill="#FFFFFF" xlink:href="#b"/>
          <path stroke="#297BCC" stroke-width="1.95" d="M205.888974,210.257085 C206.031723,210.556037 206.206061,210.859882 206.416571,211.163284 C207.594256,212.860646 209.601955,213.964005 212.529154,214.219352 C215.825081,214.506852 218.110081,213.155876 219.441921,210.77818 C219.465374,210.73631 219.488381,210.694458 219.510949,210.652637 C219.547509,210.713292 219.585241,210.773643 219.624164,210.833664 C220.873396,212.760064 223.100837,213.990135 226.421173,214.220698 C230.127644,214.478074 232.489129,212.600635 233.645138,209.444972 C233.925117,208.680687 234.119176,207.879733 234.242498,207.068826 C236.320785,208.435492 239.27281,208.800838 243.159636,207.664545 C246.477451,206.694554 247.267183,204.442562 245.874548,201.810996 C245.373897,200.864949 244.613346,199.889575 243.66068,198.899252 C243.068582,198.28375 242.437172,197.698979 241.805848,197.162015 C241.649193,197.028774 241.500265,196.905108 241.36084,196.791832 C241.37521,196.458948 241.389502,196.079045 241.402889,195.656096 C241.555914,190.82172 241.473971,185.458071 240.983612,180.385089 C240.757918,178.050182 240.452062,175.889808 240.057618,173.938237 C239.653229,171.937275 239.200639,170.145333 238.707745,168.550668 C238.007643,166.285624 237.255512,164.503608 236.491046,163.14618 C237.020065,163.290722 237.634123,163.485734 238.356296,163.733877 C238.520763,163.790389 238.690623,163.84937 238.910029,163.92601 C240.966243,164.644252 241.747996,164.89727 242.546164,165.034583 C242.559298,165.04388 242.572797,165.053045 242.586699,165.062094 C243.082075,165.384544 243.789346,165.251158 244.06779,164.635581 C244.210559,164.319952 244.194401,164.090973 244.108762,163.641495 C244.016904,163.159381 243.801181,162.379145 243.475178,161.338939 C242.807901,159.209801 241.726108,156.143237 240.457324,152.806123 C237.299779,144.50125 233.703699,136.315042 230.54143,130.598199 C229.864443,129.37435 229.063362,128.091821 228.148225,126.756547 C226.716235,124.667136 225.023918,122.47525 223.124575,120.216385 C220.971733,117.656039 218.667385,115.142631 216.363163,112.780766 C215.556671,111.954099 214.807533,111.205152 214.134763,110.547128 C213.898856,110.316392 213.689198,110.113365 213.508167,109.939701 C213.398839,109.834822 213.322909,109.762625 213.282755,109.724765 L213.282755,109.724765 L212.326629,108.823252 L211.741039,109.999682 L182.099672,169.548174 L181.915737,169.917693 L182.053033,170.306957 C182.087211,170.403859 182.151351,170.575741 182.245045,170.812025 C182.399031,171.200356 182.581694,171.631671 182.792693,172.095439 C183.39551,173.420409 184.106947,174.745803 184.926355,175.988299 C185.867785,177.415822 186.893905,178.64327 188.010373,179.6099 C188.332644,179.888903 188.653652,180.157011 189.082623,180.508205 C189.196422,180.60137 189.340924,180.719271 189.593023,180.924975 C189.791595,181.0872 189.940812,181.20985 190.084101,181.328932 C193.392143,184.078136 194.653655,186.427794 195.246009,192.597493 C195.510941,195.356183 195.081095,197.860591 193.939975,201.7046 C192.576373,206.29807 192.491048,206.630736 192.483742,208.151496 C192.472932,210.401698 193.527589,212.006157 195.844053,212.963791 C199.551249,214.496305 202.727951,213.51492 205.215641,210.995426 C205.460324,210.747615 205.68471,210.499918 205.888974,210.257085 Z"/>
        </g>
        <path fill="#E6F9FF" d="M213.812755,110.822919 C213.812755,110.822919 225.822319,122.961497 231.188157,133.821744 C236.553996,144.681991 243.803117,165.407699 243.803117,165.407699 L235.844792,162.850153 C235.844792,162.850153 240.436123,173.643361 240.436123,178.520478 C240.436123,183.397594 241.27496,196.766406 241.27496,196.766406 C241.27496,196.766406 246.297804,201.753582 246.297804,204.173379 C246.297804,206.593176 242.726167,208.393549 239.584393,208.393549 C236.442619,208.393549 233.023459,204.605967 233.023459,204.605967 C233.023459,204.605967 233.945032,206.32381 233.931534,206.5642 C233.918035,206.804591 231.978375,213.46389 227.238367,214.035836 C221.758265,214.697084 219.444554,209.628629 219.444554,209.628629 C219.444554,209.628629 218.330207,213.700724 213.186118,214.035836 C208.04203,214.370949 206.162966,209.073836 206.162966,209.073836 C206.162966,209.073836 203.386902,213.339916 199.528506,213.339916 C194.554519,213.339916 193.271275,210.23138 193.271275,209.628629 C193.271275,209.025878 198.693705,210.827638 200.919716,205.652581 C202.118398,202.865873 206.162966,206.5642 206.162966,206.5642 C206.162966,206.5642 207.903965,211.372919 210.027946,211.54702 C212.151926,211.721121 212.262757,207.458082 214.406835,205.652581 C218.072417,202.565842 219.444554,207.732857 219.444554,207.732857 C219.444554,207.732857 222.475199,213.080576 225.870635,212.154255 C229.266071,211.227934 226.050773,207.495014 227.543357,204.605967 C229.035941,201.716921 233.023459,204.173379 233.023459,204.173379 C233.023459,204.173379 237.889094,204.196812 238.776897,201.836342 C239.6647,199.475873 236.26758,197.190783 236.26758,197.190783 C236.26758,197.190783 233.474958,170.004876 222.704828,165.014323 C211.934699,160.02377 183.332727,170.192336 183.332727,170.192336 C183.332727,170.192336 200.549893,154.179485 205.812814,140.053089 C211.075735,125.926694 213.812755,110.822919 213.812755,110.822919 Z" style="mix-blend-mode:darken"/>
        <g transform="translate(40.526)">
          <g stroke-linecap="round" stroke-linejoin="round">
            <use fill="#FFFFFF" xlink:href="#c"/>
            <path stroke="#297BCC" stroke-width="1.95" d="M60.7924335,26.5174428 C42.3341669,33.2825961 28.5762086,43.1828008 19.3280816,57.341537 C18.062705,58.6484198 16.5785654,60.5646376 14.7745507,63.1500489 C14.3295581,63.787787 13.8656681,64.4653771 13.3664,65.2054004 C12.6519336,66.2643938 9.84842595,70.5043493 9.23099243,71.4116509 C8.86273897,71.9527189 8.48566333,72.5246441 8.10036931,73.1257914 C7.26481745,74.4294445 6.3960933,75.8618059 5.50201476,77.4022479 C3.98192183,80.0212739 2.46108157,82.8245362 1.01121833,85.6274358 C0.503894857,86.608202 0.0415834782,87.5190525 -0.366665695,88.3368018 C-0.509704341,88.6233174 -0.635819769,88.8778373 -0.743878861,89.0974606 C-0.808966402,89.229747 -0.853396335,89.32065 -0.877022973,89.3692896 L-1.8887206,91.4522278 L0.308188784,90.7202764 L7.45389091,88.3395197 C7.22644859,89.439871 7.02099076,90.5460708 6.83771136,91.6575665 L1.32895739,105.029576 L0.517478887,106.999368 L2.53864483,106.32597 L5.71647315,105.267202 C5.71640314,105.31178 5.71636814,105.356366 5.71636814,105.400959 C5.71636814,151.773138 43.3818625,189.420541 89.7758559,189.420541 C136.169697,189.420541 173.835344,151.773058 173.835344,105.400959 C173.835344,69.5232489 151.079728,37.928211 117.762409,26.1583522 C114.260142,24.4011111 111.100207,22.7904519 108.63051,21.4932079 C105.740286,19.9749674 104.428269,18.0185854 102.394858,13.1752412 C102.264099,12.8635298 102.191543,12.690571 102.132249,12.5495927 C102.031369,12.3097368 101.94684,12.1099469 101.86491,11.9180755 C101.026436,9.95446152 100.360218,8.61889354 99.5122927,7.3296231 C98.5610344,5.88326844 97.3905769,4.66162707 96.0517243,3.64676802 C94.7280429,2.64340876 93.3133314,1.89374858 91.8976211,1.35884466 C91.0409362,1.03515969 90.364447,0.853039569 89.9557669,0.776310624 L88.5862592,0.519188032 L88.8139617,1.89389348 C88.8256789,1.96463373 88.8472858,2.10603389 88.8755172,2.3098686 C88.9231411,2.65372081 88.9708975,3.04372008 89.0155333,3.47159373 C89.2126477,5.36110767 89.2840891,7.30521063 89.15704,9.10624534 C89.094361,9.99477784 88.9841843,10.8173665 88.8230298,11.5600446 C88.4904704,13.0925579 87.5096028,14.6669849 86.0726704,16.1901308 C85.4197666,16.8822077 84.7173526,17.516213 84.0152818,18.076243 C83.9988108,18.0893816 83.9824221,18.1024133 83.9661176,18.1153374 L80.5971702,11.861726 L80.1140863,10.965001 L79.2393235,11.4868017 C79.1235016,11.5558901 78.9053551,11.6883459 78.5939537,11.8810466 C78.0774404,12.2006743 77.4858506,12.5742809 76.8282489,12.9987506 C74.9515649,14.2101151 72.9199553,15.5873557 70.8058431,17.1056806 C70.2159752,17.5292874 69.6012605,18.0067819 68.9631506,18.534589 C68.0263919,19.3094208 67.0483495,20.1849064 66.0332986,21.1489499 C64.9664595,22.1621791 63.898423,23.2345932 62.7972451,24.3846521 C62.3817842,24.8185553 61.9796172,25.2445682 61.5440073,25.7106816 C61.3827436,25.8832378 61.0100857,26.283649 60.7924335,26.5174428 L60.7924335,26.5174428 Z"/>
          </g>
          <path fill="#E6F9FF" d="M89.5828818,0 C89.5828818,0 95.8780828,6.9039926 96.1303546,14.8590831 C96.3826264,22.8141736 87.7348209,25.848106 86.5930011,25.2403215 C85.4511813,24.632537 83.2395052,16.3813885 82.4788917,14.6830352 C81.7182782,12.9846819 79.5179963,10.4896216 79.5179963,10.4896216 C79.5179963,10.4896216 81.7828454,24.5814392 78.9736729,27.473655 C76.1645004,30.3658708 81.0945951,31.4528969 88.2039825,30.4926173 C95.3133698,29.5323378 104.406749,23.3465089 109.503759,24.2934152 C114.600769,25.2403215 118.914177,26.8349324 118.914177,26.8349324 C118.914177,26.8349324 107.192933,21.5612793 105.080007,18.1221572 C102.967081,14.6830352 101.009475,6.71976104 97.9346378,4.50958122 C94.8598003,2.29940139 89.5828818,0 89.5828818,0 Z" style="mix-blend-mode:darken"/>
          <path fill="#E6F9FF" d="M14.560955,140.462176 C14.560955,140.462176 37.2894934,188.525101 87.5582975,188.525101 C137.827102,188.525101 161.848941,153.136022 168.288386,134.10472 C174.727832,115.073418 174.288435,98.7037537 165.169314,69.6959042 C156.050192,40.6880548 116.953556,27.0891732 116.953556,27.0891732 C116.953556,27.0891732 148.534763,52.6187888 153.510466,85.9887862 C153.728151,87.4487072 158.818038,93.4719341 158.929004,94.9603871 C159.039969,96.4488401 154.136301,92.553138 154.156705,93.6335439 C154.217989,96.8785027 159.466081,107.344573 158.929004,110.690308 C158.391926,114.036042 152.708322,107.548381 152.144463,109.579025 C149.204693,120.16613 142.829609,131.08587 131.540254,141.888632 C109.484231,162.993998 87.3889344,167.940713 68.4351887,165.928786 C67.2940662,165.807657 68.1822795,172.940974 67.0646256,172.771407 C65.9469716,172.601839 60.9736094,164.788934 59.0027877,164.332093 C32.7747712,158.252381 14.560955,140.462176 14.560955,140.462176 Z" style="mix-blend-mode:multiply"/>
        </g>
        <g transform="translate(68.32 55.506)">
          <g stroke-linecap="round" stroke-linejoin="round">
            <use fill="#C6F1FF" xlink:href="#d"/>
            <path stroke="#297BCC" stroke-width="1.734" d="M59.7754968,13.0191424 C57.8726312,12.2108231 55.9773209,11.3659818 54.2033684,10.520566 C53.0093772,9.95154349 51.9086356,9.40004718 50.9209719,8.87254847 C49.7421553,8.2429574 48.7408366,7.65625192 47.9439442,7.12265075 C45.9343165,5.77710004 44.1764444,3.94582068 42.693547,1.86653068 L42.3885432,1.4388602 L41.8682523,1.51115681 C17.6808515,4.87209826 0.870059289,14.5950224 0.870059289,26.0446727 C0.870059289,40.4622286 27.4168902,51.801455 60.0078184,51.801455 C92.5985948,51.801455 119.145577,40.462195 119.145577,26.0446727 C119.145577,11.7318316 92.9726194,0.43838842 60.6526097,0.289292965 L60.1925984,0.287170887 L59.9329026,0.666872041 C58.6423314,2.55381536 57.8270244,4.58509415 57.7473063,6.69572037 C57.6669984,8.81801015 58.4424917,10.9559985 59.7754968,13.0191424 Z"/>
          </g>
          <path fill="#5588BB" d="M22.7172432,46.0447835 C22.7172432,46.0447835 -6.63138455,38.1529644 2.19800821,20.9391518 C11.027401,3.72533915 41.5635101,1.86900318 41.5635101,1.86900318 C41.5635101,1.86900318 46.4215686,8.30651978 48.4333209,8.23742823 C49.0105703,8.2176032 59.8395782,12.9340207 59.8395782,12.9340207 C59.8395782,12.9340207 58.4289832,10.9974618 58.4736421,7.19539013 C58.518301,3.39331844 58.9130013,7.04558897 58.9250482,6.90425041 C59.1658499,4.07907263 58.7870279,1.77278763 60.7461821,0.976387467 C65.9046843,-1.12055407 67.5539797,0.976387467 67.5539797,0.976387467 C67.5539797,0.976387467 64.8126155,5.56049869 67.4922908,10.5639016 C70.1719662,15.5673044 72.3009134,15.4339128 71.2686207,16.5704589 C70.2363279,17.707005 67.0611682,18.390488 60.7461821,14.6082181 C54.4311961,10.8259481 44.6009242,5.86848202 44.6009242,5.86848202 C44.6009242,5.86848202 19.6897645,10.5462085 14.1883746,20.365363 C3.88565451,38.7541703 22.7172432,46.0447835 22.7172432,46.0447835 Z" opacity=".196" style="mix-blend-mode:multiply"/>
        </g>
        <g transform="translate(87.576 81.055)">
          <path fill="#297BCC" d="M8.92182418,0 C13.8457882,0 17.8436484,3.99570772 17.8436484,8.91753902 C17.8436484,13.8391381 13.8457882,17.835078 8.92182418,17.835078 C3.99762778,17.835078 0,13.8391381 0,8.91753902 C0,3.99570772 3.99762778,0 8.92182418,0 Z"/>
          <path fill="#297BCC" d="M12.6435978,0.811768946 C15.7115037,2.22274582 17.8436484,5.32318163 17.8436484,8.91753902 C17.8436484,13.8391381 13.8457882,17.835078 8.92182418,17.835078 C7.83769394,17.835078 6.8148476,17.5395328 5.83694552,17.2867682 C5.17740966,17.1162938 12.1079205,16.1457697 13.8805607,11.5063592 C16.3049748,5.16110526 12.6435978,0.811768946 12.6435978,0.811768946 Z" opacity=".48" style="mix-blend-mode:multiply"/>
          <path fill="#FFFFFF" d="M9.70711763,6.79372428 C12.1689835,6.79372428 14.1680297,8.79157814 14.1680297,11.2524938 C14.1680297,13.7134094 12.1689835,15.7112633 9.70711763,15.7112633 C7.24501943,15.7112633 5.24620553,13.7134094 5.24620553,11.2524938 C5.24620553,8.79157814 7.24501943,6.79372428 9.70711763,6.79372428 Z"/>
          <g transform="translate(56.168)">
            <path fill="#297BCC" d="M8.92182418,0 C13.8457882,0 17.8436484,3.99570772 17.8436484,8.91753902 C17.8436484,13.8391381 13.8457882,17.835078 8.92182418,17.835078 C3.99762778,17.835078 0,13.8391381 0,8.91753902 C0,3.99570772 3.99762778,0 8.92182418,0 Z"/>
            <path fill="#297BCC" d="M12.6412561,0.809479137 C15.709162,2.22045602 17.8413067,5.32089182 17.8413067,8.91524921 C17.8413067,13.8368483 13.8434466,17.8327882 8.9194825,17.8327882 C7.83535226,17.8327882 6.81250592,17.537243 5.83460383,17.2844784 C5.17506798,17.114004 12.1055788,16.1434799 13.878219,11.5040693 C16.3026331,5.15881545 12.6412561,0.809479137 12.6412561,0.809479137 Z" opacity=".48" style="mix-blend-mode:multiply"/>
            <path fill="#FFFFFF" d="M6.77711763,6.79372428 C9.23898349,6.79372428 11.2380297,8.79157814 11.2380297,11.2524938 C11.2380297,13.7134094 9.23898349,15.7112633 6.77711763,15.7112633 C4.31501943,15.7112633 2.31620553,13.7134094 2.31620553,11.2524938 C2.31620553,8.79157814 4.31501943,6.79372428 6.77711763,6.79372428 Z"/>
          </g>
        </g>
        <g transform="translate(77.585 113.325)">
          <mask id="f" fill="white">
            <use xlink:href="#e"/>
          </mask>
          <use fill="#297BCC" xlink:href="#e"/>
          <g transform="translate(34.164 15.033)" mask="url(#f)">
            <mask id="h" fill="white">
              <use xlink:href="#g"/>
            </mask>
            <use fill="#82C2DC" xlink:href="#g"/>
            <path fill="#2268AC" d="M20.3623159,15.7953399 C20.3623159,15.7953399 31.3914008,13.8644845 32.6730915,9.18685712 C33.9547823,4.50922973 31.7392825,0.380233621 31.7392825,0.380233621 C31.7392825,0.380233621 39.362506,1.34345179 42.7988104,3.39750482 C46.2351149,5.45155786 49.9032958,8.57354707 49.9032958,8.57354707 C49.9032958,8.57354707 41.0289587,12.8570759 35.9507437,14.3262079 C30.8725286,15.7953399 20.3623159,15.7953399 20.3623159,15.7953399 Z" opacity=".165" style="mix-blend-mode:multiply" mask="url(#h)"/>
          </g>
          <path fill="#2268AC" d="M33.4695874,28.8946795 C33.4695874,28.8946795 24.4162897,20.8374528 46.7289943,13.6614161 C55.3604336,10.8854405 78.466757,13.0038824 79.2497922,13.1721682 C88.5550702,15.1720103 95.070126,18.072272 95.070126,18.072272 C95.070126,18.072272 112.52889,4.70677962 107.292569,0.786511948 C102.056248,-3.13375572 63.4539894,6.30506983 56.9652104,6.30506983 C50.4764315,6.30506983 1.04241127,-1.33912739 -0.271406297,2.75818754 C-1.58522387,6.85550246 4.8868365,16.0260923 15.2769137,20.8374528 C25.6669909,25.6488132 33.4695874,28.8946795 33.4695874,28.8946795 Z" opacity=".522" style="mix-blend-mode:multiply" mask="url(#f)"/>
        </g>
        <path fill="#FFFFFF" stroke="#2279CF" stroke-width="1.95" d="M43.5147595,111.212951 C42.7363622,112.639766 20.6113086,130.411 20.6113086,130.411 L4.81989608,147.403751 L15.8452508,145.682983 C15.8452508,145.682983 4.75516443,169.359176 7.67953075,174.339377 C15.37932,187.452133 42.0280911,199.213377 62.0339395,201.159943 C82.0397879,203.106509 108.784006,198.538254 108.784006,198.538254 C108.784006,198.538254 120.007789,197.658609 122.86868,189.198488 C125.72957,180.738368 126.233177,178.778569 126.233177,178.778569 C126.233177,178.778569 125.755944,185.120425 125.994561,186.081999 C126.233177,187.043572 130.511955,191.810475 134.253216,188.946237 C137.994477,186.081999 139.186305,174.750094 139.985044,171.537663 C140.783782,168.325232 135.230289,162.749832 132.918217,163.568031 C130.606145,164.386231 131.497819,158.373164 128.865498,157.411591 C126.233177,156.450017 121.382976,156.183752 121.382976,156.183752 C121.382976,156.183752 121.871512,151.610889 116.6772,151.610889 C111.482888,151.610889 103.972736,164.928464 103.972736,164.928464 C103.972736,164.928464 85.2631204,167.113011 72.1286885,162.426899 C58.9942566,157.740787 65.8932289,152.124652 64.3686171,150.074743" stroke-linecap="round" stroke-linejoin="round" transform="rotate(6 72.441 156.428)"/>
        <path fill="#DBF3FB" d="M66.6587964 150.439557C66.6587964 150.439557 57.4739638 142.812701 54.4097081 139.699181 51.3454524 136.585661 47.3774714 128.808995 47.3774714 128.808995 47.3774714 128.808995 42.0828629 150.805761 48.2462855 158.614926 49.6609942 160.407387 54.8855417 163.19573 54.8855417 163.19573L64.6910714 170.572809 62.4821414 164.940254 79.0213464 168.988306 81.7983777 166.424091C81.7983777 166.424091 64.8418245 162.467986 64.6910714 157.751732 64.5403183 153.035479 66.6587964 150.439557 66.6587964 150.439557zM7.38901409 167.208019C7.38901409 167.208019 26.7623779 185.123442 44.8916317 187.883442 63.0208854 190.643441 80.8946523 193.907564 80.8946523 193.907564L82.0990905 201.789653C82.0990905 201.789653 59.8193651 202.240669 41.2386453 194.516317 22.6579256 186.791966 9.61698663 173.861504 8.50300036 172.049511 7.38901409 170.237519 7.38901409 167.208019 7.38901409 167.208019zM133.612228 171.741964C133.612228 171.741964 132.912416 183.227429 131.80557 185.536412 130.698725 187.845394 127.190144 190.453998 126.987024 187.995205 126.783904 185.536412 124.118748 177.020998 124.118748 177.020998 124.118748 177.020998 116.13756 190.809104 110.912774 192.869195 105.687988 194.929287 98.6636855 195.027575 98.6636855 195.027575 98.6636855 195.027575 98.0463911 184.647061 98.3550383 182.436367 98.6636855 180.225672 99.3571499 181.331416 102.880012 178.465994 106.402875 175.600573 104.392304 169.027146 104.392304 169.027146 104.392304 169.027146 102.186548 176.285421 100.425117 176.653209 98.6636855 177.020998 94.1387113 183.56589 94.8916835 189.296732 95.6446557 195.027575 97.4973323 202.59419 97.4973323 202.59419 97.4973323 202.59419 106.539346 202.7979 111.764132 200.939934 116.988918 199.081968 121.656711 190.710023 121.656711 190.710023L123.614915 184.972839C123.614915 184.972839 122.259724 192.381717 124.623374 193.704646 126.987024 195.027575 128.310478 197.472893 130.961353 195.171044 133.612228 192.869195 136.893885 184.031966 136.893885 184.031966 136.893885 184.031966 139.485252 177.766086 138.189569 176.006409 136.893885 174.246731 133.612228 171.741964 133.612228 171.741964z" style="mix-blend-mode:darken"/>
        <path stroke="#2279CF" stroke-width="1.95" d="M96.3144948,201.815819 C96.3144948,201.815819 94.459082,194.650401 94.8180414,188.536188 C95.1770008,182.421976 97.3307571,177.080792 97.3307571,177.080792 L84.0123219,174.512861 C84.0123219,174.512861 80.3668478,178.989236 80.3668478,188.536188 C80.3668478,198.08314 82.1985826,202.559516 82.1985826,202.559516"/>
        <g transform="rotate(8 91.855 170.17)">
          <use fill="#FFFFFF" xlink:href="#i"/>
          <path stroke="#2279CF" stroke-width="2.925" d="M91.8554783,177.040895 C97.9517712,177.040895 103.084645,174.403967 103.084645,170.560933 C103.084645,166.601554 98.3211487,163.29871 92.558831,163.29871 C86.5929056,163.29871 80.6263116,166.687051 80.6263116,170.560933 C80.6263116,174.403967 85.7591853,177.040895 91.8554783,177.040895 Z"/>
        </g>
        <path fill="#2279CF" d="M84.0391607,167.104939 C84.4103639,166.574727 87.1921832,166.59179 88.8906775,167.104939 C90.5891719,167.618089 91.8554783,169.033274 91.8554783,169.033274 C91.8554783,169.033274 92.2071694,169.044332 91.4085333,169.510658 C90.6098972,169.976983 89.2844419,169.307731 87.5155544,169.033274 C85.7466668,168.758817 83.6679574,167.635152 84.0391607,167.104939 Z"/>
        <g transform="rotate(33 43.348 129.095)">
          <use fill="#81BFF1" xlink:href="#j"/>
          <use fill="black" xlink:href="#j"/>
          <path stroke="#FFFFFF" stroke-width="4.875" d="M6.01151665,135.52598 L7.90253052,135.385765 L7.72169498,132.954982 L5.83071554,133.09566 L6.01151665,135.52598 Z M12.4812082,125.277086 C12.4583563,125.230998 12.4376587,125.184589 12.4190425,125.138095 C12.3814862,125.044298 12.3858554,125.066746 12.3940079,125.162442 C12.4033435,125.258378 12.4053274,125.29009 12.4053274,125.277086 L12.4812082,125.277086 Z M11.8916153,123.221396 C11.8829349,123.221415 11.8742433,123.221425 11.8655406,123.221425 L11.9202476,123.222039 L11.8916153,123.221396 Z M14.1719245,125.277086 L13.9716032,126.346531 C13.188129,126.199776 12.7185126,125.75569 12.4812082,125.277086 L14.1719245,125.277086 Z M14.6780265,125.277086 L14.4203746,123.950699 L14.1719245,125.277086 L14.6780265,125.277086 Z M4.04865682,127.894418 L6.49820148,128.032283 L4.20246671,125.445823 L4.04865682,127.894418 Z M2.25891269,127.793688 L4.04865682,127.894418 L3.57884583,135.373631 L3.40352325,138.1647 L6.19238662,137.957225 L8.08336607,137.816548 L10.513554,137.635757 L10.3333574,135.205525 C10.312177,134.919873 10.2997969,134.347864 10.2997969,133.526813 C10.2997969,132.759569 10.4357141,130.909147 10.7064636,128.070628 L11.8108337,128.095811 L11.8655406,128.096425 C13.1839312,128.096425 14.4017327,127.940241 15.5165263,127.619635 L17.2803274,127.11238 L17.2803274,125.277086 C17.2803274,125.103308 17.2689003,124.920656 17.2480898,124.712758 C17.106951,123.052891 16.6399551,121.886563 14.8691459,121.554867 L14.4120693,121.46925 L13.955576,121.557925 C13.1210979,121.720023 12.2819447,121.812527 11.4367488,121.83566 L10.1776864,121.876206 C9.04691056,121.874941 7.5530772,121.798082 5.78146062,121.643058 C4.76302758,121.546757 3.73419079,121.476838 2.71179873,121.434863 L2.61181145,121.432812 C1.57828624,121.432812 0.7307828,121.956935 0.18591215,122.743186 C-0.196173091,123.294538 -0.429192631,123.915305 -0.429192631,124.613893 C-0.429192631,125.049911 -0.349186943,125.476183 -0.2043249,125.894257 C0.149770473,126.916181 0.944421176,127.756476 2.25891269,127.793688 Z M19.6281129,125.911746 L19.4702672,123.643457 L17.1964933,123.643457 L15.9291347,123.643457 L13.4916347,123.643457 L13.4916347,126.080957 L13.4916347,135.064217 L13.4916347,135.506632 L13.6471128,135.920828 C13.9597773,136.75377 14.5868348,137.293798 15.3333719,137.585631 C15.7625537,137.753404 16.2127906,137.843362 16.6734564,137.843362 C18.3052342,137.843362 19.7037586,136.941047 20.0320652,135.246485 L20.0851427,134.972524 L20.0749301,134.693656 C19.953307,131.372602 19.804454,128.445819 19.6281129,125.911746 Z M12.8881307,123.347796 L12.8881307,123.995669 L13.2098072,124.558042 C13.5728881,125.192801 14.1160122,125.678866 14.7747209,125.987328 C15.3049761,126.235638 15.8707202,126.368102 16.4521716,126.368102 C17.3649667,126.368102 18.2347686,126.006045 18.8376025,125.253253 C19.2744772,124.707703 19.5334093,124.04485 19.5334093,123.31765 C19.5334093,122.955409 19.4832126,122.596024 19.3870084,122.243626 L19.1562762,121.39845 L18.4402898,120.893551 C17.7693329,120.420406 16.9857278,120.206908 16.1504196,120.206908 C14.3328106,120.206908 12.8881307,121.438944 12.8881307,123.347796 Z M20.8410015,132.04548 L20.8410015,131.868829 C20.8410015,132.005991 20.8284687,132.079027 20.819011,132.111466 C20.8242203,132.093599 20.8315428,132.071511 20.8410015,132.04548 Z M25.6707562,127.109378 C25.7160495,127.001217 25.7714189,126.903016 25.8338615,126.816784 C25.9038409,126.720144 25.9387043,126.688389 25.9303073,126.694063 C25.8025609,126.779076 25.6739653,126.867398 25.5574256,126.950557 L25.6707562,127.109378 Z M17.5773614,132.200023 C17.5822069,132.2506 17.5878281,132.301364 17.5942054,132.352331 L20.0128457,132.0497 L17.5753457,132.0497 C17.5753457,132.100043 17.5760183,132.150154 17.5773614,132.200023 Z M29.4463341,130.081441 C30.0526461,129.457564 30.4165995,128.697184 30.4165995,127.769087 C30.4165995,126.401724 29.7978382,125.189208 28.5452774,124.563551 C28.1742286,124.359595 27.6866068,124.219075 27.175327,124.167998 C26.9233982,124.14283 26.6771885,124.125867 26.4365501,124.117282 C26.2162456,124.109421 25.9505718,124.105683 25.635492,124.105683 C25.1507191,124.105683 24.625751,124.174302 24.0388518,124.302559 C22.5073591,124.601292 21.0060406,125.265987 19.602852,126.267267 C18.9352882,126.733962 18.3252509,127.269389 17.795498,127.860358 C17.2326853,128.488207 16.7909755,129.145209 16.4809552,129.836898 C16.1512021,130.572614 15.9660015,131.207836 15.9660015,131.868829 L15.9660015,132.351152 C15.9660015,134.392823 17.0425424,136.03922 18.9118199,137.00751 C19.5934914,137.35775 20.3159912,137.606311 21.0798792,137.757052 C21.7725973,137.893749 22.435711,137.963943 23.0705997,137.963943 C23.7485306,137.963943 24.668847,137.831487 25.9330085,137.57282 C26.505935,137.458375 27.1022248,137.320348 27.7109483,137.161079 C28.3463655,136.994826 28.9393321,136.81138 29.4904499,136.609763 C30.0981802,136.387436 30.6335256,136.142314 31.1005746,135.866172 C31.9708804,135.351606 32.536459,134.828443 32.7742625,133.830663 C32.8484701,133.519301 32.8909662,133.256087 32.8909662,132.954055 C32.8909662,131.003691 31.3899756,130.074426 29.7393197,130.074426 C29.6417703,130.074426 29.5441048,130.076773 29.4463341,130.081441 Z M25.0191611,131.418276 L25.3780357,133.067456 L28.3890931,130.918842 C28.4603112,130.868023 28.5462927,130.808969 28.6462777,130.742379 C28.9441918,130.541068 29.213182,130.321347 29.4463341,130.081441 C28.7739525,130.113543 28.0965964,130.25543 27.4177989,130.498858 C26.8620393,130.698163 26.2969535,130.914741 25.7224563,131.148563 L25.7224563,131.148563 C25.4917682,131.242453 25.257343,131.33236 25.0191611,131.418276 Z M43.2477182,135.52598 L45.1387321,135.385765 L44.9578965,132.954982 L43.0669171,133.09566 L43.2477182,135.52598 Z M49.7174098,125.277086 C49.6945578,125.230998 49.6738602,125.184589 49.655244,125.138095 C49.6176877,125.044298 49.622057,125.066746 49.6302094,125.162442 C49.639545,125.258378 49.641529,125.29009 49.641529,125.277086 L49.7174098,125.277086 Z M49.1278169,123.221396 C49.1191364,123.221415 49.1104449,123.221425 49.1017422,123.221425 L49.1564492,123.222039 L49.1278169,123.221396 L49.1278169,123.221396 Z M51.4081261,125.277086 L51.2078048,126.346531 C50.4243306,126.199776 49.9547141,125.75569 49.7174098,125.277086 L51.4081261,125.277086 Z M51.914228,125.277086 L51.6565761,123.950699 L51.4081261,125.277086 L51.914228,125.277086 Z M41.2848584,127.894418 L43.734403,128.032283 L41.4386683,125.445823 L41.2848584,127.894418 Z M39.4951142,127.793688 L41.2848584,127.894418 L40.8150474,135.373631 L40.6397248,138.1647 L43.4285882,137.957225 L45.3195676,137.816548 L47.7497556,137.635757 L47.569559,135.205525 C47.5483786,134.919873 47.5359985,134.347864 47.5359985,133.526813 C47.5359985,132.759569 47.6719157,130.909147 47.9426651,128.070628 L49.0470352,128.095811 L49.1017422,128.096425 C50.4201327,128.096425 51.6379343,127.940241 52.7527278,127.619635 L54.516529,127.11238 L54.516529,125.277086 C54.516529,125.103308 54.5051018,124.920656 54.4842914,124.712758 C54.3431525,123.052891 53.8761567,121.886563 52.1053474,121.554867 L51.6482708,121.46925 L51.1917776,121.557925 C50.3572995,121.720023 49.5181462,121.812527 48.6729504,121.83566 L47.413888,121.876206 C46.2831121,121.874941 44.7892787,121.798082 43.0176622,121.643058 C41.9992291,121.546757 40.9703923,121.476838 39.9480003,121.434863 L39.848013,121.432812 C38.8144878,121.432812 37.9669844,121.956935 37.4221137,122.743186 C37.0400285,123.294538 36.8070089,123.915305 36.8070089,124.613893 C36.8070089,125.049911 36.8870146,125.476183 37.0318767,125.894257 C37.385972,126.916181 38.1806227,127.756476 39.4951142,127.793688 Z M65.7609246,130.38759 C65.7764029,130.196006 65.7819384,129.978646 65.7819384,129.708426 C65.7819384,129.072643 65.6237016,128.446913 65.3431063,127.792842 C64.6655711,126.190857 63.3730846,125.049528 61.6369157,124.45728 C60.9243073,124.207053 60.2811869,124.06549 59.6630635,124.06549 L59.0997931,124.06549 L58.9719837,124.06549 L58.8448751,124.078856 C56.9178934,124.281494 55.2148741,124.883501 53.7751858,125.895607 C51.7674215,127.311438 50.6876027,129.320863 50.6876027,131.708055 C50.6876027,133.71384 51.2271394,135.347509 52.4638761,136.46838 C53.6155189,137.512129 55.1561233,137.984039 56.9875288,137.984039 C59.2614801,137.984039 61.2503458,137.387974 62.8747931,136.170851 C64.7426835,134.756634 65.7271969,132.759861 65.7609246,130.38759 L65.7609246,130.38759 Z M56.8675538,132.190378 C56.9015452,132.242349 56.9280054,132.293717 56.9475293,132.343364 C56.9588838,132.372238 56.9506621,132.320467 56.9506621,132.190378 L56.8675538,132.190378 Z M57.1113361,131.760201 C57.3057968,131.12623 57.5562088,130.754862 57.8246166,130.581982 C58.0545435,130.431148 58.2646754,130.343798 58.4868118,130.298853 C58.8630666,130.222725 59.2374469,130.150117 59.6099585,130.081025 C59.6265078,130.139701 59.6395798,130.238659 59.6395798,130.401764 C59.6395798,130.952759 59.5324653,131.165348 59.2553046,131.342554 C59.0605577,131.464749 58.8018341,131.564904 58.4813999,131.628928 C58.1027616,131.70458 57.6450439,131.749733 57.1113361,131.760201 Z M66.5463769,132.04548 L66.5463769,131.868829 C66.5463769,132.005991 66.5338441,132.079027 66.5243864,132.111466 C66.5295957,132.093599 66.5369182,132.071511 66.5463769,132.04548 Z M71.3761316,127.109378 C71.4214249,127.001217 71.4767944,126.903016 71.539237,126.816784 C71.6092163,126.720144 71.6440797,126.688389 71.6356827,126.694063 C71.5079363,126.779076 71.3793407,126.867398 71.262801,126.950557 L71.3761316,127.109378 Z M63.2827369,132.200023 C63.2875823,132.2506 63.2932036,132.301364 63.2995809,132.352331 L65.7182211,132.0497 L63.2807211,132.0497 C63.2807211,132.100043 63.2813937,132.150154 63.2827369,132.200023 Z M75.1517095,130.081441 C75.7580215,129.457564 76.1219749,128.697184 76.1219749,127.769087 C76.1219749,126.401724 75.5032137,125.189208 74.2506528,124.563551 C73.879604,124.359595 73.3919822,124.219075 72.8807024,124.167998 C72.6287736,124.14283 72.3825639,124.125867 72.1419255,124.117282 C71.9216211,124.109421 71.6559472,124.105683 71.3408674,124.105683 C70.8560945,124.105683 70.3311265,124.174302 69.7442272,124.302559 C68.2127345,124.601292 66.711416,125.265987 65.3082275,126.267267 C64.6406636,126.733962 64.0306264,127.269389 63.5008735,127.860358 C62.9380608,128.488207 62.4963509,129.145209 62.1863306,129.836898 C61.8565775,130.572614 61.6713769,131.207836 61.6713769,131.868829 L61.6713769,132.351152 C61.6713769,134.392823 62.7479179,136.03922 64.6171953,137.00751 C65.2988668,137.35775 66.0213666,137.606311 66.7852547,137.757052 C67.4779727,137.893749 68.1410864,137.963943 68.7759751,137.963943 C69.4539061,137.963943 70.3742225,137.831487 71.6383839,137.57282 C72.2113105,137.458375 72.8076002,137.320348 73.4163238,137.161079 C74.0517409,136.994826 74.6447076,136.81138 75.1958254,136.609763 C75.8035556,136.387436 76.338901,136.142314 76.80595,135.866172 C77.6762559,135.351606 78.2418344,134.828443 78.479638,133.830663 C78.5538455,133.519301 78.5963416,133.256087 78.5963416,132.954055 C78.5963416,131.003691 77.095351,130.074426 75.4446951,130.074426 C75.3471457,130.074426 75.2494802,130.076773 75.1517095,130.081441 Z M70.7245365,131.418276 L71.0834112,133.067456 L74.0944686,130.918842 C74.1656866,130.868023 74.2516681,130.808969 74.3516531,130.742379 C74.6495672,130.541068 74.9185574,130.321347 75.1517095,130.081441 C74.479328,130.113543 73.8019718,130.25543 73.1231744,130.498858 C72.5674148,130.698163 72.002329,130.914741 71.4278317,131.148563 L71.4278317,131.148563 C71.1971436,131.242453 70.9627184,131.33236 70.7245365,131.418276 Z M74.707065,134.843152 C74.707065,136.516369 75.7564456,137.984039 77.647485,137.984039 C78.2231905,137.984039 78.739019,137.919625 79.2222716,137.758701 C79.7588067,137.580034 80.2335417,137.263859 80.6038162,136.832302 C81.1136314,136.23811 81.31211,135.544127 81.31211,134.823055 C81.31211,134.071538 81.0696423,133.344859 80.5506666,132.757272 C79.8898878,132.009135 79.0622967,131.762555 78.1504051,131.762555 L77.5755018,131.762555 L77.0611903,132.019455 C76.8908347,132.104548 76.6924423,132.200549 76.4666869,132.307049 C75.4329435,132.79472 74.707065,133.459446 74.707065,134.843152 Z M77.6038845,134.843152 C77.6038845,136.516369 78.6532652,137.984039 80.5443046,137.984039 C81.1200101,137.984039 81.6358386,137.919625 82.1190912,137.758701 C82.6556263,137.580034 83.1303613,137.263859 83.5006358,136.832302 C84.010451,136.23811 84.2089295,135.544127 84.2089295,134.823055 C84.2089295,134.071538 83.9664619,133.344859 83.4474862,132.757272 C82.7867074,132.009135 81.9591163,131.762555 81.0472247,131.762555 L80.4723214,131.762555 L79.9580099,132.019455 C79.7876543,132.104548 79.5892619,132.200549 79.3635065,132.307049 C78.3297631,132.79472 77.6038845,133.459446 77.6038845,134.843152 Z M83.4210074,137.984039 C85.4334728,137.984039 87.1258659,137.071594 87.1258659,134.863249 C87.1258659,133.0247 85.7476091,131.762555 83.964161,131.762555 L83.4292802,131.762555 L82.9435452,131.986518 L82.4205083,132.227679 C82.0672709,132.396756 81.7939581,132.556939 81.5421641,132.758174 C80.935843,133.242748 80.5007041,133.868728 80.5007041,134.843152 C80.5007041,136.50577 81.5153846,137.984039 83.4210074,137.984039 Z"/>
        </g>
        <use fill="#81BFF1" xlink:href="#k"/>
        <use fill="black" xlink:href="#k"/>
        <path stroke="#FFFFFF" stroke-width="4.875" d="M23.629862,207.285229 L24.796791,206.519791 L23.4609425,204.48094 L22.2891717,205.24868 L23.6250203,207.287531 L23.629862,207.285229 Z M23.5308414,198.681962 C23.5071485,198.66062 23.5015096,198.654479 23.5056306,198.660613 C23.5403393,198.711136 23.5423923,198.714346 23.5259343,198.684685 L23.5308414,198.681962 L23.5308414,198.681962 Z M22.7114361,196.669676 C22.7040084,196.67382 22.6965587,196.67796 22.6890868,196.682098 L22.737265,196.656121 L22.7114361,196.669676 Z M25.222972,197.743064 L25.6764992,199.10934 C24.8205715,199.39346 24.1170152,199.163447 23.6389169,198.773928 C23.5856381,198.73052 23.551426,198.700504 23.5308414,198.681962 L25.222972,197.743064 Z M25.5503289,197.561426 L24.9085873,196.795962 L25.222972,197.743064 L25.5503289,197.561426 Z M19.3189958,203.907993 L21.5267545,202.842948 L18.2663665,201.694288 L19.3189958,203.907993 Z M18.7112922,204.201156 L19.3189958,203.907993 L21.4237128,208.334265 L22.6236347,210.857731 L24.9608688,209.326383 L26.1326396,208.558643 L28.1725544,207.222097 L26.8349455,205.18288 C26.7297031,205.022435 26.5228122,204.667865 26.2354947,204.150046 C25.9993572,203.724467 25.5119809,202.679213 24.8064855,201.075614 L25.0025552,200.972843 L25.0507334,200.946867 C25.9529492,200.447258 26.7320262,199.875214 27.3818392,199.224687 L28.6797603,197.92534 L27.7887066,196.319437 C27.7145897,196.185859 27.6310972,196.055317 27.532073,195.912507 C27.2995685,195.565908 27.0395308,195.256354 26.7181238,194.994495 C26.0332217,194.436487 25.1497105,194.147641 24.1406754,194.482584 L23.6991203,194.629156 L23.3425929,194.928058 C22.8881819,195.309022 22.4076163,195.648903 21.8998111,195.948553 L21.0979037,196.426979 C20.4022876,196.810734 19.4253257,197.287848 18.2404217,197.814731 C17.5413618,198.11972 16.841069,198.447559 16.1550519,198.791447 L16.066548,198.83811 C15.1985165,199.318789 14.7321582,200.151025 14.6425724,201.048434 C14.5814302,201.660915 14.6723145,202.272522 14.9925854,202.849731 C15.1853907,203.197215 15.4347881,203.498174 15.7283084,203.761333 C16.4977298,204.451166 17.5687834,204.791284 18.7112922,204.201156 Z M29.5110848,195.851562 L28.2736087,193.94622 L26.2860667,195.046835 L25.4669178,195.500445 L23.3327318,196.682266 L24.516355,198.815453 L27.7380302,204.621723 L27.9525231,205.008294 L28.2891127,205.294914 C28.9432323,205.851924 29.7201414,206.013553 30.4713394,205.91303 C30.8852659,205.857639 31.2844955,205.730432 31.6538516,205.525898 C32.9533611,204.806285 33.6923026,203.426316 33.1910885,201.889467 L33.1045938,201.624253 L32.9604151,201.385438 C31.6873847,199.276817 30.5379314,197.432599 29.5110848,195.851562 Z M23.1460876,197.264897 L23.4601626,197.830939 L24.0136982,198.166566 C24.5904603,198.516276 25.2458008,198.665679 25.909482,198.620651 C26.4319731,198.585202 26.9357449,198.442702 27.3954418,198.188142 C28.1454474,197.772821 28.7029001,197.06969 28.8574742,196.162463 C28.9673572,195.517537 28.8772699,194.850329 28.5422568,194.246551 C28.384374,193.962007 28.1890323,193.702505 27.9618931,193.469614 L27.3507702,192.843015 L26.4806388,192.748313 C25.736917,192.667368 25.0255077,192.841209 24.3774909,193.200053 C22.912231,194.011451 22.278994,195.702176 23.1460876,197.264897 Z M33.4811469,198.743621 C33.5141828,198.778187 33.5406024,198.812945 33.559183,198.846432 L33.4855247,198.713681 L33.3959631,198.591096 C33.4065546,198.605593 33.4207963,198.627658 33.4380707,198.658791 C33.453823,198.68718 33.468157,198.715504 33.4811469,198.743621 Z M37.5403695,194.373329 C37.5006885,193.990415 37.3832655,193.607453 37.1729578,193.228425 C36.5743038,192.1495 35.5289166,191.445415 34.232482,191.500489 C33.8529244,191.501517 33.4044356,191.604208 32.9809014,191.786336 C32.7967908,191.865508 32.6192821,191.948406 32.4483308,192.035253 C32.2955245,192.112881 32.1160953,192.208967 31.9063262,192.325128 C31.5480142,192.523546 31.197985,192.781865 30.8328755,193.102743 C29.889186,193.894994 29.1015996,194.935411 28.5153943,196.165273 C28.2328594,196.743522 28.0140308,197.354133 27.8724323,197.974497 C27.7198159,198.643132 27.6643401,199.291318 27.7179497,199.918725 C27.7756524,200.594033 27.9012126,201.147876 28.1913557,201.670787 L28.3643316,201.982533 C29.2154913,203.516537 30.7256252,204.31351 32.5102871,204.263945 C33.1386571,204.244408 33.7535134,204.136125 34.3572051,203.94219 C34.8918876,203.770424 35.3836287,203.56239 35.8318467,203.314186 C36.3177773,203.045099 36.892335,202.60945 37.6473271,201.963554 C37.984031,201.678227 38.3292189,201.36723 38.6744547,201.037916 C39.0396751,200.689538 39.3710727,200.344225 39.6686962,200.000829 C40.0058415,199.611832 40.2867227,199.230905 40.5109211,198.848865 C40.9722923,198.062675 41.1931967,197.391561 40.9270137,196.439631 C40.8509948,196.16777 40.7697651,195.942835 40.6317387,195.694077 C39.9065492,194.387102 38.6833968,194.071298 37.5403695,194.373329 Z M47.6972346,193.957747 L48.8641636,193.192309 L47.528315,191.153457 L46.3565442,191.921198 L47.6923928,193.960049 L47.6972346,193.957747 Z M47.598214,185.354479 C47.574521,185.333137 47.5688821,185.326996 47.5730031,185.333131 C47.6077118,185.383654 47.6097649,185.386864 47.5933069,185.357202 L47.598214,185.354479 Z M46.7788087,183.342193 C46.771381,183.346337 46.7639312,183.350478 46.7564594,183.354616 L46.8046375,183.328639 L46.7788087,183.342193 Z M49.2903445,184.415582 L49.7438718,185.781858 C48.8879441,186.065978 48.1843878,185.835965 47.7062895,185.446445 C47.6530106,185.403037 47.6187985,185.373022 47.598214,185.354479 L49.2903445,184.415582 Z M49.6177015,184.233944 L48.9759598,183.46848 L49.2903445,184.415582 L49.6177015,184.233944 Z M43.3863683,190.580511 L45.5941271,189.515465 L42.333739,188.366805 L43.3863683,190.580511 Z M42.7786648,190.873673 L43.3863683,190.580511 L45.4910854,195.006783 L46.6910072,197.530248 L49.0282414,195.9989 L50.2000122,195.23116 L52.239927,193.894615 L50.9023181,191.855397 C50.7970757,191.694953 50.5901847,191.340382 50.3028673,190.822564 C50.0667297,190.396985 49.5793535,189.351731 48.8738581,187.748131 L49.0699277,187.645361 L49.1181059,187.619384 C50.0203218,187.119776 50.7993988,186.547732 51.4492118,185.897205 L52.7471329,184.597858 L51.8560792,182.991954 C51.7819623,182.858377 51.6984698,182.727835 51.5994455,182.585024 C51.366941,182.238426 51.1069034,181.928872 50.7854964,181.667013 C50.1005943,181.109004 49.2170831,180.820159 48.2080479,181.155102 L47.7664929,181.301673 L47.4099654,181.600575 C46.9555544,181.98154 46.4749889,182.32142 45.9671836,182.62107 L45.1652763,183.099496 C44.4696601,183.483252 43.4926983,183.960365 42.3077943,184.487249 C41.6087344,184.792238 40.9084416,185.120076 40.2224245,185.463965 L40.1339206,185.510627 C39.2658891,185.991306 38.7995308,186.823543 38.7099449,187.720952 C38.6488027,188.333432 38.7396871,188.94504 39.0599579,189.522249 C39.2527633,189.869733 39.5021607,190.170692 39.7956809,190.43385 C40.5651024,191.123683 41.636156,191.463802 42.7786648,190.873673 Z M60.9712228,182.297719 C60.9059639,182.155637 60.8270613,182.005061 60.7266177,181.824036 C60.451336,181.327909 60.0682148,180.92002 59.5899345,180.549378 C58.4329881,179.643267 57.004939,179.32766 55.4980613,179.597078 C54.8886794,179.700397 54.358814,179.857939 53.8854073,180.120091 L53.5213411,180.321695 L53.4094685,180.383646 L53.3046924,180.456962 C52.0459198,181.337781 51.0881453,182.418744 50.4711183,183.690126 C49.5919089,185.508466 49.6175646,187.412473 50.5757744,189.139408 L50.5757744,189.139408 C51.3740554,190.578112 52.4391132,191.561338 53.8405583,191.890099 C55.1306539,192.192739 56.4500337,191.913696 57.7610369,191.187719 C59.3462105,190.309917 60.5161696,189.11224 61.1891892,187.6113 C61.9684196,185.849856 61.8819386,184.008101 60.9712228,182.297719 Z M55.9054692,186.590881 C55.9118356,186.596415 55.9125148,186.595997 55.9086856,186.589096 L55.9086856,186.589096 L55.9054692,186.590881 Z M63.0225139,182.384874 C63.0555499,182.41944 63.0819695,182.454198 63.1005501,182.487685 L63.0268917,182.354934 L62.9373301,182.232349 C62.9479217,182.246846 62.9621634,182.268911 62.9794378,182.300044 C62.9951901,182.328434 63.009524,182.356758 63.0225139,182.384874 Z M67.0817366,178.014582 C67.0420556,177.631669 66.9246325,177.248706 66.7143248,176.869679 C66.1156708,175.790753 65.0702837,175.086668 63.7738491,175.141742 C63.3942915,175.14277 62.9458027,175.245461 62.5222685,175.42759 C62.3381579,175.506761 62.1606492,175.589659 61.9896979,175.676506 C61.8368916,175.754135 61.6574623,175.85022 61.4476932,175.966381 C61.0893812,176.164799 60.739352,176.423118 60.3742425,176.743996 C59.4305531,177.536248 58.6429667,178.576664 58.0567614,179.806527 C57.7742264,180.384776 57.5553979,180.995386 57.4137993,181.61575 C57.2611829,182.284386 57.2057072,182.932572 57.2593168,183.559979 C57.3170195,184.235287 57.4425796,184.789129 57.7327228,185.31204 L57.9056986,185.623786 C58.7568584,187.157791 60.2669922,187.954763 62.0516542,187.905199 C62.6800242,187.885661 63.2948805,187.777378 63.8985722,187.583443 C64.4332547,187.411677 64.9249958,187.203644 65.3732138,186.95544 C65.8591444,186.686352 66.433702,186.250704 67.1886942,185.604808 C67.525398,185.31948 67.8705859,185.008483 68.2158217,184.679169 C68.5810421,184.330792 68.9124398,183.985478 69.2100632,183.642082 C69.5472086,183.253085 69.8280898,182.872159 70.0522882,182.490118 C70.5136594,181.703928 70.7345638,181.032815 70.4683808,180.080885 C70.3923619,179.809024 70.3111322,179.584088 70.1731058,179.33533 C69.4479162,178.028356 68.2247638,177.712552 67.0817366,178.014582 Z M67.224938,182.568776 C67.9770276,183.924231 69.5373812,184.666482 71.1144629,183.793162 C71.5416419,183.556608 71.9047495,183.291847 72.2121218,182.957505 C72.5726271,182.565369 72.8202232,182.086342 72.928267,181.560578 C73.0794147,180.825061 72.9248453,180.15911 72.5987061,179.571325 C72.2580402,178.957359 71.7244845,178.467818 71.0236302,178.218829 C70.1207877,177.898081 69.32822,178.072064 68.5949845,178.478098 L68.0916446,178.756827 L67.7660745,179.231215 C67.6893706,179.342981 67.5982872,179.472183 67.4932175,179.618138 C67.3044502,179.880359 67.1530886,180.151076 67.0448268,180.474511 C66.8275197,181.12372 66.8277799,181.852997 67.224938,182.568776 L67.224938,182.568776 Z M69.0972781,181.531954 C69.8493677,182.887409 71.4097213,183.62966 72.9868031,182.75634 C73.413982,182.519786 73.7770897,182.255025 74.084462,181.920683 C74.4449673,181.528547 74.6925634,181.04952 74.8006071,180.523756 C74.9517549,179.788239 74.7971855,179.122288 74.4710463,178.534503 C74.1303804,177.920538 73.5968247,177.430996 72.8959704,177.182007 C71.9931278,176.861259 71.2005602,177.035242 70.4673247,177.441276 L69.9639847,177.720005 L69.6384147,178.194393 C69.5617107,178.306159 69.4706274,178.435362 69.3655577,178.581316 C69.1767904,178.843537 69.0254288,179.114254 68.9171669,179.437689 C68.6998598,180.086898 68.7001201,180.816175 69.0972781,181.531954 L69.0972781,181.531954 Z M74.8461409,181.726718 C76.4141802,180.858405 77.3850633,179.344412 76.3708035,177.51646 C75.5352818,176.01064 73.8021008,175.59462 72.3526672,176.397254 L71.8843759,176.656574 L71.5678337,177.08825 L71.3162603,177.431327 C71.1172793,177.710986 70.9752117,177.950957 70.8631783,178.223307 C70.5784997,178.91535 70.5035661,179.655188 70.9696183,180.495132 C71.7165797,181.841344 73.253263,182.608786 74.8461409,181.726718 L74.8461409,181.726718 Z"/>
      </g>
    </g>
  </g>
</svg>
