<svg xmlns="http://www.w3.org/2000/svg" width="337" height="406" viewBox="0 0 337 406" xmlns:xlink="http://www.w3.org/1999/xlink">
  <defs>
    <path id="a" d="M0.271605986,0.420595682 C0.271605986,0.420595682 3.43753314,13.4842087 4.07979534,24.6267142 C4.72205754,35.7692196 0.522027461,49.179733 13.5990531,53.6121243 C34.1097065,60.4760566 41.7605283,38.6087835 59.6219007,39.6571755 C77.4832732,40.7055676 78.4472743,57.2458755 99.1532403,54.0658878 C115.623381,51.5364311 106.412627,38.2440725 106.412627,29.3558125 C106.412627,20.4675525 108.893339,2.30729665 108.893339,2.30729665 L0.271605986,0.420595682 Z"/>
    <path id="b" d="M61.9747247,27.6450102 C63.5567245,25.9506613 68.0874874,20.9753449 72.1053914,18.088685 C76.9553709,14.603992 80.5552419,12.45572 80.5552419,12.45572 L84.4985055,19.7785746 C84.4985055,19.7785746 89.7430461,16.2814421 90.6950626,11.8924235 C91.6470791,7.50317019 90.6950626,1.75308642 90.6950626,1.75308642 C90.6950626,1.75308642 96.3306435,2.81161443 99.7082365,7.94934797 C103.085595,13.0868468 103.410914,19.5081922 109.284734,22.5950571 C112.145478,24.0983546 115.69418,25.8969134 118.581917,27.3462284 C151.216413,38.8529677 174.630245,69.9769772 174.630245,106.526236 C174.630245,152.849159 137.01996,190.457415 90.6950626,190.457415 C44.3699305,190.457415 6.75988044,152.849159 6.75988044,106.526236 C6.75988044,106.023025 6.76434008,105.520752 6.77325937,105.019653 L2.25329348,106.526236 L7.86141235,92.907135 C8.1426046,91.1867336 8.47613897,89.4839352 8.86037246,87.8006175 L0,90.7539341 C0,90.7539341 5.29101475,79.8557897 10.1398207,72.7284459 C12.9378948,68.6149732 17.1968542,61.7432253 20.2986535,58.5723354 C30.1500056,43.4386707 44.7480613,33.9255315 61.9747247,27.6450102 Z"/>
    <path id="c" d="M57.5370604,1.47597276 C65.861127,1.51438913 73.3388838,3.31006458 79.8514438,6.19009732 C98.5252125,14.4481502 109.263443,31.6214397 109.263443,41.846708 C109.263443,50.5684234 105.595919,58.439638 87.5533751,58.439638 C76.2598618,58.439638 74.4924345,52.6137072 57.2440866,52.6137072 C39.9957386,52.6137072 42.52932,61.9207015 20.8027884,59.8252154 C3.59762058,58.165807 0.650579212,50.5686874 0.650579212,42.5404119 C0.650579212,33.9894378 9.11580421,17.1039674 23.6706097,8.18576536 C28.1272035,5.45506559 33.1547244,3.47133508 38.6849744,2.70255089 C39.9184179,4.43280999 41.7755073,6.60009329 44.2149322,8.23412257 C48.9942615,11.4357591 59.4246632,15.5569771 59.4246632,15.5569771 C59.4246632,15.5569771 55.3142803,11.5258865 55.4813996,7.10752956 C55.5654286,4.88180424 56.5653276,2.8973576 57.5370604,1.47597276 Z"/>
    <path id="d" d="M115.764907,49.5844026 L115.764907,20.5045353 C115.764907,20.5045353 116.507453,14.370303 123.300894,14.370303 C130.094336,14.370303 134.821834,29.9720765 137.065067,32.005298 C140.57173,35.1836676 168.653819,35.2174059 182.124426,25.0095104 C195.595034,14.8016149 198.80583,0.58436214 198.80583,0.58436214 C198.80583,0.58436214 216.104682,13.948595 222.531996,29.9953536 C223.424227,32.2229432 228.624373,42.632392 229.150096,44.8337208 C229.675819,47.0350495 222.390007,41.9272249 222.531996,43.3740664 C223.284003,51.0368762 220.775522,57.912045 212.25111,62.1143919 C207.282522,64.563796 201.274612,65.958305 194.715021,66.5740468 C191.977439,66.8310207 197.609333,71.1249042 194.715021,71.1306693 C191.820709,71.1364343 181.911054,66.9027783 179.706124,66.7874894 C157.235083,65.6125485 132.79487,58.6565978 121.816952,54.6577723 C118.844462,54.6577723 115.764907,49.5844026 115.764907,49.5844026 Z"/>
    <path id="e" d="M113.7087,49.5844026 L113.7087,20.5045353 C113.7087,20.5045353 112.966153,14.370303 106.172712,14.370303 C99.3792711,14.370303 94.6517729,29.9720765 92.4085398,32.005298 C88.9018763,35.1836676 60.8197874,35.2174059 47.3491801,25.0095104 C33.8785729,14.8016149 30.6677769,0.58436214 30.6677769,0.58436214 C30.6677769,0.58436214 17.0196183,11.1282504 9.4647046,24.7304409 C8.51409327,26.4419623 0.75844229,35.2908079 0.0401001307,37.0842575 C-0.426788451,38.2499153 5.27607556,34.1673713 4.16401886,37.0842575 C3.15091843,39.7415849 2.20968298,42.3246536 1.95906141,43.3740664 C1.43333839,45.5753952 7.08359946,41.9272249 6.94161052,43.3740664 C6.18960407,51.0368762 8.6980847,57.912045 17.2224969,62.1143919 C22.1910849,64.563796 28.1989944,65.958305 34.758586,66.5740468 C37.496168,66.8310207 47.5625525,66.9027783 49.7674823,66.7874894 C72.2385233,65.6125485 96.6787362,58.6565978 107.656655,54.6577723 C110.629145,54.6577723 113.7087,49.5844026 113.7087,49.5844026 Z"/>
  </defs>
  <g fill="none" fill-rule="evenodd">
    <rect width="337" height="406"/>
    <g transform="translate(30 74)">
      <ellipse cx="148" cy="231.7" fill="#ECFAFE" rx="148" ry="52.3"/>
      <path fill="#C8EAFA" d="M180.014537,244.088794 C230.41434,244.088794 262.565502,229.17544 262.565502,217.879739 C262.565502,206.584039 230.41434,203.183445 180.014537,203.183445 C129.614733,203.183445 88.7576197,212.340419 88.7576197,223.63612 C88.7576197,234.93182 129.614733,244.088794 180.014537,244.088794 Z" transform="rotate(3 175.662 223.636)"/>
      <g transform="translate(22.814)">
        <g transform="translate(60.838 167.128)">
          <g stroke-linecap="round" stroke-linejoin="round">
            <use fill="#FFFFFF" xlink:href="#a"/>
            <path stroke="#297BCC" stroke-width="2.16" d="M-0.778010694,0.674967113 C-0.748314289,0.79750384 -0.691810507,1.03627878 -0.61233074,1.38118479 C-0.479377752,1.95814023 -0.331099725,2.62105616 -0.171328216,3.35981582 C0.285496174,5.47210374 0.742431042,7.7667757 1.16883015,10.1626794 C1.79886447,13.7027936 2.30614908,17.1519819 2.64622706,20.3907873 C2.80347197,21.8883429 2.9229004,23.3237763 3.00158501,24.688863 C3.10925639,26.5568368 3.09230918,28.3363892 2.97965334,31.5142657 C2.96897676,31.8138409 2.96897676,31.8138409 2.9581725,32.1137584 C2.70915401,39.0256385 2.82214017,41.970071 3.83217961,45.2947478 C5.20112215,49.8008009 8.17455207,52.9138682 13.2523657,54.6349673 C18.7795601,56.4846627 23.7178876,56.4480891 28.5720228,54.8055964 C32.2076187,53.5754206 34.8291248,52.0323791 40.4713039,48.1760584 C40.4936467,48.1607875 40.4936467,48.1607875 40.5159869,48.1455185 C49.1595441,42.2378425 53.2839347,40.3670208 59.5586179,40.7353199 C65.8661744,41.1055486 69.4808651,42.9307076 75.8406336,47.8899372 C76.1610818,48.1399531 76.3567004,48.2926034 76.4821865,48.3904178 C84.5575963,54.6850735 89.606355,56.6247449 99.3171827,55.1333722 C105.125977,54.2412672 108.406919,51.9634392 109.572918,48.3147716 C110.448849,45.5737898 110.164319,42.7670456 108.939173,37.5924217 C108.884554,37.3617305 108.832975,37.14557 108.746674,36.7850833 C107.793578,32.8038906 107.492627,31.1887891 107.492627,29.3558125 C107.492627,26.6458107 107.726356,22.8758281 108.146675,18.3240336 C108.314915,16.5021012 108.509962,14.5897192 108.726537,12.616274 C108.997176,10.1501947 109.287202,7.71529353 109.577216,5.41904322 C109.678704,4.6154859 109.772927,3.88676722 109.85746,3.24630033 C109.908115,2.86251319 109.944237,2.59376696 109.963401,2.45346846 L110.127991,1.24857899 L108.912095,1.22745953 L0.290362175,-0.659241438 L-1.1072352,-0.683516952 L-0.778010694,0.674967113 Z"/>
          </g>
          <path fill="#CEE9F1" d="M2.77825201,7.74841111 C2.77825201,7.74841111 33.7778241,30.0358506 54.8724022,30.0358506 C75.9669802,30.0358506 83.462477,32.8506649 87.4813327,37.7798503 C91.5001884,42.7090356 89.217829,54.9171498 89.217829,54.9171498 C89.217829,54.9171498 100.375767,55.6056884 103.93313,54.0152897 C107.490492,52.4248911 110.189209,49.8399367 110.189209,44.6356212 C110.189209,39.4313057 107.490492,30.0358506 107.490492,30.0358506 L109.697281,2.81773002 C109.697281,2.81773002 87.8035827,23.7622315 53.3281222,23.7622315 C18.8526617,23.7622315 2.77825201,7.74841111 2.77825201,7.74841111 Z" style="mix-blend-mode:darken"/>
        </g>
        <g transform="translate(24.57)">
          <g stroke-linecap="round" stroke-linejoin="round">
            <use fill="#FFFFFF" xlink:href="#b"/>
            <path stroke="#297BCC" stroke-width="2.16" d="M61.3606585,26.7196285 C42.7094435,33.5622113 28.8025988,43.5756229 19.451254,57.8946079 C18.1699229,59.2198089 16.6699417,61.1577486 14.8477778,63.7703006 C14.3979247,64.4152837 13.9290105,65.1005089 13.4243692,65.8488201 C12.7022167,66.9196694 9.87014575,71.204677 9.24683218,72.1210156 C8.87430512,72.6685996 8.49289173,73.2473545 8.10319738,73.8556305 C7.2582893,75.174452 6.37996172,76.6232744 5.47606924,78.1812992 C3.93956257,80.8297509 2.40244885,83.6642353 0.937089745,86.4983179 C0.424356542,87.4899712 -0.0428913846,88.4109462 -0.455515187,89.2378159 C-0.600101157,89.5275563 -0.727588667,89.7849566 -0.83683331,90.0070856 C-0.902659156,90.1409304 -0.94758243,90.2328826 -0.971551818,90.2822487 L-2.09174614,92.5895641 L0.341511328,91.7785169 L7.40407069,89.4244427 C7.18787392,90.4812159 6.99169744,91.5432896 6.81570905,92.6101866 L1.25464768,106.115011 L0.356138489,108.297006 L2.59480481,107.550819 L5.67988052,106.52251 C5.67988047,106.523752 5.67988044,106.524994 5.67988044,106.526236 C5.67988044,153.445638 43.7734745,191.537415 90.6950626,191.537415 C137.616496,191.537415 175.710245,153.445557 175.710245,106.526236 C175.710245,70.2272086 152.698633,38.2608768 119.005601,26.350478 C115.470088,24.5757625 112.280224,22.9491254 109.787123,21.6390209 C106.892708,20.1179209 105.577193,18.1554744 103.530943,13.2794394 C103.398863,12.9644425 103.325543,12.7895868 103.265622,12.647056 C103.163648,12.404494 103.078191,12.2024215 102.995346,12.0083239 C102.146268,10.0190171 101.471037,8.66479534 100.610695,7.35607788 C99.6435564,5.88494207 98.4536408,4.64245408 97.0927659,3.61045551 C95.7477633,2.59049345 94.3105772,1.82859425 92.8722804,1.28492118 C92.0012533,0.955674819 91.3125071,0.770174667 90.894432,0.69164785 L89.377447,0.406713409 L89.6295675,1.92949583 C89.6412723,2.00019185 89.6629751,2.14228136 89.691378,2.34744329 C89.7393489,2.69395025 89.7874663,3.08706816 89.8324459,3.51842351 C90.0310566,5.42310548 90.1030393,7.38278389 89.9751269,9.19684166 C89.9121055,10.090614 89.801389,10.9175909 89.6396039,11.6634975 C89.3078799,13.1928232 88.3255789,14.7702333 86.8846858,16.2982387 C86.2406426,16.9812188 85.5483918,17.6082137 84.8556014,18.163804 L81.5061405,11.9436733 L80.9710129,10.9499122 L80.001795,11.5283061 C79.8843515,11.5983921 79.6635305,11.7325298 79.3484929,11.9275651 C78.8261875,12.2509169 78.2280308,12.6288343 77.563178,13.0581701 C75.6660117,14.2832856 73.6123097,15.6761053 71.4752111,17.2116031 C70.877452,17.6410626 70.2547539,18.1249678 69.6085206,18.6597254 C68.6603688,19.4443204 67.6707284,20.3305712 66.6438044,21.3063133 C65.5648471,22.3314953 64.4848485,23.4163899 63.371429,24.5797371 C62.9514242,25.0185757 62.5448848,25.4494067 62.1045713,25.920757 C61.9453356,26.0912169 61.5823039,26.4814375 61.3606585,26.7196285 L61.3606585,26.7196285 Z"/>
          </g>
          <path fill="#E6F9FF" d="M90.5001126,0 C90.5001126,0 96.8597697,6.9777007 97.1146245,15.017721 C97.3694793,23.0577413 88.6331296,26.1240644 87.4796188,25.5097911 C86.3261081,24.8955178 84.0917868,16.5562787 83.3233854,14.8397935 C82.5549841,13.1233084 80.3321737,10.6016105 80.3321737,10.6016105 C80.3321737,10.6016105 82.6202124,24.8438745 79.782277,27.766968 C76.9443417,30.6900616 81.9249152,31.7886929 89.1070949,30.8181613 C96.2892746,29.8476297 105.47576,23.5957599 110.624958,24.5527755 C115.774156,25.5097911 120.131728,27.1214263 120.131728,27.1214263 C120.131728,27.1214263 108.290472,21.7914709 106.155911,18.3156322 C104.021351,14.8397935 102.043702,6.79150227 98.9373815,4.55772621 C95.831061,2.32395016 90.5001126,0 90.5001126,0 Z" style="mix-blend-mode:darken"/>
          <path fill="#E6F9FF" d="M14.7100432,141.961772 C14.7100432,141.961772 37.6712971,190.537825 88.4547988,190.537825 C139.238301,190.537825 163.506097,154.770926 170.011476,135.536443 C176.516855,116.30196 176.072958,99.7575305 166.860467,70.4399886 C157.647976,41.1224468 118.151033,27.3783814 118.151033,27.3783814 C118.151033,27.3783814 150.055597,53.1805552 155.082245,86.906816 C155.302159,88.3823233 160.444162,94.4698551 160.556263,95.974199 C160.668364,97.478543 155.714488,93.5412498 155.735101,94.6331903 C155.797013,97.9127927 161.09884,108.4906 160.556263,111.872055 C160.013686,115.253509 154.271888,108.696584 153.702257,110.748908 C150.732386,121.449042 144.292028,132.485363 132.887083,143.403457 C110.60523,164.734148 88.2837016,169.733674 69.1358903,167.700268 C67.9830839,167.577846 68.8803916,174.787319 67.7512941,174.615941 C66.6221966,174.444563 61.5979125,166.548247 59.6069118,166.086529 C33.110349,159.941908 14.7100432,141.961772 14.7100432,141.961772 Z" style="mix-blend-mode:multiply"/>
        </g>
        <g transform="translate(57.913 47.333)">
          <g stroke-linecap="round" stroke-linejoin="round">
            <use fill="#C6F1FF" xlink:href="#c"/>
            <path stroke="#297BCC" stroke-width="1.601" d="M56.8552836,13.6327755 C54.8550103,12.7860161 52.8580105,11.8977492 50.9934336,11.0087599 C49.7862378,10.4331954 48.6732157,9.87530489 47.674344,9.34158924 C46.4814179,8.70418672 45.467781,8.11000652 44.6603955,7.56914514 C42.6217324,6.20356297 40.8397166,4.34632808 39.3367201,2.23794335 L39.0551751,1.84299561 L38.5747678,1.90977914 C33.1686052,2.66131339 28.0305834,4.57557068 23.2524382,7.50329545 C10.00173,15.6224348 -0.149816045,32.1433871 -0.149816045,42.5404119 C-0.149816045,53.1961293 5.36890387,59.1407535 20.7259483,60.6219137 C30.8557113,61.5989117 35.303377,60.6061505 42.3358939,57.0889795 C42.3389978,57.0874272 42.3389978,57.0874272 42.3421016,57.0858749 C47.8724365,54.3199898 50.930096,53.4141025 57.2440866,53.4141025 C64.4555882,53.4141025 68.8698653,54.2852188 74.3585212,56.2789722 C74.6906421,56.399615 76.5956229,57.1051825 77.1416392,57.3009293 C80.9253462,58.6573887 83.7052398,59.2400332 87.5533751,59.2400332 C103.78274,59.2400332 110.063839,53.1850178 110.063839,41.846708 C110.063839,29.757465 97.3783287,13.0657994 80.1751594,5.45808584 C73.2014429,2.37411704 65.5982885,0.712772326 57.5407543,0.675586023 L57.1160241,0.673625852 L56.8763165,1.02425376 C55.579955,2.92048353 54.7614918,4.96050842 54.6815741,7.07733329 C54.5998889,9.23695621 55.4037737,11.4172539 56.7809606,13.5202231 C56.805643,13.5579131 56.830419,13.5954312 56.8552836,13.6327755 Z"/>
          </g>
          <path fill="#5588BB" d="M17.2774827,60.3410976 C17.2774827,60.3410976 -6.65992526,58.1743554 2.02088373,32.2884351 C10.7016927,6.40251473 38.78026,1.42441212 38.78026,1.42441212 C38.78026,1.42441212 42.6104758,5.61114981 46.6999175,8.49247033 C50.7893592,11.3737909 55.6880153,13.3159821 56.7346851,13.2800197 C57.0565055,13.2689624 54.7312437,10.00142 54.429087,6.76336654 C54.1269303,3.52531306 55.847713,1.45678631 56.7346851,1.09607429 C61.9460046,-1.02325453 67.0533171,1.82204203 67.0533171,1.82204203 C67.0533171,1.82204203 62.5215027,4.28325237 62.133445,8.11136392 C61.7453874,11.9394755 65.3633866,18.1615995 64.6370012,18.5837951 C63.2644589,19.3815553 64.0315533,21.8265238 57.6519087,18.0038737 C51.2722641,14.1812236 43.4229374,6.76336654 43.4229374,6.76336654 C43.4229374,6.76336654 17.2187873,19.6636579 11.6610691,29.5876432 C1.25286047,48.1727723 17.2774827,60.3410976 17.2774827,60.3410976 Z" opacity=".196" style="mix-blend-mode:multiply"/>
        </g>
        <g fill="#297BCC" transform="translate(77.802 60.774)">
          <path d="M19.2963151,4.92216341 C19.6106474,5.83860684 19.7812886,6.82153983 19.7812886,7.84401979 C19.7812886,12.8181626 15.7424947,16.8567639 10.7681146,16.8567639 C5.79349984,16.8567639 1.75494071,12.8181626 1.75494071,7.84401979 C1.75494071,6.82153983 1.92557196,5.83860684 2.23989055,4.92216341 C3.45473577,8.46417173 6.81602856,11.0131425 10.7681146,11.0131425 C14.7200142,11.0131425 18.0814168,8.46417173 19.2963151,4.92216341 Z" transform="rotate(-47 16.816 13.52)"/>
          <g transform="rotate(15 18.637 142.655)">
            <path d="M34.1610183,3.0147221 C34.4753506,3.93116553 34.6459918,4.91409852 34.6459918,5.93657848 C34.6459918,10.9107213 30.6071979,14.9493225 25.6328179,14.9493225 C20.6582031,14.9493225 16.6196439,10.9107213 16.6196439,5.93657848 C16.6196439,4.91409852 16.7902752,3.93116553 17.1045938,3.0147221 C18.319439,6.55673042 21.6807318,9.10570115 25.6328179,9.10570115 C29.5847175,9.10570115 32.9461201,6.55673042 34.1610183,3.0147221 Z" transform="rotate(22 25.633 8.982)"/>
            <path d="M15.6318149,59.5647838 C7.31837986,61.7900083 2.98036856,69.4308482 2.98036856,69.4308482 C1.61736383,70.1875692 0.620380928,69.3135796 0.185999555,67.6941592 C-0.248381819,66.0747387 3.02861307,56.682563 13.7777545,53.8053825 C24.5268959,50.928202 29.7693469,55.9197881 29.814894,55.9232435 C29.8787215,55.9280858 32.0752505,57.9090799 32.5162846,59.5533026 C32.9761844,61.2678583 31.6768416,62.0796016 29.8250036,61.4354704 C29.6349823,61.3693746 23.9452499,57.3395593 15.6318149,59.5647838 Z"/>
          </g>
        </g>
        <g transform="translate(0 120.963)">
          <g stroke-linecap="round" stroke-linejoin="round">
            <use fill="#FFFFFF" xlink:href="#d"/>
            <path stroke="#297BCC" stroke-width="2.16" d="M195.223759,67.6099807 C202.051977,66.9334482 207.928557,65.4494189 212.728651,63.0830788 C220.667439,59.1694316 224.142813,52.775702 223.701473,44.5130872 C224.024744,44.6537375 224.469757,44.8626886 225.237364,45.2276211 C225.314008,45.2640475 225.314008,45.2640475 225.390916,45.3005327 C226.662582,45.9034533 227.368202,46.2028161 228.003525,46.3655591 C228.557766,46.5075323 229.009516,46.5302738 229.445274,46.3327745 C230.15358,46.0117481 230.373575,45.307325 230.200555,44.5828494 C229.946232,43.517938 228.900005,41.1178412 226.949512,36.9513199 C226.862403,36.7653158 226.862403,36.7653158 226.775246,36.5794772 C226.408814,35.7984202 225.053367,32.9271872 224.771062,32.3249395 C224.109616,30.9138619 223.718023,30.0518179 223.534565,29.593788 C221.243862,23.8747007 217.486805,18.1398999 212.672167,12.5264247 C209.78617,9.16158693 206.696755,6.04569275 203.606987,3.25355274 C202.524972,2.27576473 201.519562,1.40776643 200.616164,0.659079468 C200.298947,0.396187331 200.016802,0.16673506 199.772908,-0.0280818424 C199.624952,-0.146265007 199.521623,-0.227403339 199.466098,-0.27029886 L198.125535,-1.30595114 L197.75236,0.346448773 C197.740111,0.400690822 197.711256,0.518177796 197.66419,0.694668008 C197.583649,0.996685692 197.481676,1.34928073 197.356671,1.74821185 C196.996813,2.89663345 196.525585,4.17992444 195.930305,5.56419393 C194.22607,9.52723877 191.873245,13.4923186 188.771995,17.1912447 C186.633345,19.7420573 184.206261,22.0768514 181.472143,24.1487397 C175.57362,28.6185834 166.148228,31.4629108 155.755929,32.4521132 C147.245068,33.2622289 139.296036,32.5697938 137.790365,31.2050839 C137.247233,30.7127998 132.963312,22.1266194 133.316646,22.7871368 C130.021294,16.6268527 127.004574,13.290303 123.300894,13.290303 C119.960224,13.290303 117.579507,14.6260994 116.090113,16.8333228 C115.203245,18.1476266 114.804326,19.4528739 114.692733,20.374749 L114.684907,20.5045353 L114.684907,49.5844026 L114.684907,49.8865325 L114.841679,50.1448053 C114.950007,50.323269 115.14322,50.6210443 115.409696,50.9992105 C115.851753,51.6265491 116.342925,52.2540251 116.873469,52.843549 C118.348953,54.4830583 119.844901,55.5424579 121.398266,55.7144185 C121.469277,55.7222795 121.540208,55.7281766 121.611041,55.7320785 C137.54857,61.5165078 160.718487,66.8761602 179.649731,67.8660161 C180.369962,67.9036747 181.407183,68.2361466 186.464921,69.9789626 C186.752128,70.0778562 186.858631,70.1144609 187.04006,70.1766113 C191.150574,71.5847102 193.355623,72.2133791 194.717172,72.2106671 C196.019029,72.208074 196.850171,71.4234769 196.607276,70.2262862 C196.498863,69.691935 196.303914,69.3396238 195.665415,68.3360363 C195.643488,68.3015665 195.643488,68.3015665 195.621737,68.2673349 C195.449243,67.9957432 195.318741,67.7802827 195.223811,67.6100742 L195.223759,67.6099807 Z"/>
          </g>
          <path fill="#E6F9FF" d="M120.078619,54.1775227 C120.078619,54.1775227 146.375309,64.0842871 158.336174,65.4341028 C170.29704,66.7839185 180.27141,67.55622 180.27141,67.55622 L196.317997,71.5493613 L195.305707,67.2107767 C195.305707,67.2107767 211.628026,64.5674511 216.549325,59.9397291 C221.470623,55.312007 222.916317,44.0858625 222.916317,44.0858625 L229.667202,45.8754715 C229.667202,45.8754715 226.492465,34.1410537 221.520895,24.7988683 C216.549325,15.456683 199.188818,0.0989154664 199.188818,0.0989154664 C199.188818,0.0989154664 187.730669,25.1815951 177.800478,27.203275 C167.870286,29.224955 138.114748,32.1505701 138.114748,32.1505701 C138.114748,32.1505701 132.124032,21.6016161 131.256464,19.4794989 C130.388896,17.3573817 124.549757,14.3176333 124.549757,14.3176333 L121.116807,14.3176333 C121.116807,14.3176333 124.788167,13.7203361 127.534832,24.7722372 C130.281497,35.8241384 137.163393,39.7898877 146.27705,39.7898877 C155.390707,39.7898877 187.239377,28.1878644 201.894351,33.3931006 C216.549325,38.5983368 212.794178,53.5726166 209.895936,56.7561728 C206.997694,59.9397291 175.534441,62.7778421 159.148901,62.7778421 C142.763361,62.7778421 120.078619,54.1775227 120.078619,54.1775227 Z" style="mix-blend-mode:darken"/>
          <g stroke-linecap="round" stroke-linejoin="round">
            <use fill="#FFFFFF" xlink:href="#e"/>
            <path stroke="#297BCC" stroke-width="2.16" d="M2.90130184,37.3670339 C1.82993977,40.1981661 1.13165142,42.1892363 0.908602673,43.1231951 C0.603190623,44.4020288 1.42944787,45.2336377 2.63125827,45.176531 C3.18531301,45.1502039 3.75141043,44.9922196 4.78769636,44.633461 C4.86243859,44.6075507 4.86243859,44.6075507 4.93657994,44.5817532 C5.30653399,44.4529623 5.57623714,44.3605523 5.78479334,44.292918 C5.2695299,52.6621542 8.73579489,59.1347395 16.7449556,63.0830788 C21.6403451,65.4963977 27.6553883,66.992025 34.6576513,67.6493199 C37.1922334,67.8872384 47.2337109,68.0014477 49.8238751,67.8660161 C68.7551195,66.8761602 91.9250363,61.5165078 107.862565,55.7320785 C107.933398,55.7281766 108.00433,55.7222795 108.07534,55.7144185 C109.628706,55.5424579 111.124654,54.4830583 112.600137,52.843549 C113.130682,52.2540251 113.621854,51.6265491 114.06391,50.9992105 C114.330387,50.6210443 114.523599,50.323269 114.631927,50.1448053 L114.7887,49.8865325 L114.7887,49.5844026 L114.7887,20.5045353 L114.780873,20.374749 C114.669281,19.4528739 114.270362,18.1476266 113.383494,16.8333228 C111.8941,14.6260994 109.513383,13.290303 106.172712,13.290303 C102.469033,13.290303 99.4523127,16.6268527 96.1569606,22.7871368 C96.5102945,22.1266194 92.2263738,30.7127998 91.6832417,31.2050839 C90.1775709,32.5697938 82.2285381,33.2622289 73.7176773,32.4521132 C63.325379,31.4629108 53.899987,28.6185834 48.0014638,24.1487397 C45.2673455,22.0768514 42.8402619,19.7420573 40.7016118,17.1912447 C37.6003616,13.4923186 35.2475362,9.52723877 33.5433013,5.56419393 C32.9480215,4.17992444 32.4767934,2.89663345 32.1169359,1.74821185 C31.991931,1.34928073 31.8899576,0.996685692 31.8094165,0.694668008 C31.7623507,0.518177796 31.733496,0.400690822 31.7212461,0.346448773 L31.3480714,-1.30595114 L30.0075084,-0.27029886 C29.9519838,-0.227403339 29.8486544,-0.146265007 29.7006989,-0.0280818424 C29.4568042,0.16673506 29.1746596,0.396187331 28.8574427,0.659079468 C27.954045,1.40776643 26.9486348,2.27576473 25.8666194,3.25355274 C22.7768512,6.04569275 19.6874369,9.16158693 16.8014394,12.5264247 C13.5196017,16.3527796 10.7107784,20.2626821 8.52055997,24.2060452 C8.19321503,24.795411 7.65941518,25.4685509 3.93449238,30.0630836 C3.86171156,30.1528659 3.86171156,30.1528659 3.78893527,30.2426874 C0.754422158,33.9884387 -0.59425163,35.7633814 -0.962469087,36.6826919 C-1.22203292,37.3307322 -1.02784099,38.1215646 -0.182776126,38.3391383 C0.156286297,38.4264346 0.429465624,38.3790574 0.800014828,38.256932 C0.994054281,38.1929805 1.2122154,38.1052145 1.50306362,37.9781431 C1.65863046,37.9101761 2.22313052,37.6567176 2.25564367,37.6422625 C2.37793306,37.5878932 2.48482035,37.5410711 2.58602879,37.4976846 C2.69724455,37.4500081 2.80253255,37.4064445 2.90130184,37.3670339 Z"/>
          </g>
          <path fill="#E6F9FF" d="M102.501029,15.1439579 C102.501029,15.1439579 106.504488,14.898191 107.950181,19.8652692 C109.395875,24.8323474 105.728323,44.6253322 102.501029,47.4398577 C99.273736,50.2543831 94.1467803,52.5575917 71.0111166,58.2908843 C59.9356861,61.0355077 49.1308229,63.0369267 37.6619112,62.5221836 C26.1929995,62.0074406 10.8944952,58.2908843 10.8944952,58.2908843 C10.8944952,58.2908843 25.7269433,73.0338542 66.8385623,65.6623693 C107.950181,58.2908843 109.779006,54.0154535 109.779006,54.0154535 L114.506073,50.2543831 L114.317173,20.6915938 C114.317173,20.6915938 114.838933,16.6109504 111.174428,15.0594993 C107.509923,13.5080483 102.501029,15.1439579 102.501029,15.1439579 Z" style="mix-blend-mode:darken"/>
        </g>
      </g>
      <g fill="#F25335" transform="translate(75.462 113.95)" opacity=".15">
        <path d="M103.541502,26.8806584 C96.1107617,26.8806584 90.0869565,20.8632181 90.0869565,13.4403292 C90.0869565,6.01744036 96.1107617,0 103.541502,0 C110.972242,0 116.996047,6.01744036 116.996047,13.4403292 C116.996047,20.8632181 110.972242,26.8806584 103.541502,26.8806584 Z M13.4545455,26.8806584 C6.02380518,26.8806584 0,20.8632181 0,13.4403292 C0,6.01744036 6.02380518,0 13.4545455,0 C20.8852857,0 26.9090909,6.01744036 26.9090909,13.4403292 C26.9090909,20.8632181 20.8852857,26.8806584 13.4545455,26.8806584 Z"/>
      </g>
    </g>
  </g>
</svg>
