<svg xmlns="http://www.w3.org/2000/svg" width="337" height="406" viewBox="0 0 337 406" xmlns:xlink="http://www.w3.org/1999/xlink">
  <defs>
    <rect id="a" width="337" height="406"/>
    <path id="c" d="M97.6144236,51.2660632 C100.732587,51.5247797 103.260357,49.2042265 103.260357,46.0624164 L103.260357,5.67209443 C103.260357,2.53948318 105.804695,0.105445173 108.916831,0.230861602 C108.916831,0.230861602 138.169792,1.48272356 152.399457,1.48272356 C166.629122,1.48272356 181.83163,0.367468153 181.83163,0.367468153 C184.955786,0.164521096 187.703371,2.53797496 187.96756,5.6572183 L189.230068,20.5634755 C189.494694,23.6878708 192.248141,26.0122796 195.358666,25.7613118 C195.358666,25.7613118 219.326278,23.7530255 230.855796,23.3493374 C242.385314,22.9456492 266.04586,23.2829752 266.04586,23.2829752 C269.177652,23.319626 271.630263,25.8871455 271.511692,29.0184698 C271.511692,29.0184698 270.938375,48.7353769 269.469566,58.3602219 C268.000756,67.9850668 271.04285,90.8409448 271.04285,90.8409448 C271.41488,93.9413334 269.177953,96.5101212 266.042073,96.5716045 C266.042073,96.5716045 190.983363,98.3939653 152.399457,94.5563994 C113.815551,90.7188336 25.0944253,95.8570578 25.0944253,95.8570578 C21.9700502,96.0266375 19.2953529,93.6360537 19.1484445,90.5085296 C19.1484445,90.5085296 18.3046676,78.2130526 19.4372438,74.2108933 C20.5698199,70.2087341 19.6924297,54.9901122 19.6924297,54.9901122 C19.5514944,51.8704376 21.9787042,49.3190879 25.111449,49.2941667 C25.111449,49.2941667 55.4788821,48.9974471 67.5281352,49.3414417 C79.5773883,49.6854363 97.6144236,51.2660632 97.6144236,51.2660632 Z"/>
    <path id="d" d="M0.231859908,0.359376541 C0.231859908,0.359376541 2.93449394,11.521536 3.48276924,21.0422116 C4.03104454,30.5628872 0.445635388,42.0214546 11.6090048,45.8086961 C29.1181852,51.6735596 35.6494067,32.9891429 50.8969947,33.8849379 C66.1445827,34.7807329 66.9675146,48.9135424 84.643426,46.1964128 C98.703371,44.0351272 90.8404935,32.6775169 90.8404935,25.0829735 C90.8404935,17.4884302 92.9581853,1.97146173 92.9581853,1.97146173 L0.231859908,0.359376541 Z"/>
    <path id="e" d="M82.7751587,67.5402085 C82.7751587,67.5402085 77.6484901,72.6627163 71.8974684,80.0664177 C66.1462463,87.4701191 58.3001551,99.0036332 58.3001551,99.0036332 L67.546232,95.9326954 C67.546232,95.9326954 65.2734343,99.0397312 63.1951959,101.562781 C61.1169575,104.085832 59.9317686,106.680877 59.9317686,106.680877 L65.9146185,106.169088 C65.9146185,106.169088 61.6477379,114.045874 59.9317686,122.547155 C58.2159997,131.048637 61.598402,149.427377 61.598402,149.427377 C61.598402,149.427377 84.3051155,161.509381 90.0206717,159.143357 C95.7364283,156.777333 93.6715237,145.52304 94.4373381,137.53796 C95.2031525,129.55288 100.288905,129.376096 103.442931,126.641672 C106.597156,123.907248 108.337971,118.964428 108.337971,118.964428 L82.7751587,67.5402085 Z"/>
    <path id="f" d="M231.433699,95.36749 C231.433699,95.36749 241.63494,104.99904 246.158695,113.188074 C252.226301,124.172096 258.933088,143.54349 257.643306,141.72776 C255.655034,141.456825 252.228505,139.668971 250.217992,139.77566 C250.217992,139.77566 252.56132,141.873155 254.277089,150.374436 C255.993058,158.875918 255.364898,170.335231 255.364898,170.335231 C255.364898,170.335231 263.772226,176.700112 257.540516,178.524465 C251.309208,180.348618 249.382249,176.988896 249.382249,176.988896 C249.382249,176.988896 249.620489,184.586925 243.399399,184.15435 C237.178309,183.721776 237.416549,179.036255 237.416549,179.036255 C237.416549,179.036255 236.94628,184.635858 231.433699,184.15435 C225.921318,183.672843 225.994854,179.548044 225.994854,179.548044 C225.994854,179.548044 223.008338,185.496795 217.292581,183.130771 C211.577025,180.764748 218.058396,174.225794 217.292581,166.240714 C216.526967,158.255634 213.920153,157.203377 210.765927,154.468953 C207.611902,151.734529 205.870886,146.791709 205.870886,146.791709 L231.433699,95.36749 Z"/>
    <path id="g" d="M52.9055128,23.6211844 C54.2560071,22.1734537 58.1237506,17.9223117 61.5536854,15.455815 C65.6939322,12.478331 68.7670079,10.6427473 68.7670079,10.6427473 L72.1332251,16.8997353 C72.1332251,16.8997353 76.6102939,13.9116225 77.4229949,10.1614406 C78.2356959,6.41105809 77.4229949,1.49791869 77.4229949,1.49791869 C77.4229949,1.49791869 82.2338803,2.40237433 85.1172056,6.79229316 C88.0003305,11.1820115 88.2780435,16.6687081 93.2923045,19.3062692 C95.7344149,20.5907566 98.7638099,22.127529 101.228963,23.3658912 C129.087816,33.1977853 149.075332,59.7915887 149.075332,91.0209779 C149.075332,130.601441 116.968833,162.735687 77.4229949,162.735687 C37.8769561,162.735687 5.77065801,130.601441 5.77065801,91.0209779 C5.77065801,90.5910106 5.77446504,90.1618454 5.7820791,89.7336829 L1.92355267,91.0209779 L6.71099474,79.3841835 C6.95103809,77.9141924 7.23576396,76.4592422 7.56376976,75.0209371 L0,77.5443884 C0,77.5443884 4.51674211,68.2325062 8.65598701,62.1425717 C11.0445986,58.627829 14.6803135,52.7562875 17.328204,50.0469315 C25.7379362,37.1160235 38.1997523,28.9875543 52.9055128,23.6211844 Z"/>
    <path id="h" d="M52.3035616,0.998612461 C79.7847174,1.12555712 102.003754,10.7073722 102.003754,22.4913663 C102.003754,34.3541744 79.486166,43.9853234 51.750941,43.9853234 C24.0155155,43.9853234 1.49812748,34.3541744 1.49812748,22.4913663 C1.49812748,12.9478552 16.0710427,4.84886608 36.2102384,2.04665795 C37.2631831,3.52507192 38.8485111,5.37689971 40.9309572,6.77309044 C45.0108926,9.50871779 53.9149377,13.0300784 53.9149377,13.0300784 C53.9149377,13.0300784 50.4060571,9.58572687 50.5487205,5.8104769 C50.620453,3.90871352 51.4740295,2.21310988 52.3035616,0.998612461 Z"/>
    <path id="i" d="M72.2205456,4.36550276 C85.1468195,0.835919776 92.4174478,-2.98946632 92.3306876,3.57174767 C92.2549477,9.2824525 71.644682,27.3964328 46.1654235,27.3964328 C20.6859647,27.3964328 -0.0663633761,10.2452666 0.000159486993,4.53436122 C0.0654801297,-1.09412037 7.40663874,2.13885731 20.4753758,5.0788395 C22.2528587,8.5111584 24.6094111,12.4045291 25.8613233,12.4759229 C27.0429056,12.5431053 29.997763,9.74891898 32.4078142,7.23228621 C36.6360234,7.78458573 41.2313106,8.14416199 46.1654235,8.14416199 C51.0342159,8.14416199 55.5798113,7.72341966 59.7715531,7.07325443 C62.2080532,9.62959501 65.2634964,12.5445091 66.4699246,12.4759229 C67.8095988,12.399716 70.414009,7.94662567 72.2205456,4.36550276 Z"/>
    <path id="k" d="M0,11.3383842 C2.5104366,4.83111671 11.7028143,0 22.6452242,0 C31.2609368,0 38.7916455,2.99493138 42.8301042,7.44481301 C35.3813469,11.0427817 26.3398479,13.6981912 16.5844303,13.6981912 C10.743242,13.6981912 5.15051264,12.7967438 0,11.3383842 Z"/>
    <ellipse id="m" cx="36.445" cy="36.399" rx="36.445" ry="36.399"/>
  </defs>
  <g fill="none" fill-rule="evenodd">
    <mask id="b" fill="white">
      <use xlink:href="#a"/>
    </mask>
    <g transform="translate(9.89 61.133)" mask="url(#b)">
      <g transform="translate(17.008 188.468)">
        <path fill="#C8EAFA" d="M158.042552,115.071095 C245.017229,115.071095 300.50032,104.333327 300.50032,96.2003082 C300.50032,88.067289 245.017229,85.6188265 158.042552,85.6188265 C71.0678755,85.6188265 0.560969143,92.2119413 0.560969143,100.344961 C0.560969143,108.47798 71.0678755,115.071095 158.042552,115.071095 Z" transform="rotate(1 150.53 100.345)"/>
        <use fill="#ECFAFE" xlink:href="#c"/>
        <path stroke="#81BFF1" stroke-width="2.43" d="M97.5139593,52.4769026 C101.343526,52.7946448 104.475357,49.9116776 104.475357,46.0624164 L104.475357,5.67209443 C104.475357,3.23441039 106.440722,1.34706273 108.867907,1.44487621 C108.922418,1.44721271 108.922418,1.44721271 109.197709,1.4588447 C109.576474,1.47475602 109.788962,1.48362614 110.15138,1.49861479 C111.186675,1.54143188 112.364048,1.58913914 113.661886,1.64051421 C117.36986,1.78729475 121.300253,1.93407386 125.280221,2.0710734 C128.439068,2.17980808 131.501011,2.27786171 134.420197,2.36263768 C141.83084,2.57784984 147.966467,2.69772356 152.399457,2.69772356 C153.246046,2.69772356 154.108077,2.69379445 154.984683,2.68605906 C160.552593,2.6369264 166.509223,2.43857138 172.512309,2.1385816 C174.958951,2.01631658 177.246154,1.88531341 179.310849,1.75428766 C180.033838,1.70840674 180.677503,1.66579013 181.233955,1.62752699 C181.568451,1.60452618 181.799938,1.58805813 181.920524,1.57921192 C184.371852,1.42001464 186.548353,3.2975337 186.756895,5.75975745 L188.019403,20.6660146 C188.340167,24.4532286 191.674953,27.2774747 195.456379,26.9723763 C195.517476,26.9672626 195.517476,26.9672626 195.794013,26.9442794 C196.174032,26.9128137 196.386933,26.8952571 196.748797,26.8655955 C197.782916,26.78083 198.950737,26.6863695 200.227825,26.5846386 C203.876695,26.2939755 207.669553,26.0033127 211.410781,25.7320537 C213.059737,25.6124956 214.665309,25.4991826 216.217675,25.393088 C222.295679,24.9776939 227.312105,24.6891588 230.898312,24.5635933 C234.458516,24.4389383 239.399759,24.3768901 245.368196,24.3672539 C250.092816,24.3596259 255.157636,24.3849668 260.184154,24.4319034 C261.729558,24.4463341 263.156786,24.4617951 264.431583,24.477255 C264.877678,24.4826649 265.272827,24.4876879 265.612747,24.4921949 C265.956767,24.4968284 265.956767,24.4968284 266.02854,24.4978517 C268.482631,24.5265755 270.390173,26.5267593 270.297562,28.9724952 C270.295291,29.0490044 270.291344,29.1789885 270.285363,29.3674371 C270.275376,29.6821318 270.263249,30.047352 270.248938,30.4588814 C270.208028,31.6352903 270.157837,32.946395 270.098005,34.3584447 C269.92709,38.3920803 269.713291,42.4253615 269.45385,46.1873948 C269.112504,51.1371071 268.717536,55.2342868 268.268471,58.1769275 C267.763235,61.4876493 267.737675,66.4187915 268.087843,72.573132 C268.261493,75.6251034 268.522152,78.8684104 268.846611,82.1936545 C269.063382,84.4152483 269.295613,86.5411974 269.527887,88.4981057 C269.609228,89.1833958 269.684788,89.7987896 269.75264,90.3350965 C269.793458,90.6577193 269.822711,90.8828348 269.838471,91.0012464 C270.122994,93.3732256 268.434457,95.3094649 266.018256,95.356838 C265.874255,95.360321 265.60309,95.366636 265.205385,95.3754853 C264.542051,95.390245 263.764766,95.4066946 262.879826,95.4244118 C260.350867,95.4750436 257.466821,95.5256796 254.278063,95.5729423 C235.763274,95.8473618 216.293164,95.8898128 198.078106,95.5523374 C179.5821,95.2096567 164.067248,94.4958863 152.519708,93.3473648 C139.788684,92.0811338 120.9174,91.698828 97.5153094,92.0307959 C83.5973627,92.2282275 68.7259352,92.6694328 53.6210119,93.2810811 C46.2591647,93.5791866 39.3205291,93.8985859 33.0143704,94.2179972 C30.8069812,94.329803 28.8362258,94.4336299 27.1282677,94.5268178 C26.5303161,94.5594426 26.0078779,94.5884101 25.5642239,94.6133876 C25.2977912,94.6283876 25.1169929,94.6387151 25.0241771,94.6440902 C22.5703657,94.7772663 20.4770239,92.8979933 20.3621063,90.4515205 C20.3514137,90.291576 20.3351417,90.0375597 20.3141378,89.6805832 C20.2790299,89.0838981 20.2438996,88.4187158 20.2111045,87.7023644 C20.1179209,85.666931 20.0618334,83.6326748 20.0613106,81.7380994 C20.0603875,78.3929338 20.2367272,75.8478013 20.6063325,74.5417353 C21.0793319,72.8703078 21.256397,69.5980052 21.2288678,65.0704806 C21.2160059,62.9551791 21.1576992,60.6934915 21.0685336,58.4166296 C21.0329126,57.5070406 20.9947439,56.6574334 20.9565609,55.8908993 C20.9336113,55.4301803 20.9157189,55.0988968 20.9054155,54.9201806 C20.7963787,52.5045117 22.6762232,50.5285776 25.1211142,50.5091282 C25.2180228,50.5081833 25.2180228,50.5081833 25.6688705,50.5040067 C26.1138017,50.499945 26.6296806,50.4954189 27.2104752,50.4905442 C28.870034,50.4766156 30.7168864,50.4626864 32.702772,50.4496858 C38.1774387,50.4138457 43.6413345,50.3917974 48.7412123,50.3903332 C56.9317455,50.3879815 63.4012724,50.4391188 67.4934622,50.5559469 C70.2961342,50.6359604 73.5667672,50.7870808 77.2108936,50.9984403 C79.6125373,51.1377358 82.1358283,51.3008616 84.7395693,51.4830063 C87.8465585,51.7003557 90.9071936,51.9332546 93.7886561,52.1661469 C94.797062,52.2476506 95.7109586,52.3233246 96.5137583,52.3912246 C96.9950634,52.4319329 97.3321239,52.460981 97.5083569,52.4764247 L97.5139593,52.4769026 Z"/>
        <path fill="#81BFF1" d="M135.250821 35.7523233C140.866053 34.4581151 145.266385 31.7079639 148.451949 27.5017872L152.663352 27.5017872 152.663352 70.1295573 145.536363 70.1295573 145.536363 37.7745136C143.160688 39.6079752 139.732208 40.7943149 135.250821 41.3335684L135.250821 35.7523233zM227.610124 47.6266244L219.187319 46.2677125C220.742306 40.2280742 224.93207 37.2083003 231.756736 37.2083003 235.298652 37.2083003 238.117024 38.168157 240.211937 40.0878992 242.306851 42.0076414 243.354292 44.5420945 243.354292 47.6913345 243.354292 49.9346287 242.749584 51.9082666 241.540149 53.6123075 240.330715 55.3163483 237.998269 57.5272542 234.542741 60.2450914 232.080678 62.1864038 230.590504 63.6315813 230.072175 64.5806673L244.066991 64.5806673 244.066991 71.6340668 218.668992 71.6340668C218.668992 68.7868087 219.522063 66.0474424 221.228229 63.4158857 222.934396 60.784329 225.094068 58.4332193 227.707311 56.3624862 230.320553 54.291753 232.113081 52.6308774 233.084948 51.3798095 234.056815 50.1287415 234.542741 48.8561225 234.542741 47.5619143 234.542741 46.569688 234.229589 45.7716049 233.603275 45.1676411 232.97696 44.5636772 232.18868 44.2616998 231.23841 44.2616998 229.33787 44.2616998 228.128453 45.3833301 227.610124 47.6266244zM63.7055664 68.8838881L64.3372768 68.8838881C65.1795616 68.8838881 65.8760559 68.6169617 66.4267805 68.0831008 66.9775052 67.5492399 67.2528634 66.8455247 67.2528634 65.9719342 67.2528634 65.3248301 67.0584929 64.7343564 66.6697461 64.2004955 66.2809993 63.6666346 65.7140853 63.3997082 64.9689872 63.3997082 63.7055601 63.3997082 62.8146953 64.0144479 62.2963662 65.2439457L56.2708207 64.2732944C57.6962257 60.2936041 60.6765732 58.3037888 65.2119528 58.3037888 67.4148514 58.3037888 69.3585564 58.8942625 71.0431259 60.0752275 72.7276955 61.2561925 73.5699676 62.9629039 73.5699676 65.1954131 73.5699676 67.6220535 72.3713496 69.4015632 69.9740775 70.5339953 71.4642737 71.0193234 72.6466942 71.8686348 73.5213745 73.081955 74.3960548 74.2952752 74.8333885 75.6622622 74.8333885 77.1829568 74.8333885 79.3831108 73.9344249 81.1868865 72.1364709 82.5943379 70.3385168 84.0017893 67.9979721 84.7055045 65.1147666 84.7055045 62.6203078 84.7055045 60.4579361 84.0826761 58.6275865 82.8370007 56.7972369 81.5913253 55.6715078 79.9493233 55.2503654 77.9109453L61.2759109 76.7946963C61.4378888 77.7329973 61.8671236 78.5095106 62.5636283 79.1242595 63.260133 79.7390084 64.110504 80.0463782 65.1147666 80.0463782 66.0542381 80.0463782 66.8398188 79.7551857 67.4715324 79.172792 68.103246 78.5903983 68.419098 77.813885 68.419098 76.8432289 68.419098 75.7107967 68.0627521 74.8129532 67.3500496 74.1496715 66.6373471 73.4863898 65.5683094 73.1547539 64.1429044 73.1547539L63.2196353 73.2032865 63.7055664 68.8838881z"/>
      </g>
      <g transform="translate(.349)">
        <g transform="translate(113.986 142.802)">
          <g stroke-linecap="round" stroke-linejoin="round">
            <use fill="#FFFFFF" xlink:href="#d"/>
            <path stroke="#297BCC" stroke-width="1.5" d="M-0.497077644,0.535870295 C-0.471576699,0.641191848 -0.423191846,0.845845381 -0.355193438,1.14119847 C-0.241525332,1.63491923 -0.114776173,2.20210501 0.0217835724,2.83411671 C0.412186099,4.64093736 0.802665227,6.60367715 1.16706152,8.65307188 C1.70557561,11.6817194 2.13921145,14.6328537 2.42999356,17.4047222 C2.56450097,18.6869085 2.66667644,19.9161029 2.73400979,21.0853311 C2.82632371,22.6883413 2.81181777,24.2129465 2.71546596,26.9334028 C2.70634883,27.1894559 2.70634883,27.1894559 2.69712499,27.4457373 C2.48527608,33.3313194 2.58130111,35.8360405 3.43586393,38.6515285 C4.58841595,42.4487875 7.08622713,45.0663014 11.3680514,46.5189365 C16.0499713,48.0871952 20.22728,48.0562293 24.3359541,46.6647016 C27.4196509,45.6203137 29.6485297,44.3071715 34.4520786,41.0210237 C34.4711517,41.0079756 34.4711517,41.0079756 34.490223,40.9949287 C41.8990111,35.92654 45.446321,34.3160043 50.8530081,34.6336469 C56.2802811,34.9524989 59.3936551,36.5259725 64.8477992,40.7829181 C65.1214214,40.9965962 65.1214214,40.9965962 65.3954438,41.2105325 C72.2554039,46.5626741 76.5225374,48.2035599 84.7573771,46.9377057 C89.6570031,46.1845384 92.4014958,44.277396 93.3745816,41.2295997 C94.1093374,38.9282757 93.8686007,36.551347 92.8300175,32.1606783 C92.7834336,31.9637422 92.7394292,31.7791573 92.6657892,31.471272 C91.848729,28.0551833 91.5904935,26.6680528 91.5904935,25.0829735 C91.5904935,22.7609409 91.790305,19.5350902 92.1495648,15.6409559 C92.2932818,14.0831602 92.4598859,12.448153 92.6448715,10.761007 C92.8760166,8.65286605 93.1237104,6.57145252 93.3713955,4.60854538 C93.4580739,3.92161828 93.5385497,3.29864726 93.6107538,2.75109017 C93.6540312,2.42289797 93.6849017,2.1930096 93.7012967,2.07287851 L93.815476,1.23625274 L92.9712224,1.22157505 L0.244896995,-0.39051014 L-0.725461852,-0.407380227 L-0.497077644,0.535870295 Z"/>
          </g>
          <path fill="#CEE9F1" d="M2.3716902,6.62060336 C2.3716902,6.62060336 28.8348697,25.6640298 46.8425248,25.6640298 C64.8501799,25.6640298 71.2488061,28.0691382 74.6795535,32.2808638 C78.1103008,36.4925893 76.1619357,46.9237707 76.1619357,46.9237707 C76.1619357,46.9237707 85.6870516,47.5120901 88.7238396,46.1531794 C91.7606275,44.7942688 94.0644215,42.5855633 94.0644215,38.1387538 C94.0644215,33.6919442 91.7606275,25.6640298 91.7606275,25.6640298 L93.6444807,2.40759977 C93.6444807,2.40759977 74.9546464,20.3035574 45.5242305,20.3035574 C16.0938147,20.3035574 2.3716902,6.62060336 2.3716902,6.62060336 Z" style="mix-blend-mode:darken"/>
        </g>
        <g stroke-linecap="round" stroke-linejoin="round" transform="scale(1 -1) rotate(45 357.321 0)">
          <use fill="#FFFFFF" xlink:href="#e"/>
          <path stroke="#297BCC" stroke-width="1.5" d="M65.5152304,97.3975459 C64.8740072,98.2428355 64.2266605,99.0797578 63.5992615,99.8694104 C63.4316673,100.080347 63.2670658,100.285903 63.1057745,100.485608 C62.9386338,100.692556 62.7753694,100.892822 62.6162969,101.085942 C62.5586711,101.155901 62.5013417,101.226361 62.4443094,101.297306 C61.5535379,102.405386 60.766356,103.589088 60.0887791,104.772758 C59.851469,105.187319 59.6445086,105.572842 59.4688276,105.919826 C59.3621043,106.130613 59.2886857,106.283614 59.2495517,106.3693 L58.7159662,107.537619 L59.9956922,107.428148 L64.631707,107.031571 C64.4919699,107.314574 64.3452157,107.617488 64.1925322,107.939161 C63.4010018,109.606753 62.6097978,111.438714 61.8711205,113.3802 C60.7089759,116.434698 59.7874635,119.471474 59.1965955,122.398761 C58.6329638,125.191507 58.5646067,129.12575 58.8908443,133.927305 C59.0766225,136.661583 59.3839055,139.5722 59.7788135,142.547998 C60.0152416,144.329583 60.2685383,146.02533 60.5218901,147.579449 C60.6106199,148.123738 60.693049,148.611608 60.7670763,149.036072 C60.811623,149.291498 60.8435611,149.469513 60.8607896,149.563126 L60.9263477,149.919345 L61.2461022,150.089483 C61.3958054,150.169139 61.6780957,150.317329 62.078352,150.524276 C62.7441709,150.868528 63.4986655,151.251952 64.3272303,151.664776 C66.6943503,152.84417 69.1819452,154.023566 71.67363,155.124898 C73.2263107,155.811187 74.7336675,156.445896 76.1802707,157.018578 C82.9868673,159.713176 87.8611959,160.84902 90.3075355,159.836328 C92.5211325,158.920015 93.7984196,156.857627 94.4235535,153.726273 C94.8777461,151.451181 94.9713713,149.331179 94.9772777,144.453357 C94.9773121,144.424861 94.9773121,144.424861 94.9773464,144.396368 C94.981591,140.875015 95.0167311,139.352746 95.1839125,137.60956 C95.6044083,133.225087 97.0480709,131.386345 100.522459,129.400829 C100.695097,129.302172 100.868649,129.204228 101.218051,129.007447 C102.538289,128.262296 103.225514,127.822781 103.934225,127.208355 C104.890161,126.379646 105.769884,125.325931 106.577482,124.099694 C107.281274,123.031073 107.892592,121.89063 108.410576,120.750514 C108.59188,120.351454 108.748807,119.980381 108.88105,119.646403 C108.961395,119.443491 109.016292,119.296165 109.045381,119.213571 L109.150709,118.914505 L109.00957,118.630578 L83.4467573,67.2063591 L82.9826275,66.2726782 L82.245044,67.0096632 C82.203141,67.0515322 82.123374,67.132063 82.0079393,67.2498718 C81.8166609,67.4450842 81.5941132,67.6748013 81.3424921,67.9376401 C80.6248276,68.6872991 79.8172649,69.552806 78.9373665,70.5231091 C76.4245542,73.2940987 73.833691,76.3511822 71.305167,79.6063319 C70.1523584,81.090373 68.8665626,82.802725 67.4706217,84.7072122 C67.1476432,85.147853 66.8195534,85.5977165 66.4867182,86.0562255 C64.49743,88.7966396 62.420273,91.7318901 60.37891,94.6670191 C59.6644953,95.6942246 59.0055477,96.6480954 58.4175554,97.504224 C58.2116988,97.8039555 58.0293947,98.0700906 57.8725798,98.2995777 C57.7136977,98.5323079 57.7136977,98.5323079 57.6800428,98.5817793 L56.433729,100.413822 L58.5365576,99.7154013 L65.5152307,97.3975457 L65.5152304,97.3975459 Z"/>
        </g>
        <path fill="#E6F9FF" d="M68.6890413,84.217114 C68.6890413,84.217114 73.8669854,90.3137932 78.2471098,91.688159 C82.6272341,93.0625248 85.9369492,90.1593076 84.2476944,92.6194724 C83.7910791,93.2844692 88.0367877,90.2055606 87.8115055,91.688159 C87.6965633,92.4446016 87.7539372,103.097077 89.9825355,111.620161 C92.2111338,120.143246 96.4339351,125.882922 96.4339351,125.882922 C96.4339351,125.882922 99.0700164,132.217275 103.488794,136.833556 C107.907572,141.449837 113.109344,147.641215 113.109344,147.641215 C113.109344,147.641215 104.957502,146.442119 94.0912791,145.040805 C83.2250562,143.63949 80.0131972,142.687639 80.0131972,142.687639 L86.9249027,136.436227 C86.9249027,136.436227 80.4118126,137.538163 76.6518575,137.185859 C72.8919024,136.833556 78.1458741,131.631946 78.1458741,131.631946 C78.1458741,131.631946 73.4083623,131.774131 67.4813317,128.828526 C61.5543011,125.882922 72.8191392,121.730323 72.8191392,113.433023 C72.8191392,105.135724 43.3848756,103.486375 43.3848756,103.486375 C43.3848756,103.486375 59.8744221,99.19791 62.0043252,93.4417771 C64.1342282,87.6856442 66.0118331,80.8876093 66.0118331,80.8876093 L68.6890413,84.217114 Z" style="mix-blend-mode:darken"/>
        <g transform="translate(.796 32.76)">
          <path fill="#FFFFFF" stroke="#297BCC" stroke-width="1.62" d="M49.1696972,33.0506257 C49.1696972,33.0506257 50.2873036,25.1193552 50.3284662,19.7048059 C50.3696288,14.2902566 48.1512514,10.05705 43.0934409,10.05705 C38.0356305,10.05705 36.1558301,12.0645201 35.318304,17.6140401 C34.4807779,23.1635601 38.0607828,35.1532909 36.3526355,35.6552686 C34.6444882,36.1572463 30.2918236,26.3243889 27.8591148,23.4764698 C25.4264059,20.6285506 21.7435857,16.5849638 17.133662,19.2363227 C12.5237383,21.8876817 13.1684304,28.6408023 17.133662,32.7976536 C21.0988935,36.954505 29.8633527,48.2421722 29.8633527,48.2421722 C29.8633527,48.2421722 20.5967309,65.7448434 39.1630695,70.9889458 C57.7294081,76.2330483 65.5915506,64.2492811 66.9629039,60.2304348 C68.3342573,56.2115884 72.2135792,48.6820087 61.9165974,42.7433348 C51.6196155,36.8046609 49.1696972,33.0506257 49.1696972,33.0506257 Z" stroke-linecap="round" stroke-linejoin="round" transform="scale(-1 1) rotate(54 0 -40.018)"/>
          <path fill="#E6F9FF" d="M52.3039599,37.111007 C52.3039599,37.111007 57.3538481,42.5694877 54.5497437,44.7775687 C51.7456394,46.9856497 41.4600403,49.4281317 41.4600403,49.4281317 L34.2805784,57.7908022 L35.6097506,65.1128566 C35.6097506,65.1128566 39.6918833,68.293163 41.3472396,65.3472577 C43.002596,62.4013525 40.7539708,59.1322235 40.7539708,59.1322235 C40.7539708,59.1322235 42.7704597,60.8090776 45.7902207,56.3318966 C48.8099816,51.8547156 58.5537399,52.8147451 59.5433737,50.1733343 C60.5330074,47.5319234 63.5172518,58.1753221 58.1789691,62.8071558 C52.8406863,67.4389895 42.7428988,69.6867995 41.7484348,71.6985057 C40.7539708,73.710212 40.8480187,74.9162709 40.8480187,74.9162709 C40.8480187,74.9162709 56.9549259,71.4558751 60.3736091,66.802758 C63.7922922,62.1496409 70.3685406,49.6035069 66.6640201,44.2341327 C62.9594996,38.8647586 52.3039599,37.111007 52.3039599,37.111007 Z" style="mix-blend-mode:darken"/>
          <path fill="#FFFFFF" stroke="#297BCC" stroke-width="1.62" d="M33.096969,40.82033 C38.2756868,40.82033 38.7041577,46.7374087 38.2386203,52.7518861 C37.7730829,58.7663634 36.1373035,60.7429833 32.0163044,59.9452839 C27.8953054,59.1475844 26.422795,54.7620005 27.2603211,49.8695909 C28.0978472,44.9771814 27.9182513,40.82033 33.096969,40.82033 Z" stroke-linecap="round" stroke-linejoin="round" transform="scale(-1 1) rotate(54 0 -13.725)"/>
          <path fill="#FFFFFF" stroke="#297BCC" stroke-width="1.62" d="M29.7587581,53.5689432 C34.2011978,53.5689432 34.5687514,58.2224635 34.1694012,62.9525834 C33.770051,67.6827034 32.3668367,69.2372273 28.8317357,68.6098721 C25.2966348,67.9825168 24.0334769,64.5334493 24.7519287,60.685786 C25.4703805,56.8381226 25.3163184,53.5689432 29.7587581,53.5689432 Z" stroke-linecap="round" stroke-linejoin="round" transform="scale(-1 1) rotate(54 0 3.406)"/>
          <path stroke="#297BCC" stroke-width="1.62" d="M49.1779359,53.5787509 C49.1779359,53.5787509 61.7942208,44.5242014 57.9128301,38.35988 C54.0314394,32.1955585 48.7004843,34.8138636 44.5971359,37.7997275 C40.4937875,40.7855913 39.5393255,43.6370362 39.5393255,43.6370362" stroke-linecap="round" stroke-linejoin="round" transform="scale(-1 1) rotate(54 0 -52.266)"/>
          <g fill="#E6F9FF" transform="translate(19.13 8.535)">
            <path d="M20.4200552.937356596C20.4200552.937356596 27.7728379 18.206701 26.9099272 21.5107348 26.0470166 24.8147686 23.2781447 26.7348143 20.9218333 26.5194264 18.5655219 26.3040385 11.9889893 17.5764288 8.93172287 16.4455712 5.87445639 15.3147137 2.46060354 11.7927379.55208505 13.122808-1.35643344 14.4528782 2.57510896 23.2017712 7.77303024 25.7166169 12.9709515 28.2314625 16.829756 30.7766724 17.3877924 32.6992721 17.9458287 34.6218719 19.4014399 38.4347207 18.5927986 37.392402 17.7841573 36.3500833 20.1916126 29.3401853 24.8317816 27.9298059 29.4719507 26.5194264 34.0578504 26.6522348 34.0578504 26.5858306 34.0578504 26.5194264 29.2398143 9.46149704 29.2398143 8.23926278 29.2398143 7.01702851 26.5112893 1.32726834 24.063203.626902849 21.6151168-.0734626417 20.4200552.937356596 20.4200552.937356596zM10.237312 35.5887055C10.237312 35.5887055 15.5920745 40.2205392 15.1067761 43.2578211 14.6214776 46.2951031 13.0738075 47.4798786 13.0738075 47.4798786 13.0738075 47.4798786 16.5089703 51.1445949 19.223857 49.0066072 21.9387438 46.8686195 22.7073224 43.8903635 20.9655897 41.48307 19.223857 39.0757764 10.237312 35.5887055 10.237312 35.5887055zM11.1488093 57.9470508C11.1488093 57.9470508 13.3326523 55.4347592 12.6047046 52.8657119 11.876757 50.2966646 9.04594417 47.1731139 9.04594417 47.1731139 9.04594417 47.1731139 16.3069521 49.9175364 16.9539219 52.3083708 17.6008918 54.6992052 17.0644495 57.626381 15.4980266 58.2376401 13.9316037 58.8488991 11.1488093 57.9470508 11.1488093 57.9470508z" style="mix-blend-mode:darken"/>
          </g>
        </g>
        <g stroke-linecap="round" stroke-linejoin="round">
          <use fill="#FFFFFF" xlink:href="#f"/>
          <path stroke="#297BCC" stroke-width="1.5" d="M225.654679,181.398036 C225.78603,181.694617 225.953519,181.998172 226.163484,182.301197 C227.163198,183.744003 228.869998,184.683267 231.368435,184.901505 C234.173776,185.146544 236.111388,183.999407 237.243176,181.97613 C237.290086,181.89227 237.334903,181.808486 237.377698,181.724925 C237.433336,181.823853 237.492517,181.921904 237.555356,182.018937 C238.616537,183.65756 240.511327,184.705344 243.347374,184.902544 C246.499832,185.121746 248.501969,183.527846 249.485935,180.838194 C249.741516,180.139567 249.913449,179.404393 250.017373,178.661032 C251.792272,179.891555 254.348849,180.240269 257.751228,179.244257 C260.554405,178.423618 261.212599,176.544179 260.037709,174.321069 C259.610585,173.512871 258.959603,172.676886 258.143441,171.827317 C257.63511,171.298178 257.092757,170.795208 256.55047,170.333349 C256.402364,170.20721 256.262322,170.091066 256.132388,169.985861 C256.145446,169.687771 256.158473,169.344327 256.170636,168.959555 C256.30249,164.788368 256.231879,160.160158 255.809434,155.783878 C255.615084,153.770517 255.351751,151.907985 255.012263,150.226046 C254.664117,148.501058 254.274561,146.956599 253.850423,145.58253 C253.215147,143.524437 252.530655,141.931051 251.837352,140.742908 C252.342321,140.872349 252.940455,141.059678 253.663266,141.308376 C253.805272,141.357236 253.951892,141.408216 254.141241,141.474446 C255.925912,142.09868 256.593921,142.3147 257.28322,142.431523 C257.298677,142.443006 257.314741,142.454193 257.331524,142.465132 C257.71546,142.715381 258.261887,142.61219 258.477039,142.135894 C258.588811,141.888459 258.575491,141.699438 258.505783,141.333085 C258.427411,140.921191 258.242128,140.250148 257.961982,139.355055 C257.38713,137.518347 256.454778,134.871832 255.361181,131.9916 C252.639523,124.823511 249.539855,117.757812 246.81519,112.825424 C246.23286,111.771275 245.543541,110.666183 244.7559,109.515385 C243.522796,107.713737 242.065131,105.82322 240.428944,103.874695 C238.573911,101.665546 236.588117,99.496665 234.602419,97.458542 C233.907414,96.7451877 233.261856,96.0989239 232.682152,95.5311593 C232.333394,95.1895843 232.083398,94.9494371 231.948583,94.8221513 L231.948583,94.8221513 L231.212637,94.1273045 L230.7621,95.0336406 L205.199288,146.45786 L205.058142,146.7418 L205.163486,147.040878 C205.192578,147.123471 205.247479,147.270795 205.327831,147.473705 C205.460085,147.807682 205.617022,148.178752 205.798335,148.57781 C206.316347,149.71792 206.927679,150.858359 207.631463,151.926974 C208.439054,153.153206 209.318743,154.206915 210.274633,155.035637 C210.551815,155.275929 210.82807,155.50697 211.197425,155.809766 C211.295495,155.890163 211.42004,155.991918 211.637522,156.169615 C211.808952,156.309855 211.937817,156.415919 212.06162,156.518947 C214.93293,158.908423 216.032803,160.959784 216.546005,166.312296 C216.775906,168.709455 216.403506,170.882101 215.416267,174.212237 C214.244413,178.165114 214.170476,178.453767 214.164241,179.753581 C214.155098,181.659353 215.042369,183.010991 217.005717,183.823743 C220.165255,185.131626 222.867587,184.295661 224.989143,182.144078 C225.227697,181.902148 225.449473,181.652171 225.654679,181.398036 Z"/>
        </g>
        <path fill="#E6F9FF" d="M232.46761,95.7032131 C232.46761,95.7032131 242.824697,106.18571 247.452214,115.564281 C252.079731,124.942851 258.331398,142.840925 258.331398,142.840925 L251.468112,140.632309 C251.468112,140.632309 255.427691,149.952986 255.427691,154.164712 C255.427691,158.376437 256.151106,169.921326 256.151106,169.921326 C256.151106,169.921326 260.482823,174.228096 260.482823,176.317756 C260.482823,178.407417 257.402632,179.962164 254.693155,179.962164 C251.983679,179.962164 249.034985,176.691326 249.034985,176.691326 C249.034985,176.691326 249.829752,178.174801 249.818111,178.382395 C249.80647,178.589989 248.133701,184.340752 244.045902,184.834667 C239.319844,185.4057 237.324492,181.02874 237.324492,181.02874 C237.324492,181.02874 236.363475,184.545274 231.927196,184.834667 C227.490917,185.124059 225.870406,180.549638 225.870406,180.549638 C225.870406,180.549638 223.47632,184.233692 220.148826,184.233692 C215.859244,184.233692 214.75257,181.549257 214.75257,181.02874 C214.75257,180.508223 219.428891,182.064167 221.348611,177.595149 C222.382358,175.188635 225.870406,178.382395 225.870406,178.382395 C225.870406,178.382395 227.37185,182.535055 229.203578,182.685403 C231.035305,182.835751 231.130886,179.154323 232.979947,177.595149 C236.141157,174.929538 237.324492,179.39161 237.324492,179.39161 C237.324492,179.39161 239.93813,184.009734 242.866366,183.209792 C245.794601,182.409849 243.021717,179.186216 244.308926,176.691326 C245.596136,174.196436 249.034985,176.317756 249.034985,176.317756 C249.034985,176.317756 253.231124,176.337992 253.996768,174.299565 C254.762413,172.261137 251.832725,170.287805 251.832725,170.287805 C251.832725,170.287805 249.424359,146.810904 240.136163,142.501218 C230.847968,138.191532 206.181533,146.972788 206.181533,146.972788 C206.181533,146.972788 221.029673,133.14459 225.568434,120.945476 C230.107195,108.746361 232.46761,95.7032131 232.46761,95.7032131 Z" style="mix-blend-mode:darken"/>
        <g transform="translate(83.024)">
          <g stroke-linecap="round" stroke-linejoin="round">
            <use fill="#FFFFFF" xlink:href="#g"/>
            <path stroke="#297BCC" stroke-width="1.5" d="M52.4788989,22.9786444 C36.564142,28.8158805 24.7069191,37.3582206 16.7396008,49.5764146 C15.6512522,50.7007461 14.3719545,52.3542989 12.8158493,54.5874344 C12.432382,55.1377407 12.0325886,55.722496 11.602272,56.3611801 C10.9864746,57.2751585 8.56858252,60.9368603 8.03567617,61.7210098 C7.71858245,62.1875393 7.39385517,62.6807314 7.06201945,63.1991712 C6.34221696,64.3237464 5.59371695,65.5595487 4.82330361,66.8887171 C3.51319949,69.1489959 2.20230702,71.568541 0.952575822,73.9878071 C0.515268799,74.8343588 0.116768353,75.6205494 -0.235116837,76.3263506 C-0.446576331,76.75049 -0.595747162,77.0540801 -0.6748068,77.2170723 L-1.45204943,78.8194644 L0.237356607,78.2558389 L6.54959247,76.1499287 C6.34004152,77.1538559 6.15169491,78.1634648 5.98475094,79.1781903 L1.22995643,90.7356286 L0.606520444,92.2510091 L2.16090928,91.7324285 L5.0210587,90.7782154 C5.02079157,90.8591068 5.02065801,90.9400281 5.02065801,91.0209779 C5.02065801,131.015508 37.4625964,163.485687 77.4229949,163.485687 C117.383262,163.485687 149.825332,131.015439 149.825332,91.0209779 C149.825332,60.0596354 130.202799,32.7959465 101.478564,22.6586434 C98.5259521,21.1687277 95.783024,19.7689071 93.6414368,18.6424871 C91.124558,17.3185788 89.9833896,15.6146544 88.222043,11.4136658 C88.1092589,11.1444402 88.0467066,10.9951277 87.9955912,10.8734298 C87.9086516,10.6664402 87.8358158,10.4940546 87.7652333,10.3285348 C87.0441034,8.63744601 86.4716978,7.48839344 85.7440861,6.38056406 C84.9296691,5.14059838 83.9274735,4.09316332 82.780837,3.22283074 C81.6467053,2.36198965 80.4342501,1.71863747 79.2210174,1.25961703 C78.4874756,0.982085206 77.9091005,0.826168293 77.5615687,0.760831648 L76.5081189,0.562781068 L76.6830497,1.62031583 C76.6932852,1.68219384 76.7120425,1.8051121 76.7365053,1.98197533 C76.7777151,2.27991862 76.8190265,2.61774159 76.8576323,2.98831255 C77.0281394,4.62498104 77.0899385,6.30896523 76.9799392,7.87041245 C76.9255892,8.6419139 76.8299923,9.35661317 76.6900074,10.0026035 C76.3990459,11.3452355 75.5447562,12.7183409 74.2950875,14.0447777 C73.7288433,14.6458067 73.1199485,15.1961435 72.5113198,15.6822924 C72.4676749,15.7171542 72.4252438,15.7507439 72.3841008,15.78304 L69.4274903,10.2874123 L69.0558456,9.59661413 L68.3824097,9.9988652 C68.2829396,10.0582798 68.0952297,10.1724089 67.827103,10.3385547 C67.3821404,10.6142776 66.8724376,10.9366052 66.3058139,11.3028446 C64.6885653,12.3481591 62.9377316,13.536664 61.1157953,14.8469207 C60.6088635,15.2114599 60.0803501,15.6225503 59.5315661,16.0770857 C58.7254323,16.7447733 57.8834879,17.4994506 57.0095279,18.3306149 C56.0906333,19.2045134 55.1705445,20.1296219 54.2218172,21.1218021 C53.8638021,21.4962147 53.5172179,21.8638454 53.1417814,22.2661146 C52.9990541,22.4190428 52.6640765,22.779471 52.4788989,22.9786444 Z"/>
          </g>
          <path fill="#E6F9FF" d="M77.2565734,0 C77.2565734,0 82.6855757,5.96207248 82.9031357,12.8318403 C83.1206957,19.7016081 75.6627996,22.3216174 74.6780904,21.7967537 C73.6933813,21.27189 71.7860245,14.1464557 71.1300689,12.6798108 C70.4741133,11.2131659 68.5765829,9.05850979 68.5765829,9.05850979 C68.5765829,9.05850979 70.5297963,21.2277635 68.1071566,23.7253908 C65.6845169,26.2230181 69.936247,27.1617399 76.0674061,26.3324724 C82.1985653,25.503205 90.0407255,20.1613163 94.4364037,20.979035 C98.832082,21.7967537 102.551979,23.1738099 102.551979,23.1738099 C102.551979,23.1738099 92.44354,18.6196477 90.6213453,15.6497292 C88.7991507,12.6798108 87.1109055,5.80297587 84.4591554,3.89433356 C81.8074054,1.98569126 77.2565734,0 77.2565734,0 Z" style="mix-blend-mode:darken"/>
          <path fill="#E6F9FF" d="M12.5574157,121.29875 C12.5574157,121.29875 32.1585824,162.804392 75.5105653,162.804392 C118.862548,162.804392 139.579061,132.243488 145.132461,115.80865 C150.68586,99.3738117 150.306923,85.2374805 142.442562,60.1872072 C134.578202,35.1369339 100.861134,23.3933643 100.861134,23.3933643 C100.861134,23.3933643 128.096871,45.4399434 132.387933,74.2572315 C132.575665,75.5179737 136.965201,80.7194444 137.060898,82.0048259 C137.156595,83.2902075 132.927655,79.9260007 132.945252,80.8590056 C132.998104,83.6612506 137.524076,92.6994223 137.060898,95.5886943 C136.597721,98.4779662 131.696162,92.8754244 131.209888,94.6290252 C128.674621,103.771718 123.176727,113.201665 113.44075,122.530593 C94.4195631,140.756529 75.3645059,145.028357 59.0187331,143.29092 C58.0346252,143.186317 58.8006233,149.346427 57.8367548,149.199993 C56.8728864,149.05356 52.5838423,142.306579 50.8841992,141.912066 C28.265071,136.661816 12.5574157,121.29875 12.5574157,121.29875 Z" style="mix-blend-mode:multiply"/>
        </g>
        <g transform="translate(106.994 47.933)">
          <g stroke-linecap="round" stroke-linejoin="round">
            <use fill="#C6F1FF" xlink:href="#h"/>
            <path stroke="#297BCC" stroke-width="1.5" d="M51.5461289,11.2395524 C49.9070262,10.5422573 48.2745377,9.8135321 46.746472,9.08431496 C45.7168043,8.59294119 44.7675561,8.11670377 43.9158292,7.66119238 C42.8992807,7.11753295 42.0358072,6.61091178 41.3486373,6.15015919 C39.6157549,4.98833597 38.0998935,3.40703929 36.821137,1.61156841 L36.5573132,1.24113988 L36.1068776,1.30381439 C15.2467542,4.20633385 0.748127483,12.6032943 0.748127483,22.4913663 C0.748127483,34.9425843 23.6434582,44.7353234 51.750941,44.7353234 C79.8582928,44.7353234 102.753754,34.9425552 102.753754,22.4913663 C102.753754,10.1305821 80.1808637,0.377379052 52.3070261,0.248620463 L51.9088306,0.246781064 L51.6842392,0.575599769 C50.5711698,2.20521715 49.8680053,3.95946876 49.7992535,5.7822078 C49.7300404,7.61376856 50.3979069,9.45890101 51.5461289,11.2395524 Z"/>
          </g>
          <path fill="#5588BB" d="M19.5914256,39.7628376 C19.5914256,39.7628376 -5.71892796,32.9477091 1.89556955,18.0823978 C9.51006706,3.2170866 35.8445085,1.6140128 35.8445085,1.6140128 C35.8445085,1.6140128 40.0341143,7.17325118 41.7690561,7.11358587 C42.2668779,7.0964656 51.6058501,11.1694165 51.6058501,11.1694165 C51.6058501,11.1694165 50.3893483,9.49706471 50.4278623,6.21371429 C50.4663762,2.93036388 50.8067671,6.08435069 50.8171564,5.96229513 C51.0248246,3.52255979 50.6981272,1.53092405 52.3877083,0.843177737 C56.8364176,-0.967675519 58.2587754,0.843177737 58.2587754,0.843177737 C58.2587754,0.843177737 55.8946139,4.80187309 58.2055748,9.12265561 C60.5165356,13.4434381 62.3525468,13.3282453 61.4622941,14.309731 C60.5720414,15.2912168 57.8337732,15.8814514 52.3877083,12.6152011 C46.9416435,9.34895081 38.4639845,5.06783787 38.4639845,5.06783787 C38.4639845,5.06783787 16.980518,9.10737645 12.2361011,17.5868917 C3.3510013,33.4668917 19.5914256,39.7628376 19.5914256,39.7628376 Z" opacity=".196" style="mix-blend-mode:multiply"/>
        </g>
        <g transform="translate(126.97 62.413)">
          <path fill="#297BCC" d="M7.69421068,0 C11.9406536,0 15.3884214,3.45056845 15.3884214,7.70090832 C15.3884214,11.9510476 11.9406536,15.4018166 7.69421068,15.4018166 C3.44756742,15.4018166 0,11.9510476 0,7.70090832 C0,3.45056845 3.44756742,0 7.69421068,0 Z"/>
          <path fill="#297BCC" d="M10.9038805,0.70101832 C13.5496528,1.91949391 15.3884214,4.59693348 15.3884214,7.70090832 C15.3884214,11.9510476 11.9406536,15.4018166 7.69421068,15.4018166 C6.75925317,15.4018166 5.87714711,15.146593 5.03380112,14.9283134 C4.46501521,14.781097 10.4419107,13.9429827 11.9706414,9.93653257 C14.0614641,4.45696939 10.9038805,0.70101832 10.9038805,0.70101832 Z" opacity=".48" style="mix-blend-mode:multiply"/>
          <path fill="#FFFFFF" d="M5.84460865,2.49653115 C7.96772991,2.49653115 9.69171399,4.22181538 9.69171399,6.34698531 C9.69171399,8.47215525 7.96772991,10.1974395 5.84460865,10.1974395 C3.72128702,10.1974395 1.99750331,8.47215525 1.99750331,6.34698531 C1.99750331,4.22181538 3.72128702,2.49653115 5.84460865,2.49653115 Z"/>
          <g transform="translate(48.44)">
            <path fill="#297BCC" d="M7.69421068,0 C11.9406536,0 15.3884214,3.45056845 15.3884214,7.70090832 C15.3884214,11.9510476 11.9406536,15.4018166 7.69421068,15.4018166 C3.44756742,15.4018166 0,11.9510476 0,7.70090832 C0,3.45056845 3.44756742,0 7.69421068,0 Z"/>
            <path fill="#297BCC" d="M10.901861,0.699040913 C13.5476333,1.9175165 15.3864019,4.59495607 15.3864019,7.69893091 C15.3864019,11.9490702 11.9386341,15.3998392 7.6921912,15.3998392 C6.75723369,15.3998392 5.87512763,15.1446156 5.03178164,14.926336 C4.46299573,14.7791196 10.4398912,13.9410053 11.968622,9.93455516 C14.0594447,4.45499198 10.901861,0.699040913 10.901861,0.699040913 Z" opacity=".48" style="mix-blend-mode:multiply"/>
            <path fill="#FFFFFF" d="M5.84460865,2.49653115 C7.96772991,2.49653115 9.69171399,4.22181538 9.69171399,6.34698531 C9.69171399,8.47215525 7.96772991,10.1974395 5.84460865,10.1974395 C3.72128702,10.1974395 1.99750331,8.47215525 1.99750331,6.34698531 C1.99750331,4.22181538 3.72128702,2.49653115 5.84460865,2.49653115 Z"/>
          </g>
        </g>
        <g transform="translate(114.984 97.864)">
          <mask id="j" fill="white">
            <use xlink:href="#i"/>
          </mask>
          <use fill="#297BCC" xlink:href="#i"/>
          <g transform="translate(29.463 12.982)" mask="url(#j)">
            <mask id="l" fill="white">
              <use xlink:href="#k"/>
            </mask>
            <use fill="#82C2DC" xlink:href="#k"/>
            <path fill="#2268AC" d="M17.5605286,13.6403624 C17.5605286,13.6403624 27.0720479,11.972936 28.1773822,7.93348302 C29.2827165,3.89403003 27.3720622,0.328357885 27.3720622,0.328357885 C27.3720622,0.328357885 33.9463553,1.16016303 36.9098356,2.93397911 C39.8733159,4.70779519 43.0367673,7.40384761 43.0367673,7.40384761 C43.0367673,7.40384761 35.3835097,11.1029694 31.0040402,12.3716659 C26.6245708,13.6403624 17.5605286,13.6403624 17.5605286,13.6403624 Z" opacity=".165" style="mix-blend-mode:multiply" mask="url(#l)"/>
          </g>
          <path fill="#2268AC" d="M28.8642829,24.9525432 C28.8642829,24.9525432 21.056689,17.9945737 40.2992392,11.7975725 C47.743021,9.40032659 67.6699907,11.2297469 68.3452828,11.3750733 C76.3701853,13.1020744 81.988791,15.6066499 81.988791,15.6066499 C81.988791,15.6066499 97.0452868,4.06462795 92.5294663,0.679207166 C88.0136458,-2.70621362 54.7229302,5.44486148 49.1269858,5.44486148 C43.5310414,5.44486148 0.898978929,-1.15642861 -0.234061688,2.38188466 C-1.3671023,5.92019792 4.21442395,13.839633 13.1748609,17.9945737 C22.1352978,22.1495144 28.8642829,24.9525432 28.8642829,24.9525432 Z" opacity=".522" style="mix-blend-mode:multiply" mask="url(#j)"/>
        </g>
      </g>
      <g transform="translate(109.334 143.171)">
        <path fill="#81BFF1" stroke="#297BCC" stroke-width="1.62" d="M0.298020462,0.291028569 L50.1876688,63.2358298 L96.9213331,4.1583218 C96.9213331,4.1583218 87.5281056,11.0030697 82.3357619,13.6762592 C77.1434181,16.3494486 69.1135712,18.4746728 69.1135712,18.4746728 L52.5026122,38.0758498 L32.4539407,18.2922905 C32.4539407,18.2922905 21.8449084,15.097282 16.7215093,12.229143 C11.5981101,9.36100395 5.89326142,3.4233102 0.298020462,0.291028569 Z" stroke-linecap="round" stroke-linejoin="round"/>
        <g transform="translate(17.008 25.884)">
          <path fill="#6FAFD0" fill-opacity=".276" d="M2.40914122,48.3648475 C2.40914122,48.3648475 25.4055581,97.6103188 59.7208397,80.1431452 C94.0361214,62.6759716 70.9765552,22.2385103 70.9765552,22.2385103 L2.40914122,48.3648475 Z" style="mix-blend-mode:darken"/>
          <use fill="#4B92D8" xlink:href="#m"/>
          <ellipse cx="36.445" cy="36.399" stroke="#ABD4F1" stroke-width="2.43" rx="35.23" ry="35.184"/>
          <ellipse cx="36.445" cy="36.399" stroke="#5087D2" stroke-width="4.05" rx="38.47" ry="38.424"/>
          <path fill="#D7F3FE" fill-rule="nonzero" d="M38.1472414,62.0899489 C38.1472414,62.0899489 41.7901908,61.4296979 43.4340236,60.7900419 C43.8816384,61.5932494 44.4911785,62.0518058 45.1825146,62.2713544 C47.8374375,63.1408501 52.5276205,60.2651868 52.5276205,60.2651868 C51.6001853,59.4024391 50.6323399,58.8803247 49.6896281,58.5978612 C49.1577482,58.4403862 48.6405364,58.3568394 48.1452376,58.3319563 C48.8712001,57.851464 49.5765756,57.3307187 50.2604376,56.769434 C50.5250757,56.9625586 50.8075325,57.0966737 51.1020858,57.1814252 C53.8780919,57.9997477 58.6057843,54.2399292 58.6057843,54.2399292 C58.3108334,54.1296211 58.0193275,54.0358783 57.7341934,53.9573019 C56.0609607,53.5025609 54.6033267,53.5441946 53.4145733,53.8176271 C54.1265463,53.0618531 54.8019752,52.2628325 55.4295131,51.4288135 C59.3133224,51.8772272 62.4849161,46.9397119 62.4849161,46.9397119 C60.4038023,47.0619325 58.8461388,47.4329441 57.6946904,47.9085938 C58.1927679,46.968095 58.4647276,46.2735077 58.5507117,46.0400104 C61.7088027,43.7598945 56.7316235,40.9822647 56.7316235,40.9822647 C53.7016142,44.1029684 55.354964,45.6905589 56.5035341,46.3488803 C56.3915554,46.6827454 55.9487642,47.9039386 54.9412078,49.5080384 C54.3493146,47.869749 52.4924454,46.5277066 52.4924454,46.5277066 C48.5265208,50.6242878 50.9513013,52.7036232 52.0017534,53.3718719 C51.866342,53.5196089 51.7306206,53.665031 51.5929457,53.8087034 C50.7813375,54.667858 49.9150435,55.4570382 49.0056233,56.171795 C49.6145887,54.2441215 49.0167627,52.1523997 49.0167627,52.1523997 C43.6459138,54.8116467 44.3789581,57.6707873 44.8814752,58.8017766 C43.8555487,59.3130676 42.7782995,59.7355997 41.6497176,60.0695352 C42.9155617,58.2694719 43.0449275,55.6358508 43.0449275,55.6358508 C37.7724946,56.7662135 37.5106757,59.5187 37.690504,60.854866 C37.524368,60.8731728 36.9394744,60.901853 36.3098827,60.9292512 C35.6799868,60.901853 35.0947748,60.8731728 34.9284355,60.854866 C35.0932979,59.5187 34.7998522,56.7662135 29.5141203,55.6358508 C29.5141203,55.6358508 29.674191,58.2694719 30.9604564,60.0695352 C29.8281207,59.7355997 28.7460993,59.3130676 27.7143641,58.8017766 C28.2039009,57.6707873 28.9033229,54.8116467 23.5001631,52.1523997 C23.5001631,52.1523997 22.9278365,54.2441215 23.5597525,56.171795 C22.641884,55.4570382 21.7661778,54.667858 20.9442225,53.8087034 C20.8048071,53.665031 20.6673211,53.5196089 20.5301139,53.3718719 C21.5724044,52.7036232 23.9713846,50.6242878 19.9528381,46.5277066 C19.9528381,46.5277066 18.1134696,47.869749 17.5425947,49.5080384 C16.5144625,47.9039386 16.0557628,46.6827454 15.9393981,46.3488803 C17.0792734,45.6905589 18.7114027,44.1029684 15.6386399,40.9822647 C15.6386399,40.9822647 10.6995815,43.7598945 13.8881487,46.0400104 C13.9772122,46.2735077 14.2582865,46.968095 14.7685966,47.9085938 C13.6109773,47.4329441 12.0484782,47.0619325 9.9657672,46.9397119 C9.9657672,46.9397119 13.2002028,51.8772272 17.0784475,51.4288135 C17.7163124,52.2628325 18.4015425,53.0618531 19.1227029,53.8176271 C17.9306349,53.5441946 16.4724952,53.5025609 14.8047719,53.9573019 C14.5205868,54.0358783 14.2302119,54.1296211 13.9365904,54.2399292 C13.9365904,54.2399292 18.7085612,57.9997477 21.4751007,57.1814252 C21.7686681,57.0966737 22.0495628,56.9625586 22.3119468,56.769434 C23.002345,57.3307187 23.7137447,57.851464 24.4452316,58.3319563 C23.950218,58.3568394 23.4339632,58.4403862 22.9038843,58.5978612 C21.9643942,58.8803247 21.0024742,59.4024391 20.0847454,60.2651868 C20.0847454,60.2651868 24.8065202,63.1408501 27.4520145,62.2713544 C28.1409529,62.0518058 28.7454631,61.5932494 29.1841958,60.7900419 C30.8351095,61.4296979 34.485307,62.0899489 34.485307,62.0899489 L36.1054654,62.2200745 L36.3170779,62.2371369 L36.4875861,62.2508963 L38.1472414,62.0899489 Z" opacity=".688"/>
          <polygon fill="#D7F3FE" points="36.04 50.891 32.47 52.766 33.151 48.795 30.263 45.983 34.255 45.404 36.04 41.791 37.825 45.404 41.817 45.983 38.928 48.795 39.61 52.766" opacity=".688"/>
          <path fill="#ABD4F1" d="M20.6795252,16.4052407 C20.9884942,14.0190988 23.2527704,12.0164062 25.7300157,11.9355821 C25.7300157,11.9355821 32.6346976,11.6871921 35.6247197,11.6871921 C38.6147417,11.6871921 45.5194236,11.9355821 45.5194236,11.9355821 C47.9997635,12.0179645 50.3857239,14.0569723 50.7814227,16.5150456 C50.7814227,16.5150456 50.7978685,16.0529564 50.7978685,16.7665412 C50.7978685,17.4801261 50.7978685,16.7665412 50.7978685,16.7665412 C50.3630038,19.0415514 48.0008075,20.9741405 45.5109584,21.0465056 C45.5109584,21.0465056 42.3399439,21.3002881 39.0072625,20.8858115 C35.674581,20.4713348 25.7299045,20.7813262 25.7299045,20.7813262 C23.249626,20.8390318 21.2617261,18.8695928 21.238963,17.4023483 C21.238963,17.4023483 21.2921355,17.8459639 21.238963,17.4023483 C21.1857905,16.9587327 20.6795252,16.6273553 20.6795252,16.4052407 C20.6795252,15.8791633 20.6795252,16.4052407 20.6795252,16.4052407 Z"/>
          <path fill="#ABD4F1" d="M8.99109792,29.1413259 C9.54908762,27.5887326 11.4014966,26.3376509 13.1556493,26.3449868 C13.1556493,26.3449868 18.2211726,26.3823871 23.0733365,26.330107 C27.9255004,26.2778269 33.3517036,26.0714286 35.9817221,26.0714286 C41.3816226,26.0714286 58.8255066,26.2916596 58.8255066,26.2916596 C60.5577532,26.3128935 62.6230653,27.5806525 63.3367131,29.1542105 C63.3367131,29.1542105 63.3840259,28.9121047 63.3840259,29.3764137 C63.3840259,29.8407226 63.3840259,29.3764137 63.3840259,29.3764137 C62.5986718,30.8566968 60.5516734,32.0813208 58.8110364,32.1076222 C58.8110364,32.1076222 48.1092387,32.3263913 42.0905046,32.0567033 C38.7219503,31.9057648 29.6809852,32.3258368 23.0733365,32.359784 C16.4656877,32.3937312 13.1450317,32.1895426 13.1450317,32.1895426 C11.4088671,32.1161775 9.62273779,30.6926007 9.53574235,30.4040421 C9.53574235,30.4040421 9.63177049,30.6926899 9.53574235,30.4040421 C9.43971422,30.1153943 8.99109792,29.2858494 8.99109792,29.1413259 C8.99109792,28.7990226 8.99109792,29.1413259 8.99109792,29.1413259 Z" transform="matrix(-1 0 0 1 72.375 0)"/>
        </g>
      </g>
    </g>
  </g>
</svg>
