<svg xmlns="http://www.w3.org/2000/svg" width="32" height="32" viewBox="0 0 32 32">
  <g fill="none" fill-rule="evenodd">
    <rect width="32" height="32" fill="#00FFFF"/>
    <path fill="#FF00FF" fill-rule="nonzero" d="M16,0 C7.1634375,0 0,7.1634375 0,16 C0,24.8365625 7.1634375,32 16,32 C24.8365625,32 32,24.8365625 32,16 C32,7.1634375 24.8365625,0 16,0 Z M25.5016875,25.5016875 C24.2666875,26.736625 22.8294375,27.705875 21.2295625,28.3825625 C20.8231875,28.5544375 20.4105,28.7053125 19.992,28.8354375 L19.992,26.4375 C19.992,25.1770625 19.55975,24.25 18.695125,23.65625 C19.236875,23.6041875 19.7341875,23.53125 20.1873125,23.4375 C20.6404375,23.34375 21.1196875,23.2083125 21.6248125,23.03125 C22.1300625,22.8541875 22.5831875,22.64325 22.9841875,22.3984375 C23.3853125,22.153625 23.7706875,21.8359375 24.1404375,21.4453125 C24.5103125,21.0546875 24.820125,20.612 25.070125,20.1171875 C25.320125,19.622375 25.518125,19.028625 25.663875,18.3359375 C25.80975,17.64325 25.882625,16.8801875 25.882625,16.046875 C25.882625,14.4323125 25.356625,13.0573125 24.3045,11.921875 C24.78375,10.671875 24.731625,9.3125 24.14825,7.84375 L23.757625,7.796875 C23.486875,7.765625 22.9998125,7.8801875 22.2966875,8.140625 C21.5935625,8.4010625 20.8045,8.828125 19.9295,9.421875 C18.69,9.078125 17.4035,8.90625 16.0701875,8.90625 C14.7264375,8.90625 13.4451875,9.078125 12.2264375,9.421875 C11.674375,9.046875 11.1509375,8.737 10.656125,8.4921875 C10.1613125,8.247375 9.7655,8.08075 9.468625,7.9921875 C9.17175,7.903625 8.8956875,7.8489375 8.6405,7.828125 C8.3853125,7.8073125 8.22125,7.8020625 8.1483125,7.8125 C8.075375,7.8229375 8.0233125,7.8333125 7.9920625,7.84375 C7.40875,9.3229375 7.356625,10.6823125 7.8358125,11.921875 C6.78375,13.0573125 6.2576875,14.4323125 6.2576875,16.046875 C6.2576875,16.8801875 6.330625,17.64325 6.4764375,18.3359375 C6.62225,19.028625 6.8201875,19.622375 7.0701875,20.1171875 C7.3201875,20.612 7.6300625,21.0546875 7.999875,21.4453125 C8.3696875,21.8359375 8.7550625,22.153625 9.156125,22.3984375 C9.5571875,22.64325 10.0103125,22.8541875 10.5155,23.03125 C11.0206875,23.2083125 11.499875,23.34375 11.953,23.4375 C12.406125,23.53125 12.9035,23.6041875 13.4451875,23.65625 C12.591,24.2395625 12.1639375,25.1666875 12.1639375,26.4375 L12.1639375,28.8821875 C11.692125,28.74175 11.2270625,28.5758125 10.7701875,28.3825625 C9.170375,27.705875 7.7330625,26.736625 6.498125,25.5016875 C5.26325,24.2668125 4.2939375,22.8294375 3.6173125,21.2295625 C2.9174375,19.5746875 2.5625,17.8151875 2.5625,16 C2.5625,14.1848125 2.9174375,12.4253125 3.6174375,10.7703125 C4.294125,9.1705 5.263375,7.7331875 6.49825,6.49825 C7.733125,5.2633125 9.1705,4.2940625 10.7703125,3.6174375 C12.4253125,2.9174375 14.1848125,2.5625 16,2.5625 C17.8151875,2.5625 19.5746875,2.9174375 21.22975,3.6174375 C22.829625,4.294125 24.266875,5.263375 25.501875,6.49825 C26.73675,7.733125 27.706,9.1705 28.382625,10.7703125 C29.0825,12.4253125 29.4375,14.1848125 29.4375,16 C29.4375,17.8151875 29.0825,19.5746875 28.3825625,21.2296875 C27.7059375,22.8294375 26.7365625,24.266875 25.5016875,25.5016875 Z"/>
  </g>
</svg>
