<svg xmlns="http://www.w3.org/2000/svg" width="16" height="16" viewBox="0 0 16 16">
  <g fill="none" fill-rule="evenodd">
    <rect width="16" height="16"/>
    <path fill="#424242" fill-rule="nonzero" d="M6.62867856,10.228872 C8.17067344,10.8911511 10.0266343,10.592754 11.2857075,9.33368075 C12.5396342,8.07975412 12.8407224,6.23380958 12.1889721,4.69557668 L10.537676,6.34687282 C9.91945494,6.96509384 8.92095862,6.96893184 8.29783593,6.34580915 C7.67902746,5.72700068 7.67413997,4.72860141 8.29677226,4.10596912 L9.9480684,2.45467298 C8.4098355,1.80292273 6.56389096,2.10401092 5.30996433,3.35793755 C4.06119678,4.6067051 3.7574432,6.44262906 4.39870359,7.97703962 L1.52399159,10.8517516 C0.899210254,11.476533 0.901643386,12.4773866 1.52045186,13.096195 C2.14357454,13.7193177 3.14413188,13.7134187 3.76489529,13.0926553 L6.62867856,10.228872 L6.62867856,10.228872 Z"/>
  </g>
</svg>
