<svg xmlns="http://www.w3.org/2000/svg" width="16" height="16" viewBox="0 0 16 16">
  <g fill="none" fill-rule="evenodd">
    <rect width="16" height="16"/>
    <path fill="#00539C" fill-rule="nonzero" d="M7,7 C7,4.790861 8.790861,3 11,3 C13.209139,3 15,4.790861 15,7 C15,9.209139 13.209139,11 11,11 C9.13616057,11 7.57006028,9.72522721 7.12601749,8 L4.93699126,8 C4.71496986,8.86261361 3.93191971,9.5 3,9.5 C1.8954305,9.5 1,8.6045695 1,7.5 C1,6.3954305 1.8954305,5.5 3,5.5 C3.93191971,5.5 4.71496986,6.13738639 4.93699126,7 L7,7 L7,7 Z M11,9 C12.1045695,9 13,8.1045695 13,7 C13,5.8954305 12.1045695,5 11,5 C9.8954305,5 9,5.8954305 9,7 C9,8.1045695 9.8954305,9 11,9 Z"/>
  </g>
</svg>
