<?xml version="1.0" encoding="UTF-8" standalone="no"?>
<svg width="13px" height="12px" viewBox="0 0 13 12" version="1.1" xmlns="http://www.w3.org/2000/svg" xmlns:xlink="http://www.w3.org/1999/xlink">
    <!-- Generator: Sketch 39.1 (31720) - http://www.bohemiancoding.com/sketch -->
    <title>iconeditorchanged</title>
    <desc>Created with Sketch.</desc>
    <defs></defs>
    <g id="Page-1" stroke="none" stroke-width="1" fill="none" fill-rule="evenodd">
        <g id="iconeditorchanged">
            <g id="Group-Copy-3" fill="#0096B9">
                <rect id="Rectangle-2-Copy-5" x="0" y="0" width="13" height="12" rx="1.625"></rect>
            </g>
            <path d="M6.89494349,3.6015969 C6.35158305,3.6015969 5.93087313,3.80574212 5.63280111,4.21403868 C5.3347291,4.62233525 5.18569532,5.19130272 5.18569532,5.92095818 C5.18569532,7.43926251 5.75543902,8.19840329 6.89494349,8.19840329 C7.37310069,8.19840329 7.95215899,8.07886578 8.63213578,7.83978719 L8.63213578,9.0506987 C8.07325075,9.28356746 7.44917182,9.4000001 6.75988029,9.4000001 C5.76941182,9.4000001 5.01182347,9.0996039 4.48709253,8.49880249 C3.96236158,7.89800108 3.70000005,7.03562337 3.70000005,5.91164348 C3.70000005,5.20372244 3.82885216,4.5835246 4.08656026,4.05103137 C4.34426836,3.51853813 4.71452414,3.11024769 5.1973387,2.8261478 C5.68015327,2.54204791 6.24601588,2.4000001 6.89494349,2.4000001 C7.55629078,2.4000001 8.22073302,2.55990091 8.88829013,2.87970735 L8.42255494,4.05336004 C8.16795176,3.93226829 7.91179996,3.8267027 7.65409186,3.73666011 C7.39638377,3.64661752 7.14333684,3.6015969 6.89494349,3.6015969 L6.89494349,3.6015969 Z" id="C" fill="#FFFFFF"></path>
        </g>
    </g>
</svg>