<?xml version="1.0" encoding="UTF-8" standalone="no"?>
<svg width="17px" height="16px" viewBox="0 0 17 16" version="1.1" xmlns="http://www.w3.org/2000/svg" xmlns:xlink="http://www.w3.org/1999/xlink">
    <!-- Generator: Sketch 39.1 (31720) - http://www.bohemiancoding.com/sketch -->
    <title>iconcommentghost</title>
    <desc>Created with Sketch.</desc>
    <defs></defs>
    <g id="Page-1" stroke="none" stroke-width="1" fill="none" fill-rule="evenodd">
        <g id="iconcommentghost">
            <g id="Group" transform="translate(0.000000, 1.000000)">
                <path d="M12.9452257,11.1857251 C11.6034777,12.6939235 9.57931567,13.6543256 7.3148173,13.6543256 C3.27495526,13.6543256 0,10.5977007 0,6.82716281 C0,3.05662491 3.27495526,0 7.3148173,0 C11.3546793,0 14.6296346,3.05662491 14.6296346,6.82716281 C14.6296346,7.42566876 14.5471191,8.00618701 14.3921267,8.5593481 L17,11.1857251 L12.9452257,11.1857251 Z" id="Combined-Shape-Copy-2" fill="#FFFFFF"></path>
                <path d="M13.6825247,9.26395077 L13.2720244,8.8505379 L13.4292112,8.28954506 C13.5618372,7.81620838 13.6296346,7.32625916 13.6296346,6.82716281 C13.6296346,3.62491687 10.8172237,1 7.3148173,1 C3.81241093,1 1,3.62491687 1,6.82716281 C1,10.0294088 3.81241093,12.6543256 7.3148173,12.6543256 C9.23420677,12.6543256 11.0066053,11.8603478 12.1980937,10.5210494 L12.4964104,10.1857251 L12.9452257,10.1857251 L16.0070453,10.1857251 L16.7066838,10.8903278 L16.5837141,11.1857251 L15.5907594,11.1857251 L13.6825247,9.26395077 L13.6825247,9.26395077 Z M7.3148173,13.6543256 C3.27495526,13.6543256 0,10.5977007 0,6.82716281 C0,3.05662491 3.27495526,0 7.3148173,0 C11.3546793,0 14.6296346,3.05662491 14.6296346,6.82716281 C14.6296346,7.42566876 14.5471191,8.00618701 14.3921267,8.5593481 L16.3011378,10.4819043 C16.6871087,10.8706138 16.5505757,11.1857251 15.997696,11.1857251 L12.9452257,11.1857251 C11.6034777,12.6939235 9.57931567,13.6543256 7.3148173,13.6543256 L7.3148173,13.6543256 Z" id="Combined-Shape-Copy-2" fill="#CBE0E9"></path>
                <polygon id="+-copy" fill="#CBE0E9" points="6.74864067 7.06338028 4.80000019 7.06338028 4.80000019 5.96177062 6.74864067 5.96177062 6.74864067 4 7.85135971 4 7.85135971 5.96177062 9.80000019 5.96177062 9.80000019 7.06338028 7.85135971 7.06338028 7.85135971 9 6.74864067 9"></polygon>
            </g>
        </g>
    </g>
</svg>