<?xml version="1.0" encoding="UTF-8" standalone="no"?>
<svg width="13px" height="12px" viewBox="0 0 13 12" version="1.1" xmlns="http://www.w3.org/2000/svg" xmlns:xlink="http://www.w3.org/1999/xlink">
    <!-- Generator: Sketch 39.1 (31720) - http://www.bohemiancoding.com/sketch -->
    <title>iconeditordeleted</title>
    <desc>Created with Sketch.</desc>
    <defs></defs>
    <g id="Page-1" stroke="none" stroke-width="1" fill="none" fill-rule="evenodd">
        <g id="iconeditordeleted">
            <g id="Group-Copy-2" fill="#E44602">
                <rect id="Rectangle-2-Copy-5" x="0" y="0" width="13" height="12" rx="1.625"></rect>
            </g>
            <path d="M9.57478023,5.81345224 C9.57478023,6.95920993 9.24867265,7.83676463 8.59644771,8.44614267 C7.94422277,9.05552072 7.00239869,9.36020517 5.77094722,9.36020517 L3.79999995,9.36020517 L3.79999995,2.4000001 L5.98518062,2.4000001 C7.12141677,2.4000001 8.00373216,2.69992385 8.63215327,3.29978037 C9.26057438,3.89963688 9.57478023,4.73751913 9.57478023,5.81345224 L9.57478023,5.81345224 Z M8.04182124,5.85153818 C8.04182124,4.35665766 7.38167159,3.60922861 6.06135249,3.60922861 L5.27583003,3.60922861 L5.27583003,8.14145517 L5.90900874,8.14145517 C7.33089085,8.14145517 8.04182124,7.37815714 8.04182124,5.85153818 L8.04182124,5.85153818 Z" id="D" fill="#FFFFFF"></path>
        </g>
    </g>
</svg>