<svg xmlns="http://www.w3.org/2000/svg" width="16" height="16" viewBox="0 0 16 16">
  <g fill="none" fill-rule="evenodd">
    <rect width="16" height="16"/>
    <path fill="#000000" fill-rule="nonzero" d="M7,1 L7,4.99474203 C7,5.55878216 6.54857352,6 5.99171074,6 L2,6 L2,15 L13,15 L13,1 L7,1 Z M2.41421356,5 L6,5 L6,1.41421356 L2.41421356,5 Z M13.0029699,9.71857298e-17 C13.5536144,1.04827458e-16 14,0.444630861 14,1.00087166 L14,14.9991283 C14,15.5518945 13.5525106,16 13.0014977,16 L1.99850233,16 C1.44704472,16 1,15.555163 1,15.0044225 L1,5 L6,0 L13.0029699,9.71857298e-17 Z"/>
  </g>
</svg>
