<?xml version="1.0" encoding="UTF-8"?>
<svg width="198px" height="24px" viewBox="0 0 198 24" version="1.1" xmlns="http://www.w3.org/2000/svg" xmlns:xlink="http://www.w3.org/1999/xlink">
    <title>buttonssosigningoogle</title>
    <defs>
        <rect id="path-1" x="0" y="0" width="198" height="24" rx="1.20833333"></rect>
        <filter x="-1.0%" y="-8.3%" width="102.0%" height="120.8%" filterUnits="objectBoundingBox" id="filter-2">
            <feOffset dx="0" dy="1" in="SourceAlpha" result="shadowOffsetOuter1"></feOffset>
            <feGaussianBlur stdDeviation="0.5" in="shadowOffsetOuter1" result="shadowBlurOuter1"></feGaussianBlur>
            <feColorMatrix values="0 0 0 0 0   0 0 0 0 0   0 0 0 0 0  0 0 0 0.24 0" type="matrix" in="shadowBlurOuter1" result="shadowMatrixOuter1"></feColorMatrix>
            <feOffset dx="0" dy="0" in="SourceAlpha" result="shadowOffsetOuter2"></feOffset>
            <feGaussianBlur stdDeviation="0.5" in="shadowOffsetOuter2" result="shadowBlurOuter2"></feGaussianBlur>
            <feColorMatrix values="0 0 0 0 0   0 0 0 0 0   0 0 0 0 0  0 0 0 0.12 0" type="matrix" in="shadowBlurOuter2" result="shadowMatrixOuter2"></feColorMatrix>
            <feMerge>
                <feMergeNode in="shadowMatrixOuter1"></feMergeNode>
                <feMergeNode in="shadowMatrixOuter2"></feMergeNode>
            </feMerge>
        </filter>
    </defs>
    <g id="buttonssosigningoogle" stroke="none" stroke-width="1" fill="none" fill-rule="evenodd">
        <g id="Group-2">
            <g id="button-bg">
                <use fill="black" fill-opacity="1" filter="url(#filter-2)" xlink:href="#path-1"></use>
                <use fill="#4285F4" fill-rule="evenodd" xlink:href="#path-1"></use>
            </g>
            <path d="M67.8465169,15.8142904 C68.6879883,15.8142904 69.4265137,15.6263021 70.0620931,15.2503255 C70.6976725,14.874349 71.0154622,14.2495117 71.0154622,13.3758138 C71.0154622,12.6739909 70.7648112,12.1386719 70.2635091,11.7698568 C69.9734701,11.5585937 69.5616862,11.3920898 69.0281576,11.2703451 L69.0281576,11.2703451 L67.9217122,11.0179036 C67.1769206,10.8460286 66.6988932,10.7027995 66.4876302,10.5882161 C66.1653646,10.4091797 66.0042318,10.1263021 66.0042318,9.73958333 C66.0042318,9.38867187 66.1420898,9.08072917 66.417806,8.81575521 C66.6935221,8.55078125 67.1464844,8.41829427 67.7766927,8.41829427 C68.5572917,8.41829427 69.1105143,8.6241862 69.4363607,9.03597005 C69.6118164,9.26155599 69.7263997,9.58561198 69.7801107,10.008138 L69.7801107,10.008138 L70.7845052,10.008138 C70.7845052,9.13085937 70.4953613,8.4925944 69.9170736,8.0933431 C69.3387858,7.6940918 68.6360677,7.49446615 67.8089193,7.49446615 C66.9101563,7.49446615 66.2154948,7.72184245 65.7249349,8.17659505 C65.234375,8.63134766 64.9890951,9.21321615 64.9890951,9.92220052 C64.9890951,10.577474 65.2397461,11.0698242 65.7410482,11.3992513 C66.0310872,11.5890299 66.5252279,11.7626953 67.2234701,11.9202474 L67.2234701,11.9202474 L68.2923177,12.1619466 C68.8723958,12.2944336 69.2985026,12.4501953 69.570638,12.6292318 C69.8391927,12.811849 69.9734701,13.1180013 69.9734701,13.5476888 C69.9734701,14.1206055 69.6547852,14.5180664 69.0174154,14.7400716 C68.6879883,14.8546549 68.3227539,14.9119466 67.9217122,14.9119466 C67.0265299,14.9119466 66.4016927,14.6505534 66.0472005,14.1277669 C65.8610026,13.8484701 65.7553711,13.485026 65.730306,13.0374349 L65.730306,13.0374349 L64.7259115,13.0374349 C64.7151693,13.8896484 64.9873047,14.5646159 65.5423177,15.0623372 C66.0973307,15.5636393 66.8653971,15.8142904 67.8465169,15.8142904 Z M73.2229818,8.78889974 L73.2229818,7.69319661 L72.2400716,7.69319661 L72.2400716,8.78889974 L73.2229818,8.78889974 Z M73.2229818,15.5833333 L73.2229818,9.8577474 L72.2400716,9.8577474 L72.2400716,15.5833333 L73.2229818,15.5833333 Z M76.7517904,18.0164388 C77.8653971,18.0164388 78.6227214,17.6261393 79.023763,16.8455404 C79.2386068,16.4230143 79.3460286,15.8465169 79.3460286,15.1160482 L79.3460286,15.1160482 L79.3460286,9.88460286 L78.4544271,9.88460286 L78.4544271,10.6097005 C78.2646484,10.3697917 78.0784505,10.1871745 77.8958333,10.061849 C77.5592448,9.83984375 77.1653646,9.72884115 76.7141927,9.72884115 C76.0481771,9.72884115 75.4797363,9.9991862 75.0088704,10.5398763 C74.5380046,11.0805664 74.3025716,11.8325195 74.3025716,12.7957357 C74.3025716,13.8162435 74.5362142,14.5476074 75.0034993,14.9898275 C75.4707845,15.4320475 76.0159505,15.6531576 76.6389974,15.6531576 C77.0865885,15.6531576 77.4464518,15.581543 77.7185872,15.4383138 C77.9907227,15.2950846 78.2234701,15.0766602 78.4168294,14.7830404 C78.4275716,15.5743815 78.3649089,16.1240234 78.2288411,16.4319661 C77.9996745,16.9547526 77.5144857,17.2161458 76.7732747,17.2161458 C76.3041992,17.2161458 75.9604492,17.108724 75.7420247,16.8938802 C75.6023763,16.7542318 75.5092773,16.5555013 75.4627279,16.2976888 L75.4627279,16.2976888 L74.4798177,16.2976888 C74.5299479,16.8885091 74.766276,17.3226725 75.1888021,17.600179 C75.6113281,17.8776855 76.1323242,18.0164388 76.7517904,18.0164388 Z M76.7517904,14.8636068 C76.3077799,14.8636068 75.9541829,14.6944173 75.6909993,14.3560384 C75.4278158,14.0176595 75.296224,13.5244141 75.296224,12.8763021 C75.296224,12.3248698 75.3624674,11.879069 75.4949544,11.5388997 C75.7456055,10.9015299 76.2111003,10.5828451 76.8914388,10.5828451 C77.3461914,10.5828451 77.7203776,10.7547201 78.0139974,11.0984701 C78.3076172,11.4422201 78.4544271,11.9703776 78.4544271,12.6829427 C78.4544271,13.155599 78.375651,13.5691732 78.218099,13.9236654 C77.9352214,14.550293 77.4464518,14.8636068 76.7517904,14.8636068 Z M81.7683919,15.5833333 L81.7683919,12.5701497 C81.7683919,12.1941732 81.7925618,11.9050293 81.8409017,11.7027181 C81.8892415,11.5004069 81.9939779,11.304362 82.1551107,11.1145833 C82.3556315,10.8782552 82.5883789,10.7207031 82.8533529,10.6419271 C83.0001628,10.5953776 83.188151,10.5721029 83.4173177,10.5721029 C83.8684896,10.5721029 84.180013,10.7511393 84.351888,11.1092122 C84.4557292,11.324056 84.5076497,11.6069336 84.5076497,11.9578451 L84.5076497,11.9578451 L84.5076497,15.5833333 L85.4905599,15.5833333 L85.4905599,11.8933919 C85.4905599,11.3133138 85.4117839,10.867513 85.2542318,10.5559896 C84.9677734,9.98665365 84.4163411,9.70198568 83.5999349,9.70198568 C83.2275391,9.70198568 82.8891602,9.77539062 82.5847982,9.92220052 C82.2804362,10.0690104 81.9921875,10.3107096 81.7200521,10.6472982 L81.7200521,10.6472982 L81.7200521,9.83089193 L80.8015951,9.83089193 L80.8015951,15.5833333 L81.7683919,15.5833333 Z M90.9583333,8.78889974 L90.9583333,7.69319661 L89.9754232,7.69319661 L89.9754232,8.78889974 L90.9583333,8.78889974 Z M90.9583333,15.5833333 L90.9583333,9.8577474 L89.9754232,9.8577474 L89.9754232,15.5833333 L90.9583333,15.5833333 Z M93.3860677,15.5833333 L93.3860677,12.5701497 C93.3860677,12.1941732 93.4102376,11.9050293 93.4585775,11.7027181 C93.5069173,11.5004069 93.6116536,11.304362 93.7727865,11.1145833 C93.9733073,10.8782552 94.2060547,10.7207031 94.4710286,10.6419271 C94.6178385,10.5953776 94.8058268,10.5721029 95.0349935,10.5721029 C95.4861654,10.5721029 95.7976888,10.7511393 95.9695638,11.1092122 C96.0734049,11.324056 96.1253255,11.6069336 96.1253255,11.9578451 L96.1253255,11.9578451 L96.1253255,15.5833333 L97.1082357,15.5833333 L97.1082357,11.8933919 C97.1082357,11.3133138 97.0294596,10.867513 96.8719076,10.5559896 C96.5854492,9.98665365 96.0340169,9.70198568 95.2176107,9.70198568 C94.8452148,9.70198568 94.5068359,9.77539062 94.202474,9.92220052 C93.898112,10.0690104 93.6098633,10.3107096 93.3377279,10.6472982 L93.3377279,10.6472982 L93.3377279,9.83089193 L92.4192708,9.83089193 L92.4192708,15.5833333 L93.3860677,15.5833333 Z M103.644857,15.5833333 L104.778158,11.1306966 L105.949056,15.5833333 L106.953451,15.5833333 L108.623861,9.83089193 L107.657064,9.83089193 L106.480794,14.3372396 L105.352865,9.83089193 L104.267904,9.83089193 L103.145345,14.3640951 L102.0389,9.83089193 L100.980794,9.83089193 L102.640462,15.5833333 L103.644857,15.5833333 Z M110.519857,8.78889974 L110.519857,7.69319661 L109.536947,7.69319661 L109.536947,8.78889974 L110.519857,8.78889974 Z M110.519857,15.5833333 L110.519857,9.8577474 L109.536947,9.8577474 L109.536947,15.5833333 L110.519857,15.5833333 Z M113.33431,15.6746419 C113.473958,15.6746419 113.60376,15.6674805 113.723714,15.6531576 C113.843669,15.6388346 113.959147,15.6155599 114.07015,15.5833333 L114.07015,15.5833333 L114.07015,14.820638 C113.998535,14.8277995 113.935872,14.8322754 113.882161,14.8340658 C113.828451,14.8358561 113.77832,14.8367513 113.731771,14.8367513 C113.556315,14.8367513 113.43099,14.8170573 113.355794,14.7776693 C113.219727,14.7096354 113.151693,14.5753581 113.151693,14.3748372 L113.151693,14.3748372 L113.151693,10.6204427 L114.07015,10.6204427 L114.07015,9.83089193 L113.151693,9.83089193 L113.151693,8.2249349 L112.174154,8.2249349 L112.174154,9.83089193 L111.395345,9.83089193 L111.395345,10.6204427 L112.174154,10.6204427 L112.174154,14.4285482 C112.174154,14.7973633 112.25472,15.0972493 112.415853,15.3282064 C112.576986,15.5591634 112.883138,15.6746419 113.33431,15.6746419 Z M116.003743,15.5833333 L116.003743,12.5325521 C116.003743,11.766276 116.166667,11.2452799 116.492513,10.9695638 C116.818359,10.6938477 117.181803,10.5559896 117.582845,10.5559896 C118.066243,10.5559896 118.395671,10.7135417 118.571126,11.0286458 C118.678548,11.2255859 118.732259,11.535319 118.732259,11.9578451 L118.732259,11.9578451 L118.732259,15.5833333 L119.725911,15.5833333 L119.725911,11.8933919 C119.725911,11.3276367 119.645345,10.8854167 119.484212,10.5667318 C119.187012,9.98307292 118.621257,9.69124349 117.786947,9.69124349 C117.321452,9.69124349 116.932943,9.79329427 116.621419,9.99739583 C116.438802,10.1155599 116.23291,10.3196615 116.003743,10.6097005 L116.003743,10.6097005 L116.003743,7.66634115 L115.036947,7.66634115 L115.036947,15.5833333 L116.003743,15.5833333 Z M127.546224,15.792806 C128.269531,15.792806 128.865723,15.660319 129.334798,15.3953451 C129.614095,15.2413737 129.93457,14.9656576 130.296224,14.5681966 L130.296224,14.5681966 L130.554036,15.5833333 L131.241536,15.5833333 L131.241536,11.3616536 L127.777181,11.3616536 L127.777181,12.2478841 L130.247884,12.2478841 C130.237142,13.1717122 129.998128,13.8404134 129.530843,14.2539876 C129.063558,14.6675618 128.473633,14.874349 127.761068,14.874349 C126.830078,14.874349 126.158691,14.579834 125.746908,13.990804 C125.335124,13.4017741 125.129232,12.6381836 125.129232,11.7000326 C125.129232,10.6150716 125.378988,9.79866536 125.878499,9.2508138 C126.378011,8.70296224 126.993001,8.42903646 127.72347,8.42903646 C128.339355,8.42903646 128.849609,8.56062826 129.254232,8.82381185 C129.658854,9.08699544 129.925618,9.50683594 130.054525,10.0833333 L130.054525,10.0833333 L131.11263,10.0833333 C130.937174,9.05208333 130.457357,8.33056641 129.673177,7.91878255 C129.132487,7.63232422 128.491536,7.48909505 127.750326,7.48909505 C126.668945,7.48909505 125.788086,7.86149089 125.107747,8.60628255 C124.391602,9.38688151 124.033529,10.4378255 124.033529,11.7591146 C124.033529,13.0839844 124.400553,14.1259766 125.134603,14.8850911 C125.80778,15.4902344 126.611654,15.792806 127.546224,15.792806 Z M134.958333,15.792806 C135.907227,15.792806 136.607259,15.4902344 137.058431,14.8850911 C137.509603,14.2799479 137.735189,13.5136719 137.735189,12.586263 C137.735189,11.6266276 137.479167,10.8997396 136.967122,10.405599 C136.455078,9.91145833 135.828451,9.66438802 135.08724,9.66438802 C134.260091,9.66438802 133.601237,9.95084635 133.110677,10.523763 C132.620117,11.0966797 132.374837,11.8665365 132.374837,12.8333333 C132.374837,13.7356771 132.607585,14.4545085 133.073079,14.9898275 C133.538574,15.5251465 134.166992,15.792806 134.958333,15.792806 Z M135.049642,14.9602865 C134.465983,14.9602865 134.039876,14.7561849 133.771322,14.3479818 C133.502767,13.9397786 133.36849,13.4295247 133.36849,12.8172201 C133.36849,12.1798503 133.502767,11.6355794 133.771322,11.1844076 C134.039876,10.7332357 134.469564,10.5076497 135.060384,10.5076497 C135.7264,10.5076497 136.195475,10.7726237 136.467611,11.3025716 C136.639486,11.6391602 136.725423,12.0760091 136.725423,12.6131185 C136.725423,13.2075195 136.606364,13.7473145 136.368245,14.2325033 C136.130127,14.7176921 135.690592,14.9602865 135.049642,14.9602865 Z M141.076009,15.792806 C142.024902,15.792806 142.724935,15.4902344 143.176107,14.8850911 C143.627279,14.2799479 143.852865,13.5136719 143.852865,12.586263 C143.852865,11.6266276 143.596842,10.8997396 143.084798,10.405599 C142.572754,9.91145833 141.946126,9.66438802 141.204915,9.66438802 C140.377767,9.66438802 139.718913,9.95084635 139.228353,10.523763 C138.737793,11.0966797 138.492513,11.8665365 138.492513,12.8333333 C138.492513,13.7356771 138.72526,14.4545085 139.190755,14.9898275 C139.65625,15.5251465 140.284668,15.792806 141.076009,15.792806 Z M141.167318,14.9602865 C140.583659,14.9602865 140.157552,14.7561849 139.888997,14.3479818 C139.620443,13.9397786 139.486165,13.4295247 139.486165,12.8172201 C139.486165,12.1798503 139.620443,11.6355794 139.888997,11.1844076 C140.157552,10.7332357 140.58724,10.5076497 141.17806,10.5076497 C141.844076,10.5076497 142.313151,10.7726237 142.585286,11.3025716 C142.757161,11.6391602 142.843099,12.0760091 142.843099,12.6131185 C142.843099,13.2075195 142.72404,13.7473145 142.485921,14.2325033 C142.247803,14.7176921 141.808268,14.9602865 141.167318,14.9602865 Z M147.07015,18.0164388 C148.183757,18.0164388 148.941081,17.6261393 149.342122,16.8455404 C149.556966,16.4230143 149.664388,15.8465169 149.664388,15.1160482 L149.664388,15.1160482 L149.664388,9.88460286 L148.772786,9.88460286 L148.772786,10.6097005 C148.583008,10.3697917 148.39681,10.1871745 148.214193,10.061849 C147.877604,9.83984375 147.483724,9.72884115 147.032552,9.72884115 C146.366536,9.72884115 145.798096,9.9991862 145.32723,10.5398763 C144.856364,11.0805664 144.620931,11.8325195 144.620931,12.7957357 C144.620931,13.8162435 144.854574,14.5476074 145.321859,14.9898275 C145.789144,15.4320475 146.33431,15.6531576 146.957357,15.6531576 C147.404948,15.6531576 147.764811,15.581543 148.036947,15.4383138 C148.309082,15.2950846 148.541829,15.0766602 148.735189,14.7830404 C148.745931,15.5743815 148.683268,16.1240234 148.547201,16.4319661 C148.318034,16.9547526 147.832845,17.2161458 147.091634,17.2161458 C146.622559,17.2161458 146.278809,17.108724 146.060384,16.8938802 C145.920736,16.7542318 145.827637,16.5555013 145.781087,16.2976888 L145.781087,16.2976888 L144.798177,16.2976888 C144.848307,16.8885091 145.084635,17.3226725 145.507161,17.600179 C145.929688,17.8776855 146.450684,18.0164388 147.07015,18.0164388 Z M147.07015,14.8636068 C146.626139,14.8636068 146.272542,14.6944173 146.009359,14.3560384 C145.746175,14.0176595 145.614583,13.5244141 145.614583,12.8763021 C145.614583,12.3248698 145.680827,11.879069 145.813314,11.5388997 C146.063965,10.9015299 146.52946,10.5828451 147.209798,10.5828451 C147.664551,10.5828451 148.038737,10.7547201 148.332357,11.0984701 C148.625977,11.4422201 148.772786,11.9703776 148.772786,12.6829427 C148.772786,13.155599 148.69401,13.5691732 148.536458,13.9236654 C148.253581,14.550293 147.764811,14.8636068 147.07015,14.8636068 Z M152.113607,15.5833333 L152.113607,7.69319661 L151.14681,7.69319661 L151.14681,15.5833333 L152.113607,15.5833333 Z M155.808919,15.7874349 C156.102539,15.7874349 156.365723,15.7587891 156.59847,15.7014974 C157.031738,15.601237 157.395182,15.4078776 157.688802,15.1214193 C157.864258,14.9567057 158.022705,14.7445475 158.164144,14.4849447 C158.305583,14.2253418 158.388835,13.9899089 158.4139,13.7786458 L158.4139,13.7786458 L157.463216,13.7786458 C157.391602,14.0328776 157.269857,14.2566732 157.097982,14.4500326 C156.797201,14.7830404 156.394368,14.9495443 155.889486,14.9495443 C155.348796,14.9495443 154.949544,14.7731934 154.691732,14.4204915 C154.433919,14.0677897 154.296061,13.5996094 154.278158,13.0159505 L154.278158,13.0159505 L158.494466,13.0159505 C158.494466,12.4358724 158.46582,12.0133464 158.408529,11.7483724 C158.344076,11.3616536 158.215169,11.0232747 158.02181,10.7332357 C157.821289,10.4288737 157.52946,10.1809082 157.146322,9.98933919 C156.763184,9.79777018 156.367513,9.70198568 155.95931,9.70198568 C155.150065,9.70198568 154.494792,9.99023437 153.99349,10.5667318 C153.492188,11.1432292 153.241536,11.8933919 153.241536,12.8172201 C153.241536,13.7553711 153.490397,14.4849447 153.988118,15.0059408 C154.48584,15.5269368 155.092773,15.7874349 155.808919,15.7874349 Z M157.500814,12.2478841 L154.305013,12.2478841 C154.322917,11.7537435 154.482259,11.3464355 154.78304,11.0259603 C155.083822,10.705485 155.456217,10.5452474 155.900228,10.5452474 C156.519694,10.5452474 156.961914,10.7779948 157.226888,11.2434896 C157.370117,11.4941406 157.461426,11.8289388 157.500814,12.2478841 L157.500814,12.2478841 Z" id="SigninwithGoogle" fill="#FFFFFF" fill-rule="nonzero"></path>
            <g id="Group" transform="translate(0.583333, 0.583333)">
                <rect id="button-bg-copy" fill="#FFFFFF" x="1.77635684e-15" y="0" width="22.9583333" height="22.9583333" rx="0.604166667"></rect>
                <g id="google-logo" transform="translate(6.000000, 6.000000)">
                    <path d="M10.6575,5.56107955 C10.6575,5.17551136 10.6228977,4.80477273 10.5586364,4.44886364 L5.4375,4.44886364 L5.4375,6.5521875 L8.36386364,6.5521875 C8.2378125,7.231875 7.85471591,7.80775568 7.27883523,8.19332386 L7.27883523,9.55764205 L9.03613636,9.55764205 C10.0643182,8.61102273 10.6575,7.21704545 10.6575,5.56107955 L10.6575,5.56107955 Z" id="Shape" fill="#4285F4"></path>
                    <path d="M5.4375,10.875 C6.905625,10.875 8.13647727,10.3880966 9.03613636,9.55764205 L7.27883523,8.19332386 C6.79193182,8.51957386 6.16909091,8.71235795 5.4375,8.71235795 C4.02127841,8.71235795 2.82255682,7.75585227 2.39497159,6.470625 L0.578352273,6.470625 L0.578352273,7.87943182 C1.47306818,9.65650568 3.31193182,10.875 5.4375,10.875 L5.4375,10.875 Z" id="Shape" fill="#34A853"></path>
                    <path d="M2.39497159,6.470625 C2.28622159,6.144375 2.22443182,5.79588068 2.22443182,5.4375 C2.22443182,5.07911932 2.28622159,4.730625 2.39497159,4.404375 L2.39497159,2.99556818 L0.578352273,2.99556818 C0.210085227,3.72963068 -5.55111512e-15,4.56008523 -5.55111512e-15,5.4375 C-5.55111512e-15,6.31491477 0.210085227,7.14536932 0.578352273,7.87943182 L2.39497159,6.470625 L2.39497159,6.470625 Z" id="Shape" fill="#FBBC05"></path>
                    <path d="M5.4375,2.16264205 C6.23582386,2.16264205 6.95258523,2.43698864 7.51610795,2.97579545 L9.07568182,1.41622159 C8.13400568,0.538806818 6.90315341,4.4408921e-16 5.4375,4.4408921e-16 C3.31193182,4.4408921e-16 1.47306818,1.21849432 0.578352273,2.99556818 L2.39497159,4.404375 C2.82255682,3.11914773 4.02127841,2.16264205 5.4375,2.16264205 L5.4375,2.16264205 Z" id="Shape" fill="#EA4335"></path>
                </g>
            </g>
        </g>
    </g>
</svg>